<svg width="84" height="44" viewBox="0 0 84 44" fill="none" xmlns="http://www.w3.org/2000/svg">
<g clip-path="url(#clip0_7640_57765)">
<path d="M1.99927 42.5L37.5379 20.737L56.0015 20.737" stroke="#C01D2A" stroke-width="2"/>
<rect x="-0.661765" y="0.661765" width="28.6765" height="28.6765" rx="4.63235" transform="matrix(-1 0 0 1 82.6765 6)" fill="#F73942" stroke="#C01D2A" stroke-width="1.32353"/>
<mask id="path-3-outside-1_7640_57765" maskUnits="userSpaceOnUse" x="62" y="13.5" width="14" height="16" fill="black">
<rect fill="white" x="62" y="13.5" width="14" height="16"/>
<path d="M71.8125 19.3613C71.6367 18.0605 70.7051 17.2344 69.2812 17.2344C67.4004 17.2344 66.2578 18.6582 66.2578 21.1367C66.2578 23.7031 67.4355 25.0391 69.2637 25.0391C70.6348 25.0391 71.584 24.3008 71.8125 23.0527L74.8359 23.0703C74.5898 25.3379 72.6562 27.6758 69.2109 27.6758C65.7656 27.6758 63.1992 25.3203 63.1992 21.1367C63.1992 16.9355 65.8184 14.5977 69.2109 14.5977C72.2695 14.5977 74.5195 16.3203 74.8359 19.3613H71.8125Z"/>
</mask>
<path d="M71.8125 19.3613C71.6367 18.0605 70.7051 17.2344 69.2812 17.2344C67.4004 17.2344 66.2578 18.6582 66.2578 21.1367C66.2578 23.7031 67.4355 25.0391 69.2637 25.0391C70.6348 25.0391 71.584 24.3008 71.8125 23.0527L74.8359 23.0703C74.5898 25.3379 72.6562 27.6758 69.2109 27.6758C65.7656 27.6758 63.1992 25.3203 63.1992 21.1367C63.1992 16.9355 65.8184 14.5977 69.2109 14.5977C72.2695 14.5977 74.5195 16.3203 74.8359 19.3613H71.8125Z" fill="white"/>
<path d="M71.8125 19.3613L70.9381 19.4795L71.0414 20.2437H71.8125V19.3613ZM71.8125 23.0527L71.8176 22.1704L71.0778 22.1661L70.9446 22.8938L71.8125 23.0527ZM74.8359 23.0703L75.7131 23.1655L75.8186 22.1937L74.8411 22.188L74.8359 23.0703ZM74.8359 19.3613V20.2437H75.8149L75.7136 19.27L74.8359 19.3613ZM72.6869 19.2432C72.574 18.4074 72.2072 17.6672 71.5874 17.1387C70.969 16.6113 70.1663 16.352 69.2812 16.352V18.1167C69.82 18.1167 70.195 18.2705 70.4424 18.4814C70.6883 18.6912 70.8752 19.0144 70.9381 19.4795L72.6869 19.2432ZM69.2812 16.352C68.0955 16.352 67.0726 16.8132 66.3692 17.7125C65.6877 18.5838 65.3755 19.7756 65.3755 21.1367H67.1402C67.1402 20.0193 67.3992 19.2599 67.7592 18.7997C68.0973 18.3675 68.5862 18.1167 69.2812 18.1167V16.352ZM65.3755 21.1367C65.3755 22.541 65.6962 23.7376 66.3857 24.6009C67.0965 25.4908 68.1157 25.9214 69.2637 25.9214V24.1567C68.5835 24.1567 68.0998 23.9193 67.7646 23.4997C67.4083 23.0534 67.1402 22.2988 67.1402 21.1367H65.3755ZM69.2637 25.9214C70.1074 25.9214 70.8889 25.6929 71.5087 25.21C72.1339 24.7231 72.5313 24.0263 72.6804 23.2116L70.9446 22.8938C70.8652 23.3272 70.6737 23.6236 70.4244 23.8178C70.1697 24.0161 69.791 24.1567 69.2637 24.1567V25.9214ZM71.8074 23.9351L74.8308 23.9527L74.8411 22.188L71.8176 22.1704L71.8074 23.9351ZM73.9587 22.9751C73.7592 24.8133 72.1875 26.7934 69.2109 26.7934V28.5581C73.125 28.5581 75.4204 25.8625 75.7131 23.1655L73.9587 22.9751ZM69.2109 26.7934C67.6938 26.7934 66.4319 26.2789 65.5482 25.3626C64.6637 24.4455 64.0816 23.0459 64.0816 21.1367H62.3169C62.3169 23.4112 63.0179 25.2811 64.278 26.5876C65.5388 27.8949 67.2827 28.5581 69.2109 28.5581V26.7934ZM64.0816 21.1367C64.0816 19.2229 64.6744 17.8233 65.5655 16.9068C66.4572 15.9897 67.7211 15.48 69.2109 15.48V13.7153C67.3082 13.7153 65.5662 14.3746 64.3002 15.6767C63.0336 16.9794 62.3169 18.8494 62.3169 21.1367H64.0816ZM69.2109 15.48C70.5768 15.48 71.6935 15.8635 72.4908 16.5202C73.2795 17.1698 73.8218 18.1402 73.9583 19.4526L75.7136 19.27C75.5337 17.5414 74.7927 16.13 73.6127 15.158C72.4412 14.1931 70.9037 13.7153 69.2109 13.7153V15.48ZM74.8359 18.479H71.8125V20.2437H74.8359V18.479Z" fill="black" fill-opacity="0.2" mask="url(#path-3-outside-1_7640_57765)"/>
</g>
<defs>
<clipPath id="clip0_7640_57765">
<rect width="84" height="44" fill="white" transform="matrix(-1 0 0 1 84 0)"/>
</clipPath>
</defs>
</svg>
