<svg width="157" height="30" viewBox="0 0 157 30" fill="none" xmlns="http://www.w3.org/2000/svg">
<path d="M55.0698 5.05859V7.45117H56.6201V8.57422H55.0698V11.272H53.7148V5.05859H55.0698ZM46.8423 10.6006V5.5957H48.2095V9.48364C49.6194 9.46533 51.1147 9.33716 52.7261 9.02588L52.8848 10.1367C51.0537 10.5029 49.3569 10.6006 47.7578 10.6006H46.8423ZM47.9287 15.9351V11.8091H55.0698V15.9351H47.9287ZM49.2593 14.8608H53.7393V12.8711H49.2593V14.8608ZM63.1777 6.8042V7.89062H57.77V6.8042H59.8208V5.36377H61.1636V6.8042H63.1777ZM58.0874 11.04C58.0752 9.53857 59.0945 8.47046 60.4922 8.47656C61.896 8.47046 62.897 9.53857 62.897 11.04C62.897 12.572 61.896 13.6401 60.4922 13.6401C59.0945 13.6401 58.0752 12.572 58.0874 11.04ZM59.2837 11.04C59.2776 11.9312 59.7781 12.4866 60.4922 12.4805C61.2002 12.4866 61.7007 11.9312 61.7007 11.04C61.7007 10.1733 61.2002 9.59961 60.4922 9.59961C59.7781 9.59961 59.2776 10.1733 59.2837 11.04ZM63.6416 15.5811V5.27832H64.9111V9.5874H65.9854V5.04639H67.2793V16.0815H65.9854V10.686H64.9111V15.5811H63.6416ZM78.0728 5.5835V6.51123C78.0789 7.43896 78.0789 8.45825 77.8286 9.79492H79.3057V10.8691H74.9966V13.335H73.6416V10.8691H69.2227V9.79492H76.4431C76.6995 8.52539 76.7178 7.56714 76.7178 6.68213H70.4678V5.5835H78.0728ZM70.4312 15.8618V12.334H71.7861V14.7632H78.2681V15.8618H70.4312ZM89.9429 6.56006C89.9429 8.26294 91.6091 9.97803 93.9224 10.3809L93.312 11.5161C91.4626 11.1316 89.949 10.0085 89.2288 8.52539C88.5024 9.99634 86.9888 11.1255 85.1455 11.5161L84.5474 10.3809C86.824 9.96582 88.4963 8.25684 88.5024 6.56006V5.74219H89.9429V6.56006ZM84.2422 14.6777V13.5547H94.3252V14.6777H84.2422ZM101.286 6.12061V13.3472H96.061V6.12061H101.286ZM97.3916 12.2607H99.9307V7.18262H97.3916V12.2607ZM102.958 16.0815V5.04639H104.313V9.28223H106.01V10.4297H104.313V16.0815H102.958ZM116.071 10.8325V11.9067H108.332V5.91309H115.973V7.01172H109.711V8.34229H115.717V9.4043H109.711V10.8325H116.071ZM107.099 14.7388V13.6279H117.182V14.7388H107.099ZM131.359 5.05859V11.5039H130.004V10.2832H127.379V9.18457H130.004V8.00049H127.483C126.787 9.7522 125.176 10.979 122.777 11.6504L122.228 10.5762C124.81 9.88037 126.189 8.56812 126.397 6.92627H122.814V5.82764H127.88C127.88 6.21216 127.849 6.57837 127.788 6.92627H130.004V5.05859H131.359ZM123.961 13.8232C123.961 12.4683 125.445 11.6321 127.709 11.626C129.943 11.6321 131.432 12.4683 131.432 13.8232C131.432 15.1782 129.943 16.0266 127.709 16.0205C125.445 16.0266 123.961 15.1782 123.961 13.8232ZM125.316 13.8232C125.316 14.5496 126.226 14.9463 127.709 14.9463C129.168 14.9463 130.071 14.5496 130.077 13.8232C130.071 13.0847 129.168 12.688 127.709 12.688C126.226 12.688 125.316 13.0847 125.316 13.8232ZM143.629 13.6768V14.7998H133.546V13.6768H137.892V11.8823H134.743V8.26904H141.09V6.90186H134.718V5.80322H142.433V9.34326H136.098V10.7715H142.689V11.8823H139.235V13.6768H143.629ZM153.69 5.04639V7.75635H155.216V8.86719H153.69V11.4917H152.323V5.04639H153.69ZM145.402 10.7959V5.82764H150.346V6.92627H146.745V9.69727C148.856 9.69116 150.034 9.62402 151.334 9.35547L151.469 10.4419C150.041 10.7471 148.74 10.7959 146.293 10.7959H145.402ZM146.354 13.8721C146.354 12.5049 147.807 11.6992 150.089 11.6992C152.354 11.6992 153.782 12.5049 153.788 13.8721C153.782 15.2637 152.354 16.0693 150.089 16.0693C147.807 16.0693 146.354 15.2637 146.354 13.8721ZM147.697 13.8721C147.691 14.5862 148.576 14.9829 150.089 14.9829C151.573 14.9829 152.464 14.5862 152.47 13.8721C152.464 13.1702 151.573 12.7795 150.089 12.7856C148.576 12.7795 147.691 13.1702 147.697 13.8721Z" fill="#F2F4FC"/>
<path d="M51.0938 20.4701V24.9951H50.5563L48.1063 21.4701H48.0625V24.9951H47.5V20.4701H48.0438L50.4938 24.0014H50.5375V20.4701H51.0938ZM52.3578 24.9951H51.7703L53.4265 20.4701H54.0203L55.6765 24.9951H55.0828L54.6296 23.7201H52.8109L52.3578 24.9951ZM52.9828 23.2264H54.4578L53.739 21.2014H53.7015L52.9828 23.2264ZM56.353 20.4701H57.028L58.553 24.1951H58.6092L60.1342 20.4701H60.8092V24.9951H60.278V21.5764H60.2342L58.828 24.9951H58.328L56.9217 21.5764H56.8842V24.9951H56.353V20.4701ZM61.8733 24.9951V20.4701H62.4358V22.4826H64.8295V20.4701H65.3983V24.9951H64.8295V22.9764H62.4358V24.9951H61.8733ZM66.656 24.9951H66.0685L67.7247 20.4701H68.3185L69.9747 24.9951H69.381L68.9279 23.7201H67.1091L66.656 24.9951ZM67.281 23.2264H68.756L68.0372 21.2014H67.9997L67.281 23.2264ZM70.6513 24.9951V20.4701H73.395V20.9701H71.2138V22.4826H73.2513V22.9764H71.2138V24.4951H73.4263V24.9951H70.6513ZM78.4855 21.6076C78.4386 21.1639 78.0261 20.9076 77.4855 20.9076C76.8855 20.9076 76.4949 21.2201 76.4918 21.6514C76.4949 22.1264 77.023 22.3045 77.3668 22.3889L77.8168 22.5139C78.3011 22.6389 79.098 22.917 79.098 23.7639C79.098 24.5014 78.5043 25.0732 77.4543 25.0764C76.4793 25.0732 75.8761 24.5701 75.823 23.8201H76.398C76.4449 24.3264 76.9168 24.567 77.4543 24.5639C78.0793 24.567 78.548 24.2451 78.548 23.7514C78.548 23.3107 78.1293 23.142 77.6543 23.0076L77.098 22.8576C76.3886 22.6514 75.9449 22.2889 75.948 21.6764C75.9449 20.9107 76.6261 20.4076 77.5043 20.4076C78.3824 20.4076 79.0136 20.9201 79.0355 21.6076H78.4855ZM79.8995 24.9951V21.6014H80.4183V22.1326H80.462C80.6026 21.7701 80.9308 21.5576 81.3745 21.5576C81.8183 21.5576 82.1214 21.7701 82.2808 22.1326H82.3183C82.4901 21.7826 82.8495 21.5576 83.337 21.5576C83.9401 21.5576 84.3745 21.9264 84.3745 22.7264V24.9951H83.837V22.7326C83.8339 22.2326 83.5214 22.0389 83.1495 22.0389C82.6776 22.0389 82.4089 22.3576 82.4058 22.7889V24.9951H81.862V22.6764C81.8651 22.2951 81.5901 22.0389 81.1995 22.0389C80.7933 22.0389 80.437 22.3826 80.437 22.8764V24.9951H79.8995ZM85.1385 24.0326C85.1385 23.2545 85.826 23.0764 86.4135 23.0326C86.6323 23.017 87.1791 22.9857 87.3323 22.9826V22.7076C87.3323 22.2764 87.076 22.0264 86.5635 22.0264C86.1354 22.0264 85.876 22.2232 85.801 22.4826H85.2385C85.3073 21.9357 85.8385 21.5576 86.5885 21.5576C87.0323 21.5576 87.8666 21.6889 87.8635 22.7576V24.9951H87.3323V24.5326H87.3073C87.1948 24.7607 86.8854 25.0732 86.2948 25.0764C85.651 25.0732 85.1385 24.6951 85.1385 24.0326ZM85.676 24.0576C85.6791 24.417 85.976 24.5982 86.3885 24.5951C86.9948 24.5982 87.3323 24.192 87.3323 23.7639V23.4232C87.1729 23.4326 86.6385 23.4732 86.476 23.4826C85.9885 23.5139 85.6791 23.6857 85.676 24.0576ZM88.79 24.9951V21.6014H89.3087V22.1201H89.3462C89.4681 21.7764 89.8212 21.5482 90.2212 21.5451C90.3025 21.5482 90.44 21.5514 90.5025 21.5576V22.1014C90.4619 22.092 90.3181 22.0639 90.1775 22.0639C89.69 22.0639 89.3275 22.4014 89.3275 22.8576V24.9951H88.79ZM92.7852 21.6014V22.0514H92.0727V24.0201C92.0696 24.4545 92.2884 24.5264 92.5165 24.5264C92.6134 24.5264 92.7571 24.517 92.8352 24.5139V25.0139C92.7509 25.0264 92.6196 25.0389 92.4602 25.0389C92.0071 25.0389 91.5321 24.7576 91.529 24.1576V22.0514H91.0165V21.6014H91.529V20.7889H92.0727V21.6014H92.7852ZM97.7508 21.6076C97.7039 21.1639 97.2914 20.9076 96.7508 20.9076C96.1508 20.9076 95.7601 21.2201 95.757 21.6514C95.7601 22.1264 96.2883 22.3045 96.632 22.3889L97.082 22.5139C97.5664 22.6389 98.3633 22.917 98.3633 23.7639C98.3633 24.5014 97.7695 25.0732 96.7195 25.0764C95.7445 25.0732 95.1414 24.5701 95.0883 23.8201H95.6633C95.7101 24.3264 96.182 24.567 96.7195 24.5639C97.3445 24.567 97.8133 24.2451 97.8133 23.7514C97.8133 23.3107 97.3945 23.142 96.9195 23.0076L96.3633 22.8576C95.6539 22.6514 95.2101 22.2889 95.2133 21.6764C95.2101 20.9107 95.8914 20.4076 96.7695 20.4076C97.6476 20.4076 98.2789 20.9201 98.3008 21.6076H97.7508ZM100.59 25.0639C99.6085 25.067 99.0023 24.367 99.0023 23.3264C99.0023 22.2826 99.6179 21.5576 100.54 21.5576C101.252 21.5576 102.005 21.9951 102.002 23.2514V23.4764H99.5398C99.5679 24.1951 99.9866 24.5889 100.59 24.5889C100.996 24.5889 101.252 24.4107 101.377 24.2014H101.952C101.793 24.717 101.29 25.067 100.59 25.0639ZM99.5429 23.0201H101.459C101.455 22.4545 101.099 22.0326 100.54 22.0326C99.9523 22.0326 99.5804 22.4951 99.5429 23.0201ZM103.304 22.9576V24.9951H102.766V21.6014H103.285V22.1326H103.329C103.488 21.7857 103.807 21.5576 104.322 21.5576C105.01 21.5576 105.469 21.9764 105.466 22.8389V24.9951H104.929V22.8764C104.929 22.3514 104.641 22.0389 104.16 22.0389C103.666 22.0389 103.304 22.3701 103.304 22.9576ZM106.393 24.9951V21.6014H106.93V24.9951H106.393ZM106.287 20.6826C106.283 20.4826 106.455 20.3232 106.662 20.3264C106.868 20.3232 107.04 20.4826 107.043 20.6826C107.04 20.8795 106.868 21.0389 106.662 21.0389C106.455 21.0389 106.283 20.8795 106.287 20.6826ZM109.238 25.0639C108.313 25.067 107.688 24.367 107.688 23.3139C107.688 22.2545 108.313 21.5576 109.238 21.5576C110.16 21.5576 110.779 22.2545 110.776 23.3139C110.779 24.367 110.16 25.067 109.238 25.0639ZM108.226 23.3139C108.229 23.992 108.547 24.5889 109.238 24.5889C109.922 24.5889 110.238 23.992 110.238 23.3139C110.238 22.6389 109.922 22.0326 109.238 22.0326C108.547 22.0326 108.229 22.6389 108.226 23.3139ZM111.546 24.9951V21.6014H112.065V22.1201H112.102C112.224 21.7764 112.577 21.5482 112.977 21.5451C113.058 21.5482 113.196 21.5514 113.258 21.5576V22.1014C113.218 22.092 113.074 22.0639 112.933 22.0639C112.446 22.0639 112.083 22.4014 112.083 22.8576V24.9951H111.546ZM118.674 21.8951C118.543 21.2701 118.008 20.9326 117.411 20.9326C116.593 20.9326 115.958 21.5639 115.955 22.7326C115.958 23.8982 116.593 24.5295 117.411 24.5326C118.008 24.5295 118.539 24.1951 118.674 23.5764H119.236C119.074 24.5014 118.33 25.0576 117.411 25.0576C116.249 25.0576 115.408 24.1639 115.411 22.7326C115.408 21.3014 116.249 20.4076 117.411 20.4076C118.327 20.4076 119.068 20.9545 119.236 21.8951H118.674ZM120.019 24.9951V21.6014H120.557V24.9951H120.019ZM119.913 20.6826C119.91 20.4826 120.082 20.3232 120.288 20.3264C120.494 20.3232 120.666 20.4826 120.669 20.6826C120.666 20.8795 120.494 21.0389 120.288 21.0389C120.082 21.0389 119.91 20.8795 119.913 20.6826ZM122.958 21.6014V22.0514H122.246V24.0201C122.242 24.4545 122.461 24.5264 122.689 24.5264C122.786 24.5264 122.93 24.517 123.008 24.5139V25.0139C122.924 25.0264 122.792 25.0389 122.633 25.0389C122.18 25.0389 121.705 24.7576 121.702 24.1576V22.0514H121.189V21.6014H121.702V20.7889H122.246V21.6014H122.958ZM123.716 24.9951V21.6014H124.253V24.9951H123.716ZM123.61 20.6826C123.606 20.4826 123.778 20.3232 123.985 20.3264C124.191 20.3232 124.363 20.4826 124.366 20.6826C124.363 20.8795 124.191 21.0389 123.985 21.0389C123.778 21.0389 123.606 20.8795 123.61 20.6826ZM125.073 24.9951V24.5889L126.986 22.1326V22.0951H125.136V21.6014H127.68V22.0264L125.823 24.4639V24.5014H127.742V24.9951H125.073ZM129.844 25.0639C128.863 25.067 128.256 24.367 128.256 23.3264C128.256 22.2826 128.872 21.5576 129.794 21.5576C130.506 21.5576 131.259 21.9951 131.256 23.2514V23.4764H128.794C128.822 24.1951 129.241 24.5889 129.844 24.5889C130.25 24.5889 130.506 24.4107 130.631 24.2014H131.206C131.047 24.717 130.544 25.067 129.844 25.0639ZM128.797 23.0201H130.713C130.709 22.4545 130.353 22.0326 129.794 22.0326C129.206 22.0326 128.834 22.4951 128.797 23.0201ZM132.558 22.9576V24.9951H132.02V21.6014H132.539V22.1326H132.583C132.742 21.7857 133.061 21.5576 133.577 21.5576C134.264 21.5576 134.723 21.9764 134.72 22.8389V24.9951H134.183V22.8764C134.183 22.3514 133.895 22.0389 133.414 22.0389C132.92 22.0389 132.558 22.3701 132.558 22.9576ZM140.473 21.8951C140.342 21.2701 139.808 20.9326 139.211 20.9326C138.392 20.9326 137.758 21.5639 137.754 22.7326C137.758 23.8982 138.392 24.5295 139.211 24.5326C139.808 24.5295 140.339 24.1951 140.473 23.5764H141.036C140.873 24.5014 140.129 25.0576 139.211 25.0576C138.048 25.0576 137.208 24.1639 137.211 22.7326C137.208 21.3014 138.048 20.4076 139.211 20.4076C140.126 20.4076 140.867 20.9545 141.036 21.8951H140.473ZM143.244 25.0639C142.262 25.067 141.656 24.367 141.656 23.3264C141.656 22.2826 142.272 21.5576 143.194 21.5576C143.906 21.5576 144.659 21.9951 144.656 23.2514V23.4764H142.194C142.222 24.1951 142.64 24.5889 143.244 24.5889C143.65 24.5889 143.906 24.4107 144.031 24.2014H144.606C144.447 24.717 143.944 25.067 143.244 25.0639ZM142.197 23.0201H144.112C144.109 22.4545 143.753 22.0326 143.194 22.0326C142.606 22.0326 142.234 22.4951 142.197 23.0201ZM145.958 22.9576V24.9951H145.42V21.6014H145.939V22.1326H145.983C146.142 21.7857 146.461 21.5576 146.976 21.5576C147.664 21.5576 148.123 21.9764 148.12 22.8389V24.9951H147.583V22.8764C147.583 22.3514 147.295 22.0389 146.814 22.0389C146.32 22.0389 145.958 22.3701 145.958 22.9576ZM150.528 21.6014V22.0514H149.815V24.0201C149.812 24.4545 150.031 24.5264 150.259 24.5264C150.356 24.5264 150.5 24.517 150.578 24.5139V25.0139C150.493 25.0264 150.362 25.0389 150.203 25.0389C149.75 25.0389 149.275 24.7576 149.271 24.1576V22.0514H148.759V21.6014H149.271V20.7889H149.815V21.6014H150.528ZM152.673 25.0639C151.692 25.067 151.085 24.367 151.085 23.3264C151.085 22.2826 151.701 21.5576 152.623 21.5576C153.335 21.5576 154.089 21.9951 154.085 23.2514V23.4764H151.623C151.651 24.1951 152.07 24.5889 152.673 24.5889C153.079 24.5889 153.335 24.4107 153.46 24.2014H154.035C153.876 24.717 153.373 25.067 152.673 25.0639ZM151.626 23.0201H153.542C153.539 22.4545 153.182 22.0326 152.623 22.0326C152.035 22.0326 151.664 22.4951 151.626 23.0201ZM154.85 24.9951V21.6014H155.368V22.1201H155.406C155.528 21.7764 155.881 21.5482 156.281 21.5451C156.362 21.5482 156.5 21.5514 156.562 21.5576V22.1014C156.521 22.092 156.378 22.0639 156.237 22.0639C155.75 22.0639 155.387 22.4014 155.387 22.8576V24.9951H154.85Z" fill="#DCDFEC"/>
<path d="M26.9567 12.6875H23.9983V16.6425H26.9567V12.6875Z" fill="#4FC2F1"/>
<path d="M32.3552 16.6422H28.2885V22.9657H26.9567V16.6422H23.9983V22.9657H22.6665V16.6422H0.259277L0.701703 17.4913C1.10838 18.2286 1.43908 18.2689 1.43908 18.2689C2.73507 18.4163 3.69589 20.3782 3.69589 20.3782C4.62096 22.5948 5.28684 22.1524 5.28684 22.1524C6.7303 22.4116 7.13698 23.2964 7.13698 23.2964C7.43193 23.7791 7.72688 24.1455 7.95033 24.4405C9.05862 23.7388 11.8696 22.1479 13.9387 22.2954C13.9387 22.2954 15.5654 22.1837 17.3396 23.6629C17.3396 23.6629 18.0054 24.217 19.1137 24.1813C19.1137 24.1813 20.593 24.1455 20.7047 22.4428C20.7047 22.4428 20.1863 23.4037 18.8545 22.702C18.8545 22.702 17.7462 22.1479 18.2646 20.7402C18.2646 20.7402 18.8545 19.2967 20.4455 19.6319C20.4455 19.6319 21.9605 19.8151 21.9247 21.996C21.9247 21.996 21.9247 24.6192 20.222 25.2493C20.222 25.2493 18.5596 25.9912 16.5262 24.436C16.5262 24.436 14.1219 22.1792 10.8685 23.7344C10.8685 23.7344 9.64852 24.2528 8.50447 24.9186C8.76367 25.1421 8.9469 25.1778 8.9469 25.1778C9.50105 25.2493 9.76025 25.6605 9.76025 25.6605C10.1669 26.3264 10.6496 26.2504 10.6496 26.2504C11.7936 26.5096 12.2763 27.1397 12.2763 27.1397C12.4237 27.2514 12.6472 27.3989 12.8662 27.5106C13.6438 27.1397 15.6369 26.2906 16.7497 26.7733C16.7497 26.7733 17.4513 27.2157 18.2646 28.029C18.2646 28.029 16.2313 26.4023 14.3454 27.6224L13.827 28.0648C14.2694 28.2882 14.6403 28.4357 14.6403 28.4357C18.0769 30.1741 21.9247 29.9909 21.9247 29.9909C24.5122 29.9149 27.064 28.8424 27.064 28.8424C30.0224 27.6224 32.1273 25.9197 32.1273 25.9197L32.8647 25.2538C34.7506 23.8863 34.4199 22.0719 34.4199 22.0719C34.0892 20.186 36.194 19.4844 36.194 19.4844C37.9324 18.747 38.004 18.0052 38.004 18.0052C38.1514 17.2678 38.6341 17.0086 38.6341 17.0086C38.7458 16.8969 38.8173 16.7494 38.8933 16.6377H32.3507L32.3552 16.6422Z" fill="#0B318F"/>
<path d="M18.8945 11.0965V16.6425H22.6663V8.32129C22.0764 8.83969 20.8162 9.87648 18.8945 11.0965Z" fill="#4FC2F1"/>
<path d="M5.36268 14.0907C5.36268 14.0907 6.73017 14.1666 7.54352 14.98C7.54352 14.98 16.1954 12.2807 22.6664 6.91801H28.2839V9.87645C31.7607 11.6506 36.0464 13.684 38.8574 14.5331L38.8216 14.4973C38.5624 14.1622 38.4909 13.3488 38.4909 13.3488C38.5624 12.3522 37.6016 12.0528 37.6016 12.0528C36.0464 11.6104 36.1984 10.6496 36.1984 10.6496C35.9749 8.68771 34.4957 8.46873 34.4957 8.46873C32.7573 7.54366 31.6132 5.17959 31.6132 5.17959C31.0591 4.1428 30.2457 4.03555 30.2457 4.03555C29.7631 3.88807 29.2492 3.33392 29.2492 3.33392C28.4716 2.55633 27.5465 2.48482 27.5465 2.48482C26.3265 2.18987 25.9198 1.74745 25.9198 1.74745C24.959 0.9341 24.3646 1.34077 24.3646 1.34077C23.6272 1.59997 23.4038 1.34077 23.4038 1.34077C23.0686 1.04582 22.5904 1.11733 22.5904 1.11733C20.3336 1.11733 19.4488 0.415703 19.4488 0.415703C16.897 -0.580871 15.4938 0.527426 15.4938 0.527426C14.2737 1.34077 13.4604 1.524 13.4604 1.524C11.2036 2.22562 10.6137 4.07577 10.6137 4.07577C10.0953 4.77739 9.17021 6.25661 9.17021 6.25661C7.65524 8.28998 4.6968 8.54918 4.6968 8.54918C2.33273 8.54918 1.51492 11.9858 1.51492 11.9858C0.925018 13.6885 0.370869 14.5733 0.370869 14.5733C-0.366506 16.0525 0.223394 16.6067 0.223394 16.6067L0.259146 16.6424H2.14504C2.18079 16.5307 2.84666 14.0907 5.36268 14.0907Z" fill="#4FC2F1"/>
<path d="M8.06184 15.8687C8.06184 15.8687 8.32104 16.1994 8.24507 16.6463H12.3476V14.4297C11.0158 14.9481 9.61256 15.4263 8.05737 15.8732L8.06184 15.8687Z" fill="#4FC2F1"/>
<path d="M12.9822 14.166V16.6418H18.2689V11.4668C16.8255 12.3561 15.0513 13.2767 12.9822 14.166Z" fill="#4FC2F1"/>
<path d="M14.4213 8.36156C14.4213 8.36156 14.5688 5.84555 15.3821 5.43887C15.3821 5.43887 15.9363 5.32715 16.1195 5.92152L16.6021 5.10817C16.6021 5.10817 15.3821 5.10817 15.9005 4.51827C15.9005 4.51827 16.5306 4.14735 16.5306 3.44572C16.5306 3.44572 16.5306 2.37318 17.8624 2.18995C17.8624 2.18995 16.4591 1.60005 15.7933 3.29825C15.7933 3.29825 15.4983 4.4423 14.7207 4.22332C14.7207 4.22332 13.9074 3.74068 13.7599 4.15182C13.7599 4.15182 13.8359 4.55849 14.3498 4.78194C14.3498 4.78194 14.7565 5.11264 14.314 5.70701C14.314 5.70701 12.6114 7.88785 14.4258 8.3705L14.4213 8.36156Z" fill="white"/>
<path d="M32.3551 16.6428V13.166C31.0993 12.5359 29.7318 11.8342 28.2883 11.0566V16.6383H32.3551V16.6428Z" fill="#4FC2F1"/>
<path d="M32.9854 13.4648V16.6467H38.9022C38.9782 16.4233 39.0497 16.2401 39.0855 16.0568C38.0487 15.6502 35.8321 14.8011 32.9854 13.4693V13.4648Z" fill="#4FC2F1"/>
<path d="M22.6665 6.91797V8.32569V16.6424H23.9982V12.6874H26.9567V16.6424H28.2884V11.0607V9.87641V6.91797H22.6665Z" fill="#E60012"/>
<path d="M26.9566 8.21387H25.0349C25.5891 8.50882 26.2549 8.84399 26.9566 9.21044V8.21387Z" fill="#4FC2F1"/>
<path d="M23.9983 11.3196H26.9567V10.323C25.9959 9.76885 24.9949 9.17448 23.9983 8.54883V11.324V11.3196Z" fill="#4FC2F1"/>
<path d="M25.5847 26.5723C25.5847 26.5723 25.2138 27.5734 23.958 27.7209C23.958 27.7209 22.8855 27.8683 21.6655 26.76C21.6655 26.76 20.1147 25.3925 16.9329 27.2382C16.9329 27.2382 19.1897 25.2763 21.3303 25.9467C21.3303 25.9467 21.9202 26.1701 22.6978 26.6483C22.6978 26.6483 23.6586 27.3857 24.5077 26.9075C24.5077 26.9075 24.9144 26.6126 24.9144 26.0584C24.9144 26.0584 24.3602 26.6483 23.6184 26.0942C23.6184 26.0942 22.8051 25.54 23.5424 24.4317C23.5424 24.4317 24.244 23.5066 25.2808 24.396C25.2808 24.396 26.1657 24.9859 25.5758 26.5768L25.5847 26.5723Z" fill="white"/>
<path d="M25.0351 8.21387H23.9983V8.64289L26.9567 10.3232V9.21044L25.0351 8.21387Z" fill="white"/>
</svg>
