<svg width="84" height="44" viewBox="0 0 84 44" fill="none" xmlns="http://www.w3.org/2000/svg">
<g clip-path="url(#clip0_7640_57766)">
<path d="M82.0007 42.5L46.4621 20.737L27.9985 20.737" stroke="#C01D2A" stroke-width="2"/>
<rect x="0.661765" y="6.66176" width="28.6765" height="28.6765" rx="4.63235" fill="#F73942" stroke="#C01D2A" stroke-width="1.32353"/>
<mask id="path-3-outside-1_7640_57766" maskUnits="userSpaceOnUse" x="7" y="13.5" width="16" height="15" fill="black">
<rect fill="white" x="7" y="13.5" width="16" height="15"/>
<path d="M11.9238 27.5H8.68945L13.0137 14.7734H16.9863L21.293 27.5H18.0762L17.2148 24.7754H12.7852L11.9238 27.5ZM13.5059 22.4902H16.4941L15.0527 17.9199H14.9473L13.5059 22.4902Z"/>
</mask>
<path d="M11.9238 27.5H8.68945L13.0137 14.7734H16.9863L21.293 27.5H18.0762L17.2148 24.7754H12.7852L11.9238 27.5ZM13.5059 22.4902H16.4941L15.0527 17.9199H14.9473L13.5059 22.4902Z" fill="white"/>
<path d="M11.9238 27.5V28.3824H12.5703L12.7651 27.766L11.9238 27.5ZM8.68945 27.5L7.85401 27.2161L7.45775 28.3824H8.68945V27.5ZM13.0137 14.7734V13.8911H12.3816L12.1782 14.4896L13.0137 14.7734ZM16.9863 14.7734L17.8221 14.4906L17.6192 13.8911H16.9863V14.7734ZM21.293 27.5V28.3824H22.5231L22.1288 27.2172L21.293 27.5ZM18.0762 27.5L17.2349 27.766L17.4297 28.3824H18.0762V27.5ZM17.2148 24.7754L18.0562 24.5094L17.8613 23.893H17.2148V24.7754ZM12.7852 24.7754V23.893H12.1387L11.9438 24.5094L12.7852 24.7754ZM13.5059 22.4902L12.6644 22.2248L12.3024 23.3726H13.5059V22.4902ZM16.4941 22.4902V23.3726H17.6976L17.3356 22.2248L16.4941 22.4902ZM15.0527 17.9199L15.8942 17.6545L15.6996 17.0376H15.0527V17.9199ZM14.9473 17.9199V17.0376H14.3004L14.1058 17.6545L14.9473 17.9199ZM11.9238 26.6176H8.68945V28.3824H11.9238V26.6176ZM9.5249 27.7839L13.8491 15.0573L12.1782 14.4896L7.85401 27.2161L9.5249 27.7839ZM13.0137 15.6558H16.9863V13.8911H13.0137V15.6558ZM16.1505 15.0563L20.4572 27.7828L22.1288 27.2172L17.8221 14.4906L16.1505 15.0563ZM21.293 26.6176H18.0762V28.3824H21.293V26.6176ZM18.9175 27.234L18.0562 24.5094L16.3735 25.0414L17.2349 27.766L18.9175 27.234ZM17.2148 23.893H12.7852V25.6577H17.2148V23.893ZM11.9438 24.5094L11.0825 27.234L12.7651 27.766L13.6265 25.0414L11.9438 24.5094ZM13.5059 23.3726H16.4941V21.6079H13.5059V23.3726ZM17.3356 22.2248L15.8942 17.6545L14.2112 18.1853L15.6526 22.7556L17.3356 22.2248ZM15.0527 17.0376H14.9473V18.8023H15.0527V17.0376ZM14.1058 17.6545L12.6644 22.2248L14.3474 22.7556L15.7888 18.1853L14.1058 17.6545Z" fill="black" fill-opacity="0.2" mask="url(#path-3-outside-1_7640_57766)"/>
</g>
<defs>
<clipPath id="clip0_7640_57766">
<rect width="84" height="44" fill="white"/>
</clipPath>
</defs>
</svg>
