<svg width="62" height="20" viewBox="0 0 62 20" fill="none" xmlns="http://www.w3.org/2000/svg">
<mask id="path-1-inside-1_340_14674" fill="white">
<path fill-rule="evenodd" clip-rule="evenodd" d="M4 0C1.79086 0 0 1.79086 0 4V16C0 18.2091 1.79086 20 4 20H52.3199V19.9802C52.8242 19.9806 53.3286 19.7823 53.7133 19.3852L61.4189 11.4322C62.1875 10.6389 62.1875 9.3527 61.4189 8.55941L53.7133 0.606364C53.3286 0.209272 52.8242 0.0109489 52.3199 0.0113957V0H4Z"/>
</mask>
<path fill-rule="evenodd" clip-rule="evenodd" d="M4 0C1.79086 0 0 1.79086 0 4V16C0 18.2091 1.79086 20 4 20H52.3199V19.9802C52.8242 19.9806 53.3286 19.7823 53.7133 19.3852L61.4189 11.4322C62.1875 10.6389 62.1875 9.3527 61.4189 8.55941L53.7133 0.606364C53.3286 0.209272 52.8242 0.0109489 52.3199 0.0113957V0H4Z" fill="#12172E"/>
<path d="M52.3199 20V21H53.3199V20H52.3199ZM52.3199 19.9802L52.3208 18.9802L51.3199 18.9793V19.9802H52.3199ZM53.7133 19.3852L52.9951 18.6894L52.9951 18.6894L53.7133 19.3852ZM61.4189 11.4322L62.1371 12.128L62.1371 12.128L61.4189 11.4322ZM61.4189 8.55941L60.7007 9.25525L61.4189 8.55941ZM53.7133 0.606364L54.4315 -0.0894818V-0.0894827L53.7133 0.606364ZM52.3199 0.0113957H51.3199V1.01228L52.3208 1.0114L52.3199 0.0113957ZM52.3199 0H53.3199V-1H52.3199V0ZM1 4C1 2.34315 2.34315 1 4 1V-1C1.23858 -1 -1 1.23858 -1 4H1ZM1 16V4H-1V16H1ZM4 19C2.34315 19 1 17.6569 1 16H-1C-1 18.7614 1.23858 21 4 21V19ZM52.3199 19H4V21H52.3199V19ZM51.3199 19.9802V20H53.3199V19.9802H51.3199ZM52.9951 18.6894C52.8032 18.8875 52.5602 18.9804 52.3208 18.9802L52.3191 20.9802C53.0882 20.9809 53.854 20.6772 54.4315 20.0811L52.9951 18.6894ZM60.7007 10.7363L52.9951 18.6894L54.4315 20.0811L62.1371 12.128L60.7007 10.7363ZM60.7007 9.25525C61.0936 9.66073 61.0936 10.3308 60.7007 10.7363L62.1371 12.128C63.2815 10.9469 63.2815 9.04467 62.1371 7.86356L60.7007 9.25525ZM52.9951 1.30221L60.7007 9.25525L62.1371 7.86356L54.4315 -0.0894818L52.9951 1.30221ZM52.3208 1.0114C52.5602 1.01118 52.8032 1.10412 52.9951 1.30221L54.4315 -0.0894827C53.854 -0.685576 53.0882 -0.989285 52.3191 -0.988604L52.3208 1.0114ZM51.3199 0V0.0113957H53.3199V0H51.3199ZM4 1H52.3199V-1H4V1Z" fill="#543FAF" mask="url(#path-1-inside-1_340_14674)"/>
<path d="M12.5004 6.21191C12.5058 7.56006 14.2567 8.72021 15.9809 8.96191L15.6371 9.64941C14.1547 9.40234 12.683 8.58057 12.0707 7.40967C11.4584 8.59131 9.99209 9.40234 8.5043 9.64941L8.16055 8.96191C9.88467 8.72021 11.6303 7.58154 11.6303 6.21191V5.66406H12.5004V6.21191ZM7.70937 11.4111V10.7021H16.4105V11.4111H12.4574V14.8701H11.6303V11.4111H7.70937ZM26.4781 10.0469V10.7236H17.7662V10.0469H21.7086V8.92969H18.8727V5.77148H25.3932V6.44824H19.6998V8.24219H25.4576V8.92969H22.525V10.0469H26.4781ZM18.8189 13.1406C18.8136 12.0503 20.0543 11.4272 22.1168 11.4219C24.1632 11.4272 25.3932 12.0503 25.4039 13.1406C25.3932 14.2417 24.1632 14.8594 22.1168 14.8701C20.0543 14.8594 18.8136 14.2417 18.8189 13.1406ZM19.6783 13.1406C19.6676 13.812 20.586 14.1987 22.1168 14.1934C23.6314 14.1987 24.5499 13.812 24.5553 13.1406C24.5499 12.48 23.6314 12.0879 22.1168 12.0879C20.586 12.0879 19.6676 12.48 19.6783 13.1406ZM36.5564 11.1104V11.8086H32.5818V14.8701H31.7547V11.8086H27.8123V11.1104H36.5564ZM28.9832 10.1221V5.77148H35.4607V6.45898H29.8211V7.57617H35.2352V8.25293H29.8211V9.43457H35.5682V10.1221H28.9832ZM42.7031 6.05078V10.1436H38.2881V6.05078H42.7031ZM39.1152 13.0762C39.1206 11.959 40.3345 11.293 42.2842 11.293C44.2339 11.293 45.4316 11.959 45.4316 13.0762C45.4316 14.2041 44.2339 14.8594 42.2842 14.8701C40.3345 14.8594 39.1206 14.2041 39.1152 13.0762ZM39.1152 9.4668H41.8867V6.73828H39.1152V9.4668ZM39.9639 13.0762C39.9531 13.7744 40.8447 14.1772 42.2842 14.1826C43.729 14.1772 44.6099 13.7744 44.6152 13.0762C44.6099 12.3887 43.729 11.9805 42.2842 11.9805C40.8447 11.9805 39.9531 12.3887 39.9639 13.0762ZM44.5078 10.9707V5.32031H45.3457V7.71582H46.7852V8.41406H45.3457V10.9707H44.5078Z" fill="white"/>
</svg>
