<svg width="84" height="44" viewBox="0 0 84 44" fill="none" xmlns="http://www.w3.org/2000/svg">
<g clip-path="url(#clip0_7640_57764)">
<path d="M82 -0.203125L46.4614 21.5599L27.9978 21.5599" stroke="#C01D2A" stroke-width="2"/>
<rect x="0.661765" y="6.66176" width="28.6765" height="28.6765" rx="4.63235" fill="#F73942" stroke="#C01D2A" stroke-width="1.32353"/>
<mask id="path-3-outside-1_7640_57764" maskUnits="userSpaceOnUse" x="9" y="13.5" width="13" height="15" fill="black">
<rect fill="white" x="9" y="13.5" width="13" height="15"/>
<path d="M10.1924 27.5V14.7734H15.4482C18.2959 14.7734 19.7725 16.0742 19.7725 18.0078C19.7725 19.4668 18.7881 20.4688 17.3994 20.75V20.873C18.9287 20.9434 20.2646 22.1035 20.2646 23.9492C20.2646 26.0059 18.665 27.5 15.8525 27.5H10.1924ZM15.1494 25.0742C16.5205 25.0742 17.1357 24.5293 17.1357 23.6152C17.1357 22.6133 16.3975 21.9805 15.2021 21.9805H13.1807V25.0742H15.1494ZM14.9561 20.0293C15.9756 20.0293 16.7139 19.4844 16.7139 18.5703C16.7139 17.709 16.0635 17.1641 14.9912 17.1641H13.1807V20.0293H14.9561Z"/>
</mask>
<path d="M10.1924 27.5V14.7734H15.4482C18.2959 14.7734 19.7725 16.0742 19.7725 18.0078C19.7725 19.4668 18.7881 20.4688 17.3994 20.75V20.873C18.9287 20.9434 20.2646 22.1035 20.2646 23.9492C20.2646 26.0059 18.665 27.5 15.8525 27.5H10.1924ZM15.1494 25.0742C16.5205 25.0742 17.1357 24.5293 17.1357 23.6152C17.1357 22.6133 16.3975 21.9805 15.2021 21.9805H13.1807V25.0742H15.1494ZM14.9561 20.0293C15.9756 20.0293 16.7139 19.4844 16.7139 18.5703C16.7139 17.709 16.0635 17.1641 14.9912 17.1641H13.1807V20.0293H14.9561Z" fill="white"/>
<path d="M10.1924 27.5H9.31003V28.3824H10.1924V27.5ZM10.1924 14.7734V13.8911H9.31003V14.7734H10.1924ZM17.3994 20.75L17.2243 19.8852L16.5171 20.0284V20.75H17.3994ZM17.3994 20.873H16.5171V21.7158L17.3589 21.7545L17.3994 20.873ZM13.1807 21.9805V21.0981H12.2983V21.9805H13.1807ZM13.1807 25.0742H12.2983V25.9566H13.1807V25.0742ZM13.1807 17.1641V16.2817H12.2983V17.1641H13.1807ZM13.1807 20.0293H12.2983V20.9116H13.1807V20.0293ZM11.0747 27.5V14.7734H9.31003V27.5H11.0747ZM10.1924 15.6558H15.4482V13.8911H10.1924V15.6558ZM15.4482 15.6558C16.7512 15.6558 17.6157 15.9549 18.1348 16.3607C18.6269 16.7454 18.8901 17.2874 18.8901 18.0078H20.6548C20.6548 16.7946 20.1797 15.7194 19.2217 14.9704C18.2905 14.2424 16.9929 13.8911 15.4482 13.8911V15.6558ZM18.8901 18.0078C18.8901 18.9798 18.2712 19.6732 17.2243 19.8852L17.5746 21.6148C19.305 21.2643 20.6548 19.9538 20.6548 18.0078H18.8901ZM16.5171 20.75V20.873H18.2818V20.75H16.5171ZM17.3589 21.7545C18.448 21.8045 19.3823 22.6054 19.3823 23.9492H21.147C21.147 21.6017 19.4094 20.0822 17.4399 19.9916L17.3589 21.7545ZM19.3823 23.9492C19.3823 24.7326 19.0859 25.3669 18.5461 25.82C17.9926 26.2845 17.1087 26.6176 15.8525 26.6176V28.3824C17.4089 28.3824 18.7311 27.9685 19.6805 27.1717C20.6435 26.3636 21.147 25.2225 21.147 23.9492H19.3823ZM15.8525 26.6176H10.1924V28.3824H15.8525V26.6176ZM15.1494 25.9566C15.9295 25.9566 16.6516 25.8052 17.1952 25.3865C17.7794 24.9365 18.0181 24.288 18.0181 23.6152H16.2534C16.2534 23.8565 16.1845 23.9375 16.1183 23.9885C16.0115 24.0708 15.7404 24.1919 15.1494 24.1919V25.9566ZM18.0181 23.6152C18.0181 22.8815 17.7389 22.2168 17.1881 21.7494C16.6537 21.2958 15.948 21.0981 15.2021 21.0981V22.8628C15.6516 22.8628 15.9128 22.9816 16.0462 23.0949C16.1634 23.1943 16.2534 23.347 16.2534 23.6152H18.0181ZM15.2021 21.0981H13.1807V22.8628H15.2021V21.0981ZM12.2983 21.9805V25.0742H14.063V21.9805H12.2983ZM13.1807 25.9566H15.1494V24.1919H13.1807V25.9566ZM14.9561 20.9116C15.6141 20.9116 16.2644 20.7363 16.7697 20.3306C17.2949 19.909 17.5962 19.2889 17.5962 18.5703H15.8315C15.8315 18.7658 15.7637 18.8752 15.6649 18.9545C15.5461 19.0499 15.3175 19.1469 14.9561 19.1469V20.9116ZM17.5962 18.5703C17.5962 17.8987 17.3326 17.2882 16.815 16.8626C16.3171 16.4532 15.6675 16.2817 14.9912 16.2817V18.0464C15.3872 18.0464 15.5989 18.1474 15.6943 18.2257C15.7699 18.288 15.8315 18.3806 15.8315 18.5703H17.5962ZM14.9912 16.2817H13.1807V18.0464H14.9912V16.2817ZM12.2983 17.1641V20.0293H14.063V17.1641H12.2983ZM13.1807 20.9116H14.9561V19.1469H13.1807V20.9116Z" fill="black" fill-opacity="0.2" mask="url(#path-3-outside-1_7640_57764)"/>
</g>
<defs>
<clipPath id="clip0_7640_57764">
<rect width="84" height="44" fill="white"/>
</clipPath>
</defs>
</svg>
