<svg width="97" height="73" viewBox="0 0 97 73" fill="none" xmlns="http://www.w3.org/2000/svg">
<path d="M28.5 13.9531L19.4881 8.75013L16 8.75013" stroke="#C01D2A" stroke-width="2"/>
<circle cx="49" cy="26" r="23.75" stroke="#F73942" stroke-width="2.5"/>
<rect x="0.375" y="0.375" width="16.25" height="16.25" rx="2.625" fill="#F73942" stroke="#C01D2A" stroke-width="0.75"/>
<path d="M9.875 3.80859V13H7.7041V5.83984H7.65332L5.58398 7.10938V5.23047L7.85645 3.80859H9.875Z" fill="white"/>
<path d="M9.875 3.80859H10.375V3.30859H9.875V3.80859ZM9.875 13V13.5H10.375V13H9.875ZM7.7041 13H7.2041V13.5H7.7041V13ZM7.7041 5.83984H8.2041V5.33984H7.7041V5.83984ZM7.65332 5.83984V5.33984H7.51217L7.39186 5.41366L7.65332 5.83984ZM5.58398 7.10938H5.08398V8.00272L5.84545 7.53556L5.58398 7.10938ZM5.58398 5.23047L5.31877 4.8066L5.08398 4.95351V5.23047H5.58398ZM7.85645 3.80859V3.30859H7.71291L7.59123 3.38473L7.85645 3.80859ZM9.375 3.80859V13H10.375V3.80859H9.375ZM9.875 12.5H7.7041V13.5H9.875V12.5ZM8.2041 13V5.83984H7.2041V13H8.2041ZM7.7041 5.33984H7.65332V6.33984H7.7041V5.33984ZM7.39186 5.41366L5.32252 6.68319L5.84545 7.53556L7.91479 6.26603L7.39186 5.41366ZM6.08398 7.10938V5.23047H5.08398V7.10938H6.08398ZM5.8492 5.65433L8.12166 4.23246L7.59123 3.38473L5.31877 4.8066L5.8492 5.65433ZM7.85645 4.30859H9.875V3.30859H7.85645V4.30859Z" fill="black" fill-opacity="0.2"/>
</svg>
