<svg width="118" height="118" viewBox="0 0 118 118" fill="none" xmlns="http://www.w3.org/2000/svg">
<g filter="url(#filter0_di_532_8642)">
<mask id="path-1-inside-1_532_8642" fill="white">
<path fill-rule="evenodd" clip-rule="evenodd" d="M59 115C89.9279 115 115 89.9279 115 59C115 28.0721 89.9279 3 59 3C28.0721 3 3 28.0721 3 59C3 89.9279 28.0721 115 59 115ZM59 85C73.3594 85 85 73.3594 85 59C85 44.6406 73.3594 33 59 33C44.6406 33 33 44.6406 33 59C33 73.3594 44.6406 85 59 85Z"/>
</mask>
<path fill-rule="evenodd" clip-rule="evenodd" d="M59 115C89.9279 115 115 89.9279 115 59C115 28.0721 89.9279 3 59 3C28.0721 3 3 28.0721 3 59C3 89.9279 28.0721 115 59 115ZM59 85C73.3594 85 85 73.3594 85 59C85 44.6406 73.3594 33 59 33C44.6406 33 33 44.6406 33 59C33 73.3594 44.6406 85 59 85Z" fill="url(#paint0_linear_532_8642)" fill-opacity="0.4" shape-rendering="crispEdges"/>
<path d="M114.5 59C114.5 89.6518 89.6518 114.5 59 114.5V115.5C90.2041 115.5 115.5 90.2041 115.5 59H114.5ZM59 3.5C89.6518 3.5 114.5 28.3482 114.5 59H115.5C115.5 27.7959 90.2041 2.5 59 2.5V3.5ZM3.5 59C3.5 28.3482 28.3482 3.5 59 3.5V2.5C27.7959 2.5 2.5 27.7959 2.5 59H3.5ZM59 114.5C28.3482 114.5 3.5 89.6518 3.5 59H2.5C2.5 90.2041 27.7959 115.5 59 115.5V114.5ZM84.5 59C84.5 73.0833 73.0833 84.5 59 84.5V85.5C73.6355 85.5 85.5 73.6355 85.5 59H84.5ZM59 33.5C73.0833 33.5 84.5 44.9167 84.5 59H85.5C85.5 44.3645 73.6355 32.5 59 32.5V33.5ZM33.5 59C33.5 44.9167 44.9167 33.5 59 33.5V32.5C44.3645 32.5 32.5 44.3645 32.5 59H33.5ZM59 84.5C44.9167 84.5 33.5 73.0833 33.5 59H32.5C32.5 73.6355 44.3645 85.5 59 85.5V84.5Z" fill="url(#paint1_linear_532_8642)" fill-opacity="0.5" mask="url(#path-1-inside-1_532_8642)"/>
</g>
<defs>
<filter id="filter0_di_532_8642" x="1" y="1" width="116" height="116" filterUnits="userSpaceOnUse" color-interpolation-filters="sRGB">
<feFlood flood-opacity="0" result="BackgroundImageFix"/>
<feColorMatrix in="SourceAlpha" type="matrix" values="0 0 0 0 0 0 0 0 0 0 0 0 0 0 0 0 0 0 127 0" result="hardAlpha"/>
<feOffset/>
<feGaussianBlur stdDeviation="1"/>
<feComposite in2="hardAlpha" operator="out"/>
<feColorMatrix type="matrix" values="0 0 0 0 0 0 0 0 0 0 0 0 0 0 0 0 0 0 0.5 0"/>
<feBlend mode="normal" in2="BackgroundImageFix" result="effect1_dropShadow_532_8642"/>
<feBlend mode="normal" in="SourceGraphic" in2="effect1_dropShadow_532_8642" result="shape"/>
<feColorMatrix in="SourceAlpha" type="matrix" values="0 0 0 0 0 0 0 0 0 0 0 0 0 0 0 0 0 0 127 0" result="hardAlpha"/>
<feOffset/>
<feGaussianBlur stdDeviation="2.5"/>
<feComposite in2="hardAlpha" operator="arithmetic" k2="-1" k3="1"/>
<feColorMatrix type="matrix" values="0 0 0 0 1 0 0 0 0 1 0 0 0 0 1 0 0 0 0.25 0"/>
<feBlend mode="normal" in2="shape" result="effect2_innerShadow_532_8642"/>
</filter>
<linearGradient id="paint0_linear_532_8642" x1="31" y1="9.5" x2="84.5" y2="109" gradientUnits="userSpaceOnUse">
<stop stop-color="white"/>
<stop offset="1" stop-color="white" stop-opacity="0.33"/>
</linearGradient>
<linearGradient id="paint1_linear_532_8642" x1="29" y1="9.5" x2="91.5" y2="111" gradientUnits="userSpaceOnUse">
<stop stop-color="white"/>
<stop offset="1" stop-color="white" stop-opacity="0.25"/>
</linearGradient>
</defs>
</svg>
