<svg width="97" height="73" viewBox="0 0 97 73" fill="none" xmlns="http://www.w3.org/2000/svg">
<path d="M48.5 59V50" stroke="#F73942" stroke-width="2"/>
<circle cx="49" cy="26" r="23.75" stroke="#F73942" stroke-width="2.5"/>
<rect x="40.375" y="56.375" width="16.25" height="16.25" rx="2.625" fill="#F73942" stroke="#C01D2A" stroke-width="0.75"/>
<path d="M48.4619 69.127C46.3672 69.127 44.8755 67.9717 44.8564 66.3213H47.04C47.0591 66.937 47.6558 67.356 48.4746 67.3623C49.2871 67.356 49.8711 66.8989 49.8584 66.2324C49.8711 65.5659 49.249 65.0962 48.2842 65.0898H47.3955V63.541H48.2842C49.1221 63.5474 49.7061 63.0967 49.7061 62.4365C49.7061 61.8145 49.2109 61.3765 48.4746 61.3701C47.7192 61.3765 47.1289 61.8081 47.1162 62.4492H45.0342C45.0596 60.8179 46.5068 59.6816 48.4873 59.6816C50.4487 59.6816 51.7944 60.8115 51.7881 62.3096C51.7944 63.3379 51.0454 64.0552 49.9854 64.2139V64.2773C51.3945 64.4487 52.1372 65.2549 52.1309 66.3975C52.1372 67.9907 50.6074 69.127 48.4619 69.127Z" fill="white"/>
<path d="M44.8564 66.3213V65.8213H44.3506L44.3565 66.3271L44.8564 66.3213ZM47.04 66.3213L47.5398 66.3058L47.5248 65.8213H47.04V66.3213ZM48.4746 67.3623L48.4707 67.8624L48.4785 67.8623L48.4746 67.3623ZM49.8584 66.2324L49.3585 66.2229L49.3583 66.2324L49.3585 66.2419L49.8584 66.2324ZM48.2842 65.0898L48.2875 64.5898H48.2842V65.0898ZM47.3955 65.0898H46.8955V65.5898H47.3955V65.0898ZM47.3955 63.541V63.041H46.8955V63.541H47.3955ZM48.2842 63.541L48.288 63.041H48.2842V63.541ZM48.4746 61.3701L48.4789 60.8701L48.4704 60.8701L48.4746 61.3701ZM47.1162 62.4492V62.9492H47.6064L47.6161 62.4591L47.1162 62.4492ZM45.0342 62.4492L44.5342 62.4414L44.5263 62.9492H45.0342V62.4492ZM51.7881 62.3096L51.2881 62.3075L51.2881 62.3127L51.7881 62.3096ZM49.9854 64.2139L49.9113 63.7194L49.4854 63.7831V64.2139H49.9854ZM49.9854 64.2773H49.4854V64.7202L49.925 64.7737L49.9854 64.2773ZM52.1309 66.3975L51.6308 66.3947L51.6309 66.3995L52.1309 66.3975ZM48.4619 68.627C46.5231 68.627 45.3711 67.5874 45.3564 66.3155L44.3565 66.3271C44.3799 68.3559 46.2113 69.627 48.4619 69.627V68.627ZM44.8564 66.8213H47.04V65.8213H44.8564V66.8213ZM46.5403 66.3367C46.5716 67.3488 47.533 67.855 48.4707 67.8623L48.4785 66.8623C47.7786 66.8569 47.5466 66.5252 47.5398 66.3058L46.5403 66.3367ZM48.4785 67.8623C48.9734 67.8584 49.4388 67.7172 49.7898 67.4341C50.1495 67.1441 50.3678 66.719 50.3583 66.2229L49.3585 66.2419C49.3617 66.4124 49.2944 66.549 49.1621 66.6557C49.0211 66.7694 48.7883 66.8598 48.4707 66.8623L48.4785 67.8623ZM50.3583 66.2419C50.368 65.7316 50.1271 65.2993 49.7337 65.0105C49.3523 64.7305 48.8441 64.5935 48.2875 64.5899L48.2809 65.5898C48.6891 65.5925 48.9744 65.6936 49.142 65.8166C49.2977 65.931 49.3615 66.0668 49.3585 66.2229L50.3583 66.2419ZM48.2842 64.5898H47.3955V65.5898H48.2842V64.5898ZM47.8955 65.0898V63.541H46.8955V65.0898H47.8955ZM47.3955 64.041H48.2842V63.041H47.3955V64.041ZM48.2804 64.041C48.7856 64.0448 49.2577 63.9114 49.6157 63.6339C49.9826 63.3494 50.2061 62.9286 50.2061 62.4365H49.2061C49.2061 62.6046 49.1375 62.7392 49.003 62.8436C48.8595 62.9548 48.6207 63.0436 48.288 63.041L48.2804 64.041ZM50.2061 62.4365C50.2061 61.9838 50.0219 61.5803 49.6949 61.2954C49.3733 61.0152 48.9435 60.8741 48.4789 60.8701L48.4703 61.8701C48.742 61.8724 48.9279 61.9535 49.038 62.0494C49.1427 62.1406 49.2061 62.2671 49.2061 62.4365H50.2061ZM48.4704 60.8701C47.5628 60.8778 46.6364 61.423 46.6163 62.4393L47.6161 62.4591C47.6214 62.1932 47.8757 61.8752 48.4788 61.8701L48.4704 60.8701ZM47.1162 61.9492H45.0342V62.9492H47.1162V61.9492ZM45.5341 62.457C45.5538 61.1915 46.6767 60.1816 48.4873 60.1816V59.1816C46.3369 59.1816 44.5653 60.4443 44.5342 62.4414L45.5341 62.457ZM48.4873 60.1816C50.2785 60.1816 51.2929 61.1823 51.2881 62.3075L52.2881 62.3117C52.296 60.4408 50.6189 59.1816 48.4873 59.1816V60.1816ZM51.2881 62.3127C51.2926 63.038 50.7832 63.5889 49.9113 63.7194L50.0594 64.7084C51.3077 64.5215 52.2963 63.6378 52.2881 62.3065L51.2881 62.3127ZM49.4854 64.2139V64.2773H50.4854V64.2139H49.4854ZM49.925 64.7737C50.5493 64.8496 50.9712 65.0592 51.2331 65.3244C51.4894 65.5842 51.6334 65.9383 51.6309 66.3947L52.6309 66.4002C52.6347 65.7141 52.4105 65.0938 51.9448 64.622C51.4846 64.1557 50.8306 63.8765 50.0457 63.781L49.925 64.7737ZM51.6309 66.3995C51.6333 67.0186 51.3431 67.5583 50.805 67.9584C50.2588 68.3646 49.4512 68.627 48.4619 68.627V69.627C49.6182 69.627 50.6482 69.3212 51.4017 68.7609C52.1632 68.1947 52.6347 67.3696 52.6309 66.3955L51.6309 66.3995Z" fill="black" fill-opacity="0.2"/>
</svg>
