<svg width="84" height="44" viewBox="0 0 84 44" fill="none" xmlns="http://www.w3.org/2000/svg">
<g clip-path="url(#clip0_7640_57763)">
<path d="M2 -0.203125L37.5386 21.5599L56.0022 21.5599" stroke="#C01D2A" stroke-width="2"/>
<rect x="-0.661765" y="0.661765" width="28.6765" height="28.6765" rx="4.63235" transform="matrix(-1 0 0 1 82.6765 6)" fill="#F73942" stroke="#C01D2A" stroke-width="1.32353"/>
<mask id="path-3-outside-1_7640_57763" maskUnits="userSpaceOnUse" x="62" y="13.5" width="14" height="15" fill="black">
<rect fill="white" x="62" y="13.5" width="14" height="15"/>
<path d="M68.2705 27.5H63.6123V14.7734H68.2705C72.1553 14.7734 74.5459 17.1641 74.5459 21.1367C74.5459 25.1094 72.1553 27.5 68.2705 27.5ZM66.6006 24.9336H68.165C70.3447 24.9336 71.54 23.8965 71.54 21.1367C71.54 18.377 70.3447 17.3223 68.1299 17.3223H66.6006V24.9336Z"/>
</mask>
<path d="M68.2705 27.5H63.6123V14.7734H68.2705C72.1553 14.7734 74.5459 17.1641 74.5459 21.1367C74.5459 25.1094 72.1553 27.5 68.2705 27.5ZM66.6006 24.9336H68.165C70.3447 24.9336 71.54 23.8965 71.54 21.1367C71.54 18.377 70.3447 17.3223 68.1299 17.3223H66.6006V24.9336Z" fill="white"/>
<path d="M63.6123 27.5H62.73V28.3824H63.6123V27.5ZM63.6123 14.7734V13.8911H62.73V14.7734H63.6123ZM66.6006 24.9336H65.7182V25.8159H66.6006V24.9336ZM66.6006 17.3223V16.4399H65.7182V17.3223H66.6006ZM68.2705 26.6176H63.6123V28.3824H68.2705V26.6176ZM64.4947 27.5V14.7734H62.73V27.5H64.4947ZM63.6123 15.6558H68.2705V13.8911H63.6123V15.6558ZM68.2705 15.6558C70.0301 15.6558 71.3542 16.1934 72.2379 17.0861C73.1226 17.9797 73.6635 19.3278 73.6635 21.1367H75.4283C75.4283 18.9729 74.7739 17.1394 73.492 15.8446C72.2093 14.5488 70.3957 13.8911 68.2705 13.8911V15.6558ZM73.6635 21.1367C73.6635 22.9456 73.1226 24.2937 72.2379 25.1873C71.3542 26.0801 70.0301 26.6176 68.2705 26.6176V28.3824C70.3957 28.3824 72.2093 27.7246 73.492 26.4289C74.7739 25.134 75.4283 23.3005 75.4283 21.1367H73.6635ZM66.6006 25.8159H68.165V24.0512H66.6006V25.8159ZM68.165 25.8159C69.3807 25.8159 70.5071 25.5267 71.3111 24.6763C72.1041 23.8375 72.4224 22.6212 72.4224 21.1367H70.6577C70.6577 22.412 70.3784 23.0941 70.0288 23.4639C69.6902 23.822 69.129 24.0512 68.165 24.0512V25.8159ZM72.4224 21.1367C72.4224 19.6522 72.104 18.4314 71.3066 17.5883C70.4982 16.7336 69.3632 16.4399 68.1299 16.4399V18.2046C69.1114 18.2046 69.6815 18.4383 70.0245 18.8009C70.3784 19.1751 70.6577 19.8615 70.6577 21.1367H72.4224ZM68.1299 16.4399H66.6006V18.2046H68.1299V16.4399ZM65.7182 17.3223V24.9336H67.4829V17.3223H65.7182Z" fill="black" fill-opacity="0.2" mask="url(#path-3-outside-1_7640_57763)"/>
</g>
<defs>
<clipPath id="clip0_7640_57763">
<rect width="84" height="44" fill="white" transform="matrix(-1 0 0 1 84 0)"/>
</clipPath>
</defs>
</svg>
