<svg width="62" height="20" viewBox="0 0 62 20" fill="none" xmlns="http://www.w3.org/2000/svg">
<mask id="path-1-inside-1_340_14669" fill="white">
<path fill-rule="evenodd" clip-rule="evenodd" d="M4 0C1.79086 0 0 1.79086 0 4V16C0 18.2091 1.79086 20 4 20H52.3199V19.9802C52.8242 19.9806 53.3286 19.7823 53.7133 19.3852L61.4189 11.4322C62.1875 10.6389 62.1875 9.3527 61.4189 8.55941L53.7133 0.606364C53.3286 0.209272 52.8242 0.0109489 52.3199 0.0113957V0H4Z"/>
</mask>
<path fill-rule="evenodd" clip-rule="evenodd" d="M4 0C1.79086 0 0 1.79086 0 4V16C0 18.2091 1.79086 20 4 20H52.3199V19.9802C52.8242 19.9806 53.3286 19.7823 53.7133 19.3852L61.4189 11.4322C62.1875 10.6389 62.1875 9.3527 61.4189 8.55941L53.7133 0.606364C53.3286 0.209272 52.8242 0.0109489 52.3199 0.0113957V0H4Z" fill="#12172E"/>
<path d="M52.3199 20V21H53.3199V20H52.3199ZM52.3199 19.9802L52.3208 18.9802L51.3199 18.9793V19.9802H52.3199ZM53.7133 19.3852L52.9951 18.6894L52.9951 18.6894L53.7133 19.3852ZM61.4189 11.4322L62.1371 12.128L62.1371 12.128L61.4189 11.4322ZM61.4189 8.55941L60.7007 9.25525L61.4189 8.55941ZM53.7133 0.606364L54.4315 -0.0894818V-0.0894827L53.7133 0.606364ZM52.3199 0.0113957H51.3199V1.01228L52.3208 1.0114L52.3199 0.0113957ZM52.3199 0H53.3199V-1H52.3199V0ZM1 4C1 2.34315 2.34315 1 4 1V-1C1.23858 -1 -1 1.23858 -1 4H1ZM1 16V4H-1V16H1ZM4 19C2.34315 19 1 17.6569 1 16H-1C-1 18.7614 1.23858 21 4 21V19ZM52.3199 19H4V21H52.3199V19ZM51.3199 19.9802V20H53.3199V19.9802H51.3199ZM52.9951 18.6894C52.8032 18.8875 52.5602 18.9804 52.3208 18.9802L52.3191 20.9802C53.0882 20.9809 53.854 20.6772 54.4315 20.0811L52.9951 18.6894ZM60.7007 10.7363L52.9951 18.6894L54.4315 20.0811L62.1371 12.128L60.7007 10.7363ZM60.7007 9.25525C61.0936 9.66073 61.0936 10.3308 60.7007 10.7363L62.1371 12.128C63.2815 10.9469 63.2815 9.04467 62.1371 7.86356L60.7007 9.25525ZM52.9951 1.30221L60.7007 9.25525L62.1371 7.86356L54.4315 -0.0894818L52.9951 1.30221ZM52.3208 1.0114C52.5602 1.01118 52.8032 1.10412 52.9951 1.30221L54.4315 -0.0894827C53.854 -0.685576 53.0882 -0.989285 52.3191 -0.988604L52.3208 1.0114ZM51.3199 0V0.0113957H53.3199V0H51.3199ZM4 1H52.3199V-1H4V1Z" fill="#543FAF" mask="url(#path-1-inside-1_340_14669)"/>
<path d="M12.5434 6.1582V7.00684H14.7777V5.33105H15.6264V12.3027H14.7777V9.75684H12.5434V10.6162H8.16055V6.1582H12.5434ZM8.99844 9.93945H11.7162V6.85645H8.99844V9.93945ZM9.44961 14.666V11.6797H10.2982V13.957H15.8412V14.666H9.44961ZM12.5434 9.05859H14.7777V7.71582H12.5434V9.05859ZM21.0855 7.08203C21.0855 8.32275 22.0416 9.50977 23.4381 9.99316L22.9977 10.6592C21.9234 10.2725 21.0909 9.47217 20.6827 8.48926C20.2691 9.58496 19.3829 10.4658 18.2496 10.8848L17.8092 10.2188C19.2164 9.71387 20.2369 8.44092 20.2369 7.09277V6.67383H18.0777V5.98633H23.2232V6.67383H21.0855V7.08203ZM19.2594 12.249V11.5508H25.6832V14.8701H24.8346V12.249H19.2594ZM22.9225 8.53223V7.82324H24.8346V5.32031H25.6832V11.0459H24.8346V8.53223H22.9225ZM36.0301 5.32031V14.8701H35.2137V9.90723H33.9139V14.3867H33.1082V5.52441H33.9139V9.1875H35.2137V5.32031H36.0301ZM27.7264 12.249C29.1014 11.4917 29.8372 9.86963 29.8318 7.93066V7.16797H27.952V6.45898H32.4207V7.16797H30.6482V7.93066C30.6482 9.67627 31.3733 11.2178 32.7322 11.916L32.2273 12.5713C31.2659 12.0449 30.5999 11.105 30.2615 9.93945C29.9339 11.2661 29.2571 12.3081 28.2527 12.8936L27.7264 12.249ZM45.7754 5.32031V14.8701H44.9268V5.32031H45.7754ZM37.998 12.3887C40.5815 11.1641 41.9028 9.33252 42.0908 7.0498H38.4385V6.3623H42.9502C42.9395 9.10693 41.6611 11.54 38.46 13.0762L37.998 12.3887Z" fill="white"/>
</svg>
