<svg width="100" height="80" viewBox="0 0 100 80" fill="none" xmlns="http://www.w3.org/2000/svg">
<path d="M50.0475 73.1985H74.9649C81.3794 69.0885 85.6305 61.8977 85.6305 53.7141C85.6305 40.9428 75.2775 30.5898 62.5062 30.5898C49.735 30.5898 39.382 40.9428 39.382 53.7141C39.382 61.8979 43.6332 69.0885 50.0475 73.1985Z" fill="#252A3A"/>
<path d="M22.4682 73.3249H54.6378C64.4728 67.7242 71.1049 57.146 71.1049 45.0187C71.1049 27.0408 56.5309 12.4668 38.553 12.4668C20.5751 12.4668 6.0011 27.0408 6.0011 45.0187C6.0011 57.1463 12.6333 67.7242 22.4682 73.3249Z" fill="#252A3A"/>
<path d="M28.0466 55.3594H52.8207V64.6664H28.0466V55.3594ZM52.4024 55.7779H28.4652V64.2481H52.4024V55.7779Z" fill="white"/>
<path d="M14.0791 63.1217V38.3477H23.3861V63.1217H14.0791ZM14.4976 38.7659V62.7032H22.9678V38.7659H14.4976Z" fill="white"/>
<path d="M51.7775 58.957H53.5438V57.1907H51.7775V58.957Z" fill="#C4D7F2"/>
<path d="M51.7775 62.6816H53.5438V60.9154H51.7775V62.6816Z" fill="#3B82F4"/>
<path d="M13.4356 59.9492H15.2019V58.1829H13.4356V59.9492Z" fill="#F4B545"/>
<path d="M13.4356 56.6621H15.2019V54.8958H13.4356V56.6621Z" fill="#C4D7F2"/>
<path d="M57.9649 37.9336L49.2002 25.7765C48.8959 25.3543 48.3657 25.1928 47.894 25.3359L46.7609 23.7644C50.3177 20.1029 50.8509 14.294 47.7644 10.0127C44.3034 5.21243 37.5825 4.12244 32.7819 7.58345C27.9814 11.0442 26.8917 17.7654 30.3527 22.5659C33.4394 26.8472 39.1192 28.1769 43.7168 25.959L44.8499 27.5306C44.565 27.9328 44.5508 28.4869 44.8551 28.9091L53.6198 41.0662C54.0028 41.5976 54.7442 41.7177 55.2756 41.3348L57.6961 39.5896C58.2275 39.2064 58.3476 38.4652 57.9647 37.9338L57.9649 37.9336ZM32.6327 20.9223C30.0779 17.379 30.8824 12.4179 34.4258 9.8632C37.9691 7.30872 42.9302 8.11297 45.4846 11.6563C48.0391 15.1997 47.2349 20.1607 43.6915 22.7152C40.1482 25.2699 35.1871 24.4654 32.6324 20.9221L32.6327 20.9223Z" fill="url(#paint0_linear_351_23372)"/>
<path d="M46.762 23.7643L43.7179 25.959L44.8509 27.5305L47.895 25.3359L46.762 23.7643Z" fill="white"/>
<g style="mix-blend-mode:multiply" opacity="0.2">
<path d="M86.4538 54.875L20.7376 53.8997C18.5563 53.8674 16.8141 52.0727 16.8464 49.8913L17.025 37.8546C17.0574 35.6732 18.8521 33.931 21.0335 33.9633L86.7496 34.9387C88.931 34.971 90.6732 36.7657 90.6409 38.9471L90.4622 50.9838C90.4299 53.1652 88.6351 54.9074 86.4538 54.875Z" fill="#003889"/>
</g>
<path d="M90.4575 50.2411L24.0463 51.2898C22.0573 51.3212 20.4185 49.7895 20.386 47.8685L20.1663 34.889C20.1337 32.9681 21.7197 31.3853 23.7087 31.3539L90.1199 30.3052C92.1089 30.2737 93.7477 31.8054 93.7803 33.7265L93.9999 46.706C94.0325 48.6268 92.4465 50.2097 90.4575 50.2411Z" fill="url(#paint1_linear_351_23372)"/>
<path d="M90.4575 50.2411L24.0463 51.2898C22.0573 51.3212 20.4185 49.7895 20.386 47.8685L20.1663 34.889C20.1337 32.9681 21.7197 31.3853 23.7087 31.3539L90.1199 30.3052C92.1089 30.2737 93.7477 31.8054 93.7803 33.7265L93.9999 46.706C94.0325 48.6268 92.4465 50.2097 90.4575 50.2411Z" fill="url(#paint2_linear_351_23372)"/>
<path d="M20.1483 32.5586H86.6928C88.6464 32.5586 90.2325 34.1446 90.2325 36.0983V48.9574C90.2325 50.911 88.6464 52.497 86.6928 52.497H20.1483C18.1947 52.497 16.6086 50.911 16.6086 48.9574V36.0983C16.6086 34.1446 18.1947 32.5586 20.1483 32.5586Z" fill="url(#paint3_linear_351_23372)"/>
<path d="M46.6252 47.0137V38.7865H52.5001V40.5365H48.7843V42.0251H52.1933V43.7751H48.7843V45.2637H52.4888V47.0137H46.6252ZM55.7728 38.7865L57.5001 44.6501H57.5683L59.2955 38.7865H61.7387L59.0114 47.0137H56.0683L53.3297 38.7865H55.7728ZM62.5569 47.0137V38.7865H68.4318V40.5365H64.7159V42.0251H68.125V43.7751H64.7159V45.2637H68.4204V47.0137H62.5569ZM76.6476 38.7865V47.0137H74.8408L71.784 42.5705H71.7272V47.0137H69.5681V38.7865H71.409L74.4204 43.2069H74.4885V38.7865H76.6476ZM77.5226 40.5365V38.7865H84.6134V40.5365H82.1362V47.0137H79.9998V40.5365H77.5226Z" fill="url(#paint4_linear_351_23372)"/>
<path d="M49.8537 74.2226C67.5917 74.2226 81.9713 73.6166 81.9713 72.8691C81.9713 72.1216 67.5917 71.5156 49.8537 71.5156C32.1156 71.5156 17.7361 72.1216 17.7361 72.8691C17.7361 73.6166 32.1156 74.2226 49.8537 74.2226Z" fill="#3A3F4A"/>
<g style="mix-blend-mode:multiply" opacity="0.17">
<path d="M36.3343 71.5975L36.3457 70.7951L36.7007 70.8503C36.7026 70.8506 36.7044 70.8508 36.7062 70.851C36.7372 70.8529 36.7672 70.8308 36.7755 70.7994C36.784 70.7662 36.7645 70.735 36.7317 70.7299L36.3476 70.6701L36.3584 69.9179L36.7223 69.9C36.756 69.8984 36.7849 69.8697 36.7867 69.8363C36.7886 69.8025 36.7627 69.7766 36.7289 69.7785L36.3602 69.7966L36.3687 69.2056C36.5764 69.2173 36.7521 69.2272 36.7521 69.2272L36.7716 69.1056C36.7716 69.1056 36.5858 69.0953 36.3705 69.0831L36.3804 68.3995L36.8223 68.2764C36.8555 68.2672 36.8778 68.2333 36.8718 68.2009C36.8659 68.1686 36.834 68.15 36.8007 68.1592L36.382 68.2757L36.3895 67.7439H36.0277L36.7633 49.2832L37.2011 49.2674L37.2406 48.6817L36.9404 48.6925C37.0062 47.9804 36.728 46.2389 36.784 45.2053C36.9954 45.2899 37.267 45.3768 37.6167 45.4594C39.0516 45.7972 39.2575 40.661 39.2575 40.661H39.186L39.2036 40.4899H39.1536L39.1963 40.2915H40.4376C40.7165 40.2915 40.9922 39.8191 41.0525 39.2361C41.113 38.6532 40.9353 38.1808 40.6564 38.1808C40.656 38.1808 40.6557 38.1808 40.6553 38.1808H39.4852C39.4852 38.1808 39.4848 38.1808 39.4846 38.1808C39.4841 38.1808 39.4839 38.1808 39.4834 38.1808H37.9831C37.8616 38.1808 37.741 38.2704 37.6382 38.4193H37.5018C37.4818 38.358 37.4387 38.3108 37.3635 38.2842C37.1626 38.2131 36.9356 38.184 36.7347 38.2028C37.0197 37.6873 36.1678 36.9396 35.2087 36.7631C35.2087 36.7631 35.2032 36.7619 35.1929 36.7601C34.8964 36.7076 34.5902 36.7099 34.3047 36.7906C34.1985 36.8206 34.1087 36.8514 34.0327 36.8821C34.0323 36.8821 34.0316 36.8825 34.0311 36.8828C34.0268 36.8846 34.0224 36.8864 34.0183 36.8881C33.459 37.1146 32.8834 37.6529 32.7391 38.8866C32.4538 41.3281 24.9954 44.7113 30.2761 45.8327C30.444 45.8683 30.6265 45.9016 30.8208 45.9325C30.6722 47.5961 30.6639 49.2302 30.6639 49.2302C31.1205 49.2454 31.611 49.1805 32.0692 49.0846L32.0442 49.4543L32.1942 49.4488C32.133 49.5339 32.0718 49.6256 32.0096 49.7235C29.9736 52.9447 27.452 62.8674 26.5119 66.764L26.0469 66.625C26.0469 66.625 25.2009 71.2092 25.2472 71.6282C25.2935 72.0472 28.664 72.8723 28.664 72.8723C28.871 72.3222 27.8308 71.2957 27.8308 71.2957L28.067 70.505L28.3821 70.6584C28.3837 70.6593 28.3855 70.66 28.3872 70.6605C28.4154 70.6708 28.4498 70.6575 28.466 70.6286C28.4835 70.5981 28.4738 70.5618 28.4447 70.5476L28.1037 70.3816L28.325 69.6404L28.669 69.7239C28.7009 69.7317 28.736 69.7113 28.747 69.6787C28.7582 69.6459 28.7415 69.6129 28.7094 69.6053L28.3608 69.5207L28.5348 68.9382C28.7252 69.0075 28.8859 69.0662 28.8859 69.0662L28.9382 68.9513C28.9382 68.9513 28.7681 68.8894 28.5708 68.8176L28.7722 68.1438L29.2185 68.145C29.2522 68.145 29.2822 68.1179 29.2859 68.0842C29.2896 68.0505 29.265 68.0232 29.2315 68.0232L28.8087 68.0223L28.8784 67.7886L33.3968 56.0326L33.4959 61.9368L33.5936 67.742H33.2562C33.2562 67.742 33.7071 72.2483 33.8706 72.6258C34.0341 73.0033 37.6009 72.8354 37.6009 72.8354C37.6511 72.2653 36.3336 71.5979 36.3336 71.5979L36.3343 71.5975ZM37.9987 40.4896L37.9616 40.6607H37.8779L37.2956 43.0118C37.2672 43.1012 37.1562 43.1382 37.092 43.0797L36.7042 42.9694C36.9312 41.7989 37.008 40.6607 37.008 40.6607H36.8881C36.8977 40.5674 36.9087 40.4617 36.9087 40.4617H36.6952L36.762 40.0528H37.469C37.5408 40.2018 37.6428 40.2913 37.7644 40.2913H38.0813L38.0824 40.4896H37.998H37.9987Z" fill="#003889"/>
</g>
<g style="mix-blend-mode:multiply" opacity="0.17">
<path d="M71.408 71.6878C71.3537 71.6878 71.3 71.6958 71.248 71.7096L71.3514 71.0101H71.6371C71.7621 71.0101 71.8784 70.9087 71.8967 70.784L71.9167 70.6496C71.9353 70.5246 71.8488 70.4235 71.724 70.4235H68.524L68.5508 70.2419C68.5807 70.041 68.4417 69.8779 68.2408 69.8779H68.1305L68.4701 67.5823L68.5563 67.0001H68.6935L68.7754 66.4465L69.0425 64.641C69.1982 64.5873 69.3377 64.5169 69.4548 64.4346C69.6073 64.3286 69.7199 64.2027 69.7798 64.0645H67.09C67.1047 64.1718 67.1545 64.2715 67.2331 64.3607C67.3216 64.4646 67.4496 64.5532 67.6049 64.6201L67.5631 64.902L67.2526 67.0001H67.3893L67.3691 67.1365L66.9634 69.8779H66.8852C66.6843 69.8779 66.4972 70.0407 66.4674 70.2419L66.4406 70.4235H63.2405C63.1155 70.4235 62.9993 70.5248 62.9809 70.6496L62.961 70.784C62.9424 70.909 63.0289 71.0101 63.1536 71.0101H63.524L63.4205 71.7096C63.3726 71.6958 63.3212 71.6878 63.2669 71.6878C62.9408 71.6878 62.6372 71.9522 62.589 72.2783C62.5408 72.6044 62.766 72.8688 63.0921 72.8688C63.4183 72.8688 63.7219 72.6044 63.77 72.2783C63.7863 72.1687 63.771 72.0666 63.732 71.9786L63.8753 71.0099H67.2673L67.1673 71.6852H67.0822L66.9075 72.8667H66.9948L67.0072 72.7826H67.3537L67.3414 72.8667H67.4287L67.6035 71.6852H67.5184L67.6184 71.0099H70.9991L70.8558 71.9786C70.7909 72.0664 70.7453 72.1687 70.7292 72.2783C70.6811 72.6044 70.9063 72.8688 71.2324 72.8688C71.5585 72.8688 71.8621 72.6044 71.9103 72.2783C71.9584 71.9522 71.7332 71.6878 71.4071 71.6878H71.408Z" fill="#003889"/>
<path d="M77.1133 50.6754H77.2963C77.2353 50.6706 77.1741 50.6708 77.1133 50.6754Z" fill="#003889"/>
<path d="M78.2798 55.2328L78.1725 55.2202L77.7879 53.4204L78.1773 52.0043C78.3557 51.3558 77.9849 50.7634 77.3485 50.6809C77.3331 50.6791 77.3173 50.6779 77.3019 50.6768C77.3001 50.6768 77.2985 50.6761 77.2967 50.6761H77.1137C77.0944 50.6772 77.0749 50.6791 77.0554 50.6813C76.9745 50.691 76.8949 50.7082 76.8165 50.7334C76.744 50.7566 76.6734 50.7864 76.605 50.8215C76.6734 50.7864 76.7442 50.7563 76.8169 50.7332C76.8951 50.7082 76.9749 50.6907 77.0559 50.6811C77.0751 50.6788 77.0942 50.6772 77.1134 50.6758H77.0485C76.9495 50.5944 76.8263 50.5392 76.6839 50.5197C76.4631 50.4894 76.2383 50.5465 76.0464 50.6749L71.9095 50.6713L71.9086 50.6745C71.2986 50.6391 70.6872 51.0852 70.5166 51.7055L68.7228 58.2253H64.5566C64.3899 58.2253 64.225 58.3175 64.1266 58.4656C64.0282 58.614 64.0147 58.7906 64.0913 58.9264L65.6535 61.6969H61.8645C61.2109 61.6969 60.6028 62.2266 60.506 62.8804C60.4092 63.534 60.8607 64.0638 61.5143 64.0638H66.8714C66.2178 64.0638 65.7663 63.5338 65.8631 62.8804C65.889 62.705 65.953 62.5387 66.0436 62.389C65.953 62.5387 65.8892 62.7048 65.8633 62.8802C65.7665 63.5342 66.2178 64.0638 66.8712 64.0638H70.4831L70.2217 65.8298C70.2091 65.9149 70.2513 65.9908 70.3272 66.0195L70.5787 66.1144C70.6014 66.2094 70.6657 66.2885 70.7634 66.3254L72.7103 67.0595C72.7477 67.0735 72.7876 67.0806 72.8289 67.0806C72.9816 67.0806 73.1332 66.9838 73.2059 66.84C73.3009 66.652 73.2334 66.444 73.055 66.3768L71.108 65.6427C71.0709 65.6287 71.0312 65.6218 70.9897 65.6218C70.8961 65.6218 70.8033 65.6583 70.7285 65.7195L70.6457 65.6883L70.886 64.0642H72.875C74.0065 64.0642 75.0924 63.2178 75.4015 62.0957L76.5087 58.0726L76.6864 57.4263L77.6721 57.5421C77.9539 57.5752 78.2463 57.3676 78.3218 57.081L78.6554 55.8146C78.7309 55.528 78.5621 55.2663 78.2803 55.233L78.2798 55.2328ZM77.6904 53.7754L77.9947 55.1993L77.3205 55.1202L77.6904 53.7757V53.7754ZM65.2861 59.113H68.4788L67.7679 61.6971H71.3956H67.2218C67.0728 61.6971 66.9267 61.7258 66.788 61.776C66.9267 61.7255 67.073 61.6969 67.2221 61.6969H66.7432L65.2863 59.1128L65.2861 59.113ZM72.4851 61.6971H73.125H72.4854H72.4851Z" fill="#003889"/>
</g>
<path d="M71.8566 66.9717C71.8341 66.9717 71.8112 66.9681 71.7889 66.9601L69.1579 66.0205C69.0778 65.9918 69.0242 65.9159 69.0242 65.8308V63.0959C69.0242 62.9847 69.1143 62.8945 69.2255 62.8945C69.3367 62.8945 69.4269 62.9847 69.4269 63.0959V65.6891L71.9242 66.581C72.0291 66.6184 72.0836 66.7335 72.0463 66.8383C72.0169 66.9206 71.9394 66.972 71.8566 66.972V66.9717Z" fill="white"/>
<path d="M71.8163 67.0818C71.775 67.0818 71.7342 67.0747 71.6947 67.0607L69.6393 66.3266C69.451 66.2592 69.3526 66.0514 69.4198 65.8634C69.4712 65.7196 69.6083 65.623 69.7613 65.623C69.8026 65.623 69.8436 65.6302 69.8826 65.6439L71.9383 66.378C72.1266 66.4454 72.2249 66.6532 72.1578 66.8412C72.1064 66.9853 71.9693 67.0818 71.8165 67.0818H71.8163Z" fill="#1F3A6F"/>
<path d="M64.9939 62.9929C64.8504 62.9929 64.7151 62.9232 64.6321 62.8065L61.8707 58.9276C61.774 58.7916 61.7613 58.6153 61.8379 58.4669C61.9143 58.3185 62.0657 58.2266 62.2324 58.2266H66.9221C67.1668 58.2266 67.3659 58.4256 67.3659 58.6703C67.3659 58.915 67.1668 59.1141 66.9221 59.1141H63.0931L65.3554 62.2919C65.4242 62.3884 65.4512 62.506 65.4315 62.6228C65.4118 62.7397 65.3478 62.8418 65.2513 62.9106C65.1758 62.9645 65.0868 62.9929 64.9942 62.9929H64.9939Z" fill="white"/>
<path d="M67.6672 64.3223H66.2266V67.0022H67.6672V64.3223Z" fill="white"/>
<path d="M67.5297 67H66.3629V69.8783H67.5297V67Z" fill="white"/>
<g style="mix-blend-mode:multiply" opacity="0.2">
<path d="M67.5297 67.5827L66.3629 67.1367V67H67.5297V67.5827Z" fill="#003889"/>
</g>
<g style="mix-blend-mode:multiply" opacity="0.2">
<path d="M68.0483 64.2315C67.9433 64.3661 67.8141 64.481 67.6665 64.5684V66.4477L66.2258 64.9032V64.5347C66.0607 64.4253 65.9194 64.2808 65.8156 64.1113H67.4158L68.0481 64.2317L68.0483 64.2315Z" fill="#003889"/>
</g>
<path d="M68.3178 64.0664C68.2784 64.2045 68.1844 64.3306 68.0477 64.4365C67.9426 64.5191 67.8135 64.5893 67.6658 64.6429C67.4624 64.7172 67.2251 64.7597 66.9724 64.7597C66.6967 64.7597 66.4396 64.7094 66.2252 64.6223C66.0601 64.5553 65.9188 64.4668 65.8149 64.3629C65.723 64.2737 65.6585 64.174 65.6278 64.0666H68.3176L68.3178 64.0664Z" fill="white"/>
<path d="M71.0749 71.6907C71.0206 71.6907 70.9681 71.6987 70.9181 71.7125V71.013H71.2038C71.3288 71.013 71.4299 70.9117 71.4299 70.7869V70.6525C71.4299 70.5276 71.3286 70.4264 71.2038 70.4264H68.0038V70.2448C68.0038 70.0439 67.8409 69.8809 67.6398 69.8809H66.2845C66.0836 69.8809 65.9206 70.0437 65.9206 70.2448V70.4264H62.7205C62.5955 70.4264 62.4944 70.5278 62.4944 70.6525V70.7869C62.4944 70.9119 62.5958 71.013 62.7205 71.013H63.0909V71.7125C63.0409 71.6987 62.9884 71.6907 62.934 71.6907C62.6079 71.6907 62.3435 71.9551 62.3435 72.2812C62.3435 72.6073 62.6079 72.8717 62.934 72.8717C63.2601 72.8717 63.5245 72.6073 63.5245 72.2812C63.5245 72.1716 63.4943 72.0696 63.4422 71.9815V71.0128H66.8342V71.6882H66.7491V72.8697H66.8365V72.7855H67.183V72.8697H67.2704V71.6882H67.1853V71.0128H70.566V71.9815C70.514 72.0693 70.4837 72.1716 70.4837 72.2812C70.4837 72.6073 70.7481 72.8717 71.0742 72.8717C71.4003 72.8717 71.6648 72.6073 71.6648 72.2812C71.6648 71.9551 71.4003 71.6907 71.0742 71.6907H71.0749Z" fill="#1F3A6F"/>
<path d="M72.5847 51.7059C72.6439 51.2401 72.9666 50.8732 73.3839 50.7336C73.3259 50.7083 73.2635 50.6905 73.1975 50.6817C73.1686 50.6778 73.1402 50.6762 73.1117 50.6758H73.0913C72.8739 50.6788 72.6762 50.7822 72.5471 50.965L69.8007 54.8516L69.6677 54.7576L72.4141 50.8709C72.4685 50.7941 72.5329 50.7287 72.6047 50.6755L68.4674 50.6719L68.4669 50.6751C67.8516 50.6398 67.3063 51.0858 67.2274 51.7061L65.9572 61.6975H71.3143L72.5845 51.7061L72.5847 51.7059Z" fill="#E59D29"/>
<path d="M73.6722 50.6738H73.6074C73.6099 50.6757 73.6129 50.6773 73.6154 50.6791C73.6342 50.6768 73.6532 50.6752 73.6722 50.6738Z" fill="#E59D29"/>
<path d="M64.2284 62.8806C64.2284 62.227 64.7582 61.6973 65.4118 61.6973H60.0547C59.4011 61.6973 58.8711 62.227 58.8711 62.8806C58.8711 63.5342 59.4008 64.0639 60.0547 64.0639H65.4118C64.7582 64.0639 64.2284 63.534 64.2284 62.8806Z" fill="#E59D29"/>
<path d="M73.6727 50.6754H73.856C73.794 50.6706 73.733 50.6708 73.6727 50.6754Z" fill="#F4B545"/>
<path d="M73.1121 50.6754L73.6075 50.6758C73.4963 50.5944 73.3651 50.5394 73.2197 50.5197C72.9943 50.4894 72.7782 50.5465 72.6051 50.6749L73.0917 50.6754C73.0986 50.6754 73.1053 50.6754 73.1121 50.6754Z" fill="#15315E"/>
<path d="M72.4148 50.8694L69.6683 54.7561L69.8013 54.8501L72.5478 50.9635C72.6767 50.7809 72.8746 50.6773 73.092 50.6743L72.6053 50.6738C72.5336 50.727 72.4691 50.7924 72.4148 50.8692V50.8694Z" fill="#15315E"/>
<path d="M73.1978 50.6798C73.2637 50.6887 73.326 50.7064 73.3843 50.7316C73.4588 50.7066 73.5361 50.6892 73.6157 50.6796C73.6132 50.6777 73.6102 50.6761 73.6077 50.6743L73.1123 50.6738C73.1407 50.6743 73.1692 50.6759 73.1981 50.6798H73.1978Z" fill="#E59D29"/>
<path d="M74.7529 53.4219L74.7078 53.7766L75.3272 55.4886L75.4804 55.4331L74.7529 53.4219Z" fill="#15315E"/>
<path d="M74.9325 52.0036L74.7525 53.4197L74.7077 53.7742L74.4566 55.7487L74.1613 58.0716L73.6496 62.0947C73.5068 63.2168 72.5461 64.0633 71.4146 64.0633H65.4113C64.7579 64.0633 64.2281 63.5337 64.2281 62.8797C64.2281 62.2256 64.7577 61.6966 65.4113 61.6966H71.3141L71.8492 57.4877L72.1445 55.1649L72.5846 51.705C72.6445 51.2392 72.9667 50.8723 73.3838 50.7331C73.4586 50.7081 73.5356 50.6907 73.6152 50.6811C73.6343 50.6788 73.6535 50.6769 73.6726 50.6758H73.8556C73.8574 50.6758 73.8592 50.6765 73.8608 50.6765C73.8764 50.6776 73.8925 50.6788 73.9081 50.6806C74.5566 50.7632 75.015 51.3555 74.9327 52.004L74.9325 52.0036Z" fill="#F4B545"/>
<path opacity="0.39" d="M74.4564 55.75L74.161 58.0729L71.8489 57.4888L69.3036 56.8455C69.0231 56.7749 68.8523 56.488 68.9229 56.2082L69.2355 54.9719C69.2995 54.7185 69.541 54.5541 69.7939 54.5786C69.8203 54.5804 69.8464 54.5852 69.8728 54.5917L69.9673 54.6155L72.1443 55.1654L74.4564 55.7495V55.75Z" fill="#AF6B09"/>
<path d="M70.7359 62.9929C70.5923 62.9929 70.457 62.9232 70.374 62.8065L67.6127 58.9276C67.5159 58.7919 67.5033 58.6153 67.5799 58.4669C67.6562 58.3185 67.8074 58.2266 67.9743 58.2266H72.6641C72.9088 58.2266 73.1078 58.4256 73.1078 58.6703C73.1078 58.915 72.9088 59.1141 72.6641 59.1141H68.835L71.0971 62.2919C71.1659 62.3884 71.1929 62.506 71.1732 62.6228C71.1535 62.7397 71.0895 62.8418 70.993 62.9106C70.9175 62.9645 70.8285 62.9929 70.7359 62.9929Z" fill="white"/>
<path d="M75.2457 57.5399L69.3841 56.8633C69.0974 56.8303 68.8899 56.5687 68.9229 56.2818L69.069 55.0154C69.102 54.7288 69.3637 54.5212 69.6505 54.5542L75.5122 55.2308C75.7988 55.2638 76.0064 55.5254 75.9733 55.8123L75.8273 57.0787C75.7942 57.3653 75.5326 57.5729 75.2457 57.5399Z" fill="white"/>
<path d="M70.0072 55.3605L70.1466 56.012L70.4319 55.405C70.4468 55.3731 70.4578 55.3511 70.4647 55.3387C70.4718 55.3263 70.4821 55.3158 70.4961 55.3068C70.5101 55.2979 70.5282 55.2947 70.5502 55.2972C70.5663 55.299 70.581 55.3048 70.5938 55.3144C70.6066 55.324 70.6163 55.3362 70.6227 55.3504C70.6289 55.3646 70.6314 55.3786 70.6298 55.3924C70.6287 55.4018 70.6264 55.4116 70.6225 55.4222C70.6186 55.4327 70.6142 55.4431 70.6092 55.4529C70.6041 55.463 70.5991 55.4731 70.594 55.4839L70.297 56.0689C70.2863 56.0914 70.2757 56.1127 70.2652 56.1327C70.2546 56.1528 70.2432 56.1703 70.2308 56.1849C70.2184 56.1996 70.2026 56.2111 70.1838 56.2193C70.165 56.2276 70.1427 56.2301 70.1173 56.2271C70.0918 56.2242 70.0707 56.2166 70.0542 56.2047C70.0377 56.1927 70.0251 56.1778 70.0161 56.1602C70.0072 56.1425 69.9998 56.1228 69.9941 56.101C69.9884 56.0792 69.9829 56.0563 69.9776 56.032L69.8249 55.4002C69.8223 55.3887 69.8196 55.3775 69.8168 55.3662C69.8141 55.3552 69.812 55.3433 69.8106 55.3307C69.8093 55.3181 69.809 55.3075 69.8102 55.299C69.8127 55.2773 69.8237 55.2587 69.8432 55.2426C69.8627 55.2268 69.8856 55.2204 69.912 55.2234C69.9443 55.227 69.9661 55.2397 69.9771 55.261C69.9881 55.2823 69.9982 55.3156 70.0074 55.3605H70.0072Z" fill="#15315E"/>
<path d="M71.2157 56.2309L71.1845 56.1084L70.8043 56.0646L70.7458 56.1795C70.7229 56.2243 70.7045 56.2541 70.6903 56.2692C70.6761 56.2841 70.655 56.2901 70.6268 56.2869C70.6029 56.2841 70.583 56.2729 70.5667 56.2534C70.5504 56.2339 70.5435 56.213 70.546 56.1908C70.5474 56.1779 70.5511 56.1651 70.557 56.152C70.5628 56.1389 70.572 56.1208 70.5846 56.0977L70.8939 55.5179C70.9026 55.5012 70.9134 55.4812 70.9258 55.4578C70.9382 55.4345 70.9508 55.4154 70.9634 55.4005C70.976 55.3856 70.9919 55.3741 71.0107 55.3661C71.0295 55.3581 71.0519 55.3556 71.0778 55.3588C71.1042 55.3618 71.1256 55.3693 71.1421 55.3815C71.1586 55.3934 71.1714 55.4081 71.1804 55.425C71.1893 55.442 71.1966 55.4599 71.2019 55.4789C71.2072 55.498 71.2138 55.5232 71.2219 55.5546L71.3966 56.1864C71.4104 56.2346 71.4161 56.269 71.4138 56.2898C71.4113 56.3116 71.4001 56.3304 71.3799 56.3463C71.3597 56.3623 71.3368 56.3687 71.3113 56.3658C71.2964 56.3639 71.284 56.36 71.2739 56.3534C71.2638 56.3467 71.2558 56.3385 71.2496 56.3286C71.2434 56.3185 71.2372 56.3036 71.2313 56.2839C71.2251 56.2639 71.22 56.2465 71.2157 56.2314V56.2309ZM70.8705 55.928L71.1499 55.9603L71.0533 55.5581L70.8703 55.928H70.8705Z" fill="#15315E"/>
<path d="M72.3441 56.1669C72.3406 56.1968 72.3296 56.2282 72.3108 56.261C72.2922 56.294 72.2652 56.3254 72.2298 56.355C72.1945 56.3848 72.1512 56.4073 72.0998 56.4224C72.0485 56.4376 71.9904 56.4415 71.9253 56.4339C71.876 56.4282 71.8317 56.4183 71.7923 56.4043C71.7531 56.3903 71.718 56.3715 71.6873 56.3479C71.6565 56.3243 71.6292 56.2947 71.6054 56.2591C71.5841 56.227 71.5669 56.1917 71.5536 56.1534C71.5403 56.1151 71.5318 56.0748 71.5279 56.0326C71.524 55.9904 71.5247 55.9461 71.5299 55.8995C71.5387 55.8243 71.5575 55.7581 71.5861 55.7012C71.6148 55.6441 71.6522 55.5968 71.6978 55.5592C71.7434 55.5216 71.795 55.495 71.8526 55.4792C71.9099 55.4634 71.9698 55.459 72.0319 55.4664C72.1076 55.4751 72.1732 55.498 72.2289 55.5349C72.2847 55.5718 72.3255 55.6145 72.3519 55.6627C72.3782 55.7108 72.389 55.7546 72.3844 55.7941C72.3819 55.8158 72.372 55.834 72.3548 55.8489C72.3376 55.8638 72.3181 55.8697 72.2964 55.8672C72.272 55.8645 72.2546 55.8567 72.2438 55.8438C72.2331 55.831 72.2218 55.8097 72.2101 55.7798C72.1909 55.7305 72.1659 55.6927 72.1351 55.6659C72.1044 55.639 72.0645 55.6227 72.0157 55.6172C71.9379 55.6083 71.8723 55.6308 71.8196 55.6844C71.7666 55.7383 71.7338 55.8195 71.7212 55.9284C71.7127 56.0011 71.7159 56.0628 71.7308 56.1135C71.7457 56.1642 71.7705 56.2034 71.8051 56.2316C71.8398 56.2598 71.8822 56.2768 71.9324 56.2825C71.9868 56.2887 72.0345 56.2807 72.0753 56.258C72.1161 56.2353 72.1489 56.1991 72.1741 56.1488C72.1851 56.1252 72.1973 56.1062 72.211 56.092C72.2248 56.0777 72.2448 56.0722 72.2711 56.0752C72.2936 56.0777 72.3122 56.0878 72.3264 56.1055C72.3408 56.1231 72.3466 56.1436 72.3438 56.1669H72.3441Z" fill="#15315E"/>
<path d="M73.0913 56.4477L73.0601 56.3252L72.6799 56.2814L72.6214 56.3963C72.5985 56.4411 72.5801 56.4709 72.5659 56.486C72.5517 56.5009 72.5306 56.5069 72.5024 56.5037C72.4785 56.5009 72.4586 56.4897 72.4423 56.4702C72.426 56.4507 72.4191 56.4298 72.4217 56.4076C72.423 56.3947 72.4267 56.3819 72.4327 56.3688C72.4384 56.3557 72.4476 56.3376 72.4602 56.3145L72.7695 55.7347C72.7783 55.718 72.789 55.698 72.8014 55.6746C72.8138 55.6513 72.8264 55.6322 72.839 55.6173C72.8516 55.6024 72.8675 55.5909 72.8863 55.5829C72.9051 55.5749 72.9275 55.5724 72.9535 55.5756C72.9798 55.5786 73.0012 55.5861 73.0177 55.5983C73.0342 55.6102 73.047 55.6249 73.056 55.6419C73.0649 55.6588 73.0722 55.6767 73.0775 55.6957C73.0828 55.7148 73.0895 55.74 73.0975 55.7714L73.2722 56.4032C73.286 56.4514 73.2917 56.4858 73.2894 56.5066C73.2869 56.5284 73.2757 56.5472 73.2555 56.5631C73.2353 56.5791 73.2124 56.5855 73.1869 56.5825C73.172 56.5807 73.1596 56.5766 73.1495 56.5702C73.1394 56.5635 73.1314 56.5553 73.1252 56.5454C73.119 56.5353 73.1128 56.5204 73.1069 56.5007C73.1007 56.4807 73.0956 56.4633 73.0913 56.4482V56.4477ZM72.7461 56.1448L73.0255 56.1771L72.9291 55.7749L72.7461 56.1448Z" fill="#15315E"/>
<path d="M73.7637 55.7817L74.0644 56.375L74.1286 55.8187C74.1327 55.7824 74.1437 55.7563 74.1612 55.74C74.1788 55.7237 74.2008 55.7171 74.2272 55.7201C74.2545 55.7233 74.2749 55.7347 74.2884 55.7547C74.3022 55.7746 74.3068 55.8026 74.3027 55.8388L74.2178 56.5743C74.2084 56.6564 74.1697 56.6936 74.1015 56.6858C74.0846 56.6837 74.0694 56.6796 74.0564 56.6731C74.0433 56.6667 74.0314 56.6575 74.0208 56.6454C74.01 56.6335 74.0004 56.6197 73.9919 56.6043C73.9834 56.589 73.975 56.5732 73.9662 56.5571L73.6738 55.9712L73.6106 56.5193C73.6064 56.555 73.595 56.5809 73.5764 56.5975C73.5576 56.6137 73.5353 56.6206 73.5094 56.6174C73.4826 56.6144 73.4622 56.6025 73.4482 56.5823C73.4342 56.5619 73.4292 56.5342 73.4333 56.4989L73.5165 55.7774C73.52 55.7467 73.5262 55.723 73.5351 55.7065C73.5454 55.6884 73.5606 55.6742 73.5807 55.6643C73.6009 55.6545 73.6218 55.6506 73.6433 55.6531C73.6603 55.6552 73.6745 55.6595 73.686 55.6664C73.6975 55.6733 73.7073 55.682 73.7154 55.6923C73.7234 55.7026 73.7314 55.7159 73.7392 55.732C73.747 55.748 73.7553 55.7645 73.7635 55.782L73.7637 55.7817Z" fill="#15315E"/>
<path d="M75.1089 55.9967L74.9023 55.9728L74.8238 56.6523C74.8193 56.6915 74.8073 56.7195 74.7876 56.7363C74.7679 56.7532 74.7443 56.7601 74.7167 56.7569C74.6888 56.7537 74.667 56.7415 74.6514 56.7202C74.636 56.6991 74.6305 56.6691 74.6349 56.6303L74.7133 55.9508L74.5067 55.927C74.4743 55.9233 74.4512 55.9134 74.437 55.8974C74.423 55.8813 74.4172 55.8616 74.4198 55.8382C74.4225 55.8139 74.4331 55.7958 74.451 55.7836C74.4688 55.7715 74.4934 55.7671 74.5246 55.7708L75.1268 55.8403C75.1596 55.8442 75.183 55.854 75.1974 55.8703C75.2116 55.8866 75.2176 55.9066 75.2148 55.9299C75.2121 55.9533 75.202 55.9712 75.1841 55.9836C75.1662 55.996 75.1412 56.0003 75.1089 55.9967Z" fill="#15315E"/>
<path d="M22.428 69.9321C21.0835 71.1441 21.9246 69.7275 21.9246 69.7275C21.9246 69.7275 21.9054 69.1664 21.9061 68.2814C21.9084 65.8998 22.0558 61.1702 23.1194 58.6973C23.4233 57.9924 23.8005 57.4707 24.2714 57.2393C27.0036 55.8947 23.7733 68.7194 22.428 69.9319V69.9321Z" fill="#4CD8BD"/>
<path d="M22.6898 69.3276C21.6618 70.8183 22.1525 69.2453 22.1525 69.2453C22.1525 69.2453 22.0532 68.8843 21.9058 68.2833C21.9081 65.9017 22.0555 61.1721 23.1191 58.6992C23.6803 62.1577 23.3735 68.3358 22.6901 69.3276H22.6898Z" fill="#32B79D"/>
<path d="M22.4863 67.7549C22.4366 67.8981 22.3841 68.0113 22.3292 68.0914C21.3012 69.582 21.7919 68.009 21.7919 68.009C21.7919 68.009 20.1502 62.0312 20.2887 58.1856C20.3355 56.8743 20.5896 55.8106 21.1863 55.3169C23.4078 53.4809 23.3693 65.2271 22.4863 67.7545V67.7549Z" fill="#4CD8BD"/>
<path d="M22.4863 67.7569C22.4366 67.9 22.3841 68.0133 22.3293 68.0933C21.3012 69.5839 21.7919 68.011 21.7919 68.011C21.7919 68.011 20.1502 62.0331 20.2887 58.1875C21.3938 59.4809 22.2884 64.4672 22.4863 67.7567V67.7569Z" fill="#32B79D"/>
<path d="M20.9322 69.3528C20.9322 69.3528 16.386 59.172 18.4122 56.8989C20.4383 54.6258 22.2665 67.7234 21.476 69.3528C20.6852 70.9822 20.9325 69.3528 20.9325 69.3528H20.9322Z" fill="#4CD8BD"/>
<path d="M25.3781 66.6074V69.8916C25.3781 71.6155 23.9805 73.013 22.2567 73.013H21.5318C21.4311 73.013 21.3318 73.0084 21.2339 72.999C19.6499 72.849 18.4104 71.515 18.4104 69.8919V66.6077H25.3778L25.3781 66.6074Z" fill="#C4D7F2"/>
<path d="M24.0574 66.6074V69.8916C24.0574 71.515 22.8179 72.8488 21.2339 72.9988C19.6499 72.8488 18.4104 71.5148 18.4104 69.8916V66.6074H24.0574Z" fill="white"/>
<path d="M44.4074 69.1147H42.7246C42.3212 69.1147 41.993 68.7865 41.993 68.3831V66.7003C41.993 66.2969 42.3212 65.9688 42.7246 65.9688H44.4074C44.8108 65.9688 45.139 66.2969 45.139 66.7003V68.3831C45.139 68.7865 44.8108 69.1147 44.4074 69.1147ZM42.7246 66.274C42.4895 66.274 42.2983 66.4652 42.2983 66.7003V68.3831C42.2983 68.6182 42.4895 68.8094 42.7246 68.8094H44.4074C44.6425 68.8094 44.8337 68.6182 44.8337 68.3831V66.7003C44.8337 66.4652 44.6425 66.274 44.4074 66.274H42.7246Z" fill="#1F3A6F"/>
<path d="M46.3433 67.0625H38.889V72.7918H46.3433V67.0625Z" fill="#C4D7F2"/>
<path d="M47.3408 67.0625H39.7914V72.7918H47.3408V67.0625Z" fill="white"/>
<path d="M47.3408 69.9336H39.7914V70.0861H47.3408V69.9336Z" fill="#1F3A6F"/>
<path d="M44.1637 70.0859H42.9691V70.8104H44.1637V70.0859Z" fill="#1F3A6F"/>
<path d="M64.7762 24.6042C66.9544 22.426 66.9544 18.8944 64.7762 16.7161C62.598 14.5379 59.0664 14.5379 56.8881 16.7161C54.7099 18.8944 54.7099 22.426 56.8881 24.6042C59.0664 26.7824 62.598 26.7824 64.7762 24.6042Z" fill="url(#paint5_linear_351_23372)"/>
<path d="M72.4484 27.5272C73.4866 27.5272 74.3282 26.6856 74.3282 25.6474C74.3282 24.6092 73.4866 23.7676 72.4484 23.7676C71.4102 23.7676 70.5686 24.6092 70.5686 25.6474C70.5686 26.6856 71.4102 27.5272 72.4484 27.5272Z" fill="url(#paint6_linear_351_23372)"/>
<path d="M79.4786 63.9665C80.4612 63.9665 81.2577 63.1699 81.2577 62.1873C81.2577 61.2047 80.4612 60.4082 79.4786 60.4082C78.496 60.4082 77.6995 61.2047 77.6995 62.1873C77.6995 63.1699 78.496 63.9665 79.4786 63.9665Z" fill="url(#paint7_linear_351_23372)"/>
<path d="M14.3175 32.8649C15.1037 32.8649 15.7411 32.2275 15.7411 31.4412C15.7411 30.655 15.1037 30.0176 14.3175 30.0176C13.5312 30.0176 12.8938 30.655 12.8938 31.4412C12.8938 32.2275 13.5312 32.8649 14.3175 32.8649Z" fill="url(#paint8_linear_351_23372)"/>
<path d="M31.5086 45.1302C30.9062 45.8297 29.8781 46.203 28.2215 45.9874C27.8717 45.9418 27.5582 45.8897 27.2782 45.8317C21.8815 44.7101 28.989 41.327 29.0211 38.8856C29.0548 36.3174 31.2706 36.7618 31.2706 36.7618C31.2706 36.7618 33.4873 42.8344 31.5086 45.1302Z" fill="#1F3A6F"/>
<path d="M31.5094 45.1295C30.9069 45.8289 29.8788 46.2023 28.2222 45.9867C27.8724 45.9411 27.559 45.889 27.2789 45.831C27.229 44.3032 28.1476 42.791 28.1476 42.791L31.1569 44.3798C31.1569 44.3798 31.3117 44.713 31.5094 45.1292V45.1295Z" fill="#072542"/>
<path d="M35.3648 38.1758C35.0855 38.1758 34.8591 38.6482 34.8591 39.2311C34.8591 39.8141 35.0855 40.2865 35.3648 40.2865H36.866V38.1758H35.3648Z" fill="#3B82F4"/>
<path d="M35.5699 40.7685L35.7116 39.4941H34.4219L34.5684 40.8304L35.5699 40.7685Z" fill="#F3BA9F"/>
<path d="M29.8834 42.6854L30.141 40.0919C30.141 40.0919 29.8119 39.7793 29.8497 39.4246C29.8875 39.0698 30.2806 39.2218 30.2806 39.2218L31.2413 40.3089L31.6914 40.8184L31.7235 41.8781L31.7591 43.0571L29.8836 42.6854H29.8834Z" fill="#F3BA9F"/>
<path d="M31.7238 41.8766C30.5685 41.1503 30.5006 40.0566 30.5006 40.0566L31.2416 40.3073L31.6917 40.8169L31.7238 41.8766Z" fill="#EFA37D"/>
<path d="M32.8631 39.507C32.8441 40.0696 32.6106 40.5589 32.2444 40.8142C32.1203 40.9004 31.9809 40.9598 31.8295 40.9862C31.111 41.1112 30.3949 40.4425 30.2295 39.4926C30.0642 38.5427 30.5123 37.6713 31.2308 37.5463C31.9488 37.4213 32.6652 38.09 32.8305 39.0399C32.8583 39.199 32.8686 39.3559 32.8633 39.5073L32.8631 39.507Z" fill="#F3BA9F"/>
<path d="M30.4574 37.6665C30.4574 37.6665 31.5244 39.0663 32.655 38.4763C33.7858 37.8862 31.7297 36.3898 30.3695 36.7868C29.0094 37.1838 30.4574 37.6665 30.4574 37.6665Z" fill="#1F3A6F"/>
<path d="M31.0712 37.9066C31.0712 37.9066 30.7423 38.7847 30.1961 39.1486C30.1433 39.1837 30.07 39.0897 30.0138 39.1165C29.9713 39.1367 29.9278 39.1543 29.8833 39.169C29.1708 39.4025 30.458 37.4298 30.458 37.4298C30.458 37.4298 30.937 37.4105 31.0712 37.9066Z" fill="#1F3A6F"/>
<path d="M34.4219 40.7003L34.4462 40.4863H35.6513V40.7973L34.4219 40.7003Z" fill="white"/>
<path d="M34.344 40.6562H35.7238C35.7238 40.6562 36.0504 45.7925 34.5806 45.4547C33.1106 45.1167 32.9418 44.7 32.9418 44.7L32.8788 42.8181L33.8092 43.0754C33.8793 43.1339 33.9867 43.097 34.0057 43.0075L34.3442 40.6565L34.344 40.6562Z" fill="#E59D29"/>
<path d="M35.3066 67.8253H32.878L32.168 61.9327L31.105 53.1068L30.6127 49.0199L34.0863 48.7051L35.3066 67.8253Z" fill="#15315E"/>
<path d="M32.6839 50.3535L32.1679 61.9332L31.105 53.1073L32.6839 50.3535Z" fill="#072542"/>
<path d="M32.082 53.8011L27.9401 68.5567L25.4733 68.354C25.4733 68.354 27.2797 53.7607 29.4154 49.7191C29.4675 49.6211 29.5191 49.5294 29.5716 49.4443C29.6624 49.2953 29.7544 49.1661 29.8463 49.0595H30.4456L31.0122 49.0591L32.5572 49.0586C32.5572 49.0586 32.5737 49.1065 32.595 49.2056C32.6028 49.2414 32.6109 49.2836 32.6193 49.3331C32.7136 49.8913 32.812 51.3211 32.082 53.8011Z" fill="#1F3A6F"/>
<path d="M25.2052 66.6211L28.214 67.4939L27.4732 71.2918C27.4732 71.2918 28.6199 72.3185 28.4699 72.8684C28.4699 72.8684 25.0139 72.0433 24.924 71.6243C24.8344 71.2054 25.205 66.6211 25.205 66.6211H25.2052Z" fill="#F4B545"/>
<path d="M32.5304 67.7363L35.6632 67.7384L36.0075 71.5925C36.0075 71.5925 37.3942 72.2598 37.4032 72.8302C37.4032 72.8302 33.8538 72.998 33.6513 72.6205C33.4486 72.2431 32.5306 67.7366 32.5306 67.7366L32.5304 67.7363Z" fill="#F4B545"/>
<path d="M29.5712 42.504L29.7017 41.75L31.8083 42.8246L31.709 43.3021L29.5712 42.504Z" fill="white"/>
<path d="M34.2396 48.6884C34.2416 48.8402 34.2231 48.9448 34.1754 48.9865C33.9836 49.1537 33.3397 49.2108 32.5955 49.2064C32.0454 49.203 31.4408 49.1663 30.9246 49.1149C30.7536 49.0977 30.5926 49.0794 30.4463 49.0601C30.0174 49.003 29.7154 48.9388 29.6691 48.8851C29.664 48.879 29.659 48.8693 29.6546 48.8558C29.5732 48.6219 29.5546 47.2973 29.5553 46.0933C29.556 45.007 29.5718 44.0193 29.5718 44.0193L32.5368 43.4785C32.5368 43.4785 33.7701 43.7656 33.7194 44.9146C33.6768 45.8771 34.2311 47.9055 34.2398 48.6884H34.2396Z" fill="white"/>
<path d="M32.8635 39.5072C32.8445 40.0698 32.6167 40.2594 32.2505 40.5144C31.8939 40.3076 31.8083 39.3203 31.8083 39.3203L32.8637 39.5072H32.8635Z" fill="#EFA37D"/>
<path d="M34.5594 49.2634L32.6195 49.3341L30.3554 49.4164L29.5717 49.4451L29.4225 49.4506L29.4011 48.8649L29.6538 48.8559L31.3935 48.7924L34.239 48.6885L34.5381 48.6777L34.5594 49.2634Z" fill="#C4D7F2"/>
<path d="M32.2872 38.4162C32.0228 38.4162 31.8083 38.782 31.8083 39.2329C31.8083 39.6837 32.0228 40.0495 32.2872 40.0495H34.5023V38.416H32.2872V38.4162Z" fill="#2176DB"/>
<path d="M34.1924 38.1758C33.9131 38.1758 33.6868 38.6482 33.6868 39.2311C33.6868 39.8141 33.9131 40.2865 34.1924 40.2865H35.6936V38.1758H34.1924Z" fill="#3B82F4"/>
<path d="M36.1992 39.2311C36.1992 39.8141 35.9726 40.2865 35.6938 40.2865C35.6511 40.2865 35.6101 40.2755 35.5706 40.2544C35.3507 40.14 35.1879 39.7253 35.1879 39.2311C35.1879 38.7369 35.3507 38.3221 35.5706 38.2079C35.6101 38.1868 35.6511 38.1758 35.6938 38.1758C35.9726 38.1758 36.1992 38.6482 36.1992 39.2311Z" fill="#1067BF"/>
<path d="M35.9529 39.2322C35.9529 39.7264 35.7901 40.1413 35.5706 40.2555C35.3507 40.1411 35.1879 39.7264 35.1879 39.2322C35.1879 38.738 35.3507 38.3232 35.5706 38.209C35.7901 38.3234 35.9529 38.738 35.9529 39.2322Z" fill="white"/>
<path d="M37.3706 39.2311C37.3706 39.8141 37.144 40.2865 36.8652 40.2865C36.8225 40.2865 36.7814 40.2755 36.742 40.2544C36.5221 40.14 36.3593 39.7253 36.3593 39.2311C36.3593 38.7369 36.5221 38.3221 36.742 38.2079C36.7814 38.1868 36.8225 38.1758 36.8652 38.1758C37.144 38.1758 37.3706 38.6482 37.3706 39.2311Z" fill="#1067BF"/>
<path d="M37.1243 39.2322C37.1243 39.7264 36.9615 40.1413 36.742 40.2555C36.5221 40.1411 36.3593 39.7264 36.3593 39.2322C36.3593 38.738 36.5221 38.3232 36.742 38.209C36.9615 38.3234 37.1243 38.738 37.1243 39.2322Z" fill="white"/>
<path d="M33.1219 40.781L33.1725 39.9307C33.1725 39.9307 33.3698 39.8687 33.3977 39.6208C33.4259 39.3729 34.0623 38.4437 33.5835 38.2804C33.1047 38.1171 32.5102 38.1747 32.4458 38.5283C32.3814 38.8819 32.322 39.2324 32.3444 39.6208C32.3669 40.0096 32.2036 40.6065 32.153 40.7246C32.1023 40.8429 33.1216 40.781 33.1216 40.781H33.1219Z" fill="#F3BA9F"/>
<g style="mix-blend-mode:multiply" opacity="0.22">
<path d="M31.5013 48.707C31.5013 48.707 31.4637 48.7398 31.3935 48.7942C31.3098 48.8593 31.1796 48.9549 31.0124 49.0618C30.9839 49.0797 30.9546 49.098 30.9241 49.1168C30.7615 49.2161 30.5695 49.3216 30.3554 49.4182C30.0751 49.5452 29.7568 49.6574 29.4156 49.7216C29.4676 49.6237 29.5192 49.5319 29.5717 49.4468L29.4225 49.4523L29.4011 48.8666L29.6538 48.8575C29.5724 48.6236 29.5539 47.299 29.5545 46.095L31.3903 45.793L31.5011 48.7068L31.5013 48.707Z" fill="#1F3A6F"/>
</g>
<path d="M33.3541 40.7962V40.457H32.1207L32.0662 40.8308L33.3541 40.7964V40.7962Z" fill="white"/>
<path d="M32.2436 45.4657L31.39 45.3256C31.39 45.3256 31.3531 46.0477 31.3095 46.805C31.2623 47.6338 31.2072 48.5048 31.1834 48.5162C31.1384 48.5389 29.4506 49.2732 28.0182 49.2258C28.0182 49.2258 27.4974 43.9453 28.1888 42.7051C28.2308 42.6301 28.2909 42.5665 28.3663 42.5232C28.5762 42.4033 29.099 42.2322 30.0939 42.6104C31.4561 43.1286 31.5611 43.197 31.5611 43.197L32.0021 40.6562H33.4737C33.4737 40.6562 33.6578 45.7588 32.2436 45.4657Z" fill="#F4B545"/>
<path d="M31.0789 47.9113C31.0312 47.9645 30.9493 47.9691 30.8959 47.9214C30.8427 47.8737 30.8381 47.7918 30.8858 47.7384C30.9335 47.6852 31.0153 47.6806 31.0688 47.7283C31.1222 47.776 31.1266 47.8579 31.0789 47.9113Z" fill="white"/>
<path d="M31.3908 45.3278C31.3908 45.3278 31.3538 46.05 31.3103 46.8072C30.5374 46.1422 30.2512 45.0664 30.2512 45.0664L31.3908 45.3281V45.3278Z" fill="#E59D29"/>
<path d="M31.0272 45.9955C31.0987 45.9955 31.1567 45.9375 31.1567 45.8659C31.1567 45.7943 31.0987 45.7363 31.0272 45.7363C30.9556 45.7363 30.8976 45.7943 30.8976 45.8659C30.8976 45.9375 30.9556 45.9955 31.0272 45.9955Z" fill="white"/>
<path d="M31.0272 47.0013C31.0987 47.0013 31.1567 46.9433 31.1567 46.8718C31.1567 46.8002 31.0987 46.7422 31.0272 46.7422C30.9556 46.7422 30.8976 46.8002 30.8976 46.8718C30.8976 46.9433 30.9556 47.0013 31.0272 47.0013Z" fill="white"/>
<defs>
<linearGradient id="paint0_linear_351_23372" x1="43.2592" y1="5.56055" x2="43.2592" y2="41.5587" gradientUnits="userSpaceOnUse">
<stop stop-color="#B1D0FA"/>
<stop offset="1" stop-color="#3861EC"/>
</linearGradient>
<linearGradient id="paint1_linear_351_23372" x1="29.2736" y1="32.1044" x2="93.2729" y2="41.5588" gradientUnits="userSpaceOnUse">
<stop stop-color="#7C70FF"/>
<stop offset="1" stop-color="#531ABA"/>
</linearGradient>
<linearGradient id="paint2_linear_351_23372" x1="29.2736" y1="32.1044" x2="93.2729" y2="41.5588" gradientUnits="userSpaceOnUse">
<stop stop-color="#82C7FD"/>
<stop offset="1" stop-color="#4377F0"/>
</linearGradient>
<linearGradient id="paint3_linear_351_23372" x1="19.0923" y1="33.56" x2="88.5461" y2="52.1052" gradientUnits="userSpaceOnUse">
<stop stop-color="#7C70FF"/>
<stop offset="1" stop-color="#541CBC"/>
</linearGradient>
<linearGradient id="paint4_linear_351_23372" x1="46.7222" y1="40.8319" x2="85.0133" y2="46.9302" gradientUnits="userSpaceOnUse">
<stop stop-color="white"/>
<stop offset="1" stop-color="#C8B9E4"/>
</linearGradient>
<linearGradient id="paint5_linear_351_23372" x1="55.1626" y1="20.6602" x2="66.5017" y2="20.6602" gradientUnits="userSpaceOnUse">
<stop stop-color="#9DAAFF"/>
<stop offset="0.526042" stop-color="#6F40FF"/>
<stop offset="1" stop-color="#430DA1"/>
</linearGradient>
<linearGradient id="paint6_linear_351_23372" x1="71.0973" y1="24.2963" x2="73.7995" y2="26.9985" gradientUnits="userSpaceOnUse">
<stop stop-color="#FF99BB"/>
<stop offset="1" stop-color="#990F54"/>
</linearGradient>
<linearGradient id="paint7_linear_351_23372" x1="78.1998" y1="60.9086" x2="80.7573" y2="63.4661" gradientUnits="userSpaceOnUse">
<stop stop-color="#9DFFE8"/>
<stop offset="1" stop-color="#1951A4"/>
</linearGradient>
<linearGradient id="paint8_linear_351_23372" x1="13.2942" y1="30.418" x2="15.3407" y2="32.4645" gradientUnits="userSpaceOnUse">
<stop stop-color="#F9B690"/>
<stop offset="1" stop-color="#9C0401"/>
</linearGradient>
</defs>
</svg>
