<svg width="28" height="28" viewBox="0 0 28 28" fill="none" xmlns="http://www.w3.org/2000/svg">
<circle cx="14" cy="14" r="14" fill="#9C7BFF"/>
<path d="M15.4176 16.6319C15.4556 15.4853 14.6861 14.5481 14.4407 13.5653C13.8549 11.217 11.4672 9.19461 10.4649 10.0183C9.86163 10.5129 9.98039 11.6658 9.35021 16.0744C8.97337 18.7141 6.96725 17.8116 6.38774 18.1691C5.5739 18.67 7.49452 19.73 8.46986 20.3632C9.84105 21.2546 12.642 24.5874 13.9958 23.9653C16.3249 22.8927 16.3423 19.5709 15.9718 19.1913C15.69 18.9031 15.3385 19.0401 15.4176 16.6335V16.6319Z" fill="#EB8E6C"/>
<path fill-rule="evenodd" clip-rule="evenodd" d="M1.15894 19.5861C3.24316 18.8069 6.10223 17.9591 8.32132 17.7795C8.481 17.7661 8.80374 18.3002 9.24409 19.029C9.31898 19.153 9.39728 19.2825 9.47875 19.416C10.3005 20.7627 12.0549 22.2385 13.6541 21.8762C14.2652 21.7376 15.106 21.2745 15.4227 20.5012C15.6744 19.8869 15.7425 19.0144 15.7425 19.0144C15.8615 19.0553 15.9764 19.1011 16.0997 19.1503C16.5411 19.3264 17.0908 19.5456 18.3234 19.7389C19.3082 19.8932 20.5688 20.3214 21.0011 20.501L22.0011 21.001C22.3357 21.1515 23.6148 22.395 24.2306 23.5571C21.6755 26.2911 18.0374 28 14.0001 28C8.25381 28 3.31612 24.5381 1.15894 19.5861Z" fill="#FFD147"/>
<path d="M15.4227 20.5012C15.106 21.2745 14.2652 21.7376 13.6541 21.8762C12.0549 22.2385 10.3005 20.7627 9.47875 19.416C8.91824 18.4978 8.50815 17.7638 8.32132 17.7795C8.0474 17.8016 7.77981 17.8284 7.51855 17.8567C7.76239 18.2584 8.0949 18.7734 8.51449 19.3546C9.59276 20.8446 10.1517 21.6006 11.1413 22.1203C11.583 22.3534 12.5394 22.8559 13.7285 22.6196C13.8615 22.5928 15.2818 22.2889 15.9294 21.0824C16.1241 20.7186 16.1732 20.4162 16.2381 20.0066C16.2745 19.7814 16.3157 19.5231 16.3584 19.2506C16.1273 19.1624 15.9404 19.0821 15.7425 19.0144C15.7425 19.0144 15.6744 19.8869 15.4227 20.5012Z" fill="white"/>
<path d="M15.0439 16.4154C15.503 14.3553 11.6792 11.1863 10.2415 11.4934C10.213 12.5849 9.57652 18.5622 15.7421 19.0173C15.4175 18.6204 15.3922 17.9101 15.9638 17.2927C16.7143 16.48 14.8934 17.0879 15.0439 16.417V16.4154Z" fill="#C36252"/>
<path d="M19.0579 9.16978C19.0516 8.96503 19.0247 8.36493 18.8948 7.64042C18.7017 6.5568 18.5528 5.73148 18.062 5.02587C17.1579 3.72647 9.88078 5.98191 9.66386 6.87338C9.36777 8.0893 9.45327 9.08158 9.54511 10.1353C9.60844 10.8614 9.6797 11.6993 9.99953 12.7546C10.2149 13.4649 10.7247 15.0809 12.1291 16.5567C12.7356 17.193 13.6523 18.1317 14.8034 18.1207C15.0299 18.1191 15.7693 18.1128 16.0654 17.6671C16.1841 17.4891 16.1651 17.3379 16.3535 17.0166C16.5325 16.7126 16.7288 16.5425 16.8412 16.4323C17.2054 16.0763 17.3764 15.6857 17.7184 14.9013C18.0857 14.0571 18.271 13.6334 18.2726 13.0853C18.2726 12.931 18.2583 12.712 18.3755 12.46C18.5259 12.134 18.7397 12.0899 18.9028 11.8237C19.0595 11.567 19.0168 11.3543 19.0009 10.822C18.974 9.90374 19.0864 10.0423 19.0579 9.1682V9.16978Z" fill="#EB8E6C"/>
<path d="M15.8655 11.0172C15.6597 10.9416 15.4491 10.8786 15.2353 10.8329C14.8965 10.7588 14.5482 10.7226 14.1998 10.7258C14.1127 10.7258 14.0431 10.7982 14.0462 10.8848C14.0494 10.9667 14.1175 11.0313 14.1982 11.0298C14.5244 11.0266 14.8506 11.0597 15.1688 11.129C15.3683 11.1731 15.5663 11.2314 15.7594 11.3022C15.8354 11.3306 15.9209 11.2928 15.9526 11.2172C15.9859 11.1369 15.9463 11.0471 15.8639 11.0156L15.8655 11.0172Z" fill="#49302A"/>
<path d="M18.1255 11.3702C17.9608 11.3277 17.7914 11.3009 17.6204 11.2883C17.5523 11.2836 17.4858 11.3498 17.4747 11.4348C17.4636 11.5151 17.5048 11.5829 17.5697 11.5876C17.7312 11.5986 17.8895 11.6254 18.0431 11.6648C18.287 11.7278 18.5229 11.8254 18.743 11.9577C18.7984 11.9908 18.8712 11.9577 18.9092 11.8868C18.9488 11.8112 18.933 11.7183 18.8744 11.6837C18.6401 11.5435 18.3899 11.438 18.1286 11.3718L18.1255 11.3702Z" fill="#49302A"/>
<path d="M16.9695 11.5851C16.9157 11.5772 16.8666 11.6119 16.8619 11.6607C16.827 12.0135 16.8112 12.3726 16.8175 12.7302C16.8207 12.9003 16.827 13.0452 16.8334 13.1727C16.8492 13.5287 16.8587 13.7067 16.7494 13.8043C16.6164 13.924 16.3219 13.9067 15.9134 13.7555C15.8643 13.7366 15.8089 13.7571 15.7899 13.8012C15.7693 13.8484 15.7978 13.902 15.8501 13.9209C15.9293 13.9508 16.0053 13.9744 16.0765 13.9949C16.4549 14.102 16.7289 14.0815 16.892 13.9351C17.0582 13.7854 17.0487 13.5681 17.0297 13.1743C17.0234 13.0483 17.017 12.905 17.0139 12.7365C17.0091 12.3852 17.0234 12.0324 17.0582 11.6859C17.063 11.6371 17.025 11.5914 16.9711 11.5851H16.9695Z" fill="#C36252"/>
<path d="M15.2087 11.5965C15.0567 11.5697 14.9 11.7399 14.8572 11.9761C14.8161 12.2124 14.9047 12.425 15.0567 12.4518C15.2087 12.4785 15.3655 12.3084 15.4082 12.0722C15.4494 11.8359 15.3607 11.6233 15.2087 11.5965Z" fill="#49302A"/>
<path d="M17.8294 12.0545C17.6773 12.0278 17.5206 12.1979 17.4778 12.4341C17.4367 12.6704 17.5253 12.883 17.6774 12.9098C17.8294 12.9365 17.9861 12.7664 18.0289 12.5302C18.07 12.2939 17.9814 12.0813 17.8294 12.0545Z" fill="#49302A"/>
<path d="M16.6814 15.2114L16.4154 15.2004C16.0322 15.183 15.6506 15.1169 15.2849 15.0035L14.8083 14.8554C14.699 14.8224 14.5993 14.9153 14.631 15.0177C14.726 15.3279 15.2073 15.7784 15.7156 15.8729C16.2206 15.9674 16.5943 15.6792 16.7954 15.4272C16.8635 15.3405 16.7986 15.2161 16.683 15.2114H16.6814Z" fill="#C36252"/>
<path d="M14.0718 12.5276C13.6839 12.4079 13.3086 12.5056 13.2326 12.7481C13.1566 12.9891 13.4116 13.2821 13.7995 13.4018C14.1874 13.5215 14.5627 13.4238 14.6387 13.1813C14.7147 12.9403 14.4598 12.6473 14.0718 12.5276Z" fill="#DD8064"/>
<path d="M9.83813 5.72355C7.38551 8.96024 8.63953 12.0662 8.83903 12.6978C9.2032 13.8523 9.39162 13.9594 9.46129 14.1626C9.63862 14.6808 10.4414 15.4494 11.1428 16.0542C15.6142 19.9146 16.7606 18.3695 17.0582 17.5709C17.1897 17.2181 17.6156 15.3297 17.5079 15.2588C17.3717 15.169 17.5079 15.2588 17.0836 15.6652C16.588 16.1377 16.0449 16.3566 15.3055 16.2022C13.996 15.9282 13.5717 15.1155 13.1283 14.8713C12.1973 14.3579 11.5687 13.5845 11.07 12.586C10.5269 11.5023 10.253 10.9353 10.3226 10.1746C10.3527 9.85171 10.6472 9.00749 11.9519 9.98086C12.2274 10.1872 11.355 6.87175 16.1636 7.56476C19.0184 7.97585 18.906 9.34928 19.0596 9.16815C19.8956 8.18218 19.921 7.12691 19.6534 6.27639C18.7224 3.30745 11.6194 3.3736 9.83971 5.72197L9.83813 5.72355Z" fill="white"/>
<path d="M16.9648 14.5039C14.7133 13.4392 13.8662 14.5952 13.597 14.874C13.5511 14.9213 12.9669 15.5434 13.1727 16.0521C13.2614 16.2726 14.916 16.123 14.745 16.0348C14.3681 15.8427 14.1813 15.4961 14.479 14.9496C14.7481 14.4566 17.4003 14.5921 16.9126 15.8127C16.7764 16.1545 16.9854 16.3876 17.082 16.4585C17.1802 16.5278 17.2989 15.9876 17.4288 15.7214C17.6457 15.2788 17.6156 14.811 16.9648 14.5023V14.5039Z" fill="white"/>
<path d="M10.7359 9.7959C10.3116 9.83685 10.0297 10.4417 9.9458 10.8386C9.80804 11.4859 10.1817 12.2718 10.5332 12.6987C10.6963 12.8971 10.8024 13.1759 10.9496 13.1602C11.469 13.105 11.9551 11.2717 11.5022 10.3787C11.4864 10.3472 11.1761 9.75495 10.7359 9.79905V9.7959Z" fill="#EB8E6C"/>
<path d="M10.8718 12.0417C10.8718 12.0417 10.8629 12.027 10.8496 12.0078C10.8629 12.0284 10.8718 12.0417 10.8718 12.0417Z" fill="#C36252"/>
<path d="M11.1187 10.7934C10.9112 10.6895 10.6706 10.7824 10.5487 10.9241C10.3381 11.1714 10.4157 11.6109 10.5487 11.9101C10.6041 12.0345 10.7102 12.2346 10.8447 12.2582C10.859 12.2614 11.0173 12.2692 10.8748 12.044C10.8637 12.0251 10.8527 12.0094 10.8432 11.9952C10.8337 11.981 10.8226 11.9637 10.8115 11.9448C10.7387 11.8282 10.7687 11.877 10.8099 11.9416C10.7545 11.8518 10.6801 11.7117 10.6452 11.5526C10.5993 11.3368 10.6167 11.162 10.6927 11.0706C10.764 10.9872 10.9144 10.9336 11.0316 10.9934C11.1171 11.0375 11.1773 11.1321 11.1931 11.2486C11.201 11.3006 11.2374 11.34 11.2849 11.34C11.3483 11.34 11.3989 11.2785 11.3894 11.2108C11.3641 11.0249 11.2643 10.869 11.1187 10.795V10.7934Z" fill="#C36252"/>
<path d="M10.8102 11.9416C10.8195 11.9555 10.8288 11.9724 10.8412 11.991C10.8443 11.9956 10.8459 11.9987 10.849 12.0033C10.8366 11.9848 10.8211 11.9601 10.8071 11.9385C10.8071 11.9385 10.8071 11.9416 10.8087 11.9416H10.8102Z" fill="#C36252"/>
<path d="M11.0635 9.87679C10.9891 9.84371 10.7944 9.75393 10.5664 9.83426C10.3526 9.91144 10.237 10.0957 10.1689 10.206C10.047 10.4013 9.90451 10.7383 9.91243 11.2266C9.92351 11.907 10.2164 12.5276 10.4872 12.6772C10.4872 12.6803 10.4872 12.6835 10.4888 12.6866C10.5141 12.8189 10.5822 13.1702 10.9052 13.2285C11.1522 13.2726 11.2488 13.0977 11.2979 12.945C11.3169 12.8835 11.2852 12.8205 11.2298 12.8063C11.1791 12.7937 11.1269 12.8268 11.1094 12.882C11.0683 13.0143 11.0287 13.03 10.9432 13.0143C10.7722 12.9843 10.7168 12.8142 10.6819 12.6363C10.6693 12.5701 10.6582 12.5134 10.5996 12.4929C10.4096 12.4252 10.1198 11.8598 10.1088 11.2156C10.1024 10.8706 10.1768 10.5698 10.3304 10.3257C10.3906 10.228 10.4729 10.0957 10.6202 10.0437C10.7769 9.98704 10.9194 10.0532 10.9796 10.08C11.1934 10.1776 11.3042 10.3839 11.3564 10.5241C11.3754 10.5745 11.4277 10.5997 11.4768 10.5808C11.5322 10.5603 11.5623 10.4926 11.5401 10.4328C11.4752 10.2595 11.3359 10.0028 11.0604 9.87837L11.0635 9.87679Z" fill="#C36252"/>
<path d="M11.0823 11.3258C10.9668 11.4093 10.9462 11.5668 10.9351 11.644C10.9129 11.8141 10.9557 11.981 10.9858 11.9795C11.0269 11.9779 10.9794 11.6739 11.1615 11.4692C11.2549 11.3636 11.3594 11.34 11.3531 11.3054C11.3452 11.266 11.1916 11.2455 11.0823 11.3243V11.3258Z" fill="#C36252"/>
</svg>
