<svg width="97" height="73" viewBox="0 0 97 73" fill="none" xmlns="http://www.w3.org/2000/svg">
<path d="M69 13.6643L77.5119 8.74997L82.5 8.74997" stroke="#5729CC" stroke-width="2"/>
<rect x="80.375" y="0.375" width="16.25" height="16.25" rx="2.625" fill="#7A45FF" stroke="#5729CC" stroke-width="0.75"/>
<path d="M85.1548 13V11.4385L88.5063 8.49316C89.2871 7.78223 89.7314 7.3125 89.7378 6.61426C89.7314 5.84619 89.1665 5.37646 88.3921 5.37012C87.605 5.37646 87.0781 5.87158 87.0845 6.70312H85.0278C85.0215 4.84961 86.3799 3.68164 88.4048 3.68164C90.4741 3.68164 91.8262 4.80518 91.8325 6.44922C91.8262 7.50293 91.3057 8.38525 89.3188 10.1182L88.1636 11.1846V11.248H91.9468V13H85.1548Z" fill="white"/>
<path d="M85.1548 13H84.6548V13.5H85.1548V13ZM85.1548 11.4385L84.8247 11.0629L84.6548 11.2122V11.4385H85.1548ZM88.5063 8.49316L88.8365 8.8688L88.843 8.86286L88.5063 8.49316ZM89.7378 6.61426L90.2378 6.6188L90.2378 6.61013L89.7378 6.61426ZM88.3921 5.37012L88.3962 4.87007L88.3881 4.87013L88.3921 5.37012ZM87.0845 6.70312V7.20312H87.5883L87.5845 6.69931L87.0845 6.70312ZM85.0278 6.70312L84.5278 6.70484L84.5295 7.20312H85.0278V6.70312ZM91.8325 6.44922L92.3325 6.45223L92.3325 6.44729L91.8325 6.44922ZM89.3188 10.1182L88.9901 9.7412L88.9797 9.75076L89.3188 10.1182ZM88.1636 11.1846L87.8244 10.8172L87.6636 10.9657V11.1846H88.1636ZM88.1636 11.248H87.6636V11.748H88.1636V11.248ZM91.9468 11.248H92.4468V10.748H91.9468V11.248ZM91.9468 13V13.5H92.4468V13H91.9468ZM85.6548 13V11.4385H84.6548V13H85.6548ZM85.4848 11.8141L88.8364 8.86875L88.1763 8.11758L84.8247 11.0629L85.4848 11.8141ZM88.843 8.86286C89.5959 8.17727 90.2292 7.56713 90.2378 6.6188L89.2378 6.60971C89.2337 7.05787 88.9783 7.38718 88.1697 8.12347L88.843 8.86286ZM90.2378 6.61013C90.2335 6.09654 90.0383 5.64958 89.6868 5.33434C89.3412 5.02433 88.8817 4.87411 88.3962 4.87013L88.388 5.8701C88.6769 5.87247 88.887 5.96029 89.0191 6.07874C89.1453 6.19197 89.2357 6.36391 89.2378 6.61839L90.2378 6.61013ZM88.3881 4.87013C87.8902 4.87415 87.4271 5.03487 87.0878 5.37301C86.7469 5.71275 86.5805 6.18223 86.5845 6.70694L87.5845 6.69931C87.5821 6.39247 87.676 6.19862 87.7937 6.08134C87.913 5.96244 88.1069 5.87243 88.3961 5.8701L88.3881 4.87013ZM87.0845 6.20312H85.0278V7.20312H87.0845V6.20312ZM85.5278 6.70141C85.5251 5.90514 85.8113 5.29168 86.2859 4.87179C86.7672 4.44601 87.486 4.18164 88.4048 4.18164V3.18164C87.2987 3.18164 86.3259 3.50125 85.6233 4.12284C84.914 4.75031 84.5242 5.64759 84.5278 6.70484L85.5278 6.70141ZM88.4048 4.18164C89.3526 4.18164 90.0879 4.43886 90.5766 4.83667C91.0569 5.22764 91.3299 5.77742 91.3325 6.45115L92.3325 6.44729C92.3288 5.47697 91.9226 4.64297 91.2079 4.06116C90.5017 3.48619 89.5263 3.18164 88.4048 3.18164V4.18164ZM91.3325 6.44621C91.3276 7.26154 90.971 8.01366 88.9902 9.74135L89.6475 10.495C91.6403 8.75685 92.3247 7.74432 92.3325 6.45223L91.3325 6.44621ZM88.9797 9.75076L87.8244 10.8172L88.5027 11.552L89.658 10.4856L88.9797 9.75076ZM87.6636 11.1846V11.248H88.6636V11.1846H87.6636ZM88.1636 11.748H91.9468V10.748H88.1636V11.748ZM91.4468 11.248V13H92.4468V11.248H91.4468ZM91.9468 12.5H85.1548V13.5H91.9468V12.5Z" fill="black" fill-opacity="0.2"/>
<circle cx="49" cy="26" r="23.75" stroke="#7A45FF" stroke-width="2.5"/>
</svg>
