<svg width="157" height="30" viewBox="0 0 157 30" fill="none" xmlns="http://www.w3.org/2000/svg">
<g clip-path="url(#clip0_6498_40675)">
<path d="M8.24024 5.5L1.67499 16.9006L6.07167 24.5H58.7597L65.325 13.1025L60.9314 5.5H8.24024Z" fill="#EF3E28"/>
<path d="M8.51599 12.9455H12.3768L10.4464 9.60449L8.51599 12.9455Z" fill="white"/>
<path d="M14.5736 9.45117H10.7128L12.6432 12.7953L14.5736 9.45117Z" fill="white"/>
<path d="M12.9095 12.9455H16.7704L14.8399 9.60449L12.9095 12.9455Z" fill="white"/>
<path d="M8.25273 13.4062L6.32233 16.7472H10.1831L8.25273 13.4062Z" fill="white"/>
<path d="M10.4464 16.5961L12.3768 13.252H8.51599L10.4464 16.5961Z" fill="white"/>
<path d="M8.25586 20.3978L10.1863 17.0537H6.32233L8.25586 20.3978Z" fill="white"/>
<path d="M21.6872 12.9455H25.5511L23.6207 9.60449L21.6872 12.9455Z" fill="white"/>
<path d="M21.424 13.4062L19.4936 16.7472H23.3544L21.424 13.4062Z" fill="white"/>
<path d="M23.6207 16.5961L25.5511 13.252H21.6872L23.6207 16.5961Z" fill="white"/>
<path d="M21.4271 20.3978L23.3575 17.0537H19.4967L21.4271 20.3978Z" fill="white"/>
<path d="M30.4712 12.9455H34.332L32.4016 9.60449L30.4712 12.9455Z" fill="white"/>
<path d="M36.5288 9.45117H32.6649L34.5953 12.7953L36.5288 9.45117Z" fill="white"/>
<path d="M36.7951 9.60449L34.8647 12.9455H38.7256L36.7951 9.60449Z" fill="white"/>
<path d="M40.9223 9.45117H37.0583L38.9888 12.7953L40.9223 9.45117Z" fill="white"/>
<path d="M39.2551 12.9455H43.1159L41.1855 9.60449L39.2551 12.9455Z" fill="white"/>
<path d="M30.2048 13.4062L28.2744 16.7472H32.1384L30.2048 13.4062Z" fill="white"/>
<path d="M32.4016 16.5961L34.332 13.252H30.4712L32.4016 16.5961Z" fill="white"/>
<path d="M38.9888 13.4062L37.0583 16.7472H40.9223L38.9888 13.4062Z" fill="white"/>
<path d="M41.1855 16.5961L43.1159 13.252H39.2551L41.1855 16.5961Z" fill="white"/>
<path d="M30.2079 20.3978L32.1383 17.0537H28.2775L30.2079 20.3978Z" fill="white"/>
<path d="M38.9919 20.3978L40.9223 17.0537H37.0615L38.9919 20.3978Z" fill="white"/>
<path d="M49.9664 9.60449L48.0328 12.9455H51.8968L49.9664 9.60449Z" fill="white"/>
<path d="M54.0904 9.45117H50.2296L52.16 12.7953L54.0904 9.45117Z" fill="white"/>
<path d="M52.4264 12.9455H56.2872L54.3568 9.60449L52.4264 12.9455Z" fill="white"/>
<path d="M58.484 9.45117H54.6232L56.5536 12.7953L58.484 9.45117Z" fill="white"/>
<path d="M56.8199 12.9455H60.6807L58.7503 9.60449L56.8199 12.9455Z" fill="white"/>
<path d="M47.7696 13.4062L45.8392 16.7472H49.7L47.7696 13.4062Z" fill="white"/>
<path d="M51.8968 13.252H48.0328L49.9664 16.5961L51.8968 13.252Z" fill="white"/>
<path d="M54.6232 16.7472H58.484L56.5536 13.4062L54.6232 16.7472Z" fill="white"/>
<path d="M58.7503 16.5961L60.6807 13.252H56.8199L58.7503 16.5961Z" fill="white"/>
<path d="M49.7032 17.0537H45.8392L47.7696 20.3978L49.7032 17.0537Z" fill="white"/>
<path d="M48.0391 20.548H51.8999L49.9695 17.207L48.0391 20.548Z" fill="white"/>
<path d="M54.0967 17.0537H50.2327L52.1631 20.3978L54.0967 17.0537Z" fill="white"/>
<path d="M52.4296 20.548H56.2904L54.36 17.207L52.4296 20.548Z" fill="white"/>
<path d="M56.5567 20.3978L58.4871 17.0537H54.6263L56.5567 20.3978Z" fill="white"/>
</g>
<path d="M74.62 7.592H76V8.396C76 8.876 75.932 9.344 75.796 9.8C75.668 10.248 75.476 10.672 75.22 11.072C74.964 11.472 74.648 11.836 74.272 12.164C73.904 12.484 73.48 12.76 73 12.992C72.52 13.224 71.992 13.396 71.416 13.508L70.732 12.176C71.228 12.088 71.68 11.956 72.088 11.78C72.504 11.596 72.868 11.376 73.18 11.12C73.492 10.864 73.756 10.588 73.972 10.292C74.188 9.988 74.348 9.676 74.452 9.356C74.564 9.028 74.62 8.708 74.62 8.396V7.592ZM74.932 7.592H76.324V8.396C76.324 8.716 76.376 9.04 76.48 9.368C76.592 9.696 76.752 10.012 76.96 10.316C77.176 10.612 77.44 10.884 77.752 11.132C78.064 11.38 78.424 11.596 78.832 11.78C79.24 11.956 79.7 12.088 80.212 12.176L79.528 13.508C78.952 13.396 78.424 13.224 77.944 12.992C77.464 12.76 77.036 12.484 76.66 12.164C76.292 11.844 75.976 11.484 75.712 11.084C75.456 10.684 75.26 10.256 75.124 9.8C74.996 9.344 74.932 8.876 74.932 8.396V7.592ZM70.492 15.404H80.56V16.712H70.492V15.404ZM81.8671 7.988H87.1831V15.356H81.8671V7.988ZM85.6111 9.248H83.4391V14.108H85.6111V9.248ZM88.6231 6.956H90.2311V18.068H88.6231V6.956ZM89.8831 11.144H91.8391V12.452H89.8831V11.144ZM93.7461 12.668H101.558V13.928H93.7461V12.668ZM92.5701 15.5H102.638V16.796H92.5701V15.5ZM93.7461 7.76H101.474V9.032H95.3661V13.016H93.7461V7.76ZM94.8741 10.208H101.222V11.444H94.8741V10.208ZM112.055 8.708H114.659V9.968H112.055V8.708ZM111.959 11H114.575V12.284H111.959V11ZM114.395 6.944H116.003V13.34H114.395V6.944ZM110.783 7.7H112.475C112.475 8.708 112.287 9.6 111.911 10.376C111.535 11.144 110.971 11.796 110.219 12.332C109.467 12.86 108.527 13.28 107.399 13.592L106.787 12.344C107.731 12.096 108.495 11.784 109.079 11.408C109.663 11.024 110.091 10.584 110.363 10.088C110.643 9.592 110.783 9.056 110.783 8.48V7.7ZM107.387 7.7H111.899V8.972H107.387V7.7ZM112.319 13.484C113.071 13.484 113.727 13.576 114.287 13.76C114.855 13.944 115.291 14.204 115.595 14.54C115.907 14.876 116.063 15.276 116.063 15.74C116.063 16.204 115.907 16.604 115.595 16.94C115.291 17.276 114.855 17.536 114.287 17.72C113.727 17.912 113.071 18.008 112.319 18.008C111.567 18.008 110.907 17.912 110.339 17.72C109.779 17.536 109.343 17.276 109.031 16.94C108.719 16.604 108.563 16.204 108.563 15.74C108.563 15.276 108.719 14.876 109.031 14.54C109.343 14.204 109.779 13.944 110.339 13.76C110.907 13.576 111.567 13.484 112.319 13.484ZM112.319 14.708C111.863 14.708 111.471 14.748 111.143 14.828C110.823 14.908 110.575 15.024 110.399 15.176C110.223 15.328 110.135 15.516 110.135 15.74C110.135 15.964 110.223 16.156 110.399 16.316C110.575 16.468 110.823 16.584 111.143 16.664C111.471 16.736 111.863 16.772 112.319 16.772C112.775 16.772 113.163 16.736 113.483 16.664C113.803 16.584 114.051 16.468 114.227 16.316C114.403 16.156 114.491 15.964 114.491 15.74C114.491 15.516 114.403 15.328 114.227 15.176C114.051 15.024 113.803 14.908 113.483 14.828C113.163 14.748 112.775 14.708 112.319 14.708ZM117.742 15.548H127.81V16.844H117.742V15.548ZM121.966 13.436H123.55V16.064H121.966V13.436ZM118.882 7.664H126.67V11.372H120.478V13.232H118.894V10.124H125.086V8.936H118.882V7.664ZM118.894 12.608H126.922V13.88H118.894V12.608ZM135.933 6.944H137.541V13.364H135.933V6.944ZM137.085 9.572H138.993V10.88H137.085V9.572ZM133.893 13.556C134.661 13.556 135.325 13.648 135.885 13.832C136.445 14.016 136.877 14.276 137.181 14.612C137.493 14.94 137.649 15.34 137.649 15.812C137.649 16.284 137.493 16.688 137.181 17.024C136.877 17.368 136.445 17.628 135.885 17.804C135.325 17.988 134.661 18.08 133.893 18.08C133.133 18.08 132.469 17.988 131.901 17.804C131.333 17.628 130.893 17.368 130.581 17.024C130.277 16.688 130.125 16.284 130.125 15.812C130.125 15.34 130.277 14.94 130.581 14.612C130.893 14.276 131.333 14.016 131.901 13.832C132.469 13.648 133.133 13.556 133.893 13.556ZM133.893 14.828C133.421 14.828 133.025 14.864 132.705 14.936C132.385 15.008 132.137 15.116 131.961 15.26C131.793 15.404 131.709 15.588 131.709 15.812C131.709 16.028 131.793 16.212 131.961 16.364C132.137 16.508 132.385 16.616 132.705 16.688C133.025 16.76 133.421 16.796 133.893 16.796C134.365 16.796 134.761 16.76 135.081 16.688C135.409 16.616 135.657 16.508 135.825 16.364C135.993 16.212 136.077 16.028 136.077 15.812C136.077 15.588 135.993 15.404 135.825 15.26C135.657 15.116 135.409 15.008 135.081 14.936C134.761 14.864 134.365 14.828 133.893 14.828ZM129.153 11.504H130.089C130.905 11.504 131.601 11.496 132.177 11.48C132.753 11.464 133.269 11.432 133.725 11.384C134.181 11.328 134.633 11.252 135.081 11.156L135.237 12.428C134.781 12.524 134.317 12.6 133.845 12.656C133.373 12.704 132.837 12.74 132.237 12.764C131.645 12.78 130.929 12.788 130.089 12.788H129.153V11.504ZM129.153 7.688H134.133V8.972H130.749V12.38H129.153V7.688Z" fill="white"/>
<path d="M70.2808 22.0796H70.7251C70.7788 22.4482 71.1304 22.6826 71.6309 22.6826C72.1045 22.6826 72.4536 22.4263 72.4536 22.0771C72.4536 21.7769 72.2339 21.5864 71.748 21.4644L71.2964 21.3472C70.6592 21.186 70.3833 20.8979 70.3833 20.3975C70.3833 19.7993 70.8838 19.394 71.6284 19.394C72.3096 19.394 72.8174 19.7993 72.854 20.3682H72.4121C72.3511 20.0068 72.0532 19.792 71.6138 19.792C71.145 19.792 70.835 20.0264 70.835 20.3828C70.835 20.6587 71.0278 20.8174 71.5137 20.9419L71.8823 21.0396C72.6123 21.2227 72.9053 21.5059 72.9053 22.0234C72.9053 22.6704 72.395 23.083 71.5894 23.083C70.8423 23.083 70.3271 22.6875 70.2808 22.0796ZM73.734 23V20.3682H74.1344V20.7832H74.1734C74.2931 20.4902 74.5567 20.3218 74.9083 20.3218C75.2647 20.3218 75.5138 20.5098 75.6358 20.7832H75.6749C75.8165 20.5049 76.1168 20.3218 76.4806 20.3218C77.0177 20.3218 77.318 20.6294 77.318 21.1812V23H76.898V21.2788C76.898 20.8906 76.7149 20.7002 76.3438 20.7002C75.9776 20.7002 75.7335 20.9736 75.7335 21.3081V23H75.3136V21.2129C75.3136 20.9004 75.0963 20.7002 74.7643 20.7002C74.42 20.7002 74.1539 20.998 74.1539 21.3691V23H73.734ZM79.0451 22.6777C79.4772 22.6777 79.7971 22.3945 79.7971 22.0186V21.7769L79.0891 21.8232C78.6887 21.8501 78.5129 21.9893 78.5129 22.2529C78.5129 22.5215 78.7399 22.6777 79.0451 22.6777ZM78.967 23.0464C78.4567 23.0464 78.0783 22.7437 78.0783 22.2627C78.0783 21.7915 78.425 21.5205 79.0378 21.4839L79.7971 21.4375V21.1982C79.7971 20.8735 79.5944 20.6953 79.2014 20.6953C78.8864 20.6953 78.6667 20.8149 78.6081 21.0225H78.1833C78.2395 20.6001 78.6545 20.3218 79.216 20.3218C79.8581 20.3218 80.217 20.6514 80.217 21.1982V23H79.8166V22.6118H79.7775C79.6066 22.8926 79.3186 23.0464 78.967 23.0464ZM81.1434 23V20.3682H81.5437V20.7588H81.5828C81.6609 20.5024 81.9637 20.3218 82.3128 20.3218C82.3812 20.3218 82.469 20.3267 82.5228 20.334V20.7539C82.4886 20.7441 82.3372 20.7295 82.2542 20.7295C81.8538 20.7295 81.5633 20.998 81.5633 21.3691V23H81.1434ZM83.5199 19.687H83.9398V20.3682H84.5258V20.7197H83.9398V22.209C83.9398 22.519 84.057 22.6509 84.3305 22.6509C84.4062 22.6509 84.4477 22.6484 84.5258 22.6411V22.9951C84.4428 23.0098 84.3622 23.0195 84.2792 23.0195C83.7372 23.0195 83.5199 22.8193 83.5199 22.3164V20.7197H83.0951V20.3682H83.5199V19.687ZM86.7569 22.0796H87.2013C87.255 22.4482 87.6065 22.6826 88.107 22.6826C88.5807 22.6826 88.9298 22.4263 88.9298 22.0771C88.9298 21.7769 88.7101 21.5864 88.2242 21.4644L87.7726 21.3472C87.1354 21.186 86.8595 20.8979 86.8595 20.3975C86.8595 19.7993 87.36 19.394 88.1046 19.394C88.7857 19.394 89.2936 19.7993 89.3302 20.3682H88.8883C88.8272 20.0068 88.5294 19.792 88.0899 19.792C87.6212 19.792 87.3111 20.0264 87.3111 20.3828C87.3111 20.6587 87.504 20.8174 87.9898 20.9419L88.3585 21.0396C89.0885 21.2227 89.3814 21.5059 89.3814 22.0234C89.3814 22.6704 88.8712 23.083 88.0655 23.083C87.3185 23.083 86.8033 22.6875 86.7569 22.0796ZM91.26 20.6929C90.84 20.6929 90.5471 21.0005 90.5153 21.4668H91.9655C91.9558 21.0005 91.6774 20.6929 91.26 20.6929ZM91.9533 22.3188H92.3732C92.2463 22.7705 91.841 23.0464 91.2648 23.0464C90.5349 23.0464 90.0783 22.519 90.0783 21.6865C90.0783 20.8589 90.5422 20.3218 91.2648 20.3218C91.9753 20.3218 92.4074 20.8271 92.4074 21.645V21.8062H90.5153V21.8257C90.5373 22.3457 90.8278 22.6753 91.2746 22.6753C91.614 22.6753 91.8435 22.5508 91.9533 22.3188ZM93.2166 23V20.3682H93.617V20.7832H93.6561C93.7879 20.4927 94.0442 20.3218 94.4471 20.3218C95.0379 20.3218 95.3675 20.6709 95.3675 21.2959V23H94.9476V21.3984C94.9476 20.9248 94.7474 20.7002 94.3274 20.7002C93.9075 20.7002 93.6365 20.981 93.6365 21.4424V23H93.2166ZM96.2963 23V20.3682H96.7162V23H96.2963ZM96.5063 19.8335C96.3451 19.8335 96.2133 19.7017 96.2133 19.5405C96.2133 19.3794 96.3451 19.2476 96.5063 19.2476C96.6674 19.2476 96.7992 19.3794 96.7992 19.5405C96.7992 19.7017 96.6674 19.8335 96.5063 19.8335ZM98.7485 23.0464C97.999 23.0464 97.5352 22.5288 97.5352 21.6841C97.5352 20.8369 97.999 20.3218 98.7485 20.3218C99.498 20.3218 99.9619 20.8369 99.9619 21.6841C99.9619 22.5288 99.498 23.0464 98.7485 23.0464ZM98.7485 22.668C99.2466 22.668 99.5273 22.3066 99.5273 21.6841C99.5273 21.0591 99.2466 20.7002 98.7485 20.7002C98.2505 20.7002 97.9697 21.0591 97.9697 21.6841C97.9697 22.3066 98.2505 22.668 98.7485 22.668ZM100.771 23V20.3682H101.171V20.7588H101.211C101.289 20.5024 101.591 20.3218 101.941 20.3218C102.009 20.3218 102.097 20.3267 102.15 20.334V20.7539C102.116 20.7441 101.965 20.7295 101.882 20.7295C101.482 20.7295 101.191 20.998 101.191 21.3691V23H100.771ZM106.564 21.1738H106.139C106.071 20.9126 105.839 20.7002 105.461 20.7002C104.987 20.7002 104.689 21.0786 104.689 21.6743C104.689 22.2822 104.992 22.668 105.461 22.668C105.815 22.668 106.061 22.5044 106.139 22.2065H106.564C106.489 22.6899 106.096 23.0464 105.463 23.0464C104.726 23.0464 104.255 22.5117 104.255 21.6743C104.255 20.854 104.723 20.3218 105.461 20.3218C106.1 20.3218 106.491 20.7051 106.564 21.1738ZM107.344 23V20.3682H107.764V23H107.344ZM107.554 19.8335C107.393 19.8335 107.261 19.7017 107.261 19.5405C107.261 19.3794 107.393 19.2476 107.554 19.2476C107.715 19.2476 107.847 19.3794 107.847 19.5405C107.847 19.7017 107.715 19.8335 107.554 19.8335ZM108.891 19.687H109.311V20.3682H109.896V20.7197H109.311V22.209C109.311 22.519 109.428 22.6509 109.701 22.6509C109.777 22.6509 109.818 22.6484 109.896 22.6411V22.9951C109.813 23.0098 109.733 23.0195 109.65 23.0195C109.108 23.0195 108.891 22.8193 108.891 22.3164V20.7197H108.466V20.3682H108.891V19.687ZM110.691 23V20.3682H111.111V23H110.691ZM110.901 19.8335C110.74 19.8335 110.608 19.7017 110.608 19.5405C110.608 19.3794 110.74 19.2476 110.901 19.2476C111.062 19.2476 111.194 19.3794 111.194 19.5405C111.194 19.7017 111.062 19.8335 110.901 19.8335ZM112.001 23V22.6924L113.519 20.7588V20.7197H112.003V20.3682H114.02V20.6831L112.508 22.6094V22.6484H114.027V23H112.001ZM115.884 20.6929C115.464 20.6929 115.171 21.0005 115.139 21.4668H116.589C116.579 21.0005 116.301 20.6929 115.884 20.6929ZM116.577 22.3188H116.997C116.87 22.7705 116.465 23.0464 115.888 23.0464C115.158 23.0464 114.702 22.519 114.702 21.6865C114.702 20.8589 115.166 20.3218 115.888 20.3218C116.599 20.3218 117.031 20.8271 117.031 21.645V21.8062H115.139V21.8257C115.161 22.3457 115.451 22.6753 115.898 22.6753C116.238 22.6753 116.467 22.5508 116.577 22.3188ZM117.84 23V20.3682H118.241V20.7832H118.28C118.412 20.4927 118.668 20.3218 119.071 20.3218C119.662 20.3218 119.991 20.6709 119.991 21.2959V23H119.571V21.3984C119.571 20.9248 119.371 20.7002 118.951 20.7002C118.531 20.7002 118.26 20.981 118.26 21.4424V23H117.84ZM123.943 23.083C122.986 23.083 122.388 22.375 122.388 21.2397C122.388 20.1021 122.984 19.394 123.941 19.394C124.683 19.394 125.262 19.8604 125.367 20.5391H124.92C124.803 20.085 124.427 19.7993 123.941 19.7993C123.265 19.7993 122.84 20.356 122.84 21.2397C122.84 22.1235 123.265 22.6777 123.943 22.6777C124.434 22.6777 124.808 22.4263 124.92 22.0186H125.367C125.25 22.6655 124.693 23.083 123.943 23.083ZM127.25 20.6929C126.83 20.6929 126.537 21.0005 126.506 21.4668H127.956C127.946 21.0005 127.668 20.6929 127.25 20.6929ZM127.944 22.3188H128.363C128.237 22.7705 127.831 23.0464 127.255 23.0464C126.525 23.0464 126.069 22.519 126.069 21.6865C126.069 20.8589 126.532 20.3218 127.255 20.3218C127.966 20.3218 128.398 20.8271 128.398 21.645V21.8062H126.506V21.8257C126.528 22.3457 126.818 22.6753 127.265 22.6753C127.604 22.6753 127.834 22.5508 127.944 22.3188ZM129.207 23V20.3682H129.607V20.7832H129.646C129.778 20.4927 130.034 20.3218 130.437 20.3218C131.028 20.3218 131.358 20.6709 131.358 21.2959V23H130.938V21.3984C130.938 20.9248 130.738 20.7002 130.318 20.7002C129.898 20.7002 129.627 20.981 129.627 21.4424V23H129.207ZM132.453 19.687H132.872V20.3682H133.458V20.7197H132.872V22.209C132.872 22.519 132.99 22.6509 133.263 22.6509C133.339 22.6509 133.38 22.6484 133.458 22.6411V22.9951C133.375 23.0098 133.295 23.0195 133.212 23.0195C132.67 23.0195 132.453 22.8193 132.453 22.3164V20.7197H132.028V20.3682H132.453V19.687ZM135.254 20.6929C134.834 20.6929 134.541 21.0005 134.509 21.4668H135.959C135.95 21.0005 135.671 20.6929 135.254 20.6929ZM135.947 22.3188H136.367C136.24 22.7705 135.835 23.0464 135.259 23.0464C134.529 23.0464 134.072 22.519 134.072 21.6865C134.072 20.8589 134.536 20.3218 135.259 20.3218C135.969 20.3218 136.401 20.8271 136.401 21.645V21.8062H134.509V21.8257C134.531 22.3457 134.822 22.6753 135.269 22.6753C135.608 22.6753 135.837 22.5508 135.947 22.3188ZM137.211 23V20.3682H137.611V20.7588H137.65C137.728 20.5024 138.031 20.3218 138.38 20.3218C138.448 20.3218 138.536 20.3267 138.59 20.334V20.7539C138.556 20.7441 138.404 20.7295 138.321 20.7295C137.921 20.7295 137.63 20.998 137.63 21.3691V23H137.211Z" fill="#FB513C"/>
<defs>
<clipPath id="clip0_6498_40675">
<rect width="63.65" height="19" fill="white" transform="translate(1.67499 5.5)"/>
</clipPath>
</defs>
</svg>
