<svg width="708" height="822" viewBox="0 0 708 822" fill="none" xmlns="http://www.w3.org/2000/svg">
<path d="M39.0003 72H44.0003L48.5003 68.5H63.0003L65.5003 70C67.5003 68.8334 72.0003 66.5 74.0003 66.5C76.5003 66.5 100 72 120.5 72C141 72 140.5 74.5 147.5 74C154.5 73.5 155 72 165 73C175 74 175 75.5 176.5 72C177.7 69.2 191 56.8334 197.5 51C200.667 50.6667 207.9 49.7 211.5 48.5C216 47 222 44.5 225.5 45.5C229 46.5 231 48.0002 234 45.5C237 42.9999 237.5 46 240.5 48.5C243.5 51 261 52 274 53C284.4 53.8 291.334 55.3333 293.5 56C294 54.5 294.7 50.9 293.5 48.5C292 45.5 295 37.5 299.5 39C303.1 40.2 308.667 42.5 311 43.5C311.834 44.8334 313.7 47.1001 314.5 45.5C315.5 43.5 316.5 45.0001 317 48.5C317.5 52 318.5 65 324 68C329.5 71 338 78.5 341 80C344 81.5 346.5 81.5 348.5 81.5C350.1 81.5 352.167 84.5 353 86L354 88.5L363 95.5L370.5 96.5L372.5 100L379.5 95.5L405.5 96.5L425.5 83.5L426.5 75L435 70L436 65C435.334 64.3333 433.9 62.1 433.5 58.5C433.1 54.9 434.334 52.6667 435 52V47C436.5 47.1667 439.7 47.1001 440.5 45.5C441.5 43.5 442.5 41 447 40C450.6 39.2 456.834 36.3333 459.5 35C461.167 38.8334 465.3 46.9001 468.5 48.5C472.5 50.5 485 58 487 63L490 68L513.5 63V66.5L491 70C490 72 488.8 77.1 492 81.5C496 87 503.5 94.5 504 95.5C504.4 96.3 504.167 105.5 504 110C506 110.333 510.2 111.4 511 113C511.8 114.6 516.667 121.667 519 125L515 127.5L501.5 124L500 125L508.5 127.5C508.334 129.167 508.4 132.8 510 134C511.6 135.2 515.667 134.5 517.5 134C522.5 137.5 533.7 145.3 538.5 148.5C543.3 151.7 545.167 154.167 545.5 155C547.334 153.167 551.5 149.5 553.5 149.5C555.5 149.5 561.334 152.167 564 153.5V158L559 161.5C559.5 164 561.2 169.6 564 172C566.8 174.4 567.5 177.333 567.5 178.5L572 179.5L597.5 175L597 173.5L599.5 173L601.5 179.5H598.5L597.5 177L574.5 181L574 186.5L572 185.5L571.5 182L566.5 181L563 185.5L569.5 192.5L578.5 186.5L583.5 185.5V188.5L578.5 189L569.5 196L566.5 201C571.334 217.833 581.1 252.7 581.5 257.5C581.9 262.3 590.667 287.833 595 300C594.667 302.833 593.8 309 593 311C592 313.5 591.5 316.5 595 316.5C598.5 316.5 606.5 318.5 609 316.5C611 314.9 613.5 315.833 614.5 316.5L624.5 293C623.834 293 622.7 292.7 623.5 291.5C624.5 290 629 287 631.5 288C634 289 636 288 637.5 287.5C638.7 287.1 638 288.333 637.5 289C636.167 289.333 633.2 290.3 632 291.5C630.5 293 626.5 294 626 294C625.6 294 620.834 308 618.5 315H621C621.5 316.5 623 319.5 625 319.5C625.5 318.667 626.8 317.2 628 318C629.5 319 630.5 322 632.5 320.5C634.5 319 635.5 316.5 637 318C638.5 319.5 636 320.5 636 322C636 323.5 634.5 324 632 325.5C629.5 327 632 329.5 634.5 332C637 334.5 640.5 338 642 338C643.5 338 646 337.5 647 337C648 336.5 647 339 645.5 340C644 341 647 341.5 648.5 343.5C650 345.5 652.5 350.5 653 354.5C653.4 357.7 653.167 359.833 653 360.5L654.5 362.5C654.334 364 654.4 367.2 656 368C658 369 662.5 370.5 670.5 368.5C676.9 366.9 677.834 368.833 677.5 370C678.334 371.167 680.1 374.1 680.5 376.5C681 379.5 680.5 381.5 679 383.5C677.5 385.5 678.5 393 677.5 394C676.7 394.8 676.5 395.667 676.5 396C677.334 396.333 678.7 397.4 677.5 399C676 401 676 402 677 404.5C677.676 406.189 677.448 406.809 677.16 406.96L679 406.5C679.667 407.5 681 409.9 681 411.5C681 413.5 679.5 413.5 681 416.5C682.5 419.5 682.5 420 681.5 422.5C680.5 425 678.5 425.5 678 426.5C677.5 427.5 675.5 428 676 430C676.5 432 678 433 679 433C680 433 677.5 433.5 676.5 434.5C675.5 435.5 674 438.5 673 439.5C672 440.5 671.5 442.5 671.5 443.5C671.5 444.3 668.834 444.5 667.5 444.5C667.667 446 666.5 448.9 660.5 448.5C654.5 448.1 652.667 447.667 652.5 447.5C652.334 448.333 651.2 450.1 648 450.5C644 451 636 451.5 632 449.5L626 446.5C624.834 449.833 622 456.6 620 457C617.5 457.5 609.5 465 601 466V470C601 471.167 601.5 474 603.5 476C606 478.5 603 483.5 602 488C601.667 486.5 600 483.3 596 482.5L595 477.5C594 478.167 591.5 479.3 589.5 478.5C587 477.5 585 480 583.5 484C582 488 579.5 490 577.5 490H573C573 490.667 571.8 493.2 567 498L558.5 506.5L553 505.5L552 509C551.167 508.5 549.3 507.3 548.5 506.5C547.7 505.7 542.834 507.5 540.5 508.5L541 520.5C538.834 524 533.3 531.2 528.5 532C522.5 533 511.5 535 507 538.5C502.5 542 500 543 498.5 542.5C497.3 542.1 493 540.333 491 539.5C488.5 540.833 483.1 543.1 481.5 541.5C479.9 539.9 478.167 539.5 477.5 539.5H470.5C468.667 543.167 464.9 551.8 464.5 557C464.1 562.2 463.667 570.5 463.5 574C464 574.5 464.9 576.3 464.5 579.5C464.1 582.7 464 584.167 464 584.5C461.167 586.5 455.4 591.2 455 594C454.5 597.5 455 602.5 452.5 605.5C451.167 606.333 448.4 608.2 448 609C447.5 610 446 620.5 444.5 624C443 627.5 440 633 439 635.5C438 638 436 638 436 641C436 644 437.5 645.5 439 648C440.5 650.5 442 656 440.5 658.5C439.3 660.5 439 665.333 439 667.5C441 669.5 445.3 673.7 446.5 674.5C448 675.5 451 675.5 455 679C459 682.5 463.5 686 463.5 688.5C463.5 691 463 693 465.5 695.5C468 698 473 704 473.5 707C474 710 474.5 712 476 712.5C477.5 713 476 715 476 717.5V727C472.834 731.167 466.5 740 466.5 742C466.5 744 465.834 752.833 465.5 757L461.5 766.5C460 768.167 456.6 771.5 455 771.5C453 771.5 450.5 770 447.5 770C444.5 770 437 773.5 435 772.5C433 771.5 424 768.5 423.5 766.5C423.1 764.9 412 765.833 406.5 766.5L396.5 772.5H394.5L389.5 770H363L354.5 777.5V780.5L336.5 779L330 780.5C325.667 774 316.9 760.6 316.5 759C316 757 309 746 309 742C309 738.8 305 738.333 303 738.5L306 729L302 723L301.5 715L294.5 701.5C285.5 699.167 267 694 265 692C262.5 689.5 254 671.5 253 666C252 660.5 248 662.5 248.5 659C248.9 656.2 247.334 653.167 246.5 652C244.834 651.667 241 650.5 239 648.5C236.5 646 236.5 645 232.5 645H226.5L222 639.5L220.5 634C218 631.167 212.9 625 212.5 623C212 620.5 210 615 206.5 611C203 607 196.5 599 195 592.5C193.8 587.3 193.167 580.667 193 578L186.5 564.5L182.5 560.5V558.5L190 552C195 549.333 205.6 543.3 208 540.5C210.4 537.7 210.667 534 210.5 532.5L203 535L193 536L190 538.5L181 536V534H182.5V524L180 517L181 514.5L186.5 512.5L182.5 508.5L186.5 505.5H189.5L193 508L195.5 513L201.5 508L190 502.5L181 492L176.5 485.5L173 456.5L174.5 435V429L178 425L180 419L184.5 416L181 413.5C179.667 414.333 176.2 415.5 173 413.5C169 411 168 411.5 167.5 405.5C163.667 405.5 155.4 405.1 153 403.5C150.6 401.9 146.667 397.833 145 396H142L140.5 394C140.667 390.667 141.2 383.2 142 380C142.8 376.8 142.334 378 142 379L137 374.5V361C138 359.333 139.7 355.4 138.5 353C137 350 136.5 338.5 138.5 331.5C140.5 324.5 142.5 321.5 140.5 317.5C138.5 313.5 149 292.5 151 288.5C152.6 285.3 156.334 281.167 158 279.5L152 273.5L153.5 259.5L146 253.5C138.167 251.167 121.3 245.6 116.5 242C110.5 237.5 109 234 104 232C99.0003 230 94.0003 227 85.0003 217.5C77.8003 209.9 75.0003 209 74.5003 209.5L73.0003 206.5L65.5003 203L60.5003 201.5C58.667 198.167 53.2003 190.3 46.0003 185.5C38.8003 180.7 33.667 179.167 32.0003 179L26.5003 172C27.167 170.667 28.4003 167.7 28.0003 166.5C27.5003 165 23.5003 161.5 26.5003 153.5C28.9003 147.1 29.8334 141.5 30 139.5L19 127.5C20.3333 125 23 119.3 23 116.5C23 113 23.0007 107.5 26.5003 102C30 96.5 38 80.5 38 78C38 76 38.6669 73.1667 39.0003 72Z" fill="#1A203A" stroke="#333757" stroke-width="1.5" stroke-linejoin="round"/>
<path d="M158 280C160.833 281.333 166.9 284.3 168.5 285.5C170.5 287 174 286.5 174.5 286.5C175 286.5 187.5 292 191 300C194.5 308 197 312 201 315C205 318 207.5 318 208 321.5C208.5 325 208.5 325 211 325C213 325 219.5 325.667 222.5 326C223.333 326.833 225.5 328.5 227.5 328.5C230 328.5 231.5 330.5 234 332.5C236.5 334.5 243 339.5 246 339C249 338.5 251.5 335 255 335C258.5 335 262 337 264 340.5C266 344 273.5 351 279.5 351.5C285.5 352 286.5 350 289.5 349.5C291.9 349.1 294.167 349.333 295 349.5V352L300 350C300.833 348.833 302.8 346.8 304 348C305.5 349.5 307 354 310.5 354C314 354 316 354.5 318.5 356.5C320.5 358.1 321 360.5 321 361.5H323.5L326.5 364V367L335 373V375.5L333.5 377L335 386.5L336.5 390L334.5 394L333.5 405C333.667 405.667 334.5 406.8 336.5 406C339 405 339.5 404 343.5 403.5C346.7 403.1 348.833 402.333 349.5 402V403.5L348.5 405L349.5 414C350.833 414.5 354.1 417 356.5 423L349.5 428C349 429.667 348.2 433.4 349 435C349.8 436.6 351.667 439 352.5 440L341.5 449.5L342.5 451C337.667 456.333 326.7 467.3 321.5 468.5V471.5L317 483L318 486L318.5 498.5L315.5 501L314.5 510L316 511.5C315.5 514.667 315 521.1 317 521.5C319 521.9 319.833 522.667 320 523L318.5 526L322.5 532L323.5 537.5C324.333 538.833 326.6 541.5 329 541.5C332 541.5 336 543.5 338 544.5C340 545.5 341 549 340.5 553C340 557 338 566.5 337 572C336 577.5 335 580 335 582.5C335 585 336.5 587.5 338 588.5C339.5 589.5 339 593 339 595.5C339 598 341 602 341 603C341 603.8 341 605.333 341 606L354.5 611C355.667 612.833 358.4 617 360 619C361.6 621 364.333 622.833 365.5 623.5C367 625.667 370.7 630.3 373.5 631.5C377 633 385 634 387.5 633.5L390 636.5C389.667 637.667 389.2 640.4 390 642C391 644 404.5 662 406.5 663C408.5 664 426.5 671.5 428.5 671C430.5 670.5 433 669 435 669C436.6 669 439.667 669 441 669" stroke="#333757" stroke-width="1.5" stroke-linecap="round" stroke-linejoin="round"/>
<path d="M326.5 364L332.5 362.5L338.5 355C338.167 353.667 337.7 350.3 338.5 347.5C339.3 344.7 338.167 338.667 337.5 336H340.5C341.5 337.833 344.4 341.9 348 343.5C352.5 345.5 357 346 358.5 345.5C360 345 359.5 343.5 361 344.5C362.5 345.5 365 347.5 367 347C369 346.5 369.5 345.5 371 346.5C372.5 347.5 372 348.5 376 349C380 349.5 385 350.5 390 350.5C395 350.5 393 348.5 392.5 347C392 345.5 391 342 390.5 340L389.5 338L390.5 337.5C391 338 392.6 338.9 395 338.5C397.4 338.1 399 339.333 399.5 340L408 335.5L413.5 345.5L411.5 346.5L417 350.5L421 345.5L422 346.5L420 355.5L418 358V359H421V361.5H415L407 367L409.5 371L408 372C411.667 377.167 419.2 388.8 420 394C421.5 394.333 425.1 395 427.5 395C427.833 399.167 428.7 407.7 429.5 408.5C430.5 409.5 430.5 413 431 417.5C431.4 421.1 431.5 423.333 431.5 424H433.5C434.833 425.5 437.9 428.6 439.5 429C441.5 429.5 444 429.5 445.5 428C447 426.5 447.5 425.5 452 425.5C456.5 425.5 462.5 420 466.5 420C470.5 420 475.5 418.5 477 417C478.2 415.8 479.5 414.833 480 414.5L486 414L499 421.5L500 423H503.5L505.5 425.5C506 426.833 507.1 429.9 507.5 431.5L517.5 438V441.5C518.333 442.167 520.2 443.6 521 444C522 444.5 522 448 523 450C524 452 529 454 529 456C529 458 528.5 462 530 464C531.5 466 533 465.5 533 468.5C533 471.5 532.5 477.5 534 478.5C535.5 479.5 537 481.5 537.5 485.5C538 489.5 538 490.5 539 492.5C540 494.5 538.5 502.5 539.5 504.5C540.3 506.1 540.833 507.833 541 508.5" stroke="#333757" stroke-width="1.5" stroke-linecap="round" stroke-linejoin="round"/>
<path d="M459.999 422.5C459.332 421.167 458.199 418.1 458.999 416.5L459.999 414.5C458.999 413.667 456.999 411.3 456.999 408.5C456.999 405 458.499 404 458.499 402.5C458.499 401 455.999 401.5 454.499 401C452.999 400.5 454.499 399 454.499 397.5C454.499 396 453.5 394 452.5 392.5C451.5 391 451.5 390 453 388.5C454.499 387 452 384 454 381C456 378 454 374.5 455 371C456 367.5 459.5 366 459.5 364C459.5 362 456.5 360 456.5 359C456.5 358.2 457.5 357.334 458 357C459.667 356.667 464 354.9 468 350.5C473 345 476 338.5 477 334.5C477.167 333.5 477.7 331.4 478.5 331C479.3 330.6 479.833 330.834 480 331C479.667 332.5 479.2 335.7 480 336.5C481 337.5 482.5 340 483.5 342C484.5 344 484.5 341.5 487.5 341C490.5 340.5 497 344 498 345C499 346 499.5 353 504 353C508.5 353 511.5 354 522 348.5C532.5 343 536 342 536.5 340.5C537 339 537 335.5 538.5 333.5C539.7 331.9 541.333 330.834 542 330.5C543.333 330.334 546.1 329.9 546.5 329.5C547 329 546.5 326 546.5 323C546.5 320 546.5 316.5 546 315C545.5 313.5 545.5 313.5 546.5 313C547.5 312.5 548 315 549.5 315.5C550.7 315.9 552.333 316.333 553 316.5L552.5 314.5L562 309.5L546 277L571 265L573 268.5L580.5 264.5L579.5 259.5L581.5 258.5" stroke="#333757" stroke-width="1.5" stroke-linecap="round" stroke-linejoin="round"/>
<path d="M396 221L398 221.5C401.333 219.333 408.8 214.3 412 211.5C412.833 211 414.7 209.8 415.5 209L417.5 208.5L418.5 207.5L419 207L423 218.5L424.5 219L426.5 217.5L432 221.5L436 228.5L436.5 231.5C436.833 232.167 438 233.8 440 235C442.5 236.5 444 238 445 239.5C446 241 448.5 245 451 247C453.5 249 454 250 455.5 250C457 250 459 250 460.5 251C461.7 251.8 463.333 252.667 464 253L466.5 249.5H467L485.5 259H486.5L489 255.5L487.5 254V250.5L488.5 249C489.833 249.333 492.9 250 494.5 250C496.1 250 501.5 249.667 504 249.5L505 250.5H505.5L506 250L514.5 251L529 243.5L545.5 276L505.5 295.5L502 291L505.5 288.5L506 286.5H505V284L494.5 275.5L493.5 276.5L494 277.5L493.5 278C492.667 278.333 490.8 279 490 279C489.2 279 488.667 278.667 488.5 278.5L484.5 280.5L482.5 282C481.5 282 479.4 282 479 282C478.5 282 478 281.5 478 282C478 282.5 478.5 284.5 478 285.5C477.5 286.5 476 288 475.5 289.5C475 291 475 294.5 473.5 296.5C472 298.5 470.5 298 469 299.5C467.5 301 467 303 465 304C463 305 460 304 458 303C456 302 454.5 300.5 453 299.5C451.5 298.5 450.5 299 449.5 297.5C448.5 296 448.5 295.5 447 295C445.5 294.5 445 293.5 444 292C443 290.5 442.5 290 442 290C441.5 290 440.5 288.5 439 287.5C437.5 286.5 437.5 286.5 435.5 286.5C433.5 286.5 433 286.5 432.5 287C432 287.5 431 287 430.5 288C430 289 428.5 288.5 427.5 289C426.5 289.5 425.5 289.5 425.5 291C425.5 292.5 425 291.5 424 293.5C423 295.5 423.5 295.5 419.5 297.5C415.5 299.5 413 300.5 410.5 301C408 301.5 405 301 402.5 300C400 299 400 298.5 399 297C398 295.5 398 296 397.5 295.5C397 295 397 294.5 396 295C395 295.5 391.5 295.5 391 295C390.5 294.5 388.5 294.5 386 294.5C383.5 294.5 383.5 294.5 383 293.5C382.5 292.5 383 291.5 381.5 291C380.3 290.6 378.333 291.167 377.5 291.5" stroke="#333757" stroke-width="1.5" stroke-linecap="round" stroke-linejoin="round"/>
<path d="M260 336.501L261 335.001L262 331.001L269 324.501C271.167 324.501 275.9 323.701 277.5 320.501V319.001C279.5 319.334 283.6 319.001 284 315.001L285 314.001L286.5 315.001L289.5 314.001L292.5 311.001L294 313.001H296L297 311.001L303 308.501H306L306.5 311.001C307.833 312.334 310.8 315.001 312 315.001C313.5 315.001 315.5 313.501 317 310.501C318.5 307.501 319.5 308.001 321.5 307.001C323.1 306.201 325.833 302.667 327 301.001V299.501V298.001L328.5 297.001L329.5 298.001C331.833 297.167 336.8 295.001 338 293.001C338.167 293.334 338.8 294.001 340 294.001C341.5 294.001 341.5 291.501 343.5 291.501C345.5 291.501 347.5 291.001 348.5 292.001C349.3 292.801 350.167 293.667 350.5 294.001C350.833 294.167 351.7 294.301 352.5 293.501C353.5 292.501 357 289.001 358.5 288.501C360 288.001 360.5 287.501 361 288.501C360.833 284.167 360.8 275.101 362 273.501C363.2 271.901 365.167 271.167 366 271.001V270.001L361.5 270.501V267.001C360.833 265.834 359.9 263.001 361.5 261.001C363.5 258.501 365 260.001 365.5 261.001C366 262.001 368 261.501 370 261.001C372 260.501 375.5 260.501 377.5 261.001C379.5 261.501 378.5 261.001 378 259.001C377.6 257.401 377.833 255.334 378 254.501C375.833 254.667 371.3 254.801 370.5 254.001C369.5 253.001 370.5 249.001 369 247.501C367.8 246.301 359.5 242.001 355.5 240.001L353 239.501L336 231.001L338 228.501L348.5 225.501L357 215.501C356.667 214.501 356.5 212.401 358.5 212.001C361 211.501 365.5 210.501 368 214.001C370 216.801 373.833 219.834 375.5 221C376.5 221 378.8 221 380 221C381.5 221 384 224 387.5 224C390.3 224 393 222 394 221H396V220C394.833 219.667 392.4 218.301 392 215.501C391.5 212.001 388.5 211 388.5 207C388.5 203 386.5 191.5 385 189C383.5 186.5 383 186.5 383 183.5C383 181.1 382.333 179.167 382 178.5C380.667 177.834 378.4 176.2 380 175C381.6 173.8 383.667 171.5 384.5 170.5L383 167.5H382V169.5C380.833 170.834 378.4 173.2 378 172C377.6 170.8 377.833 169.167 378 168.5L370.5 162C368.167 162.667 363.4 164.1 363 164.5C362.6 164.9 362.833 160.334 363 158H361.5C361 158.667 359.7 160.2 358.5 161C357 162 348.5 167.5 347.5 167.5C346.5 167.5 344 171 341.5 172C339.5 172.8 336.333 173.334 335 173.5C333.833 173.5 331.3 173.5 330.5 173.5C329.5 173.5 327 174.5 327 172H324C322.333 173 318.4 174.7 316 173.5C313 172 308 172.5 305 172C302 171.5 298.5 169 294.5 163C290.5 157 286 153.5 284 152.5C282 151.5 280.5 152.5 277 149.5C273.5 146.5 273.5 143.5 268 140.5C262.5 137.5 263 138.5 261.5 134C260 129.5 259.5 128.5 259.5 125.5C259 125 254.5 122.5 252.5 118C250.5 113.5 248.5 115 242.5 109.5C237.7 105.1 234.167 104.334 233 104.5L231.5 102L226.5 99.5H223.5C216.5 96.5 201.4 90.2 197 89C191.5 87.5 188.5 86 186 83C183.5 80 177.5 79 175 74" stroke="#333757" stroke-width="1.5" stroke-linecap="round" stroke-linejoin="round"/>
<path d="M383.5 168L384.5 166L396.5 161L403.5 155L410.5 152.5L415.5 147.5L418 148C420.167 149.834 425 153.5 427 153.5C429.5 153.5 429.5 153.5 430.5 153.5C431.5 153.5 433 150.5 436 149C439 147.5 441.5 146.5 444.5 147.5C447.5 148.5 449 150 453.5 148.5C458 147 458.5 144 461.5 143C464.5 142 467.5 141.5 472 141.5C476.5 141.5 475.5 141.5 476.5 137.5C477.5 133.5 479.5 127.5 481.5 126.5C483.5 125.5 486.5 123 489.5 122.5C491.9 122.1 498.5 123.333 501.5 124" stroke="#333757" stroke-width="1.5" stroke-linecap="round" stroke-linejoin="round"/>
<path d="M571 265L567.5 258V254L553.5 213L537 218L530 215.5L530.5 209.5L523 208L519.5 183L512 171.5L521 168L521.5 160L515 153L518.5 151.5L516 147.5L515.5 143L514 141.5L516 140L511.5 135.5L512 134.751" stroke="#333757" stroke-width="1.5" stroke-linecap="round" stroke-linejoin="round"/>
<path d="M361 286.5H362L363 287.5H369V289L368 289.5V294L370.5 294.5L371 292L374 292.5L377.5 291.5L376.5 296V306.5L377.5 307L388.5 308V309H389.5V308L393.5 308.5L392.5 313.5H393.5V316.5L396.5 317L396 319.5L392.5 323.5L392 327.5L389 332.5L388 333V336L389.5 337.5" stroke="#333757" stroke-width="1.5" stroke-linecap="round" stroke-linejoin="round"/>
</svg>
