<svg width="708" height="822" viewBox="0 0 708 822" fill="none" xmlns="http://www.w3.org/2000/svg">
<path d="M353.414 38.7858C351.363 36.3243 346.747 32.29 344.696 30.5806C344.012 30.5806 342.029 31.2985 339.568 34.1702C336.491 37.7598 329.824 38.2728 325.208 37.76C321.516 37.3497 317.174 34.1703 315.465 32.6319H305.208C300.593 32.6319 293.926 28.0164 291.874 27.5036C289.823 26.9908 285.208 28.0164 287.259 29.0421C288.9 29.8626 289.994 31.7772 290.336 32.6319C290.678 33.9994 291.156 37.6576 290.336 41.35C289.515 45.0424 286.575 47.333 285.208 48.0168L278.541 45.4526H272.9C270.438 45.4526 268.113 48.5296 267.259 50.0681C268.284 50.5809 270.336 52.222 270.336 54.6835C270.336 57.1451 266.233 61.5213 264.182 63.4016H254.951L250.335 65.9658V68.0171H252.387L255.976 65.9658H264.182C264.353 66.6496 264.9 68.3248 265.72 69.5556C266.541 70.7864 266.062 73.1454 265.72 74.171L268.284 77.248C269.31 77.0771 272.797 76.8378 278.541 77.248C284.285 77.6583 288.114 79.8122 289.31 80.8378V89.5559L284.182 88.5303L281.105 103.915L278.028 108.531L278.541 119.813L275.977 123.915H271.361L270.336 124.941L271.361 132.634L267.259 138.275H261.618L262.643 140.839L258.541 137.762C252.728 137.078 240.489 135.3 238.027 133.659C235.566 132.018 234.95 128.189 234.95 126.48L232.386 123.915H228.796V121.864L230.335 120.839V117.249L231.361 116.736L229.309 114.685L225.207 121.351H223.155L221.617 119.813L218.027 121.351L217.514 126.992L219.053 130.582L214.437 133.659L210.847 129.557L207.258 132.121L210.847 136.736V139.3L207.77 139.813L209.822 143.403C211.463 143.403 213.924 145.454 214.95 146.48C215.463 147.164 216.386 149.147 215.976 151.608C215.463 154.685 211.873 155.711 209.822 155.198C208.181 154.788 202.3 151.608 199.565 150.07L194.95 149.557V153.147L199.052 158.788L209.822 162.891V168.532L214.437 173.66L214.95 179.301L212.899 183.404H210.847L207.77 185.455V187.506L209.822 188.019V190.07L201.104 201.353V206.481L195.975 212.122L194.95 223.404L182.642 233.661L178.539 232.635L174.949 225.456V222.379L177.514 219.815L176.488 217.25L173.411 219.815L171.872 218.276L173.411 213.661V212.122L170.847 211.609L168.795 214.686L162.641 209.558L164.18 206.994L162.641 205.455L158.026 213.148C160.419 215.199 165.513 220.122 166.744 223.404C167.975 226.686 166.231 230.926 165.206 232.635L163.154 233.661L159.052 237.764V239.302L161.103 241.353C161.445 242.55 161.924 245.661 161.103 248.533C160.282 251.405 155.633 252.123 153.411 252.123C153.24 252.977 152.59 255.302 151.359 257.764C150.128 260.225 144.351 262.208 141.615 262.892L137 267.508L139.564 269.559L141.615 266.995H143.667L147.257 269.559V274.174L150.334 275.2V271.61L152.898 272.636V280.328H155.462V271.61C155.804 271.097 157.103 269.969 159.564 269.559C162.641 269.046 164.693 274.174 165.206 277.764C165.616 280.636 165.035 286.14 164.693 288.534L161.103 291.098L162.129 292.636L165.206 290.585L166.744 292.123L163.154 294.688H156.488C153.752 295.713 148.077 297.765 147.257 297.765C146.436 297.765 141.103 296.739 138.538 296.226L137.513 297.765L145.718 301.354L148.795 308.021V311.611L151.359 315.201L158.026 316.739V321.355C162.3 325.115 171.462 333.56 173.924 337.252C177.001 341.868 175.462 351.099 173.924 353.663C172.693 355.714 171.36 350.073 170.847 346.996L169.308 351.099C170.847 353.834 173.924 360.022 173.924 362.894C173.924 365.766 174.949 373.321 175.462 376.74V391.099L169.308 400.843V405.459L175.462 415.715L173.924 420.331L181.103 429.049C180.761 431.442 179.77 437.357 178.539 441.87C177.001 447.511 177.001 449.562 182.642 452.639C187.155 455.101 187.599 459.135 187.257 460.844C188.112 461.186 190.54 462.588 193.411 465.46C196.283 468.332 196.317 474.178 195.975 476.742L204.181 497.768V501.871L211.36 505.46C212.215 506.828 215.771 512.23 223.155 522.897C230.54 533.563 235.463 547.512 237.002 553.154L241.617 556.23C242.814 558.111 245.515 562.384 246.746 564.436C248.284 567 249.31 567 254.951 568.538C260.592 570.077 267.259 577.769 272.9 582.385C277.413 586.077 277.515 591.787 277.003 594.18L272.9 595.718V602.385L277.003 607.001V612.642L270.849 615.206V620.334L274.438 625.975V632.129C276.148 632.471 279.977 633.668 281.618 635.719C283.669 638.283 285.208 639.822 286.746 637.77C287.977 636.129 290.336 637.77 291.362 638.796V645.463H293.413V639.822L295.977 634.181L306.234 630.591L308.798 637.77L306.234 638.796L310.336 652.642L303.67 654.694L292.387 650.078L291.362 652.13L303.67 656.745L320.08 652.13L324.183 649.053L331.362 661.36L343.157 663.412L350.337 662.899L357.004 659.822L358.542 660.335L345.209 667.002L329.311 663.925L324.183 655.719H321.106L297.003 661.873C297.003 663.925 297.413 669.668 299.054 676.233C301.105 684.438 301.105 684.951 303.67 686.489C305.721 687.72 305.55 691.788 305.208 693.669C306.063 692.985 308.49 692.028 311.362 693.669C314.952 695.72 315.978 694.694 317.003 693.669C318.029 692.643 321.106 694.182 323.157 698.284C324.798 701.566 329.653 720.507 331.875 729.567L330.849 738.285L323.157 742.387L315.978 748.541C316.49 750.935 318.234 756.336 321.106 758.798C324.696 761.875 326.747 768.542 325.208 770.08C323.67 771.619 322.644 776.747 325.208 778.286C327.26 779.516 329.824 782.217 330.849 783.414V791.106H334.439L339.567 796.235C340.422 797.089 342.132 798.286 342.132 796.235C342.132 793.67 347.26 788.029 350.85 785.465C354.44 782.901 359.055 787.004 361.619 783.414C363.67 780.542 368.286 776.405 370.337 774.696C371.534 775.38 374.748 777.055 378.03 778.286C381.312 779.516 384.867 779.482 386.235 779.311C387.055 776.85 389.996 774.183 391.363 773.157L400.594 768.542L405.722 764.439C406.577 763.755 408.902 762.388 411.364 762.388C414.441 762.388 417.518 765.978 423.159 765.978C427.672 765.978 438.031 767.687 442.646 768.542L460.595 767.516L461.621 762.388L468.288 755.721C467.946 753.328 467.467 746.798 468.288 739.823C469.108 732.849 477.177 728.37 481.108 727.003L485.724 720.849C489.656 721.874 497.929 724.233 499.57 725.464C501.622 727.003 506.237 727.003 510.852 725.464C514.545 724.233 520.596 724.951 523.16 725.464C524.801 730.387 531.708 731.618 534.955 731.618L542.648 738.285L550.34 735.208C554.785 737.259 564.7 742.08 568.802 744.952C572.905 747.823 575.982 747.516 577.007 747.003L586.238 744.952L591.367 739.823L598.546 737.259H604.187C606.239 735.721 611.162 731.516 614.444 727.003C617.726 722.49 618.205 713.156 618.034 709.054L621.111 707.002C619.572 705.122 616.085 700.028 614.444 694.694C612.803 689.361 609.658 682.216 608.29 679.31C606.752 677.771 602.854 674.591 599.572 674.181C595.469 673.668 593.418 674.181 591.367 671.104L591.365 671.102C589.314 668.025 586.238 663.411 583.674 658.796C581.11 654.181 574.956 643.411 571.879 639.822C569.418 636.95 569.486 629.394 569.828 625.975L561.623 612.642C563.332 610.761 567.776 606.59 571.879 604.949C577.007 602.898 580.084 599.821 580.597 596.744C581.008 594.282 579.401 594.009 578.546 594.18L566.751 596.744L561.623 595.718V586.487L559.571 582.385L565.212 577.769L562.648 575.718L564.187 574.692L571.879 578.795L574.956 575.718C572.734 574.18 567.469 570.59 564.187 568.538C560.084 565.974 558.033 560.846 557.52 555.205C557.007 549.564 555.981 544.435 554.956 540.846C554.135 537.974 555.298 526.315 555.981 520.845C556.665 520.161 558.34 518.281 559.571 516.23C560.802 514.178 562.135 512.298 562.648 511.614L559.571 510.076C556.699 511.717 552.904 509.392 551.366 508.025V503.409L540.597 501.871L537.52 497.768L533.417 496.229V485.46L529.827 481.87V473.152L531.878 469.05L529.827 465.46C530.34 460.844 531.776 448.844 533.417 437.767C535.058 426.69 540.597 419.134 543.161 416.741L544.699 414.69L540.597 410.074V401.356C540.767 399.818 538.853 396.125 529.827 393.664C518.545 390.587 515.981 388.023 511.365 383.92C507.673 380.638 504.015 379.817 502.647 379.817C499.228 376.74 491.262 369.458 486.749 364.945C482.237 360.432 477.006 359.304 474.954 359.304C474.442 357.253 469.826 351.099 464.185 346.996C458.544 342.894 454.441 344.432 451.364 334.175C448.287 323.919 453.928 319.816 454.441 316.739C454.954 313.662 449.826 310.072 447.262 308.021C444.697 305.97 447.774 300.329 448.8 295.2C449.826 290.072 458.031 276.739 459.57 271.097C461.108 265.456 458.031 260.841 455.467 257.764C452.903 254.687 458.031 252.636 458.031 251.61C458.031 250.584 457.005 228.02 455.467 222.379C453.928 216.738 460.595 209.558 461.621 207.507C462.441 205.866 465.04 205.113 466.236 204.942L471.877 199.814H475.98C476.835 198.959 478.852 195.814 480.083 190.07C481.621 182.891 479.57 178.788 478.544 176.224C477.519 173.66 482.134 169.557 482.134 164.429C482.134 159.301 483.673 153.66 485.211 143.403C486.749 133.146 493.929 123.403 495.98 120.326C498.032 117.249 498.032 113.146 495.98 110.582C493.929 108.018 492.903 106.479 491.878 101.864C490.852 97.2484 487.262 97.2484 483.673 95.7099C480.801 94.4791 473.929 94.5133 470.852 94.6842C470.852 93.4534 469.826 90.0688 469.313 88.5303C469.313 90.0688 465.211 92.1201 462.647 91.6072C460.082 91.0944 459.57 88.0174 458.031 85.9661C456.8 84.3251 458.202 83.231 459.057 82.8891L459.57 81.8635C458.715 80.6669 456.698 78.0686 455.467 77.248C453.928 76.2224 451.364 77.248 448.287 75.1967C445.21 73.1454 444.185 73.1454 441.108 73.1454C438.031 73.1454 438.031 69.5556 437.518 69.0428C437.005 68.5299 430.338 69.5556 426.748 68.0171C423.159 66.4786 426.236 62.376 422.133 58.7862C418.03 55.1964 416.492 50.5809 414.953 53.1451C413.415 55.7092 405.722 58.7862 402.133 58.7862C399.261 58.7862 395.808 60.1537 394.44 60.8375C392.902 58.7862 390.85 56.7349 383.671 56.222C376.491 55.7092 373.927 61.8631 367.773 59.8118C361.619 57.7605 363.67 50.5809 362.132 46.4783C360.593 42.3756 355.978 41.8628 353.414 38.7858Z" fill="#1A203A"/>
<path d="M255.976 36.2215L259.053 34.1702C256.592 34.1702 252.216 31.7771 250.335 30.5806L248.797 32.6319L250.848 38.2728L253.412 39.8113L255.464 39.2985L255.976 36.2215Z" fill="#1A203A"/>
<path d="M236.489 54.6835C237.002 53.1452 234.438 51.6064 233.412 51.6064C233.07 51.7773 231.976 52.4269 230.335 53.6577C228.284 55.1962 227.771 55.1962 225.719 53.6577C224.078 52.4269 222.642 52.1192 222.13 52.1192L219.053 54.6835V56.2218L221.617 58.786C221.959 59.8116 223.053 62.4784 224.694 64.9399C226.745 68.0169 229.822 65.9658 233.412 68.0171C236.284 69.6581 238.711 71.7777 239.566 72.6324H241.617L243.668 69.5556C243.668 68.5299 243.258 66.2733 241.617 65.4528C239.976 64.6322 238.198 61.3501 237.515 59.8116L235.463 59.2988L234.95 57.2475C235.292 56.9056 236.079 55.9142 236.489 54.6835Z" fill="#1A203A"/>
<path d="M202.642 53.6577C203.873 53.6577 205.206 54.3416 205.719 54.6835L207.258 53.6577C207.258 52.9739 206.95 51.2987 205.719 50.0681C204.181 48.5298 202.129 49.5551 201.104 50.0681C200.078 50.5811 201.104 53.6577 202.642 53.6577Z" fill="#1A203A"/>
<path d="M353.414 38.7858C351.363 36.3243 346.747 32.29 344.696 30.5806C344.012 30.5806 342.029 31.2985 339.568 34.1702C336.491 37.7598 329.824 38.2728 325.208 37.76C321.516 37.3497 317.174 34.1703 315.465 32.6319H305.208C300.593 32.6319 293.926 28.0164 291.874 27.5036C289.823 26.9908 285.208 28.0164 287.259 29.0421C288.9 29.8626 289.994 31.7772 290.336 32.6319C290.678 33.9994 291.156 37.6576 290.336 41.35C289.515 45.0424 286.575 47.333 285.208 48.0168L278.541 45.4526H272.9C270.438 45.4526 268.113 48.5296 267.259 50.0681C268.284 50.5809 270.336 52.222 270.336 54.6835C270.336 57.1451 266.233 61.5213 264.182 63.4016H254.951L250.335 65.9658V68.0171H252.387L255.976 65.9658H264.182C264.353 66.6496 264.9 68.3248 265.72 69.5556C266.541 70.7864 266.062 73.1454 265.72 74.171L268.284 77.248C269.31 77.0771 272.797 76.8378 278.541 77.248C284.285 77.6583 288.114 79.8122 289.31 80.8378V89.5559L284.182 88.5303L281.105 103.915L278.028 108.531L278.541 119.813L275.977 123.915H271.361L270.336 124.941L271.361 132.634L267.259 138.275H261.618L262.643 140.839L258.541 137.762C252.728 137.078 240.489 135.3 238.027 133.659C235.566 132.018 234.95 128.189 234.95 126.48L232.386 123.915H228.796V121.864L230.335 120.839V117.249L231.361 116.736L229.309 114.685L225.207 121.351H223.155L221.617 119.813L218.027 121.351L217.514 126.992L219.053 130.582L214.437 133.659L210.847 129.557L207.258 132.121L210.847 136.736V139.3L207.77 139.813L209.822 143.403C211.463 143.403 213.924 145.454 214.95 146.48C215.463 147.164 216.386 149.147 215.976 151.608C215.463 154.685 211.873 155.711 209.822 155.198C208.181 154.788 202.3 151.608 199.565 150.07L194.95 149.557V153.147L199.052 158.788L209.822 162.891V168.532L214.437 173.66L214.95 179.301L212.899 183.404H210.847L207.77 185.455V187.506L209.822 188.019V190.07L201.104 201.353V206.481L195.975 212.122L194.95 223.404L182.642 233.661L178.539 232.635L174.949 225.456V222.379L177.514 219.815L176.488 217.25L173.411 219.815L171.872 218.276L173.411 213.661V212.122L170.847 211.609L168.795 214.686L162.641 209.558L164.18 206.994L162.641 205.455L158.026 213.148C160.419 215.199 165.513 220.122 166.744 223.404C167.975 226.686 166.231 230.926 165.206 232.635L163.154 233.661L159.052 237.764V239.302L161.103 241.353C161.445 242.55 161.924 245.661 161.103 248.533C160.282 251.405 155.633 252.123 153.411 252.123C153.24 252.977 152.59 255.302 151.359 257.764C150.128 260.225 144.351 262.208 141.615 262.892L137 267.508L139.564 269.559L141.615 266.995H143.667L147.257 269.559V274.174L150.334 275.2V271.61L152.898 272.636V280.328H155.462V271.61C155.804 271.097 157.103 269.969 159.564 269.559C162.641 269.046 164.693 274.174 165.206 277.764C165.616 280.636 165.035 286.14 164.693 288.534L161.103 291.098L162.129 292.636L165.206 290.585L166.744 292.123L163.154 294.688H156.488C153.752 295.713 148.077 297.765 147.257 297.765C146.436 297.765 141.103 296.739 138.538 296.226L137.513 297.765L145.718 301.354L148.795 308.021V311.611L151.359 315.201L158.026 316.739V321.355C162.3 325.115 171.462 333.56 173.924 337.252C177.001 341.868 175.462 351.099 173.924 353.663C172.693 355.714 171.36 350.073 170.847 346.996L169.308 351.099C170.847 353.834 173.924 360.022 173.924 362.894C173.924 365.766 174.949 373.321 175.462 376.74V391.099L169.308 400.843V405.459L175.462 415.715L173.924 420.331L181.103 429.049C180.761 431.442 179.77 437.357 178.539 441.87C177.001 447.511 177.001 449.562 182.642 452.639C187.155 455.101 187.599 459.135 187.257 460.844C188.112 461.186 190.54 462.588 193.411 465.46C196.283 468.332 196.317 474.178 195.975 476.742L204.181 497.768V501.871L211.36 505.46C212.215 506.828 215.771 512.23 223.155 522.897C230.54 533.563 235.463 547.512 237.002 553.154L241.617 556.23C242.814 558.111 245.515 562.384 246.746 564.436C248.284 567 249.31 567 254.951 568.538C260.592 570.077 267.259 577.769 272.9 582.385C277.413 586.077 277.515 591.787 277.003 594.18L272.9 595.718V602.385L277.003 607.001V612.642L270.849 615.206V620.334L274.438 625.975V632.129C276.148 632.471 279.977 633.668 281.618 635.719C283.669 638.283 285.208 639.822 286.746 637.77C287.977 636.129 290.336 637.77 291.362 638.796V645.463H293.413V639.822L295.977 634.181L306.234 630.591L308.798 637.77L306.234 638.796L310.336 652.642L303.67 654.694L292.387 650.078L291.362 652.13L303.67 656.745L320.08 652.13L324.183 649.053L331.362 661.36L343.157 663.412L350.337 662.899L357.004 659.822L358.542 660.335L345.209 667.002L329.311 663.925L324.183 655.719H321.106L297.003 661.873C297.003 663.925 297.413 669.668 299.054 676.233C301.105 684.438 301.105 684.951 303.67 686.489C305.721 687.72 305.55 691.788 305.208 693.669C306.063 692.985 308.49 692.028 311.362 693.669C314.952 695.72 315.978 694.694 317.003 693.669C318.029 692.643 321.106 694.182 323.157 698.284C324.798 701.566 329.653 720.507 331.875 729.567L330.849 738.285L323.157 742.387L315.978 748.541C316.49 750.935 318.234 756.336 321.106 758.798C324.696 761.875 326.747 768.542 325.208 770.08C323.67 771.619 322.644 776.747 325.208 778.286C327.26 779.516 329.824 782.217 330.849 783.414V791.106H334.439L339.567 796.235C340.422 797.089 342.132 798.286 342.132 796.235C342.132 793.67 347.26 788.029 350.85 785.465C354.44 782.901 359.055 787.004 361.619 783.414C363.67 780.542 368.286 776.405 370.337 774.696C371.534 775.38 374.748 777.055 378.03 778.286C381.312 779.516 384.867 779.482 386.235 779.311C387.055 776.85 389.996 774.183 391.363 773.157L400.594 768.542L405.722 764.439C406.577 763.755 408.902 762.388 411.364 762.388C414.441 762.388 417.518 765.978 423.159 765.978C427.672 765.978 438.031 767.687 442.646 768.542L460.595 767.516L461.621 762.388L468.288 755.721C467.946 753.328 467.467 746.798 468.288 739.823C469.108 732.849 477.177 728.37 481.108 727.003L485.724 720.849C489.656 721.874 497.929 724.233 499.57 725.464C501.622 727.003 506.237 727.003 510.852 725.464C514.545 724.233 520.596 724.951 523.16 725.464C524.801 730.387 531.708 731.618 534.955 731.618L542.648 738.285L550.34 735.208C554.785 737.259 564.7 742.08 568.802 744.952C572.905 747.823 575.982 747.516 577.007 747.003L586.238 744.952L591.367 739.823L598.546 737.259H604.187C606.239 735.721 611.162 731.516 614.444 727.003C617.726 722.49 618.205 713.156 618.034 709.054L621.111 707.002C619.572 705.122 616.085 700.028 614.444 694.694C612.803 689.361 609.658 682.216 608.29 679.31C606.752 677.771 602.854 674.591 599.572 674.181C595.469 673.668 593.418 674.181 591.367 671.104L591.365 671.102C589.314 668.025 586.238 663.411 583.674 658.796C581.11 654.181 574.956 643.411 571.879 639.822C569.418 636.95 569.486 629.394 569.828 625.975L561.623 612.642C563.332 610.761 567.776 606.59 571.879 604.949C577.007 602.898 580.084 599.821 580.597 596.744C581.008 594.282 579.401 594.009 578.546 594.18L566.751 596.744L561.623 595.718V586.487L559.571 582.385L565.212 577.769L562.648 575.718L564.187 574.692L571.879 578.795L574.956 575.718C572.734 574.18 567.469 570.59 564.187 568.538C560.084 565.974 558.033 560.846 557.52 555.205C557.007 549.564 555.981 544.435 554.956 540.846C554.135 537.974 555.298 526.315 555.981 520.845C556.665 520.161 558.34 518.281 559.571 516.23C560.802 514.178 562.135 512.298 562.648 511.614L559.571 510.076C556.699 511.717 552.904 509.392 551.366 508.025V503.409L540.597 501.871L537.52 497.768L533.417 496.229V485.46L529.827 481.87V473.152L531.878 469.05L529.827 465.46C530.34 460.844 531.776 448.844 533.417 437.767C535.058 426.69 540.597 419.134 543.161 416.741L544.699 414.69L540.597 410.074V401.356C540.767 399.818 538.853 396.125 529.827 393.664C518.545 390.587 515.981 388.023 511.365 383.92C507.673 380.638 504.015 379.817 502.647 379.817C499.228 376.74 491.262 369.458 486.749 364.945C482.237 360.432 477.006 359.304 474.954 359.304C474.442 357.253 469.826 351.099 464.185 346.996C458.544 342.894 454.441 344.432 451.364 334.175C448.287 323.919 453.928 319.816 454.441 316.739C454.954 313.662 449.826 310.072 447.262 308.021C444.697 305.97 447.774 300.329 448.8 295.2C449.826 290.072 458.031 276.739 459.57 271.097C461.108 265.456 458.031 260.841 455.467 257.764C452.903 254.687 458.031 252.636 458.031 251.61C458.031 250.584 457.005 228.02 455.467 222.379C453.928 216.738 460.595 209.558 461.621 207.507C462.441 205.866 465.04 205.113 466.236 204.942L471.877 199.814H475.98C476.835 198.959 478.852 195.814 480.083 190.07C481.621 182.891 479.57 178.788 478.544 176.224C477.519 173.66 482.134 169.557 482.134 164.429C482.134 159.301 483.673 153.66 485.211 143.403C486.749 133.146 493.929 123.403 495.98 120.326C498.032 117.249 498.032 113.146 495.98 110.582C493.929 108.018 492.903 106.479 491.878 101.864C490.852 97.2484 487.262 97.2484 483.673 95.7099C480.801 94.4791 473.929 94.5133 470.852 94.6842C470.852 93.4534 469.826 90.0688 469.313 88.5303C469.313 90.0688 465.211 92.1201 462.647 91.6072C460.082 91.0944 459.57 88.0174 458.031 85.9661C456.8 84.3251 458.202 83.231 459.057 82.8891L459.57 81.8635C458.715 80.6669 456.698 78.0686 455.467 77.248C453.928 76.2224 451.364 77.248 448.287 75.1967C445.21 73.1454 444.185 73.1454 441.108 73.1454C438.031 73.1454 438.031 69.5556 437.518 69.0428C437.005 68.5299 430.338 69.5556 426.748 68.0171C423.159 66.4786 426.236 62.376 422.133 58.7862C418.03 55.1964 416.492 50.5809 414.953 53.1451C413.415 55.7092 405.722 58.7862 402.133 58.7862C399.261 58.7862 395.808 60.1537 394.44 60.8375C392.902 58.7862 390.85 56.7349 383.671 56.222C376.491 55.7092 373.927 61.8631 367.773 59.8118C361.619 57.7605 363.67 50.5809 362.132 46.4783C360.593 42.3756 355.978 41.8628 353.414 38.7858Z" stroke="#333757" stroke-width="1.5" stroke-linejoin="round"/>
<path d="M255.976 36.2215L259.053 34.1702C256.592 34.1702 252.216 31.7771 250.335 30.5806L248.797 32.6319L250.848 38.2728L253.412 39.8113L255.464 39.2985L255.976 36.2215Z" stroke="#333757" stroke-width="1.5" stroke-linejoin="round"/>
<path d="M236.489 54.6835C237.002 53.1452 234.438 51.6064 233.412 51.6064C233.07 51.7773 231.976 52.4269 230.335 53.6577C228.284 55.1962 227.771 55.1962 225.719 53.6577C224.078 52.4269 222.642 52.1192 222.13 52.1192L219.053 54.6835V56.2218L221.617 58.786C221.959 59.8116 223.053 62.4784 224.694 64.9399C226.745 68.0169 229.822 65.9658 233.412 68.0171C236.284 69.6581 238.711 71.7777 239.566 72.6324H241.617L243.668 69.5556C243.668 68.5299 243.258 66.2733 241.617 65.4528C239.976 64.6322 238.198 61.3501 237.515 59.8116L235.463 59.2988L234.95 57.2475C235.292 56.9056 236.079 55.9142 236.489 54.6835Z" stroke="#333757" stroke-width="1.5" stroke-linejoin="round"/>
<path d="M202.642 53.6577C203.873 53.6577 205.206 54.3416 205.719 54.6835L207.258 53.6577C207.258 52.9739 206.95 51.2987 205.719 50.0681C204.181 48.5298 202.129 49.5551 201.104 50.0681C200.078 50.5811 201.104 53.6577 202.642 53.6577Z" stroke="#333757" stroke-width="1.5" stroke-linejoin="round"/>
<path d="M283.895 94.3934C286.501 94.3934 289.012 95.1764 291.635 95.0384C292.802 94.9769 293.478 94.0195 294.537 93.7843C295.97 93.4658 297.535 95.7955 298.371 96.615C303.264 101.414 303.514 99.9348 308.726 97.6182C309.489 97.2791 310.302 96.6365 311.127 96.4716C313.181 96.0608 314.665 98.1915 316.466 98.1915C317.375 98.1915 317.838 97.0128 318.866 96.9733C319.89 96.9339 320.923 96.9733 321.948 96.9733C323.133 96.9733 327.677 97.6088 327.752 96.3283C327.871 94.3207 327.428 92.1473 327.788 90.1653C328.124 88.318 330.7 87.1506 332.267 86.3672C334.789 85.1063 335.633 89.1081 338.573 87.2988C340.997 85.8076 344.199 86.0089 348.958 87.0089C351.622 87.0089 352.526 89.1725 354.333 90.592C358.094 93.5475 358.724 97.2063 365.082 95.2501C370.846 93.4765 376.163 99.9733 381.701 99.9733C386.432 99.9733 391.71 99.588 394.6 104.13C395.279 105.196 396.623 106.926 396.929 107.999C397.135 108.718 397.29 108.159 398.972 109.504C400.818 110.982 407.957 110.479 408.539 112.514C409.058 114.33 410.004 116.038 411.119 117.71C412.183 119.307 416.829 123.66 417 125.799C417.121 127.311 418.297 133.64 421.5 133.18C424.437 132.625 430.34 133.926 433.218 133.18C434.688 132.799 435.389 132.249 436.944 132.249C442.245 132.249 447.033 131.669 449.726 127.089C451.29 124.431 455.115 125.799 456.759 125.799C460.981 125.799 464.742 124.498 465.671 120.317C466.43 116.901 470.682 115.116 473.802 113.903C476.332 112.919 477.5 115 483.5 115C492 115 489 112.514 496.5 113.903" stroke="#333757" stroke-width="1.5" stroke-linecap="round"/>
<path d="M272.258 130.776C273.371 131.023 275.333 133.974 276.128 134.968C277.408 136.568 279.539 136.745 281.324 137.548C283.709 138.621 284.156 138.255 284.871 140.809C285.265 142.216 285.31 143.949 286.734 144.356C289.768 145.223 291.607 147.533 291.607 150.447C291.607 153.948 293.835 152.116 296.337 153.708C297.825 154.655 296.191 158.664 296.839 160.122C297.549 161.719 300.637 162.027 300.637 163.991C300.637 166.629 299.869 168.184 302.894 168.184C305.505 168.184 304.886 178.221 305.796 180.725C307.276 184.792 312.828 191.402 317.477 191.402C320.143 191.402 322.726 192.047 325.396 192.047C326.365 192.047 327.865 191.762 328.692 192.406C330.82 194.061 331.723 195.272 334.497 195.272C339.2 195.272 339.594 195.974 343.419 199.034C346.373 201.398 348.964 204.105 351.875 206.487C354.2 208.389 356.568 209.685 359.687 210.465C363.031 211.301 362.068 211.842 364.345 214.119C366.916 216.691 365.676 213.916 367.999 212.686C370.381 211.425 371.983 209.635 374.596 209.088C377.189 207.791 377.189 206.494 379.783 205.198C381.927 205.174 387.703 207.647 389.641 208.673C391.648 209.735 391.533 212.187 394.156 212.041C396.485 211.912 398.779 211.251 401.251 211.396C402.928 211.495 403.739 214.448 405.121 214.621C407.118 214.871 409.632 215.969 411.928 215.123C413.632 214.495 416.204 222.342 417.375 223.65C419.478 226.001 419.491 225.514 422.391 226.374C424.281 226.933 426.832 226.458 428.339 227.807C430.034 229.323 433.469 236.434 435.434 236.55C438.111 236.707 440.241 237.693 442.672 238.628C445.637 239.769 446.258 242.444 448.333 244.289C450.241 245.986 454.851 244.888 456.718 243.644" stroke="#333757" stroke-width="1.5" stroke-linecap="round"/>
<path d="M162 242.126C164.669 242.126 167.824 244.381 170.134 244.026C172.629 243.642 173.927 241.88 176.046 243.918C177.305 245.129 177.712 246.828 179.092 247.931C179.8 248.498 179.043 250.444 180.561 249.078C181.595 248.147 182.96 248.827 184.251 248.54C186.435 248.055 187.787 246.218 189.59 248.576C190.68 250.002 191.369 252 192.707 253.127C196.534 256.349 198.003 252.814 202.31 253.772C204.854 254.337 206.728 258.034 208.151 259.863C210.475 262.851 210.685 263.294 214.206 262.12C215.344 261.741 216.943 260.817 217.968 260.185C220.179 258.825 220.276 259.228 222.877 260.472C225.451 261.703 224.207 261.257 225.565 259.899C226.562 258.901 228.401 259.767 228.933 260.83C230.238 263.442 231.596 264.28 234.737 265.488C239.083 267.16 241.5 267.526 245.988 266.133C247.191 265.76 248.42 266.124 249.464 266.743C252.16 268.34 254.716 269.34 257.634 270.469C259.386 271.147 260.042 271.991 261.468 272.941C263.541 274.324 268.226 273.997 270.712 274.769C273.522 275.641 276.437 277.289 279.383 277.599C283.173 277.998 283.483 283.923 286.621 284.049C289.973 284.183 292.777 284.323 296.045 285.303C298.204 285.951 297.948 287.055 299.377 288.564C301.873 291.199 305.953 291.284 308.908 293.078C315.065 296.816 318.781 302.043 324.208 306.264C326.365 307.942 330.37 307.159 332.915 307.913C335.448 308.663 338.019 309.216 340.547 309.848C343.313 310.539 345.428 311.897 348.072 313.072C349.844 313.86 351.462 313.717 353.41 313.717C356.606 313.717 360.112 315.817 363.443 316.261C366.765 316.704 370.783 315.105 373.942 314.362C376.728 313.707 377.644 312.801 379.496 315.294C380.939 317.237 382.066 319.048 381.61 321.421C380.922 324.997 382.65 326.859 383.258 330.2C383.825 333.318 383.033 337.459 386.59 338.369C388.866 338.951 392.457 340.728 394.151 342.421C394.805 343.076 396.766 346.597 396.766 346.255C396.766 338.882 405.82 339.806 410.955 339.806C412.915 339.806 413.539 339.929 414.503 338.193C415.126 337.071 415.431 334.244 416.258 333.499C417.987 331.944 427.952 336.848 430.519 337.19C433.614 337.336 434.032 336.294 434.884 335.793C437.358 334.337 439.303 332.014 441.477 330.275C443.857 328.371 446.814 326.796 450.292 326.796" stroke="#333757" stroke-width="1.5" stroke-linecap="round"/>
<path d="M396.476 344.546C396.476 347.46 395.823 349.112 394.541 351.354C393.634 352.942 391.503 353.105 390.385 354.543C389.482 355.705 389.869 359.03 390.349 360.276C390.977 361.91 386.72 361.983 386.802 364.827C386.838 366.11 388.418 369.287 387.948 370.345C387.173 372.089 385.642 373.509 384.867 375.361C383.861 377.764 382.159 379.032 380.639 380.987C379.959 381.861 378.688 382.907 377.808 383.567C376.479 384.563 376.915 385.906 376.16 387.114C375.357 388.398 372.854 395.498 372.29 395.498C370.8 395.498 371.366 399.634 370.319 400.981C368.699 403.063 366.958 402.972 366.808 405.818C366.706 407.76 364.789 409.688 362.938 409.688C359.351 409.688 355.828 408.57 352.654 406.785C351.438 406.101 348.489 404.354 347.817 403.202C347.256 402.239 347.061 401.303 345.775 401.303C343.591 401.303 339.673 403.099 337.928 401.16C335.509 398.472 334.736 399.82 331.98 398.58C325.423 395.629 318.76 390.934 315.712 384.534C315.28 383.627 314.642 380.364 313.563 380.055C311.574 379.487 308.894 380.103 306.862 379.983C303.763 379.801 301.312 378.361 298.442 377.404C297.073 376.947 296.136 375.261 294.859 374.895C292.442 374.205 286.069 372.756 284.109 374.716C281.804 377.021 279.437 378.877 276.656 380.664C274.576 382.002 271.465 381.23 269.096 381.345C266.404 381.476 263.904 382.232 261.285 382.635C258.137 383.119 255.373 385.388 252.076 386.075C249.172 386.68 249.516 379.24 248.421 377.834C247.807 377.043 242.373 376.795 241.363 376.795C239.908 376.795 239.672 377.335 238.46 377.941C236.827 378.758 234.462 377.898 232.656 378.586C230.316 379.477 227.771 373.686 225.418 374.358C220.921 375.643 219.799 376.859 215.887 374.25C212.594 372.056 210.989 370.281 208.505 367.12C207.713 366.112 203.676 364.34 202.342 364.54C196.5 365.417 196.267 369.7 192.815 369.7C190.451 369.7 188.507 368.254 185.863 368.41C183.049 368.576 179 369.7 174.863 368.886" stroke="#333757" stroke-width="1.5" stroke-linecap="round"/>
<path d="M363.5 409.5C365.216 410.408 368.457 413.462 369.419 415.174C370.04 416.276 370.394 417.612 371.82 417.718C373.009 417.806 374.823 418.167 374.901 419.652C375.006 421.637 374.087 425.003 375.869 426.389C376.721 427.051 377.612 429.042 378.485 429.291C379.972 429.716 381.662 429.674 383.214 430.115C386.009 430.909 391.823 430.9 394.107 432.695C395.508 433.796 396.587 436.515 397.475 438.07C398.455 439.785 398.369 442.538 399.553 444.018C400.761 445.527 403.156 446.39 404.068 448.031C407.808 454.763 409.843 459.675 416.681 464.155C417.822 464.903 418.696 464.889 420.013 464.477C422.21 463.791 423.242 464.96 424.922 466.448C427.475 468.71 429.376 470.297 431.371 472.862C432.749 474.633 432.371 477.044 433.091 479.204C433.787 481.29 437.888 480.063 439.541 480.422C444.431 481.485 449.261 482.004 454.124 482.93C455.213 483.138 462.87 483.761 463.154 484.471C463.406 485.101 463.877 486.711 464.193 487.66C464.858 489.657 466.365 491.759 466.486 493.823C466.544 494.812 469.214 494.773 469.998 495.149C471.846 496.036 472.276 496.811 472.936 498.625C473.674 500.655 473.698 502.567 473.581 504.787C473.541 505.543 472.509 506.36 472.577 507.009C472.823 509.345 477.04 512.762 478.597 514.319C483.262 518.984 489.486 521.982 494.219 526.716C496.872 529.369 498.86 530.547 502.819 531.267C503.415 531.375 505.424 539.379 506.187 540.905C507.298 543.127 507.349 545.834 508.552 548C509.058 548.912 511.219 548.964 512.099 549.362C514.289 550.351 519.933 550.829 521.272 552.837C522.781 555.101 523.888 554.836 523.888 558.033C523.888 561.382 522.702 567.738 526.611 569.284C529.282 570.34 532.377 569.999 535.175 570.609C538.014 571.229 542.218 571.006 544.813 572.186C548.625 573.919 549.586 572.881 553.5 574C555.467 574.562 556.432 578.093 558.373 575.397C560.063 573.05 561.141 573.46 562.432 575.397" stroke="#333757" stroke-width="1.5" stroke-linecap="round"/>
<path d="M366.5 412.5C364.003 412.777 361.5 413.5 356.778 418.876C355.343 420.235 352.888 420.836 351.761 422.244C351.099 423.072 351.207 427.401 351.009 428.586C350.666 430.642 351.636 433.426 350.615 435.323C348.726 438.831 349.542 444.233 346.667 447.176C344.763 449.125 342.443 450.451 340.719 452.479C338.872 454.652 337.615 458.989 336.813 461.795C336.688 462.233 324.019 463.887 322.696 464.053C319.56 464.445 319.375 463.563 317.823 466.669C315.946 470.422 312.46 472.711 310.549 476.343C309.563 478.216 309.761 480.873 309.761 483.008C309.761 487.687 316.038 484.668 311.409 490.138C309.353 492.567 309.116 493.928 309.116 497.018C309.116 499.776 307.715 501.701 307.826 504.578C307.872 505.772 316.592 511.084 318.145 512.318C320.134 513.897 321.695 516.151 323.95 517.477C326.093 518.738 325.24 521.912 325.24 524.07C325.24 526.606 324.951 529.775 326.028 532.168C326.583 533.401 328.069 534.637 328.357 535.93C328.5 536.573 326.565 536.281 326.207 536.36C325.186 536.587 324.012 537.434 323.197 538.044C319.725 540.648 317.529 544.098 313.487 545.497C309.612 546.839 307.937 550.906 307.826 554.742C307.69 559.42 305 558.224 305 563C305 565.518 303.233 566.696 304.5 569C305.177 570.23 305.929 570.095 305.929 571.797C305.929 573.5 305.5 577 304.5 575C304 574 302.217 572.873 301.5 571.797C300.783 570.722 296.748 571.863 295.571 571.797C292.742 571.64 290.777 573.6 288 573C285.956 572.558 285.454 572.487 283.5 571.797C281.894 571.23 280.579 571.797 279.5 571.797C277.364 571.797 278.113 573 275.828 573C274.443 573 272.385 573.926 271 573.926C267.667 573.926 266.548 572.892 263.446 573.926" stroke="#333757" stroke-width="1.5" stroke-linecap="round"/>
<path d="M313 486.999C317 486.5 317.629 492.377 318.184 494.871C319.054 498.787 323.853 500.494 327.386 502.081C329.337 502.957 330.109 505.471 331.722 506.882C334.143 509 335.414 511.794 337.634 514.12C339.069 515.623 340.392 517.52 340.751 519.495C341.196 521.943 344.079 523.319 345.087 525.586C346.206 528.105 345.033 531.694 346.198 534.257C347.342 536.776 348.691 537.901 350.892 539.775C353.21 541.75 353.055 548.788 353.579 551.671C354.154 554.832 353.012 557.972 354.905 560.915C358.188 566.023 368.753 564.353 367.016 571.736C366.395 574.373 368.091 575.539 371.029 575.212C373.085 574.984 375.275 571.872 376.045 575.105C376.76 578.108 376.833 580.82 376.833 583.919C376.833 587.321 374.689 586.078 372.283 585.245C368.166 583.82 370.622 586.82 369.237 589.437C368.19 591.416 369.455 590.358 371.28 590.763C373.434 591.242 373.456 593.046 374.755 594.453C376.577 596.428 374.712 597.533 374.289 599.434C373.384 603.51 378.768 601.434 378.768 605.239C378.768 607.929 373.229 609.735 371.029 611.079C369.546 611.985 368.421 616.455 367.159 616.526C365.119 616.639 363.04 616.526 360.996 616.526C355.603 616.526 366.565 630.967 368.091 633.187C369.842 635.735 372.319 635.928 372.319 639.422C372.319 643.915 369.99 647.338 376.188 644.402C381.327 641.968 391.018 643.708 396.684 643.614C397.722 643.597 400.904 641.958 401.664 642.718C402.944 643.998 403.65 648.721 405.498 648.774C409.614 647.891 413.55 646.386 417.645 646.164C419.379 646.071 420.323 646.203 421.3 647.669C421.859 648.508 422.122 647.184 422.626 646.917C424.502 645.923 428.502 646.555 430.652 646.164C433.15 645.71 435.705 646.084 437.818 644.194C440.315 641.96 441.823 643.102 439.431 646.093C438.023 647.852 439.041 650.441 437.961 651.79C436.939 653.068 445.117 655.002 446.382 655.445C450.273 656.807 439.721 656.153 438.535 655.946C435.848 655.479 429.834 653.733 427.929 656.591C427.092 657.846 430.051 660.91 430.724 661.966C432.042 664.038 432.027 666.116 432.623 668.38C432.802 669.06 433.475 673.377 433.59 670.494C433.705 667.617 436.711 673.786 437.137 674.543C437.972 676.027 437.772 679.804 438.893 680.813C439.86 681.683 444.119 680.957 445.486 680.957C452.133 680.957 449.663 688.547 450.613 692.823C451.006 694.59 450.649 696.884 450.649 698.664C450.649 702.345 454.392 700.932 457.421 700.563C460.113 700.235 462.78 699.24 465.483 699.24C467.487 699.24 467.532 697.324 469.356 696.661C472.774 695.418 476.193 694.546 478.529 698.595C479.387 700.082 479.653 703.45 481.61 704.009C486.418 705.383 487.057 707.973 487.057 712.465C487.057 714.662 483.449 721 485.5 721" stroke="#333757" stroke-width="1.5" stroke-linecap="round"/>
<path d="M440.5 643C442.585 642.621 443.75 639.757 445.168 638.102C445.971 637.165 446.578 635.367 447.282 634.662C448.745 633.199 452.412 631.939 454.484 631.939C456.475 631.939 459.255 634.741 461.041 633.767C462.913 632.746 462.389 629.432 464.839 629.359C467.553 629.28 468.156 628.06 468.781 625.382C470.108 619.694 470.44 613.854 471.647 608.219C472.421 604.608 480.533 606.553 481.931 604.457C483.959 601.415 483.832 596.584 483.901 593.098C483.946 590.878 483.812 586.953 485.586 585.18C487.383 583.382 491.553 583.49 493.791 583.245C498.97 582.676 504.375 582.614 509.449 581.346C512.287 580.636 513.417 578.002 515.29 576.043C518.363 572.826 518.826 572.708 520 568.5C520.747 565.823 520.171 564.212 520.5 561.499C520.953 557.758 521.406 557.796 524 556.5" stroke="#333757" stroke-width="1.5" stroke-linecap="round"/>
</svg>
