<svg width="250" height="267" viewBox="0 0 250 267" fill="none" xmlns="http://www.w3.org/2000/svg">
<mask id="path-1-inside-1_908_21502" fill="white">
<path d="M131.657 179.721C133.133 181.607 134.335 183.835 134.397 186.229C134.53 191.23 129.98 194.872 127.087 198.95C124.212 203.006 122.854 207.915 121.546 212.715C117.838 226.325 114.13 239.936 110.422 253.547C109.687 256.242 108.952 259.003 108.656 261.775C111.086 262.224 113.483 263.537 115.644 264.722C116.937 265.431 118.16 266.102 119.211 266.498C124.064 268.334 129.41 264.666 131.483 263.005C131.955 262.626 132.425 262.233 132.9 261.837C135.843 259.381 139.17 256.603 143.49 256.603C143.572 256.603 143.655 256.603 143.74 256.606C146.315 256.671 148.31 257.398 150.073 258.039C151.531 258.571 152.907 259.074 154.578 259.21C157.123 259.414 160.58 258.35 161.976 256.931C163.801 255.075 164.745 253.742 166.021 251.224C169.761 243.84 174.88 233.729 184.614 231.223C191.965 229.331 197.418 231.598 203.192 233.998C205.146 234.811 207.172 235.653 209.365 236.377C213.498 237.743 221.354 238.429 225.818 238.189C231.929 237.861 237.733 237.202 241.594 232.81C245.547 228.312 246.318 221.434 243.348 217.154C243.197 216.935 243.038 216.723 242.876 216.507C242.208 215.611 241.456 214.597 241.081 213.25C239.935 209.13 242.949 206.174 245.37 203.798C246.12 203.062 246.832 202.364 247.393 201.681C249.979 198.528 250.088 193.784 249.97 188.789C249.822 182.588 249.672 176.174 247.46 170.452C246.306 167.47 246.95 164.352 247.516 161.6C247.821 160.122 248.107 158.73 248.119 157.465C248.145 154.424 246.991 150.771 244.387 149.934C243.643 149.695 242.722 149.662 241.745 149.63C241.134 149.609 240.505 149.588 239.85 149.518C233.479 148.829 228.383 143.243 228.726 137.32C228.941 133.536 231.111 130.495 233.027 127.811C233.759 126.786 234.45 125.816 235.035 124.829C237.544 120.582 238.19 115.223 236.77 110.497C236.192 108.57 235.371 107.181 234.332 106.368C232.812 105.177 230.55 104.947 228.159 104.701C227.415 104.625 226.641 104.545 225.877 104.435C215.624 102.958 207.467 95.6542 201.503 89.4533C201.22 89.1607 200.939 88.8651 200.656 88.5696C197.55 85.3184 194.616 82.2475 190.872 80.7372C188.776 79.8918 186.456 79.5579 184 79.2062C182.946 79.0554 181.853 78.8988 180.77 78.6978C175.639 77.7461 172.102 75.8308 169.959 72.8368C169.631 72.3786 169.36 71.9264 169.097 71.489C168.778 70.957 168.474 70.4545 168.149 70.0881C167.01 68.8112 163.263 68.2348 159.789 68.7609C159.919 69.1068 160.01 69.4614 160.031 69.8191C160.119 71.1787 159.358 72.4437 158.531 73.5254C153.905 79.5579 146.052 82.948 138.494 82.1736C136.121 81.9312 133.75 81.2869 131.754 79.9776C130.001 78.8278 128.551 77.1816 126.606 76.4042C124.643 75.621 122.449 75.8308 120.344 75.6387C115.63 75.2131 110.741 71.9826 110.271 67.2654C110.168 66.2132 110.283 65.1374 110.059 64.1029C109.389 61.0054 106.02 59.3237 104.402 56.5986C103.032 54.2902 103.032 51.4499 103.074 48.7662C103.153 43.5229 103.233 38.2766 103.313 33.0334C103.372 29.1408 103.496 25.0206 105.586 21.7369C106.903 19.668 108.922 18.0749 109.991 15.87C110.457 14.9094 110.714 13.7361 110.218 12.7902C109.944 12.2641 109.468 11.8711 108.975 11.54C107.803 10.7509 106.366 10.2159 104.981 10.4967C102.976 10.9046 101.636 12.8553 99.723 13.5853C97.3849 14.4779 94.5478 12.9322 93.7035 10.6445C93.2488 9.412 92.6141 8.24748 91.7255 7.27804C87.6367 2.82391 82.1131 -0.71991 76.2766 0.125399C72.2291 0.710613 68.6009 3.2495 64.7777 4.5618C65.5247 10.3489 65.6516 18.7252 65.3446 23.3389C64.8958 30.06 59.7737 31.656 55.251 33.0629C53.5121 33.6038 51.7142 34.1653 50.0137 34.9988C48.0062 35.986 46.2202 36.8963 44.6909 38.0638C43.699 38.8205 42.7779 39.7131 41.8007 40.6589C41.1099 41.3298 40.3925 42.0214 39.6279 42.6835C35.9051 45.914 31.5152 48.0332 27.2699 50.0844C25.7171 50.8351 24.1081 51.6124 22.5877 52.4193C15.1098 56.3917 8.29608 61.9394 2.88764 68.4625C1.47353 70.1679 0.463884 71.622 0.130285 73.1796C-0.439491 75.8308 0.956897 78.686 2.43005 81.7096C2.61309 82.082 2.79317 82.4514 2.96735 82.8179C5.0339 87.139 6.53362 91.6848 7.98611 96.0857C8.90424 98.867 9.94342 102.021 9.99656 105.334C10.094 111.284 7.25986 116.293 4.10986 120.612C5.72471 121.436 7.28938 122.332 8.83043 123.218C11.6085 124.814 14.23 126.322 17.0376 127.365C18.0886 127.755 19.1691 128.08 20.3116 128.426C22.3693 129.047 24.4949 129.691 26.5289 130.752C30.479 132.815 33.5847 136.415 35.2734 140.881C36.962 145.347 37.0152 150.103 35.418 154.27C34.7331 156.058 33.8061 157.666 32.9116 159.221C32.3832 160.137 31.8872 161 31.4444 161.884C28.318 168.129 28.0169 175.722 30.6355 182.198C32.9854 188.006 39.5216 194.112 46.1316 196.793C48.2395 194.47 49.8927 191.641 50.985 188.73C51.484 187.403 51.9386 185.949 53.0693 185.097C55.1388 183.54 58.1589 184.837 60.6446 184.113C63.3695 183.318 64.8574 180.315 67.3875 179.024C69.2297 178.081 71.4084 178.155 73.472 178.288C80.1204 178.719 86.9193 179.559 93.3463 177.806C98.8521 176.304 103.759 172.973 109.33 171.732C117.469 169.92 126.511 173.16 131.657 179.724V179.721Z"/>
</mask>
<path d="M131.657 179.721C133.133 181.607 134.335 183.835 134.397 186.229C134.53 191.23 129.98 194.872 127.087 198.95C124.212 203.006 122.854 207.915 121.546 212.715C117.838 226.325 114.13 239.936 110.422 253.547C109.687 256.242 108.952 259.003 108.656 261.775C111.086 262.224 113.483 263.537 115.644 264.722C116.937 265.431 118.16 266.102 119.211 266.498C124.064 268.334 129.41 264.666 131.483 263.005C131.955 262.626 132.425 262.233 132.9 261.837C135.843 259.381 139.17 256.603 143.49 256.603C143.572 256.603 143.655 256.603 143.74 256.606C146.315 256.671 148.31 257.398 150.073 258.039C151.531 258.571 152.907 259.074 154.578 259.21C157.123 259.414 160.58 258.35 161.976 256.931C163.801 255.075 164.745 253.742 166.021 251.224C169.761 243.84 174.88 233.729 184.614 231.223C191.965 229.331 197.418 231.598 203.192 233.998C205.146 234.811 207.172 235.653 209.365 236.377C213.498 237.743 221.354 238.429 225.818 238.189C231.929 237.861 237.733 237.202 241.594 232.81C245.547 228.312 246.318 221.434 243.348 217.154C243.197 216.935 243.038 216.723 242.876 216.507C242.208 215.611 241.456 214.597 241.081 213.25C239.935 209.13 242.949 206.174 245.37 203.798C246.12 203.062 246.832 202.364 247.393 201.681C249.979 198.528 250.088 193.784 249.97 188.789C249.822 182.588 249.672 176.174 247.46 170.452C246.306 167.47 246.95 164.352 247.516 161.6C247.821 160.122 248.107 158.73 248.119 157.465C248.145 154.424 246.991 150.771 244.387 149.934C243.643 149.695 242.722 149.662 241.745 149.63C241.134 149.609 240.505 149.588 239.85 149.518C233.479 148.829 228.383 143.243 228.726 137.32C228.941 133.536 231.111 130.495 233.027 127.811C233.759 126.786 234.45 125.816 235.035 124.829C237.544 120.582 238.19 115.223 236.77 110.497C236.192 108.57 235.371 107.181 234.332 106.368C232.812 105.177 230.55 104.947 228.159 104.701C227.415 104.625 226.641 104.545 225.877 104.435C215.624 102.958 207.467 95.6542 201.503 89.4533C201.22 89.1607 200.939 88.8651 200.656 88.5696C197.55 85.3184 194.616 82.2475 190.872 80.7372C188.776 79.8918 186.456 79.5579 184 79.2062C182.946 79.0554 181.853 78.8988 180.77 78.6978C175.639 77.7461 172.102 75.8308 169.959 72.8368C169.631 72.3786 169.36 71.9264 169.097 71.489C168.778 70.957 168.474 70.4545 168.149 70.0881C167.01 68.8112 163.263 68.2348 159.789 68.7609C159.919 69.1068 160.01 69.4614 160.031 69.8191C160.119 71.1787 159.358 72.4437 158.531 73.5254C153.905 79.5579 146.052 82.948 138.494 82.1736C136.121 81.9312 133.75 81.2869 131.754 79.9776C130.001 78.8278 128.551 77.1816 126.606 76.4042C124.643 75.621 122.449 75.8308 120.344 75.6387C115.63 75.2131 110.741 71.9826 110.271 67.2654C110.168 66.2132 110.283 65.1374 110.059 64.1029C109.389 61.0054 106.02 59.3237 104.402 56.5986C103.032 54.2902 103.032 51.4499 103.074 48.7662C103.153 43.5229 103.233 38.2766 103.313 33.0334C103.372 29.1408 103.496 25.0206 105.586 21.7369C106.903 19.668 108.922 18.0749 109.991 15.87C110.457 14.9094 110.714 13.7361 110.218 12.7902C109.944 12.2641 109.468 11.8711 108.975 11.54C107.803 10.7509 106.366 10.2159 104.981 10.4967C102.976 10.9046 101.636 12.8553 99.723 13.5853C97.3849 14.4779 94.5478 12.9322 93.7035 10.6445C93.2488 9.412 92.6141 8.24748 91.7255 7.27804C87.6367 2.82391 82.1131 -0.71991 76.2766 0.125399C72.2291 0.710613 68.6009 3.2495 64.7777 4.5618C65.5247 10.3489 65.6516 18.7252 65.3446 23.3389C64.8958 30.06 59.7737 31.656 55.251 33.0629C53.5121 33.6038 51.7142 34.1653 50.0137 34.9988C48.0062 35.986 46.2202 36.8963 44.6909 38.0638C43.699 38.8205 42.7779 39.7131 41.8007 40.6589C41.1099 41.3298 40.3925 42.0214 39.6279 42.6835C35.9051 45.914 31.5152 48.0332 27.2699 50.0844C25.7171 50.8351 24.1081 51.6124 22.5877 52.4193C15.1098 56.3917 8.29608 61.9394 2.88764 68.4625C1.47353 70.1679 0.463884 71.622 0.130285 73.1796C-0.439491 75.8308 0.956897 78.686 2.43005 81.7096C2.61309 82.082 2.79317 82.4514 2.96735 82.8179C5.0339 87.139 6.53362 91.6848 7.98611 96.0857C8.90424 98.867 9.94342 102.021 9.99656 105.334C10.094 111.284 7.25986 116.293 4.10986 120.612C5.72471 121.436 7.28938 122.332 8.83043 123.218C11.6085 124.814 14.23 126.322 17.0376 127.365C18.0886 127.755 19.1691 128.08 20.3116 128.426C22.3693 129.047 24.4949 129.691 26.5289 130.752C30.479 132.815 33.5847 136.415 35.2734 140.881C36.962 145.347 37.0152 150.103 35.418 154.27C34.7331 156.058 33.8061 157.666 32.9116 159.221C32.3832 160.137 31.8872 161 31.4444 161.884C28.318 168.129 28.0169 175.722 30.6355 182.198C32.9854 188.006 39.5216 194.112 46.1316 196.793C48.2395 194.47 49.8927 191.641 50.985 188.73C51.484 187.403 51.9386 185.949 53.0693 185.097C55.1388 183.54 58.1589 184.837 60.6446 184.113C63.3695 183.318 64.8574 180.315 67.3875 179.024C69.2297 178.081 71.4084 178.155 73.472 178.288C80.1204 178.719 86.9193 179.559 93.3463 177.806C98.8521 176.304 103.759 172.973 109.33 171.732C117.469 169.92 126.511 173.16 131.657 179.724V179.721Z" fill="#23254B" stroke="#666FBD" stroke-width="2" mask="url(#path-1-inside-1_908_21502)"/>
<path d="M91.8241 177.366L91.3251 176.367L92.3232 175.867L92.5985 175.52C92.2831 175.48 91.6288 175.189 91.5341 174.338C91.4159 173.275 92.0072 172.92 91.6524 170.675C91.2976 168.43 90.9424 166.421 91.2974 165.24C91.6524 164.058 94.1356 162.049 94.7269 160.513C95.3182 158.977 94.8452 158.386 94.0174 157.559C93.1895 156.732 92.953 156.023 93.0713 154.723C93.1895 153.423 92.9529 153.542 92.1252 152.951C91.2974 152.36 91.8886 151.769 92.1252 151.533C92.3617 151.296 92.5982 151.06 92.3617 150.351C92.1251 149.642 92.3617 149.17 93.0713 149.051C93.7808 148.933 98.1565 149.17 98.6296 148.815C99.1026 148.461 100.522 146.452 100.522 145.861C100.522 145.27 100.167 143.97 100.995 143.734C101.823 143.498 103.242 142.789 103.124 142.434C103.005 142.08 102.651 139.835 101.941 139.48C101.231 139.126 99.1026 138.062 98.6296 137.353C98.1565 136.644 97.92 135.935 96.1461 135.226C94.3721 134.518 93.6626 134.163 92.1252 132.981C90.5877 131.8 89.6416 130.5 89.4051 129.909C89.1686 129.318 88.9321 128.846 88.2225 128.019C87.5129 127.191 87.2764 126.483 86.4485 126.246C85.6207 126.01 83.965 124.946 83.0189 124.946C82.262 124.946 79.5499 124.946 78.2884 124.946C77.8942 125.301 76.8929 126.128 76.0414 126.601C74.9771 127.191 73.9127 127.546 72.8483 128.491C71.784 129.437 71.0744 130.027 70.6013 130.5C70.1283 130.539 68.922 130.405 67.8813 129.555C66.5804 128.491 64.8065 128.019 63.7421 128.019C63.7027 127.664 63.4583 126.861 62.796 126.483C61.9682 126.01 62.6777 125.419 61.2586 124.592C59.8394 123.765 59.6029 123.292 59.2481 122.583C58.8933 121.874 58.1838 121.283 57.2377 120.929C56.2915 120.574 56.1733 119.393 55.7002 118.802C55.3218 118.329 54.6753 117.266 54.3993 116.793C54.3205 116.714 54.0919 116.581 53.808 116.675C53.4532 116.793 53.2167 117.502 52.6254 117.502C52.0341 117.502 52.0341 117.856 51.6793 118.329C51.3245 118.802 50.7332 119.511 49.6688 119.983C48.6045 120.456 48.2497 121.756 47.6584 122.347C47.1853 122.819 46.3575 123.489 46.0027 123.765C46.0815 124.001 46.0973 124.544 45.5296 124.828C44.8201 125.183 42.4548 126.837 41.9818 127.073C41.5087 127.309 41.8635 127.783 40.7991 128.019C39.7348 128.255 39.1435 128.373 38.7887 128.964C38.4339 129.555 35.7138 134.163 35.1225 134.281C34.5312 134.399 33.8216 134.281 33.2303 134.517C33.1309 134.506 32.9369 134.517 32.9369 134.517" stroke="#5F67B0" stroke-width="1.2" stroke-linejoin="round"/>
<path d="M134.371 81.7971L135.74 83.9367L134.371 85.0065H133.306L131.668 89.215H130.755L129.234 89.9792L127.713 88.1453L127.256 91.5074L124.135 95.6454C123.78 95.4926 121.73 97.0597 120.27 97.4265C118.809 97.7933 114.722 98.6752 114.722 98.5224L113.809 99.745L111.831 100.662L113.809 109.22L111.831 109.984C112.744 109.781 114.691 109.434 115.178 109.679C115.33 110.392 115.726 111.879 116.091 112.124C116.04 113.856 115.786 117.626 115.178 118.848L116.547 121.446C116.294 122.007 116.06 123.372 117.156 124.35C118.251 125.328 118.322 126.184 118.221 126.489L115.178 130.31L111.831 131.227V133.061C111.476 133.468 110.644 134.467 110.158 135.2C109.549 136.117 107.571 141.008 105.898 142.842C105.598 142.634 104.875 142.26 104.377 142.426C103.753 142.634 103.338 142.634 103.13 142.426M54.1195 116.645C53.3893 115.422 52.7527 114.467 52.0428 113.041V109.22L54.0205 107.845C54.4262 106.724 55.4201 104.146 56.1504 102.801C57.0632 101.12 57.8238 98.5224 59.193 97.9111C60.5622 97.2998 61.475 96.3828 61.7793 95.1602C62.0836 93.9376 62.54 93.9376 63.6049 94.3961C64.6698 94.8546 68.9295 93.7848 71.2115 93.3263C73.4935 92.8679 76.384 92.715 77.6011 93.0207L77.9054 92.5622C78.3618 92.766 79.3354 92.929 79.5788 91.9509C79.8223 90.9728 79.6803 90.6264 79.5788 90.5755L81.1002 89.3529C81.303 88.5888 81.5261 86.9383 80.7959 86.4492C81.0495 86.602 81.6174 86.602 81.8608 85.3794C82.1651 83.8512 82.4694 82.7814 83.5343 82.7814C84.5992 82.7814 85.2078 82.7814 85.6642 82.1701C86.1206 81.5588 88.0983 81.7116 88.4025 81.7116C88.7068 81.7116 89.0111 83.2402 90.5324 81.7116C92.0537 80.1831 94.0315 77.8908 95.0964 77.4323L95.8571 75.1399L100.725 72.6947V71.3193L103.616 72.0834L104.224 71.3193H106.582L108.792 70.9465L110.289 69.9473" stroke="#5F67B0" stroke-width="1.2" stroke-linejoin="round"/>
<path d="M108.792 62.9091L106.297 63.4174L101.541 62.9091H100.204C100.315 63.3044 100.304 64.1289 99.368 64.2644C98.1981 64.4338 97.0283 65.1114 96.1927 64.942L92.3489 66.8055L87.5023 67.3138L86.6667 67.9914H85.664L82.1544 64.942V63.4174L80.9846 61.8927H79.9818C79.759 61.215 79.0794 59.8936 78.1435 60.0292C76.9737 60.1986 76.4723 60.0288 75.8038 59.0123C75.1353 57.9958 73.7983 57.4876 71.2915 56.9794C68.7847 56.4712 64.9409 57.4876 62.2669 56.4712C59.593 55.4547 54.2451 54.2688 50.4013 50.8807L49.2314 48.8478L47.0588 46.8148L47.7273 45.4596C48.2844 45.3466 49.4988 44.8497 49.8999 43.7655C50.301 42.6813 50.4013 41.5067 50.4013 41.0549L49.8999 40.5467L50.4013 39.8691C50.5127 38.8526 50.4347 36.6503 49.2314 35.9727" stroke="#5F67B0" stroke-width="1.2" stroke-linejoin="round"/>
<path d="M120.145 171.371L120.769 169.872L120.145 167.643H119.521C120.041 167.404 120.894 166.71 120.145 165.85C119.396 164.989 118.897 164.773 118.741 164.773C119.157 164.833 119.895 164.666 119.521 163.518C119.147 162.37 119.365 161.724 119.521 161.545C118.949 161.186 117.806 160.254 117.806 159.393C117.806 158.532 118.222 157.121 118.429 156.523C117.702 156.045 116.246 154.945 116.246 154.371C116.246 153.654 117.806 152.578 117.806 151.681C117.806 150.784 116.558 150.784 116.558 149.887C116.558 148.991 115.778 148.811 115.778 147.556C115.778 146.3 116.87 146.121 116.558 144.865C116.246 143.61 115.622 142.893 117.026 142.893C118.149 142.893 120.509 142.893 121.549 142.893C121.912 143.49 122.765 144.507 123.264 143.789C123.888 142.893 124.356 143.789 124.824 143.789C125.198 143.789 126.331 143.789 126.851 143.789C126.851 143.969 127.132 144.327 128.254 144.327C129.658 144.327 129.814 143.431 131.529 143.431C132.902 143.431 133.973 143.431 134.337 143.431C134.7 143.73 135.74 144.435 136.988 144.865C138.235 145.296 139.691 146.001 140.263 146.3C140.211 146.719 140.387 147.556 141.51 147.556C142.633 147.556 143.954 147.077 144.473 146.838C144.681 147.496 145.253 148.775 145.877 148.632C146.501 148.488 146.865 148.811 146.969 148.991C146.761 148.871 146.407 148.883 146.657 149.887C146.906 150.892 148.112 151.741 148.684 152.04C148.684 152.458 149.027 153.259 150.4 153.116C152.115 152.936 153.675 154.371 155.078 155.985C156.482 157.599 156.638 157.779 157.729 157.599C158.821 157.42 158.041 158.676 159.289 158.137C160.536 157.599 164.279 157.061 166.151 156.523C168.022 155.985 168.178 157.779 170.049 158.137C171.921 158.496 173.012 159.214 176.132 158.137C179.251 157.061 180.03 155.447 181.122 155.268C182.214 155.088 183.929 155.268 185.333 154.192C186.736 153.116 188.764 152.398 191.259 152.757C193.754 153.116 194.846 154.192 196.405 153.654C197.965 153.116 198.9 152.936 199.368 152.04C199.836 151.143 200.46 152.398 201.24 152.04C202.019 151.681 203.735 152.219 205.762 151.501C207.79 150.784 209.349 150.425 210.129 150.963C210.909 151.501 211.688 152.04 212.468 151.501C213.248 150.963 213.56 152.04 214.34 151.501C215.119 150.963 217.771 150.605 219.018 149.708C220.016 148.991 221.098 147.496 221.513 146.838H223.541C224.113 147.436 225.412 148.632 226.036 148.632C226.816 148.632 227.627 147.389 228.562 147.389C229.498 147.389 229.623 148.67 230.559 149.388C231.494 150.105 233.822 148.811 234.758 148.632" stroke="#5F67B0" stroke-width="1.2" stroke-linejoin="round"/>
<path d="M115.798 146.166C114.691 146.166 112.31 146.041 111.645 145.542C110.98 145.043 110.399 145.334 110.191 145.542L108.945 144.711H108.115L106.038 142.84" stroke="#5F67B0" stroke-width="1.2" stroke-linejoin="round"/>
<path d="M142.022 82.9375L141.729 83.74L142.022 85.456L144.123 88.5609L145.282 93.2838L142.553 95.533L147.516 99.5315H148.012C148.177 100.156 148.682 101.631 149.376 102.53H148.384C148.384 103.114 148.384 104.405 148.384 104.905C148.384 105.529 149.625 106.404 149.004 108.403C148.508 110.003 149.376 110.819 149.873 111.027C149.873 111.319 149.947 111.952 150.245 112.152C150.617 112.402 151.486 113.276 151.61 113.901C151.709 114.401 152.313 115.276 152.602 115.651C152.809 115.567 153.297 115.251 153.595 114.651C153.967 113.901 154.091 113.651 154.959 113.651C155.828 113.651 158.557 113.901 159.053 113.651C159.55 113.401 160.79 113.152 161.163 113.651C161.535 114.151 161.783 114.901 161.163 115.401C160.666 115.801 160.459 116.15 160.418 116.275L162.651 119.149V122.273C163.023 122.315 163.892 122.473 164.388 122.773C165.008 123.148 165.257 123.523 165.629 123.148C166.001 122.773 166.993 122.648 167.49 123.023C167.887 123.323 169.806 124.897 170.715 125.647H171.956C173.238 126.147 175.876 127.271 176.174 127.771C176.546 128.396 177.415 129.895 177.787 130.02C178.159 130.145 178.531 130.145 178.904 130.77C179.276 131.395 179.896 132.02 180.392 132.02C180.889 132.02 184.238 131.395 185.231 131.27C186.223 131.145 186.347 130.895 186.844 131.27C187.34 131.645 190.442 133.394 192.675 133.894C193.667 134.019 195.751 134.194 196.148 133.894C196.645 133.519 197.141 132.894 198.009 133.394C198.878 133.894 199.374 134.144 199.746 133.894C200.118 133.644 200.367 133.519 201.235 133.894C202.103 134.269 202.972 134.519 203.716 134.269C204.461 134.019 204.957 134.019 205.949 134.519C206.942 135.019 209.299 136.643 210.912 136.893C212.525 137.143 215.998 136.768 217.115 137.018C218.232 137.268 220.465 137.767 220.837 138.767C221.209 139.767 220.465 141.516 221.085 143.39C221.581 144.89 222.284 146.348 222.574 146.889" stroke="#5F67B0" stroke-width="1.2" stroke-linejoin="round"/>
</svg>
