<svg width="708" height="822" viewBox="0 0 708 822" fill="none" xmlns="http://www.w3.org/2000/svg">
<path d="M575.901 96.8732C578.805 96.8732 578.321 94.9404 580.741 94.9404C582.191 94.9404 582.193 95.9068 582.677 96.8732C583.064 97.6462 584.452 97.8395 585.097 97.8395C585.258 98.4838 585.678 100.062 586.065 101.222C586.549 102.671 588 104.121 588 105.57C588 107.02 587.516 108.469 587.033 109.919L587.033 109.919C586.549 111.369 586.065 111.369 584.613 111.852C583.161 112.335 584.129 112.335 585.097 113.784C586.065 115.234 585.097 116.2 584.129 116.684C583.161 117.167 581.709 118.133 580.741 119.099C579.967 119.873 578.483 119.744 577.838 119.583C578.322 119.744 579.096 120.259 578.322 121.032C577.354 121.999 578.806 122.482 579.774 123.448C580.741 124.414 583.161 124.898 583.161 125.864C583.161 126.83 583.161 128.28 582.193 128.763C581.225 129.246 580.741 129.729 581.225 130.696C581.709 131.662 583.161 131.662 582.193 132.629C581.225 133.595 580.741 134.078 580.258 135.528C579.774 136.977 581.709 137.46 583.161 138.91C584.613 140.359 583.161 140.843 583.645 141.809C584.129 142.775 585.097 143.258 583.645 144.708C582.193 146.158 582.677 147.607 582.677 149.54C582.677 151.473 579.774 152.922 577.838 154.855C575.902 156.788 574.45 155.821 572.515 156.304C570.579 156.788 570.095 157.271 569.127 156.788C568.159 156.304 567.191 156.304 566.707 157.271C566.224 158.237 565.256 158.237 564.772 157.271C564.288 156.304 563.804 156.304 562.836 155.821C561.868 155.338 563.32 154.855 563.804 153.888C564.288 152.922 563.804 151.956 562.836 150.989C561.868 150.023 562.352 149.057 561.868 147.607C561.384 146.158 562.836 145.191 561.868 143.742C560.9 142.292 562.836 141.326 564.288 140.843C565.74 140.359 564.772 139.393 566.224 137.944C567.675 136.494 568.159 135.528 567.191 134.561C566.224 133.595 565.74 134.561 566.224 132.629C566.707 130.696 566.224 130.213 565.74 129.246C565.256 128.28 564.772 127.797 564.288 126.347C563.804 124.898 563.32 125.381 561.868 125.381C560.416 125.381 560.416 123.448 559.449 122.482C558.481 121.515 558.481 120.549 559.449 119.099C560.416 117.65 561.868 117.65 562.352 116.684C562.836 115.717 562.836 115.717 564.772 115.717C566.707 115.717 565.74 114.751 566.707 113.784C567.675 112.818 566.707 111.852 568.643 111.369C570.579 110.885 570.095 110.885 571.547 109.919C572.999 108.953 572.03 108.953 572.515 107.986C573 107.02 573.966 106.537 573.966 106.054C573.966 105.667 572.675 104.282 572.03 103.638L573.483 103.155L572.03 101.705C572.191 101.705 572.417 101.222 572.03 99.2891C571.546 96.8732 572.998 96.8732 575.901 96.8732Z" fill="#1A203A" stroke="#333757" stroke-width="1.5" stroke-linejoin="round"/>
<path d="M548.802 119.1C548.802 118.327 548.156 117.812 547.834 117.651H544.446C543.478 117.651 543.478 119.1 542.51 119.584C541.542 120.067 542.51 120.55 542.994 121.516C543.478 122.483 543.962 122.483 543.962 122C543.962 121.516 544.93 120.55 544.93 121.516C544.93 122.483 545.898 122.483 546.382 122.966C546.866 123.449 548.318 122.966 548.802 122.483C549.286 122 548.802 120.067 548.802 119.1Z" fill="#1A203A" stroke="#333757" stroke-width="1.5" stroke-linejoin="round"/>
<path d="M509.602 231.198C508.151 231.198 506.699 231.681 505.247 232.164C501.86 233.132 501.376 235.545 499.924 236.994C498.472 238.444 497.504 238.444 496.052 237.961C494.601 237.477 494.601 238.927 494.601 240.377C494.601 241.826 492.665 240.86 492.181 241.343C491.697 241.826 488.793 242.792 486.858 242.309C484.922 241.826 481.051 242.792 480.083 243.276C479.115 243.759 478.147 245.692 478.147 247.624C478.147 249.557 479.599 249.557 481.534 251.007C483.47 252.456 489.761 251.49 492.181 251.973C494.601 252.456 496.052 252.939 498.472 252.939C500.892 252.939 501.376 251.49 502.827 250.523C504.279 249.557 512.506 250.523 514.442 250.523C516.377 250.523 515.894 252.939 516.861 253.422C517.829 253.906 520.733 252.939 521.701 251.973C522.669 251.007 523.636 251.49 524.12 251.007C524.507 250.62 524.604 249.235 524.604 248.591C523.636 248.591 523.152 247.141 521.217 247.624C519.281 248.107 519.281 248.107 519.281 245.692C519.281 243.276 518.313 244.242 516.861 242.792C515.41 241.343 515.894 239.41 514.926 237.961C513.958 236.511 514.926 233.614 513.958 232.164C512.99 230.715 511.054 231.198 509.602 231.198Z" fill="#1A203A" stroke="#333757" stroke-width="1.5" stroke-linejoin="round"/>
<path d="M428.303 409.975C426.851 408.525 423.463 409.008 422.495 410.458C422.495 410.619 422.399 411.328 422.012 412.874C421.529 414.807 420.076 416.257 419.108 416.257C418.141 416.257 416.689 417.706 417.657 417.706C418.624 417.706 419.592 418.673 419.592 421.089C419.592 423.504 419.108 425.92 419.592 428.336C420.076 430.752 421.044 432.685 423.947 434.618C426.851 436.55 428.787 436.55 430.238 437.517C431.69 438.483 430.722 441.382 432.658 441.382C434.594 441.382 433.626 439.933 436.046 439.933C438.465 439.933 437.981 439.933 439.917 438.483C441.853 437.033 440.885 436.067 441.853 435.101C442.821 434.134 444.272 435.584 445.724 435.101C447.176 434.618 445.24 432.202 446.208 431.235C447.176 430.269 449.596 431.235 449.112 429.786C448.628 428.336 447.66 429.303 447.176 428.336C446.692 427.37 446.208 426.404 444.272 426.404C442.337 426.404 441.853 426.887 441.369 425.437C440.885 423.988 441.853 423.988 440.401 423.021C438.949 422.055 438.465 420.605 437.013 417.706C435.562 414.807 436.046 412.874 434.594 412.874C433.142 412.874 429.754 411.424 428.303 409.975Z" fill="#1A203A" stroke="#333757" stroke-width="1.5" stroke-linejoin="round"/>
<path d="M479.117 624.022C475.245 624.022 470.406 625.472 469.922 625.472C469.922 625.956 470.406 627.116 472.342 627.889C474.761 628.855 475.729 626.923 476.697 628.855C477.665 630.788 479.117 631.271 483.956 631.755C488.795 632.238 486.859 629.339 488.311 626.923C489.763 624.507 493.151 624.022 495.086 625.472C496.635 626.632 502.507 625.955 505.249 625.472C505.571 624.667 506.701 622.767 508.636 621.608C511.056 620.158 509.604 617.741 512.508 620.158C515.345 622.521 516.797 621.65 519.12 620.256L519.283 620.158C521.702 618.709 520.735 623.057 521.702 621.608C522.67 620.158 525.574 619.192 525.09 617.741C524.606 616.29 522.67 617.741 520.735 616.776C518.799 615.811 522.67 615.81 521.702 613.392C520.735 610.975 518.799 610.011 518.315 612.427C517.831 614.843 514.443 615.326 513.96 613.392C513.476 611.458 512.024 610.495 509.604 611.461C507.185 612.427 507.668 609.044 506.217 609.044C504.765 609.044 502.829 607.594 499.442 609.044C496.054 610.493 494.602 612.909 491.699 613.392C488.795 613.876 485.408 613.392 485.408 617.741C485.408 622.09 482.988 624.022 479.117 624.022Z" fill="#1A203A"/>
<path d="M473.309 650.599L472.342 652.531C472.342 653.015 472.535 654.174 473.309 654.947C474.084 655.72 473.632 657.202 473.309 657.846C474.439 658.168 477.181 659.586 479.117 662.678C481.536 666.544 485.408 666.06 485.408 665.577C485.408 665.094 485.408 661.712 483.956 660.745C482.504 659.779 483.956 657.846 486.376 659.779C488.795 661.712 490.247 660.262 488.311 657.846C486.376 655.43 485.408 653.981 483.956 654.947C482.504 655.914 482.504 655.43 480.568 653.981C478.633 652.531 479.117 652.531 476.697 652.531C474.761 652.531 473.632 651.243 473.309 650.599Z" fill="#1A203A"/>
<path d="M465.567 624.022C465.728 624.989 465.663 626.923 464.115 626.923C462.179 626.923 460.243 627.406 459.759 628.855C459.276 630.305 456.372 633.687 459.759 634.654C462.469 635.427 463.792 635.62 464.115 635.62V641.418C464.115 644.317 465.567 644.8 465.567 647.216C465.567 649.052 463.529 648.127 462.357 647.34C463.801 648.376 465.747 650.676 463.146 652.531C460.437 654.464 458.791 654.303 458.307 653.981C457.706 653.022 456.713 651.188 456.404 649.835C456.306 650.711 455.926 651.777 454.92 652.531C453.371 653.691 452.016 651.726 451.532 650.599C451.693 651.726 451.726 654.464 450.564 656.397C449.112 658.813 451.048 659.779 448.628 660.745C446.693 661.519 444.596 660.423 443.789 659.779C444.273 659.135 444.757 657.556 442.821 656.397C440.886 655.237 438.789 654.303 437.982 653.981C437.014 654.303 434.788 655.527 433.627 657.846C432.175 660.745 433.143 661.229 429.755 662.678C426.368 664.128 425.4 665.094 423.464 660.745C421.916 657.267 420.561 655.43 420.077 654.947C419.915 654.464 419.496 653.304 419.109 652.531C418.625 651.565 420.077 650.115 420.077 646.25C420.077 642.385 417.656 639.485 417.173 639.002L415.237 637.07C413.624 636.586 410.204 636.296 409.43 639.002C409.591 639.808 410.204 641.418 411.365 641.418C410.398 641.901 409.043 643.544 411.365 646.25C413.688 648.956 415.559 649.632 416.205 649.632L415.237 650.599C414.43 650.438 412.72 650.405 412.333 651.565C411.849 653.015 412.333 654.947 408.462 656.397C404.59 657.846 402.171 655.43 400.235 653.981C398.299 652.531 391.524 652.531 390.556 652.531C389.589 652.531 389.589 652.048 390.556 649.632C391.524 647.216 392.976 643.351 395.396 642.868C397.815 642.385 397.331 640.935 395.396 639.002C393.46 637.07 393.46 635.62 394.428 631.755L394.428 631.753C395.396 627.888 396.364 624.022 398.299 624.022C399.848 624.022 403.461 620.802 405.074 619.192L406.526 621.125L401.203 625.472L405.074 626.923L406.526 627.889L409.43 625.472L410.398 626.923L407.494 629.822C408.139 631.11 409.623 633.494 410.398 632.721C411.172 631.948 413.946 630.466 415.237 629.822C415.882 629.177 416.979 627.404 416.205 625.472C415.237 623.057 414.269 622.575 414.269 620.158C414.269 617.741 412.333 617.26 411.365 615.326C410.398 613.392 409.43 612.912 411.849 610.978C414.269 609.044 415.237 608.079 418.14 608.079C421.044 608.079 420.077 610.978 423.464 610.978C426.851 610.978 426.851 608.562 428.303 610.011C429.755 611.461 433.627 613.877 433.627 615.326C433.627 616.776 435.078 613.394 437.014 614.36C438.949 615.326 439.917 616.29 441.853 617.741C443.789 619.192 441.37 621.608 443.789 621.608C446.208 621.608 451.533 623.541 450.564 620.158C449.79 617.452 450.241 615.165 450.564 614.36L443.789 612.427L444.757 610.978L449.596 611.461C449.918 610.978 450.854 610.108 452.016 610.495C453.467 610.978 454.435 612.425 456.371 613.392C458.307 614.36 455.403 614.845 455.887 616.293C456.274 617.451 458.63 617.741 459.759 617.741C459.275 618.708 458.79 620.738 460.726 621.125C462.662 621.511 464.76 623.218 465.567 624.022Z" fill="#1A203A"/>
<path d="M436.53 690.219C435.077 688.77 435.562 685.871 436.53 683.938H439.917C441.853 683.938 442.821 686.354 444.757 688.287C446.692 690.219 444.757 691.669 442.821 692.152C440.886 692.635 437.982 691.669 436.53 690.219Z" fill="#1A203A"/>
<path d="M446.208 694.568C444.272 694.955 443.789 695.695 443.789 696.018C443.467 696.34 443.015 697.371 443.789 698.917C444.757 700.849 446.208 702.782 447.66 704.232C449.112 705.681 451.532 707.614 452.983 710.03C454.435 712.446 459.759 712.446 460.726 714.378C461.693 716.311 462.178 716.794 465.567 716.794C468.955 716.794 466.049 712.929 467.985 713.412C469.921 713.895 468.953 716.794 471.373 716.794C473.308 716.794 472.179 714.54 471.373 713.412C472.341 714.056 474.567 715.635 475.728 716.794C477.18 718.244 480.568 718.244 480.568 716.794C480.568 715.345 480.568 714.378 482.503 715.345C484.051 716.118 485.084 715.023 485.408 714.378C485.73 713.895 486.182 712.349 485.408 710.03C484.44 707.131 479.117 706.164 476.697 705.198C474.277 704.232 475.728 703.265 478.148 701.816C480.567 700.366 479.117 698.917 478.148 698.917C477.373 698.917 474.599 696.984 473.309 696.018L468.953 697.95C468.63 698.434 467.985 699.883 467.985 701.816C467.985 703.748 466.373 700.688 465.567 698.917C464.76 699.078 462.662 699.303 460.726 698.917C458.306 698.434 461.21 701.333 458.307 700.366C455.984 699.593 453.79 697.145 452.983 696.018C451.532 695.373 448.144 694.182 446.208 694.568Z" fill="#1A203A"/>
<path d="M456.855 725.975C455.693 724.815 453.79 725.492 452.983 725.975V727.908C452.983 729.84 454.435 730.323 454.435 735.155C454.435 739.987 455.887 742.403 457.823 742.886C459.758 743.369 461.694 745.302 463.146 743.369C464.598 741.437 462.662 740.47 460.726 738.538C458.79 736.605 459.758 733.706 458.307 732.256C456.855 730.807 458.307 727.424 456.855 725.975Z" fill="#1A203A"/>
<path d="M481.535 759.797C480.567 759.797 476.696 758.348 475.728 759.797C475.567 759.959 475.341 760.474 475.728 761.247C476.212 762.213 478.148 763.18 479.599 764.629C481.051 766.079 477.664 766.562 476.212 766.562C474.76 766.562 474.76 767.528 473.792 769.461C472.824 771.394 474.76 771.877 476.212 774.293C477.664 776.709 480.083 779.125 482.019 779.608C483.955 780.091 485.407 779.125 488.794 782.024C492.182 784.923 493.15 784.44 494.601 785.406C496.053 786.372 496.537 785.406 498.473 785.406C500.408 785.406 502.828 788.305 504.28 789.755C505.732 791.204 505.732 792.654 507.183 791.687C508.345 790.914 511.861 790.721 513.475 790.721C513.313 790.56 513.087 789.658 513.475 787.339C513.958 784.44 513.475 785.406 511.055 783.473C509.119 781.927 507.667 779.93 507.183 779.125C506.216 779.125 503.99 778.931 502.828 778.158C501.376 777.192 502.828 776.709 504.28 776.709C505.732 776.709 508.151 776.226 508.151 774.776C508.151 773.327 506.216 772.843 504.28 771.877C502.344 770.911 500.892 769.461 498.473 768.495C496.053 767.528 494.601 769.461 492.182 769.461C489.762 769.461 490.246 771.394 488.794 771.877C487.342 772.36 486.858 768.495 483.955 766.562C481.051 764.629 482.987 765.596 482.987 763.663C482.987 761.73 482.503 759.797 481.535 759.797Z" fill="#1A203A"/>
<path d="M415.237 766.562C416.205 768.495 421.528 774.293 423.464 774.293C426.851 773.81 425.399 770.427 423.948 769.944C422.496 769.461 418.14 765.112 417.173 765.112C416.205 765.112 414.269 764.629 415.237 766.562Z" fill="#1A203A"/>
<path d="M417.173 756.898C416.205 760.764 414.269 762.697 412.817 763.663C412.495 763.663 411.656 763.566 410.881 763.18C409.914 762.697 409.43 761.247 407.978 759.797C406.526 758.348 405.558 753.516 403.139 753.999C400.719 754.482 401.203 752.067 399.267 751.1C397.331 750.134 397.331 748.684 395.88 749.167C394.428 749.651 394.912 752.55 393.944 752.067C392.976 751.583 392.976 754.966 391.524 756.898C390.072 758.831 392.976 757.865 392.976 762.697C392.976 767.528 392.008 767.528 391.524 769.461C391.04 771.394 391.04 772.843 389.589 774.293C388.137 775.742 387.653 776.226 386.685 777.675C385.717 779.125 383.297 779.125 380.878 779.125C378.458 779.125 377.974 778.641 376.522 776.709C375.071 774.776 373.619 773.327 372.167 772.36C370.715 771.394 370.231 770.911 369.263 769.461C368.296 768.012 367.813 766.562 365.877 766.079C363.941 765.596 364.424 762.697 365.877 761.247C367.039 760.087 367.974 758.509 368.296 757.865C367.328 757.865 365.877 757.865 364.908 755.932C363.939 753.999 362.005 751.583 360.069 750.134C358.133 748.684 358.617 745.302 359.585 742.886C360.359 740.953 361.521 739.182 362.005 738.538C360.071 738.538 361.521 734.189 363.457 731.773C365.393 729.357 365.877 725.975 367.813 724.525C369.748 723.076 366.844 723.559 365.877 723.076C364.91 722.593 363.94 719.21 365.877 716.794C367.813 714.378 364.908 715.345 363.94 714.378C362.972 713.412 366.36 711.479 366.844 710.513C367.328 709.547 368.296 709.063 369.263 710.03C370.038 710.803 368.941 712.607 368.296 713.412C368.779 713.734 369.844 714.378 370.231 714.378C370.715 714.378 372.167 715.828 373.619 715.345C375.071 714.862 375.071 713.412 373.619 712.446C372.167 711.479 373.619 709.063 373.619 707.131C373.619 705.198 376.038 703.265 377.006 701.816C377.974 700.366 377.006 700.366 375.071 698.917C373.135 697.467 373.135 696.984 372.651 695.051C372.167 693.119 373.619 690.219 376.038 688.77C378.458 687.32 381.362 688.287 383.297 688.287C385.233 688.287 386.201 684.904 387.653 683.938C389.105 682.972 394.428 682.972 395.88 682.972C397.331 682.972 397.815 682.489 399.267 684.904C400.719 687.32 401.687 685.388 404.59 686.354C407.494 687.32 407.494 688.287 409.43 692.152C411.365 696.018 410.398 696.984 409.43 697.95C408.462 698.917 408.462 700.366 411.365 700.366C414.269 700.366 415.237 700.366 416.689 703.265C418.14 706.164 422.012 710.996 423.464 712.446C424.915 713.895 424.915 718.244 423.464 719.21C422.012 720.177 423.464 723.076 423.948 725.008C424.431 726.941 424.915 729.84 423.464 729.84C422.302 729.84 421.689 732.095 421.528 733.223C421.689 733.545 422.302 734.382 423.464 735.155C424.915 736.122 423.948 737.571 423.464 738.538C422.98 739.504 423.464 741.437 423.948 743.369C424.431 745.302 422.496 746.752 422.012 747.235C421.528 747.718 419.592 748.684 418.14 748.684C416.689 748.684 417.173 749.167 418.14 750.617C419.108 752.067 418.14 753.033 417.173 756.898Z" fill="#1A203A"/>
<path d="M309.256 659.296C306.836 659.296 304.417 657.363 301.513 657.363H299.094C298.126 657.363 296.674 660.262 294.254 660.262C291.835 660.262 292.319 662.195 290.382 662.678C288.446 663.161 286.027 662.678 285.059 663.645C284.091 664.611 283.607 668.476 283.607 670.892C283.607 673.308 287.48 673.308 288.931 675.724C290.382 678.14 287.48 678.14 286.512 679.106C285.737 679.879 287.157 681.361 287.964 682.005C287.802 682.972 287.576 685.484 287.964 687.804C288.448 690.703 286.996 689.736 287.48 691.186C287.964 692.635 290.383 691.186 292.319 691.186C294.254 691.186 292.802 692.152 292.319 693.119C291.835 694.085 291.835 695.534 294.254 695.534C296.674 695.534 297.158 695.051 297.642 692.635C298.126 690.219 297.642 689.736 295.222 690.219C292.803 690.703 293.771 689.253 293.771 688.287C293.771 687.32 298.126 686.354 299.094 684.904C300.062 683.455 301.513 682.972 301.513 681.039C301.513 679.106 299.094 680.073 300.061 679.106C300.836 678.333 301.029 676.851 301.029 676.207L301.513 674.758C302.481 674.758 304.901 674.951 306.836 675.724C309.256 676.69 309.256 676.207 310.224 674.758C311.192 673.308 312.644 673.308 315.063 673.308C316.999 673.308 316.838 672.342 316.515 671.859V665.577C316.192 664.933 315.257 663.355 314.095 662.195C312.644 660.745 311.676 659.296 309.256 659.296Z" fill="#1A203A"/>
<path d="M299.094 643.834C298.32 644.607 296.513 644.156 295.706 643.834H290.382C286.511 643.834 280.22 644.8 275.381 643.834C270.542 642.868 272.961 641.901 271.025 640.452C269.09 639.002 268.606 640.452 267.154 639.002C265.702 637.553 264.25 638.519 262.799 639.485C261.347 640.452 260.863 637.07 258.443 637.07C256.023 637.07 256.507 632.721 256.507 631.755C256.507 630.788 258.443 629.822 260.863 628.855C263.282 627.889 260.379 626.923 262.315 625.956C264.25 624.99 264.734 626.923 265.702 627.889C266.67 628.855 271.509 628.855 272.961 629.822C274.413 630.788 275.381 630.788 278.284 631.755C281.188 632.721 279.252 633.687 282.156 634.654C285.059 635.62 288.931 635.62 290.382 637.07C291.834 638.519 295.706 639.969 297.158 640.452C298.609 640.935 300.061 642.868 299.094 643.834Z" fill="#1A203A"/>
<path d="M206.179 669.443C204.243 669.443 206.179 666.544 208.115 665.577C210.05 665.577 211.502 667.51 210.534 669.443C209.566 671.375 208.115 669.443 206.179 669.443Z" fill="#1A203A"/>
<path d="M203.275 651.082C201.339 652.531 199.888 651.082 197.952 649.632C197.629 649.149 196.984 647.603 196.984 645.284C196.984 642.385 198.436 642.868 199.888 639.485C201.339 636.103 203.275 637.07 205.695 636.586C208.114 636.103 207.63 631.755 209.566 630.788C211.502 629.822 212.954 628.855 215.373 627.889C217.793 626.923 217.309 624.99 221.664 624.99C226.02 624.99 225.052 624.024 226.02 623.541C226.988 623.057 229.891 622.091 228.439 623.541C226.988 624.99 227.472 624.99 229.891 625.956C232.311 626.923 231.827 627.889 230.375 629.339C229.214 630.498 231.504 630.788 232.795 630.788C233.117 631.11 233.956 632.141 234.73 633.687C235.698 635.62 232.795 634.654 230.859 637.07C229.31 639.002 228.601 640.774 228.439 641.418L225.052 642.385C224.891 642.062 224.181 641.418 222.632 641.418C220.696 641.418 221.18 643.834 220.696 641.418C220.213 639.002 219.245 639.002 218.761 639.485C218.277 639.969 217.793 641.901 215.373 641.418C212.954 640.935 214.889 643.351 213.438 643.834C211.986 644.317 212.954 645.767 213.438 646.25C213.921 646.733 215.373 647.7 215.373 649.149C215.373 650.599 213.921 651.082 211.986 651.082C210.05 651.082 211.986 648.183 210.534 647.7C209.082 647.216 205.211 649.632 203.275 651.082Z" fill="#1A203A"/>
<path d="M175.691 613.877C178.111 613.877 179.562 615.326 181.498 613.877C182.949 613.256 182.467 611.944 182.951 610.011C183.338 608.465 181.176 608.079 180.047 608.079C179.24 608.723 177.24 610.108 175.691 610.495C173.755 610.978 173.271 613.877 175.691 613.877Z" fill="#1A203A"/>
<path d="M187.306 593.583C186.338 594.55 186.338 595.999 188.274 597.449C189.242 597.449 190.984 597.352 190.21 596.964C189.242 596.48 191.177 595.033 190.21 593.583C189.242 592.134 188.274 592.617 187.306 593.583Z" fill="#1A203A"/>
<path d="M479.117 624.022C475.245 624.022 470.406 625.472 469.922 625.472C469.922 625.956 470.406 627.116 472.342 627.889C474.761 628.855 475.729 626.923 476.697 628.855C477.665 630.788 479.117 631.271 483.956 631.755C488.795 632.238 486.859 629.339 488.311 626.923C489.763 624.507 493.151 624.022 495.086 625.472C496.635 626.632 502.507 625.955 505.249 625.472C505.571 624.667 506.701 622.767 508.636 621.608C511.056 620.158 509.604 617.741 512.508 620.158C515.345 622.521 516.797 621.65 519.12 620.256L519.283 620.158C521.702 618.709 520.735 623.057 521.702 621.608C522.67 620.158 525.574 619.192 525.09 617.741C524.606 616.29 522.67 617.741 520.735 616.776C518.799 615.811 522.67 615.81 521.702 613.392C520.735 610.975 518.799 610.011 518.315 612.427C517.831 614.843 514.443 615.326 513.96 613.392C513.476 611.458 512.024 610.495 509.604 611.461C507.185 612.427 507.668 609.044 506.217 609.044C504.765 609.044 502.829 607.594 499.442 609.044C496.054 610.493 494.602 612.909 491.699 613.392C488.795 613.876 485.408 613.392 485.408 617.741C485.408 622.09 482.988 624.022 479.117 624.022Z" stroke="#333757" stroke-width="1.5" stroke-linejoin="round"/>
<path d="M473.309 650.599L472.342 652.531C472.342 653.015 472.535 654.174 473.309 654.947C474.084 655.72 473.632 657.202 473.309 657.846C474.439 658.168 477.181 659.586 479.117 662.678C481.536 666.544 485.408 666.06 485.408 665.577C485.408 665.094 485.408 661.712 483.956 660.745C482.504 659.779 483.956 657.846 486.376 659.779C488.795 661.712 490.247 660.262 488.311 657.846C486.376 655.43 485.408 653.981 483.956 654.947C482.504 655.914 482.504 655.43 480.568 653.981C478.633 652.531 479.117 652.531 476.697 652.531C474.761 652.531 473.632 651.243 473.309 650.599Z" stroke="#333757" stroke-width="1.5" stroke-linejoin="round"/>
<path d="M465.567 624.022C465.728 624.989 465.663 626.923 464.115 626.923C462.179 626.923 460.243 627.406 459.759 628.855C459.276 630.305 456.372 633.687 459.759 634.654C462.469 635.427 463.792 635.62 464.115 635.62V641.418C464.115 644.317 465.567 644.8 465.567 647.216C465.567 649.052 463.529 648.127 462.357 647.34C463.801 648.376 465.747 650.676 463.146 652.531C460.437 654.464 458.791 654.303 458.307 653.981C457.706 653.022 456.713 651.188 456.404 649.835C456.306 650.711 455.926 651.777 454.92 652.531C453.371 653.691 452.016 651.726 451.532 650.599C451.693 651.726 451.726 654.464 450.564 656.397C449.112 658.813 451.048 659.779 448.628 660.745C446.693 661.519 444.596 660.423 443.789 659.779C444.273 659.135 444.757 657.556 442.821 656.397C440.886 655.237 438.789 654.303 437.982 653.981C437.014 654.303 434.788 655.527 433.627 657.846C432.175 660.745 433.143 661.229 429.755 662.678C426.368 664.128 425.4 665.094 423.464 660.745C421.916 657.267 420.561 655.43 420.077 654.947C419.915 654.464 419.496 653.304 419.109 652.531C418.625 651.565 420.077 650.115 420.077 646.25C420.077 642.385 417.656 639.485 417.173 639.002L415.237 637.07C413.624 636.586 410.204 636.296 409.43 639.002C409.591 639.808 410.204 641.418 411.365 641.418C410.398 641.901 409.043 643.544 411.365 646.25C413.688 648.956 415.559 649.632 416.205 649.632L415.237 650.599C414.43 650.438 412.72 650.405 412.333 651.565C411.849 653.015 412.333 654.947 408.462 656.397C404.59 657.846 402.171 655.43 400.235 653.981C398.299 652.531 391.524 652.531 390.556 652.531C389.589 652.531 389.589 652.048 390.556 649.632C391.524 647.216 392.976 643.351 395.396 642.868C397.815 642.385 397.331 640.935 395.396 639.002C393.46 637.07 393.46 635.62 394.428 631.755L394.428 631.753C395.396 627.888 396.364 624.022 398.299 624.022C399.848 624.022 403.461 620.802 405.074 619.192L406.526 621.125L401.203 625.472L405.074 626.923L406.526 627.889L409.43 625.472L410.398 626.923L407.494 629.822C408.139 631.11 409.623 633.494 410.398 632.721C411.172 631.948 413.946 630.466 415.237 629.822C415.882 629.177 416.979 627.404 416.205 625.472C415.237 623.057 414.269 622.575 414.269 620.158C414.269 617.741 412.333 617.26 411.365 615.326C410.398 613.392 409.43 612.912 411.849 610.978C414.269 609.044 415.237 608.079 418.14 608.079C421.044 608.079 420.077 610.978 423.464 610.978C426.851 610.978 426.851 608.562 428.303 610.011C429.755 611.461 433.627 613.877 433.627 615.326C433.627 616.776 435.078 613.394 437.014 614.36C438.949 615.326 439.917 616.29 441.853 617.741C443.789 619.192 441.37 621.608 443.789 621.608C446.208 621.608 451.533 623.541 450.564 620.158C449.79 617.452 450.241 615.165 450.564 614.36L443.789 612.427L444.757 610.978L449.596 611.461C449.918 610.978 450.854 610.108 452.016 610.495C453.467 610.978 454.435 612.425 456.371 613.392C458.307 614.36 455.403 614.845 455.887 616.293C456.274 617.451 458.63 617.741 459.759 617.741C459.275 618.708 458.79 620.738 460.726 621.125C462.662 621.511 464.76 623.218 465.567 624.022Z" stroke="#333757" stroke-width="1.5" stroke-linejoin="round"/>
<path d="M436.53 690.219C435.077 688.77 435.562 685.871 436.53 683.938H439.917C441.853 683.938 442.821 686.354 444.757 688.287C446.692 690.219 444.757 691.669 442.821 692.152C440.886 692.635 437.982 691.669 436.53 690.219Z" stroke="#333757" stroke-width="1.5" stroke-linejoin="round"/>
<path d="M446.208 694.568C444.272 694.955 443.789 695.695 443.789 696.018C443.467 696.34 443.015 697.371 443.789 698.917C444.757 700.849 446.208 702.782 447.66 704.232C449.112 705.681 451.532 707.614 452.983 710.03C454.435 712.446 459.759 712.446 460.726 714.378C461.693 716.311 462.178 716.794 465.567 716.794C468.955 716.794 466.049 712.929 467.985 713.412C469.921 713.895 468.953 716.794 471.373 716.794C473.308 716.794 472.179 714.54 471.373 713.412C472.341 714.056 474.567 715.635 475.728 716.794C477.18 718.244 480.568 718.244 480.568 716.794C480.568 715.345 480.568 714.378 482.503 715.345C484.051 716.118 485.084 715.023 485.408 714.378C485.73 713.895 486.182 712.349 485.408 710.03C484.44 707.131 479.117 706.164 476.697 705.198C474.277 704.232 475.728 703.265 478.148 701.816C480.567 700.366 479.117 698.917 478.148 698.917C477.373 698.917 474.599 696.984 473.309 696.018L468.953 697.95C468.63 698.434 467.985 699.883 467.985 701.816C467.985 703.748 466.373 700.688 465.567 698.917C464.76 699.078 462.662 699.303 460.726 698.917C458.306 698.434 461.21 701.333 458.307 700.366C455.984 699.593 453.79 697.145 452.983 696.018C451.532 695.373 448.144 694.182 446.208 694.568Z" stroke="#333757" stroke-width="1.5" stroke-linejoin="round"/>
<path d="M456.855 725.975C455.693 724.815 453.79 725.492 452.983 725.975V727.908C452.983 729.84 454.435 730.323 454.435 735.155C454.435 739.987 455.887 742.403 457.823 742.886C459.758 743.369 461.694 745.302 463.146 743.369C464.598 741.437 462.662 740.47 460.726 738.538C458.79 736.605 459.758 733.706 458.307 732.256C456.855 730.807 458.307 727.424 456.855 725.975Z" stroke="#333757" stroke-width="1.5" stroke-linejoin="round"/>
<path d="M481.535 759.797C480.567 759.797 476.696 758.348 475.728 759.797C475.567 759.959 475.341 760.474 475.728 761.247C476.212 762.213 478.148 763.18 479.599 764.629C481.051 766.079 477.664 766.562 476.212 766.562C474.76 766.562 474.76 767.528 473.792 769.461C472.824 771.394 474.76 771.877 476.212 774.293C477.664 776.709 480.083 779.125 482.019 779.608C483.955 780.091 485.407 779.125 488.794 782.024C492.182 784.923 493.15 784.44 494.601 785.406C496.053 786.372 496.537 785.406 498.473 785.406C500.408 785.406 502.828 788.305 504.28 789.755C505.732 791.204 505.732 792.654 507.183 791.687C508.345 790.914 511.861 790.721 513.475 790.721C513.313 790.56 513.087 789.658 513.475 787.339C513.958 784.44 513.475 785.406 511.055 783.473C509.119 781.927 507.667 779.93 507.183 779.125C506.216 779.125 503.99 778.931 502.828 778.158C501.376 777.192 502.828 776.709 504.28 776.709C505.732 776.709 508.151 776.226 508.151 774.776C508.151 773.327 506.216 772.843 504.28 771.877C502.344 770.911 500.892 769.461 498.473 768.495C496.053 767.528 494.601 769.461 492.182 769.461C489.762 769.461 490.246 771.394 488.794 771.877C487.342 772.36 486.858 768.495 483.955 766.562C481.051 764.629 482.987 765.596 482.987 763.663C482.987 761.73 482.503 759.797 481.535 759.797Z" stroke="#333757" stroke-width="1.5" stroke-linejoin="round"/>
<path d="M415.237 766.562C416.205 768.495 421.528 774.293 423.464 774.293C426.851 773.81 425.399 770.427 423.948 769.944C422.496 769.461 418.14 765.112 417.173 765.112C416.205 765.112 414.269 764.629 415.237 766.562Z" stroke="#333757" stroke-width="1.5" stroke-linejoin="round"/>
<path d="M417.173 756.898C416.205 760.764 414.269 762.697 412.817 763.663C412.495 763.663 411.656 763.566 410.881 763.18C409.914 762.697 409.43 761.247 407.978 759.797C406.526 758.348 405.558 753.516 403.139 753.999C400.719 754.482 401.203 752.067 399.267 751.1C397.331 750.134 397.331 748.684 395.88 749.167C394.428 749.651 394.912 752.55 393.944 752.067C392.976 751.583 392.976 754.966 391.524 756.898C390.072 758.831 392.976 757.865 392.976 762.697C392.976 767.528 392.008 767.528 391.524 769.461C391.04 771.394 391.04 772.843 389.589 774.293C388.137 775.742 387.653 776.226 386.685 777.675C385.717 779.125 383.297 779.125 380.878 779.125C378.458 779.125 377.974 778.641 376.522 776.709C375.071 774.776 373.619 773.327 372.167 772.36C370.715 771.394 370.231 770.911 369.263 769.461C368.296 768.012 367.813 766.562 365.877 766.079C363.941 765.596 364.424 762.697 365.877 761.247C367.039 760.087 367.974 758.509 368.296 757.865C367.328 757.865 365.877 757.865 364.908 755.932C363.939 753.999 362.005 751.583 360.069 750.134C358.133 748.684 358.617 745.302 359.585 742.886C360.359 740.953 361.521 739.182 362.005 738.538C360.071 738.538 361.521 734.189 363.457 731.773C365.393 729.357 365.877 725.975 367.813 724.525C369.748 723.076 366.844 723.559 365.877 723.076C364.91 722.593 363.94 719.21 365.877 716.794C367.813 714.378 364.908 715.345 363.94 714.378C362.972 713.412 366.36 711.479 366.844 710.513C367.328 709.547 368.296 709.063 369.263 710.03C370.038 710.803 368.941 712.607 368.296 713.412C368.779 713.734 369.844 714.378 370.231 714.378C370.715 714.378 372.167 715.828 373.619 715.345C375.071 714.862 375.071 713.412 373.619 712.446C372.167 711.479 373.619 709.063 373.619 707.131C373.619 705.198 376.038 703.265 377.006 701.816C377.974 700.366 377.006 700.366 375.071 698.917C373.135 697.467 373.135 696.984 372.651 695.051C372.167 693.119 373.619 690.219 376.038 688.77C378.458 687.32 381.362 688.287 383.297 688.287C385.233 688.287 386.201 684.904 387.653 683.938C389.105 682.972 394.428 682.972 395.88 682.972C397.331 682.972 397.815 682.489 399.267 684.904C400.719 687.32 401.687 685.388 404.59 686.354C407.494 687.32 407.494 688.287 409.43 692.152C411.365 696.018 410.398 696.984 409.43 697.95C408.462 698.917 408.462 700.366 411.365 700.366C414.269 700.366 415.237 700.366 416.689 703.265C418.14 706.164 422.012 710.996 423.464 712.446C424.915 713.895 424.915 718.244 423.464 719.21C422.012 720.177 423.464 723.076 423.948 725.008C424.431 726.941 424.915 729.84 423.464 729.84C422.302 729.84 421.689 732.095 421.528 733.223C421.689 733.545 422.302 734.382 423.464 735.155C424.915 736.122 423.948 737.571 423.464 738.538C422.98 739.504 423.464 741.437 423.948 743.369C424.431 745.302 422.496 746.752 422.012 747.235C421.528 747.718 419.592 748.684 418.14 748.684C416.689 748.684 417.173 749.167 418.14 750.617C419.108 752.067 418.14 753.033 417.173 756.898Z" stroke="#333757" stroke-width="1.5" stroke-linejoin="round"/>
<path d="M309.256 659.296C306.836 659.296 304.417 657.363 301.513 657.363H299.094C298.126 657.363 296.674 660.262 294.254 660.262C291.835 660.262 292.319 662.195 290.382 662.678C288.446 663.161 286.027 662.678 285.059 663.645C284.091 664.611 283.607 668.476 283.607 670.892C283.607 673.308 287.48 673.308 288.931 675.724C290.382 678.14 287.48 678.14 286.512 679.106C285.737 679.879 287.157 681.361 287.964 682.005C287.802 682.972 287.576 685.484 287.964 687.804C288.448 690.703 286.996 689.736 287.48 691.186C287.964 692.635 290.383 691.186 292.319 691.186C294.254 691.186 292.802 692.152 292.319 693.119C291.835 694.085 291.835 695.534 294.254 695.534C296.674 695.534 297.158 695.051 297.642 692.635C298.126 690.219 297.642 689.736 295.222 690.219C292.803 690.703 293.771 689.253 293.771 688.287C293.771 687.32 298.126 686.354 299.094 684.904C300.062 683.455 301.513 682.972 301.513 681.039C301.513 679.106 299.094 680.073 300.061 679.106C300.836 678.333 301.029 676.851 301.029 676.207L301.513 674.758C302.481 674.758 304.901 674.951 306.836 675.724C309.256 676.69 309.256 676.207 310.224 674.758C311.192 673.308 312.644 673.308 315.063 673.308C316.999 673.308 316.838 672.342 316.515 671.859V665.577C316.192 664.933 315.257 663.355 314.095 662.195C312.644 660.745 311.676 659.296 309.256 659.296Z" stroke="#333757" stroke-width="1.5" stroke-linejoin="round"/>
<path d="M299.094 643.834C298.32 644.607 296.513 644.156 295.706 643.834H290.382C286.511 643.834 280.22 644.8 275.381 643.834C270.542 642.868 272.961 641.901 271.025 640.452C269.09 639.002 268.606 640.452 267.154 639.002C265.702 637.553 264.25 638.519 262.799 639.485C261.347 640.452 260.863 637.07 258.443 637.07C256.023 637.07 256.507 632.721 256.507 631.755C256.507 630.788 258.443 629.822 260.863 628.855C263.282 627.889 260.379 626.923 262.315 625.956C264.25 624.99 264.734 626.923 265.702 627.889C266.67 628.855 271.509 628.855 272.961 629.822C274.413 630.788 275.381 630.788 278.284 631.755C281.188 632.721 279.252 633.687 282.156 634.654C285.059 635.62 288.931 635.62 290.382 637.07C291.834 638.519 295.706 639.969 297.158 640.452C298.609 640.935 300.061 642.868 299.094 643.834Z" stroke="#333757" stroke-width="1.5" stroke-linejoin="round"/>
<path d="M206.179 669.443C204.243 669.443 206.179 666.544 208.115 665.577C210.05 665.577 211.502 667.51 210.534 669.443C209.566 671.375 208.115 669.443 206.179 669.443Z" stroke="#333757" stroke-width="1.5" stroke-linejoin="round"/>
<path d="M203.275 651.082C201.339 652.531 199.888 651.082 197.952 649.632C197.629 649.149 196.984 647.603 196.984 645.284C196.984 642.385 198.436 642.868 199.888 639.485C201.339 636.103 203.275 637.07 205.695 636.586C208.114 636.103 207.63 631.755 209.566 630.788C211.502 629.822 212.954 628.855 215.373 627.889C217.793 626.923 217.309 624.99 221.664 624.99C226.02 624.99 225.052 624.024 226.02 623.541C226.988 623.057 229.891 622.091 228.439 623.541C226.988 624.99 227.472 624.99 229.891 625.956C232.311 626.923 231.827 627.889 230.375 629.339C229.214 630.498 231.504 630.788 232.795 630.788C233.117 631.11 233.956 632.141 234.73 633.687C235.698 635.62 232.795 634.654 230.859 637.07C229.31 639.002 228.601 640.774 228.439 641.418L225.052 642.385C224.891 642.062 224.181 641.418 222.632 641.418C220.696 641.418 221.18 643.834 220.696 641.418C220.213 639.002 219.245 639.002 218.761 639.485C218.277 639.969 217.793 641.901 215.373 641.418C212.954 640.935 214.889 643.351 213.438 643.834C211.986 644.317 212.954 645.767 213.438 646.25C213.921 646.733 215.373 647.7 215.373 649.149C215.373 650.599 213.921 651.082 211.986 651.082C210.05 651.082 211.986 648.183 210.534 647.7C209.082 647.216 205.211 649.632 203.275 651.082Z" stroke="#333757" stroke-width="1.5" stroke-linejoin="round"/>
<path d="M175.691 613.877C178.111 613.877 179.562 615.326 181.498 613.877C182.949 613.256 182.467 611.944 182.951 610.011C183.338 608.465 181.176 608.079 180.047 608.079C179.24 608.723 177.24 610.108 175.691 610.495C173.755 610.978 173.271 613.877 175.691 613.877Z" stroke="#333757" stroke-width="1.5" stroke-linejoin="round"/>
<path d="M187.306 593.583C186.338 594.55 186.338 595.999 188.274 597.449C189.242 597.449 190.984 597.352 190.21 596.964C189.242 596.48 191.177 595.033 190.21 593.583C189.242 592.134 188.274 592.617 187.306 593.583Z" stroke="#333757" stroke-width="1.5" stroke-linejoin="round"/>
<path d="M429.212 37.3016C426.309 38.2666 421.471 38.2669 418.568 38.2669C417.278 37.141 414.504 35.9506 411.794 34.4067C408.407 32.477 399.214 30.5463 396.795 30.0638C394.376 29.5813 395.828 31.9939 392.441 31.9939C389.054 31.9939 389.054 34.4065 388.086 36.3365C387.118 38.2666 378.893 37.3016 373.571 39.7142C368.249 42.1267 358.572 46.4694 352.282 49.847C345.992 53.2247 337.283 53.7072 331.961 52.7421C326.639 51.7771 322.284 50.8121 319.865 52.7421C317.93 54.2862 312.93 54.6722 310.672 54.6722C310.188 56.4414 309.511 60.4624 310.672 62.3925C312.124 64.8051 312.607 72.5254 313.575 74.938C314.349 76.868 311.962 78.3156 310.672 78.7981C310.188 80.4065 309.027 84.2988 308.253 87.0009C307.479 89.703 308.575 92.952 309.221 94.2387C308.253 98.2597 306.317 107.653 306.317 113.057C306.317 119.812 300.995 119.812 297.125 122.707C294.028 125.023 289.706 124.316 287.932 123.672C287.609 124.476 286.19 126.953 283.093 130.428C279.997 133.902 275.029 142.812 272.933 146.833C266.159 146.833 263.256 150.211 259.385 153.106C255.514 156.001 252.128 160.826 245.354 168.546C238.58 176.267 232.29 186.4 227.452 195.567C222.613 204.735 219.71 217.763 219.227 220.658C218.839 222.974 217.775 222.588 217.291 222.106C211.324 219.372 198.422 213.807 194.551 213.421C189.712 212.938 183.423 213.903 175.681 211.008C167.94 208.113 165.037 206.183 161.65 206.665C158.263 207.148 153.908 205.218 150.522 202.805C147.812 200.875 144.554 200.393 143.264 200.393L138.426 205.218C136.006 218.246 136.49 226.931 138.426 236.581C140.361 246.232 140.361 251.539 138.426 258.777C136.49 266.015 135.523 275.665 135.523 282.421C135.523 289.176 127.297 297.379 123.91 304.134C120.524 310.889 121.007 321.987 121.007 326.33C121.007 329.804 123.91 330.029 125.362 329.707C125.523 330.029 125.749 331.541 125.362 335.015C124.878 339.358 126.33 344.665 129.716 349.491C133.103 354.316 135.039 358.658 135.039 363.001C135.039 366.475 132.458 365.735 131.168 364.931C130.2 366.861 129.716 372.651 129.716 375.064C129.716 376.994 130.684 376.833 131.168 376.512C131.007 376.994 130.491 378.731 129.716 381.819C128.749 385.679 126.33 386.162 122.943 389.057C119.556 391.952 120.524 391.952 120.04 393.882C119.653 395.426 122.137 398.386 123.427 399.672C127.137 397.742 135.136 393.496 137.459 391.952C139.781 390.408 146.49 390.987 149.555 391.47V388.575C158.264 389.057 164.554 393.4 170.36 396.777C176.166 400.155 174.714 403.533 174.714 405.463C174.714 407.393 177.617 406.91 178.585 408.358C179.553 409.805 181.488 408.84 182.939 408.358C184.391 407.875 182.939 405.945 185.843 403.533C188.746 401.12 191.165 398.707 202.777 403.533C214.389 408.358 225.033 420.421 229.388 425.728C233.743 431.036 235.194 433.931 236.162 438.756C237.129 443.582 237.129 446.477 235.194 448.407C233.259 450.337 232.291 450.337 231.807 453.232C231.42 455.548 230.033 455.484 229.388 455.162L227.453 457.092L221.163 453.232L219.711 455.162L225.033 458.54V459.987C225.517 461.917 227.453 461.435 226.001 463.847C224.55 466.26 222.614 470.603 222.13 474.945C221.647 479.288 218.26 481.218 216.808 482.665C215.357 484.113 214.873 488.456 215.84 488.938C216.808 489.421 220.195 492.316 218.26 492.798C216.711 493.184 216.647 494.889 216.808 495.694C217.131 496.337 217.873 498.106 218.26 500.036C218.647 501.966 217.453 502.77 216.808 502.931C215.84 502.61 213.904 502.256 213.904 503.414C213.904 504.861 211.97 505.826 208.582 506.791C205.872 507.563 205.195 508.721 205.195 509.204C204.389 509.204 202.777 509.976 202.777 513.064C202.777 516.152 202.454 521.749 202.293 524.162C201.486 524.484 199.389 525.224 197.454 525.61C195.519 525.996 195.035 528.022 195.035 528.987C195.358 530.113 196.1 532.558 196.487 533.33C196.874 534.102 198.584 534.617 199.39 534.777C200.358 535.582 202.099 537.19 201.325 537.19C200.358 537.19 198.906 537.19 199.873 539.603C200.647 541.533 203.421 541.372 204.712 541.05C205.68 542.819 207.131 546.744 205.195 548.288C202.775 550.218 202.293 553.596 201.325 555.043C200.358 556.491 198.422 557.938 197.454 560.351C196.485 562.763 196.003 561.316 196.003 560.351C196.003 559.386 195.519 558.903 193.583 558.903C191.648 558.903 193.584 560.351 193.583 562.281C193.583 563.825 191.97 562.924 191.164 562.281C190.842 562.281 189.81 562.474 188.262 563.246C186.713 564.018 187.617 565.176 188.262 565.659C188.1 566.463 187.391 568.071 185.843 568.071C184.294 568.071 184.229 569.68 184.391 570.484L187.778 571.449C186.971 571.77 185.455 572.607 185.843 573.379C186.326 574.344 185.842 577.239 183.907 578.687C181.971 580.134 183.423 583.512 184.391 584.959C185.358 586.407 186.81 584.959 189.229 583.512C191.648 582.064 191.164 583.994 191.164 584.959C191.164 585.924 189.229 587.854 191.164 587.854C193.1 587.854 194.067 586.889 193.583 587.854C193.099 588.819 195.035 590.75 195.519 589.784C196.002 588.819 196.002 587.854 197.454 587.854C198.905 587.854 198.905 587.854 199.873 585.924C200.841 583.994 202.292 584.959 205.195 584.959C208.098 584.959 207.614 586.889 208.582 587.854C209.55 588.819 209.066 590.75 211.001 591.232C212.55 591.618 213.582 592.68 213.904 593.162C213.42 593.484 212.259 594.417 211.484 595.575C210.517 597.022 212.936 596.54 215.355 596.54C217.29 596.54 216.484 598.148 215.839 598.952C216 599.274 216.516 600.11 217.29 600.882C218.258 601.847 219.226 602.33 222.129 602.33C223.29 603.488 224.226 603.134 224.548 602.812C224.87 601.687 225.322 599.338 224.548 598.952C223.774 598.566 222.29 597.826 221.645 597.505C222.451 597.344 223.87 596.733 223.096 595.575C222.128 594.127 225.031 592.68 225.515 590.75C225.999 588.819 226.483 587.854 228.902 587.854C230.837 587.854 231.321 589.141 231.321 589.784C231.644 590.106 232.483 590.75 233.257 590.75C234.225 590.75 234.224 584.959 236.16 584.959C238.095 584.959 238.579 583.512 240.03 582.547C241.482 581.582 243.901 583.512 243.901 581.582C243.901 579.652 246.32 578.687 243.901 578.687C241.966 578.687 244.708 576.756 246.32 575.791L246.32 572.414C245.675 572.575 244.095 572.607 242.934 571.449C241.773 570.291 243.095 568.714 243.901 568.071C243.579 568.071 242.934 567.685 242.934 566.141C242.934 564.211 243.901 562.281 242.934 562.281C241.966 562.281 241.482 563.246 240.998 564.694C240.514 566.141 238.579 564.694 237.611 563.246C236.644 561.798 234.708 563.246 233.257 563.246C231.805 563.246 233.257 560.833 232.289 558.903C231.321 556.973 232.289 552.148 233.257 549.735C234.225 547.323 235.192 546.358 237.611 545.393C240.031 544.428 241.966 542.015 242.934 539.603C243.901 537.19 245.837 539.603 246.32 539.603C246.804 539.603 249.707 540.568 251.159 538.638C252.61 536.707 253.094 539.603 254.546 537.19C255.997 534.777 253.094 535.26 253.094 533.33C253.094 531.4 255.513 532.365 256.481 532.365C257.255 532.365 258.416 531.078 258.9 530.435L261.803 532.365C263.255 533.33 262.771 533.33 262.771 535.26C262.771 537.19 265.19 537.19 265.674 535.26C266.061 533.716 267.448 533.33 268.093 533.33C268.577 533.652 269.738 534.488 270.512 535.26C271.287 536.032 272.77 535.582 273.415 535.26C273.899 535.742 275.06 536.418 275.835 535.26C276.802 533.812 277.77 533.812 278.738 534.295C279.705 534.777 281.641 533.812 281.641 535.26C281.641 536.707 284.544 537.19 287.447 538.155C290.35 539.12 290.834 536.707 293.253 535.26C295.188 534.102 297.607 534.777 298.575 535.26C298.252 535.742 297.801 536.804 298.575 537.19C299.543 537.672 302.93 539.603 304.865 539.603C306.8 539.603 307.284 542.015 308.736 542.498C309.897 542.884 310.51 541.372 310.671 540.568H312.122L315.993 546.358C315.993 547.001 316.38 548.577 317.929 549.735C319.864 551.183 316.477 552.148 315.993 555.526C315.606 558.228 313.251 558.903 312.122 558.903C310.994 559.064 308.445 559.289 307.284 558.903C306.123 558.517 304.542 557.456 303.897 556.973L302.93 557.938C303.575 558.26 304.478 559.289 302.93 560.833C301.381 562.377 302.284 566.302 302.93 568.071L304.865 570.484C304.22 571.77 303.317 574.537 304.865 575.309C306.8 576.274 306.316 579.652 307.284 580.617C308.252 581.582 316.477 583.512 318.412 583.994C320.348 584.477 324.218 583.994 325.186 585.924C326.154 587.854 329.541 586.889 332.928 586.889C336.314 586.889 334.863 583.994 337.282 583.512C339.701 583.029 340.669 585.442 342.12 585.924C343.572 586.407 350.346 585.442 351.313 586.889C352.281 588.337 352.765 587.854 354.7 586.889C356.636 585.924 360.022 588.819 362.926 587.854C365.829 586.889 367.764 586.889 369.215 586.889C370.667 586.889 370.183 585.924 370.183 583.994C370.183 582.45 372.118 581.742 373.086 581.582C374.054 581.26 376.183 580.424 376.957 579.652C377.731 578.88 377.279 576.435 376.957 575.309C377.924 574.666 380.537 572.993 383.247 571.449C386.634 569.519 388.085 570.001 390.988 569.519C393.311 569.133 393.891 568.715 393.891 568.554L397.762 564.211L396.794 562.763L392.44 567.106L384.698 568.071L375.989 572.414C375.022 570.001 373.57 570.484 373.086 568.071C372.602 565.659 373.086 563.728 371.151 562.281C369.602 561.123 367.28 558.903 366.312 557.938C364.861 557.938 361.571 557.745 360.022 556.973C358.087 556.008 359.539 555.526 356.152 555.526C352.765 555.526 355.668 552.631 356.152 549.253C356.636 545.875 360.506 546.84 362.926 546.358C365.345 545.875 367.28 545.393 367.764 544.428C368.248 543.463 368.248 540.085 370.183 542.015C371.731 543.559 375.667 542.98 377.441 542.498L377.925 538.155C379.376 536.707 382.763 533.523 384.698 532.365C387.117 530.917 386.15 527.54 385.666 523.679C385.182 519.819 386.634 518.372 389.053 516.924C391.472 515.477 393.891 515.477 394.375 516.924C394.859 518.372 395.343 526.092 395.827 527.54C396.31 528.987 395.343 533.812 396.794 536.707C398.246 539.603 397.278 543.463 399.213 544.428C400.762 545.2 399.859 547.323 399.213 548.288C400.02 548.449 401.633 549.253 401.633 551.183C401.633 553.596 402.116 555.526 402.6 556.973C403.084 558.421 404.536 557.938 404.052 555.526C403.568 553.113 404.536 545.875 404.536 544.428C404.536 542.98 406.955 543.945 410.342 544.428C413.729 544.91 415.18 543.463 416.148 542.015C417.115 540.568 419.051 539.603 421.954 537.19C424.857 534.777 423.889 533.812 426.308 532.365C428.728 530.917 430.179 531.882 431.631 533.812C432.792 535.356 434.372 534.134 435.017 533.33C435.179 531.882 435.405 528.505 435.017 526.575C434.534 524.162 438.405 521.267 437.437 516.924C436.468 512.582 438.405 509.686 437.437 508.239C436.468 506.791 435.017 503.414 434.534 501.484C434.05 499.554 435.985 499.071 438.405 499.071C440.825 499.071 442.275 501.966 444.21 504.861C446.146 507.756 448.081 507.756 451.468 509.686C454.855 511.617 454.855 515.477 455.823 518.372C456.597 520.688 456.468 523.84 456.306 525.127C456.952 525.77 458.242 527.347 458.242 528.505C458.242 529.952 459.209 530.917 460.661 531.882C461.822 532.654 461.79 533.169 461.629 533.33C461.951 533.491 462.79 533.426 463.564 531.882C464.532 529.952 464.048 529.952 465.015 528.987C465.983 528.022 466.951 528.022 467.919 526.092C468.886 524.162 470.338 523.679 471.789 523.679C473.241 523.679 474.208 523.197 475.66 521.267C477.111 519.337 478.079 521.267 478.079 523.197C478.079 525.127 481.95 523.197 484.369 523.197C486.788 523.197 486.788 524.645 488.24 525.127C489.691 525.61 490.175 526.092 490.175 523.679C490.175 521.267 487.756 521.749 485.82 521.267C483.885 520.784 486.788 518.372 485.82 518.372C484.853 518.372 482.917 516.924 481.95 515.477C480.982 514.029 479.047 513.064 478.079 513.064C477.111 513.064 474.208 513.547 474.208 512.099C474.208 510.652 474.692 509.687 472.757 506.791C470.822 503.896 470.338 504.861 469.37 504.861C468.402 504.861 465.983 505.344 465.983 501.966C465.983 498.589 464.532 500.036 462.596 499.071C460.661 498.106 457.758 490.386 453.887 485.561C451.809 482.97 447.289 480.813 443.371 479.384C442.476 477.349 440.895 474.409 439.622 474.092V454.961C439.622 454.961 439.215 453.333 437.176 453.333C434.323 453.333 434.502 454.708 435.138 455.775C435.502 456.386 436.769 456.589 436.769 456.589V476.127L435.138 476.534V478.163C435.138 478.163 434.252 479.071 433.915 479.791C433.439 480.809 433.507 482.64 433.507 482.64C433.507 482.64 432.673 483.861 431.877 483.861C430.654 483.861 426.984 482.233 426.984 482.233C426.984 482.233 425.747 482.366 424.946 482.233C422.5 481.826 421.576 480.841 419.238 480.198C416.763 479.518 414.346 479.384 411.9 479.384C408.383 479.384 403.747 478.57 403.747 478.57C403.747 478.57 402.721 480.115 401.708 480.605L401.652 480.632C400.807 481.041 400.142 481.363 399.262 481.012C397.224 480.198 396.816 478.57 394.37 477.349C393.231 476.78 390.701 476.941 390.701 476.941L385.809 473.685L384.585 474.499C384.585 474.499 387.165 476.374 388.662 477.756C389.489 478.518 390.701 479.791 390.701 479.791C390.701 479.791 391.108 481.826 391.516 483.454L391.545 483.57C391.926 485.087 392.154 485.995 390.293 487.118C389.127 487.821 387.773 487.773 386.42 487.932C385.067 488.091 384.316 488.397 382.955 488.339C380.791 488.246 379.547 487.763 377.655 486.711C375.587 485.561 374.711 484.434 373.17 482.64C370.895 479.991 369.705 478.245 368.686 474.906C368.167 473.206 367.584 470.842 367.871 470.429C368.157 470.015 370.79 470.461 372.355 469.615C373.593 468.945 373.9 468.489 374.393 467.172C374.674 466.424 374.741 465.785 375.209 465.137C375.71 464.442 377.247 464.323 377.247 464.323L380.509 462.695C380.509 462.695 380.747 462.297 380.916 461.881C381.341 460.837 379.563 461.157 378.47 461.435C377.412 461.704 376.228 463.102 376.228 463.102L375.209 463.509C375.209 463.509 374.661 462.794 374.393 462.288C373.852 461.264 373.578 459.438 373.578 459.438H371.947V461.066H370.317L369.705 459.774L367.871 459.845L364.609 462.288C363.319 461.805 361.958 461.435 360.022 461.435C357.603 461.435 356.636 458.057 355.668 456.127C354.7 454.197 351.797 454.679 353.249 453.714C354.7 452.749 352.765 448.407 351.797 447.442C350.83 446.477 349.862 446.477 348.894 445.029C347.927 443.582 346.959 442.617 345.024 443.099C343.088 443.582 341.637 441.651 340.669 440.204C339.701 438.756 333.895 439.721 330.508 439.721C327.121 439.721 328.573 435.379 326.154 435.379C323.735 435.379 322.283 435.861 320.348 432.966C318.412 430.071 317.445 429.106 313.574 427.176C309.703 425.246 309.703 421.868 309.219 419.456C308.736 417.043 307.285 419.456 305.833 419.456C304.671 419.456 304.058 418.169 303.897 417.526C302.446 417.526 298.963 416.947 296.641 414.63C293.738 411.735 293.737 408.84 292.286 405.463C290.835 402.085 292.286 400.155 291.318 396.777L291.24 396.504C290.326 393.321 289.933 391.952 292.286 391.952C294.705 391.952 292.286 390.505 292.286 389.057C292.286 387.609 293.254 386.644 295.673 387.609C298.092 388.575 298.576 387.127 299.544 385.197C300.511 383.267 301.963 380.854 304.382 378.924C306.317 377.38 307.124 376.994 307.285 376.994V372.651C305.833 372.169 301.963 369.274 300.511 368.309C299.06 367.344 300.511 365.896 300.511 364.931C300.511 363.966 300.511 363.001 298.576 364.931C296.641 366.861 295.673 366.379 296.641 363.001C297.608 359.623 296.641 354.316 296.641 352.386C296.641 350.456 300.028 349.973 298.576 349.491C297.125 349.008 295.189 349.008 295.673 342.735C296.157 336.463 297.608 336.463 298.576 333.085C299.544 329.707 298.576 327.777 301.963 324.4C305.35 321.022 307.285 322.47 308.737 321.022C310.188 319.574 310.672 320.057 311.156 321.987C311.64 323.917 312.607 321.987 314.059 319.092C315.51 316.197 315.51 317.162 317.93 317.644C320.349 318.127 323.736 318.127 324.22 316.197C324.703 314.267 327.123 314.749 328.09 313.784C329.058 312.819 330.509 310.889 328.574 310.407C326.639 309.924 326.155 309.442 326.155 305.581C326.155 301.721 330.026 294.484 332.929 289.176C335.832 283.868 339.219 280.973 342.122 278.078C345.025 275.183 344.057 272.288 345.992 269.393C347.928 266.498 353.734 265.05 355.669 264.085C357.604 263.12 358.572 263.602 359.54 264.085C360.507 264.567 362.443 264.085 364.862 262.637C367.281 261.19 368.733 260.225 371.636 259.26C374.539 258.295 373.087 258.295 374.539 260.225C375.99 262.155 376.474 259.26 377.442 259.26C378.409 259.26 380.345 259.26 380.829 257.812C381.312 256.365 382.764 256.847 384.215 255.882C385.667 254.917 385.183 258.295 385.183 259.26C385.183 260.225 387.602 260.225 389.538 259.26C391.086 258.488 392.118 256.365 392.441 255.4H397.763L399.214 252.987L400.666 253.952C401.15 253.47 402.698 252.601 405.021 252.987C407.924 253.47 407.924 252.022 408.407 250.092C408.891 248.162 409.375 248.162 413.246 250.092C417.117 252.022 418.568 248.162 418.568 245.749C418.568 243.337 421.955 243.337 420.987 241.407C420.02 239.477 419.536 238.994 417.6 241.889C415.665 244.784 414.697 244.302 411.794 244.302C408.891 244.302 408.407 246.232 406.956 245.749C405.504 245.267 404.053 247.679 402.118 247.197C400.182 246.714 401.15 245.267 400.666 243.337C400.183 241.407 397.279 241.407 399.214 240.442C401.149 239.477 400.182 238.994 399.214 237.064C398.247 235.134 399.698 233.686 401.15 235.616C402.601 237.546 403.086 235.134 402.118 233.686C401.15 232.239 401.15 232.239 402.117 228.863L402.118 228.861C403.085 225.484 401.634 223.553 402.118 222.106C402.505 220.948 407.117 218.407 409.375 217.281C409.214 218.085 409.278 219.597 410.826 219.211C412.375 218.825 412.117 216.477 411.794 215.351L414.697 213.421C415.02 214.064 416.245 215.351 418.568 215.351C420.89 215.351 423.729 215.029 424.858 214.868C423.697 214.482 423.406 212.456 423.406 211.49C425.771 209.604 426.749 210.022 429.954 211.394L430.18 211.49C433.567 212.938 429.696 213.421 431.148 215.351C432.599 217.281 433.567 217.281 433.567 215.351C433.567 213.421 436.47 215.351 438.405 215.351C440.341 215.351 439.373 213.421 438.405 213.421C437.438 213.421 436.954 211.491 436.954 210.043C436.954 208.595 437.921 206.665 440.824 208.113C443.727 209.56 444.211 209.078 445.179 205.7C446.147 202.323 445.663 203.288 449.534 202.805C453.404 202.323 454.372 200.875 454.372 199.428C454.372 197.98 457.275 200.393 458.243 197.497C459.21 194.602 458.726 194.12 455.823 193.637C452.92 193.155 454.372 191.707 452.437 189.777C450.501 187.847 450.501 185.435 450.501 183.987C450.501 182.539 447.114 182.057 448.566 181.574C450.017 181.092 450.985 180.609 451.469 178.197C451.953 175.784 453.404 174.819 454.372 173.372C455.34 171.924 457.275 173.372 457.275 175.784C457.275 177.714 459.21 178.518 460.178 178.679C460.984 178.358 462.404 177.521 461.63 176.749C460.662 175.784 460.178 175.784 459.694 173.372C459.21 170.959 461.146 169.994 461.63 169.029C462.113 168.064 462.597 164.204 464.533 162.756C466.468 161.309 466.952 160.826 465.5 160.344C464.049 159.861 464.533 157.931 462.597 156.483C460.662 155.036 460.178 155.036 462.597 153.106C465.016 151.176 465.5 149.246 466.468 147.316C467.436 145.386 468.403 147.316 471.306 146.351C474.209 145.386 475.177 143.455 475.177 142.008C475.177 140.56 475.661 140.078 473.725 140.078C471.79 140.078 471.79 138.63 469.371 140.078C467.436 141.236 463.081 141.204 461.146 141.043C460.501 140.078 458.823 137.762 457.275 136.218C455.34 134.288 458.243 133.323 460.178 130.91C462.113 128.497 461.63 128.015 461.146 125.602C460.662 123.19 456.307 124.155 455.34 122.707C454.372 121.26 455.34 120.777 455.34 118.847V114.022C455.178 114.344 454.565 114.794 453.404 114.022C451.953 113.057 453.888 118.847 452.437 120.777C450.985 122.707 449.05 120.295 448.566 118.847C448.082 117.4 447.114 115.469 446.147 114.022C445.179 112.574 448.566 112.574 448.566 111.609C448.566 110.837 447.598 110.001 447.114 109.679L444.211 112.574C443.05 113.732 442.115 113.057 441.792 112.574C441.792 111.609 441.599 109.486 440.824 108.714C439.857 107.749 438.405 106.784 440.824 104.372C442.76 102.441 442.921 101.316 442.76 100.994C442.115 101.155 440.631 100.994 439.857 99.0639C438.889 96.6513 441.792 96.1687 439.373 94.7212C436.954 93.2736 438.405 92.3086 439.373 90.3785C440.341 88.4485 441.792 87.9659 439.373 86.0359C437.438 84.4918 438.566 83.4624 439.373 83.1408C439.05 82.4974 438.405 80.4387 438.405 77.3505C438.405 74.2624 440.018 73.4904 440.824 73.4904C440.502 72.2037 440.05 69.4373 440.824 68.6652C441.792 67.7002 443.244 63.8401 441.792 63.8401C440.341 63.8401 437.438 64.3226 438.405 62.3925C439.373 60.4624 438.405 58.0498 437.438 56.1198C436.47 54.1897 437.438 52.2596 438.405 49.847C439.373 47.4344 438.889 44.5393 437.438 42.1267C436.276 40.1967 436.954 37.4624 437.438 36.3365C435.664 36.3365 431.535 36.5295 429.212 37.3016Z" fill="#1A203A" stroke="#333757" stroke-width="1.5" stroke-linejoin="round"/>
<path d="M298.157 534.744C298.701 534.608 299.869 534.011 300.195 532.708C300.603 531.08 302.234 526.603 303.049 525.382C303.702 524.405 303.865 519.547 303.865 517.241C304.136 516.426 304.843 514.554 305.495 513.577C306.311 512.356 305.495 509.1 305.495 506.25C305.495 503.401 306.311 500.144 306.311 496.888C306.311 493.632 305.088 494.039 302.234 489.968C299.38 485.898 299.38 483.455 296.934 481.827C294.488 480.199 290.411 477.757 290.411 474.907C290.411 472.058 290.411 469.209 291.634 467.173C292.857 465.138 296.934 463.917 296.934 461.475C296.934 459.032 299.38 458.625 298.157 456.997C296.934 455.369 293.673 455.776 290.411 452.927C287.15 450.077 284.704 450.077 282.257 444.378C279.811 438.68 276.142 437.052 272.881 435.423C269.619 433.795 270.435 430.132 269.619 427.689C268.804 425.247 266.358 424.026 264.319 421.991C262.281 419.955 260.65 418.327 260.65 413.85C260.65 409.372 259.835 408.558 257.797 407.337C255.758 406.116 253.312 407.337 253.72 405.709C254.127 404.08 255.35 400.824 256.165 399.196C256.981 397.568 257.797 395.125 257.797 392.276C257.797 389.427 258.204 385.763 259.427 384.542C260.65 383.321 261.873 383.321 263.504 380.472C265.134 377.622 266.765 375.587 266.765 372.331C266.765 369.074 267.581 368.667 269.619 367.853C271.657 367.039 271.657 366.225 274.511 367.039C277.365 367.853 280.219 369.074 282.257 371.516C284.296 373.959 285.111 376.401 290.003 375.994C294.895 375.587 292.449 372.737 298.157 373.552C303.864 374.366 303.864 375.18 307.126 374.773" stroke="#333757" stroke-width="1.5" stroke-linejoin="round"/>
</svg>
