<svg width="201" height="163" viewBox="0 0 201 163" fill="none" xmlns="http://www.w3.org/2000/svg">
<mask id="path-1-inside-1_908_21849" fill="white">
<path d="M144.495 140.144L143.816 140.153C142.44 139.824 141.62 140.348 140.259 140.733C140.109 140.774 139.946 140.83 139.852 140.955C139.698 141.159 139.781 141.449 139.881 141.682C140.557 143.251 141.856 144.541 143.429 145.2C144.306 145.567 145.398 145.715 146.139 145.12C146.372 144.934 146.549 144.688 146.717 144.443C147.166 143.786 147.582 143.017 147.437 142.236C147.207 140.975 145.737 140.434 144.492 140.144H144.495ZM22.1425 82.2153C20.9265 78.9104 16.8653 76.8275 13.6098 78.15C11.656 78.943 10.6525 79.7832 8.63666 78.8039C7.33507 78.1737 6.49096 77.0198 5.20708 78.3542C4.23606 79.366 4.30984 81.4963 3.80219 82.7478C3.07023 84.5526 1.62992 85.4402 0.549695 86.964C0.0509014 87.6682 -0.208836 88.6387 0.207318 89.3931C0.909762 90.6654 2.76624 90.4169 4.14162 90.8784C6.31683 91.6122 7.19046 94.1389 8.53337 96.0058C10.1832 98.3018 12.8041 99.7664 15.546 100.45C18.2879 101.133 21.1537 101.101 23.9664 100.867C24.5331 100.82 25.1411 100.746 25.5661 100.367C25.9675 100.006 26.1151 99.4409 26.1535 98.9024C26.3512 96.065 24.1081 93.6862 23.2935 90.9642C22.4465 88.1356 23.1637 84.9876 22.1454 82.2183L22.1425 82.2153ZM132.429 158.31C132.258 158.186 131.989 158.124 131.715 158.071C131.461 158.02 131.201 157.979 131.012 157.905C130.561 157.725 130.083 157.491 129.631 157.42C128.858 157.302 128.079 157.251 127.314 157.071C127.214 157.047 127.108 157.023 127.013 157.065C126.874 157.124 126.824 157.293 126.807 157.444C126.662 158.55 127.282 159.657 128.17 160.328C129.059 161 130.174 161.296 131.278 161.441C131.502 161.47 131.735 161.494 131.951 161.417C132.364 161.269 132.571 160.796 132.627 160.361C132.707 159.748 133.04 158.751 132.432 158.31H132.429ZM193.804 85.5142C193.129 84.316 192.361 82.9609 191.942 81.4046C191.511 79.804 191.508 78.2062 191.555 76.9961C191.73 72.4515 192.854 68.0845 193.937 63.8594C194.858 60.2794 195.726 56.8976 196.062 53.427C196.192 52.0926 196.242 50.7493 196.295 49.3292C196.405 46.3793 196.52 43.3319 197.387 40.3169C198.208 37.4647 199.625 34.9439 201 32.7959C199.757 30.8195 196.372 30.2218 193.344 30.5443C192.559 30.6271 191.765 30.7396 190.924 30.8609C187.524 31.3461 183.669 31.8935 180.107 30.2484C175.818 28.269 173.879 24.2215 172.005 20.3072C171.128 18.4757 170.299 16.7449 169.26 15.2803C166.087 10.8038 159.901 8.11725 154.122 5.98697C150.657 7.13495 146.909 7.4693 143.237 7.66754C138.273 7.93678 129.909 7.22964 125.056 5.62306C122.695 4.84196 120.591 3.96619 118.554 3.11704C113.1 0.844743 108.791 -0.94825 102.968 0.551818C95.8843 2.37734 91.7346 9.59366 87.4166 18.1295C85.9261 21.0794 84.6924 22.8191 82.529 25.0234C79.8225 27.7809 74.7638 28.9791 71.3873 28.704C69.0793 28.5176 67.2553 27.8519 65.6468 27.2631C64.0205 26.6684 62.6156 26.1565 60.8153 26.1121C60.7739 26.1121 60.7296 26.1121 60.6883 26.1121C58.0733 26.1121 55.665 28.1241 53.1179 30.2543C52.6191 30.6715 52.1233 31.0858 51.6274 31.4852C47.5131 34.7871 43.1745 36.5091 39.193 36.5091C37.6435 36.5091 36.1471 36.2487 34.7422 35.7161C33.3786 35.2013 31.9531 34.4173 30.5747 33.6598C28.9721 32.7781 27.3282 31.8787 25.8731 31.4289C26.1181 33.3728 26.7025 35.2309 27.7827 36.9263C29.3942 39.456 31.9708 41.3259 33.2399 44.0479C36.6134 51.2879 29.223 58.9746 28.55 66.9365C28.1014 72.2533 31.044 77.7062 35.7309 80.2388C39.7596 82.4164 44.8804 82.3277 48.8973 80.1649C49.7385 79.7122 50.6269 80.6561 50.1399 81.4815C48.6612 83.9817 44.9689 85.6089 43.0948 88.2008C39.1634 93.6478 45.4116 101.752 52.1173 101.861C54.2512 101.897 56.4619 101.426 58.398 102.672C59.2362 103.213 59.8058 104.122 59.7852 105.119C59.7409 107.554 56.5799 107.808 55.9306 109.776C55.0363 112.477 59.3277 113.658 61.0041 115.954C62.7484 118.341 60.5201 122.365 57.5745 122.146C55.2754 121.974 53.3333 119.791 50.8335 121.122C49.5289 121.815 48.7261 123.167 48.5549 124.637C48.2185 127.528 49.8388 130.004 51.3972 132.306C54.4047 136.75 54.6261 138.339 57.6336 142.78C58.1678 143.567 60.771 146.079 61.5679 146.594C66.06 149.493 71.405 142.387 77.0452 143.7C78.276 144.99 80.5427 143.538 81.5373 142.058C82.5349 140.579 83.2698 138.673 84.9521 138.091C87.3192 137.268 89.4708 139.605 91.7346 140.679C95.3265 142.381 99.5441 140.824 103.514 140.961C108.552 141.135 113.023 144.029 117.693 145.928C122.365 147.825 128.332 148.511 131.921 144.964C133.474 143.431 134.321 141.327 134.953 139.236C135.366 137.869 135.708 136.431 135.454 135.025C134.97 132.348 132.529 130.546 130.998 128.3C129.123 125.549 128.628 121.898 129.708 118.744C130.788 115.59 133.409 113.01 136.573 111.989C138.881 111.243 141.617 111.379 143.476 112.942C145.336 114.501 145.835 117.681 144.105 119.386C143.042 120.433 141.31 120.862 141.717 123.134C141.841 123.821 142.151 124.457 142.576 125.007C144.586 127.608 146.8 130.605 150.046 131.454C153.429 132.339 156.894 130.638 159.978 128.99C162.879 127.439 165.783 125.886 168.688 124.336C169.484 123.909 170.317 123.475 171.217 123.421C173.439 123.294 175.095 125.483 175.848 127.584C176.6 129.685 176.963 132.052 178.513 133.655C179.747 134.937 181.526 135.496 183.229 136.011C185.697 136.756 188.749 137.369 190.546 135.516C192.594 133.407 191.523 129.496 193.568 127.383C194.392 126.534 195.575 126.149 196.532 125.454C199.285 123.451 199.276 118.67 196.517 116.675C194.896 115.504 192.789 115.326 190.897 114.675C189.008 114.024 187.081 112.456 187.276 110.462C187.385 109.37 188.111 108.45 188.855 107.645C191.611 104.657 195.014 102.269 198.757 100.698C199.197 100.515 199.654 100.352 200.115 100.204C198.367 94.9821 196.039 89.5145 193.981 85.8516L193.798 85.529L193.804 85.5142ZM165.296 157.668C164.024 156.657 158.245 151.846 156.678 154.713C156.545 154.955 156.528 155.242 156.522 155.517C156.495 156.473 156.551 157.455 156.914 158.34C157.454 159.66 158.605 160.615 159.712 161.515C160.282 161.976 160.863 162.447 161.548 162.713C162.174 162.956 162.858 163.015 163.528 162.997C164.322 162.976 165.134 162.849 165.825 162.453C166.512 162.056 167.064 161.352 167.117 160.559C167.197 159.376 166.229 158.405 165.299 157.668H165.296Z"/>
</mask>
<path d="M144.495 140.144L143.816 140.153C142.44 139.824 141.62 140.348 140.259 140.733C140.109 140.774 139.946 140.83 139.852 140.955C139.698 141.159 139.781 141.449 139.881 141.682C140.557 143.251 141.856 144.541 143.429 145.2C144.306 145.567 145.398 145.715 146.139 145.12C146.372 144.934 146.549 144.688 146.717 144.443C147.166 143.786 147.582 143.017 147.437 142.236C147.207 140.975 145.737 140.434 144.492 140.144H144.495ZM22.1425 82.2153C20.9265 78.9104 16.8653 76.8275 13.6098 78.15C11.656 78.943 10.6525 79.7832 8.63666 78.8039C7.33507 78.1737 6.49096 77.0198 5.20708 78.3542C4.23606 79.366 4.30984 81.4963 3.80219 82.7478C3.07023 84.5526 1.62992 85.4402 0.549695 86.964C0.0509014 87.6682 -0.208836 88.6387 0.207318 89.3931C0.909762 90.6654 2.76624 90.4169 4.14162 90.8784C6.31683 91.6122 7.19046 94.1389 8.53337 96.0058C10.1832 98.3018 12.8041 99.7664 15.546 100.45C18.2879 101.133 21.1537 101.101 23.9664 100.867C24.5331 100.82 25.1411 100.746 25.5661 100.367C25.9675 100.006 26.1151 99.4409 26.1535 98.9024C26.3512 96.065 24.1081 93.6862 23.2935 90.9642C22.4465 88.1356 23.1637 84.9876 22.1454 82.2183L22.1425 82.2153ZM132.429 158.31C132.258 158.186 131.989 158.124 131.715 158.071C131.461 158.02 131.201 157.979 131.012 157.905C130.561 157.725 130.083 157.491 129.631 157.42C128.858 157.302 128.079 157.251 127.314 157.071C127.214 157.047 127.108 157.023 127.013 157.065C126.874 157.124 126.824 157.293 126.807 157.444C126.662 158.55 127.282 159.657 128.17 160.328C129.059 161 130.174 161.296 131.278 161.441C131.502 161.47 131.735 161.494 131.951 161.417C132.364 161.269 132.571 160.796 132.627 160.361C132.707 159.748 133.04 158.751 132.432 158.31H132.429ZM193.804 85.5142C193.129 84.316 192.361 82.9609 191.942 81.4046C191.511 79.804 191.508 78.2062 191.555 76.9961C191.73 72.4515 192.854 68.0845 193.937 63.8594C194.858 60.2794 195.726 56.8976 196.062 53.427C196.192 52.0926 196.242 50.7493 196.295 49.3292C196.405 46.3793 196.52 43.3319 197.387 40.3169C198.208 37.4647 199.625 34.9439 201 32.7959C199.757 30.8195 196.372 30.2218 193.344 30.5443C192.559 30.6271 191.765 30.7396 190.924 30.8609C187.524 31.3461 183.669 31.8935 180.107 30.2484C175.818 28.269 173.879 24.2215 172.005 20.3072C171.128 18.4757 170.299 16.7449 169.26 15.2803C166.087 10.8038 159.901 8.11725 154.122 5.98697C150.657 7.13495 146.909 7.4693 143.237 7.66754C138.273 7.93678 129.909 7.22964 125.056 5.62306C122.695 4.84196 120.591 3.96619 118.554 3.11704C113.1 0.844743 108.791 -0.94825 102.968 0.551818C95.8843 2.37734 91.7346 9.59366 87.4166 18.1295C85.9261 21.0794 84.6924 22.8191 82.529 25.0234C79.8225 27.7809 74.7638 28.9791 71.3873 28.704C69.0793 28.5176 67.2553 27.8519 65.6468 27.2631C64.0205 26.6684 62.6156 26.1565 60.8153 26.1121C60.7739 26.1121 60.7296 26.1121 60.6883 26.1121C58.0733 26.1121 55.665 28.1241 53.1179 30.2543C52.6191 30.6715 52.1233 31.0858 51.6274 31.4852C47.5131 34.7871 43.1745 36.5091 39.193 36.5091C37.6435 36.5091 36.1471 36.2487 34.7422 35.7161C33.3786 35.2013 31.9531 34.4173 30.5747 33.6598C28.9721 32.7781 27.3282 31.8787 25.8731 31.4289C26.1181 33.3728 26.7025 35.2309 27.7827 36.9263C29.3942 39.456 31.9708 41.3259 33.2399 44.0479C36.6134 51.2879 29.223 58.9746 28.55 66.9365C28.1014 72.2533 31.044 77.7062 35.7309 80.2388C39.7596 82.4164 44.8804 82.3277 48.8973 80.1649C49.7385 79.7122 50.6269 80.6561 50.1399 81.4815C48.6612 83.9817 44.9689 85.6089 43.0948 88.2008C39.1634 93.6478 45.4116 101.752 52.1173 101.861C54.2512 101.897 56.4619 101.426 58.398 102.672C59.2362 103.213 59.8058 104.122 59.7852 105.119C59.7409 107.554 56.5799 107.808 55.9306 109.776C55.0363 112.477 59.3277 113.658 61.0041 115.954C62.7484 118.341 60.5201 122.365 57.5745 122.146C55.2754 121.974 53.3333 119.791 50.8335 121.122C49.5289 121.815 48.7261 123.167 48.5549 124.637C48.2185 127.528 49.8388 130.004 51.3972 132.306C54.4047 136.75 54.6261 138.339 57.6336 142.78C58.1678 143.567 60.771 146.079 61.5679 146.594C66.06 149.493 71.405 142.387 77.0452 143.7C78.276 144.99 80.5427 143.538 81.5373 142.058C82.5349 140.579 83.2698 138.673 84.9521 138.091C87.3192 137.268 89.4708 139.605 91.7346 140.679C95.3265 142.381 99.5441 140.824 103.514 140.961C108.552 141.135 113.023 144.029 117.693 145.928C122.365 147.825 128.332 148.511 131.921 144.964C133.474 143.431 134.321 141.327 134.953 139.236C135.366 137.869 135.708 136.431 135.454 135.025C134.97 132.348 132.529 130.546 130.998 128.3C129.123 125.549 128.628 121.898 129.708 118.744C130.788 115.59 133.409 113.01 136.573 111.989C138.881 111.243 141.617 111.379 143.476 112.942C145.336 114.501 145.835 117.681 144.105 119.386C143.042 120.433 141.31 120.862 141.717 123.134C141.841 123.821 142.151 124.457 142.576 125.007C144.586 127.608 146.8 130.605 150.046 131.454C153.429 132.339 156.894 130.638 159.978 128.99C162.879 127.439 165.783 125.886 168.688 124.336C169.484 123.909 170.317 123.475 171.217 123.421C173.439 123.294 175.095 125.483 175.848 127.584C176.6 129.685 176.963 132.052 178.513 133.655C179.747 134.937 181.526 135.496 183.229 136.011C185.697 136.756 188.749 137.369 190.546 135.516C192.594 133.407 191.523 129.496 193.568 127.383C194.392 126.534 195.575 126.149 196.532 125.454C199.285 123.451 199.276 118.67 196.517 116.675C194.896 115.504 192.789 115.326 190.897 114.675C189.008 114.024 187.081 112.456 187.276 110.462C187.385 109.37 188.111 108.45 188.855 107.645C191.611 104.657 195.014 102.269 198.757 100.698C199.197 100.515 199.654 100.352 200.115 100.204C198.367 94.9821 196.039 89.5145 193.981 85.8516L193.798 85.529L193.804 85.5142ZM165.296 157.668C164.024 156.657 158.245 151.846 156.678 154.713C156.545 154.955 156.528 155.242 156.522 155.517C156.495 156.473 156.551 157.455 156.914 158.34C157.454 159.66 158.605 160.615 159.712 161.515C160.282 161.976 160.863 162.447 161.548 162.713C162.174 162.956 162.858 163.015 163.528 162.997C164.322 162.976 165.134 162.849 165.825 162.453C166.512 162.056 167.064 161.352 167.117 160.559C167.197 159.376 166.229 158.405 165.299 157.668H165.296Z" fill="#1A203A" stroke="#333757" stroke-width="2" mask="url(#path-1-inside-1_908_21849)"/>
<path d="M126.725 7.00195C126.495 7.35197 126.817 8.14534 126.264 8.98537C125.574 10.0354 123.272 11.5521 121.891 12.4855C120.509 13.4189 119.359 13.6522 119.474 14.7023C119.589 15.7523 119.819 18.7858 119.474 19.9525C119.198 20.8859 119.128 21.8193 119.128 22.1693C118.553 22.7526 117.195 24.176 116.366 25.2027C115.538 26.2295 114.87 26.875 114.64 27.0695L110.381 28.9362L109.921 29.9863C110.228 30.3752 110.75 31.433 110.381 32.5531C109.921 33.9531 110.036 36.1699 110.381 36.7532C110.727 37.3366 109.921 38.0366 109.576 38.8533C109.23 39.67 109.576 40.9534 109.576 41.7701C109.576 42.5868 109 43.2869 108.424 43.9869C107.849 44.6869 108.079 44.2202 108.424 44.8036C108.77 45.3869 108.77 45.6203 108.77 46.6703C108.77 47.7204 108.424 49.9371 108.424 51.1039C108.424 52.2706 108.309 53.904 108.77 54.604C109.138 55.164 108.923 55.6929 108.77 55.8874L106.238 58.2208C106.43 58.7264 106.882 59.7842 107.159 59.9709C107.504 60.2043 105.892 62.771 105.662 63.4711C105.432 64.1711 105.662 64.4044 104.511 64.5211C103.36 64.6378 102.325 64.8711 99.7924 66.5045C97.2603 68.1379 95.649 69.3046 94.3829 69.888C93.1169 70.4714 92.7716 71.6381 92.1961 72.4548C91.6206 73.2715 91.0451 74.3215 90.4697 74.9049C89.8942 75.4882 89.3187 76.3049 89.7791 76.4216C90.2395 76.5383 91.8508 76.4216 92.4262 77.1217C93.0017 77.8217 94.8432 82.3719 95.5338 83.0719C96.0863 83.6319 96.8382 84.3942 97.1452 84.7053C97.1835 85.2109 97.2372 86.3154 97.1452 86.6887C97.0301 87.1554 96.5697 87.2721 96.2244 88.4388C95.8791 89.6055 95.5338 91.8223 93.9225 94.039C92.3111 96.2558 90.6998 96.2558 90.3545 97.4225C90.0092 98.5892 89.6639 98.9393 89.6639 99.6393C89.6639 100.339 88.8583 100.689 88.8583 101.739C88.8583 102.789 89.3187 104.423 88.8583 105.006C88.3979 105.59 88.8583 105.94 88.6281 106.523C88.3979 107.106 87.7073 108.156 87.8224 109.44C87.9375 110.723 88.0526 112.707 88.8583 113.407C89.6639 114.107 91.6208 114.69 92.0812 114.807C92.273 114.923 92.7027 115.25 92.8868 115.623C93.117 116.09 93.9227 117.723 94.4982 117.957C94.9585 118.143 95.6875 118.735 95.9944 119.007C95.9177 119.279 95.7412 120.057 95.6491 120.99C95.534 122.157 95.8793 121.574 95.6491 122.974C95.465 124.094 95.3422 125.54 95.3038 126.124C96.2246 126.707 98.2503 128.037 98.9869 128.691C99.9077 129.507 99.6775 130.791 99.7926 131.841C99.9077 132.891 100.138 134.174 101.174 134.757C102.21 135.341 102.094 136.391 102.9 136.391C103.706 136.391 103.706 136.391 104.051 137.558C104.396 138.724 104.281 139.308 105.317 140.008C106.353 140.708 107.389 141.758 107.964 143.041" stroke="#333757" stroke-width="1.2" stroke-linejoin="round"/>
</svg>
