<svg width="224" height="202" viewBox="0 0 224 202" fill="none" xmlns="http://www.w3.org/2000/svg">
<mask id="path-1-inside-1_11418_68641" fill="white">
<path d="M182.602 53.5993C182.129 49.7499 185.357 46.84 183.478 43.4455C182.025 40.8222 179.596 36.5237 176.619 36.1515C175.205 35.9742 173.729 35.8058 172.391 36.2962C171.113 36.763 169.906 37.8325 168.533 37.218C167.615 36.8073 167.133 35.8118 167.237 34.8162C167.435 32.887 169.024 31.7467 170.589 30.8811C171.87 30.175 173.249 29.534 174.181 28.4084C175.764 26.4941 175.711 23.5959 177.338 21.717C177.954 21.0051 178.815 20.4319 178.43 19.1291C178.161 18.2192 177.436 17.5102 176.539 17.1941C174.013 16.2989 171.107 15.1822 168.479 16.4585C167.941 16.7185 167.367 16.9075 166.772 16.9607C162.798 17.3241 164.02 12.0094 160.822 11.2531C160.047 11.0699 159.224 11.2531 158.561 11.6933C156.981 12.7479 156.546 14.6712 156.656 16.4467C156.75 17.9681 157.203 19.4659 157.972 20.7805C158.845 22.2813 160.124 23.5634 160.366 25.3744C160.452 26.0214 160.351 26.692 160.017 27.2533C158.961 29.0318 156.745 28.497 155.596 27.2415C154.676 26.237 154.256 24.8899 153.765 23.6196C152.972 21.5634 151.942 19.5988 150.7 17.779C150.04 16.813 149.057 16.0862 147.918 15.8115C145.048 15.1202 143.527 17.6195 141.861 19.4452C140.474 20.9637 137.923 22.11 136.509 20.6181C136.148 18.3787 135.754 16.0597 134.47 14.1896C133.186 12.3196 130.733 11.0433 128.606 11.8321C126.818 12.4939 125.709 14.3905 123.919 15.0493C121.768 15.841 119.448 14.6239 117.48 13.4481C113.178 10.872 108.769 8.20135 105.725 4.22198C101.239 -1.6422 91.1994 -0.581624 84.4797 2.48784C82.0387 3.60159 79.7662 5.16439 77.1535 5.77592C74.8545 6.31359 72.4489 6.0743 70.1084 6.39335C65.7766 6.98125 61.9626 9.40964 58.1072 11.4628C54.2518 13.519 49.8904 15.2856 45.6089 14.4053C43.5525 13.9799 41.4132 12.9606 39.4544 13.7169C38.62 14.0389 37.9394 14.6505 37.2796 15.2502C35.4984 16.8662 33.7171 18.4821 31.9388 20.0981C30.2996 21.587 28.6426 23.0937 27.4058 24.9283C24.7044 28.9372 24.296 34.051 24.5268 38.8783C24.6333 41.0851 24.8523 43.3333 23.8522 45.4219C23.5918 45.9685 23.2368 46.4707 22.79 46.8813C20.4465 49.0291 17.4255 47.7351 15.2774 46.0453C13.5109 44.6568 11.8924 42.9226 9.73537 42.2904C8.75598 42.0039 7.62864 41.9684 6.88892 43.0644C6.40071 43.7853 6.32082 44.707 6.58416 45.5371C7.11972 47.224 8.60803 48.2521 9.88035 49.4013C11.0018 50.4176 12.0551 51.7529 11.9516 53.2625C11.78 55.7086 8.87433 56.8637 6.45397 57.2714C4.0336 57.6791 1.13093 58.2374 0.237349 60.5211C-0.410647 62.1784 0.358668 63.9864 1.45345 65.4547C4.16083 66.1814 6.32673 67.6054 8.07839 69.7826C11.9309 74.5744 18.8783 76.6808 26.2164 75.2805L26.7194 75.183C28.2432 74.8846 29.9712 74.5449 31.7998 74.8462C35.7114 75.4932 38.0667 78.5479 40.1468 81.2392C40.709 81.966 41.2386 82.6543 41.783 83.2776C46.0941 88.2201 53.4588 90.2349 59.6902 88.1758C62.4804 87.2541 65.0221 85.6174 67.7147 83.8862C70.641 82.0014 73.668 80.0546 77.1831 78.9674C82.2073 77.4135 87.8351 77.7946 93.4599 80.0693C98.2385 82.0014 102.917 85.2215 106.988 89.3782C115.539 98.108 119.516 108.365 117.9 117.517C116.64 124.664 112.275 130.433 108.056 136.014C107.426 136.847 106.799 137.677 106.183 138.51C97.2946 150.543 90.5809 164.286 84.0892 177.577C83.382 179.025 82.6511 180.523 82.5505 181.941C82.3049 185.444 85.829 188.387 89.208 189.639C91.2437 190.393 93.4156 190.812 95.7146 191.255C98.0137 191.699 100.393 192.156 102.715 192.987C107.053 194.538 112.817 198.759 116.862 202C116.826 200.777 116.678 199.557 116.409 198.363C116.066 196.845 116.72 194.727 117.859 193.663L123.359 188.508C123.88 188.021 124.579 187.734 125.292 187.784C128.558 188.02 126.881 194.086 130.434 194.065C131.18 194.059 131.878 193.731 132.437 193.241C134.251 191.648 136.799 190.969 139.166 191.391C139.968 191.533 140.811 191.796 141.542 191.081C142.018 190.614 142.216 189.935 142.157 189.27C142 187.465 140.45 186.162 140.196 184.428C139.935 182.661 141.139 180.957 142.651 180.003C144.163 179.051 145.951 178.667 147.664 178.156C151.22 177.09 154.585 175.394 157.552 173.169C159.606 171.63 161.479 169.837 163.677 168.508C166.032 167.084 168.911 166.221 171.557 167.113C172.998 167.601 174.495 167.867 176.01 167.985C176.969 168.059 177.688 168.457 178.489 167.737C179.865 166.499 178.898 165.193 179.268 163.37C179.646 161.488 179.22 158.635 178.176 157.025C177.321 155.707 178.347 154.543 177.202 153.4C174.205 150.404 171.758 146.865 170.015 143.007C169.417 141.683 169.417 140.171 169.965 138.826C171.536 134.962 172.995 130.554 176.377 127.94C178.004 126.681 179.972 125.934 181.655 124.752C183.342 123.574 184.807 121.718 184.623 119.671C184.298 116.07 179.498 114.643 178.054 111.328C177.312 109.63 177.619 107.526 178.812 106.108C180.004 104.69 182.031 104.028 183.833 104.466C184.41 103.514 184.236 102.173 183.434 101.402C182.931 100.917 182.212 100.634 182.292 99.6501C182.348 98.9617 182.8 98.3709 183.428 98.0755C185.02 97.3251 186.768 98.0961 188.369 97.653C188.677 97.5673 188.99 97.4226 189.153 97.1508C189.354 96.8199 189.283 96.4004 189.195 96.0223C188.067 91.1891 185.026 86.8287 180.877 84.096C179.581 83.2422 178.146 82.5095 177.211 81.2717C175.818 79.4283 175.921 76.6099 177.448 74.8758C178.401 73.7916 179.765 73.1653 180.856 72.2229C181.463 71.7 181.179 70.4739 180.703 69.2686C180.17 67.9185 179.188 66.8107 177.989 65.9923C176.102 64.7043 174.823 62.4413 174.64 60.2138C174.566 59.3069 175.128 58.4354 176.013 58.2168C177.217 57.9213 177.972 59.0469 178.599 59.9657C180.735 63.0913 184.114 65.3483 187.825 66.1194C188.721 66.3055 189.748 66.3941 190.307 65.2567C190.514 64.8343 190.571 64.3587 190.511 63.8919C189.908 59.0765 183.197 58.3438 182.614 53.5993H182.602ZM203.306 56.6185C203.797 56.7544 204.335 56.6658 204.812 56.8489C205.235 57.0114 205.563 57.3748 205.992 57.5196C206.904 57.8239 207.797 57.0646 208.46 56.3704C208.768 56.0484 209.084 55.7057 209.191 55.2743C209.392 54.4442 208.676 53.6318 208.049 53.1798C207.782 52.9877 207.483 52.8164 207.167 52.6746C205.788 52.0572 204.033 51.9685 202.868 52.9553C201.717 53.9302 201.853 56.2108 203.309 56.6185H203.306ZM194.544 137.677C194.018 137.355 193.352 137.311 192.757 137.234C192.142 137.154 191.633 137.698 191.304 138.224C190.878 138.915 190.553 139.778 190.872 140.522C191.153 141.181 191.843 141.547 192.485 141.866C193.307 142.274 194.171 142.691 195.092 142.679C196.154 142.664 196.974 142.067 197.062 141.157C197.086 140.921 197.056 140.661 196.971 140.389C196.601 139.207 195.553 138.295 194.544 137.68V137.677ZM223.674 46.8577C223.136 46.001 221.976 45.7676 220.964 45.8532C219.807 45.9507 218.857 46.7513 217.73 47.032C216.57 47.3215 215.428 48.6273 216.129 49.8297C216.313 50.1428 216.57 50.4087 216.786 50.7012C217.301 51.4013 217.177 52.1547 218.174 52.4087C219.547 52.7603 221.148 53.0941 222.39 52.1901C223.37 51.4781 223.754 50.2048 223.929 49.0084C224.035 48.2787 224.071 47.481 223.677 46.8577H223.674ZM221.358 121.275C220.396 121.275 219.369 121.89 219.44 123.089C219.488 123.925 220.316 124.611 221.154 124.578C221.991 124.546 222.734 123.857 222.911 123.039C223.166 121.854 222.293 121.275 221.361 121.275H221.358ZM208.945 99.1538C207.17 98.0755 205.344 96.687 203.279 96.2409C202.566 96.0873 197.858 95.2305 196.805 97.8923C196.03 99.851 198.619 101.03 200.506 101.972C202.394 102.917 204.442 103.606 206.084 104.926C207.421 106.002 208.445 107.467 209.925 108.333C211.265 109.116 212.851 109.337 214.39 109.541C215.064 109.63 215.836 109.695 216.345 109.243C216.816 108.826 216.881 108.132 216.916 107.505C217.183 102.693 212.508 101.316 208.945 99.1508V99.1538Z"/>
</mask>
<path d="M182.602 53.5993C182.129 49.7499 185.357 46.84 183.478 43.4455C182.025 40.8222 179.596 36.5237 176.619 36.1515C175.205 35.9742 173.729 35.8058 172.391 36.2962C171.113 36.763 169.906 37.8325 168.533 37.218C167.615 36.8073 167.133 35.8118 167.237 34.8162C167.435 32.887 169.024 31.7467 170.589 30.8811C171.87 30.175 173.249 29.534 174.181 28.4084C175.764 26.4941 175.711 23.5959 177.338 21.717C177.954 21.0051 178.815 20.4319 178.43 19.1291C178.161 18.2192 177.436 17.5102 176.539 17.1941C174.013 16.2989 171.107 15.1822 168.479 16.4585C167.941 16.7185 167.367 16.9075 166.772 16.9607C162.798 17.3241 164.02 12.0094 160.822 11.2531C160.047 11.0699 159.224 11.2531 158.561 11.6933C156.981 12.7479 156.546 14.6712 156.656 16.4467C156.75 17.9681 157.203 19.4659 157.972 20.7805C158.845 22.2813 160.124 23.5634 160.366 25.3744C160.452 26.0214 160.351 26.692 160.017 27.2533C158.961 29.0318 156.745 28.497 155.596 27.2415C154.676 26.237 154.256 24.8899 153.765 23.6196C152.972 21.5634 151.942 19.5988 150.7 17.779C150.04 16.813 149.057 16.0862 147.918 15.8115C145.048 15.1202 143.527 17.6195 141.861 19.4452C140.474 20.9637 137.923 22.11 136.509 20.6181C136.148 18.3787 135.754 16.0597 134.47 14.1896C133.186 12.3196 130.733 11.0433 128.606 11.8321C126.818 12.4939 125.709 14.3905 123.919 15.0493C121.768 15.841 119.448 14.6239 117.48 13.4481C113.178 10.872 108.769 8.20135 105.725 4.22198C101.239 -1.6422 91.1994 -0.581624 84.4797 2.48784C82.0387 3.60159 79.7662 5.16439 77.1535 5.77592C74.8545 6.31359 72.4489 6.0743 70.1084 6.39335C65.7766 6.98125 61.9626 9.40964 58.1072 11.4628C54.2518 13.519 49.8904 15.2856 45.6089 14.4053C43.5525 13.9799 41.4132 12.9606 39.4544 13.7169C38.62 14.0389 37.9394 14.6505 37.2796 15.2502C35.4984 16.8662 33.7171 18.4821 31.9388 20.0981C30.2996 21.587 28.6426 23.0937 27.4058 24.9283C24.7044 28.9372 24.296 34.051 24.5268 38.8783C24.6333 41.0851 24.8523 43.3333 23.8522 45.4219C23.5918 45.9685 23.2368 46.4707 22.79 46.8813C20.4465 49.0291 17.4255 47.7351 15.2774 46.0453C13.5109 44.6568 11.8924 42.9226 9.73537 42.2904C8.75598 42.0039 7.62864 41.9684 6.88892 43.0644C6.40071 43.7853 6.32082 44.707 6.58416 45.5371C7.11972 47.224 8.60803 48.2521 9.88035 49.4013C11.0018 50.4176 12.0551 51.7529 11.9516 53.2625C11.78 55.7086 8.87433 56.8637 6.45397 57.2714C4.0336 57.6791 1.13093 58.2374 0.237349 60.5211C-0.410647 62.1784 0.358668 63.9864 1.45345 65.4547C4.16083 66.1814 6.32673 67.6054 8.07839 69.7826C11.9309 74.5744 18.8783 76.6808 26.2164 75.2805L26.7194 75.183C28.2432 74.8846 29.9712 74.5449 31.7998 74.8462C35.7114 75.4932 38.0667 78.5479 40.1468 81.2392C40.709 81.966 41.2386 82.6543 41.783 83.2776C46.0941 88.2201 53.4588 90.2349 59.6902 88.1758C62.4804 87.2541 65.0221 85.6174 67.7147 83.8862C70.641 82.0014 73.668 80.0546 77.1831 78.9674C82.2073 77.4135 87.8351 77.7946 93.4599 80.0693C98.2385 82.0014 102.917 85.2215 106.988 89.3782C115.539 98.108 119.516 108.365 117.9 117.517C116.64 124.664 112.275 130.433 108.056 136.014C107.426 136.847 106.799 137.677 106.183 138.51C97.2946 150.543 90.5809 164.286 84.0892 177.577C83.382 179.025 82.6511 180.523 82.5505 181.941C82.3049 185.444 85.829 188.387 89.208 189.639C91.2437 190.393 93.4156 190.812 95.7146 191.255C98.0137 191.699 100.393 192.156 102.715 192.987C107.053 194.538 112.817 198.759 116.862 202C116.826 200.777 116.678 199.557 116.409 198.363C116.066 196.845 116.72 194.727 117.859 193.663L123.359 188.508C123.88 188.021 124.579 187.734 125.292 187.784C128.558 188.02 126.881 194.086 130.434 194.065C131.18 194.059 131.878 193.731 132.437 193.241C134.251 191.648 136.799 190.969 139.166 191.391C139.968 191.533 140.811 191.796 141.542 191.081C142.018 190.614 142.216 189.935 142.157 189.27C142 187.465 140.45 186.162 140.196 184.428C139.935 182.661 141.139 180.957 142.651 180.003C144.163 179.051 145.951 178.667 147.664 178.156C151.22 177.09 154.585 175.394 157.552 173.169C159.606 171.63 161.479 169.837 163.677 168.508C166.032 167.084 168.911 166.221 171.557 167.113C172.998 167.601 174.495 167.867 176.01 167.985C176.969 168.059 177.688 168.457 178.489 167.737C179.865 166.499 178.898 165.193 179.268 163.37C179.646 161.488 179.22 158.635 178.176 157.025C177.321 155.707 178.347 154.543 177.202 153.4C174.205 150.404 171.758 146.865 170.015 143.007C169.417 141.683 169.417 140.171 169.965 138.826C171.536 134.962 172.995 130.554 176.377 127.94C178.004 126.681 179.972 125.934 181.655 124.752C183.342 123.574 184.807 121.718 184.623 119.671C184.298 116.07 179.498 114.643 178.054 111.328C177.312 109.63 177.619 107.526 178.812 106.108C180.004 104.69 182.031 104.028 183.833 104.466C184.41 103.514 184.236 102.173 183.434 101.402C182.931 100.917 182.212 100.634 182.292 99.6501C182.348 98.9617 182.8 98.3709 183.428 98.0755C185.02 97.3251 186.768 98.0961 188.369 97.653C188.677 97.5673 188.99 97.4226 189.153 97.1508C189.354 96.8199 189.283 96.4004 189.195 96.0223C188.067 91.1891 185.026 86.8287 180.877 84.096C179.581 83.2422 178.146 82.5095 177.211 81.2717C175.818 79.4283 175.921 76.6099 177.448 74.8758C178.401 73.7916 179.765 73.1653 180.856 72.2229C181.463 71.7 181.179 70.4739 180.703 69.2686C180.17 67.9185 179.188 66.8107 177.989 65.9923C176.102 64.7043 174.823 62.4413 174.64 60.2138C174.566 59.3069 175.128 58.4354 176.013 58.2168C177.217 57.9213 177.972 59.0469 178.599 59.9657C180.735 63.0913 184.114 65.3483 187.825 66.1194C188.721 66.3055 189.748 66.3941 190.307 65.2567C190.514 64.8343 190.571 64.3587 190.511 63.8919C189.908 59.0765 183.197 58.3438 182.614 53.5993H182.602ZM203.306 56.6185C203.797 56.7544 204.335 56.6658 204.812 56.8489C205.235 57.0114 205.563 57.3748 205.992 57.5196C206.904 57.8239 207.797 57.0646 208.46 56.3704C208.768 56.0484 209.084 55.7057 209.191 55.2743C209.392 54.4442 208.676 53.6318 208.049 53.1798C207.782 52.9877 207.483 52.8164 207.167 52.6746C205.788 52.0572 204.033 51.9685 202.868 52.9553C201.717 53.9302 201.853 56.2108 203.309 56.6185H203.306ZM194.544 137.677C194.018 137.355 193.352 137.311 192.757 137.234C192.142 137.154 191.633 137.698 191.304 138.224C190.878 138.915 190.553 139.778 190.872 140.522C191.153 141.181 191.843 141.547 192.485 141.866C193.307 142.274 194.171 142.691 195.092 142.679C196.154 142.664 196.974 142.067 197.062 141.157C197.086 140.921 197.056 140.661 196.971 140.389C196.601 139.207 195.553 138.295 194.544 137.68V137.677ZM223.674 46.8577C223.136 46.001 221.976 45.7676 220.964 45.8532C219.807 45.9507 218.857 46.7513 217.73 47.032C216.57 47.3215 215.428 48.6273 216.129 49.8297C216.313 50.1428 216.57 50.4087 216.786 50.7012C217.301 51.4013 217.177 52.1547 218.174 52.4087C219.547 52.7603 221.148 53.0941 222.39 52.1901C223.37 51.4781 223.754 50.2048 223.929 49.0084C224.035 48.2787 224.071 47.481 223.677 46.8577H223.674ZM221.358 121.275C220.396 121.275 219.369 121.89 219.44 123.089C219.488 123.925 220.316 124.611 221.154 124.578C221.991 124.546 222.734 123.857 222.911 123.039C223.166 121.854 222.293 121.275 221.361 121.275H221.358ZM208.945 99.1538C207.17 98.0755 205.344 96.687 203.279 96.2409C202.566 96.0873 197.858 95.2305 196.805 97.8923C196.03 99.851 198.619 101.03 200.506 101.972C202.394 102.917 204.442 103.606 206.084 104.926C207.421 106.002 208.445 107.467 209.925 108.333C211.265 109.116 212.851 109.337 214.39 109.541C215.064 109.63 215.836 109.695 216.345 109.243C216.816 108.826 216.881 108.132 216.916 107.505C217.183 102.693 212.508 101.316 208.945 99.1508V99.1538Z" fill="#1A203A" stroke="#333757" stroke-width="2" mask="url(#path-1-inside-1_11418_68641)"/>
<path d="M161.85 55.733C161.759 56.0991 161.603 56.996 161.713 57.6549C161.85 58.4785 161.713 58.7531 161.164 59.4395C160.615 60.1259 160.203 60.9495 160.203 61.7732C160.203 62.4321 158.83 63.4205 158.144 63.8324C157.457 64.0612 155.92 64.6011 155.261 64.9306C154.437 65.3424 153.614 66.8525 152.653 67.4016C151.692 67.9507 151.554 69.0489 150.868 68.7744C150.182 68.4998 148.397 69.3235 147.985 69.3235H146.75C146.612 69.5523 146.256 70.0099 145.926 70.0099C145.514 70.0099 145.24 69.7353 144.279 70.0099C143.51 70.2295 143.135 70.4675 143.043 70.559C142.952 70.9708 142.659 71.8494 142.22 72.069C141.67 72.3436 139.611 72.4809 139.474 72.2063C139.337 71.9318 139.337 71.5199 138.788 71.6572C138.239 71.7945 137.278 70.8335 136.728 70.6963C136.179 70.559 136.042 70.9708 134.395 70.6963C132.747 70.4217 132.61 70.2844 132.473 70.0099C132.336 69.7353 131.924 69.7353 131.649 70.0099C131.375 70.2844 131.375 70.8335 130.688 70.6963C130.002 70.559 129.59 70.2844 128.766 70.559C127.943 70.8335 127.394 71.3826 126.433 71.3826C125.472 71.3826 123.824 71.6572 123.413 71.6572C123.001 71.6572 122.726 71.9318 122.726 72.6181C122.726 73.3045 122.863 76.3246 123.413 78.6584C123.852 80.5253 123.596 82.2733 123.413 82.914C123.092 83.4631 122.424 84.8358 122.314 85.9341C122.177 87.3068 120.942 87.3068 120.392 88.2678C119.953 89.0365 119.203 90.51 118.882 91.1506C118.791 92.02 118.525 93.9511 118.196 94.7198C117.784 95.6808 117.925 96.6355 116.823 97.4654C115.213 98.6775 115.412 98.7254 115 99M24 46L27.5975 44.6135C27.5975 44.284 27.1399 43.6526 26.9111 43.378L28.1466 41.5934C28.4669 41.7764 29.2723 42.0327 29.9312 41.5934C30.7549 41.0443 31.304 40.7697 31.7159 40.0833C32.1277 39.397 32.4022 39.397 33.5005 39.2597C34.5987 39.1224 39.8105 38.0243 40.6342 38.2988C41.4579 38.5734 42.6934 37.887 43.1052 37.3379C43.517 36.7888 44.3407 35.8278 44.3407 35.1414C45.3016 35.4617 47.5805 36.1024 49.0081 36.1024H51.4791C51.7537 36.4227 52.4126 37.0633 52.8519 37.0633C53.2912 37.0633 53.4925 36.6972 53.5383 36.5142C53.6756 36.8345 54.0325 37.3379 54.362 36.7888C54.7738 36.1024 55.3229 34.7296 55.7347 34.5923C56.0642 34.4825 56.0551 34.9126 56.0093 35.1414C55.5975 35.6905 55.0209 36.569 56.0093 35.6905C57.2448 34.5923 56.9702 34.3177 56.9702 33.7686C57.2906 33.7686 58.1508 33.7137 59.0294 33.494C60.1276 33.2195 61.0886 33.494 62.1868 32.6704V32.1212L63.6969 29.9248L65.6188 28.2775L67.6779 29.1011C67.861 29.0096 68.3643 28.8815 68.9134 29.1011C69.5998 29.3757 70.5608 29.3757 72.4826 29.513C74.4045 29.6503 76.7383 30.7485 77.9738 31.023C79.2092 31.2976 80.3075 32.6704 80.9939 33.494C81.6803 34.3177 82.6412 34.7295 83.053 35.4159C83.4649 36.1024 84.1512 36.1024 84.7004 36.1024C85.1396 36.1024 86.3477 37.109 86.8968 37.6124C87.0798 38.1157 87.5832 39.1499 88.1323 39.2597C88.6814 39.3695 89.4593 39.58 89.7796 39.6715L92.1133 42.0052C92.5251 42.0052 93.4586 42.0601 93.8979 42.2798C94.447 42.5543 95.1334 42.6916 95.957 42.6916C96.7807 42.6916 95.5452 43.378 95.4079 43.7898C95.2706 44.2017 95.2706 47.2218 95.1334 48.1827C94.9961 49.1437 95.6825 53.262 95.4079 54.3602C95.1334 55.4584 94.5843 55.733 94.447 56.9685C94.3097 58.204 95.2706 58.0667 94.8588 58.8904C94.447 59.714 94.5842 61.3614 95.4079 62.3223C96.2316 63.2833 96.7807 63.2833 96.6434 64.3815C96.5061 65.4797 96.6434 69.598 96.5061 70.0099C96.3963 70.3393 95.3622 70.9708 94.8588 71.2454V71.9318L93.6233 73.5791L91.976 76.3246L92.5 79M96.2316 42.8289C96.4604 42.7832 97.1102 42.774 97.8789 43.1035C98.6477 43.4329 102.409 44.7966 104.194 45.4372C105.383 46.3066 107.928 48.2102 108.587 48.8691C109.41 49.6928 108.861 50.2419 110.097 50.791C111.332 51.3401 114.764 52.9874 115.588 53.1247C116.411 53.262 118.196 53.262 118.882 54.0857C119.569 54.9093 119.843 55.4584 121.079 55.733C122.314 56.0075 123.687 56.2821 124.785 56.0076C124.968 56.3736 125.472 57.2156 126.021 57.6549C126.707 58.204 127.394 58.8904 128.492 58.8904C129.37 58.8904 130.322 59.0734 130.688 59.1649C130.78 59.3937 131.073 59.8788 131.512 59.9886C131.951 60.0984 131.695 60.4004 131.512 60.5377C131.878 60.4462 132.747 60.2906 133.297 60.4004C133.983 60.5377 134.807 60.2632 135.218 60.8123C135.63 61.3614 136.042 61.9105 137.827 62.185C139.611 62.4596 139.886 62.8714 140.435 63.2833C140.984 63.6951 141.259 63.8324 141.396 64.2442C141.854 64.29 142.906 64.2991 143.455 63.9697C144.141 63.5578 144.553 63.6951 145.377 63.6951C146.201 63.6951 147.162 62.8714 147.711 62.8714C148.26 62.8714 149.221 63.2833 149.358 62.7342C149.495 62.185 150.182 61.6359 150.456 61.3614C150.731 61.0868 150.044 59.9886 150.456 59.9886C150.868 59.9886 150.044 59.714 150.594 59.1649C151.143 58.6158 151.554 58.7531 151.966 57.7922C152.296 57.0234 152.653 56.7397 152.79 56.6939V56.1448L153.888 56.2821C153.98 56.3736 154.218 56.5841 154.437 56.6939C154.657 56.8038 154.712 56.4651 154.712 56.2821L157.457 53.6738L160.615 56.6939L161.988 55.5957H162.262C162.216 54.589 162.29 52.3285 162.949 51.3401C163.607 50.3517 166.884 47.5421 168.44 46.2608L168.028 45.9863L168.714 45.2999L168.5 38M79.2093 6.17578L79.4838 7.54856C79.6211 7.86887 80.0329 8.61932 80.582 9.05861C81.1311 9.4979 81.4515 9.97379 81.543 10.1568V12.216L81.8175 12.4906V14.1379C81.9548 14.6412 82.3666 15.8401 82.9157 16.6089C83.6021 17.5698 83.7394 19.3544 84.014 20.4527C84.2885 21.5509 84.014 26.081 84.014 28.9639C84.014 31.8467 84.5631 32.8076 84.014 34.7295C83.9682 35.0041 83.8492 35.5806 83.7394 35.6905C83.6296 35.8003 83.4191 35.7362 83.3276 35.6905M126.433 187.52V186.833L125.746 186.147L125.884 184.362L125.472 183.813C125.563 183.447 125.691 182.605 125.472 182.166C125.197 181.617 125.334 181.342 125.746 180.93C126.158 180.518 125.609 179.832 126.021 179.42C126.433 179.008 127.256 178.734 127.119 177.636C127.009 176.757 126.616 176.354 126.433 176.263C125.975 176.354 124.895 176.455 124.236 176.125C123.413 175.714 123.275 175.027 122.04 174.204C120.804 173.38 119.432 172.694 119.432 171.183C119.432 169.673 118.608 166.516 119.02 165.967C119.432 165.418 119.02 164.045 118.471 163.221C117.921 162.398 117.784 162.123 117.921 161.437C118.059 160.75 117.098 159.789 117.098 158.828C117.098 157.868 116.823 156.769 116.274 155.671C115.725 154.573 115.725 153.612 115.862 152.926C116 152.239 115.862 151.278 115.45 150.729C115.039 150.18 114.901 149.219 114.764 148.121C114.627 147.023 114.627 147.16 114.078 146.336C113.638 145.677 113.346 145.146 113.254 144.963C112.888 145.055 111.991 145.101 111.332 144.552C110.508 143.865 110.234 143.865 109.548 143.865C108.861 143.865 108.861 143.453 108.175 143.179C107.626 142.959 104.32 143 104 143M118.5 108L119.706 106.5L124.785 103.917L125.197 103.231C125.701 103.414 126.845 103.67 127.394 103.231C128.08 102.682 128.217 101.996 129.041 101.309C129.865 100.623 130.688 99.9364 130.688 98.2891C130.688 96.9712 130.78 96.3672 130.826 96.2299C130.917 96.3672 131.182 96.5594 131.512 96.2299C131.924 95.8181 132.61 95.6808 133.571 95.9554C134.34 96.175 135.173 96.0469 135.493 95.9554C135.63 96.2299 136.124 96.8064 137.003 96.9163C138.101 97.0535 139.749 97.1908 139.886 97.1908C140.023 97.1908 140.71 98.289 141.808 98.8382C142.686 99.2774 144.004 99.6618 144.553 99.7991L144.965 100.348H147.848C148.26 100.348 148.672 101.172 149.221 100.348C149.77 99.5245 150.731 98.2891 151.143 98.2891C151.554 98.2891 151.966 98.2891 152.241 98.8382C152.515 99.3873 153.339 99.5245 153.614 99.3873C153.888 99.25 154.025 99.25 154.025 99.7991C154.025 100.348 153.888 99.7991 154.712 99.7991C155.536 99.7991 155.261 99.3873 156.359 99.3873H161.713L162.125 99.5245C162.582 99.2957 163.607 98.8382 164.047 98.8382C164.596 98.8382 165.145 98.8382 165.557 98.2891C165.969 97.7399 165.969 97.4654 165.969 96.9163C165.969 96.3672 166.655 96.3672 167.479 96.6417C168.302 96.9163 169.263 97.3281 169.538 97.4654C169.812 97.6027 170.087 97.1908 169.538 96.9163C168.989 96.6417 167.341 95.818 167.067 95.4062C166.847 95.0767 166.518 94.9944 166.38 94.9944L167.067 94.7198C167.204 94.9029 167.616 95.2689 168.165 95.2689C168.851 95.2689 170.773 95.1317 171.048 95.2689C171.268 95.3788 172.787 95.5893 173.519 95.6808C174.068 95.4062 175.194 94.5551 175.304 93.3471C175.441 91.837 175.029 91.1506 175.166 90.6015C175.304 90.0524 175.853 89.9151 176.402 89.7778C176.951 89.6406 179.285 89.2287 179.559 88.9542C179.779 88.7345 179.925 88.7711 179.971 88.8169L179.696 88.4051V88.2678H180.657V87.856L180.246 87.0323L180.383 86.7577H181.206L181.481 86.0714M118.5 118.5C118.912 118.408 119.377 118.249 119.706 118.469C120.118 118.743 120.667 119.293 121.491 119.155C122.314 119.018 124.236 118.331 126.295 118.469C128.355 118.606 132.198 120.253 132.885 120.528C133.571 120.803 133.983 120.94 134.257 121.489C135.539 121.672 138.293 122.011 139.062 121.901C140.023 121.764 140.572 121.626 140.984 121.901C141.396 122.175 143.867 121.626 144.141 121.901C144.416 122.175 144.691 122.724 144.691 123.411V124.646C145.285 125.012 146.612 125.937 147.162 126.706C147.711 127.474 149.495 129.771 150.319 130.824C150.868 131.007 152.158 131.373 152.927 131.373L152.79 133.844C152.607 133.981 152.296 134.366 152.515 134.805C152.79 135.354 152.653 135.491 152.79 135.903C152.927 136.315 153.202 136.727 152.79 137.55C152.378 138.374 152.378 138.511 152.79 138.923C153.202 139.335 155.124 140.021 156.771 141.943L156.222 142.63L156.771 143.316C156.817 143.591 156.963 144.25 157.183 144.689C157.457 145.238 157.732 145.513 157.732 145.924C157.732 146.336 158.556 145.924 159.242 146.473C159.928 147.023 160.615 146.885 160.889 147.434C161.164 147.984 161.438 147.984 162.125 148.121C162.674 148.231 163.269 148.533 163.498 148.67C163.406 149.173 163.278 150.262 163.498 150.592C163.772 151.004 163.635 152.102 163.635 152.376C163.635 152.596 163.269 152.743 163.086 152.788C163.269 152.88 163.635 153.145 163.635 153.475C163.635 153.886 164.184 153.063 164.459 153.475C164.678 153.804 164.825 154.253 164.87 154.436C165.557 154.756 167.067 155.397 167.616 155.397C168.302 155.397 168.577 155.671 168.989 155.946C169.401 156.22 169.675 156.495 169.675 155.946C169.675 155.506 171.048 154.756 171.734 154.436C171.872 154.527 172.283 154.655 172.833 154.436C173.519 154.161 176.088 154 176.5 154" stroke="#333757" stroke-width="1.2" stroke-linecap="round"/>
</svg>
