<svg width="708" height="822" viewBox="0 0 708 822" fill="none" xmlns="http://www.w3.org/2000/svg">
<path d="M291.959 160.877V151.734C291.959 148.574 291.959 147.521 290.444 144.887C288.93 142.254 290.444 140.674 292.712 135.934C294.98 131.194 299.032 129.614 301.139 128.034C303.245 126.454 303.772 124.347 305.878 124.347H310.618V122.24H306.932V119.08H308.512V116.974H305.878C304.649 115.92 301.455 113.919 298.505 114.34C294.819 114.867 291.959 117.5 290.444 123.294C288.93 129.087 285.866 128.034 283.233 128.034C280.6 128.034 279.02 125.4 276.386 120.66C273.753 115.92 270.593 114.34 266.38 111.707C263.01 109.6 259.709 103.456 258.481 100.647C257.427 100.12 255.005 98.6455 253.741 96.9602C252.161 94.8535 247.948 93.2735 243.208 91.6935C238.468 90.1134 235.308 85.3734 232.149 85.3734C229.621 85.3734 226.531 86.0756 225.302 86.4267L223.722 86.9534L218.983 78L216.876 79.0533L221.616 89.0601L220.036 90.1134L219.509 91.6935C218.245 93.8001 214.418 93.6246 212.663 93.2735L209.503 94.8535L208.45 91.6935L206.87 93.2735L208.45 99.0669C207.572 99.9446 205.079 102.122 202.13 103.807C199.181 105.492 195.635 105.211 194.23 104.86V106.967C194.757 106.967 196.126 107.494 197.39 109.6C198.97 112.234 198.444 112.76 197.39 114.34C196.548 115.604 195.986 119.08 195.81 120.66V125.4C195.81 128.56 192.651 130.14 195.81 131.194C198.97 132.247 198.444 132.774 197.39 134.881C196.337 136.987 197.39 137.514 198.444 139.621C199.497 141.727 197.39 143.307 195.81 144.887C194.23 146.467 198.444 148.047 195.81 149.627C193.704 150.891 192.124 153.665 191.597 154.894C191.246 155.07 190.228 155.526 188.964 155.947C187.384 156.474 186.857 158.054 181.064 158.054C175.271 158.054 177.378 159.107 175.798 160.161C174.218 161.214 167.372 162.267 163.685 159.107C159.999 155.947 159.999 158.581 158.946 162.267C157.892 165.954 154.206 165.954 151.573 168.496C149.466 170.53 145.78 169.755 144.2 169.114C143.673 170.178 143.041 172.615 144.726 173.854C146.833 175.403 147.359 178.594 146.306 182.808C145.253 187.021 144.2 184.388 142.62 182.808C141.04 181.228 141.04 179.648 139.986 178.594C138.933 177.541 133.667 177.541 133.667 179.648C133.667 181.754 129.98 186.494 128.927 186.494C127.874 186.494 124.714 185.968 124.714 187.544C124.714 189.12 117.868 196.501 116.814 197.554C115.761 198.608 112.601 194.921 112.601 196.501C112.601 198.081 111.021 199.134 109.441 197.554C107.861 195.974 105.755 198.608 104.175 199.134C102.595 199.661 104.702 203.875 104.702 206.508C104.702 209.141 101.015 211.248 97.8552 212.828C94.6954 214.408 83.6359 217.041 80.476 219.148C77.3162 221.255 75.7363 222.308 74.1564 221.255C72.5764 220.201 71.5232 219.148 69.4166 220.201C67.31 221.255 65.2035 221.255 63.0969 220.201C60.9903 219.148 57.3039 219.148 56.2506 220.201C55.1973 221.255 54.6707 225.995 53.6172 228.628C52.5641 231.261 52.5641 240.735 52.5641 243.898V243.902C52.5641 247.062 53.6172 249.168 50.4575 251.275C47.2979 253.382 45.7178 255.488 45.7178 258.122C45.7178 260.755 45.7178 262.335 43.0846 264.442C40.4513 266.548 40.4513 269.182 40.4513 272.868C40.4513 276.555 36.7644 280.242 35.1849 283.402C33.6055 286.562 33.6045 290.775 35.1849 292.882C36.7654 294.989 36.7649 297.095 35.1849 298.149C33.921 298.991 34.6583 304.118 35.1849 306.575C36.5893 307.804 40.346 310.578 44.1378 311.842C47.9296 313.106 51.3353 316.582 52.5641 318.162C52.213 319.567 51.9321 322.692 53.6172 323.956C55.7236 325.536 57.3039 331.856 59.9371 334.489C62.5703 337.122 60.4637 339.229 61.5168 342.916C62.5699 346.603 59.4104 347.656 56.2506 351.343C53.0907 355.029 54.6706 357.663 54.144 361.349C53.6174 365.036 53.6172 367.669 50.4573 371.356C47.2975 375.043 47.2975 374.516 47.8241 377.149C48.3508 379.783 50.4573 380.836 53.6172 383.47C56.777 386.103 58.8836 390.316 61.5168 396.11C64.15 401.903 65.7299 401.903 70.4697 403.483C75.2095 405.063 80.4759 402.43 83.6357 403.483C86.7956 404.536 89.9554 407.17 91.5353 406.116C93.1152 405.063 102.595 405.063 103.648 406.116C104.701 407.17 107.861 408.223 109.441 407.17C111.021 406.116 113.654 406.643 115.234 407.17C116.814 407.696 118.921 408.223 117.867 410.856C116.814 413.49 117.341 417.177 118.394 419.283C119.447 421.39 119.974 421.917 118.394 424.023C116.814 426.13 117.341 426.657 118.921 427.71C120.501 428.763 122.08 428.237 122.08 430.343C122.08 432.029 124.187 435.61 125.24 437.19C128.927 444.037 126.82 442.457 125.24 444.563C123.66 446.67 124.714 447.197 123.66 449.83C122.607 452.463 104.701 464.577 102.595 465.63C100.91 466.473 100.488 469.493 100.488 470.897C101.19 474.233 102.805 481.43 103.648 483.537C104.701 486.17 105.228 491.964 105.755 499.864C106.281 507.764 112.601 511.451 117.341 515.664C122.08 519.877 119.974 519.877 119.974 527.251C119.974 534.624 124.187 532.518 127.347 534.624C130.507 536.731 132.613 538.311 133.667 540.418C134.72 542.524 135.773 545.158 139.46 546.211C143.146 547.264 142.619 549.898 145.779 552.004C148.939 554.111 148.939 551.478 149.992 550.424C151.046 549.371 149.992 547.791 151.572 544.104C153.152 540.418 157.365 540.418 158.945 541.471C160.209 542.314 160.876 541.12 161.052 540.418C161.754 540.769 163.264 541.26 163.685 540.418C164.212 539.364 167.898 536.731 170.005 534.624C172.111 532.518 172.111 531.464 172.638 530.411C173.165 529.358 174.745 529.358 176.851 530.411C178.536 531.254 179.66 533.571 180.011 534.624L183.171 535.151V532.518C185.453 531.289 191.07 528.094 195.284 525.144C200.55 521.457 202.13 517.244 208.45 515.137C214.769 513.031 222.142 514.084 228.462 514.611C234.782 515.137 234.255 513.557 236.362 513.031C238.468 512.504 237.941 515.137 240.048 515.137C241.733 515.137 242.506 516.542 242.681 517.244H251.634C251.634 519.772 253.038 522.511 253.741 523.564C254.618 523.213 256.163 522.511 255.321 522.511C254.478 522.511 253.916 519 253.741 517.244H273.753L276.913 516.191C278.844 514.786 283.022 511.661 284.286 510.397C285.55 509.133 290.43 509.52 292.712 509.871V513.031L295.345 518.824L294.292 520.931L295.345 522.511L299.032 519.877L297.979 518.824C296.925 517.244 294.292 510.924 295.345 507.237C296.399 503.551 297.979 500.391 304.825 499.337C311.671 498.284 314.304 502.497 319.571 503.024C324.837 503.551 331.157 500.917 336.423 501.444C341.69 501.971 347.483 508.291 348.536 509.871C349.379 511.135 349.238 513.206 349.063 514.084L351.696 515.137V514.084C352.749 512.504 352.749 509.344 353.802 508.291C354.856 507.237 354.856 510.924 354.329 513.031C353.802 515.137 356.962 516.717 360.122 519.877C363.282 523.037 364.335 522.511 364.335 525.671C364.335 528.831 365.389 529.884 366.968 532.518C368.548 535.151 368.022 538.838 366.442 540.944C365.178 542.63 360.649 549.02 358.542 552.004L356.962 549.898L354.856 551.478L356.962 553.584L352.749 555.691C349.063 557.271 345.376 563.065 345.903 566.751C346.324 569.701 345.025 571.14 344.323 571.491L341.163 569.911L339.583 571.491L342.216 573.598C339.408 576.231 333.263 582.867 331.157 588.345C329.05 593.822 328.875 603.618 329.05 607.832H325.89L324.311 609.412V611.518H316.938V607.832H315.358V613.625L329.05 613.098C329.226 616.434 329.682 624.053 330.104 627.845C330.63 632.585 327.997 637.852 324.311 639.959C321.361 641.644 320.624 643.47 320.624 644.172C320.449 647.332 319.781 654.179 318.517 656.285C316.938 658.919 317.991 664.712 316.938 668.399C315.884 672.086 315.358 688.939 315.358 698.419C315.358 707.899 314.831 710.533 312.724 714.219C310.618 717.906 309.565 722.646 309.038 725.279C308.511 727.913 305.351 728.439 305.878 730.019C306.405 731.599 307.985 731.073 309.565 731.073C311.145 731.073 311.145 733.706 314.304 734.233C317.464 734.759 319.571 735.813 322.731 737.393C325.89 738.973 328.524 742.66 331.684 743.713C334.843 744.766 336.423 742.66 337.477 741.606C338.53 740.553 339.583 737.919 343.27 738.446C346.956 738.973 346.956 737.393 348.536 736.339C350.116 735.286 353.802 736.339 356.436 737.393C359.069 738.446 365.915 738.446 367.495 737.919C369.075 737.393 375.921 736.866 378.028 736.339C380.134 735.813 378.555 732.653 379.081 730.019C379.608 727.386 379.608 725.279 382.241 725.279C384.791 725.279 386.848 722.809 389.367 719.783L389.614 719.486C392.247 716.326 391.721 712.113 393.827 708.953C395.934 705.793 403.307 704.213 405.413 702.633C407.52 701.052 406.466 696.839 409.626 693.152C412.786 689.466 413.839 686.832 415.419 683.672C416.999 680.512 415.946 677.879 418.053 675.246C420.159 672.612 427.005 669.979 431.745 667.346C436.485 664.712 439.645 661.552 443.858 658.919C448.071 656.285 453.338 657.865 455.444 659.445C457.551 661.025 461.237 663.132 465.45 664.712C469.663 666.292 469.137 664.712 473.35 663.132C477.563 661.552 481.249 659.972 485.989 660.499C490.729 661.025 490.202 658.919 494.415 656.812C498.629 654.705 501.788 654.705 507.055 654.705C512.321 654.705 516.008 654.179 517.061 653.125C518.114 652.072 520.221 651.019 524.434 650.492C528.647 649.965 530.754 651.019 530.754 653.125C530.754 655.232 531.807 656.285 532.86 658.919C533.703 661.025 532.509 662.605 531.807 663.132C533.387 663.132 535.493 665.239 538.127 667.346C540.76 669.452 540.76 676.299 542.34 677.879C543.92 679.459 544.973 677.352 548.133 678.406C551.293 679.459 556.559 679.459 560.246 679.459C563.932 679.459 565.512 678.406 572.358 678.406C579.205 678.406 580.785 679.986 586.051 680.512C591.317 681.039 593.951 679.459 596.057 680.512C598.164 681.566 598.164 683.146 600.797 682.092C603.43 681.039 609.75 677.352 612.91 675.246C616.07 673.139 619.756 673.666 622.916 673.666C626.076 673.666 625.549 673.666 625.549 669.452C625.549 665.239 628.182 662.079 631.869 658.919C635.555 655.759 637.662 654.179 639.242 652.072C640.822 649.965 639.768 644.172 639.768 640.485C639.768 636.799 643.455 634.692 641.348 633.639C639.242 632.585 638.188 631.005 635.555 627.845C632.922 624.685 630.289 627.318 630.289 621.525C630.289 615.732 632.395 610.992 633.449 606.778C634.502 602.565 636.609 599.932 636.609 595.718C636.609 591.505 637.135 590.451 639.768 587.818C642.402 585.185 644.508 582.551 647.668 577.811C650.828 573.071 650.828 569.385 651.354 565.698C651.881 562.011 649.775 556.744 648.721 553.058C647.668 549.371 648.721 541.471 648.721 537.258C648.721 533.044 648.195 531.991 645.561 530.411C642.928 528.831 642.928 526.724 644.508 523.037C646.088 519.351 644.508 513.557 643.982 509.871C643.455 506.184 643.982 504.604 645.561 501.444C647.141 498.284 646.615 493.017 647.141 488.277C647.668 483.537 645.561 481.957 642.928 480.377C640.295 478.797 641.348 477.744 641.348 474.584C641.348 471.424 642.928 467.21 641.348 464.05C639.768 460.89 640.822 460.364 643.982 457.204C647.141 454.044 648.195 452.99 652.408 453.517C656.621 454.044 657.148 453.517 658.201 449.83C659.254 446.143 661.361 446.67 663.467 442.457C665.574 438.243 663.467 437.19 668.207 431.397C672.947 425.603 672.947 419.81 672.947 413.49C672.947 407.17 674 405.063 674 400.85C674 396.636 674 386.103 672.947 382.416C671.893 378.729 670.314 368.196 669.26 362.929C668.207 357.663 666.627 355.029 663.467 353.976C660.307 352.923 660.307 353.976 657.674 352.923C655.041 351.869 653.988 349.763 651.881 352.923C649.775 356.083 641.348 355.029 637.662 355.029C633.975 355.029 631.869 354.503 626.602 356.083C621.336 357.663 620.809 351.869 618.176 349.763C615.543 347.656 618.703 341.862 617.123 340.809C615.543 339.756 613.963 340.809 612.383 338.702C610.803 336.596 611.33 336.069 609.75 338.702C608.17 341.336 603.43 337.649 600.797 337.122C598.164 336.596 594.477 332.909 591.844 331.329C589.211 329.749 585.524 329.222 582.891 331.329C580.258 333.436 578.151 331.329 575.518 329.222C572.885 327.116 557.612 324.482 554.453 323.429C551.293 322.376 551.819 316.582 549.713 313.949C547.606 311.316 536.547 306.575 533.387 304.995C530.227 303.415 526.541 302.889 524.434 302.889C522.327 302.889 518.641 298.783 517.588 300.255C516.534 301.728 515.481 304.469 512.321 302.889C509.161 301.309 509.688 298.783 511.268 297.259C512.848 295.735 513.901 289.722 512.321 290.249C510.741 290.775 507.055 288.142 503.895 288.142C500.735 288.142 492.309 288.669 489.149 288.142C485.989 287.615 482.829 283.545 481.249 283.545C479.67 283.545 478.09 282.875 478.09 280.769C478.09 278.662 477.563 277.082 476.51 278.662C475.456 280.242 472.297 280.769 470.19 280.769C468.505 280.769 469.137 277.96 469.663 276.555L467.557 275.502L463.87 278.662L461.764 276.555C460.71 276.555 458.393 276.661 457.551 277.082C456.708 277.503 456.146 280.042 455.971 281.259C455.62 281.259 454.391 281.161 452.284 280.769C449.651 280.278 450.704 279.189 451.758 276.555C452.811 273.922 450.704 272.868 448.598 272.116C446.913 271.514 447.193 268.856 447.544 267.602C446.842 267.426 444.911 267.18 442.805 267.602C440.698 268.023 438.767 269.182 438.065 269.708L435.065 272.116C432.541 272.116 426.282 272.573 421.436 274.402C415.379 276.687 418.407 277.449 415.379 281.259C412.35 285.068 410.835 281.259 407.05 283.545C403.264 285.83 400.992 293.449 397.963 294.973C394.935 296.497 376.005 297.259 369.948 298.783C365.102 300.002 362.881 298.275 362.376 297.259L359.348 291.926L347.99 283.545L344.961 281.259C343.699 279.481 340.267 275.925 336.632 275.925C332.998 275.925 328.051 272.37 326.032 270.592C325.527 271.608 324.063 273.335 322.246 272.116C319.974 270.592 315.431 272.116 312.403 270.592C309.374 269.068 310.888 268.306 307.86 267.544C304.831 266.783 303.316 265.259 301.802 262.211C300.288 259.163 305.588 257.64 306.345 255.354C306.951 253.525 303.569 253.068 301.802 253.068L303.316 250.021L301.802 236.306L300.288 231.735C300.035 230.719 298.773 228.382 295.745 227.163C291.959 225.639 290.444 222.592 288.173 218.782C286.356 215.735 287.416 210.401 288.173 208.115C288.173 206.338 287.87 202.173 286.658 199.734C285.446 197.296 288.677 194.147 290.444 192.877C290.444 191.607 289.99 188.763 288.173 187.544C286.356 186.325 287.416 176.877 288.173 172.306L290.444 168.496V163.925L291.959 160.877Z" fill="#1A203A" stroke="#333757" stroke-width="1.5" stroke-linejoin="round"/>
<path d="M266.862 517.24L268.062 515.743H268.961L269.561 513.648C268.761 513.548 267.102 512.81 266.862 510.655C266.562 507.961 268.062 507.063 267.162 501.376C266.262 495.689 265.361 490.6 266.262 487.607C267.162 484.614 273.459 479.525 274.959 475.634C276.458 471.743 275.258 470.247 273.159 468.151C271.06 466.056 270.46 464.26 270.76 460.968C271.06 457.675 270.46 457.975 268.361 456.478C266.262 454.981 267.761 453.485 268.361 452.886C268.96 452.287 269.56 451.689 268.96 449.893C268.361 448.097 268.96 446.9 270.76 446.6C272.559 446.301 283.656 446.9 284.855 446.002C286.055 445.104 289.654 440.015 289.654 438.519C289.654 437.022 288.754 433.73 290.853 433.131C292.953 432.532 296.552 430.737 296.252 429.839C295.952 428.941 295.052 423.254 293.253 422.356C291.453 421.458 286.055 418.764 284.855 416.968C283.656 415.172 283.056 413.376 278.557 411.58C274.059 409.784 272.259 408.886 268.361 405.893C264.462 402.9 262.063 399.607 261.463 398.111C260.863 396.614 260.263 395.417 258.464 393.322C256.664 391.227 256.065 389.431 253.965 388.832C251.866 388.233 247.667 385.54 245.268 385.54C243.349 385.54 236.471 385.54 233.272 385.54C232.272 386.437 229.733 388.533 227.574 389.73C224.875 391.227 222.176 392.125 219.476 394.519C216.777 396.914 214.978 398.41 213.778 399.607C212.579 399.707 209.52 399.368 206.88 397.213C203.582 394.519 199.083 393.322 196.384 393.322C196.284 392.424 195.664 390.388 193.985 389.431C191.885 388.233 193.685 386.737 190.086 384.642C186.487 382.546 185.887 381.349 184.988 379.553C184.088 377.757 182.288 376.261 179.889 375.363C177.49 374.465 177.19 371.472 175.99 369.975C175.031 368.778 173.391 366.084 172.691 364.887C172.492 364.687 171.912 364.348 171.192 364.587C170.292 364.887 169.692 366.682 168.193 366.682C166.693 366.682 166.693 367.579 165.794 368.777C164.894 369.975 163.394 371.77 160.695 372.968C157.996 374.165 157.096 377.457 155.597 378.954C154.397 380.151 152.298 381.847 151.398 382.546C151.598 383.144 151.638 384.521 150.199 385.24C148.399 386.138 142.401 390.328 141.202 390.927C140.002 391.525 140.902 392.724 138.203 393.322C135.503 393.92 134.004 394.219 133.104 395.716C132.205 397.213 125.307 408.886 123.807 409.185C122.308 409.484 120.508 409.185 119.009 409.784C118.757 409.755 118.265 409.784 118.265 409.784" stroke="#333757" stroke-width="1.5" stroke-linejoin="round"/>
<path d="M362.308 296.53L365.78 301.95L362.308 304.66H359.607L357.293 307.37H354.978L351.12 309.305L347.262 304.66L346.105 313.177L337.617 318.596C336.717 318.209 333.991 317.667 330.287 318.596C326.583 319.525 325.658 318.984 325.658 318.596L323.343 321.693L318.327 324.016L323.343 345.695L318.327 347.631C320.642 347.115 325.58 346.237 326.815 346.857C327.201 348.663 328.204 352.431 329.13 353.05C329.001 357.438 328.358 366.987 326.815 370.084L330.287 376.665C329.644 378.085 329.053 381.543 331.83 384.02C334.608 386.498 334.788 388.666 334.531 389.44L326.815 399.118L318.327 401.441V406.087C317.427 407.119 315.318 409.648 314.084 411.506C312.541 413.829 307.525 426.217 303.281 430.863C302.522 430.336 300.687 429.388 299.423 429.809C297.844 430.336 296.79 430.336 296.264 429.809M171.976 364.502C170.125 361.405 168.51 358.986 166.71 355.373V345.695L171.725 342.211C172.754 339.372 175.275 332.843 177.126 329.436C179.441 325.178 181.37 318.596 184.842 317.048C188.314 315.499 190.629 313.177 191.401 310.08C192.172 306.983 193.33 306.983 196.03 308.144C198.731 309.305 209.533 306.596 215.32 305.434C221.107 304.273 228.437 303.886 231.524 304.66L232.295 303.499C233.453 304.015 235.922 304.428 236.539 301.95C237.156 299.472 236.796 298.595 236.539 298.466L240.397 295.369C240.911 293.433 241.477 289.252 239.625 288.014C240.268 288.401 241.709 288.401 242.326 285.304C243.097 281.432 243.869 278.723 246.57 278.723C249.27 278.723 250.813 278.723 251.971 277.174C253.128 275.626 258.143 276.013 258.915 276.013C259.687 276.013 260.458 279.885 264.316 276.013C268.174 272.141 273.189 266.334 275.89 265.172L277.819 259.366L290.164 253.172V249.688L297.494 251.623L299.038 249.688L301.003 250.214L303.11 249.688" stroke="#333757" stroke-width="1.5" stroke-linejoin="round"/>
<path d="M297.846 228.634L292.234 228.4H288.843C289.126 229.402 289.098 231.49 286.724 231.833C283.758 232.263 280.791 233.979 278.672 233.55L268.925 238.27L256.634 239.558L254.515 241.274H251.972L243.072 233.55V229.688L240.106 225.826H237.563C236.998 224.109 235.274 220.762 232.901 221.105C229.934 221.534 228.663 221.104 226.968 218.529C225.273 215.954 221.882 214.667 215.525 213.38C209.168 212.092 199.42 214.667 192.64 212.092C185.859 209.517 172.297 206.513 162.549 197.931L159.583 192.781L154.073 187.632L155.768 184.199C157.181 183.912 160.261 182.654 161.278 179.907C162.295 177.161 162.549 174.185 162.549 173.041L161.278 171.754L162.549 170.037C162.832 167.462 162.634 161.884 159.583 160.167" stroke="#333757" stroke-width="1.5" stroke-linejoin="round"/>
<path d="M340.055 502.873L338.815 495.415H337.162C338.539 494.863 340.799 493.261 338.815 491.272C336.831 489.283 335.508 488.786 335.095 488.786C336.197 488.924 338.154 488.537 337.162 485.886C336.169 483.234 336.748 481.742 337.162 481.328C335.646 480.499 332.614 478.345 332.614 476.356C332.614 474.367 333.717 471.108 334.268 469.727C332.339 468.622 328.48 466.081 328.48 464.755C328.48 463.097 332.614 460.612 332.614 458.54C332.614 456.468 329.307 456.468 329.307 454.397C329.307 452.325 327.24 451.911 327.24 449.01C327.24 446.11 330.134 445.696 329.307 442.795C328.48 439.895 326.827 438.238 330.547 438.238C333.524 438.238 339.78 438.238 342.536 438.238C343.5 439.619 345.76 441.967 347.083 440.309C348.736 438.238 349.977 440.309 351.217 440.309C352.209 440.309 355.213 440.309 356.591 440.309C356.591 440.724 357.335 441.552 360.311 441.552C364.032 441.552 364.445 439.481 368.992 439.481C372.63 439.481 375.469 439.481 376.433 439.481C377.398 440.171 380.154 441.801 383.461 442.795C386.768 443.79 390.626 445.419 392.142 446.11C392.004 447.077 392.473 449.01 395.449 449.01C398.425 449.01 401.925 447.905 403.303 447.353C403.855 448.872 405.37 451.828 407.024 451.496C408.677 451.165 409.642 451.911 409.918 452.325C409.366 452.049 408.429 452.076 409.091 454.397C409.752 456.717 412.949 458.678 414.465 459.369C414.465 460.335 415.374 462.186 419.012 461.855C423.559 461.44 427.693 464.755 431.414 468.484C435.134 472.213 435.548 472.627 438.441 472.213C441.335 471.798 439.268 474.699 442.575 473.456C445.882 472.213 455.804 470.97 460.764 469.727C465.725 468.484 466.138 472.627 471.099 473.456C476.059 474.284 478.953 475.942 487.221 473.456C495.489 470.97 497.556 467.241 500.449 466.826C503.343 466.412 507.89 466.826 511.611 464.34C515.331 461.855 520.705 460.197 527.319 461.026C533.934 461.855 536.827 464.34 540.961 463.097C545.095 461.855 547.575 461.44 548.816 459.369C550.056 457.297 551.709 460.197 553.776 459.369C555.843 458.54 560.39 459.783 565.764 458.126C571.138 456.468 575.272 455.64 577.339 456.883C579.406 458.126 581.473 459.369 583.54 458.126C585.607 456.883 586.434 459.369 588.501 458.126C590.568 456.883 597.595 456.054 600.902 453.982C603.548 452.325 606.414 448.872 607.516 447.353H612.89C614.406 448.734 617.851 451.496 619.505 451.496C621.572 451.496 629.839 447.353 632.32 447.353C634.8 447.353 634.387 449.839 636.867 451.496C639.347 453.154 642.241 456.054 644.721 455.64" stroke="#333757" stroke-width="1.5" stroke-linejoin="round"/>
<path d="M328.387 439.287C325.578 439.287 319.539 438.971 317.854 437.707C316.169 436.443 314.694 437.18 314.168 437.707L311.008 435.602H308.901L303.635 430.862" stroke="#333757" stroke-width="1.5" stroke-linejoin="round"/>
<path d="M400.267 292.884L399.492 294.99L400.267 299.495L403.546 306.711L396.332 312.616L409.449 323.112H410.761C411.198 324.752 412.531 328.623 414.368 330.985H411.744C411.744 332.516 411.744 335.905 411.744 337.217C411.744 338.857 415.024 341.153 413.384 346.402C412.072 350.6 414.368 352.743 415.679 353.29C415.679 354.055 415.876 355.717 416.663 356.242C417.647 356.898 419.942 359.194 420.27 360.834C420.533 362.146 422.128 364.443 422.894 365.427C423.44 365.208 424.73 364.377 425.517 362.803C426.501 360.834 426.829 360.178 429.124 360.178C431.42 360.178 438.634 360.834 439.946 360.178C441.257 359.522 444.536 358.866 445.52 360.178C446.504 361.49 447.16 363.459 445.52 364.771C444.208 365.82 443.662 366.739 443.553 367.067L449.455 374.611V382.812C450.439 382.921 452.734 383.336 454.046 384.124C455.686 385.108 456.342 386.092 457.325 385.108C458.309 384.124 460.932 383.796 462.244 384.78C463.293 385.567 468.365 389.7 470.77 391.668H474.049C477.438 392.98 484.412 395.932 485.199 397.244C486.182 398.885 488.478 402.821 489.462 403.149C490.445 403.477 491.429 403.477 492.413 405.117C493.397 406.757 495.036 408.397 496.348 408.397C497.66 408.397 506.513 406.757 509.137 406.429C511.76 406.101 512.088 405.445 513.4 406.429C514.711 407.413 522.91 412.005 528.812 413.317C531.435 413.645 536.945 414.105 537.994 413.317C539.306 412.333 540.617 410.693 542.913 412.005C545.208 413.317 546.52 413.973 547.504 413.317C548.487 412.661 549.143 412.333 551.439 413.317C553.734 414.301 556.03 414.957 557.997 414.301C559.965 413.645 561.276 413.645 563.9 414.957C566.523 416.269 572.753 420.534 577.016 421.19C581.279 421.846 590.461 420.862 593.412 421.518C596.364 422.174 602.266 423.486 603.25 426.11C604.234 428.734 602.266 433.326 603.906 438.247C605.218 442.183 607.076 446.01 607.841 447.431" stroke="#333757" stroke-width="1.5" stroke-linejoin="round"/>
</svg>
