<svg width="182" height="314" viewBox="0 0 182 314" fill="none" xmlns="http://www.w3.org/2000/svg">
<mask id="path-1-inside-1_5372_41040" fill="white">
<path d="M21.8878 10.0155C22.8695 10.6357 24.1077 11.2737 25.1277 10.7155C26.1949 10.1336 26.2863 8.66279 26.242 7.4489C26.2332 7.19785 26.2155 6.92612 26.0593 6.72824C25.9384 6.57761 25.7497 6.49786 25.5699 6.42993C25.5699 6.42993 24.3995 6.10504 23.238 6.31178C22.2386 6.48899 21.3395 7.20966 21.0329 8.18137C20.9327 8.5033 20.8944 8.86363 21.0211 9.1767C21.1774 9.55475 21.5429 9.79694 21.8878 10.0126V10.0155ZM32.8014 13.7222C34.0425 14.5905 35.2924 15.45 36.5601 16.277C37.1084 16.6343 37.6833 16.974 38.3289 17.0626C39.0393 17.1601 39.8589 16.8647 40.136 16.2031C40.5045 15.323 39.8383 14.1386 40.478 13.4327C41.1825 12.653 42.8393 13.2644 43.2963 12.3163C43.4643 11.9707 43.367 11.5779 43.3169 11.188C43.2609 10.7539 42.8511 10.4526 42.4296 10.5619C41.8429 10.7155 41.2327 11.1585 40.6165 11.3091C39.5022 11.5838 38.3878 10.8602 37.5683 10.0509C36.1385 8.64507 34.1604 6.99111 32.0496 6.71347C29.6234 6.39449 29.5291 9.39527 30.3398 11.2501C30.8115 12.3281 31.8374 13.0517 32.7955 13.7192L32.8014 13.7222ZM42.3735 5.6118C42.7981 5.6945 43.2491 5.75654 43.6559 5.60886C43.9507 5.49958 44.1984 5.28692 44.4047 5.04769C45.2036 4.10847 45.3687 2.6642 44.7673 1.58321C44.4372 0.830066 43.9301 0.398839 43.5822 0.203907C43.1577 -0.0323748 42.7096 -0.0205507 42.2527 0.0296592C42.0493 0.0532873 41.8459 0.0828225 41.6395 0.103497C40.6814 0.195056 40.0623 0.954099 39.6879 1.78995C39.3341 2.57853 39.3312 3.55025 39.8117 4.26795C40.363 5.09198 41.4037 5.42277 42.3765 5.6118H42.3735ZM63.499 310.377C63.0479 310.846 62.8003 311.469 62.5645 312.078C62.3787 312.559 62.1989 313.126 62.4731 313.563C62.7826 314.057 63.5049 314.08 64.0532 313.888C65.4476 313.401 66.4499 311.839 67.1604 310.545C67.8266 309.331 64.4571 309.381 63.496 310.377H63.499ZM181.767 257.497C180.812 251.888 177.587 246.601 174.745 241.938C170.352 234.734 165.376 226.568 164.061 217.444C163.849 215.979 163.737 214.517 163.628 213.102C163.507 211.537 163.392 210.057 163.156 208.598C162.189 202.626 159.238 197.162 156.114 191.376C152.255 184.229 148.263 176.839 148.357 168.395C148.396 164.99 149.018 161.534 149.619 158.194C150.669 152.366 151.659 146.861 149.613 142.147C148.493 139.566 146.27 137.268 142.615 134.914C141.332 134.09 140.088 133.508 138.773 132.891C136.966 132.046 135.1 131.169 133.169 129.66C132.067 128.797 130.873 128.026 129.605 127.208C128.108 126.242 126.412 125.15 124.641 123.744C121.749 121.452 119.688 118.622 118.512 115.338C117.545 112.633 117.946 108.985 118.335 105.456C118.521 103.769 118.697 102.177 118.665 101.037C118.491 94.6781 118.294 87.4715 120.304 80.7641C120.634 79.6624 120.967 77.6511 121.318 75.5216C121.908 71.9538 122.515 68.2648 123.5 66.218C125.145 62.7949 126.896 59.3511 128.588 56.0195C130.268 52.7116 132.008 49.2914 133.632 45.9155C134.797 43.4936 133.19 40.0528 131.636 36.7271C131.268 35.9356 130.885 35.1175 130.548 34.3289C128.856 30.3416 127.105 26.2156 124.169 23.2C122.094 21.0676 119.367 19.452 116.725 17.8896C113.365 15.8989 109.892 13.8403 106.269 12.4581C104.795 11.894 103.288 11.4391 101.693 10.9547C100.532 10.6033 99.332 10.237 98.144 9.82943C96.2867 9.18852 94.4707 8.44128 92.7137 7.72062C90.8359 6.94975 89.0612 6.22023 87.2245 5.60295C78.242 2.5815 64.9553 2.62875 54.9704 2.88571C54.9645 2.89752 54.9586 2.90934 54.9527 2.9241C54.6225 3.61818 54.2835 4.32997 53.7381 4.87342C53.0335 5.57636 52.0607 5.92783 51.2647 6.51853C49.8821 7.54045 49.1304 9.1767 48.2253 10.6387C47.3203 12.1007 46.032 13.5479 44.3251 13.7192C44.1276 13.7399 43.9065 13.7488 43.768 13.8905C43.5822 14.0766 43.6353 14.3867 43.7149 14.6378C44.4961 17.0921 46.7572 19.006 49.3014 19.3723C50.4304 19.5347 51.6185 19.4225 52.6709 19.8684C54.1774 20.5064 55.0382 22.184 55.1767 23.8173C55.3124 25.4506 54.8554 27.0691 54.3985 28.6434C53.6497 31.2129 52.8744 33.812 51.4829 36.0951C50.0885 38.3781 47.9866 40.3481 45.3953 41.0038C42.3293 41.7806 38.5971 40.3452 37.81 37.0313C37.583 36.0774 37.1025 35.1913 36.3272 34.5976C34.2724 33.0323 32.5537 34.893 31.914 36.674C31.4128 38.068 31.1918 39.6482 30.1599 40.7055C29.1105 41.7806 27.3269 42.203 26.8199 43.6147C26.5103 44.4772 26.7963 45.4725 26.4779 46.332C26.13 47.2712 25.1542 47.8117 24.2138 48.1454C23.0641 48.556 21.8023 48.807 21.0182 49.8437C20.6526 50.3281 20.5023 50.9631 20.7086 51.5331C21.0359 52.4487 21.9615 52.5757 22.7516 52.8415C24.3465 53.3761 25.6554 54.6993 26.1742 56.3001C26.7845 58.1785 26.1359 60.122 25.2928 61.9059C24.4497 63.6898 23.2734 65.3674 22.9403 67.3138C22.6691 68.9087 22.9933 70.5656 22.7074 72.1575C22.2593 74.6592 20.405 76.6351 18.6362 78.4544C16.8291 77.8165 15.4789 76.3102 14.335 74.7714C13.1912 73.2326 12.1476 71.5728 10.6353 70.3943C9.83638 69.7711 8.85764 69.3074 7.86121 69.1361C6.20443 68.8526 4.99869 70.6572 5.88604 72.0867C6.56409 73.1795 7.57525 74.225 8.12064 75.3887C9.2055 77.7072 8.34763 80.4422 7.34236 82.7961C6.59946 84.5328 5.75633 86.2695 4.42973 87.6133C3.507 88.5496 2.37791 89.2614 1.45814 90.2036C0.211128 91.4824 -0.664431 93.3963 0.662173 95.1123C1.09258 95.6705 1.69103 96.0781 2.34843 96.3232C4.36192 97.0705 6.51397 96.4 8.4744 95.8654C9.10527 95.6941 9.78626 95.7443 10.3582 96.0633C11.446 96.6688 11.3045 97.735 11.0686 98.6447C10.6353 100.313 9.81869 102.035 8.27983 102.812C6.26044 103.834 3.30064 103.102 2.11259 105.134C1.64976 105.925 1.64681 106.9 1.98583 107.753C2.69925 109.549 4.30886 110.527 5.67674 111.726C10.8534 116.268 12.2773 123.643 13.3946 130.445C14.7006 138.396 13.6039 146.53 14.4647 154.543C15.2342 161.705 18.4121 168.351 21.5429 174.834C22.6307 177.087 23.7244 179.35 25.1306 181.42C27.0675 184.27 29.5762 186.719 31.292 189.705C32.6304 192.035 33.444 194.622 34.2488 197.186L36.0678 202.981C36.9639 205.831 37.9486 208.832 40.1802 210.816C44.3664 214.544 51.9192 213.832 54.6048 218.755C56.2115 221.703 55.2092 225.289 54.0241 228.481C53.29 230.457 54.0653 233.113 55.787 234.326C57.3553 235.431 59.3894 235.771 61.288 235.49C62.4642 235.316 63.611 234.92 64.799 234.902C65.9871 234.888 67.296 235.369 67.7913 236.45C68.5076 238.018 67.2813 240.195 68.4605 241.453C68.8201 241.837 69.3272 242.029 69.7782 242.295C71.0429 243.045 71.8861 244.581 71.5618 246.016C71.0223 248.406 68.0301 249.132 66.2111 250.772C64.5013 252.313 63.8704 255.051 65.0084 257.057C66.845 260.294 72.1248 260.625 73.3217 264.148C73.7639 265.451 73.5016 266.874 73.2333 268.221C72.7027 270.897 72.1661 273.596 71.1225 276.119C70.6155 277.347 69.9846 278.547 69.7782 279.858C69.563 281.234 69.8283 282.637 70.0937 284.005C70.4533 285.856 70.813 287.708 71.1697 289.563C71.3731 290.615 71.5972 291.707 72.2575 292.546C73.1773 293.713 74.7191 294.132 76.0339 294.823C77.7762 295.739 79.1676 297.186 80.624 298.533C84.7777 293.595 89.1761 288.76 93.5244 285.759C99.3674 281.724 106.003 280.13 111.728 281.388C113.718 281.825 115.643 282.578 117.504 283.308C121.097 284.716 124.201 285.933 126.908 284.74C129.576 283.565 130.888 280.36 132.279 276.966C132.801 275.693 133.34 274.376 133.968 273.13C135.035 271.015 136.262 269.462 137.712 268.386C141.147 265.843 145.996 265.708 152.125 267.985C153.599 268.534 155.061 269.137 156.473 269.721C159.468 270.962 162.299 272.131 165.27 272.82C168.021 273.458 173.227 274.119 177.162 271.361C181.455 268.351 182.563 262.231 181.755 257.5L181.767 257.497Z"/>
</mask>
<path d="M21.8878 10.0155C22.8695 10.6357 24.1077 11.2737 25.1277 10.7155C26.1949 10.1336 26.2863 8.66279 26.242 7.4489C26.2332 7.19785 26.2155 6.92612 26.0593 6.72824C25.9384 6.57761 25.7497 6.49786 25.5699 6.42993C25.5699 6.42993 24.3995 6.10504 23.238 6.31178C22.2386 6.48899 21.3395 7.20966 21.0329 8.18137C20.9327 8.5033 20.8944 8.86363 21.0211 9.1767C21.1774 9.55475 21.5429 9.79694 21.8878 10.0126V10.0155ZM32.8014 13.7222C34.0425 14.5905 35.2924 15.45 36.5601 16.277C37.1084 16.6343 37.6833 16.974 38.3289 17.0626C39.0393 17.1601 39.8589 16.8647 40.136 16.2031C40.5045 15.323 39.8383 14.1386 40.478 13.4327C41.1825 12.653 42.8393 13.2644 43.2963 12.3163C43.4643 11.9707 43.367 11.5779 43.3169 11.188C43.2609 10.7539 42.8511 10.4526 42.4296 10.5619C41.8429 10.7155 41.2327 11.1585 40.6165 11.3091C39.5022 11.5838 38.3878 10.8602 37.5683 10.0509C36.1385 8.64507 34.1604 6.99111 32.0496 6.71347C29.6234 6.39449 29.5291 9.39527 30.3398 11.2501C30.8115 12.3281 31.8374 13.0517 32.7955 13.7192L32.8014 13.7222ZM42.3735 5.6118C42.7981 5.6945 43.2491 5.75654 43.6559 5.60886C43.9507 5.49958 44.1984 5.28692 44.4047 5.04769C45.2036 4.10847 45.3687 2.6642 44.7673 1.58321C44.4372 0.830066 43.9301 0.398839 43.5822 0.203907C43.1577 -0.0323748 42.7096 -0.0205507 42.2527 0.0296592C42.0493 0.0532873 41.8459 0.0828225 41.6395 0.103497C40.6814 0.195056 40.0623 0.954099 39.6879 1.78995C39.3341 2.57853 39.3312 3.55025 39.8117 4.26795C40.363 5.09198 41.4037 5.42277 42.3765 5.6118H42.3735ZM63.499 310.377C63.0479 310.846 62.8003 311.469 62.5645 312.078C62.3787 312.559 62.1989 313.126 62.4731 313.563C62.7826 314.057 63.5049 314.08 64.0532 313.888C65.4476 313.401 66.4499 311.839 67.1604 310.545C67.8266 309.331 64.4571 309.381 63.496 310.377H63.499ZM181.767 257.497C180.812 251.888 177.587 246.601 174.745 241.938C170.352 234.734 165.376 226.568 164.061 217.444C163.849 215.979 163.737 214.517 163.628 213.102C163.507 211.537 163.392 210.057 163.156 208.598C162.189 202.626 159.238 197.162 156.114 191.376C152.255 184.229 148.263 176.839 148.357 168.395C148.396 164.99 149.018 161.534 149.619 158.194C150.669 152.366 151.659 146.861 149.613 142.147C148.493 139.566 146.27 137.268 142.615 134.914C141.332 134.09 140.088 133.508 138.773 132.891C136.966 132.046 135.1 131.169 133.169 129.66C132.067 128.797 130.873 128.026 129.605 127.208C128.108 126.242 126.412 125.15 124.641 123.744C121.749 121.452 119.688 118.622 118.512 115.338C117.545 112.633 117.946 108.985 118.335 105.456C118.521 103.769 118.697 102.177 118.665 101.037C118.491 94.6781 118.294 87.4715 120.304 80.7641C120.634 79.6624 120.967 77.6511 121.318 75.5216C121.908 71.9538 122.515 68.2648 123.5 66.218C125.145 62.7949 126.896 59.3511 128.588 56.0195C130.268 52.7116 132.008 49.2914 133.632 45.9155C134.797 43.4936 133.19 40.0528 131.636 36.7271C131.268 35.9356 130.885 35.1175 130.548 34.3289C128.856 30.3416 127.105 26.2156 124.169 23.2C122.094 21.0676 119.367 19.452 116.725 17.8896C113.365 15.8989 109.892 13.8403 106.269 12.4581C104.795 11.894 103.288 11.4391 101.693 10.9547C100.532 10.6033 99.332 10.237 98.144 9.82943C96.2867 9.18852 94.4707 8.44128 92.7137 7.72062C90.8359 6.94975 89.0612 6.22023 87.2245 5.60295C78.242 2.5815 64.9553 2.62875 54.9704 2.88571C54.9645 2.89752 54.9586 2.90934 54.9527 2.9241C54.6225 3.61818 54.2835 4.32997 53.7381 4.87342C53.0335 5.57636 52.0607 5.92783 51.2647 6.51853C49.8821 7.54045 49.1304 9.1767 48.2253 10.6387C47.3203 12.1007 46.032 13.5479 44.3251 13.7192C44.1276 13.7399 43.9065 13.7488 43.768 13.8905C43.5822 14.0766 43.6353 14.3867 43.7149 14.6378C44.4961 17.0921 46.7572 19.006 49.3014 19.3723C50.4304 19.5347 51.6185 19.4225 52.6709 19.8684C54.1774 20.5064 55.0382 22.184 55.1767 23.8173C55.3124 25.4506 54.8554 27.0691 54.3985 28.6434C53.6497 31.2129 52.8744 33.812 51.4829 36.0951C50.0885 38.3781 47.9866 40.3481 45.3953 41.0038C42.3293 41.7806 38.5971 40.3452 37.81 37.0313C37.583 36.0774 37.1025 35.1913 36.3272 34.5976C34.2724 33.0323 32.5537 34.893 31.914 36.674C31.4128 38.068 31.1918 39.6482 30.1599 40.7055C29.1105 41.7806 27.3269 42.203 26.8199 43.6147C26.5103 44.4772 26.7963 45.4725 26.4779 46.332C26.13 47.2712 25.1542 47.8117 24.2138 48.1454C23.0641 48.556 21.8023 48.807 21.0182 49.8437C20.6526 50.3281 20.5023 50.9631 20.7086 51.5331C21.0359 52.4487 21.9615 52.5757 22.7516 52.8415C24.3465 53.3761 25.6554 54.6993 26.1742 56.3001C26.7845 58.1785 26.1359 60.122 25.2928 61.9059C24.4497 63.6898 23.2734 65.3674 22.9403 67.3138C22.6691 68.9087 22.9933 70.5656 22.7074 72.1575C22.2593 74.6592 20.405 76.6351 18.6362 78.4544C16.8291 77.8165 15.4789 76.3102 14.335 74.7714C13.1912 73.2326 12.1476 71.5728 10.6353 70.3943C9.83638 69.7711 8.85764 69.3074 7.86121 69.1361C6.20443 68.8526 4.99869 70.6572 5.88604 72.0867C6.56409 73.1795 7.57525 74.225 8.12064 75.3887C9.2055 77.7072 8.34763 80.4422 7.34236 82.7961C6.59946 84.5328 5.75633 86.2695 4.42973 87.6133C3.507 88.5496 2.37791 89.2614 1.45814 90.2036C0.211128 91.4824 -0.664431 93.3963 0.662173 95.1123C1.09258 95.6705 1.69103 96.0781 2.34843 96.3232C4.36192 97.0705 6.51397 96.4 8.4744 95.8654C9.10527 95.6941 9.78626 95.7443 10.3582 96.0633C11.446 96.6688 11.3045 97.735 11.0686 98.6447C10.6353 100.313 9.81869 102.035 8.27983 102.812C6.26044 103.834 3.30064 103.102 2.11259 105.134C1.64976 105.925 1.64681 106.9 1.98583 107.753C2.69925 109.549 4.30886 110.527 5.67674 111.726C10.8534 116.268 12.2773 123.643 13.3946 130.445C14.7006 138.396 13.6039 146.53 14.4647 154.543C15.2342 161.705 18.4121 168.351 21.5429 174.834C22.6307 177.087 23.7244 179.35 25.1306 181.42C27.0675 184.27 29.5762 186.719 31.292 189.705C32.6304 192.035 33.444 194.622 34.2488 197.186L36.0678 202.981C36.9639 205.831 37.9486 208.832 40.1802 210.816C44.3664 214.544 51.9192 213.832 54.6048 218.755C56.2115 221.703 55.2092 225.289 54.0241 228.481C53.29 230.457 54.0653 233.113 55.787 234.326C57.3553 235.431 59.3894 235.771 61.288 235.49C62.4642 235.316 63.611 234.92 64.799 234.902C65.9871 234.888 67.296 235.369 67.7913 236.45C68.5076 238.018 67.2813 240.195 68.4605 241.453C68.8201 241.837 69.3272 242.029 69.7782 242.295C71.0429 243.045 71.8861 244.581 71.5618 246.016C71.0223 248.406 68.0301 249.132 66.2111 250.772C64.5013 252.313 63.8704 255.051 65.0084 257.057C66.845 260.294 72.1248 260.625 73.3217 264.148C73.7639 265.451 73.5016 266.874 73.2333 268.221C72.7027 270.897 72.1661 273.596 71.1225 276.119C70.6155 277.347 69.9846 278.547 69.7782 279.858C69.563 281.234 69.8283 282.637 70.0937 284.005C70.4533 285.856 70.813 287.708 71.1697 289.563C71.3731 290.615 71.5972 291.707 72.2575 292.546C73.1773 293.713 74.7191 294.132 76.0339 294.823C77.7762 295.739 79.1676 297.186 80.624 298.533C84.7777 293.595 89.1761 288.76 93.5244 285.759C99.3674 281.724 106.003 280.13 111.728 281.388C113.718 281.825 115.643 282.578 117.504 283.308C121.097 284.716 124.201 285.933 126.908 284.74C129.576 283.565 130.888 280.36 132.279 276.966C132.801 275.693 133.34 274.376 133.968 273.13C135.035 271.015 136.262 269.462 137.712 268.386C141.147 265.843 145.996 265.708 152.125 267.985C153.599 268.534 155.061 269.137 156.473 269.721C159.468 270.962 162.299 272.131 165.27 272.82C168.021 273.458 173.227 274.119 177.162 271.361C181.455 268.351 182.563 262.231 181.755 257.5L181.767 257.497Z" fill="#23254B" stroke="#666FBD" stroke-width="2" mask="url(#path-1-inside-1_5372_41040)"/>
<g opacity="0.95">
<path d="M54.998 30.3614C56.0028 30.3614 56.971 30.6633 57.9822 30.6101C58.4325 30.5864 58.6931 30.2172 59.1013 30.1265C59.6539 30.0037 60.2574 30.902 60.5796 31.218C62.4664 33.0685 62.5626 32.498 64.5723 31.6048C64.8665 31.474 65.1801 31.2263 65.498 31.1627C66.2901 31.0043 66.8621 31.8258 67.5565 31.8258C67.9072 31.8258 68.0858 31.3714 68.4822 31.3561C68.8768 31.3409 69.2752 31.3561 69.6703 31.3561C70.1273 31.3561 71.8794 31.6012 71.9085 31.1074C71.954 30.3333 71.7833 29.4953 71.9223 28.7311C72.0518 28.0188 73.0452 27.5687 73.6492 27.2667C74.6216 26.7805 74.9472 28.3235 76.0808 27.6259C77.0151 27.0509 78.2499 27.1285 79.3137 27.1285C80.3408 27.1285 80.6894 27.9628 81.386 28.5101C82.8364 29.6496 83.0793 31.0604 85.5307 30.3061C87.7532 29.6223 89.032 31.3561 91.1676 31.3561C92.9918 31.3561 95.0268 31.2076 96.1412 32.9587C96.4029 33.37 96.921 34.037 97.0392 34.4508C97.1184 34.728 97.1783 34.5123 97.8267 35.0311C98.5387 35.6007 101.291 35.4067 101.516 36.1916C101.716 36.8919 102.08 37.5501 102.51 38.1949C102.921 38.8106 105.171 41.2906 105.237 42.1153C105.284 42.6983 105.953 44.6123 106.591 44.4916C107.723 44.2773 109.922 44.4477 111.031 44.16C111.598 44.013 111.868 43.8008 112.468 43.8008C114.512 43.8008 115.201 43.5771 116.24 41.8113C116.843 40.7864 119.178 41.314 120.108 41.314C121.736 41.314 122.03 40.8123 122.388 39.2002C122.68 37.883 123.934 37.195 125.137 36.7271C126.113 36.3477 127.374 36.6301 128.398 36.5337C129.298 36.449 129.747 36.3018 130.608 36.589" stroke="#5F67B0" stroke-width="1.2" stroke-linecap="round"/>
<path d="M47.041 41.3047C47.4699 41.4 48.2265 42.5378 48.5331 42.9211C49.0266 43.5379 49.8483 43.6062 50.5364 43.9159C51.4561 44.3297 51.6285 44.1887 51.9041 45.1731C52.0561 45.7158 52.0733 46.3839 52.6226 46.5408C53.7923 46.8751 54.5015 47.766 54.5015 48.8895C54.5015 50.2393 55.3607 49.533 56.3252 50.1467C56.8991 50.512 56.2689 52.0579 56.5186 52.6197C56.7924 53.2358 57.9831 53.3545 57.9831 54.1118C57.9831 55.1289 57.6871 55.7283 58.8534 55.7283C59.86 55.7283 59.6215 59.5985 59.9725 60.5638C60.5429 62.1322 62.6838 64.6809 64.4764 64.6809C65.5043 64.6809 66.5003 64.9295 67.5297 64.9295C67.9032 64.9295 68.4818 64.8196 68.8007 65.0677C69.6212 65.7058 69.9694 66.173 71.0389 66.173C72.852 66.173 73.004 66.4436 74.479 67.6236C75.618 68.5348 76.6168 69.5787 77.7395 70.4973C78.6359 71.2307 79.549 71.7302 80.7513 72.0308C82.0409 72.3532 81.6694 72.5621 82.5474 73.44C83.5389 74.4315 83.0609 73.3616 83.9566 72.8874C84.8749 72.4012 85.4924 71.7109 86.5 71.5C87.5 71 87.5 70.5 88.5 70C89.3268 69.991 91.5539 70.9443 92.3013 71.34C93.075 71.7497 93.0306 72.6949 94.042 72.6387C94.9398 72.5888 95.8243 72.3339 96.7775 72.39C97.4243 72.4281 97.7368 73.5668 98.2696 73.6334C99.0398 73.7297 100.009 74.153 100.895 73.8268C101.552 73.5848 102.543 76.6106 102.995 77.115C103.805 78.0213 103.811 77.8337 104.929 78.165C105.657 78.3808 106.641 78.1975 107.222 78.7176C107.876 79.3022 109.2 82.0441 109.958 82.0886C110.99 82.1494 111.811 82.5295 112.748 82.8899C113.892 83.3297 114.131 84.3615 114.931 85.0728C115.667 85.7269 117.445 85.3038 118.164 84.8241" stroke="#5F67B0" stroke-width="1.2" stroke-linecap="round"/>
<path d="M7.99805 83.082C9.02713 83.082 10.2438 83.9513 11.1342 83.8143C12.0964 83.6662 12.5967 82.9872 13.4138 83.7728C13.8994 84.2398 14.0563 84.8947 14.5881 85.3202C14.8614 85.5388 14.5694 86.289 15.1546 85.7623C15.5534 85.4034 16.0796 85.6657 16.5776 85.555C17.4196 85.3679 17.9407 84.6595 18.6361 85.5689C19.0566 86.1187 19.3222 86.889 19.8381 87.3235C21.3137 88.566 21.88 87.2031 23.5407 87.5721C24.5215 87.7901 25.2441 89.2155 25.7927 89.9208C26.6889 91.0731 26.7699 91.2437 28.1275 90.7912C28.5662 90.645 29.1826 90.2885 29.5782 90.0451C30.4305 89.5207 30.4679 89.676 31.4709 90.1557C32.4633 90.6303 31.9836 90.4581 32.5071 89.9346C32.8918 89.5499 33.6008 89.884 33.8058 90.2938C34.3092 91.3007 34.8326 91.624 36.0439 92.0899C37.7194 92.7343 38.6513 92.8757 40.382 92.3386C40.8457 92.1947 41.3197 92.3349 41.7222 92.5734C42.7617 93.1894 43.7474 93.5748 44.8722 94.0103C45.5477 94.2717 45.8007 94.5971 46.3504 94.9635C47.1498 95.4965 48.9565 95.3707 49.9149 95.6681C50.9983 96.0044 52.1223 96.64 53.2583 96.7596C54.7197 96.9134 54.839 99.198 56.0491 99.2464C57.3413 99.2981 58.4228 99.352 59.6826 99.73C60.5152 99.9797 60.4163 100.405 60.9674 100.987C61.93 102.003 63.5029 102.036 64.6424 102.728C67.0163 104.169 68.449 106.184 70.5417 107.812C71.3736 108.459 72.9178 108.157 73.8989 108.448C74.8755 108.737 75.8671 108.95 76.8417 109.194C77.9081 109.46 78.7235 109.984 79.743 110.437C80.4264 110.741 81.05 110.686 81.8015 110.686C83.0337 110.686 84.3856 111.495 85.6699 111.667C86.9508 111.838 88.5 111.221 89.7179 110.934C90.7924 110.682 91.1453 110.333 91.8594 111.294C92.4158 112.043 92.8504 112.741 92.6745 113.656C92.4093 115.035 93.0758 115.753 93.31 117.041C93.5286 118.243 93.2232 119.84 94.5949 120.191C95.4722 120.415 96.8569 121.486 97.51 122.139C97.7622 122.391 98.5185 123.749 98.5185 123.617C98.5185 120.774 102.01 121.13 103.99 121.13C104.745 121.13 104.986 121.178 105.357 120.509C105.598 120.076 105.715 118.986 106.034 118.699C106.701 118.099 110.543 119.99 111.533 120.122C111.955 120.178 112.116 119.776 112.445 119.583C113.399 119.022 114.149 118.126 114.987 117.455C115.904 116.721 116.659 116.5 118 116.5" stroke="#5F67B0" stroke-width="1.2" stroke-linecap="round"/>
<path d="M98.0209 124.115C98.0209 125.239 97.769 125.876 97.2748 126.74C96.925 127.352 96.1034 127.415 95.6722 127.97C95.324 128.418 95.4736 129.7 95.6584 130.18C95.9006 130.81 94.2593 130.838 94.2906 131.935C94.3048 132.43 94.914 133.655 94.7327 134.063C94.4338 134.735 93.8435 135.283 93.5446 135.997C93.1568 136.923 92.5005 137.412 91.9144 138.166C91.6522 138.503 91.1622 138.906 90.8229 139.161C90.3105 139.545 90.4784 140.063 90.1874 140.528C89.8781 141.023 88.9127 143.761 88.6953 143.761C88.1207 143.761 88.3392 145.356 87.9354 145.875C87.3108 146.678 86.6392 146.643 86.5815 147.74C86.5421 148.489 85.803 149.232 85.0894 149.232C83.7063 149.232 82.3478 148.801 81.1243 148.113C80.6554 147.849 79.5182 147.176 79.2592 146.732C79.0426 146.36 78.9676 145.999 78.4717 145.999C77.6295 145.999 76.119 146.692 75.446 145.944C74.5134 144.908 74.2154 145.428 73.1526 144.949C70.6244 143.812 68.0554 142.001 66.8803 139.534C66.7137 139.184 66.4675 137.925 66.0514 137.807C65.2848 137.588 64.2513 137.825 63.4678 137.779C62.2729 137.709 61.328 137.153 60.2211 136.784C59.6935 136.608 59.3323 135.958 58.8396 135.817C57.9079 135.551 55.4506 134.992 54.6949 135.748C53.8062 136.637 52.8933 137.352 51.8212 138.041C51.0191 138.557 49.8194 138.259 48.9061 138.304C47.868 138.355 46.904 138.646 45.8942 138.801C44.6804 138.988 43.6148 139.863 42.3436 140.128C41.224 140.361 41.3563 137.492 40.9344 136.95C40.6974 136.645 38.6023 136.549 38.2127 136.549C37.6521 136.549 37.5608 136.758 37.0936 136.991C36.464 137.306 35.5519 136.975 34.8555 137.24C33.9533 137.584 32.9721 135.351 32.0647 135.61C30.3309 136.105 29.8982 136.574 28.3898 135.568C27.1204 134.722 26.5014 134.038 25.5437 132.819C25.2383 132.43 23.6818 131.747 23.1674 131.824C21.6426 132.053 21.2103 133.814 19.8793 133.814C18.9679 133.814 18.2184 133.257 17.199 133.316C16.114 133.38 15.6006 134.05 14.5 133.5" stroke="#5F67B0" stroke-width="1.2" stroke-linecap="round"/>
<path d="M85.3379 149.73C85.9994 150.081 86.8319 151.074 87.203 151.734C87.4422 152.159 87.579 152.674 88.1287 152.715C88.5872 152.749 89.2867 152.888 89.3168 153.461C89.3571 154.226 89.0027 155.524 89.6898 156.058C90.0182 156.313 90.3619 157.081 90.6984 157.177C91.2721 157.341 91.9234 157.325 92.5221 157.495C93.5995 157.801 95.8414 157.798 96.722 158.49C97.2623 158.914 97.6782 159.963 98.0207 160.562C98.3987 161.223 98.3655 162.285 98.822 162.855C99.2875 163.437 100.211 163.77 100.563 164.403C102.005 166.998 102.789 168.892 105.426 170.62C105.866 170.908 106.203 170.903 106.711 170.744C107.558 170.479 107.956 170.93 108.604 171.504C109.588 172.376 110.321 172.988 111.09 173.977C111.622 174.66 111.476 175.59 111.754 176.422C112.022 177.227 113.603 176.754 114.24 176.892C116.126 177.302 117.988 177.502 119.863 177.859C120.283 177.939 123.235 178.18 123.345 178.453C123.442 178.696 123.624 179.317 123.746 179.683C124.002 180.453 124.583 181.263 124.63 182.059C124.652 182.441 125.682 182.425 125.984 182.57C126.696 182.912 126.862 183.211 127.117 183.911C127.401 184.694 127.41 185.431 127.365 186.287C127.35 186.578 126.952 186.893 126.978 187.143C127.073 188.044 128.699 189.361 129.299 189.962C131.098 191.761 133.498 192.917 135.323 194.742C136.346 195.765 137.112 196.219 138.639 196.497C138.869 196.538 139.643 199.625 139.938 200.213C140.366 201.07 140.385 202.114 140.849 202.949C141.045 203.3 141.878 203.32 142.217 203.474C143.062 203.855 145.238 204.039 145.754 204.814C146.336 205.687 146.763 205.584 146.763 206.817C146.763 208.109 146.305 210.559 147.812 211.155C148.843 211.562 150.036 211.431 151.114 211.666C152.209 211.905 153.83 211.819 154.831 212.274C156.301 212.942 158.047 212.478 159.556 212.91C160.314 213.126 160.686 214.488 161.435 213.448C162.086 212.543 162.502 212.702 163 213.448" stroke="#5F67B0" stroke-width="1.2" stroke-linecap="round"/>
<path d="M86.084 151.471C85.1212 151.578 83.8649 153.979 83.0998 154.704C82.5467 155.228 81.5999 155.459 81.1656 156.002C80.9102 156.322 80.9517 157.99 80.8755 158.448C80.7434 159.24 81.1174 160.314 80.7235 161.045C79.9951 162.398 79.5386 163.709 78.4301 164.844C77.6962 165.596 76.8014 166.107 76.1367 166.889C75.4247 167.727 74.9399 169.399 74.6308 170.481C74.5826 170.65 69.6978 171.288 69.1874 171.351C67.9783 171.503 67.9072 171.163 67.3085 172.36C66.5848 173.807 65.2409 174.69 64.5039 176.09C64.1238 176.812 64.1999 177.837 64.1999 178.66C64.1999 180.464 66.6202 179.3 64.8355 181.409C64.0429 182.346 63.9513 182.871 63.9513 184.062C63.9513 185.126 63.4112 185.868 63.4539 186.977C63.4716 187.437 66.8338 189.486 67.4328 189.961C68.1997 190.57 68.8017 191.439 69.671 191.951C70.4975 192.437 70.1683 193.661 70.1683 194.493C70.1683 195.471 70.0571 196.693 70.4723 197.615C70.6863 198.091 71.2594 198.567 71.3703 199.066C71.4254 199.314 70.6794 199.201 70.5413 199.232C70.1476 199.319 69.6948 199.645 69.3808 199.881C68.0421 200.885 67.1954 202.215 65.6368 202.755C64.1427 203.272 63.4968 204.84 63.4539 206.319C63.4016 208.123 62.2105 209.686 62.2105 211.528C62.2105 212.498 62.2332 213.237 62.7217 214.125C63.0959 214.805 63.4539 215.247 63.4539 216.018C63.4539 217.167 63.4684 220.58 63.219 219.458C62.8774 217.92 61.8485 216.345 60.9671 215.023C60.6907 214.608 59.1826 212.921 58.7289 212.895C57.6379 212.835 56.4288 213.072 55.3579 212.84C54.5697 212.67 53.8732 212.277 53.1197 212.011C52.5004 211.793 51.5324 210.464 51.1165 210.464C50.2928 210.464 49.8974 211.652 49.0165 211.652C48.4823 211.652 47.9481 211.652 47.4139 211.652C46.1286 211.652 45.2527 211.751 44.0566 212.149" stroke="#5F67B0" stroke-width="1.2" stroke-linecap="round"/>
<path d="M65.5 181C66.1088 181.744 66.7066 183.459 66.9203 184.421C67.2559 185.931 69.6337 186.559 70.996 187.17C71.7483 187.508 72.0459 188.478 72.6677 189.022C73.6012 189.839 74.0912 190.916 74.9472 191.812C75.5007 192.392 76.0108 193.124 76.1492 193.885C76.3208 194.829 77.4324 195.359 77.8209 196.233C78.2526 197.205 77.8001 198.589 78.2492 199.577C78.6906 200.548 79.2106 200.982 80.0591 201.704C80.9532 202.466 80.8931 205.18 81.0952 206.291C81.3169 207.51 80.8768 208.721 81.6064 209.856C82.8725 211.825 86.9459 211.181 86.2761 214.028C86.0369 215.045 86.6906 215.494 87.8235 215.368C88.6163 215.28 89.4609 214.08 89.7577 215.327C90.0334 216.485 90.0616 217.53 90.0616 218.725C90.0616 220.037 89.2348 219.558 88.307 219.237C86.7196 218.687 87.6669 219.844 87.1327 220.853C86.7288 221.616 87.2169 221.208 87.9202 221.364C88.751 221.549 88.7594 222.245 89.2603 222.787C89.963 223.548 89.2436 223.975 89.0807 224.708C88.7314 226.279 90.8077 225.479 90.8077 226.946C90.8077 227.983 88.6718 228.679 87.8235 229.198C87.2516 229.547 86.8179 231.271 86.3314 231.298C85.5447 231.341 84.7433 231.298 83.9551 231.298C81.8758 231.298 86.1022 236.866 86.6906 237.722C87.3659 238.704 88.3208 238.779 88.3208 240.126C88.3208 241.858 87.4229 243.178 89.8129 242.046C91.7944 241.108 95.5309 241.779 97.7155 241.742C98.1158 241.736 99.3429 241.104 99.6359 241.397C100.129 241.89 100.401 243.711 101.114 243.732C102.701 243.777 104.219 243.582 105.798 243.497C106.466 243.461 106.83 243.512 107.207 244.077C107.422 244.401 107.524 243.89 107.718 243.787C108.442 243.404 109.984 243.648 110.813 243.497C111.776 243.322 112.761 243.466 113.576 242.737C114.539 241.876 115.12 242.316 114.198 243.469C113.655 244.148 114.047 245.146 113.631 245.666C113.237 246.159 116.39 246.905 116.878 247.075C118.378 247.6 114.31 247.348 113.852 247.269C112.816 247.088 110.498 246.415 109.763 247.517C109.44 248.001 110.581 249.182 110.84 249.59C111.349 250.389 111.343 251.19 111.573 252.063C111.642 252.325 111.901 253.989 111.946 252.878C111.99 251.769 113.149 254.147 113.313 254.439C113.635 255.011 113.558 256.468 113.99 256.857C114.363 257.192 116.005 256.912 116.533 256.912C119.095 256.912 118.529 260.61 118.895 262.259C119.046 262.94 118.909 263.824 118.909 264.511C118.909 265.93 120.352 265.385 121.52 265.243C122.558 265.116 123.586 265.119 124.629 265.119C125.401 265.119 125.804 264.38 126.507 264.124C127.825 263.645 129.144 263.309 130.044 264.87C130.375 265.443 130.478 267.127 131.232 267.343C133.086 267.872 133.332 268.871 133.332 270.603C133.332 271.45 132.044 274.071 132.835 274.071" stroke="#5F67B0" stroke-width="1.2" stroke-linecap="round"/>
<path d="M114 242.5C114.804 242.354 115.863 241.026 116.41 240.388C116.719 240.027 116.953 239.333 117.225 239.062C117.789 238.498 119.203 238.012 120.002 238.012C120.77 238.012 121.842 239.092 122.53 238.716C123.252 238.323 123.05 237.045 123.995 237.017C125.041 236.986 125.273 236.516 125.514 235.484C126.026 233.29 126.154 231.039 126.62 228.866C126.918 227.474 130.046 228.224 130.585 227.415C131.367 226.242 131.318 224.38 131.345 223.036C131.362 222.18 131.31 220.666 131.994 219.982C132.687 219.289 134.295 219.331 135.158 219.236C137.155 219.017 139.239 218.993 141.195 218.504C142.289 218.231 142.725 217.215 143.447 216.459C144.632 215.219 145.053 214.421 145.506 212.798C145.794 211.766 145.379 211.046 145.506 210C145.681 208.558 145.5 208.5 146.5 208" stroke="#5F67B0" stroke-width="1.2" stroke-linecap="round"/>
</g>
</svg>
