<svg width="250" height="267" viewBox="0 0 250 267" fill="none" xmlns="http://www.w3.org/2000/svg">
<mask id="path-1-inside-1_908_21821" fill="white">
<path d="M131.657 179.721C133.133 181.607 134.335 183.835 134.397 186.229C134.53 191.23 129.98 194.872 127.087 198.95C124.212 203.006 122.854 207.915 121.546 212.715C117.838 226.325 114.13 239.936 110.422 253.547C109.687 256.242 108.952 259.003 108.656 261.775C111.086 262.224 113.483 263.537 115.644 264.722C116.937 265.431 118.16 266.102 119.211 266.498C124.064 268.334 129.41 264.666 131.483 263.005C131.955 262.626 132.425 262.233 132.9 261.837C135.843 259.381 139.17 256.603 143.49 256.603C143.572 256.603 143.655 256.603 143.74 256.606C146.315 256.671 148.31 257.398 150.073 258.039C151.531 258.571 152.907 259.074 154.578 259.21C157.123 259.414 160.58 258.35 161.976 256.931C163.801 255.075 164.745 253.742 166.021 251.224C169.761 243.84 174.88 233.729 184.614 231.223C191.965 229.331 197.418 231.598 203.192 233.998C205.146 234.811 207.172 235.653 209.365 236.377C213.498 237.743 221.354 238.429 225.818 238.189C231.929 237.861 237.733 237.202 241.594 232.81C245.547 228.312 246.318 221.434 243.348 217.154C243.197 216.935 243.038 216.723 242.876 216.507C242.208 215.611 241.456 214.597 241.081 213.25C239.935 209.13 242.949 206.174 245.37 203.798C246.12 203.062 246.832 202.364 247.393 201.681C249.979 198.528 250.088 193.784 249.97 188.789C249.822 182.588 249.672 176.174 247.46 170.452C246.306 167.47 246.95 164.352 247.516 161.6C247.821 160.122 248.107 158.73 248.119 157.465C248.145 154.424 246.991 150.771 244.387 149.934C243.643 149.695 242.722 149.662 241.745 149.63C241.134 149.609 240.505 149.588 239.85 149.518C233.479 148.829 228.383 143.243 228.726 137.32C228.941 133.536 231.111 130.495 233.027 127.811C233.759 126.786 234.45 125.816 235.035 124.829C237.544 120.582 238.19 115.223 236.77 110.497C236.192 108.57 235.371 107.181 234.332 106.368C232.812 105.177 230.55 104.947 228.159 104.701C227.415 104.625 226.641 104.545 225.877 104.435C215.624 102.958 207.467 95.6542 201.503 89.4533C201.22 89.1607 200.939 88.8651 200.656 88.5696C197.55 85.3184 194.616 82.2475 190.872 80.7372C188.776 79.8918 186.456 79.5579 184 79.2062C182.946 79.0554 181.853 78.8988 180.77 78.6978C175.639 77.7461 172.102 75.8308 169.959 72.8368C169.631 72.3786 169.36 71.9264 169.097 71.489C168.778 70.957 168.474 70.4545 168.149 70.0881C167.01 68.8112 163.263 68.2348 159.789 68.7609C159.919 69.1068 160.01 69.4614 160.031 69.8191C160.119 71.1787 159.358 72.4437 158.531 73.5254C153.905 79.5579 146.052 82.948 138.494 82.1736C136.121 81.9312 133.75 81.2869 131.754 79.9776C130.001 78.8278 128.551 77.1816 126.606 76.4042C124.643 75.621 122.449 75.8308 120.344 75.6387C115.63 75.2131 110.741 71.9826 110.271 67.2654C110.168 66.2132 110.283 65.1374 110.059 64.1029C109.389 61.0054 106.02 59.3237 104.402 56.5986C103.032 54.2902 103.032 51.4499 103.074 48.7662C103.153 43.5229 103.233 38.2766 103.313 33.0334C103.372 29.1408 103.496 25.0206 105.586 21.7369C106.903 19.668 108.922 18.0749 109.991 15.87C110.457 14.9094 110.714 13.7361 110.218 12.7902C109.944 12.2641 109.468 11.8711 108.975 11.54C107.803 10.7509 106.366 10.2159 104.981 10.4967C102.976 10.9046 101.636 12.8553 99.723 13.5853C97.3849 14.4779 94.5478 12.9322 93.7035 10.6445C93.2488 9.412 92.6141 8.24748 91.7255 7.27804C87.6367 2.82391 82.1131 -0.71991 76.2766 0.125399C72.2291 0.710613 68.6009 3.2495 64.7777 4.5618C65.5247 10.3489 65.6516 18.7252 65.3446 23.3389C64.8958 30.06 59.7737 31.656 55.251 33.0629C53.5121 33.6038 51.7142 34.1653 50.0137 34.9988C48.0062 35.986 46.2202 36.8963 44.6909 38.0638C43.699 38.8205 42.7779 39.7131 41.8007 40.6589C41.1099 41.3298 40.3925 42.0214 39.6279 42.6835C35.9051 45.914 31.5152 48.0332 27.2699 50.0844C25.7171 50.8351 24.1081 51.6124 22.5877 52.4193C15.1098 56.3917 8.29608 61.9394 2.88764 68.4625C1.47353 70.1679 0.463884 71.622 0.130285 73.1796C-0.439491 75.8308 0.956897 78.686 2.43005 81.7096C2.61309 82.082 2.79317 82.4514 2.96735 82.8179C5.0339 87.139 6.53362 91.6848 7.98611 96.0857C8.90424 98.867 9.94342 102.021 9.99656 105.334C10.094 111.284 7.25986 116.293 4.10986 120.612C5.72471 121.436 7.28938 122.332 8.83043 123.218C11.6085 124.814 14.23 126.322 17.0376 127.365C18.0886 127.755 19.1691 128.08 20.3116 128.426C22.3693 129.047 24.4949 129.691 26.5289 130.752C30.479 132.815 33.5847 136.415 35.2734 140.881C36.962 145.347 37.0152 150.103 35.418 154.27C34.7331 156.058 33.8061 157.666 32.9116 159.221C32.3832 160.137 31.8872 161 31.4444 161.884C28.318 168.129 28.0169 175.722 30.6355 182.198C32.9854 188.006 39.5216 194.112 46.1316 196.793C48.2395 194.47 49.8927 191.641 50.985 188.73C51.484 187.403 51.9386 185.949 53.0693 185.097C55.1388 183.54 58.1589 184.837 60.6446 184.113C63.3695 183.318 64.8574 180.315 67.3875 179.024C69.2297 178.081 71.4084 178.155 73.472 178.288C80.1204 178.719 86.9193 179.559 93.3463 177.806C98.8521 176.304 103.759 172.973 109.33 171.732C117.469 169.92 126.511 173.16 131.657 179.724V179.721Z"/>
</mask>
<path d="M131.657 179.721C133.133 181.607 134.335 183.835 134.397 186.229C134.53 191.23 129.98 194.872 127.087 198.95C124.212 203.006 122.854 207.915 121.546 212.715C117.838 226.325 114.13 239.936 110.422 253.547C109.687 256.242 108.952 259.003 108.656 261.775C111.086 262.224 113.483 263.537 115.644 264.722C116.937 265.431 118.16 266.102 119.211 266.498C124.064 268.334 129.41 264.666 131.483 263.005C131.955 262.626 132.425 262.233 132.9 261.837C135.843 259.381 139.17 256.603 143.49 256.603C143.572 256.603 143.655 256.603 143.74 256.606C146.315 256.671 148.31 257.398 150.073 258.039C151.531 258.571 152.907 259.074 154.578 259.21C157.123 259.414 160.58 258.35 161.976 256.931C163.801 255.075 164.745 253.742 166.021 251.224C169.761 243.84 174.88 233.729 184.614 231.223C191.965 229.331 197.418 231.598 203.192 233.998C205.146 234.811 207.172 235.653 209.365 236.377C213.498 237.743 221.354 238.429 225.818 238.189C231.929 237.861 237.733 237.202 241.594 232.81C245.547 228.312 246.318 221.434 243.348 217.154C243.197 216.935 243.038 216.723 242.876 216.507C242.208 215.611 241.456 214.597 241.081 213.25C239.935 209.13 242.949 206.174 245.37 203.798C246.12 203.062 246.832 202.364 247.393 201.681C249.979 198.528 250.088 193.784 249.97 188.789C249.822 182.588 249.672 176.174 247.46 170.452C246.306 167.47 246.95 164.352 247.516 161.6C247.821 160.122 248.107 158.73 248.119 157.465C248.145 154.424 246.991 150.771 244.387 149.934C243.643 149.695 242.722 149.662 241.745 149.63C241.134 149.609 240.505 149.588 239.85 149.518C233.479 148.829 228.383 143.243 228.726 137.32C228.941 133.536 231.111 130.495 233.027 127.811C233.759 126.786 234.45 125.816 235.035 124.829C237.544 120.582 238.19 115.223 236.77 110.497C236.192 108.57 235.371 107.181 234.332 106.368C232.812 105.177 230.55 104.947 228.159 104.701C227.415 104.625 226.641 104.545 225.877 104.435C215.624 102.958 207.467 95.6542 201.503 89.4533C201.22 89.1607 200.939 88.8651 200.656 88.5696C197.55 85.3184 194.616 82.2475 190.872 80.7372C188.776 79.8918 186.456 79.5579 184 79.2062C182.946 79.0554 181.853 78.8988 180.77 78.6978C175.639 77.7461 172.102 75.8308 169.959 72.8368C169.631 72.3786 169.36 71.9264 169.097 71.489C168.778 70.957 168.474 70.4545 168.149 70.0881C167.01 68.8112 163.263 68.2348 159.789 68.7609C159.919 69.1068 160.01 69.4614 160.031 69.8191C160.119 71.1787 159.358 72.4437 158.531 73.5254C153.905 79.5579 146.052 82.948 138.494 82.1736C136.121 81.9312 133.75 81.2869 131.754 79.9776C130.001 78.8278 128.551 77.1816 126.606 76.4042C124.643 75.621 122.449 75.8308 120.344 75.6387C115.63 75.2131 110.741 71.9826 110.271 67.2654C110.168 66.2132 110.283 65.1374 110.059 64.1029C109.389 61.0054 106.02 59.3237 104.402 56.5986C103.032 54.2902 103.032 51.4499 103.074 48.7662C103.153 43.5229 103.233 38.2766 103.313 33.0334C103.372 29.1408 103.496 25.0206 105.586 21.7369C106.903 19.668 108.922 18.0749 109.991 15.87C110.457 14.9094 110.714 13.7361 110.218 12.7902C109.944 12.2641 109.468 11.8711 108.975 11.54C107.803 10.7509 106.366 10.2159 104.981 10.4967C102.976 10.9046 101.636 12.8553 99.723 13.5853C97.3849 14.4779 94.5478 12.9322 93.7035 10.6445C93.2488 9.412 92.6141 8.24748 91.7255 7.27804C87.6367 2.82391 82.1131 -0.71991 76.2766 0.125399C72.2291 0.710613 68.6009 3.2495 64.7777 4.5618C65.5247 10.3489 65.6516 18.7252 65.3446 23.3389C64.8958 30.06 59.7737 31.656 55.251 33.0629C53.5121 33.6038 51.7142 34.1653 50.0137 34.9988C48.0062 35.986 46.2202 36.8963 44.6909 38.0638C43.699 38.8205 42.7779 39.7131 41.8007 40.6589C41.1099 41.3298 40.3925 42.0214 39.6279 42.6835C35.9051 45.914 31.5152 48.0332 27.2699 50.0844C25.7171 50.8351 24.1081 51.6124 22.5877 52.4193C15.1098 56.3917 8.29608 61.9394 2.88764 68.4625C1.47353 70.1679 0.463884 71.622 0.130285 73.1796C-0.439491 75.8308 0.956897 78.686 2.43005 81.7096C2.61309 82.082 2.79317 82.4514 2.96735 82.8179C5.0339 87.139 6.53362 91.6848 7.98611 96.0857C8.90424 98.867 9.94342 102.021 9.99656 105.334C10.094 111.284 7.25986 116.293 4.10986 120.612C5.72471 121.436 7.28938 122.332 8.83043 123.218C11.6085 124.814 14.23 126.322 17.0376 127.365C18.0886 127.755 19.1691 128.08 20.3116 128.426C22.3693 129.047 24.4949 129.691 26.5289 130.752C30.479 132.815 33.5847 136.415 35.2734 140.881C36.962 145.347 37.0152 150.103 35.418 154.27C34.7331 156.058 33.8061 157.666 32.9116 159.221C32.3832 160.137 31.8872 161 31.4444 161.884C28.318 168.129 28.0169 175.722 30.6355 182.198C32.9854 188.006 39.5216 194.112 46.1316 196.793C48.2395 194.47 49.8927 191.641 50.985 188.73C51.484 187.403 51.9386 185.949 53.0693 185.097C55.1388 183.54 58.1589 184.837 60.6446 184.113C63.3695 183.318 64.8574 180.315 67.3875 179.024C69.2297 178.081 71.4084 178.155 73.472 178.288C80.1204 178.719 86.9193 179.559 93.3463 177.806C98.8521 176.304 103.759 172.973 109.33 171.732C117.469 169.92 126.511 173.16 131.657 179.724V179.721Z" fill="#1A203A" stroke="#333757" stroke-width="2" mask="url(#path-1-inside-1_908_21821)"/>
<path d="M91.8248 177.366L91.3257 176.367L92.3238 175.867L92.5991 175.52C92.2838 175.48 91.6294 175.189 91.5348 174.338C91.4165 173.275 92.0078 172.92 91.653 170.675C91.2982 168.43 90.943 166.421 91.298 165.24C91.653 164.058 94.1362 162.049 94.7275 160.513C95.3189 158.977 94.8458 158.386 94.018 157.559C93.1901 156.732 92.9536 156.023 93.0719 154.723C93.1901 153.423 92.9535 153.542 92.1258 152.951C91.298 152.36 91.8892 151.769 92.1258 151.533C92.3623 151.296 92.5988 151.06 92.3623 150.351C92.1258 149.642 92.3623 149.17 93.0719 149.051C93.7814 148.933 98.1572 149.17 98.6302 148.815C99.1033 148.461 100.522 146.452 100.522 145.861C100.522 145.27 100.168 143.97 100.995 143.734C101.823 143.498 103.242 142.789 103.124 142.434C103.006 142.08 102.651 139.835 101.942 139.48C101.232 139.126 99.1033 138.062 98.6302 137.353C98.1572 136.644 97.9206 135.935 96.1467 135.226C94.3728 134.518 93.6632 134.163 92.1258 132.981C90.5883 131.8 89.6422 130.5 89.4057 129.909C89.1692 129.318 88.9327 128.846 88.2231 128.019C87.5135 127.191 87.277 126.483 86.4491 126.246C85.6213 126.01 83.9656 124.946 83.0195 124.946C82.2626 124.946 79.5505 124.946 78.289 124.946C77.8948 125.301 76.8935 126.128 76.042 126.601C74.9777 127.191 73.9133 127.546 72.8489 128.491C71.7846 129.437 71.075 130.027 70.6019 130.5C70.1289 130.539 68.9226 130.405 67.8819 129.555C66.581 128.491 64.8071 128.019 63.7427 128.019C63.7033 127.664 63.4589 126.861 62.7966 126.483C61.9688 126.01 62.6783 125.419 61.2592 124.592C59.84 123.765 59.6035 123.292 59.2487 122.583C58.8939 121.874 58.1844 121.283 57.2383 120.929C56.2922 120.574 56.1739 119.393 55.7008 118.802C55.3224 118.329 54.6759 117.266 54.4 116.793C54.3211 116.714 54.0925 116.581 53.8086 116.675C53.4539 116.793 53.2173 117.502 52.626 117.502C52.0347 117.502 52.0347 117.856 51.6799 118.329C51.3251 118.802 50.7338 119.511 49.6694 119.983C48.6051 120.456 48.2503 121.756 47.659 122.347C47.1859 122.819 46.3581 123.489 46.0033 123.765C46.0821 124.001 46.0979 124.544 45.5303 124.828C44.8207 125.183 42.4554 126.837 41.9824 127.073C41.5093 127.309 41.8641 127.783 40.7997 128.019C39.7354 128.255 39.1441 128.373 38.7893 128.964C38.4345 129.555 35.7144 134.163 35.1231 134.281C34.5318 134.399 33.8222 134.281 33.2309 134.517C33.1315 134.506 32.9375 134.517 32.9375 134.517" stroke="#333757" stroke-width="1.2" stroke-linejoin="round"/>
<path d="M134.372 81.7971L135.741 83.9367L134.372 85.0065H133.307L131.669 89.215H130.756L129.235 89.9792L127.714 88.1453L127.257 91.5074L124.136 95.6454C123.781 95.4926 121.731 97.0597 120.271 97.4265C118.81 97.7933 114.723 98.6752 114.723 98.5224L113.81 99.745L111.832 100.662L113.81 109.22L111.832 109.984C112.745 109.781 114.692 109.434 115.179 109.679C115.331 110.392 115.727 111.879 116.092 112.124C116.041 113.856 115.788 117.626 115.179 118.848L116.548 121.446C116.295 122.007 116.061 123.372 117.157 124.35C118.252 125.328 118.323 126.184 118.222 126.489L115.179 130.31L111.832 131.227V133.061C111.477 133.468 110.646 134.467 110.159 135.2C109.55 136.117 107.572 141.008 105.899 142.842C105.6 142.634 104.876 142.26 104.378 142.426C103.755 142.634 103.339 142.634 103.132 142.426M54.1207 116.645C53.3904 115.422 52.7539 114.467 52.0439 113.041V109.22L54.0217 107.845C54.4274 106.724 55.4213 104.146 56.1515 102.801C57.0643 101.12 57.825 98.5224 59.1942 97.9111C60.5634 97.2998 61.4762 96.3828 61.7805 95.1602C62.0847 93.9376 62.5411 93.9376 63.606 94.3961C64.671 94.8546 68.9307 93.7848 71.2127 93.3263C73.4947 92.8679 76.3852 92.715 77.6023 93.0207L77.9065 92.5622C78.3629 92.766 79.3366 92.929 79.58 91.9509C79.8234 90.9728 79.6814 90.6264 79.58 90.5755L81.1013 89.3529C81.3042 88.5888 81.5273 86.9383 80.7971 86.4492C81.0506 86.602 81.6186 86.602 81.862 85.3794C82.1663 83.8512 82.4705 82.7814 83.5355 82.7814C84.6004 82.7814 85.2089 82.7814 85.6653 82.1701C86.1217 81.5588 88.0994 81.7116 88.4037 81.7116C88.708 81.7116 89.0122 83.2402 90.5336 81.7116C92.0549 80.1831 94.0326 77.8908 95.0976 77.4323L95.8582 75.1399L100.726 72.6947V71.3193L103.617 72.0834L104.226 71.3193H106.583L108.793 70.9465L110.29 69.9473" stroke="#333757" stroke-width="1.2" stroke-linejoin="round"/>
<path d="M108.792 62.9091L106.297 63.4174L101.54 62.9091H100.203C100.315 63.3044 100.304 64.1289 99.3677 64.2644C98.1979 64.4338 97.028 65.1114 96.1924 64.942L92.3486 66.8055L87.5021 67.3138L86.6665 67.9914H85.6637L82.1542 64.942V63.4174L80.9843 61.8927H79.9816C79.7588 61.215 79.0791 59.8936 78.1433 60.0292C76.9734 60.1986 76.472 60.0288 75.8036 59.0123C75.1351 57.9958 73.7981 57.4876 71.2913 56.9794C68.7844 56.4712 64.9406 57.4876 62.2667 56.4712C59.5927 55.4547 54.2448 54.2688 50.401 50.8807L49.2312 48.8478L47.0586 46.8148L47.7271 45.4596C48.2842 45.3466 49.4986 44.8497 49.8997 43.7655C50.3008 42.6813 50.401 41.5067 50.401 41.0549L49.8997 40.5467L50.401 39.8691C50.5124 38.8526 50.4345 36.6503 49.2312 35.9727" stroke="#333757" stroke-width="1.2" stroke-linejoin="round"/>
<path d="M120.146 171.371L120.77 169.872L120.146 167.643H119.522C120.042 167.404 120.895 166.71 120.146 165.85C119.397 164.989 118.898 164.773 118.742 164.773C119.158 164.833 119.896 164.666 119.522 163.518C119.148 162.37 119.366 161.724 119.522 161.545C118.95 161.186 117.807 160.254 117.807 159.393C117.807 158.532 118.223 157.121 118.43 156.523C117.703 156.045 116.247 154.945 116.247 154.371C116.247 153.654 117.807 152.578 117.807 151.681C117.807 150.784 116.559 150.784 116.559 149.887C116.559 148.991 115.779 148.811 115.779 147.556C115.779 146.3 116.871 146.121 116.559 144.865C116.247 143.61 115.623 142.893 117.027 142.893C118.15 142.893 120.51 142.893 121.549 142.893C121.913 143.49 122.766 144.507 123.265 143.789C123.889 142.893 124.357 143.789 124.824 143.789C125.199 143.789 126.332 143.789 126.852 143.789C126.852 143.969 127.133 144.327 128.255 144.327C129.659 144.327 129.815 143.431 131.53 143.431C132.903 143.431 133.974 143.431 134.338 143.431C134.701 143.73 135.741 144.435 136.989 144.865C138.236 145.296 139.692 146.001 140.264 146.3C140.212 146.719 140.388 147.556 141.511 147.556C142.634 147.556 143.955 147.077 144.474 146.838C144.682 147.496 145.254 148.775 145.878 148.632C146.502 148.488 146.866 148.811 146.97 148.991C146.762 148.871 146.408 148.883 146.658 149.887C146.907 150.892 148.113 151.741 148.685 152.04C148.685 152.458 149.028 153.259 150.401 153.116C152.116 152.936 153.675 154.371 155.079 155.985C156.483 157.599 156.639 157.779 157.73 157.599C158.822 157.42 158.042 158.676 159.29 158.137C160.537 157.599 164.28 157.061 166.152 156.523C168.023 155.985 168.179 157.779 170.05 158.137C171.922 158.496 173.013 159.214 176.132 158.137C179.252 157.061 180.031 155.447 181.123 155.268C182.215 155.088 183.93 155.268 185.334 154.192C186.737 153.116 188.765 152.398 191.26 152.757C193.755 153.116 194.847 154.192 196.406 153.654C197.966 153.116 198.901 152.936 199.369 152.04C199.837 151.143 200.461 152.398 201.241 152.04C202.02 151.681 203.736 152.219 205.763 151.501C207.791 150.784 209.35 150.425 210.13 150.963C210.91 151.501 211.689 152.04 212.469 151.501C213.249 150.963 213.561 152.04 214.341 151.501C215.12 150.963 217.772 150.605 219.019 149.708C220.017 148.991 221.098 147.496 221.514 146.838H223.542C224.114 147.436 225.413 148.632 226.037 148.632C226.817 148.632 227.628 147.389 228.563 147.389C229.499 147.389 229.624 148.67 230.56 149.388C231.495 150.105 233.823 148.811 234.759 148.632" stroke="#333757" stroke-width="1.2" stroke-linejoin="round"/>
<path d="M115.8 146.166C114.692 146.166 112.311 146.041 111.646 145.542C110.982 145.043 110.4 145.334 110.193 145.542L108.946 144.711H108.116L106.039 142.84" stroke="#333757" stroke-width="1.2" stroke-linejoin="round"/>
<path d="M142.023 82.9375L141.729 83.74L142.023 85.456L144.123 88.5609L145.283 93.2838L142.554 95.533L147.516 99.5315H148.013C148.178 100.156 148.683 101.631 149.377 102.53H148.385C148.385 103.114 148.385 104.405 148.385 104.905C148.385 105.529 149.625 106.404 149.005 108.403C148.509 110.003 149.377 110.819 149.874 111.027C149.874 111.319 149.948 111.952 150.246 112.152C150.618 112.402 151.486 113.276 151.61 113.901C151.71 114.401 152.314 115.276 152.603 115.651C152.81 115.567 153.298 115.251 153.595 114.651C153.968 113.901 154.092 113.651 154.96 113.651C155.829 113.651 158.558 113.901 159.054 113.651C159.551 113.401 160.791 113.152 161.163 113.651C161.536 114.151 161.784 114.901 161.163 115.401C160.667 115.801 160.46 116.15 160.419 116.275L162.652 119.149V122.273C163.024 122.315 163.893 122.473 164.389 122.773C165.009 123.148 165.257 123.523 165.63 123.148C166.002 122.773 166.994 122.648 167.491 123.023C167.888 123.323 169.806 124.897 170.716 125.647H171.957C173.239 126.147 175.877 127.271 176.175 127.771C176.547 128.396 177.416 129.895 177.788 130.02C178.16 130.145 178.532 130.145 178.904 130.77C179.277 131.395 179.897 132.02 180.393 132.02C180.889 132.02 184.239 131.395 185.232 131.27C186.224 131.145 186.348 130.895 186.845 131.27C187.341 131.645 190.442 133.394 192.676 133.894C193.668 134.019 195.752 134.194 196.149 133.894C196.646 133.519 197.142 132.894 198.01 133.394C198.879 133.894 199.375 134.144 199.747 133.894C200.119 133.644 200.367 133.519 201.236 133.894C202.104 134.269 202.973 134.519 203.717 134.269C204.461 134.019 204.958 134.019 205.95 134.519C206.943 135.019 209.3 136.643 210.913 136.893C212.526 137.143 215.999 136.768 217.116 137.018C218.232 137.268 220.466 137.767 220.838 138.767C221.21 139.767 220.466 141.516 221.086 143.39C221.582 144.89 222.285 146.348 222.575 146.889" stroke="#333757" stroke-width="1.2" stroke-linejoin="round"/>
</svg>
