<svg width="708" height="822" viewBox="0 0 708 822" fill="none" xmlns="http://www.w3.org/2000/svg">
<path d="M299.044 74.542L291.056 72.4399L289.795 71.5991C290.215 72.5801 290.804 74.7102 289.795 75.3828C289.46 75.606 288.859 76.3623 288.077 77.3452C285.915 80.0652 282.373 84.5203 279.285 84.2115C275.08 83.7911 259.946 85.8932 252.378 90.5177C248.215 93.0619 243.543 94.2064 238.011 95.5614C233.488 96.6692 228.391 97.9178 222.529 100.187C209.496 105.232 181.749 110.277 179.226 110.698C176.704 111.118 169.977 117.004 167.875 121.208C166.355 124.248 160.369 126.372 156.749 127.27C156.908 127.082 156.707 126.765 155.683 126.253C153.665 125.244 148.957 120.227 146.854 117.845L142.23 117.004L136.344 117.845C134.52 121.494 131.745 123.876 128.845 126.366C128.403 126.744 127.959 127.126 127.516 127.514C124.825 129.868 114.062 141.948 109.017 147.694L107.756 150.216L103.132 156.102L100.609 156.523L96.8254 155.261L95.5641 156.102L100.609 158.625V161.567C100.609 164.51 99.3478 169.555 97.2458 169.135C95.5641 168.799 94.8634 166.472 94.7233 165.351H92.6212C94.3029 167.369 93.3219 170.676 92.6212 172.078C93.3219 172.498 94.3029 174.264 92.6212 177.964C90.9396 181.663 93.3219 183.989 94.7233 184.69C90.0988 189.315 91.7804 194.78 94.7233 199.825C97.6662 204.87 101.45 209.915 103.552 209.915C105.654 209.915 108.597 211.176 106.495 212.437C106.404 212.492 106.308 212.549 106.207 212.61C103.967 213.95 99.3478 216.714 99.3478 218.323C99.3478 220.005 98.9274 221.266 96.405 219.164C93.8825 217.062 92.6212 216.642 85.0538 218.323C82.1796 218.962 79.366 219.783 76.7974 220.532C72.6031 221.755 69.0619 222.788 66.9761 222.527C64.1474 222.174 64.2925 219.144 64.4101 216.689C64.4324 216.225 64.4536 215.781 64.4536 215.38C64.4536 213.895 63.7246 213.867 62.9535 213.838C62.4151 213.818 61.8563 213.797 61.5106 213.278C60.8428 212.276 59.1137 212.336 57.1664 212.402C56.6623 212.42 56.1436 212.437 55.6249 212.437C53.1025 212.437 51.8412 209.915 51.8412 205.29C51.8412 201.591 50.1596 201.507 49.3187 201.927L48.4778 205.29L44.2738 209.915C44.6942 210.195 45.535 211.092 45.535 212.437C45.535 213.783 43.5731 215.801 42.5921 216.642C44.1336 218.744 47.4688 223.284 48.4778 224.629C49.0103 225.339 50.3668 225.525 51.8201 225.723C53.8094 225.995 55.9799 226.292 56.4658 227.993C57.1384 230.347 56.1855 235.42 55.6249 237.662C52.598 239.344 51.8412 242.567 51.8412 243.968H58.1473L59.4086 249.434L58.1473 251.115C56.802 250.106 53.9432 250.695 52.682 251.115V247.752L42.5921 249.434L40.9105 251.115L37.5472 249.434V246.491H35.4451V249.434L25.3552 253.217L21.5715 251.115V246.491H19.049L18.2081 251.115C15.9659 251.256 11.3974 252.04 11.0611 254.058C10.679 256.351 12.0332 257.602 16.7018 261.913C17.1701 262.346 17.6716 262.809 18.2081 263.307C20.8606 265.77 21.8908 267.636 22.7609 269.211C23.8216 271.132 24.6443 272.621 27.8776 274.238C33.7634 277.181 45.1145 287.691 47.2166 291.055C48.8983 293.745 48.7581 298.061 48.4778 299.883C50.8321 300.892 53.6629 304.228 54.784 305.769C54.9242 305.489 55.793 305.349 58.1473 307.03C59.7522 308.177 59.9818 309.073 60.1997 309.924C60.3813 310.633 60.5549 311.311 61.5106 312.075C63.3616 313.556 62.9307 314.711 62.5143 315.827C62.4578 315.978 62.4016 316.129 62.3514 316.279C61.931 317.541 64.033 320.484 66.1351 321.324C68.0312 322.083 69.5852 321.815 71.7228 321.447C71.955 321.407 72.1941 321.366 72.4413 321.324C73.3339 321.176 74.595 320.658 75.9825 320.089C78.5159 319.05 81.4705 317.838 83.372 318.381C85.8604 319.092 86.8458 318 87.8533 316.883C88.0374 316.679 88.2222 316.474 88.417 316.279C89.6782 315.018 92.2007 313.336 95.564 315.018C97.7613 316.117 98.8819 315.78 100.098 315.414C100.744 315.22 101.416 315.018 102.291 315.018C104.813 315.018 113.642 315.018 117.846 313.336C120.543 312.258 123.068 313.082 125.641 313.923C127.078 314.393 128.531 314.867 130.038 315.018C133.401 315.354 143.771 316.84 148.536 317.541L154.422 325.108V328.051C156.244 330.293 160.728 335.198 164.091 336.88C166.173 337.921 167.224 340.405 168.367 343.107C169.533 345.862 170.794 348.843 173.34 350.753C176.62 353.213 177.412 355.85 178.258 358.665C178.713 360.18 179.184 361.747 180.067 363.366C182.589 367.99 185.112 371.353 186.373 368.411C187.634 365.468 188.896 364.627 191.839 363.366C194.09 362.401 195.111 361.436 197.726 358.964C198.529 358.205 199.482 357.305 200.667 356.219C203.664 353.471 206.662 352.801 209.042 352.269C210.668 351.906 212.006 351.606 212.859 350.753C214.903 348.709 216.948 347.858 221.699 345.879L222.108 345.708C226.144 344.027 239.485 339.122 245.651 336.88L252.798 330.153L260.786 330.994L264.99 329.312C266.812 330.153 270.708 331.666 271.717 330.994C271.837 330.914 271.968 330.823 272.11 330.724C273.461 329.784 275.78 328.171 278.444 329.312C281.386 330.573 283.488 330.994 288.113 328.051C291.813 325.697 295.26 327.07 296.521 328.051C299.604 329.733 306.695 334.357 310.395 339.402C313.04 343.009 314.997 344.278 316.503 345.254C317.63 345.984 318.504 346.551 319.224 347.81C320.905 350.753 323.007 351.594 330.154 352.855C334.164 353.563 334.733 355.196 335.574 357.608C336.231 359.495 337.055 361.858 339.824 364.627C345.513 370.316 352.228 372.241 358.735 374.107C359.441 374.309 360.145 374.511 360.844 374.717C367.991 376.819 370.934 378.08 372.196 382.284C373.205 385.647 376.82 387.329 378.502 387.75C379.847 391.449 383.547 396.298 385.228 398.26V404.566C381.865 406.248 373.457 414.236 372.196 418.86C371.187 422.56 371.775 430.772 372.196 434.415C368.832 435.256 365.469 439.46 360.844 448.289C360.568 448.816 360.299 449.33 360.037 449.831C355.915 457.713 353.496 462.338 350.334 465.105C350.157 465.261 349.988 465.408 349.826 465.548C346.931 468.064 346.617 468.337 347.812 473.514C349.073 478.979 347.391 485.285 344.869 490.751C343.105 494.572 343.397 495.516 343.732 496.6C343.876 497.067 344.028 497.559 344.028 498.318C344.028 500.336 339.544 506.446 337.301 509.249C332.537 509.95 322.166 510.931 318.803 509.249C315.44 507.567 308.713 507.147 305.77 507.147C305.07 509.249 303.584 515.471 303.248 523.543C302.827 533.633 302.407 540.78 300.725 542.041C300.404 542.282 300.021 542.554 299.602 542.851C297.834 544.106 295.439 545.806 294.419 547.506C293.41 549.188 289.795 551.29 288.113 552.131C288.393 552.692 288.786 554.569 288.113 557.596C287.95 558.329 287.756 559.046 287.567 559.744C286.779 562.651 286.079 565.232 288.113 567.266C290.131 569.284 290.916 574.273 291.056 576.515L285.591 583.242L286.431 588.707L280.125 605.944V609.307C280.125 609.643 277.042 616.454 275.501 619.817L278.023 622.76V624.862H275.921L275.501 628.226L272.978 625.283C270.316 628.226 264.822 635.12 264.149 639.156C263.508 643.007 264.58 643.184 267.18 643.613C267.987 643.746 268.94 643.903 270.035 644.201C273.866 645.246 273.947 645.425 274.817 647.368C274.998 647.771 275.212 648.249 275.501 648.826C276.999 651.823 277.83 651.815 281.861 651.778C282.354 651.774 282.894 651.769 283.488 651.769C287.861 651.769 292.597 654.011 294.419 655.132L299.464 660.597H306.191L312.497 664.381L318.803 676.994L321.326 684.141L323.848 684.981L338.142 697.594L371.355 703.48C367.991 692.549 367.571 682.879 368.832 679.096C369.841 676.069 370.934 668.025 371.355 664.381L385.228 653.45L394.898 652.61C395.318 653.31 396.411 655.384 397.42 658.075C398.682 661.438 399.102 664.802 398.261 669.847C397.588 673.883 401.344 678.815 403.306 680.777H411.294L412.135 682.879H414.657L412.135 679.096H407.09C402.045 675.312 406.669 670.687 412.135 667.745C416.507 665.39 418.161 667.604 418.441 669.006L420.963 670.687L429.372 661.859L435.678 663.54L437.78 667.745L444.507 663.54L435.678 648.406C435.958 646.584 437.612 642.015 441.984 638.316C445.561 635.289 451.298 633.703 455.661 632.497C457.965 631.86 459.886 631.329 460.903 630.748C463.257 629.403 463.285 626.544 463.005 625.283L459.221 622.34L465.948 615.613L482.344 614.352L486.127 618.136C485.707 618.276 484.866 619.061 484.866 621.079V626.124L489.911 627.805L496.217 624.442L505.466 627.805L506.728 626.124L497.899 622.34V616.875C497.899 614.857 493.415 615.193 491.172 615.613L488.229 616.875L486.127 614.352V609.728L512.193 593.331L515.556 587.446C516.902 585.091 520.041 584.503 521.442 584.503L526.067 587.446L534.895 589.127L538.679 593.331H548.348L552.973 590.389L559.7 595.013L561.381 593.331L555.075 589.127C555.495 587.165 555.664 582.485 552.973 579.458C550.576 576.762 550.955 574.279 551.37 571.553C551.538 570.454 551.712 569.315 551.712 568.107C551.712 563.903 551.712 563.062 548.348 560.119C545.658 557.764 544.985 551.29 544.985 548.347V538.257L552.973 532.372V528.167H551.712V530.69L545.406 534.474C544.425 534.474 542.042 533.969 540.361 531.951C539.693 531.15 538.388 530.009 536.865 528.677C533.595 525.816 529.316 522.074 528.169 518.918C527.22 516.31 525.871 515.574 524.497 514.825C523.435 514.246 522.359 513.658 521.442 512.192C519.76 509.501 520.741 506.306 521.442 505.045V495.796L534.895 490.751H538.679V495.796H540.361C540.634 493.064 540.907 492.64 542.217 490.603C542.924 489.504 543.933 487.936 545.406 485.285C547.713 481.132 547.994 479.005 548.265 476.958C548.487 475.275 548.702 473.647 550.03 470.991C552.384 466.283 557.177 462.022 559.279 460.481L566.006 465.526L568.528 464.265C567.547 463.564 565.249 461.91 563.904 460.901C562.558 459.892 563.343 456.837 563.904 455.436H566.006L573.153 456.277L580.72 449.971L578.618 447.448C576.516 447.869 573.153 447.028 568.528 444.926C564.829 443.244 565.025 433.855 565.585 429.37L556.757 423.064V416.338L551.712 413.395C551.712 411.853 552.3 407.929 554.655 404.566C557.009 401.203 560.961 402.044 562.643 402.884H574.834C578.87 402.884 582.122 399.801 583.243 398.26L580.72 394.897L573.153 394.056V385.647C573.153 380.603 575.956 378.781 577.357 378.5H586.186C586.746 377.94 588.372 376.482 590.39 375.137C592.912 373.456 592.912 368.831 590.39 370.513C587.867 372.194 586.186 369.672 584.504 365.047C583.617 362.609 583.198 359.001 582.815 355.703C582.472 352.748 582.157 350.042 581.561 348.651C580.552 346.297 576.656 343.746 574.834 342.765V338.141C573.573 337.72 570.546 336.796 568.528 336.459C566.51 336.123 563.764 330.714 562.643 328.051L560.12 329.312C559.419 328.892 557.345 328.051 554.655 328.051C551.964 328.051 549.89 325.248 549.189 323.847L550.451 322.165V313.336L553.393 310.814L554.655 313.336L556.757 312.075L554.655 309.132L568.528 296.52C569.874 297.529 573.293 297.781 574.834 297.781V296.52C572.48 296.52 569.649 294.838 568.528 293.997C568.117 292.763 567.974 291.797 567.851 290.968C567.598 289.257 567.431 288.13 565.165 286.43C563.529 285.203 562.192 285.07 560.669 284.919C559.061 284.759 557.246 284.578 554.655 283.067C550.619 280.712 549.329 274.799 549.189 272.136L543.724 266.25V256.581L549.189 251.956H558.018L562.643 249.434C562.643 252.461 566.566 255.46 568.528 256.581C570.35 259.383 575.087 266.166 579.459 270.875C582.047 273.662 583.692 274.658 584.886 275.38C586.213 276.184 586.982 276.649 587.867 278.863C589.213 282.226 593.753 283.067 595.855 283.067C595.428 281.147 596.625 279.552 597.579 278.281C598.504 277.048 599.2 276.121 597.957 275.499C595.939 274.49 594.594 271.155 594.173 269.614C591.791 269.193 586.522 267.596 584.504 264.569C583.307 262.773 582.678 262.492 581.718 262.064C580.656 261.59 579.188 260.935 576.096 257.842C571.387 253.133 570.771 244.949 571.051 241.446C572.312 240.465 575.423 237.662 577.777 234.299C580.132 230.936 579.879 222.527 579.459 218.744L581.141 217.062L574.834 204.45H572.732L576.096 214.96L571.051 221.266H568.528V217.062H566.847L565.165 222.527H562.643L549.189 225.891L531.532 211.176L529.43 204.45H525.226L521.862 195.621L529.43 190.156L521.862 190.996V185.951L528.589 180.906L540.361 179.225L535.316 177.964V174.18L533.634 171.237L536.156 164.51H540.361L547.508 171.237L551.291 172.078L545.406 164.51C545.265 162.969 545.069 158.54 545.406 153.159C545.718 148.162 548.583 146.877 551.242 145.685C552.162 145.272 553.057 144.871 553.814 144.331C556.757 142.228 558.438 139.706 558.018 135.502C557.598 131.298 555.495 129.616 553.814 131.298C552.132 132.979 550.03 132.559 547.087 131.298C545.458 130.599 544.215 127.71 543.073 125.056C542.153 122.916 541.299 120.93 540.361 120.367C538.259 119.106 532.373 119.947 530.271 121.628C528.589 122.974 526.207 129.756 525.226 132.979L520.601 135.502C520.881 134.521 520.938 132.559 518.92 132.559C516.902 132.559 514.155 129.756 513.034 128.355C513.034 127.094 513.286 123.983 514.295 121.628C515.304 119.274 515.276 116.723 515.136 115.742L513.034 111.538H509.25C508.83 110.557 507.4 108.427 505.046 107.755C502.692 107.082 500.982 108.876 500.421 109.857L505.046 114.061L503.667 117.424L504.205 120.367L502.523 121.628L501.683 123.31L502.103 127.934L499.581 131.298C497.226 131.298 497.479 134.941 497.899 136.763L502.523 139.706V141.808L483.185 150.216L481.082 136.763L478.98 132.559L480.242 131.298L478.14 124.571L475.617 121.628C473.655 120.787 468.638 119.442 464.266 120.787C459.894 122.133 454.596 130.317 452.494 134.241L443.666 151.478C438.728 150.49 435.53 150.517 433.135 150.538C431.452 150.552 430.166 150.563 428.951 150.216C426.008 149.375 424.327 148.114 424.327 145.592C424.327 144.467 424.327 144.011 424.55 143.739C424.828 143.401 425.452 143.348 426.849 142.649C428.867 141.64 430.212 139.426 430.633 138.445L428.951 136.763H426.429C425.728 135.362 424.159 132.307 423.486 131.298C422.645 130.037 424.327 127.514 426.849 127.094C428.867 126.757 430.493 125.272 431.053 124.571V121.628L426.849 119.947L424.327 116.583L426.429 115.742L424.327 111.538L421.804 112.379L418.441 107.755L412.555 108.595L404.147 107.334V109.016L410.033 109.857L411.714 114.061L405.408 119.947V124.571L402.886 127.094L398.261 124.992L399.522 118.265L398.261 117.845L396.579 124.992C393.917 126.113 386.994 127.934 380.604 126.253C372.616 124.151 366.73 119.526 364.208 116.583C361.966 113.968 359.061 114.009 356.082 114.05C355.708 114.056 355.333 114.061 354.959 114.061C352.427 114.061 350.371 111.44 348.793 109.427C348.274 108.766 347.807 108.17 347.391 107.755C345.828 106.191 343.901 105.718 342.287 105.321C342.165 105.291 342.044 105.262 341.926 105.232C340.244 104.812 337.301 98.5055 336.46 94.3014C335.646 90.2302 330.889 86.159 327.917 83.6149C327.82 83.5318 327.725 83.4504 327.632 83.3707C325.277 81.3527 324.969 78.0455 325.109 76.6441C324.549 77.2046 323.175 78.3257 322.166 78.3257C321.157 78.3257 319.784 73.8413 319.224 71.5991H314.599L313.338 76.6441L315.86 80.0074L312.077 81.689L302.827 80.0074L299.044 74.542Z" fill="#1A203A"/>
<path d="M35.0248 148.114L33.7636 148.955C33.203 148.395 31.8297 146.937 30.8206 145.592C29.8657 144.319 27.7065 142.805 25.984 141.597C25.4311 141.209 24.9231 140.853 24.5145 140.547C23.1692 139.538 23.9539 137.324 24.5145 136.343L26.6166 137.184L28.2982 138.445C28.5785 138.305 29.2231 137.856 29.5595 137.184C29.8958 136.511 29.9799 134.381 29.9799 133.4C30.6806 133.54 32.0819 134.157 32.0819 135.502C32.0819 136.552 32.7378 137.11 33.5375 137.791C34.0183 138.2 34.5512 138.654 35.0248 139.286C36.2861 140.967 36.7065 144.751 35.8656 145.592C35.193 146.264 35.0248 147.554 35.0248 148.114Z" fill="#1A203A"/>
<path d="M36.2861 197.723C36.2861 199.405 39.3691 200.105 40.9106 200.245V196.882C40.9106 195.721 39.5073 195.161 38.2234 194.649C37.6481 194.419 37.0968 194.199 36.7065 193.939C35.6975 193.267 35.4452 194.5 35.4452 195.201C35.7255 195.341 36.2861 196.041 36.2861 197.723Z" fill="#1A203A"/>
<path d="M672.791 236.821L671.95 235.98C672.23 235.7 672.959 235.056 673.632 234.719C674.472 234.299 674.893 233.458 676.154 230.936C676.205 230.833 676.255 230.733 676.304 230.635L676.346 230.549L676.466 230.306C677.504 228.197 678.055 227.079 680.358 226.311C681.338 225.985 682.19 225.468 683.113 224.909C684.567 224.028 686.195 223.042 688.766 222.527C689.455 222.39 690.087 222.252 690.668 222.125C693.636 221.479 695.279 221.121 696.334 222.527C697.34 223.869 697.008 225.746 696.62 227.945C696.521 228.502 696.419 229.08 696.334 229.674C695.914 232.617 694.232 236.401 690.448 238.503C689.593 238.978 688.867 239.41 688.221 239.794C686.009 241.11 684.738 241.866 682.46 241.866C680.239 241.866 678.976 240.19 677.948 238.826L677.947 238.825C677.613 238.382 677.304 237.971 676.995 237.662C675.986 236.653 673.772 236.681 672.791 236.821Z" fill="#1A203A"/>
<path d="M624.864 255.319L625.705 252.376C626.265 252.517 627.723 252.713 629.068 252.376C630.75 251.956 632.431 250.695 632.852 246.491C633.272 242.286 635.374 240.605 637.476 238.923C639.578 237.242 641.68 237.242 642.941 238.503C643.654 239.215 645.439 239.391 647.161 239.561C648.488 239.692 649.777 239.819 650.509 240.185C652.191 241.025 654.713 242.707 652.191 243.127C650.5 243.409 649.754 243.88 648.306 244.792C647.594 245.241 646.712 245.797 645.464 246.491C643.334 247.674 643.202 248.591 643.044 249.691C642.922 250.545 642.783 251.511 641.68 252.797C639.158 255.74 635.794 257.421 632.431 257.842C629.741 258.178 626.265 256.3 624.864 255.319Z" fill="#1A203A"/>
<path d="M609.729 375.137V382.705C609.729 383.636 611.793 384.797 614.566 386.357C615.547 386.909 616.618 387.511 617.717 388.17C620.166 389.64 621.189 388.826 622.364 387.891C623.205 387.221 624.125 386.488 625.705 386.488C626.142 386.488 626.558 386.483 626.956 386.477C629.997 386.436 632.028 386.409 635.374 389.011C639.158 391.954 639.999 393.215 639.999 395.317C639.999 396.78 644.072 400.076 647.257 402.653C648.648 403.779 649.87 404.768 650.509 405.407C651.692 406.59 653.541 406.575 655.306 406.56C656.677 406.548 657.998 406.537 658.917 407.089C659.861 407.655 660.635 408.644 661.354 409.563C662.236 410.691 663.035 411.713 663.962 411.713C664.331 411.713 664.659 411.733 664.956 411.752C666.012 411.817 666.669 411.857 667.325 410.872C668.166 409.611 671.109 407.089 671.95 407.089C672.623 407.089 672.23 404.846 671.95 403.725C670.689 402.884 668.166 400.866 668.166 399.521V396.578L666.905 394.056C664.803 394.756 660.431 395.99 659.758 395.317C659.365 394.924 658.143 394.714 656.739 394.474C655.142 394.2 653.309 393.886 652.191 393.215C651.495 392.798 650.708 392.197 649.859 391.548L649.858 391.548C648.141 390.236 646.172 388.733 644.203 388.17C642.272 387.618 640.884 385.981 639.683 384.564C639.053 383.821 638.475 383.138 637.897 382.705C637.122 382.124 635.814 382.078 634.545 382.033C633.057 381.981 631.624 381.931 631.17 381.023C631.057 380.798 630.937 380.55 630.81 380.287C629.984 378.583 628.843 376.23 627.386 375.137C626.041 374.128 624.023 374.156 623.182 374.296V370.092H621.5V372.615L620.239 373.035L618.978 371.774H613.933C612.532 372.334 609.729 373.792 609.729 375.137Z" fill="#1A203A"/>
<path d="M606.366 438.62C605.104 437.358 605.525 433.575 606.366 432.313C606.591 431.893 608.047 432.313 609.309 432.734C610.57 433.154 612.672 433.995 612.672 434.415C612.672 434.476 612.698 434.582 612.74 434.717L612.753 434.758C612.774 434.826 612.799 434.902 612.826 434.983L612.849 435.053C613.145 435.939 613.618 437.358 612.672 437.358C612.041 437.358 611.516 437.884 610.99 438.409C610.465 438.935 609.939 439.46 609.309 439.46C609.032 439.46 608.796 439.481 608.583 439.499C607.823 439.564 607.35 439.604 606.366 438.62Z" fill="#1A203A"/>
<path d="M587.447 500.841C586.606 501.681 585.765 506.306 587.447 506.726C589.129 507.147 592.072 507.567 593.753 506.726C594.688 506.259 595.233 505.014 595.677 503.999C596.032 503.187 596.323 502.522 596.696 502.522C597.537 502.522 598.378 502.522 599.219 503.363C600.06 504.204 603.002 506.726 605.945 506.726C607.487 506.726 608.105 506.034 608.587 505.496C609.024 505.007 609.349 504.644 610.149 505.045C611.831 505.886 612.252 504.204 610.149 501.681C608.047 499.159 605.104 498.739 602.162 498.318C599.219 497.898 588.327 498.318 587.447 500.841Z" fill="#1A203A"/>
<path d="M31.2411 215.38H25.7757V214.539H27.037L27.4574 209.495L31.6615 213.699L31.2411 215.38Z" fill="#1A203A"/>
<path d="M33.4166 154.17C33.0785 154.599 32.6519 155.14 32.9226 155.682C33.1423 156.121 33.4769 156.216 33.8662 156.327C34.2219 156.428 34.6234 156.541 35.0248 156.943C35.8656 157.784 36.7065 156.943 35.8656 155.682C35.193 154.673 35.5854 153.86 35.8656 153.58H33.7636C33.7636 153.729 33.6036 153.932 33.4166 154.17Z" fill="#1A203A"/>
<path d="M299.044 74.542L291.056 72.4399L289.795 71.5991C290.215 72.5801 290.804 74.7102 289.795 75.3828C289.46 75.606 288.859 76.3623 288.077 77.3452C285.915 80.0652 282.373 84.5203 279.285 84.2115C275.08 83.7911 259.946 85.8932 252.378 90.5177C248.215 93.0619 243.543 94.2064 238.011 95.5614C233.488 96.6692 228.391 97.9178 222.529 100.187C209.496 105.232 181.749 110.277 179.226 110.698C176.704 111.118 169.977 117.004 167.875 121.208C166.355 124.248 160.369 126.372 156.749 127.27C156.908 127.082 156.707 126.765 155.683 126.253C153.665 125.244 148.957 120.227 146.854 117.845L142.23 117.004L136.344 117.845C134.52 121.494 131.745 123.876 128.845 126.366C128.403 126.744 127.959 127.126 127.516 127.514C124.825 129.868 114.062 141.948 109.017 147.694L107.756 150.216L103.132 156.102L100.609 156.523L96.8254 155.261L95.5641 156.102L100.609 158.625V161.567C100.609 164.51 99.3478 169.555 97.2458 169.135C95.5641 168.799 94.8634 166.472 94.7233 165.351H92.6212C94.3029 167.369 93.3219 170.676 92.6212 172.078C93.3219 172.498 94.3029 174.264 92.6212 177.964C90.9396 181.663 93.3219 183.989 94.7233 184.69C90.0988 189.315 91.7804 194.78 94.7233 199.825C97.6662 204.87 101.45 209.915 103.552 209.915C105.654 209.915 108.597 211.176 106.495 212.437C106.404 212.492 106.308 212.549 106.207 212.61C103.967 213.95 99.3478 216.714 99.3478 218.323C99.3478 220.005 98.9274 221.266 96.405 219.164C93.8825 217.062 92.6212 216.642 85.0538 218.323C82.1796 218.962 79.366 219.783 76.7974 220.532C72.6031 221.755 69.0619 222.788 66.9761 222.527C64.1474 222.174 64.2925 219.144 64.4101 216.689C64.4324 216.225 64.4536 215.781 64.4536 215.38C64.4536 213.895 63.7246 213.867 62.9535 213.838C62.4151 213.818 61.8563 213.797 61.5106 213.278C60.8428 212.276 59.1137 212.336 57.1664 212.402C56.6623 212.42 56.1436 212.437 55.6249 212.437C53.1025 212.437 51.8412 209.915 51.8412 205.29C51.8412 201.591 50.1596 201.507 49.3187 201.927L48.4778 205.29L44.2738 209.915C44.6942 210.195 45.535 211.092 45.535 212.437C45.535 213.783 43.5731 215.801 42.5921 216.642C44.1336 218.744 47.4688 223.284 48.4778 224.629C49.0103 225.339 50.3668 225.525 51.8201 225.723C53.8094 225.995 55.9799 226.292 56.4658 227.993C57.1384 230.347 56.1855 235.42 55.6249 237.662C52.598 239.344 51.8412 242.567 51.8412 243.968H58.1473L59.4086 249.434L58.1473 251.115C56.802 250.106 53.9432 250.695 52.682 251.115V247.752L42.5921 249.434L40.9105 251.115L37.5472 249.434V246.491H35.4451V249.434L25.3552 253.217L21.5715 251.115V246.491H19.049L18.2081 251.115C15.9659 251.256 11.3974 252.04 11.0611 254.058C10.679 256.351 12.0332 257.602 16.7018 261.913C17.1701 262.346 17.6716 262.809 18.2081 263.307C20.8606 265.77 21.8908 267.636 22.7609 269.211C23.8216 271.132 24.6443 272.621 27.8776 274.238C33.7634 277.181 45.1145 287.691 47.2166 291.055C48.8983 293.745 48.7581 298.061 48.4778 299.883C50.8321 300.892 53.6629 304.228 54.784 305.769C54.9242 305.489 55.793 305.349 58.1473 307.03C59.7522 308.177 59.9818 309.073 60.1997 309.924C60.3813 310.633 60.5549 311.311 61.5106 312.075C63.3616 313.556 62.9307 314.711 62.5143 315.827C62.4578 315.978 62.4016 316.129 62.3514 316.279C61.931 317.541 64.033 320.484 66.1351 321.324C68.0312 322.083 69.5852 321.815 71.7228 321.447C71.955 321.407 72.1941 321.366 72.4413 321.324C73.3339 321.176 74.595 320.658 75.9825 320.089C78.5159 319.05 81.4705 317.838 83.372 318.381C85.8604 319.092 86.8458 318 87.8533 316.883C88.0374 316.679 88.2222 316.474 88.417 316.279C89.6782 315.018 92.2007 313.336 95.564 315.018C97.7613 316.117 98.8819 315.78 100.098 315.414C100.744 315.22 101.416 315.018 102.291 315.018C104.813 315.018 113.642 315.018 117.846 313.336C120.543 312.258 123.068 313.082 125.641 313.923C127.078 314.393 128.531 314.867 130.038 315.018C133.401 315.354 143.771 316.84 148.536 317.541L154.422 325.108V328.051C156.244 330.293 160.728 335.198 164.091 336.88C166.173 337.921 167.224 340.405 168.367 343.107C169.533 345.862 170.794 348.843 173.34 350.753C176.62 353.213 177.412 355.85 178.258 358.665C178.713 360.18 179.184 361.747 180.067 363.366C182.589 367.99 185.112 371.353 186.373 368.411C187.634 365.468 188.896 364.627 191.839 363.366C194.09 362.401 195.111 361.436 197.726 358.964C198.529 358.205 199.482 357.305 200.667 356.219C203.664 353.471 206.662 352.801 209.042 352.269C210.668 351.906 212.006 351.606 212.859 350.753C214.903 348.709 216.948 347.858 221.699 345.879L222.108 345.708C226.144 344.027 239.485 339.122 245.651 336.88L252.798 330.153L260.786 330.994L264.99 329.312C266.812 330.153 270.708 331.666 271.717 330.994C271.837 330.914 271.968 330.823 272.11 330.724C273.461 329.784 275.78 328.171 278.444 329.312C281.386 330.573 283.488 330.994 288.113 328.051C291.813 325.697 295.26 327.07 296.521 328.051C299.604 329.733 306.695 334.357 310.395 339.402C313.04 343.009 314.997 344.278 316.503 345.254C317.63 345.984 318.504 346.551 319.224 347.81C320.905 350.753 323.007 351.594 330.154 352.855C334.164 353.563 334.733 355.196 335.574 357.608C336.231 359.495 337.055 361.858 339.824 364.627C345.513 370.316 352.228 372.241 358.735 374.107C359.441 374.309 360.145 374.511 360.844 374.717C367.991 376.819 370.934 378.08 372.196 382.284C373.205 385.647 376.82 387.329 378.502 387.75C379.847 391.449 383.547 396.298 385.228 398.26V404.566C381.865 406.248 373.457 414.236 372.196 418.86C371.187 422.56 371.775 430.772 372.196 434.415C368.832 435.256 365.469 439.46 360.844 448.289C360.568 448.816 360.299 449.33 360.037 449.831C355.915 457.713 353.496 462.338 350.334 465.105C350.157 465.261 349.988 465.408 349.826 465.548C346.931 468.064 346.617 468.337 347.812 473.514C349.073 478.979 347.391 485.285 344.869 490.751C343.105 494.572 343.397 495.516 343.732 496.6C343.876 497.067 344.028 497.559 344.028 498.318C344.028 500.336 339.544 506.446 337.301 509.249C332.537 509.95 322.166 510.931 318.803 509.249C315.44 507.567 308.713 507.147 305.77 507.147C305.07 509.249 303.584 515.471 303.248 523.543C302.827 533.633 302.407 540.78 300.725 542.041C300.404 542.282 300.021 542.554 299.602 542.851C297.834 544.106 295.439 545.806 294.419 547.506C293.41 549.188 289.795 551.29 288.113 552.131C288.393 552.692 288.786 554.569 288.113 557.596C287.95 558.329 287.756 559.046 287.567 559.744C286.779 562.651 286.079 565.232 288.113 567.266C290.131 569.284 290.916 574.273 291.056 576.515L285.591 583.242L286.431 588.707L280.125 605.944V609.307C280.125 609.643 277.042 616.454 275.501 619.817L278.023 622.76V624.862H275.921L275.501 628.226L272.978 625.283C270.316 628.226 264.822 635.12 264.149 639.156C263.508 643.007 264.58 643.184 267.18 643.613C267.987 643.746 268.94 643.903 270.035 644.201C273.866 645.246 273.947 645.425 274.817 647.368C274.998 647.771 275.212 648.249 275.501 648.826C276.999 651.823 277.83 651.815 281.861 651.778C282.354 651.774 282.894 651.769 283.488 651.769C287.861 651.769 292.597 654.011 294.419 655.132L299.464 660.597H306.191L312.497 664.381L318.803 676.994L321.326 684.141L323.848 684.981L338.142 697.594L371.355 703.48C367.991 692.549 367.571 682.879 368.832 679.096C369.841 676.069 370.934 668.025 371.355 664.381L385.228 653.45L394.898 652.61C395.318 653.31 396.411 655.384 397.42 658.075C398.682 661.438 399.102 664.802 398.261 669.847C397.588 673.883 401.344 678.815 403.306 680.777H411.294L412.135 682.879H414.657L412.135 679.096H407.09C402.045 675.312 406.669 670.687 412.135 667.745C416.507 665.39 418.161 667.604 418.441 669.006L420.963 670.687L429.372 661.859L435.678 663.54L437.78 667.745L444.507 663.54L435.678 648.406C435.958 646.584 437.612 642.015 441.984 638.316C445.561 635.289 451.298 633.703 455.661 632.497C457.965 631.86 459.886 631.329 460.903 630.748C463.257 629.403 463.285 626.544 463.005 625.283L459.221 622.34L465.948 615.613L482.344 614.352L486.127 618.136C485.707 618.276 484.866 619.061 484.866 621.079V626.124L489.911 627.805L496.217 624.442L505.466 627.805L506.728 626.124L497.899 622.34V616.875C497.899 614.857 493.415 615.193 491.172 615.613L488.229 616.875L486.127 614.352V609.728L512.193 593.331L515.556 587.446C516.902 585.091 520.041 584.503 521.442 584.503L526.067 587.446L534.895 589.127L538.679 593.331H548.348L552.973 590.389L559.7 595.013L561.381 593.331L555.075 589.127C555.495 587.165 555.664 582.485 552.973 579.458C550.576 576.762 550.955 574.279 551.37 571.553C551.538 570.454 551.712 569.315 551.712 568.107C551.712 563.903 551.712 563.062 548.348 560.119C545.658 557.764 544.985 551.29 544.985 548.347V538.257L552.973 532.372V528.167H551.712V530.69L545.406 534.474C544.425 534.474 542.042 533.969 540.361 531.951C539.693 531.15 538.388 530.009 536.865 528.677C533.595 525.816 529.316 522.074 528.169 518.918C527.22 516.31 525.871 515.574 524.497 514.825C523.435 514.246 522.359 513.658 521.442 512.192C519.76 509.501 520.741 506.306 521.442 505.045V495.796L534.895 490.751H538.679V495.796H540.361C540.634 493.064 540.907 492.64 542.217 490.603C542.924 489.504 543.933 487.936 545.406 485.285C547.713 481.132 547.994 479.005 548.265 476.958C548.487 475.275 548.702 473.647 550.03 470.991C552.384 466.283 557.177 462.022 559.279 460.481L566.006 465.526L568.528 464.265C567.547 463.564 565.249 461.91 563.904 460.901C562.558 459.892 563.343 456.837 563.904 455.436H566.006L573.153 456.277L580.72 449.971L578.618 447.448C576.516 447.869 573.153 447.028 568.528 444.926C564.829 443.244 565.025 433.855 565.585 429.37L556.757 423.064V416.338L551.712 413.395C551.712 411.853 552.3 407.929 554.655 404.566C557.009 401.203 560.961 402.044 562.643 402.884H574.834C578.87 402.884 582.122 399.801 583.243 398.26L580.72 394.897L573.153 394.056V385.647C573.153 380.603 575.956 378.781 577.357 378.5H586.186C586.746 377.94 588.372 376.482 590.39 375.137C592.912 373.456 592.912 368.831 590.39 370.513C587.867 372.194 586.186 369.672 584.504 365.047C583.617 362.609 583.198 359.001 582.815 355.703C582.472 352.748 582.157 350.042 581.561 348.651C580.552 346.297 576.656 343.746 574.834 342.765V338.141C573.573 337.72 570.546 336.796 568.528 336.459C566.51 336.123 563.764 330.714 562.643 328.051L560.12 329.312C559.419 328.892 557.345 328.051 554.655 328.051C551.964 328.051 549.89 325.248 549.189 323.847L550.451 322.165V313.336L553.393 310.814L554.655 313.336L556.757 312.075L554.655 309.132L568.528 296.52C569.874 297.529 573.293 297.781 574.834 297.781V296.52C572.48 296.52 569.649 294.838 568.528 293.997C568.117 292.763 567.974 291.797 567.851 290.968C567.598 289.257 567.431 288.13 565.165 286.43C563.529 285.203 562.192 285.07 560.669 284.919C559.061 284.759 557.246 284.578 554.655 283.067C550.619 280.712 549.329 274.799 549.189 272.136L543.724 266.25V256.581L549.189 251.956H558.018L562.643 249.434C562.643 252.461 566.566 255.46 568.528 256.581C570.35 259.383 575.087 266.166 579.459 270.875C582.047 273.662 583.692 274.658 584.886 275.38C586.213 276.184 586.982 276.649 587.867 278.863C589.213 282.226 593.753 283.067 595.855 283.067C595.428 281.147 596.625 279.552 597.579 278.281C598.504 277.048 599.2 276.121 597.957 275.499C595.939 274.49 594.594 271.155 594.173 269.614C591.791 269.193 586.522 267.596 584.504 264.569C583.307 262.773 582.678 262.492 581.718 262.064C580.656 261.59 579.188 260.935 576.096 257.842C571.387 253.133 570.771 244.949 571.051 241.446C572.312 240.465 575.423 237.662 577.777 234.299C580.132 230.936 579.879 222.527 579.459 218.744L581.141 217.062L574.834 204.45H572.732L576.096 214.96L571.051 221.266H568.528V217.062H566.847L565.165 222.527H562.643L549.189 225.891L531.532 211.176L529.43 204.45H525.226L521.862 195.621L529.43 190.156L521.862 190.996V185.951L528.589 180.906L540.361 179.225L535.316 177.964V174.18L533.634 171.237L536.156 164.51H540.361L547.508 171.237L551.291 172.078L545.406 164.51C545.265 162.969 545.069 158.54 545.406 153.159C545.718 148.162 548.583 146.877 551.242 145.685C552.162 145.272 553.057 144.871 553.814 144.331C556.757 142.228 558.438 139.706 558.018 135.502C557.598 131.298 555.495 129.616 553.814 131.298C552.132 132.979 550.03 132.559 547.087 131.298C545.458 130.599 544.215 127.71 543.073 125.056C542.153 122.916 541.299 120.93 540.361 120.367C538.259 119.106 532.373 119.947 530.271 121.628C528.589 122.974 526.207 129.756 525.226 132.979L520.601 135.502C520.881 134.521 520.938 132.559 518.92 132.559C516.902 132.559 514.155 129.756 513.034 128.355C513.034 127.094 513.286 123.983 514.295 121.628C515.304 119.274 515.276 116.723 515.136 115.742L513.034 111.538H509.25C508.83 110.557 507.4 108.427 505.046 107.755C502.692 107.082 500.982 108.876 500.421 109.857L505.046 114.061L503.667 117.424L504.205 120.367L502.523 121.628L501.683 123.31L502.103 127.934L499.581 131.298C497.226 131.298 497.479 134.941 497.899 136.763L502.523 139.706V141.808L483.185 150.216L481.082 136.763L478.98 132.559L480.242 131.298L478.14 124.571L475.617 121.628C473.655 120.787 468.638 119.442 464.266 120.787C459.894 122.133 454.596 130.317 452.494 134.241L443.666 151.478C438.728 150.49 435.53 150.517 433.135 150.538C431.452 150.552 430.166 150.563 428.951 150.216C426.008 149.375 424.327 148.114 424.327 145.592C424.327 144.467 424.327 144.011 424.55 143.739C424.828 143.401 425.452 143.348 426.849 142.649C428.867 141.64 430.212 139.426 430.633 138.445L428.951 136.763H426.429C425.728 135.362 424.159 132.307 423.486 131.298C422.645 130.037 424.327 127.514 426.849 127.094C428.867 126.757 430.493 125.272 431.053 124.571V121.628L426.849 119.947L424.327 116.583L426.429 115.742L424.327 111.538L421.804 112.379L418.441 107.755L412.555 108.595L404.147 107.334V109.016L410.033 109.857L411.714 114.061L405.408 119.947V124.571L402.886 127.094L398.261 124.992L399.522 118.265L398.261 117.845L396.579 124.992C393.917 126.113 386.994 127.934 380.604 126.253C372.616 124.151 366.73 119.526 364.208 116.583C361.966 113.968 359.061 114.009 356.082 114.05C355.708 114.056 355.333 114.061 354.959 114.061C352.427 114.061 350.371 111.44 348.793 109.427C348.274 108.766 347.807 108.17 347.391 107.755C345.828 106.191 343.901 105.718 342.287 105.321C342.165 105.291 342.044 105.262 341.926 105.232C340.244 104.812 337.301 98.5055 336.46 94.3014C335.646 90.2302 330.889 86.159 327.917 83.6149C327.82 83.5318 327.725 83.4504 327.632 83.3707C325.277 81.3527 324.969 78.0455 325.109 76.6441C324.549 77.2046 323.175 78.3257 322.166 78.3257C321.157 78.3257 319.784 73.8413 319.224 71.5991H314.599L313.338 76.6441L315.86 80.0074L312.077 81.689L302.827 80.0074L299.044 74.542Z" stroke="#333757" stroke-width="1.5" stroke-linejoin="round"/>
<path d="M35.0248 148.114L33.7636 148.955C33.203 148.395 31.8297 146.937 30.8206 145.592C29.8657 144.319 27.7065 142.805 25.984 141.597C25.4311 141.209 24.9231 140.853 24.5145 140.547C23.1692 139.538 23.9539 137.324 24.5145 136.343L26.6166 137.184L28.2982 138.445C28.5785 138.305 29.2231 137.856 29.5595 137.184C29.8958 136.511 29.9799 134.381 29.9799 133.4C30.6806 133.54 32.0819 134.157 32.0819 135.502C32.0819 136.552 32.7378 137.11 33.5375 137.791C34.0183 138.2 34.5512 138.654 35.0248 139.286C36.2861 140.967 36.7065 144.751 35.8656 145.592C35.193 146.264 35.0248 147.554 35.0248 148.114Z" stroke="#333757" stroke-width="1.5" stroke-linejoin="round"/>
<path d="M36.2861 197.723C36.2861 199.405 39.3691 200.105 40.9106 200.245V196.882C40.9106 195.721 39.5073 195.161 38.2234 194.649C37.6481 194.419 37.0968 194.199 36.7065 193.939C35.6975 193.267 35.4452 194.5 35.4452 195.201C35.7255 195.341 36.2861 196.041 36.2861 197.723Z" stroke="#333757" stroke-width="1.5" stroke-linejoin="round"/>
<path d="M672.791 236.821L671.95 235.98C672.23 235.7 672.959 235.056 673.632 234.719C674.472 234.299 674.893 233.458 676.154 230.936C676.205 230.833 676.255 230.733 676.304 230.635L676.346 230.549L676.466 230.306C677.504 228.197 678.055 227.079 680.358 226.311C681.338 225.985 682.19 225.468 683.113 224.909C684.567 224.028 686.195 223.042 688.766 222.527C689.455 222.39 690.087 222.252 690.668 222.125C693.636 221.479 695.279 221.121 696.334 222.527C697.34 223.869 697.008 225.746 696.62 227.945C696.521 228.502 696.419 229.08 696.334 229.674C695.914 232.617 694.232 236.401 690.448 238.503C689.593 238.978 688.867 239.41 688.221 239.794C686.009 241.11 684.738 241.866 682.46 241.866C680.239 241.866 678.976 240.19 677.948 238.826L677.947 238.825C677.613 238.382 677.304 237.971 676.995 237.662C675.986 236.653 673.772 236.681 672.791 236.821Z" stroke="#333757" stroke-width="1.5" stroke-linejoin="round"/>
<path d="M624.864 255.319L625.705 252.376C626.265 252.517 627.723 252.713 629.068 252.376C630.75 251.956 632.431 250.695 632.852 246.491C633.272 242.286 635.374 240.605 637.476 238.923C639.578 237.242 641.68 237.242 642.941 238.503C643.654 239.215 645.439 239.391 647.161 239.561C648.488 239.692 649.777 239.819 650.509 240.185C652.191 241.025 654.713 242.707 652.191 243.127C650.5 243.409 649.754 243.88 648.306 244.792C647.594 245.241 646.712 245.797 645.464 246.491C643.334 247.674 643.202 248.591 643.044 249.691C642.922 250.545 642.783 251.511 641.68 252.797C639.158 255.74 635.794 257.421 632.431 257.842C629.741 258.178 626.265 256.3 624.864 255.319Z" stroke="#333757" stroke-width="1.5" stroke-linejoin="round"/>
<path d="M609.729 375.137V382.705C609.729 383.636 611.793 384.797 614.566 386.357C615.547 386.909 616.618 387.511 617.717 388.17C620.166 389.64 621.189 388.826 622.364 387.891C623.205 387.221 624.125 386.488 625.705 386.488C626.142 386.488 626.558 386.483 626.956 386.477C629.997 386.436 632.028 386.409 635.374 389.011C639.158 391.954 639.999 393.215 639.999 395.317C639.999 396.78 644.072 400.076 647.257 402.653C648.648 403.779 649.87 404.768 650.509 405.407C651.692 406.59 653.541 406.575 655.306 406.56C656.677 406.548 657.998 406.537 658.917 407.089C659.861 407.655 660.635 408.644 661.354 409.563C662.236 410.691 663.035 411.713 663.962 411.713C664.331 411.713 664.659 411.733 664.956 411.752C666.012 411.817 666.669 411.857 667.325 410.872C668.166 409.611 671.109 407.089 671.95 407.089C672.623 407.089 672.23 404.846 671.95 403.725C670.689 402.884 668.166 400.866 668.166 399.521V396.578L666.905 394.056C664.803 394.756 660.431 395.99 659.758 395.317C659.365 394.924 658.143 394.714 656.739 394.474C655.142 394.2 653.309 393.886 652.191 393.215C651.495 392.798 650.708 392.197 649.859 391.548L649.858 391.548C648.141 390.236 646.172 388.733 644.203 388.17C642.272 387.618 640.884 385.981 639.683 384.564C639.053 383.821 638.475 383.138 637.897 382.705C637.122 382.124 635.814 382.078 634.545 382.033C633.057 381.981 631.624 381.931 631.17 381.023C631.057 380.798 630.937 380.55 630.81 380.287C629.984 378.583 628.843 376.23 627.386 375.137C626.041 374.128 624.023 374.156 623.182 374.296V370.092H621.5V372.615L620.239 373.035L618.978 371.774H613.933C612.532 372.334 609.729 373.792 609.729 375.137Z" stroke="#333757" stroke-width="1.5" stroke-linejoin="round"/>
<path d="M606.366 438.62C605.104 437.358 605.525 433.575 606.366 432.313C606.591 431.893 608.047 432.313 609.309 432.734C610.57 433.154 612.672 433.995 612.672 434.415C612.672 434.476 612.698 434.582 612.74 434.717L612.753 434.758C612.774 434.826 612.799 434.902 612.826 434.983L612.849 435.053C613.145 435.939 613.618 437.358 612.672 437.358C612.041 437.358 611.516 437.884 610.99 438.409C610.465 438.935 609.939 439.46 609.309 439.46C609.032 439.46 608.796 439.481 608.583 439.499C607.823 439.564 607.35 439.604 606.366 438.62Z" stroke="#333757" stroke-width="1.5" stroke-linejoin="round"/>
<path d="M587.447 500.841C586.606 501.681 585.765 506.306 587.447 506.726C589.129 507.147 592.072 507.567 593.753 506.726C594.688 506.259 595.233 505.014 595.677 503.999C596.032 503.187 596.323 502.522 596.696 502.522C597.537 502.522 598.378 502.522 599.219 503.363C600.06 504.204 603.002 506.726 605.945 506.726C607.487 506.726 608.105 506.034 608.587 505.496C609.024 505.007 609.349 504.644 610.149 505.045C611.831 505.886 612.252 504.204 610.149 501.681C608.047 499.159 605.104 498.739 602.162 498.318C599.219 497.898 588.327 498.318 587.447 500.841Z" stroke="#333757" stroke-width="1.5" stroke-linejoin="round"/>
<path d="M31.2411 215.38H25.7757V214.539H27.037L27.4574 209.495L31.6615 213.699L31.2411 215.38Z" stroke="#333757" stroke-width="1.5" stroke-linejoin="round"/>
<path d="M33.4166 154.17C33.0785 154.599 32.6519 155.14 32.9226 155.682C33.1423 156.121 33.4769 156.216 33.8662 156.327C34.2219 156.428 34.6234 156.541 35.0248 156.943C35.8656 157.784 36.7065 156.943 35.8656 155.682C35.193 154.673 35.5854 153.86 35.8656 153.58H33.7636C33.7636 153.729 33.6036 153.932 33.4166 154.17Z" stroke="#333757" stroke-width="1.5" stroke-linejoin="round"/>
<path d="M506.666 242.286C506.386 243.407 505.909 246.154 506.246 248.172C506.666 250.694 506.246 251.535 504.564 253.637C502.882 255.739 501.621 258.262 501.621 260.784C501.621 262.802 497.417 265.829 495.315 267.09C493.213 267.791 488.504 269.445 486.486 270.454C483.964 271.715 481.441 276.339 478.498 278.021C475.556 279.703 475.135 283.066 473.033 282.225C470.931 281.384 465.466 283.907 464.204 283.907H460.421C460 284.608 458.907 286.009 457.898 286.009C456.637 286.009 455.796 285.168 452.853 286.009C450.499 286.682 449.35 287.41 449.07 287.691C448.789 288.952 447.892 291.643 446.547 292.315C444.865 293.156 438.559 293.576 438.139 292.736C437.718 291.895 437.718 290.634 436.037 291.054C434.355 291.474 431.412 288.531 429.731 288.111C428.049 287.691 427.629 288.952 422.584 288.111C417.539 287.27 417.118 286.85 416.698 286.009C416.277 285.168 415.016 285.168 414.175 286.009C413.334 286.85 413.334 288.531 411.232 288.111C409.13 287.691 407.869 286.85 405.347 287.691C402.824 288.531 401.143 290.213 398.2 290.213C395.257 290.213 390.212 291.054 388.951 291.054C387.689 291.054 386.848 291.895 386.848 293.997C386.848 296.099 387.269 305.348 388.951 312.495C390.296 318.213 389.511 323.566 388.951 325.528C387.97 327.209 385.924 331.414 385.587 334.777C385.167 338.981 381.383 338.981 379.701 341.924C378.356 344.278 376.058 348.791 375.077 350.753C374.797 353.415 373.984 359.329 372.975 361.683C371.714 364.626 369.191 365.887 368.771 370.092C368.35 374.296 367.93 375.557 366.669 376.398M107.274 211.596V207.812C107.274 206.803 105.873 204.87 105.172 204.029L108.956 198.563C109.937 199.124 112.403 199.909 114.421 198.563C116.943 196.882 118.625 196.041 119.886 193.939C121.148 191.837 121.988 191.837 125.352 191.416C128.715 190.996 132.919 188.053 135.442 188.894C137.964 189.735 141.748 187.633 143.009 185.951C144.27 184.269 146.793 181.326 146.793 179.224C149.736 180.205 156.714 182.167 161.087 182.167H168.654C169.495 183.148 171.513 185.11 172.858 185.11C174.204 185.11 174.82 183.989 174.96 183.428C175.381 184.409 176.474 185.951 177.483 184.269C178.744 182.167 180.426 177.963 181.687 177.543C182.696 177.206 182.668 178.524 182.528 179.224C181.267 180.906 179.501 183.596 182.528 180.906C186.312 177.543 185.471 176.702 185.471 175.02C186.452 175.02 189.086 174.852 191.777 174.179C195.14 173.338 198.083 174.179 201.446 171.657V169.975L206.071 163.248L211.957 158.204L218.263 160.726C218.823 160.446 220.365 160.053 222.047 160.726C224.149 161.567 227.092 161.567 232.977 161.987C238.863 162.408 246.01 165.771 249.794 166.612C253.578 167.453 256.941 171.657 259.043 174.179C261.145 176.702 264.088 177.963 265.349 180.065C266.61 182.167 268.712 182.167 270.394 182.167C271.739 182.167 275.439 185.25 277.121 186.792C277.681 188.333 279.223 191.5 280.904 191.837C282.586 192.173 284.968 192.818 285.949 193.098L293.096 200.245C294.358 200.245 297.216 200.413 298.562 201.086C300.243 201.926 302.345 202.347 304.868 202.347C307.39 202.347 303.607 204.449 303.186 205.71C302.766 206.971 302.766 216.22 302.345 219.163C301.925 222.106 304.027 234.719 303.186 238.082C302.345 241.445 300.664 242.286 300.243 246.07C299.823 249.853 302.766 249.433 301.505 251.956C300.243 254.478 300.664 259.523 303.186 262.466C305.709 265.409 307.39 265.409 306.97 268.772C306.55 272.135 306.97 284.748 306.55 286.009C306.213 287.018 303.046 288.952 301.505 289.793V291.895L297.721 296.94L292.676 305.348L294.778 311.234V320.062L293.937 320.903L295.198 327.209M305.709 202.767C306.409 202.627 308.399 202.599 310.754 203.608C313.108 204.617 324.627 208.793 330.093 210.755C333.736 213.418 341.528 219.247 343.546 221.265C346.068 223.788 344.387 225.47 348.171 227.151C351.954 228.833 362.465 233.878 364.987 234.298C367.509 234.719 372.975 234.719 375.077 237.241C377.179 239.764 378.02 241.445 381.804 242.286C385.587 243.127 389.791 243.968 393.155 243.127C393.715 244.248 395.257 246.827 396.938 248.172C399.04 249.853 401.143 251.956 404.506 251.956C407.196 251.956 410.111 252.516 411.232 252.796C411.513 253.497 412.41 254.983 413.755 255.319C415.1 255.655 414.315 256.58 413.755 257.001C414.876 256.72 417.539 256.244 419.22 256.58C421.322 257.001 423.845 256.16 425.106 257.841C426.367 259.523 427.629 261.205 433.094 262.045C438.559 262.886 439.4 264.148 441.082 265.409C442.763 266.67 443.604 267.09 444.025 268.352C445.426 268.492 448.649 268.52 450.331 267.511C452.433 266.25 453.694 266.67 456.217 266.67C458.739 266.67 461.682 264.148 463.364 264.148C465.045 264.148 467.988 265.409 468.409 263.727C468.829 262.045 470.931 260.364 471.772 259.523C472.613 258.682 470.511 255.319 471.772 255.319C473.033 255.319 470.511 254.478 472.192 252.796C473.874 251.115 475.135 251.535 476.396 248.592C477.405 246.238 478.498 245.369 478.919 245.229V243.547L482.282 243.968C482.562 244.248 483.291 244.893 483.964 245.229C484.636 245.565 484.805 244.528 484.805 243.968L493.213 235.98L502.882 245.229L507.087 241.866H507.927C507.787 238.783 508.011 231.86 510.029 228.833C512.047 225.806 522.081 217.201 526.846 213.278L525.585 212.437L527.687 210.335L525.164 204.029M253.578 90.5171L254.418 94.7212C254.839 95.7022 256.1 98.0004 257.782 99.3458C259.463 100.691 260.444 102.149 260.725 102.709V109.015L261.565 109.856V114.901C261.986 116.443 263.247 120.114 264.929 122.468C267.031 125.411 267.451 130.877 268.292 134.24C269.133 137.603 268.292 151.477 268.292 160.306C268.292 169.134 269.974 172.077 268.292 177.963C268.152 178.804 267.788 180.569 267.451 180.906C267.115 181.242 266.47 181.046 266.19 180.906M394.416 652.609L396.098 651.768V647.143L398.2 645.882V643.78L396.098 641.678L396.518 636.213L395.257 634.531C395.537 633.41 395.93 630.831 395.257 629.486C394.416 627.804 394.836 626.964 396.098 625.702C397.359 624.441 395.677 622.339 396.939 621.078C398.2 619.817 400.722 618.976 400.302 615.612C399.966 612.922 398.76 611.689 398.2 611.408C396.798 611.689 393.491 611.997 391.473 610.988C388.951 609.727 388.53 607.625 384.747 605.102C380.963 602.58 376.759 600.478 376.759 595.853C376.759 591.229 374.236 581.559 375.497 579.877C376.759 578.196 375.497 573.992 373.816 571.469C372.134 568.947 371.714 568.106 372.134 566.004C372.555 563.902 369.612 560.959 369.612 558.016C369.612 555.073 368.771 551.71 367.089 548.346C365.407 544.983 365.407 542.04 365.828 539.938C366.248 537.836 365.828 534.893 364.567 533.212C363.305 531.53 362.885 528.587 362.465 525.224C362.044 521.86 362.044 522.281 360.362 519.758C359.017 517.74 358.12 516.115 357.84 515.554C356.719 515.835 353.972 515.975 351.954 514.293C349.432 512.191 348.591 512.191 346.489 512.191C344.387 512.191 344.387 510.93 342.285 510.089C340.603 509.416 338.221 509.248 337.24 509.248M385.167 398.68L390.632 391.533L393.155 389.851L394.416 387.749C395.957 388.31 399.461 389.094 401.143 387.749C403.245 386.067 403.665 383.965 406.187 381.863C408.71 379.761 411.232 377.659 411.232 372.614C411.232 368.578 411.513 366.728 411.653 366.308C411.933 366.728 412.746 367.317 413.755 366.308C415.016 365.047 417.118 364.626 420.061 365.467C422.415 366.14 424.966 365.747 425.947 365.467C426.367 366.308 427.881 368.073 430.571 368.41C433.935 368.83 438.98 369.251 439.4 369.251C439.82 369.251 441.923 372.614 445.286 374.296C447.976 375.641 452.012 376.818 453.694 377.238L454.955 378.92H463.784C465.045 378.92 466.307 381.443 467.988 378.92C469.67 376.398 472.613 372.614 473.874 372.614C475.135 372.614 476.397 372.614 477.237 374.296C478.078 375.977 480.601 376.398 481.441 375.977C482.282 375.557 482.703 375.557 482.703 377.238C482.703 378.92 482.282 377.238 484.805 377.238C487.327 377.238 486.486 375.977 489.85 375.977H506.246L507.507 376.398C508.908 375.697 512.047 374.296 513.393 374.296H513.394C515.075 374.296 516.756 374.296 518.017 372.614C519.279 370.932 519.279 370.091 519.279 368.41C519.279 366.728 521.381 366.728 523.903 367.569C526.426 368.41 529.368 369.671 530.209 370.091C531.05 370.512 531.891 369.251 530.209 368.41C528.528 367.569 523.483 365.047 522.642 363.785C521.969 362.776 520.96 362.524 520.54 362.524L522.642 361.683C523.062 362.244 524.323 363.365 526.005 363.365C528.107 363.365 533.993 362.944 534.834 363.365C535.506 363.701 540.159 364.346 542.401 364.626C544.083 363.785 547.53 361.179 547.867 357.479C548.287 352.855 547.026 350.753 547.446 349.071C547.867 347.389 549.548 346.969 551.23 346.548C552.912 346.128 560.059 344.867 560.899 344.026C561.572 343.353 562.021 343.465 562.161 343.605L561.32 342.344V341.924H564.263V340.663L563.001 338.14L563.422 337.299H565.944L566.785 335.197M372.554 434.414C373.816 434.134 376.59 433.742 377.599 434.414C378.861 435.255 380.542 436.937 383.065 436.517C385.587 436.096 391.473 433.994 397.779 434.414C404.085 434.835 415.857 439.88 417.959 440.721C420.061 441.562 421.322 441.982 422.163 443.664C426.087 444.224 434.523 445.261 436.878 444.925C439.82 444.505 441.502 444.084 442.763 444.925C444.025 445.766 451.592 444.084 452.433 444.925C453.274 445.766 454.115 447.447 454.115 449.549V453.333C455.936 454.454 460 457.285 461.682 459.639C463.364 461.994 468.829 469.029 471.351 472.252C473.033 472.812 476.985 473.933 479.339 473.933L478.919 481.501C478.358 481.921 477.405 483.098 478.078 484.444C478.919 486.125 478.498 486.546 478.919 487.807C479.339 489.068 480.18 490.33 478.919 492.852C477.658 495.374 477.658 495.795 478.919 497.056C480.18 498.317 486.066 500.419 491.111 506.305L489.429 508.407L491.111 510.509C491.251 511.35 491.699 513.368 492.372 514.713C493.213 516.395 494.054 517.236 494.054 518.497C494.054 519.758 496.576 518.497 498.678 520.179C500.78 521.86 502.882 521.44 503.723 523.122C504.564 524.803 505.405 524.803 507.507 525.224C509.189 525.56 511.01 526.485 511.711 526.905C511.431 528.447 511.038 531.782 511.711 532.791C512.552 534.052 512.132 537.416 512.132 538.257C512.132 538.929 511.01 539.378 510.45 539.518C511.01 539.798 512.132 540.611 512.132 541.62C512.132 542.881 513.813 540.359 514.654 541.62C515.327 542.629 515.775 544.002 515.915 544.563C518.017 545.544 522.642 547.506 524.323 547.506C526.426 547.506 527.266 548.346 528.528 549.187C529.789 550.028 530.63 550.869 530.63 549.187C530.63 547.842 534.834 545.544 536.936 544.563C537.356 544.843 538.618 545.235 540.299 544.563C542.401 543.722 543.662 543.302 544.924 543.302" stroke="#333757" stroke-width="1.5" stroke-linecap="round"/>
</svg>
