<svg width="161" height="273" viewBox="0 0 161 273" fill="none" xmlns="http://www.w3.org/2000/svg">
<mask id="path-1-inside-1_908_21841" fill="white">
<path d="M84.2762 206.817C86.7468 205.732 87.8175 202.807 88.7784 200.386C88.9682 199.91 89.0928 199.41 89.1135 198.899C89.2648 194.78 83.2114 194.824 81.1442 191.681C80.9485 191.385 80.7883 191.031 80.8625 190.685C80.9307 190.365 81.1798 190.117 81.4408 189.913C84.1694 187.793 89.0275 188.429 90.3651 185.247C90.8456 184.103 90.6469 182.831 90.5609 181.575C90.4749 180.339 91.8629 179.517 92.8772 180.232C94.0843 181.084 95.0038 182.346 95.3805 183.772C95.5703 184.487 95.6711 185.3 96.2465 185.767C96.6617 186.105 97.2312 186.173 97.768 186.202C101.416 186.412 105.358 185.439 107.736 182.672C109.522 180.593 110.165 177.864 110.495 175.099C110.652 173.778 112.381 173.402 113.105 174.52C114.768 177.089 115.118 181.217 117.891 182.781C121.394 184.756 125.469 181.214 129.331 180.478C129.74 180.401 130.132 180.212 130.422 179.913C131.44 178.881 130.523 177.657 129.598 176.941C127.305 175.161 124.437 174.189 122.269 172.258C119.748 170.011 118.372 166.634 115.631 164.659C112.882 162.678 108.94 162.512 106.034 164.251C104.845 164.963 103.771 165.98 102.407 166.22C100.233 166.604 98.0349 164.892 95.8995 165.463C94.0251 165.963 92.8446 168.086 90.9198 168.34C90.033 168.458 89.1462 168.145 88.3217 167.799C85.8897 166.782 83.3776 165.17 82.7607 162.613C82.2268 160.392 83.2797 158.018 82.731 155.803C81.9243 152.527 78.2051 151.087 75.171 149.591C72.0301 148.044 69.1948 145.954 66.3742 143.878C64.5828 142.56 62.7113 141.134 61.8779 139.076C60.5581 135.809 62.2665 132.178 63.9333 129.074C65.3124 126.507 62.3881 123.63 62.3822 120.721C62.3792 118.281 63.4855 115.993 64.568 113.808C65.6772 111.563 67.1809 109.026 69.6752 108.743C70.5769 108.639 71.6179 108.822 72.2881 108.21C72.6796 107.853 72.828 107.303 72.911 106.779C73.1394 105.316 72.9733 103.796 72.4335 102.418C72.2021 101.821 71.8937 101.206 72.0034 100.573C72.1221 99.8899 72.6975 99.3902 73.2343 98.9496C75.3134 97.2465 77.3954 95.5463 79.4744 93.8432C80.56 92.9532 81.6633 92.0573 82.9297 91.4482C88.0013 89.0207 94.9504 91.5665 98.9098 87.2081C99.4674 86.5961 99.8085 85.8007 99.764 84.9757C99.6395 82.7404 97.0888 82.4417 95.9796 80.8953C94.9712 79.4908 95.5198 77.3856 96.8159 76.2383C98.112 75.0911 99.936 74.7363 101.671 74.7186C103.403 74.7038 105.132 74.9847 106.864 74.9137C111.221 74.7363 115.409 72.1698 117.515 68.3555C117.63 68.1456 117.725 67.9268 117.782 67.6932C118.363 65.1976 114.475 64.5087 113.769 62.2526C113.419 61.1379 113.973 59.9168 114.768 59.0563C115.563 58.1959 116.578 57.5691 117.432 56.7707C119.582 54.7571 120.57 51.5845 119.938 48.7105C118.452 41.9335 114.445 35.6709 113.846 28.7609C113.312 22.6285 116.026 16.6557 116.242 10.5026C116.367 6.92485 115.634 3.36485 114.383 0C102.276 3.43581 88.6628 7.35949 79.0622 14.3701C68.1893 22.3091 62.0322 34.3522 63.3757 45.047C63.4766 45.8483 63.613 46.6614 63.7613 47.5218C64.301 50.6975 64.9091 54.2959 63.4914 57.711C63.1592 58.5123 62.7529 59.2101 62.3614 59.8842C61.9906 60.5229 61.6377 61.1261 61.4301 61.6997C60.8933 63.184 61.0949 65.0114 61.3114 66.9481C61.347 67.2556 61.3797 67.563 61.4123 67.8706C62.0262 73.8581 61.0297 78.3436 58.3663 81.5783C55.5755 84.9668 51.4232 86.3329 47.0604 86.3329C43.5459 86.3329 39.8919 85.4488 36.7006 84.0236C34.6364 83.1011 32.6374 82.013 30.7036 80.9603C26.6878 78.7723 22.8945 76.7085 18.7423 76.1615C17.1911 75.9574 15.5925 75.9663 13.896 75.9782C12.6148 75.987 11.2861 75.9959 9.94251 75.9042C9.46204 75.8717 8.6138 75.8155 7.7537 75.4341C6.92325 76.8681 6.16697 78.4293 5.69243 80.0674C4.98062 82.5215 4.88272 85.1502 4.77892 87.9355C4.72553 89.3636 4.66919 90.8391 4.52683 92.3116C4.15313 96.1466 3.19218 99.8662 2.26386 103.462C1.18725 107.625 0.172934 111.554 0.0157424 115.591C-0.0168822 116.466 -0.0228082 117.598 0.244121 118.583C0.508083 119.559 1.06861 120.546 1.66178 121.59L1.84863 121.921C4.5713 126.744 7.02707 132.982 8.57822 137.69C10.3014 137.666 12.0038 137.953 13.552 138.639C15.0171 139.289 16.3073 140.38 17.8822 140.676C20.1748 141.105 22.503 139.739 24.8134 140.076C26.1866 140.277 27.3907 141.06 28.5474 141.823C31.7773 143.955 35.2651 146.439 36.143 150.197C36.7184 152.66 36.0393 155.247 35.0546 157.577C34.0699 159.907 32.7709 162.11 32.0146 164.526C31.0833 167.506 31.0032 170.747 29.7012 173.588C29.1851 174.718 28.4852 175.759 28.0077 176.903C26.8688 179.635 27.0793 182.719 26.4624 185.614C25.9167 188.18 24.7007 190.602 22.9686 192.577C22.0641 193.609 20.4358 194.599 19.7418 195.785C18.7452 197.488 19.0863 199.729 20.1451 201.394C21.2039 203.059 22.8648 204.247 24.5613 205.262C27.7318 207.157 31.2938 208.621 34.9893 208.591C38.6848 208.561 42.5226 206.796 44.2636 203.547C44.9398 202.284 45.272 200.726 44.6788 199.419C43.7861 197.453 41.1791 196.737 40.2152 194.803C39.45 193.266 39.9839 191.32 41.1287 190.04C42.2735 188.76 43.9166 188.029 45.5597 187.515C48.3862 186.631 51.3758 186.27 54.3298 186.456C56.9071 186.619 59.698 187.349 61.1928 189.449C63.6426 192.896 61.4153 198.165 63.8117 201.651C64.9387 203.292 66.8695 204.171 68.7469 204.842C72.4602 206.166 76.3573 206.974 80.293 207.237C81.6395 207.325 83.0424 207.343 84.2762 206.802V206.817ZM96.2554 215.874C94.6686 215.865 93.9242 217.807 93.7136 219.374C93.4348 221.427 93.3162 223.502 93.3577 225.572C93.3755 226.521 93.5209 227.633 94.3483 228.106C95.425 228.724 96.7329 227.775 97.4625 226.772C98.1921 225.77 98.9128 224.534 100.141 224.348C101.182 224.188 102.16 224.883 102.854 225.675C103.548 226.468 104.1 227.399 104.96 228.005C106.698 229.227 109.071 228.742 111.129 228.203C113.185 227.668 115.412 227.012 116.616 225.27C117.209 224.41 117.479 223.372 117.817 222.382C118.114 221.509 118.476 220.652 118.645 219.744C119.196 216.823 117.737 213.937 116.325 211.317C116.109 210.918 115.878 210.498 115.489 210.265C115.184 210.081 114.816 210.028 114.46 210.025C112.049 210.007 109.587 211.956 107.431 210.88C106.505 210.418 105.874 209.466 104.904 209.111C101.526 207.875 100.672 212.432 100.888 214.638C101.336 219.247 98.9573 215.891 96.2554 215.874ZM110.409 145.031C108.06 143.725 104.572 140.265 101.968 142.211C101.624 142.589 101.404 143.065 101.28 143.559C100.956 144.83 101.238 146.196 101.802 147.385C102.365 148.571 103.193 149.612 104.014 150.638C104.287 150.981 104.569 151.329 104.945 151.554C105.497 151.882 106.176 151.9 106.82 151.9C108.309 151.9 109.863 151.853 111.171 151.149C112.479 150.445 113.452 148.887 112.998 147.477C112.624 146.321 111.473 145.623 110.409 145.031ZM63.3698 224.268C63.7257 224.253 64.0727 224.097 64.2803 223.81C64.8082 223.073 64.046 222.343 63.3757 221.926C59.1108 219.247 54.5433 216.832 49.4895 216.43C48.2408 216.329 47.2947 217.609 47.8375 218.736C47.8405 218.745 47.8434 218.751 47.8494 218.759C48.229 219.525 48.926 220.081 49.6467 220.542C50.6818 221.205 51.8355 221.728 53.0604 221.858C53.7752 221.932 54.5196 221.879 55.181 222.16C55.7356 222.396 56.1686 222.843 56.658 223.195C58.5384 224.54 61.0979 224.377 63.3698 224.274V224.268ZM23.1762 211.326C22.4971 210.507 21.9662 210.439 20.9934 210.087C20.7709 210.007 20.5188 209.951 20.3023 210.043C19.8041 210.253 19.5757 212.148 19.4363 212.63C19.3414 212.952 19.2613 213.337 19.4808 213.594C19.6142 213.748 19.8218 213.807 20.0176 213.857C20.848 214.07 21.7526 214.23 22.5475 213.907C23.3423 213.585 23.9177 212.597 23.5055 211.844L23.1792 211.323L23.1762 211.326ZM63.091 227.358C61.9788 227.393 60.914 227.795 59.8196 227.988C59.1404 228.106 58.3486 228.209 57.9956 228.798C57.8206 229.091 57.7998 229.442 57.7494 229.777C57.4795 231.592 56.2932 233.307 56.6254 235.111C56.7885 236.001 57.3105 236.781 57.8206 237.532C58.4524 238.464 59.2413 239.487 60.3653 239.552C61.6258 239.626 62.5987 238.425 63.0079 237.234C63.4172 236.042 63.5121 234.729 64.1735 233.656C64.6807 232.834 65.4785 232.228 66.045 231.444C67.6762 229.191 65.4192 227.281 63.091 227.355V227.358ZM39.8237 216.438C39.0763 215.717 38.2191 215.066 37.2196 214.78C33.5034 213.709 31.8366 218.254 29.2207 219.714C28.6928 220.01 28.1026 220.182 27.5568 220.445C26.243 221.081 25.2108 222.272 24.7719 223.659C24.7244 223.81 24.6829 223.969 24.7096 224.126C24.7838 224.576 25.3295 224.75 25.7803 224.827C27.7971 225.173 29.9414 225.38 31.8336 224.599C33.3196 223.987 34.5178 222.816 35.9859 222.166C37.0328 221.701 38.1925 221.512 39.2098 220.986C40.2271 220.46 41.1257 219.425 40.9715 218.295C40.8706 217.559 40.3546 216.953 39.8207 216.438H39.8237ZM126.922 246.802C127.059 246.568 127.145 246.302 127.181 246.033C127.32 245.013 126.866 244.082 126.291 243.28C124.932 241.394 122.809 240.072 120.513 239.682C118.262 239.3 115.756 239.738 113.834 238.508C113.09 238.032 112.588 237.37 112.25 236.619C111.805 235.637 110.48 235.371 109.777 236.19C109.682 236.299 109.608 236.421 109.56 236.551C109.362 237.106 109.717 237.692 110.059 238.174C111.129 239.688 112.203 241.202 113.274 242.716C113.87 243.558 114.493 244.425 115.382 244.948C117.117 245.971 119.383 245.439 121.267 246.154C122.13 246.483 122.877 247.059 123.719 247.432C124.802 247.911 126.217 248.005 126.92 246.796L126.922 246.802ZM132.338 209.771C130.671 210.173 128.358 211.178 127.05 212.249C126.131 213.003 125.259 213.872 124.144 214.286C123.426 214.552 122.545 214.688 122.189 215.362C121.818 216.063 122.302 216.974 123.008 217.337C123.713 217.704 124.553 217.671 125.345 217.618C128.444 217.411 131.531 217.018 134.583 216.447C135.343 216.305 136.129 216.14 136.754 215.687C138.157 214.673 138.214 212.402 137.095 211.084C135.977 209.765 134.023 209.366 132.338 209.771ZM136.817 83.0863C136.093 82.3619 135.366 81.6375 134.643 80.9131C132.291 78.5624 130.114 80.4045 128.785 82.7818C128.658 83.0095 128.518 83.2519 128.284 83.3643C128.026 83.4855 127.723 83.4175 127.439 83.3761C126.098 83.181 124.654 83.7013 123.823 84.7688C122.993 85.8362 122.865 87.424 123.589 88.5624C123.791 88.8787 124.06 89.1655 124.404 89.3133C124.763 89.4671 125.17 89.4583 125.561 89.4376C129.236 89.2631 132.887 88.5653 136.363 87.3678C137.009 87.146 137.701 86.8622 138.027 86.2649C138.32 85.7268 138.234 85.0496 137.961 84.5026C137.689 83.9556 137.247 83.5121 136.814 83.0804L136.817 83.0863ZM160.013 34.4498C159.328 33.7904 158.281 33.5243 157.364 33.7815C155.671 34.2517 155.843 35.5113 155.226 36.7768C154.562 38.1428 153.254 39.3788 152.02 40.2274C151.103 40.8601 150.077 41.3628 149.309 42.17C148.541 42.9772 148.087 44.228 148.6 45.2155C148.796 45.591 149.107 45.8897 149.345 46.2386C150.4 47.7909 149.78 49.8725 149.905 51.7441C149.935 52.1877 150.015 52.643 150.252 53.0185C150.531 53.4621 151.005 53.7577 151.507 53.9174C153.482 54.5501 155.653 53.1486 156.575 51.2947C157.498 49.4408 157.477 47.2794 157.394 45.2126C157.379 44.8755 157.373 44.5147 157.56 44.2368C157.729 43.9855 158.026 43.8554 158.287 43.7016C159.773 42.8264 160.378 41.0139 160.742 39.3344C161.107 37.652 161.253 35.6502 160.01 34.4557L160.013 34.4498ZM125.597 229.806C126.389 229.425 126.742 228.505 126.958 227.657C127.071 227.213 127.163 226.737 127.003 226.308C126.807 225.788 126.412 225.548 125.947 225.498C124.876 225.386 123.423 226.267 123.117 227.056C122.83 227.795 122.93 228.691 123.444 229.298C123.957 229.904 124.882 230.149 125.6 229.806H125.597ZM129.085 264.093C127.925 263.455 126.884 262.576 125.641 262.091C124.772 261.751 123.488 261.515 122.729 261.979C122.346 262.213 122.097 262.624 122.103 263.292C122.124 265.297 123.865 267.366 125.549 268.283C126.03 268.543 126.546 268.744 126.997 269.052C128.18 269.847 128.83 271.263 130.016 272.053C131.036 272.73 132.317 272.857 133.539 272.964C134.011 273.005 134.497 273.044 134.942 272.884C135.722 272.603 136.185 271.737 136.191 270.909C136.197 270.081 135.823 269.294 135.355 268.608C133.768 266.281 131.434 265.394 129.082 264.096L129.085 264.093ZM115.792 250.82C115.234 250.879 114.573 251.178 114.573 251.737C114.573 251.988 114.715 252.216 114.854 252.426C115.587 253.54 116.319 254.655 117.055 255.77C117.289 256.125 117.539 256.494 117.918 256.686C118.669 257.065 119.626 256.553 120.021 255.811C120.49 254.936 120.537 254.105 120.297 253.381C119.748 251.728 117.713 250.625 115.792 250.823V250.82ZM106.212 248.951C105.583 246.757 104.942 244.531 103.741 242.588C100.36 237.133 94.6775 236.323 88.986 236.947C87.945 237.059 87.1057 237.846 86.9188 238.872C86.4354 241.515 85.7888 244.147 84.3504 246.397C83.4576 247.792 82.2683 249.025 81.6633 250.566C80.8358 252.674 81.2214 255.045 81.7612 257.245C82.5382 260.406 83.6534 263.57 85.7502 266.062C87.8442 268.555 91.077 270.288 94.3157 269.894C97.8777 269.463 100.639 266.695 103.098 264.09L106.23 260.77C107.096 259.85 108.003 258.857 108.229 257.615C108.407 256.633 108.131 255.631 107.855 254.67C107.309 252.763 106.764 250.856 106.218 248.948L106.212 248.951Z"/>
</mask>
<path d="M84.2762 206.817C86.7468 205.732 87.8175 202.807 88.7784 200.386C88.9682 199.91 89.0928 199.41 89.1135 198.899C89.2648 194.78 83.2114 194.824 81.1442 191.681C80.9485 191.385 80.7883 191.031 80.8625 190.685C80.9307 190.365 81.1798 190.117 81.4408 189.913C84.1694 187.793 89.0275 188.429 90.3651 185.247C90.8456 184.103 90.6469 182.831 90.5609 181.575C90.4749 180.339 91.8629 179.517 92.8772 180.232C94.0843 181.084 95.0038 182.346 95.3805 183.772C95.5703 184.487 95.6711 185.3 96.2465 185.767C96.6617 186.105 97.2312 186.173 97.768 186.202C101.416 186.412 105.358 185.439 107.736 182.672C109.522 180.593 110.165 177.864 110.495 175.099C110.652 173.778 112.381 173.402 113.105 174.52C114.768 177.089 115.118 181.217 117.891 182.781C121.394 184.756 125.469 181.214 129.331 180.478C129.74 180.401 130.132 180.212 130.422 179.913C131.44 178.881 130.523 177.657 129.598 176.941C127.305 175.161 124.437 174.189 122.269 172.258C119.748 170.011 118.372 166.634 115.631 164.659C112.882 162.678 108.94 162.512 106.034 164.251C104.845 164.963 103.771 165.98 102.407 166.22C100.233 166.604 98.0349 164.892 95.8995 165.463C94.0251 165.963 92.8446 168.086 90.9198 168.34C90.033 168.458 89.1462 168.145 88.3217 167.799C85.8897 166.782 83.3776 165.17 82.7607 162.613C82.2268 160.392 83.2797 158.018 82.731 155.803C81.9243 152.527 78.2051 151.087 75.171 149.591C72.0301 148.044 69.1948 145.954 66.3742 143.878C64.5828 142.56 62.7113 141.134 61.8779 139.076C60.5581 135.809 62.2665 132.178 63.9333 129.074C65.3124 126.507 62.3881 123.63 62.3822 120.721C62.3792 118.281 63.4855 115.993 64.568 113.808C65.6772 111.563 67.1809 109.026 69.6752 108.743C70.5769 108.639 71.6179 108.822 72.2881 108.21C72.6796 107.853 72.828 107.303 72.911 106.779C73.1394 105.316 72.9733 103.796 72.4335 102.418C72.2021 101.821 71.8937 101.206 72.0034 100.573C72.1221 99.8899 72.6975 99.3902 73.2343 98.9496C75.3134 97.2465 77.3954 95.5463 79.4744 93.8432C80.56 92.9532 81.6633 92.0573 82.9297 91.4482C88.0013 89.0207 94.9504 91.5665 98.9098 87.2081C99.4674 86.5961 99.8085 85.8007 99.764 84.9757C99.6395 82.7404 97.0888 82.4417 95.9796 80.8953C94.9712 79.4908 95.5198 77.3856 96.8159 76.2383C98.112 75.0911 99.936 74.7363 101.671 74.7186C103.403 74.7038 105.132 74.9847 106.864 74.9137C111.221 74.7363 115.409 72.1698 117.515 68.3555C117.63 68.1456 117.725 67.9268 117.782 67.6932C118.363 65.1976 114.475 64.5087 113.769 62.2526C113.419 61.1379 113.973 59.9168 114.768 59.0563C115.563 58.1959 116.578 57.5691 117.432 56.7707C119.582 54.7571 120.57 51.5845 119.938 48.7105C118.452 41.9335 114.445 35.6709 113.846 28.7609C113.312 22.6285 116.026 16.6557 116.242 10.5026C116.367 6.92485 115.634 3.36485 114.383 0C102.276 3.43581 88.6628 7.35949 79.0622 14.3701C68.1893 22.3091 62.0322 34.3522 63.3757 45.047C63.4766 45.8483 63.613 46.6614 63.7613 47.5218C64.301 50.6975 64.9091 54.2959 63.4914 57.711C63.1592 58.5123 62.7529 59.2101 62.3614 59.8842C61.9906 60.5229 61.6377 61.1261 61.4301 61.6997C60.8933 63.184 61.0949 65.0114 61.3114 66.9481C61.347 67.2556 61.3797 67.563 61.4123 67.8706C62.0262 73.8581 61.0297 78.3436 58.3663 81.5783C55.5755 84.9668 51.4232 86.3329 47.0604 86.3329C43.5459 86.3329 39.8919 85.4488 36.7006 84.0236C34.6364 83.1011 32.6374 82.013 30.7036 80.9603C26.6878 78.7723 22.8945 76.7085 18.7423 76.1615C17.1911 75.9574 15.5925 75.9663 13.896 75.9782C12.6148 75.987 11.2861 75.9959 9.94251 75.9042C9.46204 75.8717 8.6138 75.8155 7.7537 75.4341C6.92325 76.8681 6.16697 78.4293 5.69243 80.0674C4.98062 82.5215 4.88272 85.1502 4.77892 87.9355C4.72553 89.3636 4.66919 90.8391 4.52683 92.3116C4.15313 96.1466 3.19218 99.8662 2.26386 103.462C1.18725 107.625 0.172934 111.554 0.0157424 115.591C-0.0168822 116.466 -0.0228082 117.598 0.244121 118.583C0.508083 119.559 1.06861 120.546 1.66178 121.59L1.84863 121.921C4.5713 126.744 7.02707 132.982 8.57822 137.69C10.3014 137.666 12.0038 137.953 13.552 138.639C15.0171 139.289 16.3073 140.38 17.8822 140.676C20.1748 141.105 22.503 139.739 24.8134 140.076C26.1866 140.277 27.3907 141.06 28.5474 141.823C31.7773 143.955 35.2651 146.439 36.143 150.197C36.7184 152.66 36.0393 155.247 35.0546 157.577C34.0699 159.907 32.7709 162.11 32.0146 164.526C31.0833 167.506 31.0032 170.747 29.7012 173.588C29.1851 174.718 28.4852 175.759 28.0077 176.903C26.8688 179.635 27.0793 182.719 26.4624 185.614C25.9167 188.18 24.7007 190.602 22.9686 192.577C22.0641 193.609 20.4358 194.599 19.7418 195.785C18.7452 197.488 19.0863 199.729 20.1451 201.394C21.2039 203.059 22.8648 204.247 24.5613 205.262C27.7318 207.157 31.2938 208.621 34.9893 208.591C38.6848 208.561 42.5226 206.796 44.2636 203.547C44.9398 202.284 45.272 200.726 44.6788 199.419C43.7861 197.453 41.1791 196.737 40.2152 194.803C39.45 193.266 39.9839 191.32 41.1287 190.04C42.2735 188.76 43.9166 188.029 45.5597 187.515C48.3862 186.631 51.3758 186.27 54.3298 186.456C56.9071 186.619 59.698 187.349 61.1928 189.449C63.6426 192.896 61.4153 198.165 63.8117 201.651C64.9387 203.292 66.8695 204.171 68.7469 204.842C72.4602 206.166 76.3573 206.974 80.293 207.237C81.6395 207.325 83.0424 207.343 84.2762 206.802V206.817ZM96.2554 215.874C94.6686 215.865 93.9242 217.807 93.7136 219.374C93.4348 221.427 93.3162 223.502 93.3577 225.572C93.3755 226.521 93.5209 227.633 94.3483 228.106C95.425 228.724 96.7329 227.775 97.4625 226.772C98.1921 225.77 98.9128 224.534 100.141 224.348C101.182 224.188 102.16 224.883 102.854 225.675C103.548 226.468 104.1 227.399 104.96 228.005C106.698 229.227 109.071 228.742 111.129 228.203C113.185 227.668 115.412 227.012 116.616 225.27C117.209 224.41 117.479 223.372 117.817 222.382C118.114 221.509 118.476 220.652 118.645 219.744C119.196 216.823 117.737 213.937 116.325 211.317C116.109 210.918 115.878 210.498 115.489 210.265C115.184 210.081 114.816 210.028 114.46 210.025C112.049 210.007 109.587 211.956 107.431 210.88C106.505 210.418 105.874 209.466 104.904 209.111C101.526 207.875 100.672 212.432 100.888 214.638C101.336 219.247 98.9573 215.891 96.2554 215.874ZM110.409 145.031C108.06 143.725 104.572 140.265 101.968 142.211C101.624 142.589 101.404 143.065 101.28 143.559C100.956 144.83 101.238 146.196 101.802 147.385C102.365 148.571 103.193 149.612 104.014 150.638C104.287 150.981 104.569 151.329 104.945 151.554C105.497 151.882 106.176 151.9 106.82 151.9C108.309 151.9 109.863 151.853 111.171 151.149C112.479 150.445 113.452 148.887 112.998 147.477C112.624 146.321 111.473 145.623 110.409 145.031ZM63.3698 224.268C63.7257 224.253 64.0727 224.097 64.2803 223.81C64.8082 223.073 64.046 222.343 63.3757 221.926C59.1108 219.247 54.5433 216.832 49.4895 216.43C48.2408 216.329 47.2947 217.609 47.8375 218.736C47.8405 218.745 47.8434 218.751 47.8494 218.759C48.229 219.525 48.926 220.081 49.6467 220.542C50.6818 221.205 51.8355 221.728 53.0604 221.858C53.7752 221.932 54.5196 221.879 55.181 222.16C55.7356 222.396 56.1686 222.843 56.658 223.195C58.5384 224.54 61.0979 224.377 63.3698 224.274V224.268ZM23.1762 211.326C22.4971 210.507 21.9662 210.439 20.9934 210.087C20.7709 210.007 20.5188 209.951 20.3023 210.043C19.8041 210.253 19.5757 212.148 19.4363 212.63C19.3414 212.952 19.2613 213.337 19.4808 213.594C19.6142 213.748 19.8218 213.807 20.0176 213.857C20.848 214.07 21.7526 214.23 22.5475 213.907C23.3423 213.585 23.9177 212.597 23.5055 211.844L23.1792 211.323L23.1762 211.326ZM63.091 227.358C61.9788 227.393 60.914 227.795 59.8196 227.988C59.1404 228.106 58.3486 228.209 57.9956 228.798C57.8206 229.091 57.7998 229.442 57.7494 229.777C57.4795 231.592 56.2932 233.307 56.6254 235.111C56.7885 236.001 57.3105 236.781 57.8206 237.532C58.4524 238.464 59.2413 239.487 60.3653 239.552C61.6258 239.626 62.5987 238.425 63.0079 237.234C63.4172 236.042 63.5121 234.729 64.1735 233.656C64.6807 232.834 65.4785 232.228 66.045 231.444C67.6762 229.191 65.4192 227.281 63.091 227.355V227.358ZM39.8237 216.438C39.0763 215.717 38.2191 215.066 37.2196 214.78C33.5034 213.709 31.8366 218.254 29.2207 219.714C28.6928 220.01 28.1026 220.182 27.5568 220.445C26.243 221.081 25.2108 222.272 24.7719 223.659C24.7244 223.81 24.6829 223.969 24.7096 224.126C24.7838 224.576 25.3295 224.75 25.7803 224.827C27.7971 225.173 29.9414 225.38 31.8336 224.599C33.3196 223.987 34.5178 222.816 35.9859 222.166C37.0328 221.701 38.1925 221.512 39.2098 220.986C40.2271 220.46 41.1257 219.425 40.9715 218.295C40.8706 217.559 40.3546 216.953 39.8207 216.438H39.8237ZM126.922 246.802C127.059 246.568 127.145 246.302 127.181 246.033C127.32 245.013 126.866 244.082 126.291 243.28C124.932 241.394 122.809 240.072 120.513 239.682C118.262 239.3 115.756 239.738 113.834 238.508C113.09 238.032 112.588 237.37 112.25 236.619C111.805 235.637 110.48 235.371 109.777 236.19C109.682 236.299 109.608 236.421 109.56 236.551C109.362 237.106 109.717 237.692 110.059 238.174C111.129 239.688 112.203 241.202 113.274 242.716C113.87 243.558 114.493 244.425 115.382 244.948C117.117 245.971 119.383 245.439 121.267 246.154C122.13 246.483 122.877 247.059 123.719 247.432C124.802 247.911 126.217 248.005 126.92 246.796L126.922 246.802ZM132.338 209.771C130.671 210.173 128.358 211.178 127.05 212.249C126.131 213.003 125.259 213.872 124.144 214.286C123.426 214.552 122.545 214.688 122.189 215.362C121.818 216.063 122.302 216.974 123.008 217.337C123.713 217.704 124.553 217.671 125.345 217.618C128.444 217.411 131.531 217.018 134.583 216.447C135.343 216.305 136.129 216.14 136.754 215.687C138.157 214.673 138.214 212.402 137.095 211.084C135.977 209.765 134.023 209.366 132.338 209.771ZM136.817 83.0863C136.093 82.3619 135.366 81.6375 134.643 80.9131C132.291 78.5624 130.114 80.4045 128.785 82.7818C128.658 83.0095 128.518 83.2519 128.284 83.3643C128.026 83.4855 127.723 83.4175 127.439 83.3761C126.098 83.181 124.654 83.7013 123.823 84.7688C122.993 85.8362 122.865 87.424 123.589 88.5624C123.791 88.8787 124.06 89.1655 124.404 89.3133C124.763 89.4671 125.17 89.4583 125.561 89.4376C129.236 89.2631 132.887 88.5653 136.363 87.3678C137.009 87.146 137.701 86.8622 138.027 86.2649C138.32 85.7268 138.234 85.0496 137.961 84.5026C137.689 83.9556 137.247 83.5121 136.814 83.0804L136.817 83.0863ZM160.013 34.4498C159.328 33.7904 158.281 33.5243 157.364 33.7815C155.671 34.2517 155.843 35.5113 155.226 36.7768C154.562 38.1428 153.254 39.3788 152.02 40.2274C151.103 40.8601 150.077 41.3628 149.309 42.17C148.541 42.9772 148.087 44.228 148.6 45.2155C148.796 45.591 149.107 45.8897 149.345 46.2386C150.4 47.7909 149.78 49.8725 149.905 51.7441C149.935 52.1877 150.015 52.643 150.252 53.0185C150.531 53.4621 151.005 53.7577 151.507 53.9174C153.482 54.5501 155.653 53.1486 156.575 51.2947C157.498 49.4408 157.477 47.2794 157.394 45.2126C157.379 44.8755 157.373 44.5147 157.56 44.2368C157.729 43.9855 158.026 43.8554 158.287 43.7016C159.773 42.8264 160.378 41.0139 160.742 39.3344C161.107 37.652 161.253 35.6502 160.01 34.4557L160.013 34.4498ZM125.597 229.806C126.389 229.425 126.742 228.505 126.958 227.657C127.071 227.213 127.163 226.737 127.003 226.308C126.807 225.788 126.412 225.548 125.947 225.498C124.876 225.386 123.423 226.267 123.117 227.056C122.83 227.795 122.93 228.691 123.444 229.298C123.957 229.904 124.882 230.149 125.6 229.806H125.597ZM129.085 264.093C127.925 263.455 126.884 262.576 125.641 262.091C124.772 261.751 123.488 261.515 122.729 261.979C122.346 262.213 122.097 262.624 122.103 263.292C122.124 265.297 123.865 267.366 125.549 268.283C126.03 268.543 126.546 268.744 126.997 269.052C128.18 269.847 128.83 271.263 130.016 272.053C131.036 272.73 132.317 272.857 133.539 272.964C134.011 273.005 134.497 273.044 134.942 272.884C135.722 272.603 136.185 271.737 136.191 270.909C136.197 270.081 135.823 269.294 135.355 268.608C133.768 266.281 131.434 265.394 129.082 264.096L129.085 264.093ZM115.792 250.82C115.234 250.879 114.573 251.178 114.573 251.737C114.573 251.988 114.715 252.216 114.854 252.426C115.587 253.54 116.319 254.655 117.055 255.77C117.289 256.125 117.539 256.494 117.918 256.686C118.669 257.065 119.626 256.553 120.021 255.811C120.49 254.936 120.537 254.105 120.297 253.381C119.748 251.728 117.713 250.625 115.792 250.823V250.82ZM106.212 248.951C105.583 246.757 104.942 244.531 103.741 242.588C100.36 237.133 94.6775 236.323 88.986 236.947C87.945 237.059 87.1057 237.846 86.9188 238.872C86.4354 241.515 85.7888 244.147 84.3504 246.397C83.4576 247.792 82.2683 249.025 81.6633 250.566C80.8358 252.674 81.2214 255.045 81.7612 257.245C82.5382 260.406 83.6534 263.57 85.7502 266.062C87.8442 268.555 91.077 270.288 94.3157 269.894C97.8777 269.463 100.639 266.695 103.098 264.09L106.23 260.77C107.096 259.85 108.003 258.857 108.229 257.615C108.407 256.633 108.131 255.631 107.855 254.67C107.309 252.763 106.764 250.856 106.218 248.948L106.212 248.951Z" fill="#1A203A" stroke="#333757" stroke-width="2" mask="url(#path-1-inside-1_908_21841)"/>
<path d="M57.1544 186.434C57.4405 185.232 59.0496 184.884 59.1598 184.435C59.2974 183.873 60.5161 183.126 60.7914 182.704C61.0117 182.367 61.0667 180.691 61.0667 179.895C61.1585 179.614 61.3971 178.968 61.6174 178.631C61.8927 178.21 61.6174 177.086 61.6174 176.103C61.6174 175.12 61.8927 173.997 61.8927 172.873C61.8927 171.75 61.4797 171.89 60.5161 170.486C59.5525 169.081 59.5525 168.238 58.7265 167.677C57.9005 167.115 56.5239 166.272 56.5239 165.289C56.5239 164.306 56.5239 163.323 56.9369 162.621C57.3499 161.918 58.7265 161.497 58.7265 160.654C58.7265 159.812 59.5525 159.671 59.1395 159.11C58.7265 158.548 57.6252 158.688 56.5239 157.705C55.4226 156.722 54.5966 156.722 53.7707 154.756C52.9447 152.79 51.7057 152.228 50.6044 151.666C49.5031 151.104 49.7785 149.84 49.5031 148.998C49.2278 148.155 48.4018 147.734 47.7135 147.031C47.0252 146.329 46.4746 145.767 46.4746 144.223C46.4746 142.678 46.1992 142.397 45.5109 141.975C44.8226 141.554 43.9967 141.975 44.1343 141.414C44.272 140.852 44.6848 139.728 44.9602 139.167C45.2355 138.605 45.5109 137.762 45.5109 136.779C45.5109 135.796 45.6484 134.532 46.0615 134.111C46.4746 133.689 46.8874 133.689 47.4381 132.706C47.9887 131.723 48.5394 131.021 48.5394 129.897C48.5394 128.774 48.8149 128.633 49.5031 128.352C50.1913 128.071 50.1913 127.791 51.155 128.071C52.1186 128.352 53.0825 128.774 53.7707 129.616C54.4588 130.459 54.7342 131.302 56.3861 131.161C58.038 131.021 57.2121 130.038 59.1393 130.318C61.0666 130.599 61.0666 130.88 62.1679 130.74" stroke="#333757" stroke-width="1.2" stroke-linejoin="round"/>
</svg>
