<svg width="271" height="284" viewBox="0 0 271 284" fill="none" xmlns="http://www.w3.org/2000/svg">
<mask id="path-1-inside-1_908_21857" fill="white">
<path d="M59.9453 12.1046C61.3237 12.3289 62.0041 10.6023 61.7319 9.49251C61.726 9.47185 61.7201 9.44825 61.7142 9.42759C61.4273 8.41521 59.9808 8.71035 59.3123 9.15013C58.2296 9.8644 58.6644 11.8951 59.9453 12.1046ZM44.3474 17.4026C45.4005 18.1139 47.0126 16.7297 47.6101 15.9534C48.4561 14.8555 48.9472 13.2911 47.6249 12.6152C47.5155 12.5592 47.3913 12.509 47.2552 12.4647C46.0335 12.078 44.3829 12.4883 43.8889 13.7752C43.5487 14.6607 43.4511 16.7976 44.3504 17.4026H44.3474ZM267.524 47.9983C265.785 47.7445 263.913 48.0072 262.339 47.2191C259.254 45.6754 259.141 41.2245 256.781 38.7128C252.311 33.9608 243.336 38.7452 238.163 34.7695C235.645 32.8333 234.894 29.4449 233.539 26.576C232.184 23.7071 229.152 20.9061 226.18 22.0336C224.292 22.7508 223.298 24.749 222.029 26.3163C217.16 32.3109 207.822 31.9921 200.512 29.4685C195.969 27.8983 191.508 25.5814 188.529 21.8122C185.361 17.8011 184.202 12.6034 181.853 8.0669C179.507 3.52743 174.984 -0.722787 169.935 0.103644C166.654 0.640825 164.028 3.19981 160.795 3.97902C157.878 4.68149 154.597 3.90228 151.962 5.33968C150.219 6.29007 149.087 8.05217 147.531 9.28001C143.073 12.7953 136.598 11.1896 131.025 12.2847C128.738 12.7333 126.561 13.6601 124.257 13.9966C122.094 14.3124 119 13.297 117.382 11.8301C113.968 8.73985 108.777 7.56812 104.367 6.21927C99.7105 4.79367 94.5014 4.57228 90.0909 6.63245C87.8665 7.67139 85.8284 9.28296 83.3939 9.60467C81.5776 9.84375 79.7229 9.33016 77.9066 9.57808C76.0993 9.82306 74.4871 10.7971 72.9342 11.7505C69.0798 14.1146 65.2225 16.4758 61.3681 18.84C59.8417 19.7757 58.2237 20.8146 57.5433 22.4675C57.2801 23.108 57.1647 23.8252 56.7476 24.3771C56.3157 24.9497 55.6236 25.2537 54.9639 25.5371C52.7424 26.4875 50.5179 27.4349 48.2964 28.3853C46.3589 29.2118 44.3297 30.112 43.0814 31.8032C41.8331 33.4944 41.7502 36.2364 43.4748 37.4436C45.1816 38.636 48.2373 38.2435 48.5922 40.4483C48.6899 41.0533 48.5153 41.6732 48.1692 42.1808C45.575 45.9942 41.1853 48.506 36.5855 48.8602C35.1804 48.9694 33.6747 48.9074 32.4767 49.6453C30.4209 50.9115 30.1605 53.925 28.2822 55.4391C26.105 57.1923 22.9281 56.2095 20.2274 55.4746C17.5267 54.7396 13.8823 54.7751 12.8056 57.3518C12.495 58.0956 12.4654 58.9603 12.0128 59.6274C11.2319 60.7755 9.61382 60.8582 8.22944 60.988C6.25937 61.1769 4.32187 61.7023 2.52928 62.5346C1.27507 63.1191 -0.0146643 63.9632 0.000126012 65.5807C0.0090002 66.5989 0.571024 67.5257 1.39632 68.119C3.12087 69.3586 5.25955 69.1786 7.26807 68.9838C8.09337 68.9041 8.88615 69.273 9.3979 69.9253C9.56651 70.1408 9.77358 70.3621 9.9984 70.5865C15.2105 69.0399 22.3513 69.5239 25.3064 72.8208C25.9335 73.5203 26.3861 74.2729 26.7854 74.937C27.0102 75.3089 27.2202 75.6602 27.4391 75.9642C28.8383 77.9122 31.4059 79.2079 35.2839 79.9251C36.2749 80.1081 37.2747 80.2498 38.3307 80.4003C40.9634 80.7752 43.6848 81.1648 46.3175 82.2215C51.0149 84.1104 54.4492 87.6936 57.7711 91.1587C58.0521 91.4509 58.3302 91.7431 58.6082 92.0324C64.057 97.6787 71.4462 104.326 80.2938 105.595C80.9653 105.692 81.6545 105.763 82.3881 105.837C85.2101 106.126 88.4078 106.451 91.005 108.478C92.8301 109.901 94.1967 112.082 95.0664 114.96C96.8649 120.919 96.0455 127.678 92.8685 133.035C92.1793 134.195 91.3954 135.293 90.6352 136.356C88.9402 138.723 87.3399 140.96 87.2009 143.377C87.0057 146.742 90.3098 150.181 94.1316 150.594C94.6167 150.647 95.1374 150.665 95.6876 150.682C96.8885 150.724 98.2463 150.771 99.6188 151.211C104.872 152.893 106.686 158.761 106.644 163.271C106.629 164.992 106.28 166.68 105.94 168.312C105.461 170.626 105.008 172.81 105.662 174.493C108.176 180.977 108.345 188.105 108.496 194.398C108.602 198.863 108.762 205.617 104.843 210.38C104.118 211.263 103.281 212.08 102.47 212.871C100.326 214.97 99.0479 216.339 99.4206 217.671C99.5597 218.169 99.9945 218.751 100.456 219.368C100.648 219.625 100.838 219.881 101.021 220.141C105.251 226.221 104.352 235.442 98.9296 241.59C98.1161 242.511 97.2494 243.308 96.3384 243.995C101.542 246.165 106.615 249.001 109.759 253.417C111.034 255.208 111.992 257.198 112.918 259.122C114.504 262.416 116.001 265.53 118.752 266.793C121.056 267.853 123.919 267.445 126.948 267.017C127.794 266.896 128.67 266.772 129.543 266.681C134.302 266.182 140.538 267.419 142.446 272.56C142.514 272.746 142.576 272.938 142.638 273.127C142.676 273.245 142.727 273.402 142.774 273.526C142.866 273.537 142.999 273.552 143.191 273.567C144.36 273.644 145.54 273.638 146.788 273.629C148.566 273.617 150.403 273.605 152.272 273.853C157.286 274.514 161.641 276.887 165.85 279.181C167.782 280.234 169.607 281.229 171.494 282.07C176.99 284.523 184.072 285.128 187.512 280.946C189.325 278.738 189.976 275.4 189.5 270.736C189.47 270.444 189.437 270.152 189.405 269.857C189.154 267.581 188.867 265.004 189.778 262.49C190.13 261.519 190.627 260.666 191.064 259.913C191.393 259.349 191.7 258.818 191.913 258.31C192.807 256.156 192.36 253.52 191.89 250.734C191.742 249.863 191.588 248.963 191.476 248.063C190.662 241.581 192.067 234.751 195.54 228.305C198.684 222.467 203.346 217.19 209.023 213.043C219.08 205.693 232.758 201.661 245.031 198.17C244.304 196.898 243.431 195.72 242.292 194.808C240.31 193.223 237.686 192.565 235.781 190.882C233.258 188.657 232.474 185.109 231.829 181.809C231.099 178.073 232.894 173.707 231.433 170.192C230.895 168.893 230.078 167.716 229.611 166.391C228.981 164.611 229.01 162.672 229.117 160.786C229.232 158.74 229.469 156.591 230.661 154.927C231.723 153.442 233.4 152.545 234.953 151.583C237.246 150.166 239.387 148.507 241.334 146.645C242.928 145.119 244.419 143.41 245.241 141.361C246.614 137.938 245.916 133.959 244.203 130.692C242.487 127.424 239.855 124.747 237.198 122.182C235.45 120.494 233.649 118.806 232.412 116.716C231.176 114.626 230.555 112.035 231.356 109.742C232.247 107.189 234.646 105.521 236.903 104.027C238.882 102.72 240.952 101.377 243.307 101.091C244.839 100.905 246.386 101.185 247.907 101.463C251.086 102.044 254.317 102.643 257.207 104.086C258.65 104.807 261.514 106.495 262.413 105.158C265.06 101.221 265.735 99.9189 265.918 97.2005C266.102 94.4999 265.244 93.0418 264.099 90.6008C263.451 89.2195 263.007 87.7467 262.797 86.2355C262.212 82.065 261.629 79.7126 263.883 75.5775C264.421 74.5917 265.705 74.2493 266.329 73.3166C269.527 68.5322 264.398 65.56 263.549 61.2153C262.934 58.0749 265.661 54.9905 268.575 53.9516C269.364 53.6712 270.059 53.1487 270.515 52.4492C272.047 50.1057 269.645 48.3023 267.527 47.9924L267.524 47.9983Z"/>
</mask>
<path d="M59.9453 12.1046C61.3237 12.3289 62.0041 10.6023 61.7319 9.49251C61.726 9.47185 61.7201 9.44825 61.7142 9.42759C61.4273 8.41521 59.9808 8.71035 59.3123 9.15013C58.2296 9.8644 58.6644 11.8951 59.9453 12.1046ZM44.3474 17.4026C45.4005 18.1139 47.0126 16.7297 47.6101 15.9534C48.4561 14.8555 48.9472 13.2911 47.6249 12.6152C47.5155 12.5592 47.3913 12.509 47.2552 12.4647C46.0335 12.078 44.3829 12.4883 43.8889 13.7752C43.5487 14.6607 43.4511 16.7976 44.3504 17.4026H44.3474ZM267.524 47.9983C265.785 47.7445 263.913 48.0072 262.339 47.2191C259.254 45.6754 259.141 41.2245 256.781 38.7128C252.311 33.9608 243.336 38.7452 238.163 34.7695C235.645 32.8333 234.894 29.4449 233.539 26.576C232.184 23.7071 229.152 20.9061 226.18 22.0336C224.292 22.7508 223.298 24.749 222.029 26.3163C217.16 32.3109 207.822 31.9921 200.512 29.4685C195.969 27.8983 191.508 25.5814 188.529 21.8122C185.361 17.8011 184.202 12.6034 181.853 8.0669C179.507 3.52743 174.984 -0.722787 169.935 0.103644C166.654 0.640825 164.028 3.19981 160.795 3.97902C157.878 4.68149 154.597 3.90228 151.962 5.33968C150.219 6.29007 149.087 8.05217 147.531 9.28001C143.073 12.7953 136.598 11.1896 131.025 12.2847C128.738 12.7333 126.561 13.6601 124.257 13.9966C122.094 14.3124 119 13.297 117.382 11.8301C113.968 8.73985 108.777 7.56812 104.367 6.21927C99.7105 4.79367 94.5014 4.57228 90.0909 6.63245C87.8665 7.67139 85.8284 9.28296 83.3939 9.60467C81.5776 9.84375 79.7229 9.33016 77.9066 9.57808C76.0993 9.82306 74.4871 10.7971 72.9342 11.7505C69.0798 14.1146 65.2225 16.4758 61.3681 18.84C59.8417 19.7757 58.2237 20.8146 57.5433 22.4675C57.2801 23.108 57.1647 23.8252 56.7476 24.3771C56.3157 24.9497 55.6236 25.2537 54.9639 25.5371C52.7424 26.4875 50.5179 27.4349 48.2964 28.3853C46.3589 29.2118 44.3297 30.112 43.0814 31.8032C41.8331 33.4944 41.7502 36.2364 43.4748 37.4436C45.1816 38.636 48.2373 38.2435 48.5922 40.4483C48.6899 41.0533 48.5153 41.6732 48.1692 42.1808C45.575 45.9942 41.1853 48.506 36.5855 48.8602C35.1804 48.9694 33.6747 48.9074 32.4767 49.6453C30.4209 50.9115 30.1605 53.925 28.2822 55.4391C26.105 57.1923 22.9281 56.2095 20.2274 55.4746C17.5267 54.7396 13.8823 54.7751 12.8056 57.3518C12.495 58.0956 12.4654 58.9603 12.0128 59.6274C11.2319 60.7755 9.61382 60.8582 8.22944 60.988C6.25937 61.1769 4.32187 61.7023 2.52928 62.5346C1.27507 63.1191 -0.0146643 63.9632 0.000126012 65.5807C0.0090002 66.5989 0.571024 67.5257 1.39632 68.119C3.12087 69.3586 5.25955 69.1786 7.26807 68.9838C8.09337 68.9041 8.88615 69.273 9.3979 69.9253C9.56651 70.1408 9.77358 70.3621 9.9984 70.5865C15.2105 69.0399 22.3513 69.5239 25.3064 72.8208C25.9335 73.5203 26.3861 74.2729 26.7854 74.937C27.0102 75.3089 27.2202 75.6602 27.4391 75.9642C28.8383 77.9122 31.4059 79.2079 35.2839 79.9251C36.2749 80.1081 37.2747 80.2498 38.3307 80.4003C40.9634 80.7752 43.6848 81.1648 46.3175 82.2215C51.0149 84.1104 54.4492 87.6936 57.7711 91.1587C58.0521 91.4509 58.3302 91.7431 58.6082 92.0324C64.057 97.6787 71.4462 104.326 80.2938 105.595C80.9653 105.692 81.6545 105.763 82.3881 105.837C85.2101 106.126 88.4078 106.451 91.005 108.478C92.8301 109.901 94.1967 112.082 95.0664 114.96C96.8649 120.919 96.0455 127.678 92.8685 133.035C92.1793 134.195 91.3954 135.293 90.6352 136.356C88.9402 138.723 87.3399 140.96 87.2009 143.377C87.0057 146.742 90.3098 150.181 94.1316 150.594C94.6167 150.647 95.1374 150.665 95.6876 150.682C96.8885 150.724 98.2463 150.771 99.6188 151.211C104.872 152.893 106.686 158.761 106.644 163.271C106.629 164.992 106.28 166.68 105.94 168.312C105.461 170.626 105.008 172.81 105.662 174.493C108.176 180.977 108.345 188.105 108.496 194.398C108.602 198.863 108.762 205.617 104.843 210.38C104.118 211.263 103.281 212.08 102.47 212.871C100.326 214.97 99.0479 216.339 99.4206 217.671C99.5597 218.169 99.9945 218.751 100.456 219.368C100.648 219.625 100.838 219.881 101.021 220.141C105.251 226.221 104.352 235.442 98.9296 241.59C98.1161 242.511 97.2494 243.308 96.3384 243.995C101.542 246.165 106.615 249.001 109.759 253.417C111.034 255.208 111.992 257.198 112.918 259.122C114.504 262.416 116.001 265.53 118.752 266.793C121.056 267.853 123.919 267.445 126.948 267.017C127.794 266.896 128.67 266.772 129.543 266.681C134.302 266.182 140.538 267.419 142.446 272.56C142.514 272.746 142.576 272.938 142.638 273.127C142.676 273.245 142.727 273.402 142.774 273.526C142.866 273.537 142.999 273.552 143.191 273.567C144.36 273.644 145.54 273.638 146.788 273.629C148.566 273.617 150.403 273.605 152.272 273.853C157.286 274.514 161.641 276.887 165.85 279.181C167.782 280.234 169.607 281.229 171.494 282.07C176.99 284.523 184.072 285.128 187.512 280.946C189.325 278.738 189.976 275.4 189.5 270.736C189.47 270.444 189.437 270.152 189.405 269.857C189.154 267.581 188.867 265.004 189.778 262.49C190.13 261.519 190.627 260.666 191.064 259.913C191.393 259.349 191.7 258.818 191.913 258.31C192.807 256.156 192.36 253.52 191.89 250.734C191.742 249.863 191.588 248.963 191.476 248.063C190.662 241.581 192.067 234.751 195.54 228.305C198.684 222.467 203.346 217.19 209.023 213.043C219.08 205.693 232.758 201.661 245.031 198.17C244.304 196.898 243.431 195.72 242.292 194.808C240.31 193.223 237.686 192.565 235.781 190.882C233.258 188.657 232.474 185.109 231.829 181.809C231.099 178.073 232.894 173.707 231.433 170.192C230.895 168.893 230.078 167.716 229.611 166.391C228.981 164.611 229.01 162.672 229.117 160.786C229.232 158.74 229.469 156.591 230.661 154.927C231.723 153.442 233.4 152.545 234.953 151.583C237.246 150.166 239.387 148.507 241.334 146.645C242.928 145.119 244.419 143.41 245.241 141.361C246.614 137.938 245.916 133.959 244.203 130.692C242.487 127.424 239.855 124.747 237.198 122.182C235.45 120.494 233.649 118.806 232.412 116.716C231.176 114.626 230.555 112.035 231.356 109.742C232.247 107.189 234.646 105.521 236.903 104.027C238.882 102.72 240.952 101.377 243.307 101.091C244.839 100.905 246.386 101.185 247.907 101.463C251.086 102.044 254.317 102.643 257.207 104.086C258.65 104.807 261.514 106.495 262.413 105.158C265.06 101.221 265.735 99.9189 265.918 97.2005C266.102 94.4999 265.244 93.0418 264.099 90.6008C263.451 89.2195 263.007 87.7467 262.797 86.2355C262.212 82.065 261.629 79.7126 263.883 75.5775C264.421 74.5917 265.705 74.2493 266.329 73.3166C269.527 68.5322 264.398 65.56 263.549 61.2153C262.934 58.0749 265.661 54.9905 268.575 53.9516C269.364 53.6712 270.059 53.1487 270.515 52.4492C272.047 50.1057 269.645 48.3023 267.527 47.9924L267.524 47.9983Z" fill="#1A203A" stroke="#333757" stroke-width="2" mask="url(#path-1-inside-1_908_21857)"/>
<path d="M203.115 95.7949C203.222 96.398 203.373 97.6679 203.115 97.9233C202.791 98.2425 202.684 98.881 201.822 99.3067C200.96 99.7324 200.529 100.264 200.314 100.477C200.141 100.648 199.667 100.548 199.452 100.477C199.524 100.832 199.581 101.669 199.236 102.18C198.892 102.691 199.093 103.528 199.236 103.883C198.913 104.202 198.332 104.926 198.59 105.266C198.849 105.607 199.631 106.047 199.991 106.224L199.775 106.33L198.913 106.117C198.446 106.259 197.362 106.713 196.759 107.394C196.005 108.246 196.436 109.842 196.22 110.481C196.005 111.119 195.574 111.758 195.682 112.609C195.789 113.46 195.789 113.78 196.005 113.992C196.22 114.205 195.789 114.312 195.574 115.269C195.358 116.227 195.574 117.717 195.035 118.568C194.604 119.249 194.353 120.129 194.281 120.484L194.497 120.697C194.856 120.803 195.639 121.144 195.897 121.654C196.22 122.293 196.436 124.421 197.728 126.018C199.021 127.614 200.206 127.827 201.068 128.359C201.93 128.891 202.253 129.636 202.576 130.168C202.899 130.7 203.115 131.019 203.438 131.019C203.761 131.019 203.653 131.445 203.545 131.871C203.459 132.211 203.51 132.793 203.545 133.041C203.366 133.254 202.964 133.744 202.791 133.999C202.576 134.318 203.222 136.234 202.791 136.447C202.361 136.659 201.499 136.553 200.745 136.979C199.991 137.404 198.052 138.788 197.297 138.894C196.543 139.001 196.112 139.001 195.358 139.533C194.604 140.065 193.958 140.597 193.312 140.703C192.795 140.788 192.378 140.952 192.234 141.023C192.055 141.235 191.566 141.725 191.049 141.98C190.532 142.236 189.972 142.441 189.757 142.512C189.721 142.867 189.584 143.726 189.326 144.321C189.003 145.066 188.679 146.556 188.895 147.088C189.11 147.62 189.003 148.153 188.464 149.004C187.925 149.855 186.956 151.771 186.525 152.835C186.094 153.899 186.202 153.793 185.556 153.793C184.909 153.793 184.909 154.218 184.694 154.538C184.478 154.857 184.263 155.495 183.616 155.708C182.97 155.921 180.923 157.198 180.169 157.624C179.415 158.049 178.553 158.688 178.015 159.22C177.476 159.752 176.291 159.433 175.429 159.433C174.568 159.433 174.352 159.326 174.244 159.859C174.137 160.391 174.46 164.009 173.383 165.605C172.305 167.201 171.982 168.266 171.874 168.904C171.767 169.543 171.659 172.309 171.551 172.841C171.444 173.374 172.198 174.225 172.305 174.97C172.413 175.715 172.629 178.588 172.305 181.355C171.982 184.122 171.875 186.357 172.09 186.782C172.305 187.208 172.413 188.272 172.09 189.017C171.767 189.762 171.444 192.21 171.336 194.019C171.25 195.466 171.085 196.821 171.013 197.318L176.291 203.703L178.553 214.132C179.487 214.628 181.634 215.728 182.755 216.154C184.155 216.686 188.194 218.298 192.514 219.53C196.014 220.528 195.514 223.022 197.014 224.02" stroke="#333757" stroke-width="1.2" stroke-linejoin="round"/>
<path d="M115.508 67.3559L117.508 66.857L121.7 67.2262L122.241 66.4926H123.645L124.726 65.3398L125.806 66.1782C126.347 66.0035 127.557 65.6752 128.075 65.759C128.724 65.8638 129.372 66.1782 130.561 65.759C131.749 65.3398 132.83 64.9206 133.262 64.8158C133.694 64.711 132.938 63.663 133.802 63.7678C134.667 63.8726 137.476 64.187 138.124 63.9774C138.773 63.7678 139.853 62.9294 140.826 63.3486C141.604 63.684 142.374 64.0473 142.662 64.1871C143.491 63.698 145.364 62.6989 146.228 62.6151C147.093 62.5313 148.533 62.5802 149.146 62.6151C149.398 62.9993 150.01 63.7678 150.442 63.7678C150.983 63.7678 153.144 62.9294 153.792 63.3486C154.44 63.7678 154.98 63.5582 155.737 63.7678C156.493 63.9774 156.709 63.8726 157.358 64.8158C157.876 65.5704 159.303 67.0167 159.951 67.6455C160.995 67.7153 163.43 67.7711 164.813 67.4358C166.196 67.1005 168.127 66.9468 168.919 66.9119C168.847 66.1434 168.746 64.5226 168.919 64.1871C169.092 63.8517 169.495 63.2089 169.676 62.9295C170.576 62.4753 172.571 61.5461 173.349 61.4623C174.322 61.3575 174.322 60.8335 174.43 60.0999C174.538 59.3663 174.754 58.9471 175.726 58.1087C176.699 57.2703 177.239 56.4318 177.888 55.9078C178.536 55.3838 178.644 54.9646 178.428 54.0214C178.212 53.0782 177.996 51.8206 178.428 50.2486C178.86 48.6766 179.508 47.7334 179.508 46.5806C179.508 45.4278 180.265 44.1702 180.589 42.4934C180.913 40.8166 180.913 39.035 181.345 38.511C181.691 38.0918 181.777 37.5678 181.777 37.3582V36.7294C181.885 36.7643 182.21 36.7503 182.642 36.415C183.074 36.0796 183.614 35.4368 183.83 35.1573C183.83 34.8429 183.744 34.0674 183.398 33.4805C183.052 32.8937 182.534 31.8387 182.318 31.3845C182.57 31.1749 183.182 30.7557 183.614 30.7557C184.155 30.7557 185.775 30.8605 186.208 29.9173C186.64 28.9741 186.532 28.2405 187.936 28.1357C189.341 28.0309 190.962 27.9261 191.718 28.1357C192.475 28.3453 193.65 28.5942 194.514 27.4414" stroke="#333757" stroke-width="1.2" stroke-linejoin="round"/>
<path d="M64.0049 17.9609L65.4278 18.6968L66.1867 19.8532H67.1353L67.7045 20.1686L68.1788 19.8532L68.748 20.6942H69.3171L70.1709 21.7454H70.5503C70.5187 21.9907 70.5314 22.5864 70.8349 23.0069C71.2144 23.5326 71.499 23.9531 71.499 24.6889C71.499 25.4248 72.0681 25.2146 72.163 25.5299C72.2579 25.8453 72.9219 26.4761 73.2065 27.2119C73.4911 27.9478 73.3013 28.2632 73.5859 28.8939C73.8705 29.5247 73.5859 31.1016 74.1551 31.8374C74.6104 32.4261 75.0405 33.134 75.1986 33.4143V34.2553H75.9575C75.9258 34.1152 75.9575 33.8348 76.3369 33.8348C76.8112 33.8348 77.2855 34.3604 77.4753 34.6758C77.665 34.9912 77.3804 35.7271 77.7598 35.7271C78.1393 35.7271 78.4239 35.5168 78.5187 35.9373C78.6136 36.3578 78.8033 36.463 79.0879 36.463C79.3725 36.463 79.6571 36.6732 80.2263 37.304C80.6816 37.8086 80.9852 37.7245 81.08 37.6193C81.1749 38.0749 81.4595 39.0701 81.8389 39.4065C82.2184 39.7429 82.6927 39.897 82.8824 39.9321L83.167 40.5628H83.5464L83.831 41.4038H84.495L85.1591 42.35L85.6334 44.3473L84.3053 44.6627L84.495 46.1345L85.6334 47.8165C85.8863 48.307 86.3923 49.4564 86.3923 50.1292C86.3923 50.9702 85.6334 52.3368 85.6334 53.3881C85.6334 54.4393 85.4437 56.2265 85.6334 56.5418C85.7852 56.7941 86.3923 57.558 86.6769 57.9085C86.6452 58.6093 86.4871 60.1371 86.1077 60.6417C85.6334 61.2725 85.918 64.1108 87.6255 64.4262C89.333 64.7416 89.9022 64.4262 90.7559 64.4262C91.6097 64.4262 92.3686 65.057 92.748 64.4262C93.1275 63.7955 93.6018 64.0057 94.0761 64.216C94.4555 64.3842 95.1828 64.7766 95.499 64.9518C95.5939 65.5476 95.8785 66.781 96.2579 66.9492C96.7322 67.1595 97.586 67.3697 98.25 67.3697C98.914 67.3697 99.5781 67.58 99.7678 68.0005C99.9575 68.421 99.9575 68.8415 100.622 68.9466C101.286 69.0517 101.57 69.262 102.708 69.9979C103.847 70.7337 105.08 71.8901 105.744 71.8901C106.275 71.8901 106.788 71.3995 106.977 71.1542C107.388 71.1192 108.324 71.1332 108.78 71.4696C109.349 71.8901 109.823 71.785 110.961 71.4696C111.872 71.2173 112.416 71.1542 112.574 71.1542C112.574 71.7149 112.574 72.9203 112.574 73.2567C112.574 73.6772 112.764 74.6234 113.333 74.8336C113.902 75.0439 113.902 75.8849 113.902 76.7259C113.902 77.5669 113.997 78.1976 114.282 79.2489C114.566 80.3001 114.661 81.877 114.282 82.718C113.978 83.3908 113.523 84.8205 113.333 85.4512C113.586 85.8717 114.206 86.7127 114.661 86.7127C115.23 86.7127 118.456 86.7127 119.404 86.2922C120.353 85.8717 120.258 85.4512 121.207 85.4512C121.965 85.4512 122.471 85.4512 122.629 85.4512L123.009 87.6589C122.882 88.1144 122.554 89.1306 122.25 89.5511C121.871 90.0767 121.681 91.2331 121.681 91.969C121.681 92.7049 121.207 92.4946 121.207 93.4407C121.207 94.3869 120.922 94.492 120.448 95.2279C119.973 95.9637 119.784 96.6996 119.878 97.2252C119.973 97.7509 119.12 98.2765 118.55 98.4868C117.981 98.697 116.463 99.2226 115.989 99.8534C115.515 100.484 115.041 101.22 114.661 101.535C114.282 101.851 111.198 101.65 111.008 102.28C110.818 102.911 109.387 104.249 109.008 104.775C108.704 105.196 108.134 106.42 108.008 106.771C107.723 106.911 107.584 107.18 107.508 107.769C107.432 108.357 106.134 109.02 106.008 109.265C105.692 109.651 104.811 110.504 104.508 111.261C104.128 112.207 102.266 113.44 101.507 113.756C100.9 114.008 98.5072 114.754 96.0071 115.253" stroke="#333757" stroke-width="1.2" stroke-linejoin="round"/>
<path d="M112.457 71.3475L114.925 68.3539L116.008 66.8571C115.671 66.3635 115.082 64.9547 115.262 64.3624C115.486 63.6221 116.12 63.2358 116.008 62.8656C115.896 62.4955 116.159 61.7929 114.925 61.0525C113.938 60.4603 112.868 59.8186 112.457 59.5719C112.793 58.6773 113.444 56.7586 113.354 56.2404C113.264 55.7221 112.718 55.1607 112.457 54.9448C112.905 53.9885 113.915 51.9094 114.364 51.2431C114.813 50.5768 115.149 49.2381 115.262 48.652L113.354 45.5981L114.925 44.7652V43.9323C114.476 43.7164 113.534 43.155 113.354 42.6368C113.175 42.1185 112.382 41.989 112.008 41.989V39.9531L113.13 37.8246L117.057 36.1589C117.356 35.4494 118.156 33.8453 118.964 33.105C119.974 32.1796 120.199 31.7169 119.862 31.0691C119.525 30.4213 119.638 29.3108 119.525 28.8481C119.413 28.3854 118.74 27.9227 118.403 27.3674C118.067 26.8122 117.842 26.8122 117.618 25.6091C117.393 24.4061 116.832 23.5732 117.393 22.5553C117.842 21.7409 117.954 20.3651 117.954 19.779L116.608 18.2058H114.813V15.4296L116.879 11.9746" stroke="#333757" stroke-width="1.2" stroke-linejoin="round"/>
<path d="M174.174 61.1699C174.495 61.3119 175.849 61.7667 176.62 61.7667C177.583 61.7667 182.187 63.3641 182.508 63.8966C182.765 64.3226 182.9 64.6421 182.936 64.7486L187.325 66.0266H187.646L192.999 69.9671L191.929 71.0321C191.929 71.3871 191.8 72.2675 191.286 72.949C190.644 73.801 187.646 78.061 186.897 80.2975C187.004 81.0075 187.154 82.6618 186.897 83.5989C186.64 84.5361 186.79 85.4804 186.897 85.8354L189.573 89.0304L189.788 90.7344C189.573 90.8054 189.188 90.99 189.359 91.1604C189.573 91.3734 191.179 92.4384 192.143 92.4384C193.106 92.4384 193.749 91.9059 194.498 92.2254C195.097 92.481 195.961 93.1839 196.318 93.5034L196.639 94.0358C198.388 94.4263 202.035 95.3351 202.634 95.8463C203.383 96.4853 204.24 96.3788 204.989 96.2723C205.739 96.1658 206.167 96.8048 206.809 97.1243C207.452 97.4438 209.7 97.5503 210.877 97.3373C212.055 97.1243 212.697 97.4438 213.018 97.6568C213.275 97.8272 214.767 97.7278 215.481 97.6568C216.159 98.1893 217.772 99.2756 218.799 99.3608C220.084 99.4673 220.405 99.0413 221.476 99.3608C222.546 99.6803 223.831 98.1893 224.259 97.6568C224.687 97.1243 224.152 96.9113 224.473 96.0593C224.73 95.3777 225.08 94.0713 225.223 93.5034C225.651 93.2194 226.7 92.7366 227.471 93.0774C228.434 93.5033 229.291 93.2904 230.575 93.0774C231.86 92.8644 233.68 93.1839 234.75 92.3319C235.607 91.6503 236.32 91.0539 236.57 90.8409C236.499 90.6634 236.592 90.2871 237.534 90.2019C238.711 90.0954 238.39 90.5214 239.14 90.8409C239.739 91.0965 241.53 91.5864 242.351 91.7994H243.101C243.529 91.3734 244.514 90.5214 245.028 90.5214C245.67 90.5214 248.132 91.2669 248.989 92.1189C249.845 92.9709 250.701 93.0774 251.237 93.0774C251.772 93.0774 253.592 94.8878 254.555 96.0593C255.519 97.2308 256.489 97.6449 257.238 99.3489C257.988 101.053 258.095 101.159 258.416 101.479C258.737 101.798 259.593 102.65 261.199 102.65C262.484 102.65 262.866 102.65 263.019 102.78" stroke="#333757" stroke-width="1.2" stroke-linejoin="round"/>
</svg>
