<svg width="708" height="822" viewBox="0 0 708 822" fill="none" xmlns="http://www.w3.org/2000/svg">
<path d="M477.052 619.037C475.264 619.037 475.81 617.296 476.307 616.426C476.431 616.302 476.754 615.904 477.052 615.308C477.35 614.711 477.673 613.816 477.797 613.443C479.659 613.194 484.204 612.697 487.482 612.697C491.579 612.697 492.324 613.816 492.697 615.681C493.069 617.545 491.579 619.037 489.717 619.037C487.854 619.037 485.619 617.918 482.639 619.037C479.659 620.155 479.287 619.037 477.052 619.037Z" fill="#1A203A" stroke="#333757" stroke-width="1.5" stroke-linejoin="round"/>
<path d="M438.055 170.174C434.181 169.875 431.235 172.664 430.232 172.784C430.118 171.545 429.562 167.488 426.88 165.698C424.198 163.908 425.266 160.229 426.135 158.613C425.018 157.494 422.485 154.735 421.293 152.646C420.101 150.558 417.816 150.533 416.823 150.782C418.909 149.588 418.934 146.307 418.685 144.815C414.588 142.204 416.078 137.73 414.215 136.611C412.353 135.492 403.04 133.628 398.943 136.611C394.845 139.594 385.161 138.476 378.456 138.848C371.751 139.221 368.026 140.34 361.693 144.815C355.361 149.29 354.988 145.188 349.028 146.307C343.069 147.425 341.951 146.68 338.971 149.663C336.587 152.049 330.528 154.386 327.796 155.257C326.555 153.516 323.177 149.961 319.601 149.663C315.131 149.29 314.014 145.934 311.034 143.696C308.054 141.459 305.819 141.832 298.742 143.696C291.664 145.561 289.429 150.036 282.724 155.257C276.019 160.477 271.922 160.477 266.334 163.088C260.747 165.698 261.119 167.563 260.747 172.784C260.374 178.005 254.042 187.327 250.69 190.683C247.337 194.039 245.847 194.039 245.102 200.752C244.357 207.464 235.79 208.956 232.065 210.447C228.34 211.939 225.732 212.685 226.477 215.295C227.222 217.905 223.125 224.991 219.4 230.211C216.42 234.388 210.957 234.438 208.598 233.94C209.218 234.935 210.088 237.744 208.598 241.026C207.108 244.307 206.983 248.608 207.108 250.348C205.99 250.348 201.744 250.572 193.698 251.467C183.64 252.586 182.523 252.959 177.68 250.348C172.838 247.738 167.623 248.857 166.133 250.348C164.643 251.84 161.291 251.467 156.821 252.959C152.351 254.45 150.861 258.552 146.391 260.417C141.921 262.282 135.589 254.078 131.118 250.348C126.648 246.619 125.158 248.111 120.317 246.992C115.475 245.874 118.081 242.144 114.357 242.517C111.377 242.816 111.377 240.404 111.749 239.161L109.514 241.026C109.514 243.76 109.961 249.677 111.749 251.467C113.537 253.257 112.494 256.937 111.749 258.552L114.357 260.417C113.612 262.157 112.569 265.862 114.357 266.757C116.592 267.875 117.709 271.977 120.317 280.554C122.403 287.416 126.898 291.617 128.884 292.86C130.002 296.216 133.727 300.691 135.589 305.166C137.451 309.641 135.589 309.268 133.727 311.506C131.864 313.743 137.452 313.37 137.452 315.608C137.452 317.845 137.452 321.947 135.589 321.574C134.099 321.276 132.733 316.726 132.237 314.489L128.884 313.37L127.767 314.489L130.002 315.608C130.002 317.348 130.449 321.649 132.237 324.93C134.471 329.032 131.864 328.659 130.002 330.897C128.139 333.134 128.139 337.609 127.767 342.83C127.469 347.007 126.898 348.548 126.649 348.796C126.525 351.531 126.351 358.567 126.649 364.832C127.022 372.663 126.649 378.629 130.002 382.731C133.354 386.833 131.492 391.308 133.727 393.173C135.962 395.037 135.962 399.885 137.452 405.852C138.942 411.818 143.412 414.428 147.882 416.293C152.352 418.158 153.469 414.801 156.449 413.31C159.429 411.818 161.664 413.31 168.369 410.699C175.074 408.089 180.288 400.631 181.779 399.139C183.269 397.648 186.249 400.631 187.366 399.885C188.483 399.139 192.581 398.393 194.443 402.122C195.933 405.106 192.829 409.083 191.091 410.699V416.293L181.779 426.362H179.171L172.838 421.514L170.604 423.751L176.191 428.599L176.936 431.955C176.688 432.328 175.744 433.82 173.956 436.803C171.721 440.532 167.996 439.786 165.761 440.905C163.526 442.024 162.409 445.38 161.664 447.617C160.919 449.855 157.194 452.838 156.449 454.33C155.853 455.523 160.174 454.827 162.409 454.33C162.781 454.703 162.781 455.821 159.801 457.313C156.076 459.178 154.586 459.923 157.194 465.144C159.801 470.365 161.291 472.229 164.271 471.111C167.251 469.992 170.976 471.484 172.838 474.094C174.701 476.704 176.936 480.806 180.288 477.45C182.97 474.765 186.124 474.591 187.366 474.84C187.738 475.586 189.005 476.853 191.091 475.958C193.698 474.84 191.463 477.45 194.443 480.806C197.423 484.163 201.521 485.654 204.128 484.163C206.736 482.671 209.716 482.298 214.558 484.163C219.4 486.027 220.145 491.248 220.518 493.858C220.89 496.469 218.283 498.333 216.048 499.452C214.26 500.347 213.565 496.841 213.44 494.977L210.461 491.994L208.226 493.485L210.461 494.977C212.695 497.96 210.088 501.316 208.226 507.283C206.364 513.249 211.578 515.487 216.793 518.47C222.009 521.453 221.263 524.064 223.87 527.42C225.956 530.105 229.954 535.5 231.693 537.861C230.203 540.472 227.074 545.842 226.478 546.438C225.732 547.184 220.145 546.438 218.283 545.693C216.794 545.096 220.394 541.466 222.38 539.726L220.145 537.861L214.558 544.201C212.323 541.963 205.991 544.201 202.638 544.201C199.286 544.201 198.913 540.472 195.933 543.455C192.953 546.438 186.994 547.557 185.131 553.897C183.269 560.236 183.641 566.203 186.994 568.067C190.346 569.932 187.366 584.102 191.836 587.831C196.306 591.56 195.189 594.171 196.679 597.9C198.169 601.629 202.639 597.9 208.226 600.51C213.813 603.121 218.283 602.002 221.263 602.748C224.244 603.493 220.891 607.968 221.263 612.07C221.561 615.352 219.401 616.172 218.283 616.172C217.662 617.291 216.495 620.051 216.793 622.139C217.166 624.749 222.753 623.63 227.223 626.241C231.693 628.851 235.046 626.241 234.673 623.63C234.301 621.02 230.948 621.393 231.693 618.41C232.438 615.427 233.928 618.41 237.653 616.172C241.378 613.935 244.358 618.41 245.848 616.172C247.338 613.935 252.925 616.172 255.16 618.41C257.395 620.647 265.963 621.393 269.688 621.393C273.413 621.393 279 620.647 283.842 621.393C288.685 622.139 286.45 618.037 289.43 616.172C292.41 614.308 292.037 619.529 293.527 614.681C295.017 609.833 292.037 607.968 289.43 604.612C286.822 601.256 292.41 602.002 298.742 602.002C305.075 602.002 303.957 599.018 304.702 595.289C305.447 591.56 310.662 588.95 312.152 586.34C313.642 583.729 314.759 586.712 320.347 587.831C325.934 588.95 321.092 592.679 321.464 595.289C321.837 597.9 325.934 595.289 327.424 597.9C328.914 600.51 323.326 602.002 325.934 604.612C328.541 607.223 333.384 596.408 333.011 602.748C332.639 609.087 337.481 600.51 341.579 602.748C345.676 604.985 346.421 602.748 349.028 600.51C351.636 598.273 351.263 602.002 350.145 604.612C349.028 607.223 352.008 607.968 353.498 607.968C354.988 607.968 359.458 608.714 366.535 607.968C373.612 607.223 375.847 604.612 377.337 602.748C378.529 601.256 379.572 599.64 379.945 599.018C381.187 599.018 384.117 598.795 385.905 597.9C387.692 597.005 387.395 600.262 387.022 602.002C386.153 602.25 384.267 603.344 383.671 605.731C382.926 608.714 386.278 607.223 390.748 605.731C395.218 604.239 392.61 600.51 394.473 599.018C395.963 597.825 398.322 599.516 399.315 600.51L401.55 597.9L407.137 599.018C406.889 600.013 406.839 602.524 408.627 604.612C410.863 607.223 410.862 610.206 408.627 614.681C406.392 619.156 408.255 621.02 408.627 619.529C409 618.037 410.862 616.172 412.352 619.529C413.842 622.885 419.802 621.02 422.41 622.139C425.017 623.258 426.88 626.241 431.722 626.987C436.565 627.733 436.565 625.122 440.29 626.241C444.014 627.36 441.78 624.003 443.642 622.139C445.504 620.274 444.387 618.037 446.249 616.172C448.112 614.308 444.387 613.935 444.387 612.07C444.387 610.206 448.484 607.223 450.719 604.612C452.954 602.002 455.562 602.748 458.542 602.748C461.522 602.748 461.522 602.748 462.639 600.51C463.757 598.273 465.247 600.51 465.992 602.748C466.737 604.985 468.599 604.239 470.089 600.51C471.281 597.527 469.593 596.532 468.599 596.408C468.848 595.662 468.823 594.171 466.737 594.171C464.129 594.171 462.267 593.052 462.639 590.815C463.012 588.577 464.129 587.085 460.777 587.831C457.424 588.577 454.817 586.712 451.464 585.221C448.112 583.729 446.249 580.373 448.484 577.017C450.719 573.661 450.719 572.542 449.229 571.423C447.739 570.305 451.464 569.186 449.974 567.694C448.484 566.203 451.464 564.338 451.464 562.473C451.464 560.609 449.974 560.982 448.484 559.117C447.292 557.626 449.478 555.512 450.719 554.642L449.974 552.405C448.981 553.151 446.473 554.642 444.387 554.642C441.78 554.642 438.055 547.557 436.565 544.201C435.075 540.845 437.31 532.268 438.8 531.149C439.992 530.254 440.29 527.544 440.29 526.301H443.642C443.766 526.798 444.089 528.315 444.387 530.403C444.759 533.014 444.014 535.251 446.249 536.37C448.037 537.265 448.981 535.997 449.229 535.251C449.726 534.63 450.421 533.163 449.229 532.268C447.739 531.149 447.739 527.793 449.974 523.691C452.209 519.589 457.052 516.233 463.757 513.249C470.462 510.266 479.402 508.029 486.479 507.656C493.556 507.283 491.694 508.402 500.261 511.758C508.829 515.114 507.711 516.979 508.084 521.081C508.382 524.362 507.215 531.398 506.594 534.505C503.986 535.251 503.986 535.997 503.986 538.234C503.986 540.024 501.503 538.98 500.261 538.234L499.144 539.353L500.261 540.845L499.144 545.32C498.399 548.303 504.731 544.201 503.986 546.811C503.241 549.422 505.849 552.405 508.084 554.642C510.319 556.88 508.829 560.236 507.711 561.728C506.594 563.219 509.574 563.965 508.084 564.338C506.594 564.711 506.594 566.948 507.711 567.694C508.605 568.291 511.312 567.943 512.554 567.694C512.802 568.689 513.001 571.05 511.809 572.542C510.319 574.406 510.319 575.525 511.436 576.271C512.554 577.017 513.671 575.525 515.534 574.406C517.396 573.288 517.769 572.915 517.769 571.423C517.769 569.932 518.514 566.948 518.886 569.932C519.259 572.915 520.749 571.423 523.356 571.796C525.964 572.169 526.709 570.677 527.826 569.932C528.944 569.186 530.061 569.559 531.924 569.932C533.786 570.305 538.628 564.711 540.863 562.473C543.098 560.236 543.843 559.49 542.353 559.117C541.161 558.819 540.863 556.507 540.863 555.388L544.961 554.642C545.085 554.145 546.004 552.703 548.686 550.913C552.038 548.676 558.743 548.676 559.861 545.32C560.755 542.635 563.71 542.212 565.076 542.336C564.579 543.828 563.884 546.96 565.076 547.557C566.566 548.303 566.566 548.676 568.056 550.913C569.546 553.151 572.526 549.794 574.76 548.676C576.995 547.557 582.583 547.557 584.818 547.557C587.053 547.557 584.445 550.913 586.308 553.151C588.17 555.388 591.895 553.524 594.13 554.642C595.918 555.537 594.875 558.247 594.13 559.49C594.503 559.739 595.769 560.534 597.855 561.728C600.463 563.219 599.718 563.219 602.325 566.203C604.933 569.186 607.913 569.186 610.148 570.677C612.383 572.169 612.01 573.288 610.893 573.661C609.775 574.034 608.285 574.406 608.658 577.763C609.03 581.119 608.285 580.746 606.795 585.221C605.603 588.801 606.298 590.193 606.795 590.442C607.168 590.442 608.36 590.367 610.148 590.069C612.383 589.696 615.363 586.34 615.735 587.085C616.108 587.831 614.99 591.56 616.853 591.56C618.715 591.56 620.577 591.187 623.185 594.544C625.792 597.9 627.655 600.51 631.38 600.51C635.105 600.51 636.222 599.391 638.085 597.527C639.947 595.662 638.085 591.56 639.202 589.323C640.096 587.533 642.306 587.085 643.3 587.085C644.045 586.34 645.311 584.624 644.417 583.729C643.523 582.834 643.3 581.367 643.3 580.746C642.555 580.622 640.767 580.448 639.575 580.746C638.383 581.044 637.836 579.627 637.712 578.881C638.581 578.136 641.139 576.42 644.417 575.525C648.515 574.406 651.495 572.169 652.985 569.932C654.475 567.694 658.2 566.203 658.2 565.457C658.2 564.711 660.062 562.1 658.2 561.728C656.71 561.429 655.344 560.609 654.847 560.236C656.337 559.987 659.913 559.192 662.297 557.999C665.277 556.507 665.649 553.897 665.277 550.913C664.979 548.527 661.18 544.947 659.317 543.455L655.592 542.336C655.095 542.958 653.581 544.275 651.495 544.574C649.409 544.872 649.135 543.206 649.26 542.336C648.639 542.461 646.801 542.336 644.417 540.845C642.033 539.353 642.679 536.494 643.3 535.251L645.162 534.505L648.142 531.149L648.515 525.928L648.142 523.691L645.907 522.945L645.535 528.539C645.286 528.787 644.715 529.508 644.417 530.403C644.045 531.522 639.575 530.776 636.222 530.03C633.54 529.434 633.366 527.544 633.615 526.674L638.085 523.691L636.222 521.081L632.87 523.691H630.635C629.89 521.826 629.145 516.456 632.125 509.893C635.85 501.689 641.065 495.35 648.515 492.366C654.475 489.98 660.186 485.406 662.297 483.417L664.904 482.298C664.035 481.304 662.297 478.867 662.297 477.077C662.297 474.84 663.787 472.229 668.629 468.873C672.503 466.188 673.969 461.539 674.217 459.551C674.217 458.556 673.77 456.269 671.982 455.076C670.194 453.882 672.727 451.595 674.217 450.601V446.126C674.962 446.25 676.973 446.424 679.059 446.126C681.145 445.827 680.922 442.77 680.549 441.278C679.432 439.289 676.601 434.566 674.217 431.582C671.833 428.599 669.499 421.638 668.629 418.53V410.327L666.767 404.36L663.787 402.868V393.546C663.787 387.206 666.022 387.952 666.767 381.24C667.512 374.527 668.257 371.917 671.982 366.323C674.962 361.848 677.942 355.757 679.059 353.271V334.626C679.059 328.361 682.536 321.574 684.274 318.964C684.274 314.862 683.976 305.39 682.784 300.318C681.294 293.979 679.804 286.521 680.549 280.927C681.145 276.452 682.288 268.372 682.784 264.892L687.999 259.671L685.764 252.959L676.824 248.484L674.962 243.636L669.002 236.178C665.525 236.551 657.157 237.371 651.495 237.67C644.417 238.042 641.437 239.161 639.575 236.178C638.085 233.791 636.222 233.692 635.477 233.94C634.484 234.686 631.231 236.775 626.165 239.161C621.099 241.548 613.873 244.631 610.893 245.874C606.174 239.907 595.993 226.855 593.013 222.38C589.288 216.787 581.465 211.566 581.093 205.226C580.72 198.887 579.603 196.65 577.368 191.056C575.58 186.581 572.401 178.999 571.036 175.767C570.042 175.145 567.087 173.679 563.213 172.784C559.339 171.89 553.652 167.439 551.293 165.325H529.316C521.866 165.325 520.004 172.038 515.906 173.902C511.809 175.767 507.711 178.377 505.476 175.767C503.241 173.156 504.731 173.902 499.889 173.902C495.046 173.902 490.949 172.784 474.187 172.038C457.424 171.291 460.032 172.784 454.817 173.902C449.602 175.02 442.897 170.547 438.055 170.174Z" fill="#1A203A" stroke="#333757" stroke-width="1.5" stroke-linejoin="round"/>
<path d="M76.3624 396.155L72.265 399.138L73.7543 400.257C74.0027 400.63 74.4993 401.674 74.4993 402.867C74.4993 404.06 73.0098 404.607 72.265 404.732C70.03 405.229 65.7089 405.776 66.3044 403.986C66.8999 402.196 68.2909 401.5 68.9119 401.376C69.1602 400.63 69.2844 399.362 67.7944 400.257C65.9319 401.376 62.952 400.257 62.5795 402.867C62.207 405.478 58.8545 403.986 54.0127 404.732C49.1708 405.478 49.5421 407.342 46.9346 407.342C44.3272 407.342 39.4847 405.105 36.1323 407.342C32.7798 409.58 31.6623 414.8 32.0348 418.529C32.4073 422.258 33.5248 423.377 33.1523 427.106C32.7798 430.835 28.3099 431.581 26.4469 431.954C24.584 432.327 20.8595 433.819 20.1145 436.056C19.3695 438.294 22.3495 439.412 26.4469 441.277C29.7249 442.768 33.276 440.655 34.6418 439.412C36.0079 440.034 39.1124 441.799 40.6018 443.887C42.4635 446.498 40.975 449.108 38.74 449.108C36.952 449.108 37.995 453.086 38.74 455.074C39.2367 455.447 40.7515 456.417 42.8375 457.312C44.9234 458.207 45.6933 456.193 45.8174 455.074C46.8109 455.074 48.7232 455.522 48.4252 457.312C48.1272 459.102 49.7911 462.533 50.6602 464.024H54.0127C55.2543 465.764 58.0356 469.991 59.2276 472.974C60.7176 476.703 62.2076 477.076 65.56 477.076C68.9125 477.076 69.285 478.195 70.775 477.076C72.265 475.957 72.265 477.822 75.2449 479.686C78.2249 481.551 81.5774 481.178 84.9298 481.178C88.2823 481.178 91.2622 483.416 96.1047 481.178C100.947 478.941 97.9672 478.195 97.9672 475.584C97.9672 472.974 94.9872 473.347 97.9672 471.11C100.947 468.872 100.947 467.753 99.4572 466.635C98.2652 465.74 97.9672 462.284 97.9672 460.668C96.7255 460.668 94.0932 459.997 93.4972 457.312C92.7522 453.956 97.9672 454.702 99.4572 449.108C100.947 443.514 97.9672 442.023 96.1047 439.412C94.2422 436.802 96.1047 436.056 97.9672 433.819C99.8297 431.581 99.0847 425.615 96.1047 423.377C93.1247 421.14 89.7723 419.648 87.5373 417.411C85.3023 415.173 91.6347 414.427 89.7723 412.936C88.2823 411.742 87.6615 409.207 87.5373 408.088L81.5774 404.732H77.4799V400.257L76.3624 396.155Z" fill="#1A203A" stroke="#333757" stroke-width="1.5" stroke-linejoin="round"/>
<path d="M427.51 663.785C427.808 661.995 429.124 661.299 429.745 661.175C431.98 661.175 433.098 661.921 433.843 663.039C434.588 664.158 433.843 668.633 433.843 669.752C433.843 670.87 431.235 671.989 429.745 669.752C428.255 667.514 427.137 666.023 427.51 663.785Z" fill="#1A203A" stroke="#333757" stroke-width="1.5" stroke-linejoin="round"/>
<path d="M436.077 674.228C436.077 671.991 435.705 671.245 436.822 669.753L437.94 668.634C439.803 667.516 440.547 669.753 442.037 668.634C443.527 667.516 445.39 667.516 447.252 668.634C449.115 669.753 450.977 669.753 451.35 672.736C451.722 675.72 451.35 675.347 447.252 675.72C443.155 676.093 443.527 676.466 439.057 676.466C434.587 676.466 436.077 676.466 436.077 674.228Z" fill="#1A203A" stroke="#333757" stroke-width="1.5" stroke-linejoin="round"/>
<path d="M534.417 668.634C536.031 668.261 539.781 666.993 541.867 664.905C544.474 662.294 545.219 661.176 547.454 663.413C549.689 665.65 550.062 666.769 553.042 663.413C553.663 663.91 554.904 665.204 554.904 666.397C554.904 667.889 558.257 666.398 557.512 667.516C556.767 668.634 556.022 669.38 554.904 669.38C554.874 669.38 554.847 669.38 554.821 669.379C555.299 669.465 556.439 669.842 557.139 671.245C558.257 673.482 554.904 673.482 558.257 676.093C561.609 678.703 559.747 678.703 560.119 680.94C560.492 683.178 558.629 683.924 557.139 684.297C555.649 684.669 554.532 685.042 553.787 686.161C553.042 687.28 548.944 687.28 547.827 686.161C546.709 685.042 545.219 684.669 544.102 685.415C542.984 686.161 539.259 687.28 537.769 686.161C536.577 685.266 536.279 683.551 536.279 682.805C535.534 681.935 534.119 679.896 534.417 678.703C534.789 677.211 535.162 675.72 534.417 673.855C533.821 672.363 534.169 669.753 534.417 668.634Z" fill="#1A203A" stroke="#333757" stroke-width="1.5" stroke-linejoin="round"/>
<path d="M430.49 172.664C429.745 173.783 430.787 176.319 428.999 179.004C426.764 182.36 419.314 187.208 414.844 190.191C410.374 193.174 406.65 193.92 407.022 197.276C407.395 200.632 408.139 210.328 407.022 214.057C406.128 217.04 405.905 220.024 405.905 221.142C404.043 223.007 399.647 227.556 396.965 230.838C394.283 234.119 392.123 236.183 391.378 236.804L377.595 242.771L376.105 246.127C377.099 247.37 378.787 250.751 377.595 254.331C376.105 258.806 376.478 265.891 377.595 267.756C378.713 269.62 376.105 271.858 374.988 274.468C373.87 277.079 374.988 281.181 374.988 283.791C374.988 286.401 373.125 288.639 371.262 290.876C369.4 293.114 370.145 291.622 371.262 293.487C372.38 295.351 372.38 296.097 372.38 299.453C372.38 302.809 371.262 309.895 371.262 313.624C371.262 317.353 370.89 322.574 372.38 324.811C373.572 326.601 372.877 328.291 372.38 328.913L364.185 336.371C364.806 337.987 366.271 341.368 367.165 341.965C368.283 342.711 363.068 350.915 362.323 353.152C361.578 355.39 362.323 356.135 358.598 356.508C354.873 356.881 351.521 357.627 343.326 362.848C335.131 368.068 329.916 371.798 325.818 373.662C321.721 375.527 320.603 379.256 318.741 381.866C316.879 384.476 315.016 387.833 313.154 389.697C311.291 391.562 309.429 394.172 310.919 394.545C312.409 394.918 317.623 394.545 319.486 396.782C321.348 399.02 327.308 413.563 329.543 415.801C331.331 417.591 333.765 420.027 334.758 421.022C334.882 422.637 335.056 426.168 334.758 427.361C334.386 428.853 332.896 429.226 331.778 432.955C330.661 436.684 329.543 443.769 324.328 450.854C319.113 457.94 313.898 457.94 312.781 461.669C311.663 465.398 310.546 466.516 310.546 468.754C310.546 470.991 307.938 472.11 307.938 475.466C307.938 478.822 309.428 484.043 307.938 485.908C306.448 487.772 307.938 488.891 307.193 490.756C306.448 492.62 304.213 495.976 304.586 500.078C304.958 504.18 305.331 510.52 307.938 512.757C310.546 514.995 316.879 516.859 318.369 517.232C318.99 517.605 320.38 518.649 320.976 519.842C321.721 521.334 324.329 526.555 326.191 527.301C327.681 527.897 330.041 529.787 331.034 530.657C330.786 531.527 330.214 534.013 329.916 536.996C329.544 540.725 330.661 538.861 329.916 543.336C329.32 546.916 328.923 551.54 328.799 553.404C331.779 555.269 338.335 559.52 340.719 561.608C343.699 564.219 342.954 568.321 343.326 571.677C343.699 575.033 344.444 579.135 347.796 581C351.149 582.864 350.776 586.22 353.384 586.22C355.991 586.22 355.991 586.22 357.109 589.949C358.226 593.678 357.854 595.543 361.206 597.78C364.558 600.018 367.911 603.374 369.773 607.476" stroke="#333757" stroke-width="1.5" stroke-linejoin="round"/>
</svg>
