<svg width="708" height="822" viewBox="0 0 708 822" fill="none" xmlns="http://www.w3.org/2000/svg">
<path d="M563.5 112C560.7 112.4 556.667 111.166 555 110.5C554.5 110.833 553.1 111.6 551.5 112C550.155 112.336 549.037 111.994 547.688 111.582C547.031 111.381 546.319 111.164 545.5 111C543.733 110.647 543.215 111.292 542.887 111.701C542.75 111.871 542.647 112 542.5 112H533.5C531.5 112 529.5 114 526.5 117.5C524.1 120.3 520.5 120.666 519 120.5C515.167 122.333 506.7 126.3 503.5 127.5C502.08 128.032 500.472 128.313 498.897 128.587C496.037 129.086 493.29 129.565 492 131.5C490.233 134.15 488.076 134.849 484.496 136.01C484.023 136.164 483.525 136.325 483 136.5C478.5 138 476.5 139.5 474.5 142.5C472.883 144.926 470.612 145.717 468.48 146.46C467.975 146.636 467.478 146.809 467 147C465.668 147.533 464.904 148.916 464.254 150.093C463.684 151.126 463.201 152 462.5 152C461 152 460 150 459 148C458.2 146.4 456.333 144.667 455.5 144C455.167 142.5 454.3 139.1 453.5 137.5C452.5 135.5 449 131 446 127.5C444.222 125.425 443.849 123.878 443.528 122.545C443.307 121.629 443.111 120.815 442.5 120C441.3 118.4 439 118.333 438 118.5L430 109.5L430.5 107.5L424 99L419 98.5C417.021 97.758 413.697 97.6277 410.539 97.5039C407.314 97.3774 404.263 97.2578 403 96.5C400.5 95.0003 395 94 391.5 94.9997C388.686 95.8034 382.317 95.6382 378.629 95.5425C377.73 95.5192 376.99 95.5 376.5 95.5C375.402 95.5 374.401 95.9821 373.453 96.4382C372.243 97.0207 371.122 97.5606 370 97L369.999 96.9993C367.998 95.9994 364 94.0007 362 97C360.409 99.3868 358.501 99.558 356.025 99.7802C355.389 99.8373 354.715 99.8977 354 100C352.756 100.178 351.258 100.672 349.621 101.212C346.652 102.191 343.222 103.322 340 103C335.753 102.575 335.113 101.069 334.404 99.3989C334.279 99.1028 334.151 98.8012 334 98.5C333.405 97.3102 334.226 97.1821 334.988 97.0631C335.508 96.982 336 96.9051 336 96.5C336 96.1193 335.565 95.8109 334.999 95.4095C334.078 94.7567 332.81 93.8576 332.5 92C332 89.0003 330.5 87 328 86.5C326.309 86.1618 325.533 85.1374 324.589 83.8912C324.138 83.2948 323.647 82.6476 323 82.0006C321 80.0016 320 81.5006 320.5 83.9997C320.898 85.9874 320.346 87.0273 319.098 89.3828C318.777 89.9888 318.409 90.6819 318 91.5006C316.465 94.5714 315.225 94.6957 314.053 94.8131C313.698 94.8487 313.349 94.8837 313 94.9997C311.8 95.3989 311.833 97.166 312 97.9997C311.833 97.8333 310.9 97.0004 308.5 94.9997C306.591 93.4082 304.884 92.8302 303.123 92.2336C302.116 91.8926 301.091 91.5455 300 90.9997C297.6 89.7989 297.333 87.166 297.5 85.9997H294C293.126 85.9997 292.313 85.7552 291.54 85.5227C290.101 85.0901 288.801 84.6989 287.5 85.9997C285.938 87.5612 284.987 86.6843 283.454 85.2729C283.024 84.8766 282.548 84.4381 282 83.9997C279.613 82.0904 278.594 83.3708 276.766 85.6659L276.761 85.6723C276.676 85.7793 276.589 85.8885 276.5 85.9997C274.9 87.9997 273.833 87.833 273.5 87.4997C273.333 88.1663 273 89.7997 273 90.9997C273 91.8254 271.939 92.9543 270.986 93.9691C270.207 94.7976 269.5 95.5502 269.5 95.9997C269.5 96.9997 270.5 98.4997 272.5 97.9997C274.1 97.5997 276.5 95.833 277.5 94.9997C277.833 95.4997 279 97.0997 281 99.4997C281.882 100.558 282.577 101.056 283.196 101.5C284.33 102.313 285.206 102.94 286.5 106.5C288.1 110.9 288.167 117 288 119.5H289C289.167 120 289.3 121.3 288.5 122.5C287.5 124 285 125.5 284 125C283.768 124.884 283.429 124.687 283.025 124.453C281.689 123.68 279.652 122.5 278.5 122.5C277.3 122.5 274.333 124.5 273 125.5V129C272.333 129.333 270.7 130.2 269.5 131C268 132 267 132.5 267 130.5C267 128.5 266.5 127.5 264.5 127.5C262.9 127.5 262.833 128.5 263 129C264.2 129.4 264.5 131.833 264.5 133C264.167 132.833 263.4 133 263 135C262.5 137.5 260.5 139 259 138.5C257.5 138 256 138.5 255 141C254 143.5 250 147 248 148.5C246 150 244.5 153 246 153C247.242 153 247.456 153.342 248.06 154.312C248.185 154.513 248.328 154.742 248.5 155C249.5 156.5 249 157.5 248 158.5C247 159.5 246 161.5 246 163.5C246 165.5 247.5 167 248 165.5C248.228 164.817 248.766 164.445 249.332 164.054C250.01 163.585 250.728 163.089 251 162C251.5 160 251 157.5 250 156C249 154.5 248.5 152.5 252 151C254.079 150.109 254.923 148.865 255.58 147.898C256.029 147.236 256.391 146.703 257 146.5C258.112 146.129 258.674 146.582 259.501 147.249C259.79 147.482 260.112 147.741 260.5 148C262 149 264 150 265.5 148.5C266.956 147.044 267.47 147.472 270.243 149.785L270.5 150C272.704 151.837 272.749 153.134 272.816 155.081C272.84 155.784 272.867 156.572 273 157.5C273.4 160.3 274.5 162 275 162.5L274 165.5L275.5 166C276 164.666 277.1 161.9 277.5 161.5C277.9 161.1 280 161.666 281 162V164.5H282.5V162H288L290.5 165.5L292.5 164L296.5 168.5L294.5 170C295 170.666 296.5 172.4 298.5 174C300.5 175.6 301 176.333 301 176.5C300.6 177.7 295.167 181 292.5 182.5C288.167 185 278.8 190 276 190C273.2 190 270.167 192.333 269 193.5L267.5 191.5C266.333 192 263.3 193.4 260.5 195C257 197 255 198.5 256 200.5C257 202.5 258.5 204.5 260.5 204.5C261.02 204.5 261.844 204.567 262.85 204.65C265.711 204.885 270.04 205.24 273 204.5C274.108 204.223 275.292 204.061 276.49 203.897C279.616 203.47 282.831 203.03 285 200.5C286.835 198.359 288.295 197.528 290.068 196.519C291.194 195.878 292.446 195.165 294 194C297.2 191.6 300.667 187.333 302 185.5L304 188L306 186L307.5 187L306 189.5L309.5 196V202.5L312.5 211.5C312 211.666 310.7 212.2 309.5 213C308.3 213.8 308.333 216 308.5 217C309.5 217.333 312.5 218.3 316.5 219.5C318.126 219.988 319.488 220.475 320.706 220.912C323.232 221.817 325.138 222.5 327.5 222.5C331 222.5 332.5 222.5 333.5 226C334.3 228.8 333.167 230.166 332.5 230.5C332.976 232.879 333.905 233.9 338.303 238.734L339 239.5C343.15 244.065 345.234 245.185 347.824 246.578C348.354 246.863 348.905 247.16 349.5 247.5C352.3 249.1 353.333 252.166 353.5 253.5L361.5 262L342 287C345 289.166 353.5 295.1 363.5 301.5C370.883 306.225 374.777 307.112 377.656 307.769C379.651 308.223 381.158 308.567 383 310C386.6 312.8 397.5 320.833 402.5 324.5L400 326L392 319H390C388.667 317.5 385.3 314.1 382.5 312.5C379.7 310.9 373 309.166 370 308.5C357.5 300 332 282.7 330 281.5C328 280.3 325.5 280 324.5 280L315 281.5L310 275H308.5V273.5C308.333 273 307.5 272.1 305.5 272.5C303.702 272.859 302.421 274.771 301.472 276.188C301.101 276.741 300.781 277.219 300.5 277.5C299.5 278.5 295.5 278 288.5 276C281.5 274 275.5 273.5 273.5 274C271.5 274.5 265.5 275 259.5 274.5C254.7 274.1 249.833 274.666 248 275L243 265.5H244C244.167 265.166 244.3 264.2 243.5 263C242.7 261.8 241.833 261.166 241.5 261C240.833 261 239.4 261.4 239 263C238.6 264.6 239.167 265.666 239.5 266H241.5L246 276C245.833 276.166 245.1 276.8 243.5 278C242.468 278.774 241.969 280.346 241.521 281.756C241.101 283.078 240.726 284.258 240 284.5C238.5 285 233 288 231 290C229 292 227 292.5 224.5 293C223.57 293.186 222.848 293.51 222.333 293.741C221.464 294.131 221.186 294.256 221.5 293C221.9 291.4 221 290.666 220.5 290.5C220.333 289.666 219.8 288 219 288C218.586 288 218.172 288.171 217.686 288.372C217 288.657 216.172 289 215 289C214 289 213.25 288.75 212.125 288.375C211 288 209.5 287.5 207 287C203 286.2 200 286 199 286C199 285.166 198.9 283.1 198.5 281.5C198.254 280.515 197.523 279.652 196.845 278.85C196.145 278.023 195.5 277.261 195.5 276.5C195.5 275.3 198.167 273 199.5 272V271L196.5 267L195.5 266.5C195.833 265.166 196.5 262.2 196.5 261C196.5 259.8 198.167 259.5 199 259.5L202.5 257.5V256.5C201.5 255.833 199.1 254.7 197.5 255.5C196.091 256.204 195.178 255.668 194.237 255.114C193.842 254.882 193.443 254.647 193 254.5C191.5 254 191.5 253 191.5 252C191.5 251 191.5 249.5 190.5 248.5C189.908 247.907 189.842 246.613 189.782 245.448C189.741 244.647 189.704 243.907 189.5 243.5C189.206 242.911 188.045 241.976 186.834 241C185.988 240.318 185.117 239.617 184.5 239C183.3 237.8 180.667 237.5 179.5 237.5C178.667 237.5 177 237.9 177 239.5C177 241.1 178 241.833 178.5 242H180.5C180.667 243 181.5 245.5 183.5 247.5C185.31 249.309 185.023 250.595 184.727 251.925C184.614 252.433 184.5 252.947 184.5 253.5C184.5 255.1 185.167 256.166 185.5 256.5C185.167 257.666 184.2 260.4 183 262C182.809 262.254 182.627 262.508 182.447 262.758C181.214 264.475 180.119 266 177.5 266H170.5C169.833 266.166 168.3 266.8 167.5 268C166.7 269.2 167.833 270.5 168.5 271C169.333 271.166 171.4 271.5 173 271.5C175 271.5 176 272.5 176 273.5V277L178.5 277.5V289.5C178.833 289.833 179.9 290.7 181.5 291.5C183.1 292.3 184.833 294.166 185.5 295L186 297.5C189.5 300 193.5 304.5 192.5 308.5C191.5 312.5 184 319 181 320C178.6 320.8 174 318 172 316.5L167.5 309.5L165.5 310.5L167 312.5L164 315H160L159 317.5L165.5 322H169.5L168 329.5H171V333C169.333 335.333 165.6 340.5 164 342.5C162.4 344.5 158 344.666 156 344.5L145.5 348.5L144.5 347L141.5 348C136.5 349.5 135 348 132 344.5C129.613 341.715 129.758 340.513 130.169 337.115C130.275 336.243 130.398 335.226 130.5 334C130.9 329.2 131.333 321.333 131.5 318L130 316L130.5 313.5L133.5 312.5V311H131L131.5 306.5H133.5V304H132V296.5L127 291H118V293.5H119.5L120 293H125.5L129 297L129.5 305H126V306.5H129V308.5L128.5 309.5C128.333 310.833 128 313.6 128 314C128 314.5 126.5 315 124.5 315C122.5 315 121.5 313.5 119.5 310.5C117.9 308.1 117.833 306.833 118 306.5H121V305H118.5C118.049 305 117.675 305.025 117.348 305.047C116.224 305.123 115.662 305.162 114.5 304C113.3 302.8 111.333 303.166 110.5 303.5C110.333 303.833 109.7 304.7 108.5 305.5C108.452 305.532 108.405 305.563 108.358 305.594C108.317 305.621 108.276 305.648 108.235 305.675C106.883 306.567 106 307.15 106 309.5C106 311.375 106.844 314.093 107.688 316.812C107.969 317.718 108.25 318.625 108.5 319.5C109.5 323 109.5 324 107 326C106.405 326.475 105.867 327.036 105.326 327.6C103.589 329.41 101.811 331.262 98 330.5C93.9343 329.687 93.8358 328.873 93.6721 327.523C93.6345 327.212 93.5934 326.873 93.5 326.5C93.3333 325.833 93.3333 325.222 93.3333 324.666C93.3333 323.555 93.3333 322.666 92 322C90 321 86 317.5 84 315.5C82 313.5 81.5 309.5 82.5 308C83.0329 307.2 84.4176 306.543 85.8219 305.876C87.0531 305.292 88.2993 304.7 89 304C90.1869 302.813 90.1216 301.313 90.0426 299.5C90.0218 299.022 90 298.521 90 298C90 295.5 90 294 92.5 292C95 290 95.5 286.5 95.5 285C95.5 283.8 95.1667 281.833 95 281C94 280.833 91.9 280.8 91.5 282C91 283.5 89.5 284.5 83.5 283C77.5 281.5 74.5 277.5 72.5 274.5C70.9 272.1 71.5 268.833 72 267.5L69.5 267C69.3333 267.666 68.7 269.1 67.4998 269.5C65.9996 270 64 270.5 62.5 269C61 267.5 60.5 267.5 58 270.5C56 272.9 53.8333 273.166 53 273C52 273 50 273.6 50 276C50 279 49.9998 280 48.9998 282.5C48.219 284.452 49.2671 284.575 50.954 284.773C51.4277 284.829 51.9517 284.89 52.4998 285C54.7148 285.443 55.3598 287.456 56.1736 289.995C56.2783 290.322 56.3858 290.658 56.4998 291C57.4998 294 59.4998 293.5 59.4998 292C59.4998 290.5 60.9998 289.5 62.9998 288.5C63.2581 288.371 63.5081 288.241 63.7498 288.116C65.379 287.275 66.629 286.629 67.4998 287.5C68.2998 288.3 70.1665 288.833 70.9998 289C70.9998 289.5 70.7998 291.2 69.9998 294C69.2882 296.49 70.0957 297.209 71.3414 298.317C71.8462 298.766 72.423 299.279 72.9998 300C74.1306 301.413 75.4212 301.388 76.3295 301.37C77.0276 301.357 77.4998 301.348 77.4998 302C77.4998 302.75 77.8748 303.25 78.2498 303.75C78.6248 304.25 78.9998 304.75 78.9998 305.5C78.9998 306.196 78.6767 306.569 78.3304 306.969C77.9306 307.43 77.4998 307.928 77.4998 309C77.4998 311 76.9998 313.5 75.4998 316C75.213 316.478 74.9444 316.883 74.7081 317.239C73.7088 318.746 73.2867 319.382 74.4998 321C74.9449 321.593 75.3899 322.054 75.7958 322.475C76.7578 323.472 77.4998 324.242 77.4998 326C77.4998 328 78.8331 328.5 79.4998 328.5C82.1665 328.333 87.8998 328.1 89.4998 328.5C91.1587 328.914 91.0976 330.705 91.0285 332.731C91.0143 333.147 90.9998 333.573 90.9998 334C90.9998 335.25 90.7498 335.875 90.4998 336.5C90.2498 337.125 89.9998 337.75 89.9998 339C89.9998 341.5 90.4998 342 92.4998 342.5C92.831 342.582 93.1211 342.638 93.3746 342.686C94.6517 342.93 94.9998 342.996 94.9998 345.5C94.9998 347.58 94.0383 349.42 93.1152 351.186C92.7071 351.967 92.3064 352.733 91.9998 353.5C91.0533 355.866 90.1069 355.545 88.7365 355.079C88.659 355.053 88.5801 355.026 88.4998 355C88.3178 354.939 88.1285 354.871 87.9336 354.801C86.5219 354.294 84.8178 353.682 83.4998 355C81.9998 356.5 79.9998 358.5 77.4998 360C74.9998 361.5 73.9998 360 73.4998 358.5C72.9998 357 71.4998 356.5 69.9998 357.5C68.7998 358.3 67.8331 359.833 67.4998 360.5C66.4998 361 64.1998 362 62.9998 362C61.779 362 61.2206 360.675 60.7855 359.643C60.686 359.407 60.5928 359.186 60.4998 359C60.0998 358.2 58.3331 358.666 57.4998 359L54.4998 361C54.6665 361.5 55.2998 362.9 56.4998 364.5C57.6998 366.1 59.6665 366.833 60.4998 367L62.9998 367.5L60.9998 375.5H62.9998L64.4998 370.5H66.4998C66.4998 369.666 66.8998 368 68.4998 368C70.0998 368 71.1665 369 71.4998 369.5V371L72.4998 371.5V375L73.4998 376.5H74.9998V371.5C74.9998 369.5 75.6665 368.666 75.9998 368.5C77.5934 367.543 78.7807 367.806 80.2093 368.123C81.0217 368.303 81.9122 368.5 82.9998 368.5C85.3998 368.5 86.9998 370.5 87.4998 371.5H91.4998C92.2998 373.1 94.1665 373.833 94.9998 374V378.5H96.9998V375L102 372.5H109V377H106L95.4998 380.5V382.5H95.9998L100.5 381L105 380V381H109C108.5 382 107.8 384.9 109 388.5C110.2 392.1 110.833 396 111 397.5H106.5L105 407.5C103 410.7 101.833 414.166 101.5 415.5L99.4998 418C95.0998 422.8 88.9997 420 86.4997 418C84.9997 418.166 82.0997 419.1 82.4997 421.5C82.8636 423.683 84.0219 423.483 85.5893 423.212C86.1756 423.111 86.8191 423 87.4997 423C88.7874 423 91.4018 424.194 94.3861 425.557C97.1955 426.84 100.333 428.272 103 429C107.4 430.2 117.5 430.833 122 431C126 435.5 130.5 436 136.5 436.5C142.002 436.958 145.822 433.633 149.117 430.764C149.415 430.504 149.709 430.249 150 430C152.8 427.6 155.833 426.666 157 426.5C160.5 429 168.8 435.7 174 442.5C178.114 447.881 178.422 450.456 178.728 453.017C178.906 454.502 179.082 455.981 180 458C182.5 463.5 189 465 193.5 462C197.413 459.391 201.327 459.429 206.885 459.483C207.718 459.491 208.588 459.5 209.5 459.5C214.282 459.5 214.63 460.2 215.168 461.281C215.417 461.783 215.708 462.366 216.5 463C218.031 464.225 218.437 463.574 218.866 462.886C219.137 462.45 219.418 462 220 462C220.296 462 220.73 462.039 221.254 462.086C223.38 462.278 226.994 462.604 229 461C230.457 459.833 231.745 459.857 233.061 459.882C234.002 459.899 234.957 459.917 236 459.5C238 458.7 242.166 455.166 244 453.5L253.5 463C254 463.333 255.1 465 255.5 469C256 474 257.5 474 261.5 474C264.7 474 268.5 473.333 270 473L272.5 479L280 480.5L288 485H292L296.5 490L293.5 492.5L295 497H298.5L301.5 502.5H306L309.5 498.5C309.1 500.5 311 504.333 312 506C315.333 506.166 323.3 506.8 328.5 508C335 509.5 336 510.5 338 518C339.6 524 343.333 527.5 345 528.5C345.35 531.298 343.251 535.321 340.247 541.082L340.246 541.084C338.957 543.556 337.501 546.347 336 549.5C331 560 328 574.5 326.5 585C325 595.5 323.5 601 322 605C320.8 608.2 323.5 612.666 325 614.5C325 618.166 324.2 626.7 321 631.5C318.265 635.602 316.698 635.731 314.862 635.881C314.013 635.951 313.106 636.025 312 636.5C310.237 637.255 308.982 638.391 307.659 639.588C306.355 640.768 304.985 642.007 303 643C299.8 644.6 298.666 648.666 298.5 650.5C295.7 653.7 295.666 657.166 296 658.5L293.5 664C294.333 670.333 295.8 684 295 688C294.263 691.682 294.883 694.008 295.46 696.177C295.667 696.953 295.868 697.709 296 698.5C296.4 700.9 293.833 704.833 292.5 706.5L299.5 719.5H303L307 717L319 716C319.833 717 321.9 718.6 323.5 717C325.1 715.4 328.166 714.666 329.5 714.5C331.833 714.833 338.2 715.8 345 717C353.5 718.5 372.5 719 378.5 719C381.715 719 383.495 719.574 385.146 720.107C386.577 720.569 387.911 721 390 721C393.6 721 397.5 720 399 719.5C404.2 720.3 413.833 720.833 418 721C417.5 718.5 421 715 427 710.5L439 701.5H443.5L459 696.5L466.5 698.5L471.5 695.5C471.9 698.7 476.667 700.833 479 701.5C487.167 702 504.6 703 509 703C513.4 703 519.167 704.666 521.5 705.5C521.833 705 522.3 703.5 521.5 701.5C520.7 699.5 521.167 695.333 521.5 693.5L525.5 690.5L539 695.5L542 694.5C542.167 695.333 542.6 698.4 543 704C543.4 709.6 546.5 714.333 548 716L562.5 726.5L566 727.5L567.5 729L569.5 727.5L573 731L574.5 734.5L584 741.5H588.5L591 744L596.5 739.5L620 741.5L638 729V722.5L645.5 717.5C645.5 716.166 645.2 712.9 644 710.5C642.8 708.1 644.5 705.166 645.5 704V698L649 697L652 692.5L667.5 686.5L659.5 669V666H675.5V667.5H679.5V663.5H661V659L659.5 656.5V649.5L663 646L657 631.5L653.5 629L641 606L635 589H639L638.5 587H634.5L629 571L631 558.5L629 555V552.5H625.5L626.5 549.5V544H631C639.5 535.166 656.7 517 657.5 515C658.3 513 657.167 505.166 656.5 501.5L621.5 494.5C617.333 490.833 608.6 483.2 607 482C606.357 481.518 605.817 481.345 605.365 481.201C604.409 480.896 603.839 480.714 603.5 478C603.122 474.976 598.745 467.668 596.198 463.416L596.198 463.415C595.375 462.042 594.744 460.988 594.5 460.5C593.7 458.9 589.5 456.5 587.5 455.5H582.5C580.308 455.5 579.269 453.194 578.71 451.951C578.631 451.777 578.562 451.623 578.5 451.5C578.1 450.7 580.333 448.5 581.5 447.5L580.5 446.5C580.167 446.333 579.2 446.5 578 448.5C576.8 450.5 575.167 450.333 574.5 450C571.5 448.5 563 447.5 560 447.5C557.381 447.5 556.667 445.594 555.863 443.447C555.786 443.242 555.708 443.035 555.628 442.826C555.586 442.718 555.543 442.609 555.5 442.5C554.672 440.431 554.53 440.416 552.237 440.19C551.76 440.142 551.189 440.086 550.5 440C547.3 439.6 544.833 438.166 544 437.5C544 434.881 545.524 432.643 547.242 430.121C547.492 429.754 547.746 429.381 548 429C548.729 427.906 549.459 426.612 550.164 425.362C551.392 423.183 552.547 421.135 553.5 420.5C554.337 419.942 554.862 421.096 555.337 422.138C555.713 422.965 556.058 423.721 556.5 423.5C557.3 423.1 557.5 420.666 557.5 419.5L560 420.5C559.833 419.666 559.4 417.8 559 417C558.875 416.75 558.562 416.437 558.203 416.078C557.125 415 555.625 413.5 557.5 412C559.5 410.4 560.667 406.666 561 405C561 403.543 561 402.616 561.145 401.713C561.398 400.137 562.093 398.632 564 394.5C566.4 389.3 567.333 379.666 567.5 375.5C569.1 374.3 571.833 370.333 573 368.5L571 360.5L568.5 355.5L570 345C571 344.5 573.6 342.6 576 339C577.855 336.217 579.328 335.728 580.3 335.406C580.9 335.208 581.309 335.072 581.5 334.5C581.522 334.433 581.547 334.358 581.576 334.275C582.175 332.499 584.022 327.031 584.5 317C585 306.5 586 297.5 587.5 297C588.314 296.728 589.716 296.899 591.467 297.111C592.944 297.29 594.67 297.5 596.5 297.5C599.7 297.5 601.833 298.833 602.5 299.5H617C619.918 299.5 620.175 299.234 620.877 298.507C621.137 298.238 621.459 297.905 622 297.5C623.185 296.611 624.019 295.195 624.918 293.669C625.536 292.62 626.185 291.518 627 290.5C628.591 288.51 627.65 286.521 626.947 285.036C626.767 284.654 626.602 284.306 626.5 284C626.203 283.109 627.141 281.865 628.266 280.373C629.035 279.353 629.891 278.218 630.5 277C632 274 632.5 265 631.5 262C631.372 261.615 631.236 261.239 631.103 260.873C630.198 258.376 629.448 256.308 632.5 255C635.3 253.8 637.333 251.5 638 250.5C640.333 246 645.8 235.6 649 230C651.39 225.816 653.424 224.133 654.886 222.922C655.871 222.107 656.597 221.506 657 220.5C657.643 218.891 657.252 216.04 656.891 213.412C656.69 211.956 656.5 210.569 656.5 209.5C656.5 206.5 658 204 659.5 202C659.761 201.651 660.098 201.166 660.495 200.595L660.497 200.594C662.379 197.885 665.61 193.238 668.5 192C672 190.5 672 186.5 671.5 184.5C671.27 183.579 670.51 182.977 669.66 182.302C668.662 181.51 667.54 180.619 667 179C666.2 176.6 664 173.333 663 172L659.5 170L658 166.5C656.5 164.666 653 160.7 651 159.5C649 158.3 645.833 158.333 644.5 158.5C641.833 157.666 635.7 155.7 632.5 154.5C630.275 153.665 628.669 151.903 627.08 150.16C625.811 148.768 624.553 147.387 623 146.5C621.162 145.449 620.289 143.158 619.44 140.929C618.672 138.913 617.924 136.949 616.5 136C614.89 134.927 612.705 134.861 610.639 134.799C608.854 134.746 607.159 134.695 606 134C604.953 133.371 604.169 132.392 603.427 131.466C602.399 130.182 601.453 129 600 129C598.26 129 597.247 127.789 594.938 125.031C593.929 123.826 592.673 122.325 591 120.5C585.5 114.5 580 109 575 109C572.003 109 569.724 109.898 567.625 110.726C566.223 111.278 564.902 111.799 563.5 112Z" fill="#1A203A"/>
<path d="M43 347.5C42.25 347.75 41.875 348.625 41.5 349.5C41.125 350.375 40.75 351.25 40 351.5C38.5 351.5 37 350 36 349C35 348 35 347 35 345C35 343 35.5 342 36.5 341C37.5 340 38.5 340 39.5 341C40.5 342 41 342.5 42.4999 342.5C43.9998 342.5 44.5 342.5 45.5 344C46.5 345.5 44.5 347 43 347.5Z" fill="#1A203A"/>
<path d="M50.4999 361C50.9999 360.5 49.9999 359.5 48.9999 358.5C48.2954 357.721 47.1085 357.211 46.0604 356.762C45.0909 356.346 44.2403 355.98 44 355.5C43.5 354.5 42.4999 354 41 354C39.8001 354 38.5 355.667 37.9999 356.5C37.6665 357 37.0999 358.1 37.4999 358.5C37.9999 359 40.4999 360.5 42.4999 361C44.4999 361.5 49.9999 361.5 50.4999 361Z" fill="#1A203A"/>
<path d="M80 227.499C81.5 226.499 81.5 224.999 81 223.499C80.6404 222.42 79.7635 221.859 79.1134 221.443C78.8596 221.28 78.6404 221.14 78.5 220.999C78.3294 220.829 78.217 220.716 78.1429 220.583C78 220.325 78 219.987 78 218.999C78 217.777 77.3975 218.214 76.7437 218.689C76.5951 218.797 76.4435 218.907 76.2961 218.999C75.5 219.499 74.7039 222.5 75.5 224C75.5804 224.151 75.6598 224.303 75.7387 224.453C76.4412 225.793 77.1009 227.05 78 227.5C79 228 79.4068 227.999 80 227.499Z" fill="#1A203A"/>
<path d="M28.2907 251.874C28.8468 251.934 29.4564 252 30.0002 252C32.0004 252.157 33 251.499 33 250.499C33 249.499 32.5 249 31 248.5C29.7948 248.099 28.2668 248.988 27.1941 249.612L27.1932 249.613L27.192 249.614C26.9305 249.766 26.6962 249.902 26.5002 250C25.5002 250.5 24.5002 251.5 25.0002 252.5C25.5002 253.5 26.5002 252.5 26.5002 252C26.5002 251.681 27.3129 251.769 28.2907 251.874Z" fill="#1A203A"/>
<path d="M52.4999 254C50.9999 255 49.9999 255.5 48.4999 255C46.9999 254.5 46.9999 253.5 47.4999 253C47.9999 252.5 50.9996 252 52.4999 252.5C54.0002 253 53.9996 253.125 52.4999 254Z" fill="#1A203A"/>
<path d="M59.5001 301.5C59.5001 302.5 59.5001 303.5 58.0001 304.5C57.8267 304.616 57.6601 304.724 57.5001 304.829C56.2756 305.629 55.4423 306.173 55.0001 307.5C54.5001 309 54.0001 309 53.0001 308.5C52.0001 308 51.0001 307 51.5001 305C52.0001 303 53.4999 300 54.4999 299.5C55.4999 299 57.0003 298.5 58.0001 299C58.7999 299.4 59.3334 300.833 59.5001 301.5Z" fill="#1A203A"/>
<path d="M563.5 112C560.7 112.4 556.667 111.166 555 110.5C554.5 110.833 553.1 111.6 551.5 112C550.155 112.336 549.037 111.994 547.688 111.582C547.031 111.381 546.319 111.164 545.5 111C543.733 110.647 543.215 111.292 542.887 111.701C542.75 111.871 542.647 112 542.5 112H533.5C531.5 112 529.5 114 526.5 117.5C524.1 120.3 520.5 120.666 519 120.5C515.167 122.333 506.7 126.3 503.5 127.5C502.08 128.032 500.472 128.313 498.897 128.587C496.037 129.086 493.29 129.565 492 131.5C490.233 134.15 488.076 134.849 484.496 136.01C484.023 136.164 483.525 136.325 483 136.5C478.5 138 476.5 139.5 474.5 142.5C472.883 144.926 470.612 145.717 468.48 146.46C467.975 146.636 467.478 146.809 467 147C465.668 147.533 464.904 148.916 464.254 150.093C463.684 151.126 463.201 152 462.5 152C461 152 460 150 459 148C458.2 146.4 456.333 144.667 455.5 144C455.167 142.5 454.3 139.1 453.5 137.5C452.5 135.5 449 131 446 127.5C444.222 125.425 443.849 123.878 443.528 122.545C443.307 121.629 443.111 120.815 442.5 120C441.3 118.4 439 118.333 438 118.5L430 109.5L430.5 107.5L424 99L419 98.5C417.021 97.758 413.697 97.6277 410.539 97.5039C407.314 97.3774 404.263 97.2578 403 96.5C400.5 95.0003 395 94 391.5 94.9997C388.686 95.8034 382.317 95.6382 378.629 95.5425C377.73 95.5192 376.99 95.5 376.5 95.5C375.402 95.5 374.401 95.9821 373.453 96.4382C372.243 97.0207 371.122 97.5606 370 97L369.999 96.9993C367.998 95.9994 364 94.0007 362 97C360.409 99.3868 358.501 99.558 356.025 99.7802C355.389 99.8373 354.715 99.8977 354 100C352.756 100.178 351.258 100.672 349.621 101.212C346.652 102.191 343.222 103.322 340 103C335.753 102.575 335.113 101.069 334.404 99.3989C334.279 99.1028 334.151 98.8012 334 98.5C333.405 97.3102 334.226 97.1821 334.988 97.0631C335.508 96.982 336 96.9051 336 96.5C336 96.1193 335.565 95.8109 334.999 95.4095C334.078 94.7567 332.81 93.8576 332.5 92C332 89.0003 330.5 87 328 86.5C326.309 86.1618 325.533 85.1374 324.589 83.8912C324.138 83.2948 323.647 82.6476 323 82.0006C321 80.0016 320 81.5006 320.5 83.9997C320.898 85.9874 320.346 87.0273 319.098 89.3828C318.777 89.9888 318.409 90.6819 318 91.5006C316.465 94.5714 315.225 94.6957 314.053 94.8131C313.698 94.8487 313.349 94.8837 313 94.9997C311.8 95.3989 311.833 97.166 312 97.9997C311.833 97.8333 310.9 97.0004 308.5 94.9997C306.591 93.4082 304.884 92.8302 303.123 92.2336C302.116 91.8926 301.091 91.5455 300 90.9997C297.6 89.7989 297.333 87.166 297.5 85.9997H294C293.126 85.9997 292.313 85.7552 291.54 85.5227C290.101 85.0901 288.801 84.6989 287.5 85.9997C285.938 87.5612 284.987 86.6843 283.454 85.2729C283.024 84.8766 282.548 84.4381 282 83.9997C279.613 82.0904 278.594 83.3708 276.766 85.6659L276.761 85.6723C276.676 85.7793 276.589 85.8885 276.5 85.9997C274.9 87.9997 273.833 87.833 273.5 87.4997C273.333 88.1663 273 89.7997 273 90.9997C273 91.8254 271.939 92.9543 270.986 93.9691C270.207 94.7976 269.5 95.5502 269.5 95.9997C269.5 96.9997 270.5 98.4997 272.5 97.9997C274.1 97.5997 276.5 95.833 277.5 94.9997C277.833 95.4997 279 97.0997 281 99.4997C281.882 100.558 282.577 101.056 283.196 101.5C284.33 102.313 285.206 102.94 286.5 106.5C288.1 110.9 288.167 117 288 119.5H289C289.167 120 289.3 121.3 288.5 122.5C287.5 124 285 125.5 284 125C283.768 124.884 283.429 124.687 283.025 124.453C281.689 123.68 279.652 122.5 278.5 122.5C277.3 122.5 274.333 124.5 273 125.5V129C272.333 129.333 270.7 130.2 269.5 131C268 132 267 132.5 267 130.5C267 128.5 266.5 127.5 264.5 127.5C262.9 127.5 262.833 128.5 263 129C264.2 129.4 264.5 131.833 264.5 133C264.167 132.833 263.4 133 263 135C262.5 137.5 260.5 139 259 138.5C257.5 138 256 138.5 255 141C254 143.5 250 147 248 148.5C246 150 244.5 153 246 153C247.242 153 247.456 153.342 248.06 154.312C248.185 154.513 248.328 154.742 248.5 155C249.5 156.5 249 157.5 248 158.5C247 159.5 246 161.5 246 163.5C246 165.5 247.5 167 248 165.5C248.228 164.817 248.766 164.445 249.332 164.054C250.01 163.585 250.728 163.089 251 162C251.5 160 251 157.5 250 156C249 154.5 248.5 152.5 252 151C254.079 150.109 254.923 148.865 255.58 147.898C256.029 147.236 256.391 146.703 257 146.5C258.112 146.129 258.674 146.582 259.501 147.249C259.79 147.482 260.112 147.741 260.5 148C262 149 264 150 265.5 148.5C266.956 147.044 267.47 147.472 270.243 149.785L270.5 150C272.704 151.837 272.749 153.134 272.816 155.081C272.84 155.784 272.867 156.572 273 157.5C273.4 160.3 274.5 162 275 162.5L274 165.5L275.5 166C276 164.666 277.1 161.9 277.5 161.5C277.9 161.1 280 161.666 281 162V164.5H282.5V162H288L290.5 165.5L292.5 164L296.5 168.5L294.5 170C295 170.666 296.5 172.4 298.5 174C300.5 175.6 301 176.333 301 176.5C300.6 177.7 295.167 181 292.5 182.5C288.167 185 278.8 190 276 190C273.2 190 270.167 192.333 269 193.5L267.5 191.5C266.333 192 263.3 193.4 260.5 195C257 197 255 198.5 256 200.5C257 202.5 258.5 204.5 260.5 204.5C261.02 204.5 261.844 204.567 262.85 204.65C265.711 204.885 270.04 205.24 273 204.5C274.108 204.223 275.292 204.061 276.49 203.897C279.616 203.47 282.831 203.03 285 200.5C286.835 198.359 288.295 197.528 290.068 196.519C291.194 195.878 292.446 195.165 294 194C297.2 191.6 300.667 187.333 302 185.5L304 188L306 186L307.5 187L306 189.5L309.5 196V202.5L312.5 211.5C312 211.666 310.7 212.2 309.5 213C308.3 213.8 308.333 216 308.5 217C309.5 217.333 312.5 218.3 316.5 219.5C318.126 219.988 319.488 220.475 320.706 220.912C323.232 221.817 325.138 222.5 327.5 222.5C331 222.5 332.5 222.5 333.5 226C334.3 228.8 333.167 230.166 332.5 230.5C332.976 232.879 333.905 233.9 338.303 238.734L339 239.5C343.15 244.065 345.234 245.185 347.824 246.578C348.354 246.863 348.905 247.16 349.5 247.5C352.3 249.1 353.333 252.166 353.5 253.5L361.5 262L342 287C345 289.166 353.5 295.1 363.5 301.5C370.883 306.225 374.777 307.112 377.656 307.769C379.651 308.223 381.158 308.567 383 310C386.6 312.8 397.5 320.833 402.5 324.5L400 326L392 319H390C388.667 317.5 385.3 314.1 382.5 312.5C379.7 310.9 373 309.166 370 308.5C357.5 300 332 282.7 330 281.5C328 280.3 325.5 280 324.5 280L315 281.5L310 275H308.5V273.5C308.333 273 307.5 272.1 305.5 272.5C303.702 272.859 302.421 274.771 301.472 276.188C301.101 276.741 300.781 277.219 300.5 277.5C299.5 278.5 295.5 278 288.5 276C281.5 274 275.5 273.5 273.5 274C271.5 274.5 265.5 275 259.5 274.5C254.7 274.1 249.833 274.666 248 275L243 265.5H244C244.167 265.166 244.3 264.2 243.5 263C242.7 261.8 241.833 261.166 241.5 261C240.833 261 239.4 261.4 239 263C238.6 264.6 239.167 265.666 239.5 266H241.5L246 276C245.833 276.166 245.1 276.8 243.5 278C242.468 278.774 241.969 280.346 241.521 281.756C241.101 283.078 240.726 284.258 240 284.5C238.5 285 233 288 231 290C229 292 227 292.5 224.5 293C223.57 293.186 222.848 293.51 222.333 293.741C221.464 294.131 221.186 294.256 221.5 293C221.9 291.4 221 290.666 220.5 290.5C220.333 289.666 219.8 288 219 288C218.586 288 218.172 288.171 217.686 288.372C217 288.657 216.172 289 215 289C214 289 213.25 288.75 212.125 288.375C211 288 209.5 287.5 207 287C203 286.2 200 286 199 286C199 285.166 198.9 283.1 198.5 281.5C198.254 280.515 197.523 279.652 196.845 278.85C196.145 278.023 195.5 277.261 195.5 276.5C195.5 275.3 198.167 273 199.5 272V271L196.5 267L195.5 266.5C195.833 265.166 196.5 262.2 196.5 261C196.5 259.8 198.167 259.5 199 259.5L202.5 257.5V256.5C201.5 255.833 199.1 254.7 197.5 255.5C196.091 256.204 195.178 255.668 194.237 255.114C193.842 254.882 193.443 254.647 193 254.5C191.5 254 191.5 253 191.5 252C191.5 251 191.5 249.5 190.5 248.5C189.908 247.907 189.842 246.613 189.782 245.448C189.741 244.647 189.704 243.907 189.5 243.5C189.206 242.911 188.045 241.976 186.834 241C185.988 240.318 185.117 239.617 184.5 239C183.3 237.8 180.667 237.5 179.5 237.5C178.667 237.5 177 237.9 177 239.5C177 241.1 178 241.833 178.5 242H180.5C180.667 243 181.5 245.5 183.5 247.5C185.31 249.309 185.023 250.595 184.727 251.925C184.614 252.433 184.5 252.947 184.5 253.5C184.5 255.1 185.167 256.166 185.5 256.5C185.167 257.666 184.2 260.4 183 262C182.809 262.254 182.627 262.508 182.447 262.758C181.214 264.475 180.119 266 177.5 266H170.5C169.833 266.166 168.3 266.8 167.5 268C166.7 269.2 167.833 270.5 168.5 271C169.333 271.166 171.4 271.5 173 271.5C175 271.5 176 272.5 176 273.5V277L178.5 277.5V289.5C178.833 289.833 179.9 290.7 181.5 291.5C183.1 292.3 184.833 294.166 185.5 295L186 297.5C189.5 300 193.5 304.5 192.5 308.5C191.5 312.5 184 319 181 320C178.6 320.8 174 318 172 316.5L167.5 309.5L165.5 310.5L167 312.5L164 315H160L159 317.5L165.5 322H169.5L168 329.5H171V333C169.333 335.333 165.6 340.5 164 342.5C162.4 344.5 158 344.666 156 344.5L145.5 348.5L144.5 347L141.5 348C136.5 349.5 135 348 132 344.5C129.613 341.715 129.758 340.513 130.169 337.115C130.275 336.243 130.398 335.226 130.5 334C130.9 329.2 131.333 321.333 131.5 318L130 316L130.5 313.5L133.5 312.5V311H131L131.5 306.5H133.5V304H132V296.5L127 291H118V293.5H119.5L120 293H125.5L129 297L129.5 305H126V306.5H129V308.5L128.5 309.5C128.333 310.833 128 313.6 128 314C128 314.5 126.5 315 124.5 315C122.5 315 121.5 313.5 119.5 310.5C117.9 308.1 117.833 306.833 118 306.5H121V305H118.5C118.049 305 117.675 305.025 117.348 305.047C116.224 305.123 115.662 305.162 114.5 304C113.3 302.8 111.333 303.166 110.5 303.5C110.333 303.833 109.7 304.7 108.5 305.5C108.452 305.532 108.405 305.563 108.358 305.594C108.317 305.621 108.276 305.648 108.235 305.675C106.883 306.567 106 307.15 106 309.5C106 311.375 106.844 314.093 107.688 316.812C107.969 317.718 108.25 318.625 108.5 319.5C109.5 323 109.5 324 107 326C106.405 326.475 105.867 327.036 105.326 327.6C103.589 329.41 101.811 331.262 98 330.5C93.9343 329.687 93.8358 328.873 93.6721 327.523C93.6345 327.212 93.5934 326.873 93.5 326.5C93.3333 325.833 93.3333 325.222 93.3333 324.666C93.3333 323.555 93.3333 322.666 92 322C90 321 86 317.5 84 315.5C82 313.5 81.5 309.5 82.5 308C83.0329 307.2 84.4176 306.543 85.8219 305.876C87.0531 305.292 88.2993 304.7 89 304C90.1869 302.813 90.1216 301.313 90.0426 299.5C90.0218 299.022 90 298.521 90 298C90 295.5 90 294 92.5 292C95 290 95.5 286.5 95.5 285C95.5 283.8 95.1667 281.833 95 281C94 280.833 91.9 280.8 91.5 282C91 283.5 89.5 284.5 83.5 283C77.5 281.5 74.5 277.5 72.5 274.5C70.9 272.1 71.5 268.833 72 267.5L69.5 267C69.3333 267.666 68.7 269.1 67.4998 269.5C65.9996 270 64 270.5 62.5 269C61 267.5 60.5 267.5 58 270.5C56 272.9 53.8333 273.166 53 273C52 273 50 273.6 50 276C50 279 49.9998 280 48.9998 282.5C48.219 284.452 49.2671 284.575 50.954 284.773C51.4277 284.829 51.9517 284.89 52.4998 285C54.7148 285.443 55.3598 287.456 56.1736 289.995C56.2783 290.322 56.3858 290.658 56.4998 291C57.4998 294 59.4998 293.5 59.4998 292C59.4998 290.5 60.9998 289.5 62.9998 288.5C63.2581 288.371 63.5081 288.241 63.7498 288.116C65.379 287.275 66.629 286.629 67.4998 287.5C68.2998 288.3 70.1665 288.833 70.9998 289C70.9998 289.5 70.7998 291.2 69.9998 294C69.2882 296.49 70.0957 297.209 71.3414 298.317C71.8462 298.766 72.423 299.279 72.9998 300C74.1306 301.413 75.4212 301.388 76.3295 301.37C77.0276 301.357 77.4998 301.348 77.4998 302C77.4998 302.75 77.8748 303.25 78.2498 303.75C78.6248 304.25 78.9998 304.75 78.9998 305.5C78.9998 306.196 78.6767 306.569 78.3304 306.969C77.9306 307.43 77.4998 307.928 77.4998 309C77.4998 311 76.9998 313.5 75.4998 316C75.213 316.478 74.9444 316.883 74.7081 317.239C73.7088 318.746 73.2867 319.382 74.4998 321C74.9449 321.593 75.3899 322.054 75.7958 322.475C76.7578 323.472 77.4998 324.242 77.4998 326C77.4998 328 78.8331 328.5 79.4998 328.5C82.1665 328.333 87.8998 328.1 89.4998 328.5C91.1587 328.914 91.0976 330.705 91.0285 332.731C91.0143 333.147 90.9998 333.573 90.9998 334C90.9998 335.25 90.7498 335.875 90.4998 336.5C90.2498 337.125 89.9998 337.75 89.9998 339C89.9998 341.5 90.4998 342 92.4998 342.5C92.831 342.582 93.1211 342.638 93.3746 342.686C94.6517 342.93 94.9998 342.996 94.9998 345.5C94.9998 347.58 94.0383 349.42 93.1152 351.186C92.7071 351.967 92.3064 352.733 91.9998 353.5C91.0533 355.866 90.1069 355.545 88.7365 355.079C88.659 355.053 88.5801 355.026 88.4998 355C88.3178 354.939 88.1285 354.871 87.9336 354.801C86.5219 354.294 84.8178 353.682 83.4998 355C81.9998 356.5 79.9998 358.5 77.4998 360C74.9998 361.5 73.9998 360 73.4998 358.5C72.9998 357 71.4998 356.5 69.9998 357.5C68.7998 358.3 67.8331 359.833 67.4998 360.5C66.4998 361 64.1998 362 62.9998 362C61.779 362 61.2206 360.675 60.7855 359.643C60.686 359.407 60.5928 359.186 60.4998 359C60.0998 358.2 58.3331 358.666 57.4998 359L54.4998 361C54.6665 361.5 55.2998 362.9 56.4998 364.5C57.6998 366.1 59.6665 366.833 60.4998 367L62.9998 367.5L60.9998 375.5H62.9998L64.4998 370.5H66.4998C66.4998 369.666 66.8998 368 68.4998 368C70.0998 368 71.1665 369 71.4998 369.5V371L72.4998 371.5V375L73.4998 376.5H74.9998V371.5C74.9998 369.5 75.6665 368.666 75.9998 368.5C77.5934 367.543 78.7807 367.806 80.2093 368.123C81.0217 368.303 81.9122 368.5 82.9998 368.5C85.3998 368.5 86.9998 370.5 87.4998 371.5H91.4998C92.2998 373.1 94.1665 373.833 94.9998 374V378.5H96.9998V375L102 372.5H109V377H106L95.4998 380.5V382.5H95.9998L100.5 381L105 380V381H109C108.5 382 107.8 384.9 109 388.5C110.2 392.1 110.833 396 111 397.5H106.5L105 407.5C103 410.7 101.833 414.166 101.5 415.5L99.4998 418C95.0998 422.8 88.9997 420 86.4997 418C84.9997 418.166 82.0997 419.1 82.4997 421.5C82.8636 423.683 84.0219 423.483 85.5893 423.212C86.1756 423.111 86.8191 423 87.4997 423C88.7874 423 91.4018 424.194 94.3861 425.557C97.1955 426.84 100.333 428.272 103 429C107.4 430.2 117.5 430.833 122 431C126 435.5 130.5 436 136.5 436.5C142.002 436.958 145.822 433.633 149.117 430.764C149.415 430.504 149.709 430.249 150 430C152.8 427.6 155.833 426.666 157 426.5C160.5 429 168.8 435.7 174 442.5C178.114 447.881 178.422 450.456 178.728 453.017C178.906 454.502 179.082 455.981 180 458C182.5 463.5 189 465 193.5 462C197.413 459.391 201.327 459.429 206.885 459.483C207.718 459.491 208.588 459.5 209.5 459.5C214.282 459.5 214.63 460.2 215.168 461.281C215.417 461.783 215.708 462.366 216.5 463C218.031 464.225 218.437 463.574 218.866 462.886C219.137 462.45 219.418 462 220 462C220.296 462 220.73 462.039 221.254 462.086C223.38 462.278 226.994 462.604 229 461C230.457 459.833 231.745 459.857 233.061 459.882C234.002 459.899 234.957 459.917 236 459.5C238 458.7 242.166 455.166 244 453.5L253.5 463C254 463.333 255.1 465 255.5 469C256 474 257.5 474 261.5 474C264.7 474 268.5 473.333 270 473L272.5 479L280 480.5L288 485H292L296.5 490L293.5 492.5L295 497H298.5L301.5 502.5H306L309.5 498.5C309.1 500.5 311 504.333 312 506C315.333 506.166 323.3 506.8 328.5 508C335 509.5 336 510.5 338 518C339.6 524 343.333 527.5 345 528.5C345.35 531.298 343.251 535.321 340.247 541.082L340.246 541.084C338.957 543.556 337.501 546.347 336 549.5C331 560 328 574.5 326.5 585C325 595.5 323.5 601 322 605C320.8 608.2 323.5 612.666 325 614.5C325 618.166 324.2 626.7 321 631.5C318.265 635.602 316.698 635.731 314.862 635.881C314.013 635.951 313.106 636.025 312 636.5C310.237 637.255 308.982 638.391 307.659 639.588C306.355 640.768 304.985 642.007 303 643C299.8 644.6 298.666 648.666 298.5 650.5C295.7 653.7 295.666 657.166 296 658.5L293.5 664C294.333 670.333 295.8 684 295 688C294.263 691.682 294.883 694.008 295.46 696.177C295.667 696.953 295.868 697.709 296 698.5C296.4 700.9 293.833 704.833 292.5 706.5L299.5 719.5H303L307 717L319 716C319.833 717 321.9 718.6 323.5 717C325.1 715.4 328.166 714.666 329.5 714.5C331.833 714.833 338.2 715.8 345 717C353.5 718.5 372.5 719 378.5 719C381.715 719 383.495 719.574 385.146 720.107C386.577 720.569 387.911 721 390 721C393.6 721 397.5 720 399 719.5C404.2 720.3 413.833 720.833 418 721C417.5 718.5 421 715 427 710.5L439 701.5H443.5L459 696.5L466.5 698.5L471.5 695.5C471.9 698.7 476.667 700.833 479 701.5C487.167 702 504.6 703 509 703C513.4 703 519.167 704.666 521.5 705.5C521.833 705 522.3 703.5 521.5 701.5C520.7 699.5 521.167 695.333 521.5 693.5L525.5 690.5L539 695.5L542 694.5C542.167 695.333 542.6 698.4 543 704C543.4 709.6 546.5 714.333 548 716L562.5 726.5L566 727.5L567.5 729L569.5 727.5L573 731L574.5 734.5L584 741.5H588.5L591 744L596.5 739.5L620 741.5L638 729V722.5L645.5 717.5C645.5 716.166 645.2 712.9 644 710.5C642.8 708.1 644.5 705.166 645.5 704V698L649 697L652 692.5L667.5 686.5L659.5 669V666H675.5V667.5H679.5V663.5H661V659L659.5 656.5V649.5L663 646L657 631.5L653.5 629L641 606L635 589H639L638.5 587H634.5L629 571L631 558.5L629 555V552.5H625.5L626.5 549.5V544H631C639.5 535.166 656.7 517 657.5 515C658.3 513 657.167 505.166 656.5 501.5L621.5 494.5C617.333 490.833 608.6 483.2 607 482C606.357 481.518 605.817 481.345 605.365 481.201C604.409 480.896 603.839 480.714 603.5 478C603.122 474.976 598.745 467.668 596.198 463.416L596.198 463.415C595.375 462.042 594.744 460.988 594.5 460.5C593.7 458.9 589.5 456.5 587.5 455.5H582.5C580.308 455.5 579.269 453.194 578.71 451.951C578.631 451.777 578.562 451.623 578.5 451.5C578.1 450.7 580.333 448.5 581.5 447.5L580.5 446.5C580.167 446.333 579.2 446.5 578 448.5C576.8 450.5 575.167 450.333 574.5 450C571.5 448.5 563 447.5 560 447.5C557.381 447.5 556.667 445.594 555.863 443.447C555.786 443.242 555.708 443.035 555.628 442.826C555.586 442.718 555.543 442.609 555.5 442.5C554.672 440.431 554.53 440.416 552.237 440.19C551.76 440.142 551.189 440.086 550.5 440C547.3 439.6 544.833 438.166 544 437.5C544 434.881 545.524 432.643 547.242 430.121C547.492 429.754 547.746 429.381 548 429C548.729 427.906 549.459 426.612 550.164 425.362C551.392 423.183 552.547 421.135 553.5 420.5C554.337 419.942 554.862 421.096 555.337 422.138C555.713 422.965 556.058 423.721 556.5 423.5C557.3 423.1 557.5 420.666 557.5 419.5L560 420.5C559.833 419.666 559.4 417.8 559 417C558.875 416.75 558.562 416.437 558.203 416.078C557.125 415 555.625 413.5 557.5 412C559.5 410.4 560.667 406.666 561 405C561 403.543 561 402.616 561.145 401.713C561.398 400.137 562.093 398.632 564 394.5C566.4 389.3 567.333 379.666 567.5 375.5C569.1 374.3 571.833 370.333 573 368.5L571 360.5L568.5 355.5L570 345C571 344.5 573.6 342.6 576 339C577.855 336.217 579.328 335.728 580.3 335.406C580.9 335.208 581.309 335.072 581.5 334.5C581.522 334.433 581.547 334.358 581.576 334.275C582.175 332.499 584.022 327.031 584.5 317C585 306.5 586 297.5 587.5 297C588.314 296.728 589.716 296.899 591.467 297.111C592.944 297.29 594.67 297.5 596.5 297.5C599.7 297.5 601.833 298.833 602.5 299.5H617C619.918 299.5 620.175 299.234 620.877 298.507C621.137 298.238 621.459 297.905 622 297.5C623.185 296.611 624.019 295.195 624.918 293.669C625.536 292.62 626.185 291.518 627 290.5C628.591 288.51 627.65 286.521 626.947 285.036C626.767 284.654 626.602 284.306 626.5 284C626.203 283.109 627.141 281.865 628.266 280.373C629.035 279.353 629.891 278.218 630.5 277C632 274 632.5 265 631.5 262C631.372 261.615 631.236 261.239 631.103 260.873C630.198 258.376 629.448 256.308 632.5 255C635.3 253.8 637.333 251.5 638 250.5C640.333 246 645.8 235.6 649 230C651.39 225.816 653.424 224.133 654.886 222.922C655.871 222.107 656.597 221.506 657 220.5C657.643 218.891 657.252 216.04 656.891 213.412C656.69 211.956 656.5 210.569 656.5 209.5C656.5 206.5 658 204 659.5 202C659.761 201.651 660.098 201.166 660.495 200.595L660.497 200.594C662.379 197.885 665.61 193.238 668.5 192C672 190.5 672 186.5 671.5 184.5C671.27 183.579 670.51 182.977 669.66 182.302C668.662 181.51 667.54 180.619 667 179C666.2 176.6 664 173.333 663 172L659.5 170L658 166.5C656.5 164.666 653 160.7 651 159.5C649 158.3 645.833 158.333 644.5 158.5C641.833 157.666 635.7 155.7 632.5 154.5C630.275 153.665 628.669 151.903 627.08 150.16C625.811 148.768 624.553 147.387 623 146.5C621.162 145.449 620.289 143.158 619.44 140.929C618.672 138.913 617.924 136.949 616.5 136C614.89 134.927 612.705 134.861 610.639 134.799C608.854 134.746 607.159 134.695 606 134C604.953 133.371 604.169 132.392 603.427 131.466C602.399 130.182 601.453 129 600 129C598.26 129 597.247 127.789 594.938 125.031C593.929 123.826 592.673 122.325 591 120.5C585.5 114.5 580 109 575 109C572.003 109 569.724 109.898 567.625 110.726C566.223 111.278 564.902 111.799 563.5 112Z" stroke="#333757" stroke-width="1.5" stroke-linejoin="round"/>
<path d="M43 347.5C42.25 347.75 41.875 348.625 41.5 349.5C41.125 350.375 40.75 351.25 40 351.5C38.5 351.5 37 350 36 349C35 348 35 347 35 345C35 343 35.5 342 36.5 341C37.5 340 38.5 340 39.5 341C40.5 342 41 342.5 42.4999 342.5C43.9998 342.5 44.5 342.5 45.5 344C46.5 345.5 44.5 347 43 347.5Z" stroke="#333757" stroke-width="1.5" stroke-linejoin="round"/>
<path d="M50.4999 361C50.9999 360.5 49.9999 359.5 48.9999 358.5C48.2954 357.721 47.1085 357.211 46.0604 356.762C45.0909 356.346 44.2403 355.98 44 355.5C43.5 354.5 42.4999 354 41 354C39.8001 354 38.5 355.667 37.9999 356.5C37.6665 357 37.0999 358.1 37.4999 358.5C37.9999 359 40.4999 360.5 42.4999 361C44.4999 361.5 49.9999 361.5 50.4999 361Z" stroke="#333757" stroke-width="1.5" stroke-linejoin="round"/>
<path d="M80 227.499C81.5 226.499 81.5 224.999 81 223.499C80.6404 222.42 79.7635 221.859 79.1134 221.443C78.8596 221.28 78.6404 221.14 78.5 220.999C78.3294 220.829 78.217 220.716 78.1429 220.583C78 220.325 78 219.987 78 218.999C78 217.777 77.3975 218.214 76.7437 218.689C76.5951 218.797 76.4435 218.907 76.2961 218.999C75.5 219.499 74.7039 222.5 75.5 224C75.5804 224.151 75.6598 224.303 75.7387 224.453C76.4412 225.793 77.1009 227.05 78 227.5C79 228 79.4068 227.999 80 227.499Z" stroke="#333757" stroke-width="1.5" stroke-linejoin="round"/>
<path d="M28.2907 251.874C28.8468 251.934 29.4564 252 30.0002 252C32.0004 252.157 33 251.499 33 250.499C33 249.499 32.5 249 31 248.5C29.7948 248.099 28.2668 248.988 27.1941 249.612L27.1932 249.613L27.192 249.614C26.9305 249.766 26.6962 249.902 26.5002 250C25.5002 250.5 24.5002 251.5 25.0002 252.5C25.5002 253.5 26.5002 252.5 26.5002 252C26.5002 251.681 27.3129 251.769 28.2907 251.874Z" stroke="#333757" stroke-width="1.5" stroke-linejoin="round"/>
<path d="M52.4999 254C50.9999 255 49.9999 255.5 48.4999 255C46.9999 254.5 46.9999 253.5 47.4999 253C47.9999 252.5 50.9996 252 52.4999 252.5C54.0002 253 53.9996 253.125 52.4999 254Z" stroke="#333757" stroke-width="1.5" stroke-linejoin="round"/>
<path d="M59.5001 301.5C59.5001 302.5 59.5001 303.5 58.0001 304.5C57.8267 304.616 57.6601 304.724 57.5001 304.829C56.2756 305.629 55.4423 306.173 55.0001 307.5C54.5001 309 54.0001 309 53.0001 308.5C52.0001 308 51.0001 307 51.5001 305C52.0001 303 53.4999 300 54.4999 299.5C55.4999 299 57.0003 298.5 58.0001 299C58.7999 299.4 59.3334 300.833 59.5001 301.5Z" stroke="#333757" stroke-width="1.5" stroke-linejoin="round"/>
<path d="M308.5 215.633C310.777 215.458 311.459 214.317 313.589 215.323C315.54 216.244 318.031 217.354 320.188 217.354C321.896 217.354 324.728 215.349 325.884 214.308C327.699 212.675 330.783 210.84 333.216 210.515C335.462 210.216 336.878 211.017 338.574 212.405C340.439 213.93 343.702 214.352 345.68 212.983C346.309 212.547 349.258 210.505 350.023 210.783C351.224 211.22 352.065 213.397 352.928 214.308C353.473 214.884 353.824 215.588 354.309 216.212C355.102 217.23 357.122 217.62 358.37 217.847C359.306 218.017 360.049 218.77 360.993 219.074C362.256 219.48 363.72 216.967 364.475 216.212C365.568 215.119 367.831 215.418 369.283 215.633C370.843 215.865 372.113 215.847 373.344 216.832C373.756 217.162 374.786 218.341 375.261 218.369C376.857 218.463 378.43 216.955 379.943 216.479C382.536 215.664 383.936 212.959 386.485 212.08C388.149 211.506 389.65 210.686 390.983 209.486C391.567 208.96 392.054 208.406 392.66 207.907C393.19 207.471 393.217 206.624 393.788 206.243C394.424 205.819 394.74 204.669 395.452 204.41C396.791 203.923 398.202 204.061 399.583 203.888C401.116 203.697 400.748 199.366 401.275 198.206C401.501 197.71 402.137 196.521 402.164 196.035C402.222 194.988 401.91 194.004 401.91 192.989C401.91 192.23 402.225 191.951 402.403 191.326C402.652 190.454 402.448 189.93 402.417 188.985C402.376 187.691 402.067 186.456 403.306 185.756C405.032 184.781 406.599 185.217 408.368 185.911C410.162 186.616 411.664 187.406 413.584 187.406C414.912 187.406 417.015 186.571 418.294 186.137C419.801 185.625 421.199 185.75 422.792 185.375C423.438 185.223 424.048 184.302 424.498 183.853C425.229 183.122 426.234 182.632 426.88 181.836C428.443 179.914 431.406 182.096 433.127 182.711C434.626 183.246 437.448 182.332 438.908 181.879C440.251 181.462 442.548 181.766 443.871 181.879C446.233 182.08 448.396 183.596 449.764 185.573C451.021 187.388 453.956 186.612 455.559 185.502C456.719 184.7 456.558 182.67 457.618 181.822C458.089 181.445 457.948 180.684 458.506 180.356C459.206 179.944 459.797 179.513 460.536 179.143C462.115 178.354 463.414 177.307 464.202 175.731C465.082 173.973 465.845 172.142 467.079 170.599C467.978 169.474 466.419 166.631 466.064 165.636C465.407 163.798 464.626 162.106 463.963 160.25C462.808 157.017 462.5 155.741 462.5 152.5" stroke="#333757" stroke-width="1.5" stroke-linecap="round"/>
<path d="M463.895 176.727C464.819 178.609 465.382 180.366 465.737 182.379C465.893 183.262 466.025 184.004 466.491 184.786C466.959 185.572 467.305 186.276 467.663 187.131C468.065 188.091 468.711 188.704 469.066 189.716C469.341 190.501 469.359 191.447 469.359 192.28C469.359 193.529 469.908 193.583 470.719 194.395C471.959 195.634 473.381 197.165 474.362 198.592C475.151 199.739 476.245 200.76 476.801 202.056C477.15 202.872 477.746 203.819 478.308 204.506C479.407 205.849 480.755 207.051 481.647 208.567C482.128 209.385 482.786 210.157 483.301 210.974C483.482 211.263 484.405 212.628 484.734 212.701C486.793 213.158 488.729 214.076 490.271 215.538C491.421 216.627 492.509 217.727 493.391 219.075C494.186 220.291 495.041 221.808 496.101 222.781C496.921 223.531 497.68 224.916 498.226 225.9C499.162 227.583 500.817 228.847 501.764 230.505C502.053 231.01 502.632 231.551 502.999 232.023C503.58 232.77 503.911 233.81 504.391 234.65C505.339 236.308 506.145 238.124 507.27 239.653C508.51 241.34 509.739 243.12 510.902 244.928C511.695 246.162 512.908 247.738 513.068 249.262C513.166 250.194 513.691 251.116 513.864 252.046C514.039 252.989 514.539 253.929 514.575 254.872C514.601 255.54 514.897 256.478 515.099 257.133C515.391 258.082 515.329 259.5 515.329 260.493C515.329 262.357 515.141 264.185 515.141 266.03C515.141 266.837 515.358 267.12 515.664 267.809C515.972 268.502 515.894 269.451 515.894 270.216C515.894 271.503 515.476 272.347 515.151 273.482C515.026 273.921 516.977 275.465 517.276 275.628C518.648 276.376 519.552 277.978 520.081 279.448C520.459 280.498 521.241 280.537 522.258 280.537C522.48 280.537 523.551 280.396 523.608 280.652C523.782 281.432 524.258 281.834 524.561 282.515C524.983 283.465 525.915 283.986 526.455 284.797C527.35 286.139 528.261 287.264 529.271 288.491C529.856 289.203 530.486 289.786 530.883 290.616C531.09 291.05 531.302 291.389 531.72 291.611C532.158 291.843 532.439 292.49 532.955 292.584C533.97 292.768 534.989 292.736 536.012 293.013C537.395 293.388 538.625 294.061 539.968 294.52C540.818 294.811 541.438 295.463 542.292 295.703C543.372 296.007 544.403 296.452 545.463 296.823C547.25 297.448 549.335 297.761 551.199 298.048C552.76 298.288 554.412 298.989 555.878 299.607C556.373 299.816 557.362 300.181 558 300C558 300 558.997 299.756 559.237 299.576C559.8 299.154 560.752 298.834 561.394 298.54C562.835 297.877 564.261 297.064 565.727 296.467C566.457 296.17 567.147 295.698 567.894 295.462C568.801 295.176 569.399 294.404 570.249 293.997C571.578 293.361 571.944 292.971 573.525 292.971C575.155 292.971 575.673 293.647 577 294.5C578.137 295.231 578.977 295.882 580.26 295.839C581.016 295.814 581.704 295.462 582.5 295.462C583.367 295.462 584.122 295.563 584.96 295.661C587.256 295.931 586.723 296.675 589 297" stroke="#333757" stroke-width="1.5" stroke-linecap="round"/>
<path d="M520.5 280C520.5 280.5 520.2 281.7 519 282.5C517.5 283.5 515.5 286.5 515.5 290C515.5 293.5 516.5 298 514.5 301.5C512.5 305 513.5 307.5 512 309.5C510.5 311.5 508.5 314 505.5 315C502.5 316 499.5 320.5 500.5 323C501.5 325.5 502.5 328 502 329C501.5 330 498.5 332.5 496 333C493.5 333.5 489.5 333 487 335.5C484.5 338 482 341.5 479.5 341.5C477 341.5 474 339.5 471 340.5C468 341.5 465.5 347 464 351.5C462.5 356 461 361 458 364.5C455 368 452 370.5 448.5 373C445 375.5 445.5 378.5 440 379C434.5 379.5 434.5 374.5 432.5 370.5C430.5 366.5 424.5 365.5 425 360C425.5 354.5 424.5 352 421 347.5C417.5 343 414.5 339 410 335.5C405.5 332 405 328.5 401.5 325" stroke="#333757" stroke-width="1.5" stroke-linecap="round"/>
<path d="M308.5 275C308.333 275.833 307.9 277.6 307.5 278C307 278.5 306.5 279.5 305.5 279.5C304.5 279.5 306.5 282 306 285C305.6 287.4 305.833 288.667 306 289C305.167 289.333 303.5 290.3 303.5 291.5C303.5 292.7 305.167 293.667 306 294L306.5 297.5C305.833 298.167 304.8 299.8 306 301C307.5 302.5 310.5 303.5 309.5 305C308.5 306.5 306.5 308.5 306.5 310.5C306.5 312.5 304.5 315 303.5 317.5C302.5 320 301 320.5 297.5 322C294.7 323.2 293.667 324.833 293.5 325.5C292.667 325.833 290.9 326.8 290.5 328C290.1 329.2 290 330.5 290 331L287 332.5V335C287 335.667 286.7 337.4 285.5 339C284 341 282.5 343.5 284 346.5C285.2 348.9 287.5 353.5 288.5 355.5L291 358L290 360.5V364L293.5 367C293 367.833 291.8 369.4 291 369C290.2 368.6 289 368.167 288.5 368V370.5C288 371.167 286.7 372.9 285.5 374.5C284 376.5 282.5 376.5 280 376C277.5 375.5 275 375.5 272.5 377C270 378.5 269.5 381 268 383.5C266.5 386 265 386.5 266.5 389C268 391.5 272.5 404.5 272.5 406.5C272.5 408.5 268 414 265 416C262 418 259.5 422.5 256 425.5C253.2 427.9 249.167 434.167 247.5 437C248 439.5 249.1 444.8 249.5 446C247.833 448 244.4 452.4 244 454" stroke="#333757" stroke-width="1.5" stroke-linecap="round"/>
<path d="M333.5 509.5C334.333 509.333 336.3 508.6 337.5 507C339 505 340.5 502 343 500.5C345.5 499 347 494 348 493C349 492 351 490.5 354.5 486.5C358 482.5 357.5 481.5 361 480.5C364.5 479.5 367 479 369 476.5C371 474 374.5 471.5 376.5 470.5C378.5 469.5 381 467.5 383 467C385 466.5 386.5 465.5 388 463.5C389.5 461.5 392 459 394 459C396 459 397 459 398 456.5C399 454 404 446.5 406 445.5C408 444.5 412 444 415.5 443.5C419 443 420 443 421 441.5C422 440 422.5 438 424.5 437C426.5 436 427 434.5 427.5 433C428 431.5 431 431.5 431.5 430C431.9 428.8 433 424.167 433.5 422C433.5 420.5 433.7 417.2 434.5 416C435.5 414.5 434 413 433.5 411.5C433 410 432.5 406.5 433.5 406C434.5 405.5 436 401.5 437 401C438 400.5 438 399 439.5 399C440.7 399 442 398.667 442.5 398.5L447.5 394C448 393.833 449.2 393.2 450 392C451 390.5 450 388.5 451.5 387.5C452.7 386.7 454 385.5 454.5 385L453.5 382V378L451.5 376L450 376.5L448.5 378L445 376.5" stroke="#333757" stroke-width="1.5" stroke-linecap="round"/>
<path d="M345 529C348.833 531.667 357.3 537.3 360.5 538.5C363.7 539.7 365.5 540.667 366 541L368.5 545L373.5 546L377 544C380.5 544.167 387.8 544.8 389 546C390.5 547.5 395 553.5 398.5 555C402 556.5 405 556.5 406 557.5C407 558.5 409.5 555.5 411.5 555.5C413.5 555.5 415.5 555.5 418.5 556.5C420.9 557.3 427.167 556.834 430 556.5C431.5 552 435.4 541.5 439 535.5C442.6 529.5 446.833 525 448.5 523.5L451 523L455.5 516V513.5L465.5 496C465.333 494.667 465.8 491.5 469 489.5C472.2 487.5 474 487 474.5 487L481 482V476.5C481.833 476 483.6 473.8 484 469C485.5 468.334 489.1 466.1 491.5 462.5C494.5 458 494 455.5 497 454C500 452.5 502.5 453 505 452.5C507.5 452 508.5 451 508.5 449.5C508.5 448 509 445 512 444.5C515 444 518 444.5 521 443C524 441.5 526.5 440 529 440.5C531.5 441 536 442 538.5 442C541 442 542.5 441.5 544.5 438" stroke="#333757" stroke-width="1.5" stroke-linecap="round"/>
<path d="M430 556.5C432.667 557.167 438.4 558.7 440 559.5C442 560.5 443.5 562.5 447.5 563C451.5 563.5 454 561.5 456 561.5C458 561.5 463.5 563 467 565C470.5 567 474.5 565 476 565C477.5 565 478 564.5 479 564.5C479.8 564.5 482.667 565.833 484 566.5C484.167 567.5 485 569.5 487 569.5C489.5 569.5 491.5 569 493 570.5C494.2 571.7 496.167 573.333 497 574L504 571.5H506.5C507 571 508.2 570 509 570C510 570 515 573.5 519 574.5C523 575.5 525 576 526 575.5L526.5 578.5C527.167 580.167 528.9 583.5 530.5 583.5C532.5 583.5 537.5 584.5 538.5 585.5C539.3 586.3 541.167 588.5 542 589.5C543.333 590.167 546.3 591.7 547.5 592.5C549 593.5 549.5 596.5 550.5 598.5C551.5 600.5 554 602 555.5 603C556.7 603.8 558.333 605.333 559 606L570.5 609.5L577.5 609C579.167 608.667 582.7 607.7 583.5 606.5C584.5 605 585 607 586.5 608C587.7 608.8 589.333 609.333 590 609.5L590.5 611C590.833 610.333 591.7 609 592.5 609C593.3 609 593.5 610.667 593.5 611.5L594.5 612C595 613.667 596 617.8 596 621C596 625 596.5 626.5 597.5 628C598.5 629.5 597.5 634.5 598 638C598.5 641.5 599 647.5 600 649C599 649.5 596.4 650.6 594 651C591 651.5 591 652 590.5 654C590 656 588 655.5 586.5 656.5C585 657.5 584 657.5 582.5 656.5C581 655.5 580 655.5 578.5 657C577 658.5 575.5 661 571.5 663C567.5 665 563.5 669.5 561.5 671C559.5 672.5 555 674 553 675.5C551 677 551.5 678 550 678.5C548.5 679 547 679 545.5 682C544 685 542.5 689.5 541 690.5C539.8 691.3 540.167 693.833 540.5 695" stroke="#333757" stroke-width="1.5" stroke-linecap="round"/>
<path d="M598 628L643.5 619V617L646 616" stroke="#333757" stroke-width="1.5" stroke-linecap="round"/>
</svg>
