<svg width="178" height="203" viewBox="0 0 178 203" fill="none" xmlns="http://www.w3.org/2000/svg">
<path d="M115 8.5C117 3.3 118.167 1.33333 118.5 1C121 6.5 126.5 11.5 128.5 17C130.5 22.5 129.5 24.5 130.5 27C131.5 29.5 134 32 138 32.5C142 33 145 33.5 146.5 34.5C148 35.5 151.5 38 150.5 42C149.5 46 147 44.5 146.5 47C146 49.5 149 55.5 150 59C151 62.5 152.5 63.5 153.5 65.5C154.5 67.5 154.5 68 154 69C153.5 70 154.5 70.5 154.5 72C154.5 73.5 154 75 159.5 75C165 75 165 77 168 83C170.4 87.8 175 89.3333 177 89.5C177 91.5 177.5 100.5 177.5 105C177.5 109.5 176.5 110 172.5 111C168.5 112 160.5 115 156 120C151.5 125 144 127.5 139 130.5C134 133.5 124.5 138 117 147C109.5 156 111.5 160 113 164C114.5 168 120.5 178 121.5 186.5C122.3 193.3 118.5 199.333 116.5 201.5C114.5 200 107 199.5 102 199.5C97 199.5 90 199 87.5 195C85 191 82.5 187.5 77.5 183.5C73.5 180.3 67.5 178.833 65 178.5C65.1667 177.667 64.9 174.7 62.5 169.5C59.5 163 55 158 50.5 148.5C46 139 47.5 137 46 128.5C44.5 120 40 113 36 105C32 97 30.5 92 31.5 84C32.5 76 35.5 69.5 32 61C28.5 52.5 17.5 48 16 47.5C14.5 47 8.5 43 5.5 40.5C2.5 38 0.5 35.5 0.5 32C0.5 28.5 1.5 24.5 1.5 22C1.5 20 1.16667 15.1667 1 13C5.5 12 8 14.5 14 16.5C20 18.5 26 19.5 35 16.5C44 13.5 46 10.5 51.5 8.5C57 6.5 62.5 7 69.5 7C76.5 7 79.5 11 82 13.5C84.5 16 86 16.5 91.5 18C97 19.5 103 19.5 106.5 18C110 16.5 112.5 15 115 8.5Z" fill="#23254B" stroke="#666FBD"/>
<path d="M43.3904 12.6877C43.2179 12.472 42.9033 12.4371 42.6877 12.6096C42.472 12.7821 42.4371 13.0967 42.6096 13.3123L43.3904 12.6877ZM46.5 16.5L46.7774 16.084L46.7774 16.084L46.5 16.5ZM59 21.5L58.5257 21.6581C58.5734 21.8013 58.6832 21.9152 58.8244 21.9682L59 21.5ZM66 27L66.495 26.9293C66.4797 26.8222 66.4301 26.7229 66.3536 26.6464L66 27ZM68.5 31.5L68.7236 31.0528L68.7236 31.0528L68.5 31.5ZM87.5 38.5L87.2227 38.084L87.2226 38.084L87.5 38.5ZM92.5 36L92.6213 35.5149C92.5153 35.4884 92.4035 35.4974 92.303 35.5404L92.5 36ZM94.5 36.5L94.8201 36.1159C94.7623 36.0677 94.6943 36.0332 94.6213 36.0149L94.5 36.5ZM97.5 39L97.8536 39.3536C97.9084 39.2987 97.9498 39.2318 97.9743 39.1581L97.5 39ZM98 37.5L97.8626 37.0192C97.7039 37.0646 97.5778 37.1853 97.5257 37.3419L98 37.5ZM101.5 36.5L101.637 36.9808C101.719 36.9574 101.793 36.9136 101.854 36.8536L101.5 36.5ZM103.5 34.5L103.223 34.084C103.195 34.1022 103.17 34.1232 103.146 34.1464L103.5 34.5ZM106.5 32.5L106.884 32.1799C106.721 31.9836 106.435 31.9422 106.223 32.084L106.5 32.5ZM111 34L110.7 33.6L110.7 33.6L111 34ZM123.5 28L123.026 27.8419L123.026 27.8419L123.5 28ZM126.5 26L126.686 25.5358C126.596 25.4997 126.497 25.4907 126.402 25.5097L126.5 26ZM130.5 27.5C130.776 27.5 131 27.2761 131 27C131 26.7239 130.776 26.5 130.5 26.5V27.5ZM97.5001 40.5L97.7237 40.0528L97.7237 40.0528L97.5001 40.5ZM99.9998 50L100.447 49.7764C100.423 49.7283 100.391 49.6844 100.353 49.6464L99.9998 50ZM105 50L105.277 50.416L105.277 50.416L105 50ZM107.5 48.5L107.974 48.3419C107.928 48.2044 107.825 48.0935 107.691 48.0381C107.557 47.9826 107.406 47.988 107.276 48.0528L107.5 48.5ZM108.5 51.5L108.025 51.6581C108.071 51.7956 108.175 51.9065 108.308 51.9619C108.442 52.0174 108.594 52.012 108.723 51.9472L108.5 51.5ZM109.5 51L109.884 50.6799C109.735 50.5017 109.484 50.449 109.276 50.5528L109.5 51ZM112 54L112.474 53.8419C112.454 53.7827 112.424 53.7278 112.384 53.6799L112 54ZM113.5 56L113.723 55.5528L113.723 55.5528L113.5 56ZM119.5 60.5L119.378 60.9851C119.606 61.0419 119.842 60.9332 119.947 60.7236L119.5 60.5ZM120 59.5L120.207 59.0448C119.962 58.9335 119.673 59.0358 119.553 59.2764L120 59.5ZM125.5 62L125.293 62.4552C125.538 62.5665 125.827 62.4642 125.947 62.2236L125.5 62ZM126 61L126.447 61.2236C126.482 61.1542 126.5 61.0776 126.5 61H126ZM126 59.5L126.038 59.0015C125.899 58.9908 125.762 59.0385 125.66 59.1331C125.558 59.2278 125.5 59.3607 125.5 59.5H126ZM132.5 60L132.461 60.4985C132.552 60.5055 132.642 60.4877 132.723 60.4472L132.5 60ZM136.5 58L136.947 57.7764C136.823 57.5294 136.523 57.4293 136.276 57.5528L136.5 58ZM141 67L140.553 67.2236C140.614 67.3465 140.723 67.4387 140.855 67.4785C140.986 67.5184 141.129 67.5023 141.248 67.4341L141 67ZM148.248 63.4341C148.488 63.2971 148.571 62.9917 148.434 62.7519C148.297 62.5122 147.991 62.4289 147.752 62.5659L148.248 63.4341ZM101.354 52.3528C101.549 52.1575 101.549 51.8409 101.354 51.6457C101.158 51.4504 100.842 51.4504 100.646 51.6457L101.354 52.3528ZM98.5 52.4992L98.6581 52.0249L98.6581 52.0249L98.5 52.4992ZM96 51.9992L95.7226 52.4153C95.8048 52.47 95.9013 52.4992 96 52.4992V51.9992ZM94 49.9992L93.5528 50.2228L93.5528 50.2228L94 49.9992ZM85.5 54.999L85.084 54.7217C85.0033 54.8427 84.9793 54.9929 85.0183 55.1331C85.0573 55.2733 85.1555 55.3895 85.2871 55.4514L85.5 54.999ZM94 58.999H94.5C94.5 58.8053 94.3881 58.6291 94.2129 58.5466L94 58.999ZM96.5 60.999H97C97 60.7229 96.7761 60.499 96.5 60.499V60.999ZM97 62.499V62.999C97.2452 62.999 97.4543 62.8212 97.4935 62.5791C97.5328 62.3371 97.3908 62.1022 97.1581 62.0247L97 62.499ZM95 62.499L94.6464 62.1455L94.6464 62.1455L95 62.499ZM93 62.499L93.1581 62.0247C92.9784 61.9648 92.7804 62.0116 92.6464 62.1455L93 62.499ZM92 63.499L91.6464 63.1455C91.4943 63.2977 91.4565 63.5301 91.5528 63.7226L92 63.499ZM93 65.499L93.3536 65.8526C93.5057 65.7004 93.5435 65.4679 93.4472 65.2754L93 65.499ZM92.5 65.999L92.1464 65.6455C92.0527 65.7392 92 65.8664 92 65.999H92.5ZM92.5 69.499L92.7774 69.915C92.9164 69.8223 93 69.6662 93 69.499H92.5ZM89.5 71.499L89.1464 71.8526C89.315 72.0211 89.579 72.0473 89.7774 71.915L89.5 71.499ZM88.5 70.499L88.8536 70.1455C88.7353 70.0273 88.5659 69.9759 88.4019 70.0087L88.5 70.499ZM86 70.999L85.9019 70.5087C85.8457 70.52 85.7919 70.5408 85.7428 70.5703L86 70.999ZM83.5 72.499L83.2428 72.0703C83.1724 72.1125 83.1135 72.1714 83.0713 72.2418L83.5 72.499ZM82 74.999L82.1581 75.4734C82.2713 75.4356 82.3673 75.3586 82.4287 75.2563L82 74.999ZM80.5 75.499L80.3419 75.0247C80.2161 75.0666 80.1121 75.1568 80.0528 75.2754L80.5 75.499ZM69 78.999L69.1581 79.4734L69.1581 79.4734L69 78.999ZM66.5 80.999L66.084 80.7217C66.0593 80.7587 66.0397 80.7987 66.0257 80.8409L66.5 80.999ZM63 82.499L63.2236 82.9462L63.2236 82.9462L63 82.499ZM52 79.499H51.5C51.5 79.7752 51.7239 79.999 52 79.999V79.499ZM50 76.999L49.7764 77.4462L49.7764 77.4462L50 76.999ZM34.5 65.999L34.0257 66.1571C34.0676 66.2829 34.1578 66.3869 34.2764 66.4462L34.5 65.999ZM34 64.499L34.4743 64.3409C34.4063 64.1367 34.2152 63.999 34 63.999V64.499ZM33.5 63.999C33.2239 63.999 33 64.2229 33 64.499C33 64.7752 33.2239 64.999 33.5 64.999V63.999ZM69.5 86L69.7236 85.5528L69.7236 85.5528L69.5 86ZM75 86.5H74.5C74.5 86.7203 74.6442 86.9147 74.8551 86.9785C75.066 87.0424 75.2938 86.9607 75.416 86.7773L75 86.5ZM82 89.5H81.5C81.5 89.6894 81.607 89.8625 81.7764 89.9472L82 89.5ZM83 90.5H82.5C82.5 90.6756 82.5921 90.8384 82.7428 90.9287L83 90.5ZM85.5 92L85.9969 91.9448C85.9797 91.7897 85.8911 91.6515 85.7572 91.5713L85.5 92ZM86 96.5L86.4851 96.6213C86.4995 96.5636 86.5035 96.5039 86.4969 96.4448L86 96.5ZM85 100.5L84.5149 100.379C84.4723 100.549 84.5223 100.729 84.6464 100.854L85 100.5ZM85.5 101L85.1464 101.354C85.291 101.498 85.509 101.54 85.697 101.46L85.5 101ZM89 99.5L89.495 99.4293C89.473 99.2753 89.3806 99.1403 89.245 99.0641C89.1094 98.9879 88.946 98.9792 88.803 99.0404L89 99.5ZM89.5 103L89.005 103.071C89.0156 103.145 89.0426 103.215 89.084 103.277L89.5 103ZM90 110L90.3536 110.354C90.5488 110.158 90.5488 109.842 90.3536 109.646L90 110ZM81 125L81.4743 125.158C81.4913 125.107 81.5 125.054 81.5 125H81ZM80 128L79.5257 127.842C79.4837 127.968 79.4935 128.105 79.5528 128.224L80 128ZM80.5 129L80.9851 129.121C81.014 129.005 81.0006 128.883 80.9472 128.776L80.5 129ZM81 131.5L80.7764 131.947L80.7764 131.947L81 131.5ZM96 160.5L96.1581 160.026L96.1581 160.026L96 160.5ZM99.5 161L99.8536 160.646C99.7598 160.553 99.6326 160.5 99.5 160.5V161ZM100 161.5L100.474 161.658C100.534 161.478 100.487 161.28 100.354 161.146L100 161.5ZM104 168.5L103.605 168.807C103.643 168.856 103.69 168.897 103.743 168.929L104 168.5ZM110 171L109.776 170.553L109.776 170.553L110 171ZM113.5 170.5V171C113.541 171 113.582 170.995 113.621 170.985L113.5 170.5ZM84.5 89.5L84.6581 89.9743C84.7318 89.9498 84.7987 89.9084 84.8536 89.8536L84.5 89.5ZM86.5 87.5L86.8536 87.8536C86.9875 87.7196 87.0342 87.5216 86.9743 87.3419L86.5 87.5ZM86.5 84.5L86.9743 84.6581C86.9913 84.6071 87 84.5537 87 84.5H86.5ZM86 82.5V82C85.8393 82 85.6884 82.0773 85.5944 82.2076C85.5004 82.338 85.4748 82.5056 85.5257 82.6581L86 82.5ZM87 82.5L87.4287 82.2428C87.3384 82.0921 87.1756 82 87 82V82.5ZM99.5 82.5H99C99 82.6326 99.0527 82.7598 99.1464 82.8536L99.5 82.5ZM99.5 81.5L99.084 81.2226C99.0292 81.3048 99 81.4013 99 81.5H99.5ZM100.5 80L100.916 80.2774C100.92 80.2708 100.925 80.264 100.929 80.2572L100.5 80ZM102 77.5L102.429 77.7572C102.475 77.6795 102.5 77.5906 102.5 77.5H102ZM102 77H102.5C102.5 76.7239 102.276 76.5 102 76.5V77ZM100.5 77L100.015 76.8787C99.9776 77.0281 100.011 77.1863 100.106 77.3077C100.201 77.4291 100.346 77.5 100.5 77.5V77ZM101 75L101.485 75.1213C101.522 74.9719 101.489 74.8137 101.394 74.6923C101.299 74.5709 101.154 74.5 101 74.5V75ZM97.5 75L97.3419 75.4743C97.3929 75.4913 97.4463 75.5 97.5 75.5V75ZM96 74.5H95.5C95.5 74.7152 95.6377 74.9063 95.8419 74.9743L96 74.5ZM94 69.5001H94.5C94.5 69.2239 94.2761 69.0001 94 69.0001V69.5001ZM94 71.0001H93.5C93.5 71.2762 93.7239 71.5001 94 71.5001V71.0001ZM94.5 71.0001V71.5001C94.5275 71.5001 94.555 71.4978 94.5822 71.4933L94.5 71.0001ZM97.5 70.5001L97.9472 70.2765C97.849 70.0801 97.6343 69.9708 97.4178 70.0069L97.5 70.5001ZM101.5 71.5001L101.777 71.084C101.695 71.0293 101.599 71.0001 101.5 71.0001V71.5001ZM103 72.5001L102.723 72.9161C102.729 72.9205 102.736 72.9247 102.743 72.9288L103 72.5001ZM108 72.0001L108.312 72.3905L108.312 72.3905L108 72.0001ZM113.5 70.0001L113.2 70.4001L113.2 70.4001L113.5 70.0001ZM123 69.5001L123.474 69.6582L123.474 69.6582L123 69.5001ZM126.5 67.0001L126.342 66.5257L126.342 66.5257L126.5 67.0001ZM129 67.5001L129.224 67.0529L129.224 67.0529L129 67.5001ZM130.5 69H131C131 68.9224 130.982 68.8458 130.947 68.7764L130.5 69ZM130.5 70.0001L130.724 70.4473C130.893 70.3626 131 70.1895 131 70.0001H130.5ZM129.5 70.5L129.276 70.0528C129.133 70.1246 129.032 70.2612 129.006 70.4199C128.981 70.5785 129.033 70.7399 129.146 70.8536L129.5 70.5ZM130.5 71.5L130.146 71.8536C130.296 72.0032 130.524 72.0424 130.715 71.9514L130.5 71.5ZM141 66.5L141.447 66.2764C141.325 66.0328 141.031 65.9315 140.785 66.0486L141 66.5ZM145.5 75.5L145.757 75.9287C145.981 75.7943 146.064 75.5101 145.947 75.2764L145.5 75.5ZM143 77V77.5C143.091 77.5 143.18 77.4754 143.257 77.4287L143 77ZM142 76.5L141.646 76.8536L141.646 76.8536L142 76.5ZM141.5 80.5V81C141.776 81 142 80.7761 142 80.5H141.5ZM118 102.5L118.354 102.146L118.354 102.146L118 102.5ZM102.5 83.5L102.402 83.9903C102.541 84.0182 102.686 83.9854 102.8 83.9L102.5 83.5ZM104.5 82L104.937 81.7572C104.867 81.6309 104.746 81.5411 104.604 81.511C104.463 81.4809 104.316 81.5133 104.2 81.6L104.5 82ZM107 86.5L106.563 86.7428C106.648 86.8952 106.806 86.9925 106.98 86.9996C107.154 87.0066 107.319 86.9224 107.416 86.7774L107 86.5ZM108 85L108.354 84.6464C108.248 84.5405 108.1 84.4877 107.951 84.5024C107.802 84.5172 107.667 84.598 107.584 84.7226L108 85ZM108.5 85.5L108.996 85.562C109.015 85.4089 108.963 85.2555 108.854 85.1464L108.5 85.5ZM108 89.5V90C108.252 90 108.465 89.8122 108.496 89.562L108 89.5ZM106 89.5V89C105.867 89 105.74 89.0527 105.646 89.1464L106 89.5ZM104.5 91L104.146 90.6464C103.987 90.8059 103.954 91.0523 104.066 91.2481L104.5 91ZM108.5 98L108.066 98.2481C108.155 98.4039 108.321 98.5 108.5 98.5V98ZM110 98L110.496 97.938C110.465 97.6878 110.252 97.5 110 97.5V98ZM111 106L110.504 106.062C110.518 106.172 110.568 106.275 110.646 106.354L111 106ZM114 107L114.158 107.474L114.158 107.474L114 107ZM122 104L121.902 103.51L121.902 103.51L122 104ZM125.5 103.5L125.703 103.043C125.639 103.015 125.57 103 125.5 103V103.5ZM130 105.5L130.376 105.171C130.328 105.116 130.269 105.073 130.203 105.043L130 105.5ZM133.5 109.5L133.88 109.175L133.876 109.171L133.5 109.5ZM137 116.5L137.495 116.429L137.495 116.429L137 116.5ZM151.812 62.8904C152.028 62.7179 152.063 62.4033 151.89 62.1877C151.718 61.972 151.403 61.9371 151.188 62.1096L151.812 62.8904ZM149 64.5L148.566 64.7481C148.638 64.875 148.763 64.9638 148.906 64.9911C149.05 65.0185 149.198 64.9817 149.312 64.8904L149 64.5ZM147 61H146.5C146.5 61.087 146.523 61.1725 146.566 61.2481L147 61ZM147 59.5H147.5C147.5 59.4334 147.487 59.3674 147.461 59.306L147 59.5ZM143 50L143.461 49.806C143.357 49.5586 143.076 49.4376 142.824 49.5318L143 50ZM139 51.5L138.776 51.9472C138.901 52.0094 139.045 52.017 139.176 51.9682L139 51.5ZM137 50.5H136.5C136.5 50.6894 136.607 50.8625 136.776 50.9472L137 50.5ZM137 49H137.5C137.5 48.7706 137.344 48.5706 137.121 48.5149L137 49ZM135 48.5L134.506 48.576C134.536 48.775 134.683 48.9362 134.879 48.9851L135 48.5ZM134 42L134.494 41.924C134.483 41.852 134.456 41.7833 134.416 41.7226L134 42ZM132 39L131.814 38.5358C131.674 38.5917 131.567 38.7078 131.523 38.8517C131.478 38.9956 131.5 39.152 131.584 39.2774L132 39ZM134.5 38L134.686 38.4642C134.876 38.3883 135 38.2045 135 38H134.5ZM134.5 36H135C135 35.8918 134.965 35.7865 134.9 35.7L134.5 36ZM133 34L132.776 33.5528C132.644 33.6191 132.547 33.7408 132.513 33.8851C132.479 34.0294 132.511 34.1814 132.6 34.3L133 34ZM134 33.5L134.224 33.9472C134.456 33.8309 134.561 33.5557 134.464 33.3143L134 33.5ZM133 31L133.464 30.8143C133.432 30.7341 133.38 30.6635 133.312 30.6096L133 31ZM130.5 29L130.01 29.0981C130.033 29.2134 130.096 29.3169 130.188 29.3904L130.5 29ZM130.49 26.4019C130.436 26.1312 130.173 25.9556 129.902 26.0097C129.631 26.0639 129.456 26.3273 129.51 26.5981L130.49 26.4019ZM42.6096 13.3123C42.9513 13.7395 43.5359 14.4257 44.1887 15.1081C44.8354 15.7842 45.5748 16.4841 46.2226 16.916L46.7774 16.084C46.2252 15.7159 45.548 15.0825 44.9113 14.4169C44.2807 13.7576 43.7154 13.0938 43.3904 12.6877L42.6096 13.3123ZM46.2226 16.916C46.6558 17.2048 47.2398 17.4403 47.8671 17.6468C48.5012 17.8555 49.2187 18.0466 49.9363 18.2338C51.3996 18.6155 52.8352 18.9766 53.7764 19.4472L54.2236 18.5528C53.1648 18.0234 51.6004 17.6345 50.1887 17.2662C49.4688 17.0784 48.78 16.8945 48.1797 16.6969C47.5727 16.4972 47.0942 16.2952 46.7774 16.084L46.2226 16.916ZM53.7764 19.4472C54.8174 19.9677 56.0361 20.2474 56.9044 20.5368C57.8535 20.8532 58.3617 21.1664 58.5257 21.6581L59.4743 21.3419C59.1383 20.3336 58.1465 19.8968 57.2206 19.5882C56.2139 19.2526 55.1826 19.0323 54.2236 18.5528L53.7764 19.4472ZM58.8244 21.9682C59.4789 22.2136 60.4858 22.6313 61.3731 23.0831C61.8176 23.3094 62.2206 23.5385 62.5311 23.7534C62.8645 23.984 63.0148 24.1475 63.0528 24.2236L63.9472 23.7764C63.7852 23.4525 63.4397 23.166 63.1001 22.931C62.7378 22.6803 62.2908 22.4281 61.8269 22.1919C60.8975 21.7187 59.8545 21.2864 59.1756 21.0318L58.8244 21.9682ZM63.0528 24.2236C63.2847 24.6875 63.7839 25.3147 64.2723 25.8777C64.773 26.4548 65.3063 27.0134 65.6464 27.3536L66.3536 26.6464C66.027 26.3199 65.5103 25.7786 65.0277 25.2223C64.5328 24.652 64.1153 24.1125 63.9472 23.7764L63.0528 24.2236ZM65.505 27.0707C65.5941 27.6945 65.831 28.6671 66.2582 29.5963C66.6795 30.5127 67.3244 31.4712 68.2764 31.9472L68.7236 31.0528C68.0756 30.7288 67.5539 30.0206 67.1668 29.1787C66.7857 28.3496 66.5725 27.4722 66.495 26.9293L65.505 27.0707ZM68.2764 31.9472C69.2818 32.4499 70.0031 32.8113 70.7226 33.291C71.4373 33.7674 72.1618 34.3689 73.1464 35.3536L73.8536 34.6464C72.8382 33.6311 72.0627 32.9826 71.2774 32.459C70.4969 31.9387 69.7182 31.5501 68.7236 31.0528L68.2764 31.9472ZM73.1464 35.3536C73.6335 35.8406 74.0601 36.328 74.485 36.808C74.9058 37.2833 75.327 37.7538 75.7848 38.1789C76.7157 39.0434 77.802 39.7239 79.4178 39.9932L79.5822 39.0068C78.198 38.7761 77.2843 38.2066 76.4652 37.4461C76.048 37.0587 75.6567 36.6229 75.2338 36.1451C74.8149 35.672 74.3665 35.1594 73.8536 34.6464L73.1464 35.3536ZM79.4178 39.9932C80.9713 40.2521 82.6461 40.2515 84.1272 40.0583C85.5937 39.867 86.9332 39.4788 87.7774 38.916L87.2226 38.084C86.5668 38.5212 85.4063 38.883 83.9978 39.0667C82.6039 39.2485 81.0287 39.2479 79.5822 39.0068L79.4178 39.9932ZM87.7773 38.916C88.933 38.1456 91.5238 36.9624 92.697 36.4596L92.303 35.5404C91.1429 36.0376 88.467 37.2544 87.2227 38.084L87.7773 38.916ZM92.3787 36.4851L94.3787 36.9851L94.6213 36.0149L92.6213 35.5149L92.3787 36.4851ZM94.1799 36.8841L97.1799 39.3841L97.8201 38.6159L94.8201 36.1159L94.1799 36.8841ZM97.9743 39.1581L98.4743 37.6581L97.5257 37.3419L97.0257 38.8419L97.9743 39.1581ZM98.1374 37.9808L101.637 36.9808L101.363 36.0192L97.8626 37.0192L98.1374 37.9808ZM101.854 36.8536L103.854 34.8536L103.146 34.1464L101.146 36.1464L101.854 36.8536ZM103.777 34.916L106.777 32.916L106.223 32.084L103.223 34.084L103.777 34.916ZM106.116 32.8201C106.563 33.3562 107.341 34.0846 108.243 34.5245C109.149 34.9659 110.288 35.1592 111.3 34.4L110.7 33.6C110.112 34.0408 109.417 33.9841 108.682 33.6255C107.943 33.2654 107.271 32.6438 106.884 32.1799L106.116 32.8201ZM111.3 34.4C112.277 33.6674 112.956 33.3438 113.473 33.2403C113.962 33.1425 114.348 33.2331 114.776 33.4472L115.224 32.5528C114.652 32.2669 114.038 32.1075 113.277 32.2597C112.544 32.4062 111.723 32.8326 110.7 33.6L111.3 34.4ZM114.776 33.4472C115.42 33.769 116.061 33.7565 116.721 33.5368C117.354 33.3258 118.029 32.9152 118.777 32.416L118.223 31.584C117.471 32.0848 116.896 32.4242 116.404 32.5882C115.939 32.7435 115.58 32.731 115.224 32.5528L114.776 33.4472ZM118.777 32.416C119.482 31.9463 120.05 31.7232 120.546 31.6131C121.048 31.5015 121.496 31.5 122 31.5V30.5C121.504 30.5 120.952 30.4985 120.329 30.6369C119.7 30.7768 119.018 31.0537 118.223 31.584L118.777 32.416ZM122 31.5C122.398 31.5 122.718 31.3416 122.957 31.0776C123.176 30.8358 123.311 30.5219 123.412 30.2206C123.514 29.9152 123.597 29.5631 123.681 29.2203C123.767 28.8685 123.857 28.5115 123.974 28.1581L123.026 27.8419C122.893 28.2385 122.796 28.6315 122.71 28.9828C122.622 29.3431 122.549 29.6473 122.463 29.9044C122.376 30.1656 122.293 30.3205 122.215 30.4067C122.157 30.4709 122.102 30.5 122 30.5V31.5ZM123.974 28.1581C124.115 27.7365 124.522 27.3578 125.079 27.0502C125.623 26.7499 126.223 26.5654 126.598 26.4903L126.402 25.5097C125.944 25.6013 125.244 25.8167 124.596 26.1748C123.961 26.5255 123.285 27.0635 123.026 27.8419L123.974 28.1581ZM126.314 26.4642C126.746 26.6369 127.463 26.8929 128.228 27.1066C128.982 27.3172 129.828 27.5 130.5 27.5V26.5C129.972 26.5 129.234 26.3494 128.497 26.1434C127.77 25.9404 127.087 25.6964 126.686 25.5358L126.314 26.4642ZM97.1464 38.6464C96.9457 38.8472 96.6714 39.206 96.5853 39.6242C96.5398 39.8451 96.5432 40.1046 96.6643 40.3589C96.7861 40.6144 97.0006 40.8093 97.2765 40.9472L97.7237 40.0528C97.5995 39.9907 97.5723 39.9397 97.567 39.9286C97.5611 39.9162 97.5519 39.8882 97.5648 39.8258C97.5953 39.6774 97.721 39.4861 97.8536 39.3536L97.1464 38.6464ZM97.2765 40.9472C97.42 41.019 97.4467 41.0774 97.4632 41.1268C97.4948 41.2218 97.5 41.3516 97.4999 41.6249C97.4998 42.1457 97.4976 42.8982 98.0837 43.7774L98.9158 43.2226C98.5019 42.6018 98.4998 42.1043 98.4999 41.6251C98.4999 41.3984 98.5052 41.0907 98.4119 40.8107C98.3034 40.4851 98.0802 40.231 97.7237 40.0528L97.2765 40.9472ZM98.0837 43.7774C98.275 44.0643 98.417 44.512 98.5234 45.0973C98.6282 45.6737 98.6889 46.3225 98.752 46.9849C98.8139 47.6348 98.8785 48.3031 98.9941 48.8729C99.1052 49.4205 99.2829 49.9902 99.6462 50.3536L100.353 49.6464C100.217 49.5098 100.082 49.2045 99.9741 48.674C99.871 48.1657 99.8106 47.5527 99.7475 46.8901C99.6856 46.24 99.6213 45.5451 99.5073 44.9184C99.395 44.3005 99.2245 43.6857 98.9158 43.2226L98.0837 43.7774ZM99.5525 50.2236C99.7255 50.5696 100.012 51.0904 100.311 51.5312C100.46 51.7498 100.623 51.9655 100.787 52.1321C100.869 52.2151 100.963 52.2987 101.067 52.3644C101.166 52.4265 101.316 52.5 101.5 52.5V51.5C101.583 51.5 101.622 51.5318 101.601 51.5184C101.585 51.5086 101.551 51.4828 101.5 51.4304C101.397 51.3262 101.273 51.1669 101.138 50.9688C100.871 50.5763 100.607 50.0971 100.447 49.7764L99.5525 50.2236ZM101.5 52.5C101.747 52.5 102.025 52.39 102.258 52.2812C102.515 52.1612 102.814 51.9948 103.132 51.8037C103.769 51.4213 104.53 50.9139 105.277 50.416L104.722 49.584C103.969 50.0861 103.23 50.5787 102.618 50.9463C102.311 51.1302 102.047 51.2763 101.835 51.375C101.73 51.4243 101.645 51.4581 101.58 51.4787C101.51 51.5011 101.488 51.5 101.5 51.5V52.5ZM105.277 50.416C106.463 49.6257 107.411 49.1033 107.723 48.9472L107.276 48.0528C106.922 48.2301 105.937 48.7743 104.722 49.584L105.277 50.416ZM107.025 48.6581L108.025 51.6581L108.974 51.3419L107.974 48.3419L107.025 48.6581ZM108.723 51.9472L109.723 51.4472L109.276 50.5528L108.276 51.0528L108.723 51.9472ZM109.116 51.3201L111.616 54.3201L112.384 53.6799L109.884 50.6799L109.116 51.3201ZM111.525 54.1581C111.621 54.4458 111.814 54.8853 112.094 55.3117C112.369 55.7312 112.762 56.1902 113.276 56.4472L113.723 55.5528C113.437 55.4098 113.164 55.1188 112.93 54.7633C112.702 54.4147 112.545 54.0542 112.474 53.8419L111.525 54.1581ZM113.276 56.4472C113.424 56.5212 113.618 56.6983 113.859 56.9998C114.093 57.2921 114.331 57.6477 114.584 58.0274C114.831 58.3977 115.093 58.7921 115.359 59.1248C115.618 59.4483 115.924 59.7712 116.276 59.9472L116.723 59.0528C116.575 58.9788 116.381 58.8017 116.14 58.5002C115.906 58.2079 115.669 57.8523 115.416 57.4726C115.169 57.1023 114.906 56.7079 114.64 56.3752C114.381 56.0517 114.075 55.7288 113.723 55.5528L113.276 56.4472ZM116.276 59.9472C117.131 60.3748 118.715 60.8191 119.378 60.9851L119.621 60.0149C118.952 59.8476 117.468 59.4252 116.723 59.0528L116.276 59.9472ZM119.947 60.7236L120.447 59.7236L119.553 59.2764L119.053 60.2764L119.947 60.7236ZM119.793 59.9552L125.293 62.4552L125.707 61.5448L120.207 59.0448L119.793 59.9552ZM125.947 62.2236L126.447 61.2236L125.553 60.7764L125.053 61.7764L125.947 62.2236ZM126.5 61V59.5H125.5V61H126.5ZM125.961 59.9985L132.461 60.4985L132.538 59.5015L126.038 59.0015L125.961 59.9985ZM132.723 60.4472L136.723 58.4472L136.276 57.5528L132.276 59.5528L132.723 60.4472ZM136.053 58.2236L140.553 67.2236L141.447 66.7764L136.947 57.7764L136.053 58.2236ZM141.248 67.4341L148.248 63.4341L147.752 62.5659L140.752 66.5659L141.248 67.4341ZM100.646 51.6457C100.408 51.884 99.6316 52.3494 98.6581 52.0249L98.3419 52.9736C99.7684 53.4491 100.925 52.7811 101.354 52.3528L100.646 51.6457ZM98.6581 52.0249C97.4141 51.6102 96.3939 51.4992 96 51.4992V52.4992C96.2727 52.4992 97.1859 52.5882 98.3419 52.9736L98.6581 52.0249ZM96.2774 51.5832C96.0476 51.43 95.6686 51.1462 95.302 50.8071C94.9274 50.4608 94.6061 50.0935 94.4472 49.7756L93.5528 50.2228C93.7939 50.705 94.2226 51.171 94.623 51.5413C95.0314 51.919 95.4524 52.2351 95.7226 52.4153L96.2774 51.5832ZM94.4472 49.7756C94.2351 49.3513 93.8334 49.1322 93.456 49.0258C93.0749 48.9183 92.6504 48.9039 92.2672 48.9388C91.8833 48.9737 91.5035 49.0614 91.2051 49.1866C91.0581 49.2482 90.9064 49.329 90.7826 49.4354C90.6694 49.5326 90.5 49.7214 90.5 49.9992H91.5C91.5 50.152 91.4087 50.2158 91.4342 50.1939C91.4491 50.1812 91.4966 50.1487 91.5918 50.1088C91.7778 50.0308 92.0542 49.9623 92.3578 49.9347C92.6621 49.907 92.9563 49.9239 93.1846 49.9883C93.4166 50.0537 93.5149 50.1472 93.5528 50.2228L94.4472 49.7756ZM90.5 49.9992C90.5 50.2026 90.5551 50.3751 90.5696 50.433C90.5839 50.4899 90.5803 50.4915 90.5774 50.5028C90.5693 50.5355 90.5349 50.6297 90.3891 50.824C90.2454 51.0156 90.0141 51.2778 89.6464 51.6455L90.3536 52.3526C90.7359 51.9702 91.0046 51.67 91.1891 51.4241C91.3714 51.181 91.4932 50.9627 91.5476 50.7454C91.6072 50.5068 91.5724 50.3209 91.5398 50.1904C91.5074 50.0608 91.5 50.0458 91.5 49.9992H90.5ZM89.6464 51.6455C89.4146 51.8773 89.014 52.2307 88.5826 52.5222C88.3673 52.6677 88.1541 52.7911 87.9579 52.8767C87.7566 52.9645 87.6036 52.999 87.5 52.999V53.999C87.7964 53.999 88.0934 53.9086 88.3577 53.7933C88.6272 53.6757 88.8952 53.5179 89.1424 53.3508C89.636 53.0173 90.0854 52.6207 90.3536 52.3526L89.6464 51.6455ZM87.5 52.999C86.9108 52.999 86.3759 53.3537 85.9964 53.6847C85.5987 54.0315 85.2705 54.4419 85.084 54.7217L85.916 55.2764C86.0629 55.0561 86.3346 54.7166 86.6536 54.4384C86.9908 54.1443 87.2892 53.999 87.5 53.999V52.999ZM85.2871 55.4514L93.7871 59.4514L94.2129 58.5466L85.7129 54.5466L85.2871 55.4514ZM93.5 58.999C93.5 59.3673 93.5535 59.9295 93.7296 60.4184C93.8923 60.8705 94.2571 61.499 95 61.499V60.499C94.9429 60.499 94.8077 60.4608 94.6704 60.0797C94.5465 59.7352 94.5 59.2974 94.5 58.999H93.5ZM95 61.499H96.5V60.499H95V61.499ZM96 60.999C96 61.2411 96.0208 61.5907 96.0841 61.9159C96.1156 62.0781 96.161 62.2512 96.2284 62.4076C96.2911 62.5532 96.3987 62.7459 96.5897 62.8734L97.145 62.0418C97.1909 62.0724 97.1801 62.0892 97.1467 62.0119C97.1181 61.9453 97.0897 61.8482 97.0657 61.7249C97.0178 61.4791 97 61.1963 97 60.999H96ZM96.5897 62.8734C96.7041 62.9498 96.8436 62.999 97 62.999V61.999C97.0594 61.999 97.1107 62.0189 97.145 62.0418L96.5897 62.8734ZM97.1581 62.0247C97.1115 62.0092 97.0613 61.9934 97.0082 61.9778L96.7265 62.9373C96.7687 62.9497 96.8074 62.9619 96.8419 62.9734L97.1581 62.0247ZM97.0082 61.9778C96.7136 61.8913 96.2971 61.7995 95.8909 61.7814C95.6876 61.7723 95.469 61.7808 95.2617 61.8272C95.0566 61.873 94.8283 61.9637 94.6464 62.1455L95.3536 62.8526C95.3555 62.8506 95.3848 62.8243 95.4798 62.8031C95.5726 62.7824 95.6965 62.7737 95.8464 62.7804C96.1467 62.7938 96.4801 62.865 96.7265 62.9373L97.0082 61.9778ZM94.6464 62.1455C94.6438 62.1481 94.6088 62.1785 94.4957 62.2C94.3865 62.2208 94.2432 62.2256 94.075 62.2129C93.7384 62.1876 93.3797 62.0985 93.1581 62.0247L92.8419 62.9734C93.1203 63.0662 93.5616 63.1771 94 63.2101C94.2193 63.2266 94.4573 63.2252 94.6824 63.1824C94.9037 63.1404 95.1562 63.0499 95.3536 62.8526L94.6464 62.1455ZM92.6464 62.1455L91.6464 63.1455L92.3536 63.8526L93.3536 62.8526L92.6464 62.1455ZM91.5528 63.7226L92.5528 65.7226L93.4472 65.2754L92.4472 63.2754L91.5528 63.7226ZM92.6464 65.1455L92.1464 65.6455L92.8536 66.3526L93.3536 65.8526L92.6464 65.1455ZM92 65.999V69.499H93V65.999H92ZM92.2226 69.083L89.2226 71.083L89.7774 71.915L92.7774 69.915L92.2226 69.083ZM89.8536 71.1455L88.8536 70.1455L88.1464 70.8526L89.1464 71.8526L89.8536 71.1455ZM88.4019 70.0087L85.9019 70.5087L86.0981 71.4893L88.5981 70.9893L88.4019 70.0087ZM85.7428 70.5703L83.2428 72.0703L83.7572 72.9278L86.2572 71.4278L85.7428 70.5703ZM83.0713 72.2418L81.5713 74.7418L82.4287 75.2563L83.9287 72.7563L83.0713 72.2418ZM81.8419 74.5247L80.3419 75.0247L80.6581 75.9734L82.1581 75.4734L81.8419 74.5247ZM80.0528 75.2754C79.9028 75.5755 79.6458 75.9475 79.3765 76.1479C79.2458 76.2452 79.1513 76.2729 79.0927 76.2741C79.0517 76.275 78.9738 76.2657 78.8536 76.1455L78.1464 76.8526C78.4262 77.1323 78.7567 77.2814 79.1136 77.2739C79.4529 77.2668 79.7459 77.1195 79.9735 76.9501C80.4209 76.6172 80.7639 76.0892 80.9472 75.7226L80.0528 75.2754ZM78.8536 76.1455C78.6089 75.9008 78.3709 75.662 78.1361 75.4708C77.8984 75.2771 77.6346 75.1068 77.3249 75.0183C76.671 74.8314 76.0094 75.0585 75.2226 75.583L75.7774 76.415C76.4906 75.9395 76.829 75.9166 77.0501 75.9798C77.1779 76.0163 77.3203 76.096 77.5045 76.246C77.6916 76.3985 77.8911 76.5973 78.1464 76.8526L78.8536 76.1455ZM75.2226 75.583C74.8978 75.7996 74.6942 75.8549 74.5534 75.8685C74.3889 75.8845 74.2743 75.8546 74.0082 75.8165C73.7523 75.78 73.441 75.7574 73.044 75.8694C72.6597 75.9777 72.2291 76.2022 71.7 76.599L72.3 77.399C72.7709 77.0458 73.0903 76.8953 73.3154 76.8318C73.5277 76.7719 73.6852 76.7806 73.8668 76.8065C74.0382 76.831 74.3299 76.8948 74.6497 76.8639C74.9933 76.8306 75.3522 76.6985 75.7774 76.415L75.2226 75.583ZM71.7 76.599C70.7059 77.3446 70.2606 77.7752 70.0002 77.9836C69.7567 78.1783 69.5731 78.2809 68.8419 78.5247L69.1581 79.4734C69.9269 79.2171 70.2433 79.0697 70.6248 78.7645C70.9894 78.4728 71.2941 78.1535 72.3 77.399L71.7 76.599ZM68.8419 78.5247C68.155 78.7537 67.5549 79.1746 67.0917 79.5888C66.6275 80.004 66.2745 80.4359 66.084 80.7217L66.916 81.2764C67.0588 81.0622 67.3559 80.6941 67.7583 80.3342C68.1617 79.9735 68.645 79.6444 69.1581 79.4734L68.8419 78.5247ZM66.0257 80.8409L65.5257 82.3409L66.4743 82.6571L66.9743 81.1571L66.0257 80.8409ZM66.1213 82.014C65.7612 81.9239 65.179 81.8182 64.5757 81.7872C63.993 81.7572 63.2985 81.7907 62.7764 82.0518L63.2236 82.9462C63.5015 82.8073 63.9736 82.7575 64.5243 82.7859C65.0543 82.8131 65.5721 82.9074 65.8787 82.9841L66.1213 82.014ZM62.7764 82.0518C62.2651 82.3074 61.8656 82.499 61.375 82.499C60.8958 82.499 60.2494 82.3111 59.3 81.599L58.7 82.399C59.7506 83.187 60.6042 83.499 61.375 83.499C62.1344 83.499 62.7349 83.1906 63.2236 82.9462L62.7764 82.0518ZM59.3 81.599C57.2519 80.063 56.6698 80.0249 55.7236 79.5518L55.2764 80.4462C56.3302 80.9731 56.7481 80.9351 58.7 82.399L59.3 81.599ZM55.7236 79.5518C55.236 79.308 54.4887 79.1771 53.8181 79.1021C53.126 79.0247 52.4322 78.999 52 78.999V79.999C52.4012 79.999 53.0574 80.0233 53.7069 80.0959C54.3779 80.1709 54.964 80.29 55.2764 80.4462L55.7236 79.5518ZM52.5 79.499C52.5 78.7928 51.9774 77.4287 50.2236 76.5518L49.7764 77.4462C51.2226 78.1693 51.5 79.2052 51.5 79.499H52.5ZM50.2236 76.5518C49.3858 76.1329 48.9474 75.4008 48.4472 74.4004C47.9592 73.4243 47.4231 72.2151 46.3536 71.1455L45.6464 71.8526C46.5769 72.783 47.0408 73.8237 47.5528 74.8476C48.0526 75.8473 48.6142 76.8651 49.7764 77.4462L50.2236 76.5518ZM46.3536 71.1455C45.2807 70.0726 44.3248 69.6611 43.3874 69.3933C42.4408 69.1228 41.6685 69.0242 40.7236 68.5518L40.2764 69.4462C41.3315 69.9738 42.3092 70.1252 43.1126 70.3548C43.9252 70.587 44.7193 70.9254 45.6464 71.8526L46.3536 71.1455ZM40.7236 68.5518L34.7236 65.5518L34.2764 66.4462L40.2764 69.4462L40.7236 68.5518ZM34.9743 65.8409L34.4743 64.3409L33.5257 64.6571L34.0257 66.1571L34.9743 65.8409ZM34 63.999H33.5V64.999H34V63.999ZM65.5713 82.7563C65.8381 83.201 66.3329 83.903 66.9682 84.5991C67.6002 85.2915 68.3985 86.0083 69.2764 86.4472L69.7236 85.5528C69.0015 85.1917 68.2998 84.5746 67.7068 83.9249C67.1171 83.2789 66.6619 82.6304 66.4287 82.2418L65.5713 82.7563ZM69.2764 86.4472C70.3958 87.0069 71.3843 87.0054 72.2072 86.8682C72.6075 86.8015 72.9779 86.7006 73.2775 86.6257C73.5953 86.5463 73.82 86.5 74 86.5V85.5C73.68 85.5 73.3422 85.5787 73.035 85.6556C72.7096 85.7369 72.3925 85.8235 72.0428 85.8818C71.3657 85.9946 70.6042 85.9931 69.7236 85.5528L69.2764 86.4472ZM74 86.5C74.3366 86.5 74.4754 86.5708 74.5148 86.5982C74.5541 86.6255 74.5 86.6075 74.5 86.5H75.5C75.5 85.9048 74.8939 85.5 74 85.5V86.5ZM75.416 86.7773C75.5573 86.5655 75.8132 86.2701 76.1012 86.0793C76.3936 85.8855 76.6092 85.8636 76.7764 85.9472L77.2236 85.0528C76.5908 84.7364 75.9731 84.9645 75.5488 85.2457C75.1201 85.5299 74.7761 85.9345 74.584 86.2227L75.416 86.7773ZM76.7764 85.9472C76.9542 86.0361 77.1273 86.1787 77.3117 86.3703C77.5015 86.5674 77.6678 86.7765 77.8704 87.0129C78.2248 87.4264 78.7401 88 79.5 88V87C79.2599 87 79.0252 86.8236 78.6296 86.3621C78.4572 86.161 78.2485 85.9014 78.032 85.6766C77.8102 85.4463 77.5458 85.2139 77.2236 85.0528L76.7764 85.9472ZM79.5 88C79.8598 88 80.3819 88.1927 80.825 88.525C81.2823 88.8679 81.5 89.2383 81.5 89.5H82.5C82.5 88.7617 81.9677 88.1321 81.425 87.725C80.8681 87.3073 80.1402 87 79.5 87V88ZM81.7764 89.9472L82.7764 90.4472L83.2236 89.5528L82.2236 89.0528L81.7764 89.9472ZM82.5 90V90.5H83.5V90H82.5ZM82.7428 90.9287L85.2428 92.4287L85.7572 91.5713L83.2572 90.0713L82.7428 90.9287ZM85.0031 92.0552L85.5031 96.5552L86.4969 96.4448L85.9969 91.9448L85.0031 92.0552ZM85.5149 96.3787L84.5149 100.379L85.4851 100.621L86.4851 96.6213L85.5149 96.3787ZM84.6464 100.854L85.1464 101.354L85.8536 100.646L85.3536 100.146L84.6464 100.854ZM85.697 101.46L89.197 99.9596L88.803 99.0404L85.303 100.54L85.697 101.46ZM88.505 99.5707L89.005 103.071L89.995 102.929L89.495 99.4293L88.505 99.5707ZM89.084 103.277C89.2539 103.532 89.5331 103.938 89.8214 104.333C90.1028 104.718 90.4155 105.123 90.6464 105.354L91.3536 104.646C91.1846 104.477 90.9138 104.132 90.6286 103.742C90.3503 103.362 90.0794 102.968 89.916 102.723L89.084 103.277ZM90.6464 105.354C90.6586 105.366 90.5609 105.274 90.5834 105.103C90.6017 104.965 90.6866 104.91 90.6491 104.942C90.6223 104.966 90.5734 104.999 90.475 105.063C90.3869 105.119 90.2688 105.194 90.1469 105.281C89.8996 105.457 89.6078 105.706 89.38 106.072C89.149 106.444 89 106.911 89 107.5H90C90 107.089 90.101 106.806 90.2293 106.6C90.361 106.388 90.5379 106.23 90.7281 106.094C90.825 106.025 90.9178 105.967 91.0153 105.904C91.1023 105.848 91.2136 105.777 91.304 105.698C91.3837 105.629 91.5429 105.476 91.5748 105.234C91.6109 104.961 91.4664 104.759 91.3536 104.646L90.6464 105.354ZM89 107.5C89 108.333 89.0867 108.96 89.2033 109.412C89.3135 109.84 89.4658 110.173 89.6464 110.354L90.3536 109.646C90.3675 109.66 90.2698 109.544 90.1717 109.163C90.08 108.807 90 108.267 90 107.5H89ZM89.6464 109.646L83.1464 116.146L83.8536 116.854L90.3536 110.354L89.6464 109.646ZM83.1464 116.146C81.6018 117.691 81.524 118.313 80.584 119.723L81.416 120.277C82.476 118.687 82.3982 118.309 83.8536 116.854L83.1464 116.146ZM80.584 119.723C80.328 120.107 80.1618 120.416 80.0931 120.691C80.0125 121.014 80.0714 121.261 80.1778 121.474C80.2186 121.555 80.2742 121.645 80.3044 121.697C80.3406 121.759 80.3711 121.816 80.3978 121.88C80.4484 122.001 80.5 122.185 80.5 122.5H81.5C81.5 122.065 81.4266 121.749 81.3209 121.495C81.2695 121.372 81.2141 121.272 81.1682 121.193C81.1164 121.105 81.0939 121.07 81.0722 121.026C81.0536 120.989 81.05 120.986 81.0632 120.934C81.0882 120.834 81.172 120.643 81.416 120.277L80.584 119.723ZM80.5 122.5V125H81.5V122.5H80.5ZM80.5257 124.842L79.5257 127.842L80.4743 128.158L81.4743 125.158L80.5257 124.842ZM79.5528 128.224L80.0528 129.224L80.9472 128.776L80.4472 127.776L79.5528 128.224ZM80.0149 128.879C79.9221 129.25 79.8372 129.834 79.8897 130.396C79.9396 130.932 80.1343 131.626 80.7764 131.947L81.2236 131.053C81.0657 130.974 80.9271 130.751 80.8853 130.304C80.8461 129.883 80.9113 129.416 80.9851 129.121L80.0149 128.879ZM80.7764 131.947C81.1268 132.122 81.4363 132.5 81.6608 133.061C81.8828 133.616 82 134.301 82 135H83C83 134.199 82.8672 133.384 82.5892 132.689C82.3137 132 81.8732 131.378 81.2236 131.053L80.7764 131.947ZM82 135C82 135.423 82.0693 135.784 82.2609 136.078C82.4562 136.377 82.7327 136.537 82.9905 136.647C83.5352 136.881 84.0192 136.947 84.7226 137.416L85.2774 136.584C84.4808 136.053 83.7148 135.869 83.3845 135.728C83.2048 135.651 83.1376 135.592 83.0985 135.532C83.0557 135.466 83 135.327 83 135H82ZM84.7226 137.416C85.4889 137.927 85.8605 138.23 86.0431 138.641C86.2252 139.05 86.2572 139.665 86.0097 140.902L86.9903 141.098C87.2428 139.835 87.2748 138.95 86.9569 138.234C86.6395 137.52 86.0111 137.073 85.2774 136.584L84.7226 137.416ZM86.0097 140.902C85.7645 142.128 85.3834 143.784 85.1324 145.227C85.0062 145.952 84.9087 146.646 84.8758 147.23C84.8594 147.521 84.8584 147.796 84.8811 148.039C84.903 148.276 84.9502 148.518 85.0528 148.724L85.9472 148.276C85.9248 148.232 85.8938 148.13 85.8768 147.947C85.8603 147.77 85.8594 147.549 85.8742 147.286C85.9038 146.76 85.9938 146.11 86.1176 145.398C86.3666 143.966 86.7355 142.372 86.9903 141.098L86.0097 140.902ZM85.0528 148.724C85.5902 149.798 86 150.152 86 151.5H87C87 149.848 86.4098 149.202 85.9472 148.276L85.0528 148.724ZM86 151.5C86 152.212 85.989 152.971 86.3028 153.599C86.6442 154.281 87.3057 154.717 88.3787 154.985L88.6213 154.015C87.6943 153.783 87.3558 153.469 87.1972 153.151C87.011 152.779 87 152.288 87 151.5H86ZM88.3787 154.985C89.3603 155.23 89.9118 155.462 90.2719 155.719C90.6147 155.964 90.8197 156.257 91.0528 156.724L91.9472 156.276C91.6803 155.743 91.3853 155.286 90.8531 154.906C90.3382 154.538 89.6397 154.27 88.6213 154.015L88.3787 154.985ZM91.0528 156.724C91.206 157.03 91.4886 157.411 91.8235 157.802C92.1652 158.201 92.5848 158.636 93.0348 159.054C93.9146 159.871 94.9819 160.688 95.8419 160.974L96.1581 160.026C95.5181 159.812 94.5854 159.129 93.7152 158.321C93.2902 157.926 92.8973 157.518 92.5828 157.151C92.2614 156.776 92.044 156.47 91.9472 156.276L91.0528 156.724ZM95.8419 160.974C97.1175 161.4 98.8138 161.5 99.5 161.5V160.5C98.8529 160.5 97.2825 160.4 96.1581 160.026L95.8419 160.974ZM99.1464 161.354L99.6464 161.854L100.354 161.146L99.8536 160.646L99.1464 161.354ZM99.5257 161.342C99.4328 161.62 99.3219 162.062 99.2889 162.5C99.2724 162.719 99.2738 162.957 99.3166 163.182C99.3587 163.404 99.4491 163.656 99.6464 163.854L100.354 163.146C100.351 163.144 100.321 163.109 100.299 162.996C100.278 162.886 100.273 162.743 100.286 162.575C100.311 162.238 100.4 161.88 100.474 161.658L99.5257 161.342ZM99.6464 163.854C99.8203 164.027 100.504 164.87 101.321 165.898C102.124 166.909 103.023 168.058 103.605 168.807L104.395 168.193C103.811 167.442 102.91 166.291 102.104 165.277C101.313 164.28 100.58 163.373 100.354 163.146L99.6464 163.854ZM103.743 168.929C104.586 169.435 105.902 170.169 107.115 170.729C107.72 171.008 108.315 171.251 108.819 171.399C109.07 171.472 109.315 171.527 109.537 171.546C109.745 171.565 110 171.559 110.224 171.447L109.776 170.553C109.8 170.541 109.769 170.563 109.625 170.55C109.494 170.539 109.318 170.503 109.1 170.439C108.665 170.311 108.121 170.092 107.535 169.821C106.364 169.281 105.081 168.565 104.257 168.071L103.743 168.929ZM110.224 171.447C110.643 171.237 111.198 171.12 111.8 171.06C112.396 171 112.997 171 113.5 171V170C113.003 170 112.354 170 111.7 170.065C111.052 170.13 110.357 170.263 109.776 170.553L110.224 171.447ZM113.621 170.985L115.621 170.485L115.379 169.515L113.379 170.015L113.621 170.985ZM83.1581 90.4743L84.6581 89.9743L84.3419 89.0257L82.8419 89.5257L83.1581 90.4743ZM84.8536 89.8536L86.8536 87.8536L86.1464 87.1464L84.1464 89.1464L84.8536 89.8536ZM86.9743 87.3419C86.8289 86.9055 86.6196 85.7223 86.9743 84.6581L86.0257 84.3419C85.5804 85.6777 85.8378 87.0945 86.0257 87.6581L86.9743 87.3419ZM87 84.5C87 84.2221 86.8959 83.7816 86.7954 83.4077C86.6881 83.0087 86.5601 82.5991 86.4743 82.3419L85.5257 82.6581C85.6066 82.9009 85.7286 83.2913 85.8296 83.6673C85.9375 84.0684 86 84.3779 86 84.5H87ZM86 83H87V82H86V83ZM86.5713 82.7572C87.1261 83.6819 88.8648 85.5 91.5 85.5V84.5C89.3352 84.5 87.8739 82.9847 87.4287 82.2428L86.5713 82.7572ZM91.5 85.5C91.7243 85.5 92.0918 85.523 92.4425 85.5909C92.6173 85.6247 92.7764 85.6675 92.9064 85.7186C93.0415 85.7716 93.1146 85.8217 93.1464 85.8536L93.8536 85.1464C93.6854 84.9783 93.471 84.8659 93.2718 84.7877C93.0673 84.7075 92.8452 84.6503 92.6325 84.6091C92.2082 84.527 91.7757 84.5 91.5 84.5V85.5ZM93.1464 85.8536C93.2456 85.9527 93.3686 86.0141 93.4567 86.0523C93.5556 86.0952 93.6687 86.1328 93.7871 86.1665C94.0244 86.234 94.3214 86.2961 94.6502 86.3522C95.3101 86.4649 96.1386 86.5602 96.9617 86.6235C97.7842 86.6868 98.6147 86.7192 99.2778 86.703C99.6078 86.6949 99.9096 86.6746 100.153 86.6366C100.275 86.6177 100.394 86.5925 100.502 86.5569C100.597 86.5255 100.739 86.4681 100.854 86.3536L100.146 85.6464C100.199 85.5944 100.235 85.5917 100.187 85.6076C100.152 85.6195 100.091 85.6343 99.9991 85.6486C99.817 85.677 99.5641 85.6957 99.2534 85.7033C98.6353 85.7183 97.8408 85.6882 97.0383 85.6265C96.2364 85.5648 95.4399 85.4726 94.8185 85.3665C94.5067 85.3133 94.249 85.2582 94.0606 85.2046C93.966 85.1777 93.8985 85.1539 93.8544 85.1347C93.7994 85.1109 93.8169 85.1098 93.8536 85.1464L93.1464 85.8536ZM100.854 86.3536C101.109 86.0985 101.14 85.7242 101.137 85.4753C101.135 85.1896 101.083 84.8662 101.013 84.5533C100.872 83.9234 100.637 83.2469 100.464 82.8143L99.5358 83.1857C99.6961 83.5865 99.9114 84.2099 100.037 84.7717C100.1 85.0546 100.136 85.3 100.138 85.4841C100.139 85.7049 100.091 85.7015 100.146 85.6464L100.854 86.3536ZM100.354 82.6464L99.8536 82.1464L99.1464 82.8536L99.6464 83.3536L100.354 82.6464ZM100 82.5V81.5H99V82.5H100ZM99.916 81.7774L100.916 80.2774L100.084 79.7226L99.084 81.2226L99.916 81.7774ZM100.929 80.2572L102.429 77.7572L101.571 77.2428L100.071 79.7428L100.929 80.2572ZM102.5 77.5V77H101.5V77.5H102.5ZM102 76.5H100.5V77.5H102V76.5ZM100.985 77.1213L101.485 75.1213L100.515 74.8787L100.015 76.8787L100.985 77.1213ZM101 74.5H97.5V75.5H101V74.5ZM97.6581 74.5257L96.1581 74.0257L95.8419 74.9743L97.3419 75.4743L97.6581 74.5257ZM96.5 74.5C96.5 74.0257 96.548 73.2582 96.6909 72.52C96.7622 72.1514 96.855 71.8017 96.9717 71.5046C97.0904 71.2022 97.2217 70.9854 97.3536 70.8536L96.6464 70.1464C96.3783 70.4146 96.1846 70.7728 96.0408 71.1392C95.895 71.5108 95.7878 71.9236 95.7091 72.33C95.552 73.1418 95.5 73.9743 95.5 74.5H96.5ZM92.5 70.0001H94V69.0001H92.5V70.0001ZM93.5 69.5001V71.0001H94.5V69.5001H93.5ZM94 71.5001H94.5V70.5001H94V71.5001ZM94.5822 71.4933L97.5822 70.9933L97.4178 70.0069L94.4178 70.5069L94.5822 71.4933ZM97.0528 70.7237C97.1495 70.9172 97.321 71.2041 97.5334 71.4511C97.6397 71.5747 97.7689 71.7031 97.9171 71.804C98.0621 71.9027 98.2623 72.0001 98.5 72.0001V71.0001C98.5377 71.0001 98.5337 71.0141 98.4798 70.9773C98.429 70.9428 98.3644 70.8837 98.2916 70.799C98.1457 70.6294 98.0171 70.4163 97.9472 70.2765L97.0528 70.7237ZM98.5 72.0001H101.5V71.0001H98.5V72.0001ZM101.223 71.9161L102.723 72.9161L103.277 72.084L101.777 71.084L101.223 71.9161ZM102.743 72.9288C103.696 73.5005 106.101 74.1598 108.312 72.3905L107.688 71.6096C105.899 73.0404 103.971 72.4996 103.257 72.0713L102.743 72.9288ZM108.312 72.3905C108.942 71.887 109.491 71.4031 109.954 71.0165C110.429 70.6189 110.817 70.3203 111.175 70.1278C111.523 69.9403 111.814 69.8692 112.101 69.8963C112.394 69.9239 112.746 70.0594 113.2 70.4001L113.8 69.6001C113.254 69.1907 112.731 68.9512 112.195 68.9007C111.655 68.8497 111.165 68.9973 110.7 69.2473C110.245 69.4924 109.79 69.85 109.312 70.2493C108.821 70.6595 108.308 71.1131 107.688 71.6096L108.312 72.3905ZM113.2 70.4001C113.673 70.7547 114.123 71.1734 114.571 71.6145C115.011 72.0464 115.466 72.517 115.91 72.929C116.789 73.7452 117.79 74.5001 119 74.5001V73.5001C118.21 73.5001 117.461 73.005 116.59 72.1962C116.159 71.7957 115.739 71.3599 115.272 70.9013C114.815 70.4517 114.327 69.9955 113.8 69.6001L113.2 70.4001ZM119 74.5001C120.253 74.5001 121.259 73.5725 121.966 72.6082C122.691 71.6187 123.212 70.4438 123.474 69.6582L122.526 69.3419C122.288 70.0563 121.809 71.1314 121.159 72.0169C120.491 72.9277 119.747 73.5001 119 73.5001V74.5001ZM123.474 69.6582C123.677 69.051 124.079 68.6357 124.632 68.3038C125.201 67.9623 125.896 67.7285 126.658 67.4744L126.342 66.5257C125.604 66.7717 124.799 67.0378 124.118 67.4463C123.421 67.8645 122.823 68.4491 122.526 69.3419L123.474 69.6582ZM126.658 67.4744C127.371 67.2368 127.605 67.2806 127.752 67.3393C127.851 67.379 127.948 67.4411 128.121 67.5567C128.286 67.6666 128.496 67.8071 128.776 67.9473L129.224 67.0529C129.004 66.9431 128.839 66.8335 128.676 66.7247C128.521 66.6215 128.337 66.4962 128.123 66.4108C127.645 66.2195 127.129 66.2633 126.342 66.5257L126.658 67.4744ZM128.776 67.9473C129.448 68.2833 129.916 68.9503 130.053 69.2236L130.947 68.7764C130.751 68.3831 130.152 67.5169 129.224 67.0529L128.776 67.9473ZM130 69V70.0001H131V69H130ZM130.276 69.5528L129.276 70.0528L129.724 70.9472L130.724 70.4473L130.276 69.5528ZM129.146 70.8536L130.146 71.8536L130.854 71.1464L129.854 70.1464L129.146 70.8536ZM130.715 71.9514L141.215 66.9514L140.785 66.0486L130.285 71.0486L130.715 71.9514ZM140.553 66.7236L145.053 75.7236L145.947 75.2764L141.447 66.2764L140.553 66.7236ZM145.243 75.0713L142.743 76.5713L143.257 77.4287L145.757 75.9287L145.243 75.0713ZM143 76.5C143.003 76.5 142.982 76.4998 142.938 76.49C142.897 76.4809 142.843 76.4649 142.781 76.4388C142.656 76.3868 142.504 76.2968 142.354 76.1464L141.646 76.8536C142.138 77.3454 142.698 77.5 143 77.5V76.5ZM142.354 76.1464C142.279 76.0716 142.199 76.0006 142.114 75.9437C142.035 75.8903 141.915 75.8243 141.766 75.8077C141.591 75.7883 141.417 75.8423 141.284 75.965C141.17 76.0692 141.116 76.1951 141.088 76.2794C141.033 76.446 141.016 76.6494 141.008 76.8298C141 77.0228 141 77.2537 141 77.5H142C142 77.2463 142 77.0397 142.007 76.8733C142.011 76.791 142.016 76.7258 142.022 76.6752C142.026 76.6502 142.029 76.6311 142.032 76.6169C142.033 76.6099 142.034 76.6047 142.035 76.601C142.036 76.5973 142.037 76.5956 142.037 76.5956C142.037 76.5956 142.036 76.598 142.034 76.6023C142.032 76.6066 142.029 76.6136 142.024 76.6225C142.014 76.6397 141.995 76.6695 141.961 76.701C141.876 76.7788 141.761 76.8133 141.656 76.8016C141.577 76.7929 141.539 76.762 141.556 76.7731C141.567 76.7807 141.596 76.8034 141.646 76.8536L142.354 76.1464ZM141 77.5V80.5H142V77.5H141ZM141.5 80C141.222 80 140.608 80.1369 139.776 80.5528L140.224 81.4472C140.599 81.2595 140.905 81.1457 141.129 81.0796C141.241 81.0465 141.331 81.0259 141.397 81.0138C141.43 81.0078 141.456 81.0042 141.475 81.0021C141.495 80.9999 141.502 81 141.5 81V80ZM139.776 80.5528C139.133 80.8746 138.817 81.3659 138.603 81.8655C138.501 82.1036 138.415 82.3616 138.333 82.5906C138.249 82.8285 138.164 83.0549 138.053 83.2764L138.947 83.7236C139.086 83.4451 139.188 83.1715 139.276 82.925C139.367 82.6697 139.437 82.4589 139.522 82.2595C139.683 81.8841 139.867 81.6254 140.224 81.4472L139.776 80.5528ZM138.053 83.2764C137.99 83.4015 137.806 83.5908 137.441 83.834C137.094 84.0658 136.648 84.3045 136.151 84.5528C135.189 85.0342 134.007 85.561 133.223 86.084L133.777 86.916C134.493 86.439 135.561 85.9658 136.599 85.4472C137.102 85.1955 137.594 84.9342 137.996 84.666C138.381 84.4092 138.76 84.0985 138.947 83.7236L138.053 83.2764ZM133.223 86.084C132.569 86.52 131.669 86.75 130.875 86.75C130.48 86.75 130.138 86.693 129.881 86.5953C129.62 86.4958 129.496 86.3742 129.447 86.2764L128.553 86.7236C128.754 87.1258 129.13 87.3792 129.525 87.5297C129.925 87.682 130.395 87.75 130.875 87.75C131.831 87.75 132.931 87.48 133.777 86.916L133.223 86.084ZM129.447 86.2764C129.336 86.0549 129.251 85.8285 129.167 85.5906C129.085 85.3616 128.999 85.1036 128.897 84.8655C128.683 84.3659 128.367 83.8746 127.724 83.5528L127.276 84.4472C127.633 84.6254 127.817 84.8841 127.978 85.2595C128.063 85.4589 128.133 85.6697 128.224 85.925C128.312 86.1715 128.414 86.4451 128.553 86.7236L129.447 86.2764ZM127.724 83.5528C127.167 83.2747 126.591 83.125 126.062 83.125C125.537 83.125 125.018 83.2752 124.646 83.6464L125.354 84.3536C125.482 84.2248 125.713 84.125 126.062 84.125C126.409 84.125 126.833 84.2253 127.276 84.4472L127.724 83.5528ZM124.646 83.6464C124.686 83.6073 124.764 83.5705 124.85 83.5805C124.907 83.5872 124.914 83.6089 124.869 83.5723C124.779 83.4996 124.645 83.3313 124.5 83.0697C124.209 82.5459 124 81.882 124 81.5H123C123 82.118 123.291 82.9541 123.625 83.5553C123.793 83.8562 124.002 84.1567 124.24 84.3496C124.359 84.4458 124.527 84.5496 124.734 84.5738C124.97 84.6013 125.189 84.5177 125.354 84.3536L124.646 83.6464ZM124 81.5C124 81.3613 123.992 81.2249 123.965 81.1066C123.952 81.0476 123.93 80.9706 123.887 80.8938C123.844 80.8178 123.76 80.706 123.611 80.642C123.278 80.4993 123.024 80.727 122.971 80.7769C122.884 80.86 122.813 80.9648 122.759 81.0553C122.54 81.4199 122.275 82.0926 122.026 82.8419L122.974 83.1581C123.225 82.4074 123.46 81.8301 123.616 81.5697C123.656 81.504 123.671 81.4915 123.66 81.5024C123.654 81.5077 123.618 81.542 123.551 81.5681C123.475 81.5981 123.35 81.6183 123.217 81.5611C123.095 81.5089 123.036 81.4215 123.015 81.3833C122.993 81.3443 122.988 81.3187 122.99 81.3251C122.992 81.3376 123 81.3887 123 81.5H124ZM122.026 82.8419C121.798 83.5234 121.331 84.3491 120.729 85.1326C120.127 85.9149 119.415 86.6223 118.723 87.084L119.277 87.916C120.085 87.3777 120.873 86.5851 121.521 85.7424C122.169 84.9009 122.702 83.9766 122.974 83.1581L122.026 82.8419ZM118.723 87.084C118.364 87.3231 118.098 87.4708 117.891 87.5903C117.791 87.6481 117.689 87.7079 117.603 87.7695C117.516 87.831 117.414 87.9156 117.334 88.0351C117.146 88.3169 117.196 88.613 117.251 88.8215C117.303 89.0223 117.411 89.313 117.526 89.6581L118.474 89.3419C118.339 88.937 118.26 88.7277 118.218 88.5691C118.179 88.4182 118.229 88.4956 118.166 88.5899C118.149 88.6157 118.14 88.6143 118.183 88.584C118.225 88.5538 118.287 88.516 118.39 88.4565C118.589 88.3417 118.886 88.1769 119.277 87.916L118.723 87.084ZM117.526 89.6581C117.632 89.976 117.601 90.0984 117.587 90.1369C117.569 90.1844 117.53 90.2358 117.375 90.3596C117.243 90.4652 117.002 90.6397 116.819 90.8985C116.62 91.179 116.5 91.5325 116.5 92H117.5C117.5 91.7175 117.568 91.571 117.635 91.4765C117.717 91.3603 117.819 91.2848 118 91.1404C118.158 91.0142 118.4 90.8156 118.523 90.4881C118.649 90.1516 118.618 89.774 118.474 89.3419L117.526 89.6581ZM116.5 92C116.5 92.706 116.382 93.5444 116.256 94.3615C116.135 95.1483 116 95.9508 116 96.5H117C117 96.0492 117.115 95.3517 117.244 94.5135C117.368 93.7056 117.5 92.794 117.5 92H116.5ZM116 96.5C116 96.7173 115.973 96.9688 115.94 97.2666C115.91 97.5516 115.875 97.875 115.875 98.1875C115.875 98.7971 116.009 99.5636 116.776 99.9472L117.224 99.0528C116.991 98.9364 116.875 98.7029 116.875 98.1875C116.875 97.9375 116.903 97.6672 116.935 97.3741C116.965 97.0937 117 96.7827 117 96.5H116ZM116.776 99.9472C116.879 99.9985 116.967 100.096 117.041 100.288C117.117 100.488 117.16 100.745 117.19 101.05C117.217 101.323 117.238 101.686 117.279 101.963C117.318 102.228 117.394 102.601 117.646 102.854L118.354 102.146C118.356 102.149 118.307 102.085 118.268 101.818C118.231 101.564 118.22 101.302 118.185 100.95C118.153 100.63 118.101 100.262 117.975 99.9308C117.845 99.5917 117.621 99.2515 117.224 99.0528L116.776 99.9472ZM117.646 102.854C117.633 102.841 117.672 102.876 117.698 103.044C117.722 103.195 117.727 103.393 117.713 103.62C117.687 104.073 117.593 104.566 117.515 104.879L118.485 105.121C118.574 104.767 118.68 104.21 118.712 103.68C118.727 103.415 118.726 103.138 118.686 102.888C118.649 102.653 118.567 102.359 118.354 102.146L117.646 102.854ZM99.9019 83.4903L102.402 83.9903L102.598 83.0097L100.098 82.5097L99.9019 83.4903ZM102.8 83.9L104.8 82.4L104.2 81.6L102.2 83.1L102.8 83.9ZM104.063 82.2428L106.563 86.7428L107.437 86.2572L104.937 81.7572L104.063 82.2428ZM107.416 86.7774L108.416 85.2774L107.584 84.7226L106.584 86.2226L107.416 86.7774ZM107.646 85.3536L108.146 85.8536L108.854 85.1464L108.354 84.6464L107.646 85.3536ZM108.004 85.438L107.504 89.438L108.496 89.562L108.996 85.562L108.004 85.438ZM108 89H106V90H108V89ZM105.646 89.1464L104.146 90.6464L104.854 91.3536L106.354 89.8536L105.646 89.1464ZM104.066 91.2481L108.066 98.2481L108.934 97.7519L104.934 90.7519L104.066 91.2481ZM108.5 98.5H110V97.5H108.5V98.5ZM109.504 98.062L110.504 106.062L111.496 105.938L110.496 97.938L109.504 98.062ZM110.646 106.354C110.934 106.641 111.434 107.029 112.035 107.295C112.635 107.56 113.396 107.729 114.158 107.474L113.842 106.526C113.404 106.671 112.915 106.59 112.44 106.38C111.966 106.171 111.566 105.859 111.354 105.646L110.646 106.354ZM114.158 107.474C114.931 107.217 116.349 106.573 117.817 105.962C119.32 105.335 120.903 104.729 122.098 104.49L121.902 103.51C120.597 103.771 118.93 104.415 117.433 105.038C115.901 105.677 114.569 106.283 113.842 106.526L114.158 107.474ZM122.098 104.49C124.088 104.092 125.216 104 125.5 104V103C125.117 103 123.912 103.108 121.902 103.51L122.098 104.49ZM125.297 103.957L129.797 105.957L130.203 105.043L125.703 103.043L125.297 103.957ZM129.624 105.829L133.124 109.829L133.876 109.171L130.376 105.171L129.624 105.829ZM133.12 109.825C133.599 110.384 134.355 111.407 135.038 112.631C135.724 113.86 136.317 115.257 136.505 116.571L137.495 116.429C137.283 114.943 136.626 113.423 135.912 112.144C135.195 110.86 134.401 109.783 133.88 109.175L133.12 109.825ZM136.505 116.571C136.766 118.401 137.295 119.459 137.747 120.3C138.195 121.132 138.5 121.646 138.5 122.5H139.5C139.5 121.354 139.055 120.618 138.628 119.825C138.205 119.041 137.734 118.099 137.495 116.429L136.505 116.571ZM138.5 122.5C138.5 123.058 138.605 123.604 138.723 124.133C138.844 124.675 138.978 125.193 139.069 125.765C139.244 126.878 139.247 128.155 138.54 129.803L139.46 130.197C140.253 128.345 140.256 126.872 140.056 125.61C139.959 124.995 139.812 124.418 139.699 123.914C139.583 123.396 139.5 122.942 139.5 122.5H138.5ZM151.188 62.1096L148.688 64.1096L149.312 64.8904L151.812 62.8904L151.188 62.1096ZM149.434 64.2519L147.434 60.7519L146.566 61.2481L148.566 64.7481L149.434 64.2519ZM147.5 61V59.5H146.5V61H147.5ZM147.461 59.306L143.461 49.806L142.539 50.194L146.539 59.694L147.461 59.306ZM142.824 49.5318L138.824 51.0318L139.176 51.9682L143.176 50.4682L142.824 49.5318ZM139.224 51.0528L137.224 50.0528L136.776 50.9472L138.776 51.9472L139.224 51.0528ZM137.5 50.5V49H136.5V50.5H137.5ZM137.121 48.5149L135.121 48.0149L134.879 48.9851L136.879 49.4851L137.121 48.5149ZM135.494 48.424L134.494 41.924L133.506 42.076L134.506 48.576L135.494 48.424ZM134.416 41.7226L132.416 38.7226L131.584 39.2774L133.584 42.2774L134.416 41.7226ZM132.186 39.4642L134.686 38.4642L134.314 37.5358L131.814 38.5358L132.186 39.4642ZM135 38V36H134V38H135ZM134.9 35.7L133.4 33.7L132.6 34.3L134.1 36.3L134.9 35.7ZM133.224 34.4472L134.224 33.9472L133.776 33.0528L132.776 33.5528L133.224 34.4472ZM134.464 33.3143L133.464 30.8143L132.536 31.1857L133.536 33.6857L134.464 33.3143ZM133.312 30.6096L130.812 28.6096L130.188 29.3904L132.688 31.3904L133.312 30.6096ZM130.99 28.9019L130.49 26.4019L129.51 26.5981L130.01 29.0981L130.99 28.9019Z" fill="#666FBD"/>
</svg>
