<svg width="224" height="202" viewBox="0 0 224 202" fill="none" xmlns="http://www.w3.org/2000/svg">
<mask id="path-1-inside-1_908_21813" fill="white">
<path d="M182.602 53.5993C182.129 49.7499 185.357 46.84 183.478 43.4455C182.025 40.8222 179.596 36.5237 176.619 36.1515C175.205 35.9742 173.729 35.8058 172.391 36.2962C171.113 36.763 169.906 37.8325 168.533 37.218C167.615 36.8073 167.133 35.8118 167.237 34.8162C167.435 32.887 169.024 31.7467 170.589 30.8811C171.87 30.175 173.249 29.534 174.181 28.4084C175.764 26.4941 175.711 23.5959 177.338 21.717C177.954 21.0051 178.815 20.4319 178.43 19.1291C178.161 18.2192 177.436 17.5102 176.539 17.1941C174.013 16.2989 171.107 15.1822 168.479 16.4585C167.941 16.7184 167.367 16.9075 166.772 16.9607C162.798 17.3241 164.02 12.0094 160.822 11.2531C160.047 11.0699 159.224 11.2531 158.561 11.6933C156.981 12.7479 156.546 14.6712 156.656 16.4467C156.75 17.9681 157.203 19.4659 157.972 20.7805C158.845 22.2813 160.124 23.5634 160.366 25.3744C160.452 26.0214 160.351 26.692 160.017 27.2533C158.961 29.0318 156.745 28.497 155.597 27.2415C154.676 26.237 154.256 24.8899 153.765 23.6196C152.972 21.5634 151.942 19.5988 150.7 17.779C150.04 16.813 149.057 16.0862 147.918 15.8115C145.048 15.1202 143.527 17.6195 141.861 19.4452C140.474 20.9637 137.923 22.11 136.509 20.6181C136.148 18.3787 135.754 16.0597 134.47 14.1896C133.186 12.3196 130.733 11.0433 128.606 11.8321C126.818 12.4939 125.709 14.3905 123.919 15.0493C121.768 15.841 119.448 14.6239 117.48 13.4481C113.178 10.872 108.769 8.20135 105.725 4.22198C101.239 -1.6422 91.1994 -0.581624 84.4797 2.48784C82.0387 3.60159 79.7662 5.16439 77.1535 5.77592C74.8545 6.31359 72.4489 6.0743 70.1084 6.39336C65.7766 6.98125 61.9626 9.40964 58.1072 11.4628C54.2518 13.519 49.8904 15.2856 45.6089 14.4053C43.5525 13.9799 41.4132 12.9606 39.4544 13.7169C38.62 14.0389 37.9394 14.6505 37.2796 15.2502C35.4984 16.8662 33.7171 18.4821 31.9388 20.0981C30.2996 21.587 28.6426 23.0937 27.4058 24.9283C24.7044 28.9372 24.296 34.051 24.5268 38.8783C24.6333 41.0851 24.8523 43.3333 23.8522 45.4219C23.5918 45.9685 23.2368 46.4707 22.79 46.8813C20.4465 49.0291 17.4255 47.7351 15.2774 46.0453C13.5109 44.6568 11.8924 42.9226 9.73537 42.2904C8.75598 42.0039 7.62864 41.9684 6.88892 43.0644C6.40071 43.7853 6.32082 44.707 6.58416 45.5371C7.11972 47.224 8.60803 48.2521 9.88035 49.4013C11.0018 50.4176 12.0551 51.7529 11.9516 53.2625C11.78 55.7086 8.87433 56.8637 6.45397 57.2714C4.0336 57.6791 1.13093 58.2374 0.237349 60.5211C-0.410647 62.1784 0.358668 63.9864 1.45345 65.4547C4.16083 66.1814 6.32673 67.6054 8.07839 69.7826C11.9309 74.5744 18.8783 76.6808 26.2164 75.2805L26.7194 75.183C28.2432 74.8846 29.9712 74.5449 31.7998 74.8462C35.7114 75.4932 38.0667 78.5479 40.1468 81.2392C40.709 81.966 41.2386 82.6543 41.783 83.2777C46.0941 88.2201 53.4588 90.2349 59.6902 88.1758C62.4804 87.2541 65.0221 85.6174 67.7147 83.8862C70.641 82.0014 73.668 80.0546 77.1831 78.9674C82.2073 77.4135 87.8351 77.7946 93.4599 80.0693C98.2385 82.0014 102.917 85.2215 106.988 89.3782C115.539 98.108 119.516 108.365 117.9 117.517C116.64 124.664 112.275 130.433 108.056 136.014C107.426 136.847 106.799 137.677 106.183 138.51C97.2946 150.543 90.5809 164.286 84.0892 177.577C83.382 179.025 82.6511 180.523 82.5505 181.941C82.3049 185.444 85.829 188.387 89.208 189.639C91.2437 190.393 93.4156 190.812 95.7146 191.255C98.0137 191.699 100.393 192.156 102.715 192.987C107.053 194.538 112.817 198.759 116.862 202C116.826 200.777 116.678 199.557 116.409 198.363C116.066 196.845 116.72 194.727 117.859 193.663L123.359 188.508C123.88 188.021 124.579 187.734 125.292 187.784C128.558 188.02 126.881 194.086 130.434 194.065C131.18 194.059 131.878 193.731 132.437 193.241C134.251 191.648 136.799 190.969 139.166 191.391C139.968 191.533 140.811 191.796 141.542 191.081C142.018 190.614 142.216 189.935 142.157 189.27C142 187.465 140.45 186.162 140.196 184.428C139.935 182.661 141.139 180.957 142.651 180.003C144.163 179.051 145.951 178.667 147.664 178.156C151.22 177.09 154.585 175.394 157.552 173.169C159.606 171.63 161.479 169.837 163.677 168.508C166.032 167.084 168.911 166.221 171.557 167.113C172.998 167.601 174.495 167.867 176.01 167.985C176.969 168.059 177.688 168.457 178.489 167.737C179.865 166.499 178.898 165.193 179.268 163.37C179.646 161.488 179.22 158.635 178.176 157.025C177.321 155.707 178.347 154.543 177.202 153.4C174.205 150.404 171.758 146.865 170.015 143.007C169.417 141.683 169.417 140.171 169.965 138.826C171.536 134.962 172.995 130.554 176.377 127.94C178.004 126.681 179.972 125.934 181.655 124.752C183.342 123.574 184.807 121.718 184.623 119.671C184.298 116.07 179.498 114.643 178.054 111.328C177.312 109.63 177.619 107.526 178.812 106.108C180.004 104.69 182.031 104.028 183.833 104.466C184.41 103.514 184.236 102.173 183.434 101.402C182.931 100.917 182.212 100.634 182.292 99.6501C182.348 98.9617 182.8 98.3709 183.428 98.0755C185.02 97.3251 186.768 98.0961 188.369 97.653C188.677 97.5673 188.99 97.4226 189.153 97.1508C189.354 96.8199 189.283 96.4004 189.195 96.0223C188.067 91.1891 185.026 86.8287 180.877 84.096C179.581 83.2422 178.146 82.5095 177.211 81.2717C175.818 79.4283 175.921 76.6099 177.448 74.8758C178.401 73.7916 179.765 73.1653 180.856 72.2229C181.463 71.7 181.179 70.4739 180.703 69.2686C180.17 67.9185 179.188 66.8107 177.989 65.9923C176.102 64.7043 174.823 62.4413 174.64 60.2138C174.566 59.3069 175.128 58.4354 176.013 58.2168C177.217 57.9213 177.972 59.0469 178.599 59.9657C180.735 63.0913 184.114 65.3483 187.825 66.1194C188.721 66.3055 189.748 66.3941 190.307 65.2567C190.514 64.8343 190.571 64.3587 190.511 63.8919C189.908 59.0765 183.197 58.3438 182.614 53.5993H182.602ZM203.306 56.6185C203.797 56.7544 204.335 56.6658 204.812 56.8489C205.235 57.0114 205.563 57.3748 205.992 57.5196C206.904 57.8239 207.797 57.0646 208.46 56.3704C208.768 56.0483 209.084 55.7057 209.191 55.2743C209.392 54.4442 208.676 53.6318 208.049 53.1798C207.782 52.9877 207.483 52.8164 207.167 52.6746C205.788 52.0572 204.033 51.9685 202.868 52.9553C201.717 53.9302 201.853 56.2108 203.309 56.6185H203.306ZM194.544 137.677C194.018 137.355 193.352 137.311 192.757 137.234C192.142 137.154 191.633 137.698 191.304 138.224C190.878 138.915 190.553 139.778 190.872 140.522C191.153 141.181 191.843 141.547 192.485 141.866C193.307 142.274 194.171 142.691 195.092 142.679C196.154 142.664 196.974 142.067 197.062 141.157C197.086 140.921 197.056 140.661 196.971 140.389C196.601 139.207 195.553 138.295 194.544 137.68V137.677ZM223.675 46.8577C223.136 46.001 221.976 45.7676 220.964 45.8532C219.807 45.9507 218.857 46.7513 217.73 47.032C216.57 47.3215 215.428 48.6273 216.129 49.8297C216.313 50.1428 216.57 50.4087 216.786 50.7012C217.301 51.4013 217.177 52.1547 218.174 52.4087C219.547 52.7603 221.148 53.0941 222.39 52.1901C223.37 51.4781 223.754 50.2048 223.929 49.0084C224.035 48.2787 224.071 47.481 223.677 46.8577H223.675ZM221.358 121.275C220.396 121.275 219.369 121.89 219.44 123.089C219.488 123.925 220.316 124.611 221.154 124.578C221.991 124.546 222.734 123.857 222.911 123.039C223.166 121.854 222.293 121.275 221.361 121.275H221.358ZM208.945 99.1538C207.17 98.0755 205.344 96.687 203.279 96.2409C202.566 96.0873 197.858 95.2305 196.805 97.8923C196.03 99.851 198.619 101.03 200.506 101.972C202.394 102.917 204.442 103.606 206.084 104.926C207.421 106.002 208.445 107.467 209.925 108.333C211.265 109.115 212.851 109.337 214.39 109.541C215.064 109.63 215.836 109.695 216.345 109.243C216.816 108.826 216.881 108.132 216.916 107.505C217.183 102.693 212.508 101.316 208.945 99.1508V99.1538Z"/>
</mask>
<path d="M182.602 53.5993C182.129 49.7499 185.357 46.84 183.478 43.4455C182.025 40.8222 179.596 36.5237 176.619 36.1515C175.205 35.9742 173.729 35.8058 172.391 36.2962C171.113 36.763 169.906 37.8325 168.533 37.218C167.615 36.8073 167.133 35.8118 167.237 34.8162C167.435 32.887 169.024 31.7467 170.589 30.8811C171.87 30.175 173.249 29.534 174.181 28.4084C175.764 26.4941 175.711 23.5959 177.338 21.717C177.954 21.0051 178.815 20.4319 178.43 19.1291C178.161 18.2192 177.436 17.5102 176.539 17.1941C174.013 16.2989 171.107 15.1822 168.479 16.4585C167.941 16.7184 167.367 16.9075 166.772 16.9607C162.798 17.3241 164.02 12.0094 160.822 11.2531C160.047 11.0699 159.224 11.2531 158.561 11.6933C156.981 12.7479 156.546 14.6712 156.656 16.4467C156.75 17.9681 157.203 19.4659 157.972 20.7805C158.845 22.2813 160.124 23.5634 160.366 25.3744C160.452 26.0214 160.351 26.692 160.017 27.2533C158.961 29.0318 156.745 28.497 155.597 27.2415C154.676 26.237 154.256 24.8899 153.765 23.6196C152.972 21.5634 151.942 19.5988 150.7 17.779C150.04 16.813 149.057 16.0862 147.918 15.8115C145.048 15.1202 143.527 17.6195 141.861 19.4452C140.474 20.9637 137.923 22.11 136.509 20.6181C136.148 18.3787 135.754 16.0597 134.47 14.1896C133.186 12.3196 130.733 11.0433 128.606 11.8321C126.818 12.4939 125.709 14.3905 123.919 15.0493C121.768 15.841 119.448 14.6239 117.48 13.4481C113.178 10.872 108.769 8.20135 105.725 4.22198C101.239 -1.6422 91.1994 -0.581624 84.4797 2.48784C82.0387 3.60159 79.7662 5.16439 77.1535 5.77592C74.8545 6.31359 72.4489 6.0743 70.1084 6.39336C65.7766 6.98125 61.9626 9.40964 58.1072 11.4628C54.2518 13.519 49.8904 15.2856 45.6089 14.4053C43.5525 13.9799 41.4132 12.9606 39.4544 13.7169C38.62 14.0389 37.9394 14.6505 37.2796 15.2502C35.4984 16.8662 33.7171 18.4821 31.9388 20.0981C30.2996 21.587 28.6426 23.0937 27.4058 24.9283C24.7044 28.9372 24.296 34.051 24.5268 38.8783C24.6333 41.0851 24.8523 43.3333 23.8522 45.4219C23.5918 45.9685 23.2368 46.4707 22.79 46.8813C20.4465 49.0291 17.4255 47.7351 15.2774 46.0453C13.5109 44.6568 11.8924 42.9226 9.73537 42.2904C8.75598 42.0039 7.62864 41.9684 6.88892 43.0644C6.40071 43.7853 6.32082 44.707 6.58416 45.5371C7.11972 47.224 8.60803 48.2521 9.88035 49.4013C11.0018 50.4176 12.0551 51.7529 11.9516 53.2625C11.78 55.7086 8.87433 56.8637 6.45397 57.2714C4.0336 57.6791 1.13093 58.2374 0.237349 60.5211C-0.410647 62.1784 0.358668 63.9864 1.45345 65.4547C4.16083 66.1814 6.32673 67.6054 8.07839 69.7826C11.9309 74.5744 18.8783 76.6808 26.2164 75.2805L26.7194 75.183C28.2432 74.8846 29.9712 74.5449 31.7998 74.8462C35.7114 75.4932 38.0667 78.5479 40.1468 81.2392C40.709 81.966 41.2386 82.6543 41.783 83.2777C46.0941 88.2201 53.4588 90.2349 59.6902 88.1758C62.4804 87.2541 65.0221 85.6174 67.7147 83.8862C70.641 82.0014 73.668 80.0546 77.1831 78.9674C82.2073 77.4135 87.8351 77.7946 93.4599 80.0693C98.2385 82.0014 102.917 85.2215 106.988 89.3782C115.539 98.108 119.516 108.365 117.9 117.517C116.64 124.664 112.275 130.433 108.056 136.014C107.426 136.847 106.799 137.677 106.183 138.51C97.2946 150.543 90.5809 164.286 84.0892 177.577C83.382 179.025 82.6511 180.523 82.5505 181.941C82.3049 185.444 85.829 188.387 89.208 189.639C91.2437 190.393 93.4156 190.812 95.7146 191.255C98.0137 191.699 100.393 192.156 102.715 192.987C107.053 194.538 112.817 198.759 116.862 202C116.826 200.777 116.678 199.557 116.409 198.363C116.066 196.845 116.72 194.727 117.859 193.663L123.359 188.508C123.88 188.021 124.579 187.734 125.292 187.784C128.558 188.02 126.881 194.086 130.434 194.065C131.18 194.059 131.878 193.731 132.437 193.241C134.251 191.648 136.799 190.969 139.166 191.391C139.968 191.533 140.811 191.796 141.542 191.081C142.018 190.614 142.216 189.935 142.157 189.27C142 187.465 140.45 186.162 140.196 184.428C139.935 182.661 141.139 180.957 142.651 180.003C144.163 179.051 145.951 178.667 147.664 178.156C151.22 177.09 154.585 175.394 157.552 173.169C159.606 171.63 161.479 169.837 163.677 168.508C166.032 167.084 168.911 166.221 171.557 167.113C172.998 167.601 174.495 167.867 176.01 167.985C176.969 168.059 177.688 168.457 178.489 167.737C179.865 166.499 178.898 165.193 179.268 163.37C179.646 161.488 179.22 158.635 178.176 157.025C177.321 155.707 178.347 154.543 177.202 153.4C174.205 150.404 171.758 146.865 170.015 143.007C169.417 141.683 169.417 140.171 169.965 138.826C171.536 134.962 172.995 130.554 176.377 127.94C178.004 126.681 179.972 125.934 181.655 124.752C183.342 123.574 184.807 121.718 184.623 119.671C184.298 116.07 179.498 114.643 178.054 111.328C177.312 109.63 177.619 107.526 178.812 106.108C180.004 104.69 182.031 104.028 183.833 104.466C184.41 103.514 184.236 102.173 183.434 101.402C182.931 100.917 182.212 100.634 182.292 99.6501C182.348 98.9617 182.8 98.3709 183.428 98.0755C185.02 97.3251 186.768 98.0961 188.369 97.653C188.677 97.5673 188.99 97.4226 189.153 97.1508C189.354 96.8199 189.283 96.4004 189.195 96.0223C188.067 91.1891 185.026 86.8287 180.877 84.096C179.581 83.2422 178.146 82.5095 177.211 81.2717C175.818 79.4283 175.921 76.6099 177.448 74.8758C178.401 73.7916 179.765 73.1653 180.856 72.2229C181.463 71.7 181.179 70.4739 180.703 69.2686C180.17 67.9185 179.188 66.8107 177.989 65.9923C176.102 64.7043 174.823 62.4413 174.64 60.2138C174.566 59.3069 175.128 58.4354 176.013 58.2168C177.217 57.9213 177.972 59.0469 178.599 59.9657C180.735 63.0913 184.114 65.3483 187.825 66.1194C188.721 66.3055 189.748 66.3941 190.307 65.2567C190.514 64.8343 190.571 64.3587 190.511 63.8919C189.908 59.0765 183.197 58.3438 182.614 53.5993H182.602ZM203.306 56.6185C203.797 56.7544 204.335 56.6658 204.812 56.8489C205.235 57.0114 205.563 57.3748 205.992 57.5196C206.904 57.8239 207.797 57.0646 208.46 56.3704C208.768 56.0483 209.084 55.7057 209.191 55.2743C209.392 54.4442 208.676 53.6318 208.049 53.1798C207.782 52.9877 207.483 52.8164 207.167 52.6746C205.788 52.0572 204.033 51.9685 202.868 52.9553C201.717 53.9302 201.853 56.2108 203.309 56.6185H203.306ZM194.544 137.677C194.018 137.355 193.352 137.311 192.757 137.234C192.142 137.154 191.633 137.698 191.304 138.224C190.878 138.915 190.553 139.778 190.872 140.522C191.153 141.181 191.843 141.547 192.485 141.866C193.307 142.274 194.171 142.691 195.092 142.679C196.154 142.664 196.974 142.067 197.062 141.157C197.086 140.921 197.056 140.661 196.971 140.389C196.601 139.207 195.553 138.295 194.544 137.68V137.677ZM223.675 46.8577C223.136 46.001 221.976 45.7676 220.964 45.8532C219.807 45.9507 218.857 46.7513 217.73 47.032C216.57 47.3215 215.428 48.6273 216.129 49.8297C216.313 50.1428 216.57 50.4087 216.786 50.7012C217.301 51.4013 217.177 52.1547 218.174 52.4087C219.547 52.7603 221.148 53.0941 222.39 52.1901C223.37 51.4781 223.754 50.2048 223.929 49.0084C224.035 48.2787 224.071 47.481 223.677 46.8577H223.675ZM221.358 121.275C220.396 121.275 219.369 121.89 219.44 123.089C219.488 123.925 220.316 124.611 221.154 124.578C221.991 124.546 222.734 123.857 222.911 123.039C223.166 121.854 222.293 121.275 221.361 121.275H221.358ZM208.945 99.1538C207.17 98.0755 205.344 96.687 203.279 96.2409C202.566 96.0873 197.858 95.2305 196.805 97.8923C196.03 99.851 198.619 101.03 200.506 101.972C202.394 102.917 204.442 103.606 206.084 104.926C207.421 106.002 208.445 107.467 209.925 108.333C211.265 109.115 212.851 109.337 214.39 109.541C215.064 109.63 215.836 109.695 216.345 109.243C216.816 108.826 216.881 108.132 216.916 107.505C217.183 102.693 212.508 101.316 208.945 99.1508V99.1538Z" fill="#1A203A" stroke="#333757" stroke-width="2" mask="url(#path-1-inside-1_908_21813)"/>
</svg>
