<svg width="708" height="822" viewBox="0 0 708 822" fill="none" xmlns="http://www.w3.org/2000/svg">
<path d="M390.29 57.9902L412.249 64.5781C414.133 67.4043 418.514 72.4141 418.837 76.2899L419.241 80.731L422.497 87.2698V89.4657C422.497 90.9297 420.301 93.6207 420.301 94.5896C420.301 95.8008 423.886 94.3632 424.693 96.7856C425.501 99.208 426.831 105.112 432.483 114.801C438.135 124.491 440.646 127.857 442.261 128.261C443.725 127.529 446.275 128.261 450.313 128.261C454.35 128.261 460.593 128.781 461.401 127.166C462.208 125.551 466.847 122.321 470.076 119.899C477.074 120.034 489.42 120.383 491.681 120.706C494.507 121.11 494.91 123.382 498.544 121.363C502.178 119.344 502.985 117.729 504.6 117.729C506.215 117.729 507.838 116.953 511.068 116.549C516.924 115.817 520.433 118.688 522.048 119.899C523.663 121.11 528.005 123.213 530.831 122.405C533.658 121.598 536.495 119.091 538.514 119.899C540.128 120.545 542.685 120.706 543.762 120.706C543.493 121.648 545.083 124.859 547.667 126.797C550.897 129.22 555.24 132.679 556.451 136.313C557.42 139.22 559.303 141.959 560.111 142.901C560.38 144.247 562.479 147.142 563.771 148.757C565.386 150.775 567.329 152.752 570.559 152.752C573.789 152.752 575 154.367 578.23 153.56C581.46 152.752 586.161 152.669 589.391 153.881C592.62 155.092 593.572 157.193 597.609 156.386C601.647 155.578 609.721 155.578 612.547 156.79C615.374 158.001 616.989 158.404 619.411 157.597C621.349 156.951 626.108 158.332 627.454 159.005L629.069 159.812C628.8 160.216 629.241 162.105 628.918 163.397C628.514 165.011 628.439 170.162 629.65 172.18C630.861 174.199 630.457 176.825 629.65 178.036C628.842 179.247 627.303 180.081 628.918 181.696C630.533 183.311 633.638 182.53 634.042 185.356C634.445 188.182 634.547 190.582 636.97 193.408C639.392 196.234 639.898 198.709 639.898 199.113V200.728C639.09 201.401 637.616 203.096 636.97 204.388C636.162 206.003 636.13 208.666 634.753 210.082C628.186 216.832 617.206 224.152 609.318 228.654C608.422 230.007 607.69 231.32 607.69 232.935C607.69 235.131 607.943 237.833 609.154 240.255C610.365 242.678 613.355 256.915 613.355 259.338C613.355 261.76 612.951 269.431 614.97 274.276C616.989 279.12 619.007 281.139 621.833 283.561C624.094 285.499 628.966 290.021 631.119 292.04C630.985 294.059 630.635 298.661 630.312 300.922C629.908 303.748 631.119 304.959 631.119 306.978C631.119 308.997 637.579 309.4 639.194 310.612C640.486 311.58 645.115 316.129 647.269 318.282L651.306 324.338H653.325L658.169 327.972V329.991L661.399 332.009H664.629L665.436 333.624V338.065L662.207 343.718V346.14H661.399L659.784 344.929L658.977 346.14C659.246 347.755 659.3 351.065 657.362 351.388C654.939 351.792 655.343 349.37 651.306 347.755C647.269 346.14 645.654 346.544 643.635 348.562C641.616 350.581 640.405 350.177 636.771 349.774C633.138 349.37 629.504 345.736 627.486 348.562C625.467 351.388 624.256 353.811 620.622 355.022C616.989 356.233 618.604 359.059 618.604 361.078C618.604 363.097 621.43 361.886 620.622 365.115C619.976 367.699 619.546 366.73 619.411 365.923L616.585 362.289V359.463H611.74V357.444H616.585V350.581L610.933 346.947H606.895L602.05 348.562L595.591 349.774C586.305 353.542 565.23 364.389 555.217 377.631C545.205 390.874 544.048 398.491 544.72 400.644C545.797 402.797 548.273 407.184 549.565 407.507C550.857 407.83 552.795 408.18 553.603 408.315V409.93H552.391L551.584 409.122H549.565L548.354 409.93L549.565 412.352H555.217V405.892L557.236 405.489V413.967C558.582 414.774 561.273 416.712 561.273 418.004C561.273 419.619 559.659 418.812 560.466 420.83C561.273 422.849 561.273 423.657 559.659 424.464C558.044 425.271 560.466 426.483 560.466 426.886C560.466 427.209 561.543 426.483 562.081 426.079L566.926 430.52V433.346C566.253 434.827 564.826 438.352 564.503 440.613C564.18 442.874 564.369 445.593 564.503 446.669C566.118 447.073 569.59 447.961 570.559 448.284C571.528 448.607 573.385 452.725 574.193 454.744V457.57H570.559V459.589C568.675 462.146 564.746 468.552 564.1 473.719L563.292 480.179H562.081V483.005C562.081 484.486 562.565 487.769 564.503 489.061C566.926 490.676 566.926 492.291 566.926 494.713C566.926 497.136 568.944 499.962 570.559 501.173C572.174 502.384 575.808 505.211 577.423 507.633C578.715 509.571 579.845 513.823 580.249 515.708L588.727 520.149H591.553L593.168 516.515H595.187V517.726H593.976L593.168 520.149H596.398V515.708H597.609V519.745H600.435V516.919H602.05V519.745H606.895C607.837 520.552 609.641 522.732 609.318 524.993C608.914 527.819 606.895 529.434 606.895 531.857C606.895 534.279 602.05 536.298 602.05 542.758C602.05 549.217 602.05 550.832 600.435 553.658V562.137C600.166 563.752 598.982 567.224 596.398 568.193C593.814 569.162 594.514 570.481 595.187 571.019H597.609V573.037H595.187C596.129 575.056 598.255 578.851 599.224 577.882C600.193 576.913 600.435 572.903 600.435 571.019L602.05 572.23V576.267C602.589 576.267 603.908 575.864 604.877 574.249L606.088 575.46C605.819 576.267 604.957 578.044 603.665 578.69C602.05 579.497 601.647 579.901 602.05 581.112C602.454 582.323 607.299 587.976 607.299 589.994C607.299 591.609 607.568 592.82 607.703 593.224H609.721L612.547 598.876L611.74 601.702C613.49 601.972 617.15 602.833 617.796 604.125C618.604 605.74 618.604 608.97 617.796 610.181C617.15 611.15 615.643 611.661 614.97 611.796C616.316 612.469 619.088 614.541 619.411 617.448C619.815 621.082 620.622 623.908 618.604 625.523C616.989 626.815 615.508 627.945 614.97 628.349C615.912 628.887 617.958 630.287 618.604 631.579C619.411 633.194 616.989 632.79 616.989 634.405C616.989 635.476 615.693 635.141 614.714 634.688C615.693 635.269 616.989 636.432 616.989 638.038C616.989 640.461 616.181 640.461 617.796 642.076C617.258 641.941 615.616 641.753 613.355 642.076C611.094 642.399 609.991 642.749 609.721 642.883C610.798 642.883 612.709 643.529 611.74 646.113C610.529 649.343 609.318 654.591 607.703 658.629C606.411 661.859 605.28 664.55 604.877 665.492H598.013C598.013 666.031 598.417 667.349 600.032 668.318C602.05 669.529 599.628 671.144 600.032 673.163C600.355 674.778 598.013 677.335 596.802 678.412V684.468C595.725 684.602 593.411 685.517 592.765 688.101C591.957 691.331 589.535 691.331 587.516 689.716C585.901 688.424 581.998 689.716 580.249 690.524L579.441 692.946H577.423C576.75 693.888 575.404 696.337 575.404 698.598C575.404 701.424 574.193 701.021 573.385 701.021C572.578 701.021 570.156 700.213 571.367 704.25C572.578 708.288 573.385 708.692 573.385 710.71V715.151C572.578 715.42 570.882 716.443 570.559 718.381C570.236 720.319 568.541 720.534 567.733 720.4C566.387 718.919 563.373 716.201 562.081 717.17C560.466 718.381 559.255 720.4 556.025 720.4H549.162V722.015H546.335V725.245C545.393 726.725 542.863 729.686 540.279 729.686C537.05 729.686 533.012 728.878 531.397 730.897C529.782 732.915 527.764 732.915 524.13 732.915C520.227 732.108 511.937 730.816 510 732.108C507.577 733.723 501.925 736.953 500.714 736.145C499.503 735.338 498.695 734.127 498.291 735.338C497.888 736.549 496.676 736.145 495.869 736.145C495.061 736.145 496.273 738.164 494.658 739.375C493.043 740.586 493.043 737.76 489.813 740.99C486.583 744.22 485.776 746.239 480.123 748.661C474.471 751.083 469.626 751.891 464.782 753.102C459.937 754.313 457.918 759.158 456.303 760.369C454.688 761.58 457.514 760.773 458.726 761.581C459.937 762.388 463.57 761.177 461.955 766.829C460.34 772.481 461.148 773.289 458.726 773.692C456.303 774.096 453.881 774.5 452.67 772.078C451.458 769.655 452.67 766.022 447.421 767.636C442.172 769.251 436.924 768.444 433.694 766.829C430.464 765.214 430.061 762.792 429.253 761.581C428.446 760.369 428.446 760.773 426.831 761.581C425.216 762.388 422.793 765.618 421.582 763.599C420.371 761.58 420.371 761.984 418.756 762.792C417.141 763.599 415.526 763.599 415.526 761.581C415.526 759.562 415.122 758.351 412.7 757.947C410.278 757.543 409.47 757.139 409.067 755.525C408.663 753.91 407.048 752.698 403.414 753.102C399.89 753.494 397.885 751.986 396.294 750.79L396.147 750.68C394.532 749.469 392.917 750.276 391.706 749.469C390.495 748.661 390.495 747.854 385.65 746.642C380.805 745.431 378.787 745.431 377.172 747.45C375.557 749.469 371.923 750.276 368.29 749.469C364.656 748.661 361.426 747.45 360.215 747.45C359.004 747.45 361.426 745.027 363.041 743.413C364.656 741.798 363.848 739.375 361.426 737.76C359.004 736.145 356.985 734.53 356.985 731.704C356.043 731.704 353.755 731.301 352.14 729.686C350.525 728.071 350.929 727.129 351.333 726.859C350.256 727.129 347.699 727.182 346.084 725.245C344.066 722.822 343.662 722.822 342.854 725.245C342.047 727.667 341.239 725.245 341.643 723.226C342.047 721.207 342.854 720.4 340.432 719.592C338.009 718.785 337.202 719.189 336.394 720.804C335.587 722.418 335.587 719.592 333.972 719.592C332.357 719.592 331.953 721.611 329.127 721.207C326.301 720.804 326.301 717.977 324.686 718.381C323.071 718.785 323.475 722.015 321.86 720.804C320.245 719.592 317.823 717.574 315.804 717.574C315.67 718.65 315.239 720.804 314.593 720.804C313.785 720.804 311.767 720.804 309.344 719.592C306.922 718.381 304.096 717.977 303.288 719.592C302.481 721.207 301.27 718.785 300.866 719.996C300.462 721.207 300.462 721.611 298.04 720.804C295.617 719.996 295.214 717.17 293.599 721.207C291.984 725.245 288.35 723.63 289.562 726.052C290.773 728.474 291.58 727.667 291.984 729.686C292.388 731.704 291.58 729.686 289.562 729.686C287.543 729.686 284.313 727.667 282.295 727.667C282.698 726.994 283.021 725.325 281.083 724.033C278.661 722.418 280.276 722.418 280.68 721.611C281.083 720.804 280.68 719.996 278.661 719.996C276.642 719.996 276.239 715.151 273.009 715.151C269.779 715.151 265.742 715.959 264.127 718.381C262.512 720.803 258.878 718.381 257.263 718.381C255.648 718.381 253.63 718.381 251.611 717.574C249.592 716.766 242.325 716.766 240.307 715.959C238.288 715.151 239.499 713.94 237.077 713.536C234.654 713.133 228.598 711.114 226.983 712.325C225.368 713.536 223.753 713.536 226.58 716.362C229.406 719.189 225.368 721.611 223.35 722.418C221.331 723.226 218.101 721.611 216.486 719.996C214.871 718.381 213.256 717.17 211.238 716.766C209.219 716.362 210.027 715.555 211.238 713.94C212.449 712.325 218.101 713.133 219.313 712.325C220.524 711.518 221.331 710.71 223.35 711.114C225.369 711.518 226.58 711.518 224.965 709.499C223.35 707.48 220.928 706.673 224.965 705.058C229.002 703.443 230.213 702.232 230.213 700.617C230.213 699.002 231.021 697.387 231.021 696.176C231.021 694.965 228.598 694.157 228.195 692.542C227.791 690.927 223.35 686.486 224.965 684.064C226.58 681.641 226.176 683.66 226.58 685.679C226.983 687.698 229.002 692.542 232.232 692.542C235.462 692.542 237.481 692.946 237.884 689.312C238.207 686.406 239.095 686.217 239.499 686.486C239.768 687.025 240.145 688.747 239.499 691.331C238.692 694.561 238.691 694.157 240.307 694.157C241.922 694.157 242.325 693.753 243.537 692.542C244.748 691.331 244.748 690.927 243.537 690.524C242.325 690.12 241.922 689.312 243.537 689.312C245.151 689.312 246.766 688.909 247.574 685.679C248.381 682.449 249.593 674.374 247.574 667.915C245.555 661.455 238.692 658.225 237.884 656.206C237.077 654.188 237.481 651.362 231.021 646.113C224.561 640.865 217.698 636.827 215.679 636.423C213.66 636.02 212.449 636.423 212.449 638.038V642.479H210.43V638.038C209.488 638.577 207.281 639.653 205.989 639.653C204.375 639.653 206.393 640.461 205.586 642.076C204.778 643.691 202.356 642.479 203.163 643.287C203.971 644.094 210.834 646.517 211.642 646.921C212.288 647.244 211.911 648.401 211.642 648.939C210.296 648.266 207.12 646.921 205.182 646.921C202.76 646.921 201.548 648.939 199.933 648.939C198.319 648.939 199.126 650.554 197.511 652.169C195.896 653.784 196.3 652.169 194.281 650.554C192.263 648.939 189.84 648.939 187.418 650.554C184.995 652.169 183.38 652.573 184.592 649.747C185.803 646.921 184.188 646.921 181.766 646.921C179.343 646.921 178.94 647.324 178.94 645.306C178.94 643.287 176.113 640.865 175.71 639.653C175.306 638.442 178.536 638.038 180.151 639.653C181.766 641.268 183.381 641.268 182.573 639.25C181.766 637.231 179.343 636.423 180.151 634.001C180.797 632.063 180.42 631.04 180.151 630.771C179.209 630.906 177.163 630.771 176.517 629.156C175.71 627.138 172.48 629.56 170.865 627.945C169.573 626.653 167.635 625.523 166.828 625.119V623.908C169.25 621.351 174.579 616.075 176.517 615.429C178.455 614.783 183.246 615.16 185.399 615.429C186.072 614.487 187.983 612.442 190.244 611.796C189.975 611.258 190.244 609.535 193.474 606.951C196.704 604.367 199.395 604.798 200.337 605.336V602.914L208.816 598.069V595.646L212.853 593.224L211.642 591.609L203.163 598.876L201.549 598.069V590.802C202.087 590.667 203.002 589.51 202.356 585.957C201.549 581.516 200.741 581.112 201.549 575.056C201.414 574.652 200.66 573.361 198.723 571.423C196.3 569 195.896 567.789 194.685 569C193.716 569.969 191.859 572.095 191.052 573.037L189.437 571.423L194.685 566.174C192.936 565.232 189.194 562.783 188.225 560.522C187.256 558.261 184.323 553.658 182.977 551.64L183.381 542.758C182.439 541.412 179.343 537.59 174.499 533.068C168.443 527.416 164.405 524.993 162.387 524.993C160.368 524.993 161.175 520.552 154.312 519.341C147.448 518.13 142.2 518.937 139.778 523.378C137.355 527.819 136.144 528.223 134.933 531.857C133.722 535.49 134.529 533.472 131.299 535.087C128.069 536.702 126.454 538.72 126.051 540.739C125.647 542.758 118.38 543.969 115.15 542.758C112.566 541.789 110.036 541.008 109.094 540.739V539.528L111.92 537.509C110.574 537.375 107.802 536.702 107.479 535.087C107.075 533.068 111.92 530.242 113.535 529.031C115.15 527.819 116.765 522.571 115.553 519.745C114.342 516.919 112.323 513.285 109.901 514.496C107.479 515.707 107.479 515.708 107.075 517.726C106.671 519.745 106.268 520.956 105.46 519.341C104.653 517.726 106.268 514.496 103.442 516.111C100.615 517.726 97.3855 519.341 96.1743 519.745C94.9631 520.149 88.9072 521.36 84.8698 521.764C80.8325 522.167 80.8325 523.782 78.0064 521.764C75.1803 519.745 75.9877 518.534 72.7579 521.764C69.528 524.993 67.1056 524.993 65.087 523.378C63.472 522.087 59.3001 520.149 57.416 519.341V516.111L59.8384 510.055C59.4347 506.96 58.385 500.123 57.416 497.54C56.2048 494.31 61.0496 493.502 61.0496 492.291C61.0496 491.08 61.0496 490.272 59.8384 488.657C58.6272 487.043 60.6459 484.62 62.2608 483.409C63.8757 482.198 67.1056 482.601 67.1056 480.583C67.1056 478.564 66.7019 474.931 65.087 474.527C63.472 474.123 60.6459 474.527 57.0123 471.297C53.3787 468.067 54.5899 468.067 52.5712 468.067C50.5526 468.067 50.1488 468.067 50.9563 466.048C51.7638 464.03 54.1862 463.626 52.5712 460.396C50.9563 457.166 54.1862 457.166 54.9937 456.763C55.8011 456.359 57.4161 454.744 59.8384 454.744C62.2608 454.744 62.2608 455.551 62.2608 457.974C62.2608 460.396 63.472 457.974 63.472 456.763C63.472 455.551 65.0869 454.744 67.1056 454.744C69.1243 454.744 69.9318 453.533 71.9504 453.129C73.9691 452.725 77.1989 453.129 79.2176 453.936C81.2363 454.744 81.2363 453.936 81.64 451.514C82.0437 449.092 83.2549 447.073 84.8698 446.669C86.1618 446.346 86.2156 447.073 86.0811 447.477C85.5427 447.477 84.3854 447.719 84.0624 448.688C83.7394 449.657 83.6587 451.514 83.6587 452.322L89.7146 453.129V450.303L88.9072 448.688L90.1184 447.073L91.7333 450.303V453.936C92.4062 454.206 93.9942 454.582 94.9632 453.936C96.1743 453.129 99.4042 451.918 99.8079 447.477C100.212 443.036 94.1557 441.824 92.9445 440.21C91.7333 438.595 89.7146 436.576 89.7146 434.154C89.7146 431.731 86.8885 431.327 86.8885 429.713C88.7726 429.443 93.5097 427.936 97.3856 424.06C102.23 419.216 104.249 414.774 105.864 413.563L103.038 409.93L104.249 408.718L107.075 411.545C108.421 411.006 110.951 408.961 110.305 405.085C109.498 400.24 107.883 399.836 108.286 395.395C108.421 394.722 107.56 392.973 103.038 391.358C98.516 389.743 97.3856 388.532 97.3856 388.128C97.3856 387.051 97.87 384.898 99.8079 384.898C99.8101 384.898 99.8122 384.898 99.8143 384.898C99.8495 383.694 100.041 381.607 100.615 380.457C101.423 378.842 98.5968 378.035 97.3856 376.016C96.4166 374.401 94.2903 373.19 93.3482 372.786C93.4828 372.113 93.9135 370.768 94.5594 370.768C95.3669 370.768 94.5594 368.345 92.9445 367.538C91.6526 366.892 91.0604 366.192 90.9258 365.923L92.5408 363.5H96.5781C96.8472 362.962 98.0315 361.886 100.615 361.886C103.845 361.886 106.671 362.693 108.69 361.482C110.709 360.271 111.112 361.078 112.324 361.886C113.131 361.213 115.231 359.867 117.168 359.867C119.591 359.867 122.417 360.271 124.436 357.444C126.051 355.184 128.877 355.157 130.088 355.426C132.107 353.003 136.386 347.916 137.355 346.947C138.324 345.978 138.566 346.544 138.566 346.947L137.759 348.966L132.51 355.426L138.566 361.482L140.585 359.059L141.392 359.867V362.693L148.256 364.308L148.66 362.289L147.852 361.078L148.66 359.867L149.467 361.482L154.312 359.059H158.753L161.175 355.426L155.119 350.985L146.237 348.966L147.045 346.947L157.542 350.177L162.79 353.811L173.287 348.966L157.542 303.748L214.064 285.984L212.449 282.35L223.35 281.947V278.313H222.139L221.331 279.12L212.853 279.524L209.623 282.754L205.182 279.524H202.76V281.139L191.455 283.561L183.381 288.81L176.921 290.021L174.095 293.251L172.48 292.847L169.25 288.81L162.79 287.599L158.349 292.04L154.312 294.059L147.852 292.847L151.082 285.176L144.218 279.12L145.43 274.276L147.045 275.083L146.237 279.12L150.274 282.35L155.119 277.102L139.777 262.567L156.734 238.747C157.676 237.805 160.529 235.921 164.405 235.921C168.281 235.921 182.438 235.652 189.033 235.517L189.84 234.306L188.629 233.902H184.188L176.921 230.673V229.461L184.188 232.691H186.207V229.461L180.958 227.039H161.175L145.43 249.244L144.218 248.437L145.43 245.611L137.759 242.381L135.336 247.226L139.777 251.667L137.759 254.896V258.126H135.336C133.856 258.261 130.169 258.934 127.262 260.549C123.628 262.567 121.206 262.164 119.995 261.356C118.783 260.549 117.976 260.549 117.976 257.723C117.976 254.896 119.591 250.859 121.609 250.859H128.473C129.146 250.59 130.572 248.921 130.895 244.399C131.299 238.747 128.877 237.94 127.262 236.729C125.97 235.76 124.301 235.786 123.628 235.921L124.436 229.461H126.051V223.002L128.473 212.505L129.684 213.716L128.069 223.405V225.424H131.703C132.779 224.347 134.852 220.983 134.529 216.138C134.125 210.082 131.299 201.2 129.684 197.566C128.392 194.66 126.185 192.318 125.243 191.511C125.109 190.03 124.436 186.666 122.821 185.051C121.206 183.436 119.725 183.301 119.187 183.436C118.649 182.225 117.088 179.56 115.15 178.591C112.727 177.38 106.973 184.043 101.321 182.428C96.7993 181.136 93.5156 179.737 92.4389 179.198H87.9979C86.9213 177.853 84.2835 175 82.3456 174.354C79.9232 173.546 76.6934 174.757 75.0784 173.546C73.7865 172.577 71.5794 168.836 70.6374 167.086H69.4262C68.7533 166.414 66.2559 164.451 65.2869 164.129C65.8415 162.861 66.0946 161.781 66.7509 160.469C67.4829 159.005 68.2028 157.584 69.4262 156.347C71.1425 154.613 71.7236 154.032 73.3378 152.418L73.3388 152.417C74.6308 151.125 76.2668 150.221 77.7307 149.489C79.1947 148.757 83.1698 150.25 86.5146 149.489C88.4626 149.045 88.7106 146.561 93.1025 142.901C97.4944 139.241 98.9543 138.141 101.154 139.241C107.01 142.169 114.104 143.305 116.526 142.901C118.464 142.578 118.722 138.509 123.114 135.581C126.774 134.117 132.892 131.258 134.094 130.457C136.29 128.993 137.022 128.261 138.486 126.797C140.682 125.298 142.813 123.783 145.074 123.137C147.9 122.33 151.107 125.258 153.126 126.065C155.144 126.873 159.664 127.857 164.105 128.261C168.546 128.665 175.945 129.65 182.405 130.457C188.865 131.265 202.093 129.725 202.901 129.725C203.708 129.725 203.003 125.231 205.829 122.405C208.655 119.579 212.088 116.447 211.685 113.621C211.281 110.795 209.843 96.9102 213.881 91.6617C217.918 86.4132 224.23 85.7794 227.056 82.1458C229.882 78.5123 230.516 74.2713 236.572 76.2899C242.628 78.3086 252.929 82.1458 254.14 82.1458C258.918 82.1458 264.388 79.2179 274.636 79.9499C275.308 79.9499 275.626 81.0259 277.564 83.6098C279.986 86.8397 285.717 88.0017 288.543 88.0017C291.369 88.0017 291.471 90.1977 295.131 93.1257C297.405 94.9444 297.606 95.4726 302.451 93.8577C307.296 92.2427 308.435 91.2843 314.895 95.3216C320.063 98.5515 330.999 105.569 335.391 106.301C338.319 106.789 345.638 104.105 349.298 103.373C350.913 101.355 354.092 97.6278 356.618 96.7856C361.01 95.3216 364.04 94.5896 366.866 94.5896C369.692 94.5896 372.345 92.4428 376.382 88.0017C379.612 84.4489 381.506 82.1458 383.702 78.4859C384.913 75.9289 386.054 68.9374 386.054 64.7386C386.054 60.5398 385.898 61.9193 385.898 61.6502L390.29 57.9902Z" fill="#1A203A" stroke="#333757" stroke-width="1.5" stroke-linejoin="round"/>
<path d="M214.079 285.984C216.771 286.522 223.042 287.437 226.595 286.792C231.036 285.984 239.514 285.177 251.626 284.369C261.316 283.723 262.662 283.292 262.123 283.158L259.297 273.872L269.391 273.468L272.62 282.35L283.117 281.543C284.867 280.601 288.931 278.636 291.192 278.313C293.453 277.99 294.826 278.179 295.229 278.313C295.902 278.986 297.49 280.332 298.459 280.332H299.67V279.121L298.056 277.102L298.863 276.698C300.882 278.582 305.646 282.512 308.553 283.158C311.459 283.804 312.724 283.696 312.994 283.562V287.599H312.186V303.748H313.397C313.667 304.69 313.963 306.897 312.994 308.189C311.782 309.804 312.186 308.997 312.186 311.015C312.186 313.034 311.782 314.649 310.975 316.264C310.168 317.879 311.379 319.898 312.186 319.898H314.205C313.532 320.84 312.186 323.127 312.186 324.742C312.186 326.357 312.724 329.453 312.994 330.798L310.975 329.991L309.764 328.78L308.553 329.991L301.285 332.413V337.258C302.227 339.008 304.112 343.314 304.112 346.544C304.112 350.581 303.304 353.004 304.515 355.022C305.726 357.041 308.553 359.867 308.553 366.327C308.553 372.786 309.36 374.805 310.168 378.035C310.975 381.265 311.379 384.495 311.379 389.339C311.379 394.184 311.782 397.01 312.186 398.625C312.59 400.24 313.397 403.066 311.379 408.315C309.36 413.563 309.764 413.563 311.379 415.178C312.994 416.793 315.012 418.408 315.416 421.638C315.82 424.868 314.609 427.694 317.435 431.731C320.261 435.769 320.665 440.21 319.857 442.228C319.05 444.247 318.646 445.458 319.05 447.881C319.453 450.303 321.472 456.359 321.472 457.974C322.549 458.916 325.025 461.608 326.317 464.837C327.609 468.067 328.201 471.028 328.335 472.105M328.335 472.105L326.317 474.123C324.836 474.392 321.472 475.092 319.857 475.738C318.242 476.384 315.147 478.699 313.801 479.776C312.59 478.699 309.764 476.465 308.149 476.142C306.534 475.819 305.592 475.738 305.323 475.738C304.515 476.546 302.416 478.322 300.478 478.968C298.056 479.776 296.441 478.564 293.614 476.949C290.788 475.334 289.577 474.123 287.559 474.931C285.54 475.738 283.521 476.546 281.906 475.738C280.291 474.931 279.08 473.316 277.061 473.316C275.043 473.316 270.602 474.123 269.794 474.123C268.987 474.123 268.583 478.564 267.776 482.198C266.968 485.832 264.142 493.502 261.316 495.521C258.49 497.54 258.49 499.155 258.086 500.77C257.682 502.385 256.471 503.192 257.279 504.403C257.925 505.372 258.894 505.614 259.297 505.614L257.279 507.229C256.875 508.306 255.744 510.701 254.452 511.67L247.993 516.515H245.974C244.494 518.13 241.533 521.441 241.533 521.764C241.533 522.087 239.111 522.437 237.899 522.571V525.801C237.899 527.416 237.496 527.82 235.073 529.435C232.651 531.05 233.458 531.453 231.036 531.453L230.632 533.472C230.363 534.145 229.583 535.41 228.614 535.087C227.402 534.683 226.595 533.472 225.384 535.087C224.173 536.702 222.154 534.683 220.539 535.894C218.924 537.106 218.117 538.72 210.849 538.72C203.582 538.72 200.756 535.491 198.334 535.087C195.911 534.683 195.104 535.087 194.296 535.087C193.489 535.087 192.681 532.664 191.47 533.068C190.259 533.472 188.644 533.876 187.837 533.068C187.029 532.261 185.414 534.279 185.01 535.087C184.607 535.894 181.781 537.509 178.551 537.106M328.335 472.105L329.95 472.105L331.565 472.912H339.236C340.447 472.105 343.435 470.328 345.696 469.682C347.957 469.036 350.406 469.144 351.348 469.278C351.617 470.355 352.479 472.589 353.771 472.912C355.386 473.316 360.634 474.527 362.249 476.949C363.864 479.372 362.653 479.776 367.901 479.776C373.15 479.776 375.976 478.968 376.783 479.776C377.591 480.583 377.591 481.794 380.013 481.794C381.951 481.794 383.781 481.525 384.454 481.39M268.987 273.065C268.987 272.526 269.068 271.288 269.391 270.642C269.794 269.835 269.391 267.412 268.583 265.797C267.776 264.182 265.757 257.319 266.161 255.3M441.38 175.361C439.227 174.823 434.679 173.746 433.71 173.746C432.498 173.746 429.672 177.784 419.579 183.436C409.486 189.088 405.852 190.703 394.548 190.703C383.243 190.703 374.361 189.492 372.746 191.511C371.131 193.529 367.094 203.219 365.479 214.927C363.864 226.635 365.479 228.654 366.69 230.673C367.659 232.288 371.131 236.46 372.746 238.344C370.996 239.151 367.094 241.412 365.479 243.996C363.46 247.226 361.442 247.629 358.616 248.437C355.789 249.244 353.771 248.437 349.33 249.648C344.889 250.859 344.485 252.071 344.081 254.089C343.677 256.108 340.448 257.319 338.429 258.934L332.373 263.779L324.298 262.568C322.953 261.626 319.615 259.58 317.031 258.934C313.801 258.127 311.783 259.338 309.36 257.319C307.422 255.704 304.515 253.147 303.304 252.071C302.766 252.609 301.689 253.928 301.689 254.897C301.689 255.866 300.613 255.839 300.074 255.704C299.94 254.897 299.186 253.282 297.248 253.282C294.826 253.282 287.962 254.897 286.348 254.897C285.056 254.897 284.463 255.973 284.329 256.512C282.983 256.646 279.888 257.319 278.273 258.934C276.254 260.953 275.447 261.356 273.832 260.549C272.217 259.741 270.198 257.319 270.602 256.512C271.006 255.704 268.583 254.089 265.353 255.704C262.769 256.996 261.585 256.781 261.316 256.512C261.181 255.435 260.751 252.797 260.105 250.859L258.894 248.033L261.316 247.629L258.49 238.344L250.819 241.573V239.555L254.452 237.132L249.608 230.673L246.782 228.654H245.167C245.436 226.635 246.136 222.194 246.782 220.579H248.8C249.339 219.368 250.092 216.138 248.8 212.908C247.185 208.871 248.396 205.238 247.993 201.604C247.589 197.97 245.974 195.952 246.378 191.914V187.473C246.782 186.666 247.912 184.809 249.204 183.84C249.069 182.763 248.558 180.61 247.589 180.61C246.378 180.61 242.34 180.206 238.303 177.784C234.266 175.361 231.843 174.15 231.036 170.92C230.39 168.336 230.229 166.076 230.229 165.268C230.363 162.711 230.874 156.951 231.843 154.367C233.055 151.137 230.229 149.926 229.017 148.715C227.806 147.504 225.787 142.659 223.365 141.044C220.943 139.429 215.572 139.467 213.15 137.045C210.728 134.623 207.849 134.268 205.83 132.653C204.215 131.361 203.542 129.961 203.408 129.423M212.868 593.224L213.675 592.821L214.079 590.398C215.021 589.994 216.905 588.945 216.905 587.976C216.905 587.007 217.713 583.535 218.117 581.92C219.597 581.247 222.719 579.578 223.365 578.286C224.173 576.671 224.576 575.056 225.787 572.23C226.999 569.404 226.595 568.597 228.614 567.385C230.632 566.174 230.229 561.733 230.229 559.311C230.229 556.888 229.017 556.485 231.44 554.062V551.64C231.709 551.102 232.489 550.025 233.458 550.025H248.8C248.8 552.582 248.962 558.019 249.608 559.311C250.254 560.603 251.761 564.156 252.434 565.771H250.415C251.223 566.443 252.595 567.951 251.626 568.597C250.415 569.404 248.8 570.615 248.8 572.23V576.671C250.415 575.595 254.291 573.603 256.875 574.249C260.105 575.056 262.931 576.671 264.546 576.671C265.838 576.671 267.506 575.595 268.179 575.056C268.179 574.384 269.068 572.876 272.62 572.23C276.173 571.584 279.215 573.307 280.291 574.249C279.484 575.056 278.111 576.914 279.08 577.883C280.291 579.094 279.888 583.938 279.08 584.746C278.273 585.553 277.465 585.957 278.273 587.572C279.08 589.187 280.695 587.976 282.31 590.398C283.602 592.336 284.463 595.781 284.732 597.262C285.944 597.531 288.689 598.715 289.981 601.299C291.596 604.529 293.211 605.336 296.441 606.144C299.024 606.79 302.093 607.759 303.304 608.162C303.169 608.701 303.304 610.02 304.919 610.989C306.938 612.2 307.341 614.218 308.149 616.641C308.956 619.063 310.168 622.293 313.397 623.908C316.627 625.523 320.261 637.635 320.261 640.865C320.261 643.449 320.53 651.362 320.665 654.995C326.99 656.476 341.416 659.517 348.522 659.84L349.33 661.455C354.04 661.724 363.864 662.586 365.479 663.878C367.498 665.492 368.305 667.511 377.187 667.915C386.069 668.319 391.318 671.952 395.759 671.952C400.2 671.952 405.448 675.182 405.852 676.797C405.583 679.085 405.206 684.145 405.852 686.083C406.66 688.505 405.852 688.909 403.833 690.928C401.815 692.946 396.566 698.195 394.951 702.232C393.336 706.269 390.51 704.654 387.684 710.307C384.858 715.959 384.051 717.978 383.243 720.4C382.436 722.822 383.243 724.437 381.224 726.456C379.206 728.475 375.572 732.916 376.783 734.127C377.995 735.338 375.976 737.357 375.976 738.972V741.394C375.438 741.26 374.28 741.233 373.957 742.202C373.634 743.171 373.284 743.413 373.15 743.413C373.823 743.413 375.249 743.574 375.572 744.22C375.895 744.866 373.553 748.258 372.342 749.873M402.218 673.567L405.045 667.915C405.852 666.703 407.79 664.281 409.082 664.281C410.697 664.281 414.734 664.685 415.138 663.474C415.542 662.262 415.945 660.647 417.964 659.84C419.983 659.032 422.405 656.206 426.846 654.995C427.519 653.784 429.672 650.958 432.902 649.343C436.132 647.728 437.209 645.44 437.343 644.498C436.805 644.364 435.89 643.448 436.536 640.865C437.343 637.635 438.554 636.827 437.343 632.386C436.132 627.945 435.728 627.541 435.728 625.119C435.728 622.697 433.306 621.485 432.498 619.87C431.691 618.256 431.287 614.622 432.902 613.411C433.171 610.046 433.629 602.591 433.306 599.684C432.902 596.05 431.691 595.646 432.902 593.224C434.113 590.802 436.132 585.957 437.747 585.149C439.362 584.342 438.958 582.323 440.169 579.497C441.381 576.671 441.784 574.249 444.207 573.441C446.629 572.634 450.263 571.423 450.666 569C451.07 566.578 449.051 565.367 449.051 560.118C449.051 554.869 447.84 551.64 447.437 548.41C447.114 545.826 446.494 541.95 446.225 540.335V538.72M446.225 538.72C447.706 539.528 451.474 540.658 454.704 538.72C455.78 538.182 458.095 536.863 458.741 535.894C460.76 536.163 465.201 536.54 466.816 535.894C468.834 535.087 470.853 535.087 472.468 536.298C474.083 537.509 478.12 539.527 480.139 539.931C482.157 540.335 482.965 538.72 487.81 538.72C491.686 538.72 493.731 539.258 494.269 539.528L497.499 537.913V534.279C499.518 533.472 503.959 531.937 505.574 532.26C507.593 532.664 508.4 536.298 510.822 536.298H519.301C519.705 536.567 520.754 537.105 521.723 537.105C521.992 535.625 522.531 532.341 522.531 531.049C522.531 529.434 522.531 528.223 523.742 527.819C524.953 527.416 524.549 523.782 524.549 521.763C524.549 520.149 525.088 518.668 525.357 518.13V516.919L523.742 516.515V514.496H521.723C521.185 513.689 520.028 511.67 519.705 510.055H521.723C521.589 509.382 521.642 507.875 522.934 507.229C524.549 506.422 522.127 505.21 524.549 504.403C526.487 503.757 528.318 504.134 528.99 504.403L533.835 499.558C534.508 499.155 536.096 497.943 537.065 496.328C538.276 494.31 538.68 493.502 540.295 494.31C541.91 495.117 542.717 494.31 544.332 494.31C545.947 494.31 546.351 492.695 549.581 490.273C552.811 487.85 554.426 486.639 554.426 485.428C555.233 485.697 557.009 485.751 557.655 483.813C558.463 481.39 558.867 480.987 562.096 481.39M446.225 538.72C445.149 538.855 442.511 538.317 440.573 535.087C438.15 531.05 438.554 530.243 434.921 529.839C431.287 529.435 429.672 529.435 428.865 526.609C428.057 523.783 426.846 522.975 425.231 522.572C423.616 522.168 422.405 523.783 420.79 522.572C419.175 521.36 417.156 522.975 415.541 522.168C414.25 521.522 410.966 519.746 409.485 518.938H407.467C405.179 517.861 400.28 514.82 398.988 511.267C397.373 506.826 397.777 504.807 394.547 499.963C391.963 496.087 389.433 492.965 388.491 491.888L386.876 491.484C385.531 489.062 382.92 483.975 383.243 483.006C383.647 481.795 391.318 475.335 394.144 471.298C396.405 468.068 397.777 466.184 398.181 465.645C398.989 465.915 401.088 466.049 403.026 464.434C404.964 462.819 405.987 461.608 406.256 461.204C405.987 459.32 405.852 455.068 407.467 453.13C409.217 451.918 413.119 448.931 414.734 446.67C416.753 443.844 419.175 442.633 420.386 441.825C421.598 441.018 426.846 441.825 428.865 440.21C430.883 438.595 431.287 435.769 432.498 434.558C433.71 433.347 436.132 432.539 436.132 430.117C436.132 428.179 435.325 425.272 434.921 424.061C436.132 422.984 438.716 420.266 439.362 418.005C441.784 417.197 446.791 415.179 447.437 413.564C448.244 411.545 451.474 407.912 455.511 405.893C459.548 403.874 462.375 399.433 462.778 397.011C463.182 394.588 464.393 392.166 465.201 390.955C466.008 389.744 463.586 387.725 463.182 386.11C462.778 384.495 461.971 382.88 463.586 380.054C465.201 377.228 465.604 375.613 464.393 373.594C463.182 371.576 462.375 371.172 462.778 367.135C463.182 363.097 464.393 363.905 463.586 361.079C462.778 358.253 459.548 356.234 459.952 351.793C459.952 351.389 459.791 350.339 459.145 349.37C458.337 348.159 459.952 347.352 459.952 346.141C459.952 344.929 460.76 340.892 461.971 338.47C463.182 336.047 461.567 333.221 463.182 332.817C464.474 332.494 465.874 332.683 466.412 332.817C467.219 333.49 469.238 334.755 470.853 334.432C472.872 334.028 474.487 332.01 476.909 330.799C479.331 329.587 480.946 329.184 481.754 327.972C482.561 326.761 484.176 326.358 485.387 327.165C486.599 327.973 488.213 325.146 488.617 324.339C489.021 323.531 491.443 322.724 493.866 324.339C496.288 325.954 498.307 326.358 499.518 327.165C500.729 327.973 500.325 326.761 500.325 325.55C500.325 324.339 501.133 322.724 503.152 321.513C505.17 320.301 506.785 319.09 507.996 320.301C509.208 321.513 510.822 320.301 511.63 321.916C512.276 323.208 513.783 322.724 514.456 322.32C514.321 323.262 514.295 325.55 515.264 327.165C516.475 329.183 517.686 332.009 518.897 335.239C520.108 338.47 522.531 343.314 524.146 343.718C525.761 344.121 531.009 347.755 533.028 348.966C535.046 350.177 535.854 350.581 539.084 352.6C542.314 354.619 542.717 355.022 548.37 355.022H554.829C554.829 354.753 555.152 354.134 556.444 353.811C558.059 353.407 558.867 354.215 558.867 353.407C558.867 352.6 560.078 355.022 560.482 357.041C560.885 359.06 561.693 361.078 562.904 361.886C563.873 362.532 567.614 363.77 569.364 364.308M463.989 361.886C463.451 362.155 462.213 362.451 461.567 361.482C460.759 360.271 458.337 358.656 457.126 357.445C455.914 356.234 456.318 357.041 456.318 358.656V360.271L455.511 361.078C455.376 359.733 454.946 356.879 454.3 356.233C453.492 355.426 451.473 355.83 449.859 353.811C448.244 351.792 447.436 351.792 445.417 351.389C443.803 351.066 442.322 349.908 441.784 349.37C441.649 349.639 441.38 350.339 441.38 350.985C441.38 351.792 440.573 352.6 439.765 351.389C439.119 350.42 437.612 349.639 436.939 349.37C437.208 348.832 437.585 347.594 436.939 346.948C436.132 346.14 434.113 347.351 432.498 345.736C430.883 344.122 429.268 342.507 429.672 340.084C429.995 338.146 428.461 337.124 427.654 336.854V334.836L424.827 334.432L424.424 332.413C422.809 332.413 419.417 332.252 418.772 331.606C418.126 330.96 417.426 329.453 417.157 328.78V326.761L414.33 326.357L410.697 323.127L411.504 321.109C410.293 319.494 407.79 315.941 407.467 314.649C407.063 313.034 407.871 310.208 406.66 309.401C405.448 308.593 403.43 307.382 401.411 306.574C399.392 305.767 399.392 306.171 399.392 304.96C399.392 303.748 401.007 302.941 401.815 300.922C402.622 298.904 401.815 296.481 404.237 295.27C406.66 294.059 409.082 292.848 408.678 291.636C408.274 290.425 407.871 286.792 408.274 285.177C408.678 283.562 411.504 283.965 411.908 281.947C412.312 279.928 411.908 277.506 413.119 276.698C414.33 275.891 416.753 273.872 416.753 272.661C416.753 271.45 415.945 270.642 417.157 269.431C418.126 268.462 419.444 268.489 419.983 268.624L422.001 266.605C422.136 265.663 422.324 263.617 422.001 262.971C421.598 262.164 420.79 261.76 421.598 260.145C422.405 258.53 422.405 257.319 421.598 255.3C420.79 253.282 419.175 253.685 419.983 251.667C420.79 249.648 420.386 249.648 419.175 248.841C417.964 248.033 418.368 246.015 418.772 243.996C419.175 241.977 419.983 241.573 419.983 239.555V236.325L421.598 235.518L421.194 234.306H419.579V233.095L422.001 230.673C422.136 228.923 422.647 224.94 423.616 223.002C424.827 220.579 426.039 220.983 426.039 215.735C426.039 210.486 428.057 208.064 429.269 206.045C430.48 204.026 431.287 199.989 432.902 197.97C434.517 195.952 438.554 194.337 440.169 191.107C441.461 188.523 444.207 187.07 445.418 186.666C443.937 183.436 441.058 176.573 441.381 174.958C441.784 172.939 442.995 168.498 443.399 166.479C443.803 164.461 443.399 163.653 445.014 161.634C446.629 159.616 449.859 156.79 450.263 154.771C450.666 152.752 453.089 151.945 453.896 151.137C454.704 150.33 455.915 149.926 455.915 147.1C455.915 144.274 454.704 140.237 457.126 137.007C459.064 134.423 459.279 128.932 459.145 126.51" stroke="#333757" stroke-width="1.5" stroke-linejoin="round"/>
</svg>
