<svg width="200" height="204" viewBox="0 0 200 204" fill="none" xmlns="http://www.w3.org/2000/svg">
<mask id="path-1-inside-1_5372_41027" fill="white">
<path d="M197.106 173.03C195.984 169.325 194.17 165.877 192.545 162.364C190.657 158.285 189.005 154.094 187.606 149.823C187.404 149.207 187.206 148.561 187.31 147.922C187.484 146.849 188.434 146.109 189.26 145.407C192.477 142.676 194.717 138.837 195.718 134.729C190.704 130.491 184.519 125.932 180.58 124.519C178.6 123.809 176.501 123.406 174.279 122.976C171.891 122.514 169.422 122.04 167.019 121.146C161.87 119.232 156.865 114.63 157.282 108.652C157.445 106.312 158.425 104.304 159.289 102.53C165.874 89.0147 172.687 75.0374 181.835 62.6239C182.459 61.7768 183.098 60.9297 183.74 60.0796C187.623 54.9318 191.636 49.6092 192.702 43.5669C194.617 32.6936 186.602 23.1059 183.066 19.4893C176.907 13.1863 167.099 7.455 158.04 10.2629C155.143 11.1604 152.515 12.8576 149.733 14.6495C146.909 16.4711 143.991 18.3519 140.626 19.4656C138.531 20.1587 136.332 20.4934 134.133 20.4934C127.948 20.4934 121.739 17.8543 117.657 13.1686C117.021 12.437 116.42 11.658 115.84 10.9057C114.145 8.70198 112.541 6.6227 110.466 6.27615C109.483 6.11325 108.311 6.34428 107.071 6.58716L106.545 6.69082C97.74 8.37616 89.2758 5.82002 84.2594 0.0146298C83.7149 0.26047 83.0845 0.340442 82.4423 0.180497C79.6071 -0.518518 76.9109 0.906175 74.7594 2.84624C74.4427 3.65485 74.9636 4.56416 75.6206 5.13285C76.2776 5.70154 77.0885 6.09843 77.6449 6.76487C79.172 8.59534 78.0859 11.4181 76.5706 13.2574C75.3335 14.7591 73.839 16.0505 72.1728 17.0546C71.4329 17.4989 70.6457 17.9017 70.0715 18.5474C69.4974 19.1931 69.1807 20.1617 69.5714 20.9318C71.4151 22.9015 74.8866 21.462 77.2809 22.706C78.9678 23.5827 79.7077 25.5613 80.3055 27.3681C80.5511 28.1056 80.7968 28.9083 80.5482 29.6458C80.3233 30.3181 79.7373 30.795 79.1543 31.1978C77.417 32.4004 75.4726 33.3038 73.4306 33.8428C72.4806 34.0946 71.6075 34.607 71.0008 35.3801C69.0919 37.8178 71.5749 39.974 73.7591 39.8645C75.4194 39.7815 76.8813 38.7893 78.2131 37.7941C79.5449 36.7989 80.9181 35.7266 82.5577 35.4423C84.1973 35.1579 86.1653 35.9873 86.5116 37.6163C86.6418 38.2206 86.5353 38.8485 86.5234 39.4676C86.4494 43.3506 89.9713 46.2859 93.3747 48.149C96.7781 50.012 100.667 51.6826 102.457 55.1273C102.952 56.0781 103.259 57.174 103.061 58.2284C102.653 60.4114 100.223 61.6791 98.0063 61.7442C95.7867 61.8064 93.644 61.0126 91.454 60.6394C89.3882 60.287 87.2781 60.3107 85.1828 60.3373C81.8119 60.3788 78.441 60.4173 75.0701 60.4588C72.7321 60.4854 70.3734 60.518 68.0857 61.0038C66.2893 61.3859 64.5639 62.0434 62.8207 62.6299C60.8704 63.2844 58.8934 63.8472 56.8898 64.3182C54.8833 64.7891 52.5246 65.1001 51.1395 63.2548C50.7134 62.6861 50.4766 61.993 50.4174 61.2851C50.2546 59.3599 51.175 57.6686 52.2197 56.1492C52.785 55.3287 53.4331 54.4135 52.5216 53.2909C52.2493 52.9562 51.8971 52.6926 51.5124 52.4971C48.9584 51.185 46.3806 49.9202 43.7792 48.7058C42.3705 49.704 43.2435 52.0528 44.1551 53.3412C44.6108 53.981 44.9038 54.7274 44.9808 55.5094C45.1672 57.3932 43.9242 57.7456 42.921 58.3321C40.9144 59.505 39.7632 62.4314 41.24 64.2263C41.6365 64.7091 42.1752 65.0586 42.5629 65.5474C43.9479 65.8939 44.747 67.7214 44.8446 69.1461C44.9423 70.5708 44.3238 71.9659 43.4448 73.0944C42.4593 74.3621 41.0831 75.3839 39.5057 75.6683C34.7142 76.5361 30.3549 70.633 25.7114 72.0992C24.7436 72.4042 23.8795 73.0322 23.2905 73.8556C22.524 74.9278 22.2103 76.311 21.0975 77.1256C20.5707 77.5106 19.8812 77.6469 19.2715 77.404C18.5287 77.1078 18.3955 76.465 18.36 75.8519C18.2061 73.2099 19.5822 70.7041 19.7598 68.062C19.9255 65.6155 18.9963 63.1127 17.2738 61.3681C15.5603 59.6294 13.0121 58.6668 10.612 59.1111C8.2118 59.5583 6.09871 61.528 5.74061 63.945C5.34699 66.5959 6.94217 69.0898 8.46632 71.2935L16.6405 83.1205C17.1998 83.9321 17.4573 84.9302 17.2768 85.8988C16.8773 88.0225 14.8855 88.292 13.1867 88.295C10.8191 88.3009 8.09638 87.8625 6.86226 85.8425C5.86491 84.2135 6.0188 81.7965 4.23718 80.905C3.0149 80.2919 1.54402 80.7687 0.759751 81.8913C-0.616422 83.855 0.0849831 86.2424 1.21848 88.1232C4.26085 93.1644 10.6564 95.9279 16.4096 94.6809C17.6467 94.4143 18.9282 93.9789 20.1416 94.3373C21.4911 94.7342 23.0981 96.0138 22.9679 97.4148C22.9147 97.9835 22.6661 98.5137 22.4234 99.029C20.9111 102.219 19.3988 105.368 17.8835 108.543C27.9192 108.344 40.4616 108.531 49.4911 111.567C51.4799 112.236 53.4154 113.03 55.2888 113.8C56.9905 114.499 58.7484 115.222 60.4827 115.817C61.5925 116.199 62.7526 116.552 63.8773 116.892C65.4843 117.381 67.1475 117.885 68.7812 118.507C72.7943 120.038 76.4581 122.206 80.0036 124.303C82.9188 126.027 85.9315 127.813 88.453 130.399C92.0222 134.06 94.0436 138.817 95.8252 143.014C96.13 143.728 96.4792 144.474 96.8462 145.265C98.6841 149.195 100.972 154.091 98.8232 158.546C97.1718 161.979 95.4138 165.433 93.715 168.774C92.0281 172.091 90.282 175.521 88.6513 178.906C87.9588 180.346 87.3521 184.01 86.8667 186.954C86.4879 189.244 86.1328 191.409 85.7125 192.804C85.2212 194.439 84.8809 196.115 84.6441 197.815C86.8608 197.555 89.3261 197.857 91.9482 198.728C93.4931 199.24 94.958 199.883 96.3757 200.505C97.9087 201.177 99.3559 201.814 100.847 202.27C107.983 204.462 116.595 202.723 126.45 197.105C126.799 196.906 127.149 196.705 127.498 196.5C129.229 195.496 131.02 194.459 133 193.689C137.445 191.963 142.316 191.829 146.229 191.723C152.751 191.545 159.552 191.714 164.72 195.825C165.785 196.672 166.685 197.62 167.558 198.535C168.641 199.675 169.668 200.754 170.837 201.441C172.266 202.282 174.11 202.646 175.892 202.999C178.727 203.559 181.66 204.139 184.454 203.97C186.102 203.87 189.165 203.378 191.16 201.207C192.433 199.821 193.226 197.638 194.066 195.324C195.3 191.924 196.679 188.13 200 185.547C198.721 181.474 198.343 177.129 197.1 173.03H197.106ZM9.659 101.707C9.58502 101.707 9.51399 101.71 9.44888 101.71C8.84514 101.71 7.7738 101.511 7.51336 102.263C7.4009 102.592 7.54887 102.951 7.72644 103.247C8.78003 104.997 11.0766 105.886 13.0328 105.299C14.0953 104.98 15.1489 103.907 14.7227 102.883C14.1811 101.256 11.0737 101.668 9.659 101.707Z"/>
</mask>
<path d="M197.106 173.03C195.984 169.325 194.17 165.877 192.545 162.364C190.657 158.285 189.005 154.094 187.606 149.823C187.404 149.207 187.206 148.561 187.31 147.922C187.484 146.849 188.434 146.109 189.26 145.407C192.477 142.676 194.717 138.837 195.718 134.729C190.704 130.491 184.519 125.932 180.58 124.519C178.6 123.809 176.501 123.406 174.279 122.976C171.891 122.514 169.422 122.04 167.019 121.146C161.87 119.232 156.865 114.63 157.282 108.652C157.445 106.312 158.425 104.304 159.289 102.53C165.874 89.0147 172.687 75.0374 181.835 62.6239C182.459 61.7768 183.098 60.9297 183.74 60.0796C187.623 54.9318 191.636 49.6092 192.702 43.5669C194.617 32.6936 186.602 23.1059 183.066 19.4893C176.907 13.1863 167.099 7.455 158.04 10.2629C155.143 11.1604 152.515 12.8576 149.733 14.6495C146.909 16.4711 143.991 18.3519 140.626 19.4656C138.531 20.1587 136.332 20.4934 134.133 20.4934C127.948 20.4934 121.739 17.8543 117.657 13.1686C117.021 12.437 116.42 11.658 115.84 10.9057C114.145 8.70198 112.541 6.6227 110.466 6.27615C109.483 6.11325 108.311 6.34428 107.071 6.58716L106.545 6.69082C97.74 8.37616 89.2758 5.82002 84.2594 0.0146298C83.7149 0.26047 83.0845 0.340442 82.4423 0.180497C79.6071 -0.518518 76.9109 0.906175 74.7594 2.84624C74.4427 3.65485 74.9636 4.56416 75.6206 5.13285C76.2776 5.70154 77.0885 6.09843 77.6449 6.76487C79.172 8.59534 78.0859 11.4181 76.5706 13.2574C75.3335 14.7591 73.839 16.0505 72.1728 17.0546C71.4329 17.4989 70.6457 17.9017 70.0715 18.5474C69.4974 19.1931 69.1807 20.1617 69.5714 20.9318C71.4151 22.9015 74.8866 21.462 77.2809 22.706C78.9678 23.5827 79.7077 25.5613 80.3055 27.3681C80.5511 28.1056 80.7968 28.9083 80.5482 29.6458C80.3233 30.3181 79.7373 30.795 79.1543 31.1978C77.417 32.4004 75.4726 33.3038 73.4306 33.8428C72.4806 34.0946 71.6075 34.607 71.0008 35.3801C69.0919 37.8178 71.5749 39.974 73.7591 39.8645C75.4194 39.7815 76.8813 38.7893 78.2131 37.7941C79.5449 36.7989 80.9181 35.7266 82.5577 35.4423C84.1973 35.1579 86.1653 35.9873 86.5116 37.6163C86.6418 38.2206 86.5353 38.8485 86.5234 39.4676C86.4494 43.3506 89.9713 46.2859 93.3747 48.149C96.7781 50.012 100.667 51.6826 102.457 55.1273C102.952 56.0781 103.259 57.174 103.061 58.2284C102.653 60.4114 100.223 61.6791 98.0063 61.7442C95.7867 61.8064 93.644 61.0126 91.454 60.6394C89.3882 60.287 87.2781 60.3107 85.1828 60.3373C81.8119 60.3788 78.441 60.4173 75.0701 60.4588C72.7321 60.4854 70.3734 60.518 68.0857 61.0038C66.2893 61.3859 64.5639 62.0434 62.8207 62.6299C60.8704 63.2844 58.8934 63.8472 56.8898 64.3182C54.8833 64.7891 52.5246 65.1001 51.1395 63.2548C50.7134 62.6861 50.4766 61.993 50.4174 61.2851C50.2546 59.3599 51.175 57.6686 52.2197 56.1492C52.785 55.3287 53.4331 54.4135 52.5216 53.2909C52.2493 52.9562 51.8971 52.6926 51.5124 52.4971C48.9584 51.185 46.3806 49.9202 43.7792 48.7058C42.3705 49.704 43.2435 52.0528 44.1551 53.3412C44.6108 53.981 44.9038 54.7274 44.9808 55.5094C45.1672 57.3932 43.9242 57.7456 42.921 58.3321C40.9144 59.505 39.7632 62.4314 41.24 64.2263C41.6365 64.7091 42.1752 65.0586 42.5629 65.5474C43.9479 65.8939 44.747 67.7214 44.8446 69.1461C44.9423 70.5708 44.3238 71.9659 43.4448 73.0944C42.4593 74.3621 41.0831 75.3839 39.5057 75.6683C34.7142 76.5361 30.3549 70.633 25.7114 72.0992C24.7436 72.4042 23.8795 73.0322 23.2905 73.8556C22.524 74.9278 22.2103 76.311 21.0975 77.1256C20.5707 77.5106 19.8812 77.6469 19.2715 77.404C18.5287 77.1078 18.3955 76.465 18.36 75.8519C18.2061 73.2099 19.5822 70.7041 19.7598 68.062C19.9255 65.6155 18.9963 63.1127 17.2738 61.3681C15.5603 59.6294 13.0121 58.6668 10.612 59.1111C8.2118 59.5583 6.09871 61.528 5.74061 63.945C5.34699 66.5959 6.94217 69.0898 8.46632 71.2935L16.6405 83.1205C17.1998 83.9321 17.4573 84.9302 17.2768 85.8988C16.8773 88.0225 14.8855 88.292 13.1867 88.295C10.8191 88.3009 8.09638 87.8625 6.86226 85.8425C5.86491 84.2135 6.0188 81.7965 4.23718 80.905C3.0149 80.2919 1.54402 80.7687 0.759751 81.8913C-0.616422 83.855 0.0849831 86.2424 1.21848 88.1232C4.26085 93.1644 10.6564 95.9279 16.4096 94.6809C17.6467 94.4143 18.9282 93.9789 20.1416 94.3373C21.4911 94.7342 23.0981 96.0138 22.9679 97.4148C22.9147 97.9835 22.6661 98.5137 22.4234 99.029C20.9111 102.219 19.3988 105.368 17.8835 108.543C27.9192 108.344 40.4616 108.531 49.4911 111.567C51.4799 112.236 53.4154 113.03 55.2888 113.8C56.9905 114.499 58.7484 115.222 60.4827 115.817C61.5925 116.199 62.7526 116.552 63.8773 116.892C65.4843 117.381 67.1475 117.885 68.7812 118.507C72.7943 120.038 76.4581 122.206 80.0036 124.303C82.9188 126.027 85.9315 127.813 88.453 130.399C92.0222 134.06 94.0436 138.817 95.8252 143.014C96.13 143.728 96.4792 144.474 96.8462 145.265C98.6841 149.195 100.972 154.091 98.8232 158.546C97.1718 161.979 95.4138 165.433 93.715 168.774C92.0281 172.091 90.282 175.521 88.6513 178.906C87.9588 180.346 87.3521 184.01 86.8667 186.954C86.4879 189.244 86.1328 191.409 85.7125 192.804C85.2212 194.439 84.8809 196.115 84.6441 197.815C86.8608 197.555 89.3261 197.857 91.9482 198.728C93.4931 199.24 94.958 199.883 96.3757 200.505C97.9087 201.177 99.3559 201.814 100.847 202.27C107.983 204.462 116.595 202.723 126.45 197.105C126.799 196.906 127.149 196.705 127.498 196.5C129.229 195.496 131.02 194.459 133 193.689C137.445 191.963 142.316 191.829 146.229 191.723C152.751 191.545 159.552 191.714 164.72 195.825C165.785 196.672 166.685 197.62 167.558 198.535C168.641 199.675 169.668 200.754 170.837 201.441C172.266 202.282 174.11 202.646 175.892 202.999C178.727 203.559 181.66 204.139 184.454 203.97C186.102 203.87 189.165 203.378 191.16 201.207C192.433 199.821 193.226 197.638 194.066 195.324C195.3 191.924 196.679 188.13 200 185.547C198.721 181.474 198.343 177.129 197.1 173.03H197.106ZM9.659 101.707C9.58502 101.707 9.51399 101.71 9.44888 101.71C8.84514 101.71 7.7738 101.511 7.51336 102.263C7.4009 102.592 7.54887 102.951 7.72644 103.247C8.78003 104.997 11.0766 105.886 13.0328 105.299C14.0953 104.98 15.1489 103.907 14.7227 102.883C14.1811 101.256 11.0737 101.668 9.659 101.707Z" fill="#23254B" stroke="#666FBD" stroke-width="2" mask="url(#path-1-inside-1_5372_41027)"/>
<g opacity="0.9">
<path d="M90 44.9991C90.8516 44.9045 92.2533 44.3003 93.1337 44.2025C93.872 44.1204 93.2273 42.7164 94.434 42.7164C95.089 42.7164 96.1246 42.5041 96.663 42.9228C97.2084 43.347 98.3925 44.3134 98.9953 43.4595C100.482 41.3535 100.473 43.2438 101.864 44.0167C102.65 44.4532 103.493 44.8413 104.279 45.2344C105.266 45.7281 105.354 44.3995 105.971 44.2231C107.824 43.6938 109.57 42.5205 111.544 42.056C112.553 41.8186 115.053 40.837 115.053 39.7444C115.053 38.8892 114.875 36.7435 116.002 36.4215C116.609 36.2481 117.395 36.4358 118.025 36.4009C118.895 36.3525 120.293 35.127 121.182 35.7198C122.041 36.2922 121.863 37.7631 123.04 36.5866C123.521 36.1052 124.506 35.6357 125.001 36.4009C125.483 37.146 125.923 37.4536 126.28 38.2584C126.641 39.0712 127.233 39.7031 128.22 39.7031C129.399 39.7031 130.998 35.671 132.513 34.9974C133.792 34.4291 134.974 34.0994 134.082 32.3143C133.837 31.8245 133.71 30.823 133.256 30.5393C132.763 30.2313 132.065 29.6509 131.77 29.1359C130.745 27.3408 131.789 26.006 129.592 25.6066C127.694 25.2615 128.5 24 127.992 22.7805C127.726 22.1428 126.62 21.3546 126.083 21.2779C125.026 21.1269 124.986 19.7287 124.5 19" stroke="#5F67B0" stroke-width="1.2" stroke-linecap="round"/>
<path d="M127.549 40.0312C129.497 40.2477 130.473 42.8667 131.073 44.2906C131.351 44.9505 130.89 46.0077 131.471 46.5888C131.771 46.8883 133.267 46.8329 133.754 46.9412C134.732 47.1584 135.499 49.0976 135.547 49.9595C135.608 51.0703 136.595 51.0668 137.6 51.3538C138.373 51.5748 139.711 53.9272 140.082 54.6478C141.722 57.8373 146.229 56.9202 147.896 60.4393C148.714 62.1661 150.163 64.7533 150.163 66.6445C150.163 67.9929 149.819 69.3427 149.887 70.6434C149.96 72.0244 152.394 73.9467 153.319 74.8721C153.619 75.1719 153.784 75.7151 154.162 75.8833C155.161 76.3271 156.275 76.1002 157.334 76.1591C157.951 76.1933 158.136 76.9636 158.774 76.9864C160.001 77.0303 160.268 76.8349 160.812 75.868C162.363 73.1097 163.709 74.8284 165.485 76.4349C166.168 77.0532 167.877 76.7106 168.779 76.7106C169.77 76.7106 171.477 75.5 172.5 75.5" stroke="#5F67B0" stroke-width="1.2" stroke-linecap="round"/>
<path d="M97.2637 63.3465C97.4509 65.0315 100.014 65.4328 100.787 66.5579C101.395 67.4416 101.463 67.0311 101.702 68.3419C101.833 69.0649 102.002 70.0651 102.705 70.1929C104.614 70.5401 106.721 72.4141 108.526 73.2036C109.986 73.8425 110.06 74.0201 110.6 75.4783C111.124 76.8939 112.271 77.014 113.231 77.8868C114.404 78.9533 115.396 80.7623 116.041 82.2132C116.507 83.261 116.326 85.5381 117.156 86.2497C117.767 86.7729 118.085 87.9074 118.45 88.6359C119.166 90.0691 120.36 91.1111 121.75 91.8472C122.045 92.0034 123.666 92.9866 123.735 93.2968C124.077 94.8352 122.938 96.2628 124.984 96.2628C127.512 96.2628 127.276 95.4553 128.775 94.2557C129.532 93.6502 131.272 91.1929 131.384 90.2415C131.546 88.8696 133.461 87.2589 134.194 86.1382C135.72 83.8047 134.194 82.854 134.194 80.7859C134.194 79.937 134.451 79.0602 134.882 78.199C135.366 77.2315 136.325 77.7889 136.8 77.1955C137.267 76.6111 138.223 76.995 138.807 76.1027C139.541 74.9796 139.138 73.4463 139.208 72.1777C139.244 71.5401 141.286 71.7379 141.84 71.5533C144.2 70.1929 143.5 69 144 66C145 63 146 60.5 147.5 60.5" stroke="#5F67B0" stroke-width="1.2" stroke-linecap="round"/>
<path d="M86.7305 61.3457C86.9045 61.6938 87.9278 63.8898 87.5582 64.2594C87.1731 64.6445 85.8696 64.8353 85.8696 65.65C85.8696 66.0566 86.6023 66.9522 86.7139 67.4545C86.9905 68.6991 87.7727 68.1711 87.0947 69.3915C86.4406 70.5688 86.2139 72.7985 84.777 72.3879C82.8675 71.8424 83.0145 74.4057 81.5156 74.7387C80.4459 74.9764 80.4237 75.5636 80.1747 76.5598C79.9328 77.5272 79.0387 78.5156 78.9827 79.5231C78.9275 80.5165 80.7882 82.783 81.6646 83.3308C82.2012 83.6662 81.9303 84.6043 81.9626 85.185C82.0176 86.1756 83.8397 86.0657 81.9626 85.7975C81.3026 85.7032 80.1591 85.631 79.6449 86.1452C79.0828 86.7072 79.226 87.6324 78.5357 88.0159C77.3083 88.6978 74.8108 87.1952 74.8108 89.3568C74.8108 91.2804 75.8855 92.4793 76.2842 94.2737C76.4564 95.0485 76.1083 95.8898 76.4498 96.6411C76.844 97.5084 75.2942 98.385 74.8108 99.1243C74.3593 99.8149 73.3515 99.973 73.0229 100.548C72.8621 100.829 72.4459 100.954 72.4269 101.276C72.3989 101.752 72.4854 102.091 72.1289 102.468C70.8337 103.84 71.224 103.313 70.8511 104.991C70.7096 105.628 70.5418 106.538 70.0399 106.994C69.1261 107.825 68.0946 108.631 69.8081 109.61C70.8972 110.232 70.524 111.187 69.8081 111.5C68.7285 111.972 68.1081 111.002 67.2326 111.829C65.0214 113.917 69.2513 116.319 69.8118 118" stroke="#5F67B0" stroke-width="1.2" stroke-linecap="round"/>
<path d="M123.382 96.8066C123.073 97.1164 120.906 98.8538 121.065 99.1906C121.246 99.5761 121.737 100.359 122.191 100.383C122.782 100.414 123.558 100.12 123.747 100.813C123.915 101.431 124.168 101.96 123.614 102.402C122.44 103.342 120.617 102.471 119.873 103.958C119.553 104.598 120.045 105.903 118.913 106.044C118.188 106.135 118.36 107.832 117.125 107.832C115.487 107.832 115.147 107.807 114.509 109.322C113.897 110.776 115.27 111.624 115.337 112.898C115.356 113.27 114.788 115.801 114.575 115.861C113.06 116.294 111.773 116.164 110.569 117.368C110.292 117.645 109.551 118.744 109.211 118.841C108.192 119.133 106.758 118.858 105.718 118.858C104.038 118.858 103.87 118.795 102.987 120.182C102.626 120.75 101.984 120.754 101.629 121.374C101.448 121.691 100.869 122.338 100.57 122.583C99.2175 123.689 99.0862 124.222 97.3083 124.222C95.6712 124.222 96.7693 126.775 95.5038 127.351C94.3665 127.868 93.1828 127.656 91.9941 127.814C90.966 127.951 91.4001 128.723 91.0339 129.404C90.3576 130.66 90 130.5 89.5 130.5" stroke="#5F67B0" stroke-width="1.2" stroke-linecap="round"/>
<path d="M147.441 191C147.219 188.998 147.04 187.444 147.04 185.379C147.04 184.503 147.441 183.77 147.441 182.77C147.441 182.312 147.017 182.159 147.04 181.766C147.108 180.618 149.762 180.963 150.474 180.963C152.754 180.963 151.054 179.535 151.054 177.953C151.054 176.706 154.098 174.949 155.068 174.228C156.404 173.237 156.935 172.132 158.703 172.132C160.572 172.132 161.811 174.272 163.654 172.712C164.086 172.347 164.345 171.776 164.792 171.419C165.235 171.064 165.847 171.56 166.219 170.928C166.841 169.871 166.425 169.014 166.732 167.94C166.873 167.447 168.621 167.732 169.029 167.717C169.609 167.695 169.658 166.906 169.832 166.423C170.298 165.127 170.433 164.531 169.921 163.123C169.138 160.97 168.53 160.124 171.214 159.777C174.976 159.292 179.345 160.596 182.945 159.287C184.053 158.884 184.354 157.411 185.353 156.967C186.314 156.541 186.331 157.653 187.182 156.566C187.644 155.975 188.5 156.968 189.339 156.567" stroke="#5F67B0" stroke-width="1.2" stroke-linecap="round"/>
<path d="M169.118 160.489C167.777 160.154 169.632 155.435 168.315 155.271C166.588 155.055 168.74 152.498 165.907 152.951C164.164 153.23 163.704 153.311 163.498 151.257C163.434 150.616 162.283 150.837 161.803 150.855C160.661 150.899 157.345 153.406 156.875 153.041C155.991 152.353 154.355 150.454 153.24 150.454C150.953 150.454 147.721 150.147 148.334 147.153C148.616 145.771 149.56 144.928 148.244 144.343C147.405 143.97 146.989 143.708 146.237 143.139C144.609 141.906 143.161 142.024 141.219 142.024C140.142 142.024 139.064 142.024 137.986 142.024C136.474 142.024 136.38 141.482 135.221 140.82C134.576 140.451 133.916 140.159 133.191 139.816C132.284 139.387 131.887 138.367 131.184 138.054C130.642 137.813 127.91 140.82 126.367 140.82C124.584 140.82 122.779 140.905 121.015 140.597C118.793 140.208 119.315 140.169 117.647 141.533C117.065 142.01 115.457 141.387 114.927 141.221C113.262 140.699 111.414 140.831 109.797 140.329C108.692 139.986 107.908 138.926 106.898 138.5C105.876 138.07 105.526 139.809 104.69 139.995C103.885 140.173 103.457 140.59 102.483 140.374C101.097 140.066 100.903 138.01 99.472 138.01C97.3672 138.01 97.2746 139.361 95 139.816" stroke="#5F67B0" stroke-width="1.2" stroke-linecap="round"/>
<path d="M156.999 112.297C155.434 112.297 153.599 112.837 153.599 114.753C153.599 117.123 152.397 118.377 150.22 117.397C146.695 115.811 148.505 117.937 146.504 119.937C145.502 120.94 144.269 120.22 143.314 121.281C142.356 122.345 142.642 125.862 142.642 127.263C142.642 129.31 141.729 129.076 139.997 129.509C137.864 130.042 136.15 132.183 135.862 134.336C135.585 136.419 133.44 134.315 132.903 135.806C132.756 136.214 132.616 140.231 132.001 139" stroke="#5F67B0" stroke-width="1.2" stroke-linecap="round"/>
</g>
</svg>
