<svg width="316" height="291" viewBox="0 0 316 291" fill="none" xmlns="http://www.w3.org/2000/svg">
<mask id="path-1-inside-1_5372_41009" fill="white">
<path d="M26.1597 137.918C24.5623 139.408 22.9648 140.899 21.3675 142.389C18.281 145.269 15.195 148.148 12.1102 151.029C9.08783 153.849 6.02409 156.72 3.8842 160.259C-1.8908 169.813 -0.200451 176.619 2.3931 187.063C2.52882 187.61 2.66715 188.167 2.80687 188.734C3.09817 189.918 4.04704 191.293 5.09719 192.815C6.9093 195.442 9.023 198.506 8.58013 201.774L8.55009 201.996C7.61888 208.858 6.48208 217.235 14.743 222.574C15.5417 223.089 16.3589 223.579 17.1759 224.069C19.0309 225.182 20.8854 226.293 22.5205 227.704C24.8758 229.736 26.5257 233.174 25.1385 235.956C24.5375 237.162 23.4519 238.084 22.3832 238.992C20.9693 240.194 19.5851 241.37 19.3918 243.143C19.1055 245.765 21.815 247.818 24.4153 248.27C25.7194 248.497 27.0465 248.474 28.3735 248.452C29.6926 248.43 31.0116 248.408 32.3079 248.63C35.2506 249.135 40.0941 250.087 42.6886 251.566C54.9966 258.596 67.0715 261.674 81.0709 263.868C91.6729 265.531 102.783 267.152 112.924 263.641C114.689 263.03 116.426 262.265 118.161 261.5C122.173 259.732 126.175 257.969 130.492 258.132C131.556 258.172 132.612 258.331 133.667 258.49C135.054 258.699 136.439 258.908 137.836 258.844C140.297 258.732 142.989 257.429 143.57 255.034C143.923 253.571 143.421 252.125 142.915 250.67C142.677 249.982 142.437 249.292 142.287 248.598C141.776 246.247 143.452 242.895 145.905 244.224C146.25 244.413 146.549 244.681 146.802 244.983L153.045 252.379C153.877 253.365 155.504 252.895 155.651 251.614C155.858 249.777 154.709 247.229 153.823 245.264L153.753 245.11C151.658 240.443 153.252 234.548 157.062 231.234C158.272 230.182 160.141 230.371 161.138 231.627C164.167 235.431 169.082 237.218 174.079 239.035C178.694 240.713 183.379 242.417 186.714 245.76C187.575 246.624 188.352 247.602 189.126 248.577C190.769 250.646 192.403 252.702 194.816 253.634C195.814 254.019 196.877 254.176 197.941 254.333C198.852 254.468 199.764 254.602 200.636 254.88C203.491 255.789 205.856 258.136 208.144 260.408C211.315 263.557 214.34 266.561 218.325 265.389C219.63 265.005 220.736 264.186 221.838 263.37C222.176 263.119 222.515 262.868 222.859 262.63C230.031 257.665 240.722 258.69 246.822 264.928C249.037 267.193 250.615 269.947 252.198 272.709C253.291 274.615 254.385 276.525 255.692 278.279C258.891 282.573 264.479 286.056 269.438 284.035C272.487 282.792 274.305 279.927 276.116 277.072C276.748 276.075 277.379 275.08 278.062 274.155C280.701 270.582 286.258 267.897 289.316 271.122C291.07 272.971 290.907 275.566 290.741 278.23C290.636 279.911 290.529 281.62 290.901 283.185C292.469 289.768 301.129 291.074 307.894 290.997C310.394 290.967 313.23 290.787 314.83 288.861C316.303 287.086 316.137 284.49 315.668 282.234C313.372 271.158 305.343 261.44 294.907 257.095C293.065 256.328 290.851 255.365 290.58 253.386C290.452 252.457 290.816 251.556 291.173 250.674C291.237 250.515 291.301 250.356 291.362 250.199C294.284 242.62 288.584 233.351 280.878 231.624C279.216 231.251 277.519 232.075 276.811 233.623L276.359 234.604C275.586 236.284 273.587 237.02 271.92 236.216C271.35 235.942 270.786 235.646 270.237 235.333C268.723 234.471 266.822 234.902 265.798 236.314C262.956 240.227 258.416 242.989 253.717 242.277C247.959 241.403 243.974 233.567 247.882 229.243C248.709 228.328 249.757 227.668 250.805 227.007C251.283 226.706 251.761 226.405 252.218 226.08C256.731 222.869 257.572 216.599 256.648 211.131C256.574 210.691 256.515 210.258 256.458 209.838C256.163 207.657 255.913 205.817 253.756 204.97C250.928 203.863 247.572 205.348 245.778 207.797C245.166 208.63 244.88 209.557 244.598 210.471C244.364 211.229 244.133 211.978 243.72 212.658C243.106 213.672 242.059 213.415 241.141 213.072C240.875 212.972 240.618 212.818 240.36 212.663C240.041 212.473 239.722 212.282 239.387 212.192C238.994 212.085 238.581 212.098 238.165 212.111C237.75 212.124 237.332 212.137 236.926 212.032C235.773 211.738 235.54 211.398 235.048 210.677C235.018 210.634 234.987 210.589 234.956 210.543C234.917 210.486 234.876 210.427 234.833 210.366C233.703 208.763 233.475 206.146 234.86 204.586C237.413 201.051 239.387 197.093 240.657 192.92C241.079 191.534 242.339 190.545 243.785 190.503C249.435 190.341 254.733 186.194 257.487 181.087C260.633 175.251 261.194 168.416 261.672 161.803C261.757 160.627 260.793 159.514 259.898 158.48C259.552 158.081 259.217 157.694 258.956 157.32C258.021 155.979 257.398 154.174 258.159 152.73C258.662 151.778 259.617 151.233 260.571 150.689C260.923 150.488 261.275 150.287 261.604 150.066C262.056 149.762 262.481 149.333 262.785 148.855C263.505 147.732 262.714 146.259 261.38 146.211C259.467 146.14 257.537 146.56 255.825 147.41C254.393 148.122 252.702 146.994 252.835 145.402C252.906 144.537 253.198 143.648 253.62 142.912C253.927 142.379 254.285 141.864 254.642 141.349C255.481 140.14 256.319 138.934 256.501 137.498C256.731 135.696 255.739 133.8 254.128 132.958C252.516 132.117 250.397 132.391 249.051 133.611C248.784 133.853 248.542 134.13 248.301 134.406C247.838 134.936 247.377 135.464 246.74 135.738C244.567 136.665 242.469 133.806 242.758 131.461C242.927 130.105 243.523 128.869 244.121 127.628C244.556 126.724 244.993 125.817 245.267 124.86C245.916 122.588 244.975 119.437 242.616 119.295C240.935 119.194 239.877 120.561 238.78 121.98C238.082 122.882 237.369 123.804 236.468 124.384C235.049 125.3 233.653 125.654 232.286 124.665C231.458 123.338 232.421 121.814 233.375 120.302C234.333 118.784 235.282 117.279 234.402 116.002C234.154 115.641 233.791 115.379 233.387 115.21C229.686 113.663 225.686 116.073 222.844 118.802C222.689 118.951 222.534 119.102 222.379 119.253C221.091 120.509 219.785 121.782 217.959 122.201C216.988 122.423 215.949 122.311 215.123 121.752C213.03 120.347 213.7 117.417 215.19 115.68C215.837 114.926 216.605 114.293 217.372 113.659C218.602 112.643 219.831 111.628 220.556 110.124C221.04 109.12 221.153 107.953 220.725 106.925C220.117 105.47 218.817 105.127 217.518 104.784C216.591 104.54 215.664 104.295 214.99 103.647C214.344 103.027 214.029 102.131 213.719 101.249C213.197 99.7614 212.688 98.3139 210.627 98.3009C209.574 98.295 208.594 98.7941 207.879 99.568C205.375 102.288 201.661 102.427 198.228 102.557L198.224 102.557C198.087 102.562 197.95 102.567 197.813 102.572C197.672 102.578 197.532 102.584 197.392 102.59C196.658 102.622 195.926 102.344 195.444 101.786C194.547 100.744 195.194 99.5946 195.837 98.6789C200.418 92.1663 206.714 86.8704 213.912 83.4738C215.196 82.8683 216.702 82.0856 216.525 80.467C216.463 79.9029 216.173 79.3949 215.784 78.9843C212.699 75.7147 207.457 77.2742 203.868 79.7227C201.291 81.4801 198.974 83.6215 197.018 86.0523C196.839 86.2746 196.662 86.5001 196.485 86.7259C195.65 87.7927 194.809 88.8652 193.706 89.638C192.369 90.5772 190.503 90.9848 189.104 90.143C188.84 88.3871 189.835 86.8743 190.848 85.3337C192.15 83.3526 193.483 81.3257 192.207 78.6771C191.41 77.0231 189.228 75.8683 187.419 76.1902C184.158 76.771 183.06 79.7353 181.942 82.7551C181.03 85.2178 180.104 87.7174 177.98 88.9911C177.285 89.4072 176.512 89.654 175.738 89.9009C175.044 90.122 174.35 90.3433 173.712 90.6865C171.714 91.7587 170.445 94.0625 170.61 96.3249C170.667 97.1061 170.861 97.9331 171.055 98.7557C171.512 100.701 171.963 102.622 170.577 103.851C169.852 104.493 168.868 104.639 167.882 104.785C166.936 104.925 165.988 105.066 165.262 105.644C164.53 106.225 164.187 107.112 163.842 108.001C163.706 108.354 163.569 108.706 163.408 109.04C162.753 110.399 161.59 111.486 160.223 112.118C158.638 112.853 157.747 114.555 158.157 116.253L158.957 119.561C159.116 120.223 159.279 120.92 159.105 121.581C158.541 123.734 155.2 123.776 153.393 123.445C152.437 123.271 151.439 123.43 150.628 123.965C148.821 125.155 149.178 126.78 149.686 128.333C149.86 128.868 150.15 129.352 150.468 129.816C151.183 130.847 151.127 132.38 150.758 133.626C150.485 134.547 150.03 135.394 149.575 136.243C149.304 136.746 149.034 137.25 148.801 137.77C146.988 141.805 147.661 146.843 150.471 150.258C150.524 150.322 150.577 150.386 150.631 150.449C150.668 150.494 150.706 150.538 150.744 150.582C151.122 151.028 151.503 151.477 151.732 152.012C152.135 152.958 152 153.989 151.864 155.03C151.772 155.734 151.68 156.443 151.752 157.134C151.958 159.089 153.362 160.504 154.791 161.945C155.743 162.905 156.707 163.876 157.334 165.026C158.933 167.956 158.086 171.701 156.28 174.51C154.84 176.746 152.732 178.66 150.164 179.342C147.596 180.024 144.562 179.259 143.007 177.103C142.618 176.565 142.331 175.965 142.044 175.364C141.599 174.432 141.153 173.498 140.324 172.791C139.978 172.495 139.565 172.274 139.119 172.185C137.759 171.912 136.844 172.773 135.909 173.653C135.278 174.247 134.639 174.849 133.848 175.115C132.325 175.629 130.71 174.781 129.326 173.96C128.38 173.398 127.434 172.837 126.487 172.276L126.43 172.242C125.471 171.673 124.512 171.104 123.553 170.534C121.971 169.595 120.271 168.517 119.692 166.771C119.356 165.758 119.453 164.662 119.554 163.599C119.711 161.922 119.87 160.245 120.029 158.567C120.187 156.889 120.346 155.211 120.504 153.533C120.787 150.524 121.074 147.499 121.873 144.584C122.451 142.478 123.285 140.459 124.121 138.439C124.614 137.246 125.108 136.052 125.548 134.84C126.788 131.431 127.605 127.884 128.417 124.349C129.566 119.36 130.713 114.371 131.861 109.382C133.274 103.242 134.686 97.1029 136.1 90.9641C136.838 87.7595 137.605 84.4839 139.379 81.7193C140.734 79.6075 142.605 77.9122 144.663 76.4531C146.557 75.1092 148.131 73.3725 149.388 71.4201C150.879 69.1075 152.83 66.9572 154.751 65.1851C155.09 64.8721 155.439 64.5669 155.788 64.2616C156.868 63.3164 157.949 62.3705 158.756 61.1918C160.05 59.3008 160.51 57.0161 160.966 54.7457C161.091 54.126 161.216 53.5074 161.357 52.8981C162.53 47.8355 164.949 43.2154 167.371 38.5886C169.452 34.6126 171.537 30.6312 172.835 26.36C175.055 19.0587 174.842 11.0367 172.245 3.86238C171.959 3.07377 171.631 2.27039 171.044 1.67376C170.386 1.00329 169.468 0.657723 168.558 0.424389C165.332 -0.40262 161.808 -0.00978994 158.842 1.50541C157.836 2.01969 156.865 2.6648 155.897 3.30836C153.701 4.76785 151.518 6.21938 148.957 6.11894C147.698 6.06935 146.501 5.63308 145.304 5.19696C144.077 4.74982 142.85 4.30284 141.557 4.27293C138.608 4.20255 136.349 6.17777 134.042 8.19529C132.38 9.6488 130.692 11.1243 128.703 11.8726C127.076 12.4854 125.245 12.6143 123.439 12.7414C120.642 12.9383 117.906 13.131 116.079 15.1127C115.604 15.6285 115.236 16.2332 114.868 16.837C114.425 17.564 113.982 18.2898 113.355 18.8578C112.112 19.9855 110.395 20.2922 108.686 20.5978C106.889 20.9189 105.1 21.2387 103.875 22.5085C103.174 23.2342 102.772 24.1684 102.37 25.105C102.187 25.5292 102.005 25.954 101.794 26.36C100.09 29.6361 96.6963 31.5115 93.3292 33.372C89.6718 35.3928 86.0464 37.396 84.6541 41.1575C84.4421 41.7303 84.2924 42.3279 84.1429 42.9245C83.9032 43.8817 83.664 44.8364 83.1694 45.6824C82.676 46.5294 81.963 47.2066 81.2476 47.8861C80.8504 48.2634 80.4524 48.6414 80.0909 49.0495C78.5655 50.7708 77.7161 52.9873 76.8733 55.1866C75.8374 57.8896 74.8115 60.5667 72.5526 62.2669C72.3156 62.445 72.0664 62.611 71.8171 62.777C71.2068 63.1834 70.5965 63.5898 70.1648 64.175C69.0371 65.7072 69.5352 67.7768 69.9922 69.6759C70.04 69.8745 70.0873 70.0712 70.1323 70.2653C71.7675 77.3126 69.297 85.1603 63.9222 89.9983C63.0789 90.7576 62.1479 91.4894 61.2114 92.2256C58.0274 94.7285 54.7786 97.2822 54.6897 101.139C54.6277 103.777 54.0875 106.346 52.2841 108.269C50.4807 110.192 48.0044 111.368 45.466 112.076C45.1229 112.173 44.7764 112.261 44.4297 112.35C43.2856 112.643 42.1385 112.937 41.1036 113.497C39.7547 114.224 38.5859 115.532 38.5445 117.065C38.5234 117.847 38.7906 118.611 39.0556 119.368C39.3829 120.303 39.7069 121.229 39.4802 122.169C39.4312 122.373 39.3567 122.571 39.2823 122.768C39.1729 123.058 39.0638 123.347 39.0375 123.655C38.9497 124.698 39.7613 125.436 40.5871 126.188C41.5948 127.105 42.6238 128.041 42.0658 129.574C41.9005 130.028 41.6112 130.43 41.2511 130.755C38.9932 132.781 36.2512 134.264 33.3203 135.044C32.8543 135.168 32.3902 135.281 31.9309 135.392L31.9297 135.393C29.809 135.908 27.7897 136.398 26.1597 137.918Z"/>
<path d="M308.488 239.984C308.739 240.944 308.648 242.022 308.184 242.784C307.686 243.606 306.57 244.087 305.714 243.653C305.076 243.328 304.731 242.592 304.681 241.878C304.631 241.163 304.825 240.457 305.017 239.769C305.156 239.276 305.301 238.768 305.634 238.381C305.968 237.994 306.54 237.763 307.001 237.985C307.759 238.351 308.261 239.119 308.488 239.981V239.984Z"/>
<path d="M169.652 243.747C169.838 243.853 170.024 243.96 170.209 244.065C172.34 245.272 174.225 245.607 176.382 245.99C176.842 246.072 177.314 246.155 177.804 246.25C179.589 246.596 183.226 248.977 180.861 251.053C179.92 251.88 178.48 251.552 177.275 251.215C174.33 250.391 171.322 249.789 168.285 249.414C168.169 249.4 168.052 249.386 167.936 249.372L167.933 249.372C166.784 249.235 165.624 249.097 164.545 248.684C163.356 248.229 162.249 247.382 161.806 246.188C161.343 244.945 161.661 243.563 162.001 242.281C162.089 241.956 162.199 241.599 162.485 241.421C162.689 241.297 162.945 241.288 163.185 241.297C165.513 241.378 167.613 242.58 169.652 243.747Z"/>
<path d="M48.256 92.5191C49.1356 92.4807 49.7141 92.6757 49.9621 93.612C50.1978 94.506 50.1323 95.5735 50.0723 96.5508C50.0572 96.7972 50.0424 97.0378 50.0329 97.2685C49.9798 98.6154 49.7584 100.255 48.2442 100.698C47.952 100.783 47.6333 100.807 47.3499 100.698C46.5722 100.405 46.1689 99.1413 45.9044 98.3127C45.8728 98.2136 45.8431 98.1207 45.8151 98.0365C45.4019 96.796 45.1716 95.4934 45.1421 94.185C45.1244 93.482 45.1923 92.7111 45.6705 92.1942C46.128 91.701 46.919 91.6626 47.3499 92.1854C47.6097 92.5044 47.9255 92.531 48.256 92.5162V92.5191Z"/>
<path d="M68.4492 63.3715C68.2426 63.0023 67.6228 62.6272 66.9616 62.4293H66.9646C66.1647 62.1871 65.2999 62.2048 65.0283 62.8014C64.745 63.4187 64.987 64.1719 65.4239 64.6917C66.1057 65.501 67.4693 65.8318 68.2161 65.0816C68.6499 64.6415 68.7503 63.909 68.4492 63.3715Z"/>
</mask>
<path d="M26.1597 137.918C24.5623 139.408 22.9648 140.899 21.3675 142.389C18.281 145.269 15.195 148.148 12.1102 151.029C9.08783 153.849 6.02409 156.72 3.8842 160.259C-1.8908 169.813 -0.200451 176.619 2.3931 187.063C2.52882 187.61 2.66715 188.167 2.80687 188.734C3.09817 189.918 4.04704 191.293 5.09719 192.815C6.9093 195.442 9.023 198.506 8.58013 201.774L8.55009 201.996C7.61888 208.858 6.48208 217.235 14.743 222.574C15.5417 223.089 16.3589 223.579 17.1759 224.069C19.0309 225.182 20.8854 226.293 22.5205 227.704C24.8758 229.736 26.5257 233.174 25.1385 235.956C24.5375 237.162 23.4519 238.084 22.3832 238.992C20.9693 240.194 19.5851 241.37 19.3918 243.143C19.1055 245.765 21.815 247.818 24.4153 248.27C25.7194 248.497 27.0465 248.474 28.3735 248.452C29.6926 248.43 31.0116 248.408 32.3079 248.63C35.2506 249.135 40.0941 250.087 42.6886 251.566C54.9966 258.596 67.0715 261.674 81.0709 263.868C91.6729 265.531 102.783 267.152 112.924 263.641C114.689 263.03 116.426 262.265 118.161 261.5C122.173 259.732 126.175 257.969 130.492 258.132C131.556 258.172 132.612 258.331 133.667 258.49C135.054 258.699 136.439 258.908 137.836 258.844C140.297 258.732 142.989 257.429 143.57 255.034C143.923 253.571 143.421 252.125 142.915 250.67C142.677 249.982 142.437 249.292 142.287 248.598C141.776 246.247 143.452 242.895 145.905 244.224C146.25 244.413 146.549 244.681 146.802 244.983L153.045 252.379C153.877 253.365 155.504 252.895 155.651 251.614C155.858 249.777 154.709 247.229 153.823 245.264L153.753 245.11C151.658 240.443 153.252 234.548 157.062 231.234C158.272 230.182 160.141 230.371 161.138 231.627C164.167 235.431 169.082 237.218 174.079 239.035C178.694 240.713 183.379 242.417 186.714 245.76C187.575 246.624 188.352 247.602 189.126 248.577C190.769 250.646 192.403 252.702 194.816 253.634C195.814 254.019 196.877 254.176 197.941 254.333C198.852 254.468 199.764 254.602 200.636 254.88C203.491 255.789 205.856 258.136 208.144 260.408C211.315 263.557 214.34 266.561 218.325 265.389C219.63 265.005 220.736 264.186 221.838 263.37C222.176 263.119 222.515 262.868 222.859 262.63C230.031 257.665 240.722 258.69 246.822 264.928C249.037 267.193 250.615 269.947 252.198 272.709C253.291 274.615 254.385 276.525 255.692 278.279C258.891 282.573 264.479 286.056 269.438 284.035C272.487 282.792 274.305 279.927 276.116 277.072C276.748 276.075 277.379 275.08 278.062 274.155C280.701 270.582 286.258 267.897 289.316 271.122C291.07 272.971 290.907 275.566 290.741 278.23C290.636 279.911 290.529 281.62 290.901 283.185C292.469 289.768 301.129 291.074 307.894 290.997C310.394 290.967 313.23 290.787 314.83 288.861C316.303 287.086 316.137 284.49 315.668 282.234C313.372 271.158 305.343 261.44 294.907 257.095C293.065 256.328 290.851 255.365 290.58 253.386C290.452 252.457 290.816 251.556 291.173 250.674C291.237 250.515 291.301 250.356 291.362 250.199C294.284 242.62 288.584 233.351 280.878 231.624C279.216 231.251 277.519 232.075 276.811 233.623L276.359 234.604C275.586 236.284 273.587 237.02 271.92 236.216C271.35 235.942 270.786 235.646 270.237 235.333C268.723 234.471 266.822 234.902 265.798 236.314C262.956 240.227 258.416 242.989 253.717 242.277C247.959 241.403 243.974 233.567 247.882 229.243C248.709 228.328 249.757 227.668 250.805 227.007C251.283 226.706 251.761 226.405 252.218 226.08C256.731 222.869 257.572 216.599 256.648 211.131C256.574 210.691 256.515 210.258 256.458 209.838C256.163 207.657 255.913 205.817 253.756 204.97C250.928 203.863 247.572 205.348 245.778 207.797C245.166 208.63 244.88 209.557 244.598 210.471C244.364 211.229 244.133 211.978 243.72 212.658C243.106 213.672 242.059 213.415 241.141 213.072C240.875 212.972 240.618 212.818 240.36 212.663C240.041 212.473 239.722 212.282 239.387 212.192C238.994 212.085 238.581 212.098 238.165 212.111C237.75 212.124 237.332 212.137 236.926 212.032C235.773 211.738 235.54 211.398 235.048 210.677C235.018 210.634 234.987 210.589 234.956 210.543C234.917 210.486 234.876 210.427 234.833 210.366C233.703 208.763 233.475 206.146 234.86 204.586C237.413 201.051 239.387 197.093 240.657 192.92C241.079 191.534 242.339 190.545 243.785 190.503C249.435 190.341 254.733 186.194 257.487 181.087C260.633 175.251 261.194 168.416 261.672 161.803C261.757 160.627 260.793 159.514 259.898 158.48C259.552 158.081 259.217 157.694 258.956 157.32C258.021 155.979 257.398 154.174 258.159 152.73C258.662 151.778 259.617 151.233 260.571 150.689C260.923 150.488 261.275 150.287 261.604 150.066C262.056 149.762 262.481 149.333 262.785 148.855C263.505 147.732 262.714 146.259 261.38 146.211C259.467 146.14 257.537 146.56 255.825 147.41C254.393 148.122 252.702 146.994 252.835 145.402C252.906 144.537 253.198 143.648 253.62 142.912C253.927 142.379 254.285 141.864 254.642 141.349C255.481 140.14 256.319 138.934 256.501 137.498C256.731 135.696 255.739 133.8 254.128 132.958C252.516 132.117 250.397 132.391 249.051 133.611C248.784 133.853 248.542 134.13 248.301 134.406C247.838 134.936 247.377 135.464 246.74 135.738C244.567 136.665 242.469 133.806 242.758 131.461C242.927 130.105 243.523 128.869 244.121 127.628C244.556 126.724 244.993 125.817 245.267 124.86C245.916 122.588 244.975 119.437 242.616 119.295C240.935 119.194 239.877 120.561 238.78 121.98C238.082 122.882 237.369 123.804 236.468 124.384C235.049 125.3 233.653 125.654 232.286 124.665C231.458 123.338 232.421 121.814 233.375 120.302C234.333 118.784 235.282 117.279 234.402 116.002C234.154 115.641 233.791 115.379 233.387 115.21C229.686 113.663 225.686 116.073 222.844 118.802C222.689 118.951 222.534 119.102 222.379 119.253C221.091 120.509 219.785 121.782 217.959 122.201C216.988 122.423 215.949 122.311 215.123 121.752C213.03 120.347 213.7 117.417 215.19 115.68C215.837 114.926 216.605 114.293 217.372 113.659C218.602 112.643 219.831 111.628 220.556 110.124C221.04 109.12 221.153 107.953 220.725 106.925C220.117 105.47 218.817 105.127 217.518 104.784C216.591 104.54 215.664 104.295 214.99 103.647C214.344 103.027 214.029 102.131 213.719 101.249C213.197 99.7614 212.688 98.3139 210.627 98.3009C209.574 98.295 208.594 98.7941 207.879 99.568C205.375 102.288 201.661 102.427 198.228 102.557L198.224 102.557C198.087 102.562 197.95 102.567 197.813 102.572C197.672 102.578 197.532 102.584 197.392 102.59C196.658 102.622 195.926 102.344 195.444 101.786C194.547 100.744 195.194 99.5946 195.837 98.6789C200.418 92.1663 206.714 86.8704 213.912 83.4738C215.196 82.8683 216.702 82.0856 216.525 80.467C216.463 79.9029 216.173 79.3949 215.784 78.9843C212.699 75.7147 207.457 77.2742 203.868 79.7227C201.291 81.4801 198.974 83.6215 197.018 86.0523C196.839 86.2746 196.662 86.5001 196.485 86.7259C195.65 87.7927 194.809 88.8652 193.706 89.638C192.369 90.5772 190.503 90.9848 189.104 90.143C188.84 88.3871 189.835 86.8743 190.848 85.3337C192.15 83.3526 193.483 81.3257 192.207 78.6771C191.41 77.0231 189.228 75.8683 187.419 76.1902C184.158 76.771 183.06 79.7353 181.942 82.7551C181.03 85.2178 180.104 87.7174 177.98 88.9911C177.285 89.4072 176.512 89.654 175.738 89.9009C175.044 90.122 174.35 90.3433 173.712 90.6865C171.714 91.7587 170.445 94.0625 170.61 96.3249C170.667 97.1061 170.861 97.9331 171.055 98.7557C171.512 100.701 171.963 102.622 170.577 103.851C169.852 104.493 168.868 104.639 167.882 104.785C166.936 104.925 165.988 105.066 165.262 105.644C164.53 106.225 164.187 107.112 163.842 108.001C163.706 108.354 163.569 108.706 163.408 109.04C162.753 110.399 161.59 111.486 160.223 112.118C158.638 112.853 157.747 114.555 158.157 116.253L158.957 119.561C159.116 120.223 159.279 120.92 159.105 121.581C158.541 123.734 155.2 123.776 153.393 123.445C152.437 123.271 151.439 123.43 150.628 123.965C148.821 125.155 149.178 126.78 149.686 128.333C149.86 128.868 150.15 129.352 150.468 129.816C151.183 130.847 151.127 132.38 150.758 133.626C150.485 134.547 150.03 135.394 149.575 136.243C149.304 136.746 149.034 137.25 148.801 137.77C146.988 141.805 147.661 146.843 150.471 150.258C150.524 150.322 150.577 150.386 150.631 150.449C150.668 150.494 150.706 150.538 150.744 150.582C151.122 151.028 151.503 151.477 151.732 152.012C152.135 152.958 152 153.989 151.864 155.03C151.772 155.734 151.68 156.443 151.752 157.134C151.958 159.089 153.362 160.504 154.791 161.945C155.743 162.905 156.707 163.876 157.334 165.026C158.933 167.956 158.086 171.701 156.28 174.51C154.84 176.746 152.732 178.66 150.164 179.342C147.596 180.024 144.562 179.259 143.007 177.103C142.618 176.565 142.331 175.965 142.044 175.364C141.599 174.432 141.153 173.498 140.324 172.791C139.978 172.495 139.565 172.274 139.119 172.185C137.759 171.912 136.844 172.773 135.909 173.653C135.278 174.247 134.639 174.849 133.848 175.115C132.325 175.629 130.71 174.781 129.326 173.96C128.38 173.398 127.434 172.837 126.487 172.276L126.43 172.242C125.471 171.673 124.512 171.104 123.553 170.534C121.971 169.595 120.271 168.517 119.692 166.771C119.356 165.758 119.453 164.662 119.554 163.599C119.711 161.922 119.87 160.245 120.029 158.567C120.187 156.889 120.346 155.211 120.504 153.533C120.787 150.524 121.074 147.499 121.873 144.584C122.451 142.478 123.285 140.459 124.121 138.439C124.614 137.246 125.108 136.052 125.548 134.84C126.788 131.431 127.605 127.884 128.417 124.349C129.566 119.36 130.713 114.371 131.861 109.382C133.274 103.242 134.686 97.1029 136.1 90.9641C136.838 87.7595 137.605 84.4839 139.379 81.7193C140.734 79.6075 142.605 77.9122 144.663 76.4531C146.557 75.1092 148.131 73.3725 149.388 71.4201C150.879 69.1075 152.83 66.9572 154.751 65.1851C155.09 64.8721 155.439 64.5669 155.788 64.2616C156.868 63.3164 157.949 62.3705 158.756 61.1918C160.05 59.3008 160.51 57.0161 160.966 54.7457C161.091 54.126 161.216 53.5074 161.357 52.8981C162.53 47.8355 164.949 43.2154 167.371 38.5886C169.452 34.6126 171.537 30.6312 172.835 26.36C175.055 19.0587 174.842 11.0367 172.245 3.86238C171.959 3.07377 171.631 2.27039 171.044 1.67376C170.386 1.00329 169.468 0.657723 168.558 0.424389C165.332 -0.40262 161.808 -0.00978994 158.842 1.50541C157.836 2.01969 156.865 2.6648 155.897 3.30836C153.701 4.76785 151.518 6.21938 148.957 6.11894C147.698 6.06935 146.501 5.63308 145.304 5.19696C144.077 4.74982 142.85 4.30284 141.557 4.27293C138.608 4.20255 136.349 6.17777 134.042 8.19529C132.38 9.6488 130.692 11.1243 128.703 11.8726C127.076 12.4854 125.245 12.6143 123.439 12.7414C120.642 12.9383 117.906 13.131 116.079 15.1127C115.604 15.6285 115.236 16.2332 114.868 16.837C114.425 17.564 113.982 18.2898 113.355 18.8578C112.112 19.9855 110.395 20.2922 108.686 20.5978C106.889 20.9189 105.1 21.2387 103.875 22.5085C103.174 23.2342 102.772 24.1684 102.37 25.105C102.187 25.5292 102.005 25.954 101.794 26.36C100.09 29.6361 96.6963 31.5115 93.3292 33.372C89.6718 35.3928 86.0464 37.396 84.6541 41.1575C84.4421 41.7303 84.2924 42.3279 84.1429 42.9245C83.9032 43.8817 83.664 44.8364 83.1694 45.6824C82.676 46.5294 81.963 47.2066 81.2476 47.8861C80.8504 48.2634 80.4524 48.6414 80.0909 49.0495C78.5655 50.7708 77.7161 52.9873 76.8733 55.1866C75.8374 57.8896 74.8115 60.5667 72.5526 62.2669C72.3156 62.445 72.0664 62.611 71.8171 62.777C71.2068 63.1834 70.5965 63.5898 70.1648 64.175C69.0371 65.7072 69.5352 67.7768 69.9922 69.6759C70.04 69.8745 70.0873 70.0712 70.1323 70.2653C71.7675 77.3126 69.297 85.1603 63.9222 89.9983C63.0789 90.7576 62.1479 91.4894 61.2114 92.2256C58.0274 94.7285 54.7786 97.2822 54.6897 101.139C54.6277 103.777 54.0875 106.346 52.2841 108.269C50.4807 110.192 48.0044 111.368 45.466 112.076C45.1229 112.173 44.7764 112.261 44.4297 112.35C43.2856 112.643 42.1385 112.937 41.1036 113.497C39.7547 114.224 38.5859 115.532 38.5445 117.065C38.5234 117.847 38.7906 118.611 39.0556 119.368C39.3829 120.303 39.7069 121.229 39.4802 122.169C39.4312 122.373 39.3567 122.571 39.2823 122.768C39.1729 123.058 39.0638 123.347 39.0375 123.655C38.9497 124.698 39.7613 125.436 40.5871 126.188C41.5948 127.105 42.6238 128.041 42.0658 129.574C41.9005 130.028 41.6112 130.43 41.2511 130.755C38.9932 132.781 36.2512 134.264 33.3203 135.044C32.8543 135.168 32.3902 135.281 31.9309 135.392L31.9297 135.393C29.809 135.908 27.7897 136.398 26.1597 137.918Z" fill="#23254B"/>
<path d="M308.488 239.984C308.739 240.944 308.648 242.022 308.184 242.784C307.686 243.606 306.57 244.087 305.714 243.653C305.076 243.328 304.731 242.592 304.681 241.878C304.631 241.163 304.825 240.457 305.017 239.769C305.156 239.276 305.301 238.768 305.634 238.381C305.968 237.994 306.54 237.763 307.001 237.985C307.759 238.351 308.261 239.119 308.488 239.981V239.984Z" fill="#23254B"/>
<path d="M169.652 243.747C169.838 243.853 170.024 243.96 170.209 244.065C172.34 245.272 174.225 245.607 176.382 245.99C176.842 246.072 177.314 246.155 177.804 246.25C179.589 246.596 183.226 248.977 180.861 251.053C179.92 251.88 178.48 251.552 177.275 251.215C174.33 250.391 171.322 249.789 168.285 249.414C168.169 249.4 168.052 249.386 167.936 249.372L167.933 249.372C166.784 249.235 165.624 249.097 164.545 248.684C163.356 248.229 162.249 247.382 161.806 246.188C161.343 244.945 161.661 243.563 162.001 242.281C162.089 241.956 162.199 241.599 162.485 241.421C162.689 241.297 162.945 241.288 163.185 241.297C165.513 241.378 167.613 242.58 169.652 243.747Z" fill="#23254B"/>
<path d="M48.256 92.5191C49.1356 92.4807 49.7141 92.6757 49.9621 93.612C50.1978 94.506 50.1323 95.5735 50.0723 96.5508C50.0572 96.7972 50.0424 97.0378 50.0329 97.2685C49.9798 98.6154 49.7584 100.255 48.2442 100.698C47.952 100.783 47.6333 100.807 47.3499 100.698C46.5722 100.405 46.1689 99.1413 45.9044 98.3127C45.8728 98.2136 45.8431 98.1207 45.8151 98.0365C45.4019 96.796 45.1716 95.4934 45.1421 94.185C45.1244 93.482 45.1923 92.7111 45.6705 92.1942C46.128 91.701 46.919 91.6626 47.3499 92.1854C47.6097 92.5044 47.9255 92.531 48.256 92.5162V92.5191Z" fill="#23254B"/>
<path d="M68.4492 63.3715C68.2426 63.0023 67.6228 62.6272 66.9616 62.4293H66.9646C66.1647 62.1871 65.2999 62.2048 65.0283 62.8014C64.745 63.4187 64.987 64.1719 65.4239 64.6917C66.1057 65.501 67.4693 65.8318 68.2161 65.0816C68.6499 64.6415 68.7503 63.909 68.4492 63.3715Z" fill="#23254B"/>
<path d="M26.1597 137.918C24.5623 139.408 22.9648 140.899 21.3675 142.389C18.281 145.269 15.195 148.148 12.1102 151.029C9.08783 153.849 6.02409 156.72 3.8842 160.259C-1.8908 169.813 -0.200451 176.619 2.3931 187.063C2.52882 187.61 2.66715 188.167 2.80687 188.734C3.09817 189.918 4.04704 191.293 5.09719 192.815C6.9093 195.442 9.023 198.506 8.58013 201.774L8.55009 201.996C7.61888 208.858 6.48208 217.235 14.743 222.574C15.5417 223.089 16.3589 223.579 17.1759 224.069C19.0309 225.182 20.8854 226.293 22.5205 227.704C24.8758 229.736 26.5257 233.174 25.1385 235.956C24.5375 237.162 23.4519 238.084 22.3832 238.992C20.9693 240.194 19.5851 241.37 19.3918 243.143C19.1055 245.765 21.815 247.818 24.4153 248.27C25.7194 248.497 27.0465 248.474 28.3735 248.452C29.6926 248.43 31.0116 248.408 32.3079 248.63C35.2506 249.135 40.0941 250.087 42.6886 251.566C54.9966 258.596 67.0715 261.674 81.0709 263.868C91.6729 265.531 102.783 267.152 112.924 263.641C114.689 263.03 116.426 262.265 118.161 261.5C122.173 259.732 126.175 257.969 130.492 258.132C131.556 258.172 132.612 258.331 133.667 258.49C135.054 258.699 136.439 258.908 137.836 258.844C140.297 258.732 142.989 257.429 143.57 255.034C143.923 253.571 143.421 252.125 142.915 250.67C142.677 249.982 142.437 249.292 142.287 248.598C141.776 246.247 143.452 242.895 145.905 244.224C146.25 244.413 146.549 244.681 146.802 244.983L153.045 252.379C153.877 253.365 155.504 252.895 155.651 251.614C155.858 249.777 154.709 247.229 153.823 245.264L153.753 245.11C151.658 240.443 153.252 234.548 157.062 231.234C158.272 230.182 160.141 230.371 161.138 231.627C164.167 235.431 169.082 237.218 174.079 239.035C178.694 240.713 183.379 242.417 186.714 245.76C187.575 246.624 188.352 247.602 189.126 248.577C190.769 250.646 192.403 252.702 194.816 253.634C195.814 254.019 196.877 254.176 197.941 254.333C198.852 254.468 199.764 254.602 200.636 254.88C203.491 255.789 205.856 258.136 208.144 260.408C211.315 263.557 214.34 266.561 218.325 265.389C219.63 265.005 220.736 264.186 221.838 263.37C222.176 263.119 222.515 262.868 222.859 262.63C230.031 257.665 240.722 258.69 246.822 264.928C249.037 267.193 250.615 269.947 252.198 272.709C253.291 274.615 254.385 276.525 255.692 278.279C258.891 282.573 264.479 286.056 269.438 284.035C272.487 282.792 274.305 279.927 276.116 277.072C276.748 276.075 277.379 275.08 278.062 274.155C280.701 270.582 286.258 267.897 289.316 271.122C291.07 272.971 290.907 275.566 290.741 278.23C290.636 279.911 290.529 281.62 290.901 283.185C292.469 289.768 301.129 291.074 307.894 290.997C310.394 290.967 313.23 290.787 314.83 288.861C316.303 287.086 316.137 284.49 315.668 282.234C313.372 271.158 305.343 261.44 294.907 257.095C293.065 256.328 290.851 255.365 290.58 253.386C290.452 252.457 290.816 251.556 291.173 250.674C291.237 250.515 291.301 250.356 291.362 250.199C294.284 242.62 288.584 233.351 280.878 231.624C279.216 231.251 277.519 232.075 276.811 233.623L276.359 234.604C275.586 236.284 273.587 237.02 271.92 236.216C271.35 235.942 270.786 235.646 270.237 235.333C268.723 234.471 266.822 234.902 265.798 236.314C262.956 240.227 258.416 242.989 253.717 242.277C247.959 241.403 243.974 233.567 247.882 229.243C248.709 228.328 249.757 227.668 250.805 227.007C251.283 226.706 251.761 226.405 252.218 226.08C256.731 222.869 257.572 216.599 256.648 211.131C256.574 210.691 256.515 210.258 256.458 209.838C256.163 207.657 255.913 205.817 253.756 204.97C250.928 203.863 247.572 205.348 245.778 207.797C245.166 208.63 244.88 209.557 244.598 210.471C244.364 211.229 244.133 211.978 243.72 212.658C243.106 213.672 242.059 213.415 241.141 213.072C240.875 212.972 240.618 212.818 240.36 212.663C240.041 212.473 239.722 212.282 239.387 212.192C238.994 212.085 238.581 212.098 238.165 212.111C237.75 212.124 237.332 212.137 236.926 212.032C235.773 211.738 235.54 211.398 235.048 210.677C235.018 210.634 234.987 210.589 234.956 210.543C234.917 210.486 234.876 210.427 234.833 210.366C233.703 208.763 233.475 206.146 234.86 204.586C237.413 201.051 239.387 197.093 240.657 192.92C241.079 191.534 242.339 190.545 243.785 190.503C249.435 190.341 254.733 186.194 257.487 181.087C260.633 175.251 261.194 168.416 261.672 161.803C261.757 160.627 260.793 159.514 259.898 158.48C259.552 158.081 259.217 157.694 258.956 157.32C258.021 155.979 257.398 154.174 258.159 152.73C258.662 151.778 259.617 151.233 260.571 150.689C260.923 150.488 261.275 150.287 261.604 150.066C262.056 149.762 262.481 149.333 262.785 148.855C263.505 147.732 262.714 146.259 261.38 146.211C259.467 146.14 257.537 146.56 255.825 147.41C254.393 148.122 252.702 146.994 252.835 145.402C252.906 144.537 253.198 143.648 253.62 142.912C253.927 142.379 254.285 141.864 254.642 141.349C255.481 140.14 256.319 138.934 256.501 137.498C256.731 135.696 255.739 133.8 254.128 132.958C252.516 132.117 250.397 132.391 249.051 133.611C248.784 133.853 248.542 134.13 248.301 134.406C247.838 134.936 247.377 135.464 246.74 135.738C244.567 136.665 242.469 133.806 242.758 131.461C242.927 130.105 243.523 128.869 244.121 127.628C244.556 126.724 244.993 125.817 245.267 124.86C245.916 122.588 244.975 119.437 242.616 119.295C240.935 119.194 239.877 120.561 238.78 121.98C238.082 122.882 237.369 123.804 236.468 124.384C235.049 125.3 233.653 125.654 232.286 124.665C231.458 123.338 232.421 121.814 233.375 120.302C234.333 118.784 235.282 117.279 234.402 116.002C234.154 115.641 233.791 115.379 233.387 115.21C229.686 113.663 225.686 116.073 222.844 118.802C222.689 118.951 222.534 119.102 222.379 119.253C221.091 120.509 219.785 121.782 217.959 122.201C216.988 122.423 215.949 122.311 215.123 121.752C213.03 120.347 213.7 117.417 215.19 115.68C215.837 114.926 216.605 114.293 217.372 113.659C218.602 112.643 219.831 111.628 220.556 110.124C221.04 109.12 221.153 107.953 220.725 106.925C220.117 105.47 218.817 105.127 217.518 104.784C216.591 104.54 215.664 104.295 214.99 103.647C214.344 103.027 214.029 102.131 213.719 101.249C213.197 99.7614 212.688 98.3139 210.627 98.3009C209.574 98.295 208.594 98.7941 207.879 99.568C205.375 102.288 201.661 102.427 198.228 102.557L198.224 102.557C198.087 102.562 197.95 102.567 197.813 102.572C197.672 102.578 197.532 102.584 197.392 102.59C196.658 102.622 195.926 102.344 195.444 101.786C194.547 100.744 195.194 99.5946 195.837 98.6789C200.418 92.1663 206.714 86.8704 213.912 83.4738C215.196 82.8683 216.702 82.0856 216.525 80.467C216.463 79.9029 216.173 79.3949 215.784 78.9843C212.699 75.7147 207.457 77.2742 203.868 79.7227C201.291 81.4801 198.974 83.6215 197.018 86.0523C196.839 86.2746 196.662 86.5001 196.485 86.7259C195.65 87.7927 194.809 88.8652 193.706 89.638C192.369 90.5772 190.503 90.9848 189.104 90.143C188.84 88.3871 189.835 86.8743 190.848 85.3337C192.15 83.3526 193.483 81.3257 192.207 78.6771C191.41 77.0231 189.228 75.8683 187.419 76.1902C184.158 76.771 183.06 79.7353 181.942 82.7551C181.03 85.2178 180.104 87.7174 177.98 88.9911C177.285 89.4072 176.512 89.654 175.738 89.9009C175.044 90.122 174.35 90.3433 173.712 90.6865C171.714 91.7587 170.445 94.0625 170.61 96.3249C170.667 97.1061 170.861 97.9331 171.055 98.7557C171.512 100.701 171.963 102.622 170.577 103.851C169.852 104.493 168.868 104.639 167.882 104.785C166.936 104.925 165.988 105.066 165.262 105.644C164.53 106.225 164.187 107.112 163.842 108.001C163.706 108.354 163.569 108.706 163.408 109.04C162.753 110.399 161.59 111.486 160.223 112.118C158.638 112.853 157.747 114.555 158.157 116.253L158.957 119.561C159.116 120.223 159.279 120.92 159.105 121.581C158.541 123.734 155.2 123.776 153.393 123.445C152.437 123.271 151.439 123.43 150.628 123.965C148.821 125.155 149.178 126.78 149.686 128.333C149.86 128.868 150.15 129.352 150.468 129.816C151.183 130.847 151.127 132.38 150.758 133.626C150.485 134.547 150.03 135.394 149.575 136.243C149.304 136.746 149.034 137.25 148.801 137.77C146.988 141.805 147.661 146.843 150.471 150.258C150.524 150.322 150.577 150.386 150.631 150.449C150.668 150.494 150.706 150.538 150.744 150.582C151.122 151.028 151.503 151.477 151.732 152.012C152.135 152.958 152 153.989 151.864 155.03C151.772 155.734 151.68 156.443 151.752 157.134C151.958 159.089 153.362 160.504 154.791 161.945C155.743 162.905 156.707 163.876 157.334 165.026C158.933 167.956 158.086 171.701 156.28 174.51C154.84 176.746 152.732 178.66 150.164 179.342C147.596 180.024 144.562 179.259 143.007 177.103C142.618 176.565 142.331 175.965 142.044 175.364C141.599 174.432 141.153 173.498 140.324 172.791C139.978 172.495 139.565 172.274 139.119 172.185C137.759 171.912 136.844 172.773 135.909 173.653C135.278 174.247 134.639 174.849 133.848 175.115C132.325 175.629 130.71 174.781 129.326 173.96C128.38 173.398 127.434 172.837 126.487 172.276L126.43 172.242C125.471 171.673 124.512 171.104 123.553 170.534C121.971 169.595 120.271 168.517 119.692 166.771C119.356 165.758 119.453 164.662 119.554 163.599C119.711 161.922 119.87 160.245 120.029 158.567C120.187 156.889 120.346 155.211 120.504 153.533C120.787 150.524 121.074 147.499 121.873 144.584C122.451 142.478 123.285 140.459 124.121 138.439C124.614 137.246 125.108 136.052 125.548 134.84C126.788 131.431 127.605 127.884 128.417 124.349C129.566 119.36 130.713 114.371 131.861 109.382C133.274 103.242 134.686 97.1029 136.1 90.9641C136.838 87.7595 137.605 84.4839 139.379 81.7193C140.734 79.6075 142.605 77.9122 144.663 76.4531C146.557 75.1092 148.131 73.3725 149.388 71.4201C150.879 69.1075 152.83 66.9572 154.751 65.1851C155.09 64.8721 155.439 64.5669 155.788 64.2616C156.868 63.3164 157.949 62.3705 158.756 61.1918C160.05 59.3008 160.51 57.0161 160.966 54.7457C161.091 54.126 161.216 53.5074 161.357 52.8981C162.53 47.8355 164.949 43.2154 167.371 38.5886C169.452 34.6126 171.537 30.6312 172.835 26.36C175.055 19.0587 174.842 11.0367 172.245 3.86238C171.959 3.07377 171.631 2.27039 171.044 1.67376C170.386 1.00329 169.468 0.657723 168.558 0.424389C165.332 -0.40262 161.808 -0.00978994 158.842 1.50541C157.836 2.01969 156.865 2.6648 155.897 3.30836C153.701 4.76785 151.518 6.21938 148.957 6.11894C147.698 6.06935 146.501 5.63308 145.304 5.19696C144.077 4.74982 142.85 4.30284 141.557 4.27293C138.608 4.20255 136.349 6.17777 134.042 8.19529C132.38 9.6488 130.692 11.1243 128.703 11.8726C127.076 12.4854 125.245 12.6143 123.439 12.7414C120.642 12.9383 117.906 13.131 116.079 15.1127C115.604 15.6285 115.236 16.2332 114.868 16.837C114.425 17.564 113.982 18.2898 113.355 18.8578C112.112 19.9855 110.395 20.2922 108.686 20.5978C106.889 20.9189 105.1 21.2387 103.875 22.5085C103.174 23.2342 102.772 24.1684 102.37 25.105C102.187 25.5292 102.005 25.954 101.794 26.36C100.09 29.6361 96.6963 31.5115 93.3292 33.372C89.6718 35.3928 86.0464 37.396 84.6541 41.1575C84.4421 41.7303 84.2924 42.3279 84.1429 42.9245C83.9032 43.8817 83.664 44.8364 83.1694 45.6824C82.676 46.5294 81.963 47.2066 81.2476 47.8861C80.8504 48.2634 80.4524 48.6414 80.0909 49.0495C78.5655 50.7708 77.7161 52.9873 76.8733 55.1866C75.8374 57.8896 74.8115 60.5667 72.5526 62.2669C72.3156 62.445 72.0664 62.611 71.8171 62.777C71.2068 63.1834 70.5965 63.5898 70.1648 64.175C69.0371 65.7072 69.5352 67.7768 69.9922 69.6759C70.04 69.8745 70.0873 70.0712 70.1323 70.2653C71.7675 77.3126 69.297 85.1603 63.9222 89.9983C63.0789 90.7576 62.1479 91.4894 61.2114 92.2256C58.0274 94.7285 54.7786 97.2822 54.6897 101.139C54.6277 103.777 54.0875 106.346 52.2841 108.269C50.4807 110.192 48.0044 111.368 45.466 112.076C45.1229 112.173 44.7764 112.261 44.4297 112.35C43.2856 112.643 42.1385 112.937 41.1036 113.497C39.7547 114.224 38.5859 115.532 38.5445 117.065C38.5234 117.847 38.7906 118.611 39.0556 119.368C39.3829 120.303 39.7069 121.229 39.4802 122.169C39.4312 122.373 39.3567 122.571 39.2823 122.768C39.1729 123.058 39.0638 123.347 39.0375 123.655C38.9497 124.698 39.7613 125.436 40.5871 126.188C41.5948 127.105 42.6238 128.041 42.0658 129.574C41.9005 130.028 41.6112 130.43 41.2511 130.755C38.9932 132.781 36.2512 134.264 33.3203 135.044C32.8543 135.168 32.3902 135.281 31.9309 135.392L31.9297 135.393C29.809 135.908 27.7897 136.398 26.1597 137.918Z" stroke="#666FBD" stroke-width="2" mask="url(#path-1-inside-1_5372_41009)"/>
<path d="M308.488 239.984C308.739 240.944 308.648 242.022 308.184 242.784C307.686 243.606 306.57 244.087 305.714 243.653C305.076 243.328 304.731 242.592 304.681 241.878C304.631 241.163 304.825 240.457 305.017 239.769C305.156 239.276 305.301 238.768 305.634 238.381C305.968 237.994 306.54 237.763 307.001 237.985C307.759 238.351 308.261 239.119 308.488 239.981V239.984Z" stroke="#666FBD" stroke-width="2" mask="url(#path-1-inside-1_5372_41009)"/>
<path d="M169.652 243.747C169.838 243.853 170.024 243.96 170.209 244.065C172.34 245.272 174.225 245.607 176.382 245.99C176.842 246.072 177.314 246.155 177.804 246.25C179.589 246.596 183.226 248.977 180.861 251.053C179.92 251.88 178.48 251.552 177.275 251.215C174.33 250.391 171.322 249.789 168.285 249.414C168.169 249.4 168.052 249.386 167.936 249.372L167.933 249.372C166.784 249.235 165.624 249.097 164.545 248.684C163.356 248.229 162.249 247.382 161.806 246.188C161.343 244.945 161.661 243.563 162.001 242.281C162.089 241.956 162.199 241.599 162.485 241.421C162.689 241.297 162.945 241.288 163.185 241.297C165.513 241.378 167.613 242.58 169.652 243.747Z" stroke="#666FBD" stroke-width="2" mask="url(#path-1-inside-1_5372_41009)"/>
<path d="M48.256 92.5191C49.1356 92.4807 49.7141 92.6757 49.9621 93.612C50.1978 94.506 50.1323 95.5735 50.0723 96.5508C50.0572 96.7972 50.0424 97.0378 50.0329 97.2685C49.9798 98.6154 49.7584 100.255 48.2442 100.698C47.952 100.783 47.6333 100.807 47.3499 100.698C46.5722 100.405 46.1689 99.1413 45.9044 98.3127C45.8728 98.2136 45.8431 98.1207 45.8151 98.0365C45.4019 96.796 45.1716 95.4934 45.1421 94.185C45.1244 93.482 45.1923 92.7111 45.6705 92.1942C46.128 91.701 46.919 91.6626 47.3499 92.1854C47.6097 92.5044 47.9255 92.531 48.256 92.5162V92.5191Z" stroke="#666FBD" stroke-width="2" mask="url(#path-1-inside-1_5372_41009)"/>
<path d="M68.4492 63.3715C68.2426 63.0023 67.6228 62.6272 66.9616 62.4293H66.9646C66.1647 62.1871 65.2999 62.2048 65.0283 62.8014C64.745 63.4187 64.987 64.1719 65.4239 64.6917C66.1057 65.501 67.4693 65.8318 68.2161 65.0816C68.6499 64.6415 68.7503 63.909 68.4492 63.3715Z" stroke="#666FBD" stroke-width="2" mask="url(#path-1-inside-1_5372_41009)"/>
<path d="M216.5 265L214.5 260L216 257.5L219.5 256L217.5 252.5L216.5 248L217.5 243.5L211 240.5L206.5 236.5L204.25 231.5L203.5 226.5L204.25 218.5L203.5 213.5L204.25 207L202.5 202L201.5 194.5V188L206.5 189.5L209.5 186L217.5 181L221.5 174.5L226 173.5L227 169L229.5 167.5L232 166L236.5 164.5L234 161.5L233.5 157.5L235 153L238 153.5L240 153H245.5L252 151.5L256.5 150.5L262 148.5" stroke="#5F67B0" stroke-width="1.2"/>
<path d="M155 176.5L159 180C159.333 183.5 160 190.9 160 192.5C160 194.5 164 196.5 163 198.5C162 200.5 162 205 165.5 208L167 206.5L169 209L170 208.5C170.667 208.5 172.1 208.5 172.5 208.5C173 208.5 174 209 174.5 208C175 207 177 205.5 178 203.5C179 201.5 181.5 201 183 201.5C184.2 201.9 184.833 203 185 203.5C185.833 204.167 187.8 205.3 189 204.5C190.2 203.7 190.833 202.167 191 201.5L192.5 203.5C193.5 202.833 195.7 201.3 196.5 200.5C197.5 199.5 197 196.5 199 195.5C200.6 194.7 201.667 192.167 202 191" stroke="#5F67B0" stroke-width="1.2"/>
<path d="M167.5 235.5L167 234C166.667 233.667 165.7 232.8 164.5 232C163.3 231.2 163 230 163 229.5L165 227L163 225.5L162.5 224V223L160.5 221.5C160.1 219.9 158.667 217.833 158 217C157.667 216.833 157.7 215.6 156.5 216C155.3 216.4 154.333 216.167 154 216C154.8 215.6 155.333 214.5 155.5 214L158.5 213C158.5 212.667 158.1 211.5 156.5 209.5C154.9 207.5 156.334 205.333 156.5 204C156.833 203.667 157.8 203 159 203C160.5 203 161.5 203 162.5 201.5" stroke="#5F67B0" stroke-width="1.2"/>
<path d="M235 153.501L232.5 152.001L230.5 149.501L229.5 147.501L226.5 146.001H225L223.5 145.001L218 146.001L215.5 145.001L213.5 146.001V147.501C213.167 148.167 212.1 149.501 210.5 149.501C208.5 149.501 206.5 151.501 205.5 149.501C204.5 147.501 203.5 147.501 201 147.501C199 147.501 197.833 145.834 197.5 145.001C196.667 144.334 195 142.801 195 142.001C195 141.001 192.5 143.001 189.5 143.001C186.5 143.001 183.5 143.501 182 142.001L179 143.001C178.333 143.334 176.8 144.201 176 145.001C175.2 145.801 174.333 147.001 174 147.501L172 149.501C171.5 149.834 170 150.5 168 150.5C166 150.5 163.5 151.5 162.5 152.001H160.5L158 153.501H156.5L154 155.5L152.5 158.5" stroke="#5F67B0" stroke-width="1.2"/>
<path d="M135 175L137.5 185.5L140 188.5C140.833 190.333 142 194.3 140 195.5C137.5 197 134.5 198 134 200C133.682 201.27 132.499 202.5 130.499 202.912C128.999 202.912 127.501 203.5 126.5 205C125.323 206.765 128.5 207 127.5 209C126.7 210.6 127.166 212 127.5 212.5L130 213L132.499 212L134.499 213L139 212L153.999 216" stroke="#5F67B0" stroke-width="1.2"/>
<path d="M123.5 171L124 176.5L125 177.5V179L127 180.5L128 183C127.5 183.5 126.2 184.7 125 185.5C123.5 186.5 120.5 193 118.5 194.5C116.9 195.7 114.833 196.333 114 196.5V197.5L110 200L104.5 198.5L103 199L102 202.5L100.5 207.5L99 207L97.5 205C96.8333 205 95.3 205 94.5 205C93.5 205 94 205.5 91 205.5C88.6 205.5 86.3333 205.5 85.5 205.5L86.5 210C86.8333 210.5 87.6 211.6 88 212L88.5 214.5L89 215.5C89.3333 217 90.2 219.2 91 220L91.5 221.5L94 223L94.5 225L95.5 226C96 226.167 97.2 225.8 98 227C98.3333 227.333 99.3 228 100.5 228L102 230.5L104.5 231L104 234L103 235L101.5 236.5L100.5 238.5C100.167 239.5 99.9 241.3 97.5 240.5C98.3333 241.019 100.3 244.2 101.5 244.778L102.5 246.5H104.5L106 248L108.5 249H111L112.5 246.5L113.5 249.5L118.5 250.5L121.5 249.5" stroke="#5F67B0" stroke-width="1.2"/>
<path d="M130.5 213V216L129.5 219.5C129 220 127.9 221.1 127.5 221.5C127.1 221.9 127 224.333 127 225.5C127.333 225.667 128.1 226.4 128.5 228C128.5 229.167 128.1 231.9 126.5 233.5C124.9 235.1 124.167 238.5 124 240L122.5 242L123 244C122.833 245 122.4 247.4 122 249C121.5 251 121.5 251 122 252.5C123.5 252 124.167 254.333 124 254L123 255.5L124.5 256.5C124.333 257.167 125 257.5 126.5 258" stroke="#5F67B0" stroke-width="1.2"/>
<path d="M99.502 242.5C95.7294 245 98.0818 247.21 95.502 248.5C92.9221 249.79 90.6987 251.262 87.8395 251.262C86.002 250 84.002 250.5 79.1568 251.262C77.002 252.5 74.5098 253.059 71.502 252C68.0098 252 66.6699 249.408 65.502 248.5C64.075 247.39 63.5132 248.16 63.0006 246.109C62.4934 244.08 63.2576 241.886 62.8118 239.88C62.2571 237.384 59.6073 237.255 58.6781 235.293C57.7147 233.259 55.502 233.606 55.502 231.5C55.502 230.317 55.002 228.183 55.002 227C55.002 226.592 53.002 224.95 53.502 223.232C52.3105 221.269 53.7001 221.023 51.6565 221.023C50.5989 221.023 50.4718 219.923 50.1842 219.06C49.3672 216.609 48.3229 219.154 46.8055 219.306C43.4322 219.643 41.8933 219.515 41.0673 223.232C40.8622 224.155 39.2918 225.117 38.7079 225.856C37.7493 227.068 37.1887 228.583 35.7445 229.348C33.8558 230.347 33.9764 229.515 32.1188 229.904C30.391 230.266 32.502 231 29.502 232C27.7291 234.279 27.002 233.5 26.502 234" stroke="#5F67B0" stroke-width="1.2" stroke-linecap="round"/>
<path d="M49.5575 218.745C49.5575 217.163 51.1108 215.801 50.2041 214.089C49.7269 213.187 49.2665 213.579 49.2665 212.343C49.2665 211.499 49.5497 210.052 48.8461 209.449C47.2413 208.073 44.9013 207.89 44.9013 205.294C44.9013 204.186 45.5356 203.098 45.4833 202.157C45.4291 201.182 44.1303 200.018 43.7373 199.134C43.2898 198.127 42.6101 198.308 43.3008 197.065C43.6533 196.43 43.6999 194.761 43.1391 194.446C41.4849 193.515 41.7002 193.053 41.7002 191.245C41.7002 190.029 41.8745 188.652 40.2452 188.48C39.1554 188.365 39.1871 187.22 39.5985 186.443C40.2076 185.293 39.6937 185.025 39.0812 183.953C38.3517 182.677 38.8742 182.24 39.7925 181.059C40.456 180.206 40.1329 179.246 40.4715 178.23C41.2241 175.973 44.0283 176.533 44.0283 173.93C44.0283 173.302 44.7728 171.611 44.6103 171.602C43.6532 171.548 42.3198 171.422 41.4092 171.747C38.9281 172.633 36.9069 172.785 34.6514 171.311C33.0267 170.248 30.561 171.514 28.8959 171.602C27.9066 171.654 27.1853 170.01 26.4062 169.565C25.3261 168.947 24.3824 168.543 23.5122 167.673C23.0555 167.216 22.7483 166.625 22.5584 166.008C22.4235 165.569 22.7183 164.623 22.3482 164.326C21.6958 163.805 21.6207 161.524 21.6207 160.689C21.6207 158.954 20.1119 159.401 19.519 158.215C19.1986 157.575 19.3253 156.304 18.5813 155.952C17.0964 155.249 15.576 155.305 13.9737 155.305C13.3215 155.305 12.0881 155.752 11.6271 155.014C11.4338 154.705 11.1943 154.303 10.8187 154.61C9.6706 155.549 9.08075 156.76 7.48828 156.76" stroke="#5F67B0" stroke-width="1.2" stroke-linecap="round"/>
<path d="M43.1543 175.094C44.0758 175.094 44.9973 175.094 45.9189 175.094C47.0996 175.094 47.5806 174.645 48.6188 174.285C49.2474 174.068 49.7203 173.846 50.3002 173.477C50.8737 173.112 51.4638 171.893 52.1755 171.893C53.4947 171.893 53.9501 174.221 55.1503 173.865C56.1318 173.574 57.167 173.226 58.0927 172.782C59.0995 172.299 59.5892 172.712 60.6148 172.766C61.4935 172.812 62.2335 172.977 63.0883 173.202C64.116 173.473 64.943 173.057 65.8529 173.057C66.8437 173.057 69.5681 173.29 69.636 174.512C69.7617 176.774 73.0779 174.754 74.0011 174.803C74.5887 174.834 75.1266 176.319 75.5855 176.694C76.4024 177.363 76.9258 178.277 77.6549 179.006C78.0329 179.384 80.8216 181.128 79.0938 181.512C78.3693 181.673 76.3292 183.271 76.3292 183.969C76.3292 185.243 77.3173 185.777 77.9297 186.879C78.4137 187.751 77.4476 190.297 78.5118 190.533C79.7638 190.811 79.8213 192.833 79.8213 193.848C79.8213 195.231 80.3841 196.049 81.1308 197.21C82.2087 198.887 84.6831 200.263 85.1888 202.141C85.5354 203.429 85.3505 204.903 85.3505 206.232" stroke="#5F67B0" stroke-width="1.2" stroke-linecap="round"/>
<path d="M118.524 165.489C117.842 165.489 117.007 165.621 116.342 165.473C114.666 165.1 115.173 164.489 113.739 166.184C112.924 167.148 112.736 167.569 112.704 168.916C112.68 169.962 111.071 169.645 110.376 169.337C106.543 167.633 101.672 168.255 98.0083 170.29C97.4979 170.574 96.0081 170.532 96.6988 171.309C97.9185 172.681 95.0907 171.729 95.3084 172.538C95.5394 173.396 96.3478 174.552 95.2437 174.947C93.8409 175.448 91.8127 173.802 90.4259 174.559C89.1034 175.28 89.5049 176.256 87.6775 176.256C86.7192 176.256 84.0936 174.46 83.8297 174.833C83.1852 175.745 82.6447 176.922 82.3747 178.002C82.2224 178.611 82.156 179.337 81.5663 179.684C80.7196 180.182 79.7949 180.929 78.9473 181.494" stroke="#5F67B0" stroke-width="1.2" stroke-linecap="round"/>
<path d="M68.2148 172.991C68.447 172.939 70.8201 171.007 70.8823 170.79C71.0526 170.194 70.5652 169.328 70.5652 168.626C70.5652 167.436 70.901 166.329 70.901 165.119C70.901 164.125 73.4745 164.728 74.2586 164.336C75.6844 163.623 73.0694 160.25 74.669 159.635C76.3759 158.978 77.6827 158.444 78.9406 157.061C79.9367 155.965 80.0319 154.863 81.7946 154.542C85.6148 153.848 85.3388 149.391 85.3388 146.13C85.3388 144.616 85.8801 143.669 86.6819 142.511C88.0697 140.506 87.5969 139.855 86.0104 138.221C84.4862 136.65 83.0056 134.058 84.0704 131.692C84.664 130.373 86.0315 128.491 86.3275 127.159C86.6224 125.832 87.4054 124.006 88.1928 122.869C88.9517 121.772 91.9157 121.299 93.136 120.947C94.2744 120.619 97.3122 119.598 98.0419 118.746C99.1297 117.477 98.2381 115.232 99.4409 113.728C100.232 112.739 100.53 112.133 101.045 110.874C101.449 109.888 100.112 108.641 100.112 107.535C100.112 106.215 99.9222 104.816 100.374 103.562C100.825 102.307 103.571 103.776 104.477 103.823C107.297 103.972 109.825 100.656 111.79 99.048C112.628 98.3623 114.59 99.4084 115.222 98.619C116.02 97.6214 117.879 97.7708 118.747 96.9028C120.413 95.2371 123.165 92.2191 126.004 93.6385C128.342 94.8079 129.621 95.8412 132.271 95.0188C133.323 94.6924 134.156 95.4687 134.5 96.5" stroke="#5F67B0" stroke-width="1.2" stroke-linecap="round"/>
<path d="M100.449 103.152C100.449 101.6 100.95 100.83 100.188 99.4589C99.5651 98.3384 98.1569 98.9999 97.0911 98.5262C95.6284 97.8761 95.3043 98.6329 94.0692 98.7873C92.933 98.9294 92.8959 100.802 91.551 100.802C89.0412 100.802 85.8331 99.9767 83.6605 101.063C82.1578 101.814 82.4038 102.269 82.3174 103.824C82.2425 105.173 80.1548 105.016 79.6313 105.671C79.2607 106.134 79.2956 106.418 79.2956 107.032C79.2956 108.287 78.9027 108.125 77.8033 108.524C75.8813 109.223 75.0734 112.093 73.0839 112.535C72.29 112.711 71.573 111.298 71.573 110.707C71.573 109.57 69.3158 109.418 68.9615 108.04C68.7276 107.13 68.4749 104.578 67.5438 104.085C66.8072 103.695 65.8729 103.5 65.0442 103.488C64.0565 103.474 62.6861 103.733 61.7612 103.301C61.312 103.092 61.4485 101.93 61.3322 101.511C60.6251 98.9654 61.0999 97.2999 58.5 96" stroke="#5F67B0" stroke-width="1.2" stroke-linecap="round"/>
<path d="M99.6113 99.55C99.6113 96.0827 99.584 94.0435 101.772 91.308C102.422 90.4958 101.471 89.1439 102.325 88.2424C103.753 86.7354 104.648 86.1235 104.587 83.9707C104.519 81.6014 104.333 78.2004 102.878 76.3821C101.591 74.7738 104.795 75.2247 105.391 75.578C106.432 76.1952 106.959 76.4816 107.853 77.2867C109.018 78.3349 109.785 75.4396 110.467 74.6734C111.261 73.7798 112.104 73.2688 113.18 72.6631C114.432 71.9591 114.77 69.6342 116.246 71.5072C117.176 72.6871 117.033 74.8071 118.055 72.8641C118.822 71.4082 119.866 70.155 121.322 69.3462C122.116 68.9053 121.774 67.3573 121.774 66.5319C121.774 64.4767 122.125 61.1175 123.483 59.6469C125.312 57.6649 127.035 56.1802 129.815 55.3249C130.674 55.0607 133.103 55.0774 133.434 54.2192C134.031 52.6668 134.164 50.589 135.343 49.3444C136.413 48.2152 137.63 47.5742 138.962 46.9824C139.941 46.547 141.657 46.736 142.48 46.0778C143.873 44.9633 146.732 44.6075 147.656 43.0122C148.798 41.0397 148.912 39.745 148.912 37.484C148.912 36.3738 149.112 35.4266 149.616 34.4184C149.949 33.7531 151.133 32.8565 151.174 32.1569C151.317 29.7266 153.829 31.0371 155.596 31.7046C157.957 32.5965 158.269 31.7181 158.963 34.4184C159.323 35.8175 159.236 37.0641 159.315 38.4892C159.373 39.5326 161.01 39.5302 161.677 40.1979C162.852 41.373 162.472 43.6862 163.838 44.3691" stroke="#5F67B0" stroke-width="1.2" stroke-linecap="round"/>
<path d="M112.73 72.4115C112.615 71.49 110.243 69.4157 109.664 68.6926C109.165 68.068 109.813 67.0991 109.212 66.431C108.549 65.6946 108.659 64.7266 108.659 63.8177C108.659 61.9368 106.078 62.5869 105.945 60.1993C105.814 57.8296 106.417 56.5809 103.583 56.5809C101.804 56.5809 98.6363 55.5138 97.9045 53.8671C97.2453 52.3839 98.3589 52.0579 96.0953 52.0579C93.8765 52.0579 94.6896 50.6062 93.7332 48.9923C92.8549 47.51 92.3676 48.5253 91.0194 47.8866C89.6896 47.2567 89.6625 45.6117 89.6625 44.3687C89.6625 41.8962 85.5 42.65 85.5 40" stroke="#5F67B0" stroke-width="1.2" stroke-linecap="round"/>
</svg>
