<svg width="708" height="822" viewBox="0 0 708 822" fill="none" xmlns="http://www.w3.org/2000/svg">
<path d="M398.5 108.5L401.5 106.5L403 112L410.5 117.5L411.5 121L410 122V124.5L407 123.5L402 127L401.5 130L405.5 133L408.5 130L410.5 131L408.5 133L410.5 135L410 139.5L408.5 141.5L405.5 142.5L401.5 153L403 157L399.5 163L396.5 161L394.5 165.5L396.5 167L396 172L393 175.5L389 183.5L387.5 190.5L385 194.5L389 196V197.5H386.5V199.5L389 201V202.5L385 201L384.5 203.5L386 205H392L393 198L396 197.5L394.5 206.5L390.5 207C389.333 207 386.1 207.2 382.5 208C379.591 208.647 379.398 210.756 379.22 212.707C379.123 213.774 379.03 214.793 378.5 215.5C377 217.5 376 221.5 375.5 225.5C375 229.5 372.5 232.5 369.5 233C366.5 233.5 363.5 236 363.5 238C363.5 240 358 245.5 357 245.5C356.123 245.5 354.093 247.038 352.258 248.428C352 248.623 351.746 248.815 351.5 249C350.041 250.094 349.913 251.986 349.756 254.287C349.697 255.142 349.635 256.053 349.5 257C349.061 260.071 348.623 260.062 346.157 260.014C345.813 260.008 345.429 260 345 260C344.607 260 344.214 259.994 343.825 259.987C340.752 259.938 337.944 259.893 337.5 263C337.1 265.8 339.333 268.5 340.5 269.5L340 272L341.5 274.5L340.5 275.5C339.833 274.5 337.8 272.5 335 272.5C333.03 272.5 332.327 274.084 331.555 275.825C330.954 277.178 330.312 278.626 329 279.5C327.465 280.523 326.062 279.976 324.923 279.532C323.835 279.109 322.988 278.779 322.5 280C321.7 282 323.5 283.167 324.5 283.5C325 284 325.3 285.5 322.5 287.5C319.7 289.5 319.667 291 320 291.5C319.333 291.833 317.9 293.1 317.5 295.5C317.23 297.121 318.274 297.866 319.527 298.761C320.593 299.522 321.811 300.391 322.5 302C324 305.5 324 307 321 310.5C318.6 313.3 313.667 316.667 311.5 318C312.167 318.5 313.5 320.2 313.5 323C313.5 324.993 314.311 326.014 315.009 326.892C315.537 327.556 316 328.139 316 329V335H321L320 336.5H317.5L316 337.5C315.167 339.167 313 343.2 311 346C309 348.8 309.167 353.167 309.5 355H311.5C311.667 356 311.8 358.7 311 361.5C310 365 309 367 305.5 367C302.965 367 302.791 367.262 301.937 368.547C301.612 369.036 301.189 369.673 300.5 370.5C299.219 372.037 299.513 373.442 299.836 374.985C300.143 376.455 300.476 378.049 299.5 380C297.9 383.2 300.167 385.667 301.5 386.5H303.5V393L301.5 394.5H299.5C298.5 395 296.1 396.3 294.5 397.5C292.9 398.7 294.5 400.333 295.5 401C296.333 401.667 297.3 403.1 294.5 403.5C291.7 403.9 290.667 407.333 290.5 409L292 411C292.5 411.167 293 411.9 291 413.5C289 415.1 288.5 420.5 288.5 423L290.5 426V428L295.5 430.5V434C294.833 433.833 293.3 433.6 292.5 434C291.7 434.4 290.167 437.167 289.5 438.5V440L292.5 440.5L293.5 442L292 443.5C292 444.333 291.8 446.6 291 449C290.2 451.4 292.333 455 293.5 456.5L300 464.5L330.5 465.5L331.5 467L334.5 467.5L335.5 466L338 470V475.5C338 477.9 339 479.5 339.5 480H344.5L368 463.5C367.667 463.167 367.2 461.9 368 459.5C368.8 457.1 371.667 456.5 373 456.5C373.5 454.333 374 449.9 372 449.5C370 449.1 368.5 444.333 368 442C367 442.333 364.5 442.4 362.5 440C360.386 437.463 357.913 430.991 356.596 427.543C356.356 426.914 356.154 426.386 356 426C355.594 424.986 355.929 423.23 356.304 421.268C356.852 418.395 357.486 415.08 356 413C354.021 410.23 354.235 406.833 354.41 404.05C354.457 403.316 354.5 402.626 354.5 402C354.5 400.243 355.015 399.172 355.441 398.284C355.743 397.657 356 397.121 356 396.5C356 395 355.5 393.5 353.5 392C351.9 390.8 351.5 389.833 351.5 389.5H355.5C355.667 387 356.2 381.4 357 379C357.691 376.927 356.71 376.525 355.378 375.98C354.783 375.736 354.118 375.463 353.5 375C351.9 373.8 351.5 371.167 351.5 370L353.5 368V364.5L350.5 363.5V361.5L354.5 362.5C356 361.5 357.5 360.5 358.5 358C359.5 355.5 361 354.5 362.5 355C363.558 355.353 364.368 357.448 365.104 359.354C365.411 360.149 365.706 360.911 366 361.5C367 363.5 367.5 363.5 371 363.5C373.8 363.5 374.833 362.167 375 361.5C375 359.833 374.8 356.1 374 354.5C373.2 352.9 373.333 351.5 373.5 351C374 349.167 374.5 345.1 372.5 343.5C370 341.5 370.5 338.5 371 336.5C371.4 334.9 373.833 335.833 375 336.5V340L379.5 341.5C380.5 340.667 382.9 338.9 384.5 338.5C386.1 338.1 386.833 333 387 330.5C386.833 329.5 385.9 327.4 383.5 327C381.1 326.6 381.833 324.167 382.5 323L385.5 320C386.3 317.2 389.167 317.5 390.5 318L394.5 320L395.5 322C394.833 322 393.4 322.6 393 325C392.526 327.843 394.298 327.543 397.038 327.078L397.254 327.041C397.336 327.028 397.417 327.014 397.5 327C399.177 326.721 399.916 325.66 400.592 324.692C401.125 323.927 401.618 323.221 402.5 323C404.5 322.5 409.5 317 408.5 315.5C407.7 314.3 402.833 314.333 400.5 314.5C399.833 314.333 398.3 313.8 397.5 313C396.7 312.2 397.167 309.667 397.5 308.5L395.5 305.5H394.5V302L397 294L401 293L402 289.5L404.5 288.5C405.167 288.833 406.9 289.4 408.5 289C410.5 288.5 417.5 289 419 289.5C420.5 290 422 289.5 422.5 287.5C423 285.5 421 282 418.5 281C416 280 413.5 277.5 415 277.5C415.555 277.5 416.11 277.089 416.741 276.623C417.815 275.828 419.11 274.87 421 275.5C424 276.5 426 275 425 274.5C424.283 274.141 424.08 273.011 423.838 271.662C423.743 271.131 423.641 270.565 423.5 270C423.281 269.126 422.681 268.634 422.241 268.273C421.674 267.809 421.374 267.563 422.5 267C423.374 266.563 423.866 265.554 424.393 264.472C425.073 263.077 425.811 261.563 427.5 261C428.716 260.595 429.521 259.861 430.248 259.198C431.316 258.225 432.216 257.405 434 258C434.657 258.219 435.267 258.39 435.818 258.545C437.78 259.096 439 259.438 439 261C439 261.667 438.722 262.5 438.444 263.333C437.889 265 437.333 266.667 439 267C441.5 267.5 442.5 268 442 271.5C441.667 273.833 440.889 274.833 440.111 275.833C439.722 276.333 439.333 276.833 439 277.5C438.2 279.1 440.333 279.5 441.5 279.5C440.601 280.399 440.308 281.096 439.986 281.863C439.591 282.803 439.152 283.848 437.5 285.5C435.817 287.183 434.134 286.978 432.892 286.826C431.921 286.708 431.219 286.622 431 287.5C430.6 289.1 429.5 290.167 429 290.5C429.667 291.333 431.3 293.2 432.5 294C433.013 294.342 433.643 294.508 434.289 294.679C435.534 295.009 436.842 295.355 437.5 297C438.5 299.5 441.5 299.5 443.5 297C445.1 295 448.833 293.5 450.5 293C450.667 292.167 451.2 290.2 452 289C452.8 287.8 454.333 286.167 455 285.5C455 285 454.7 283.7 453.5 282.5C452.3 281.3 454 281.667 455 282L454 277.5L452 276.5V275L454 275.5L456.5 279.5C457.5 277.5 460.5 275.5 464 275.5C467.043 275.5 469.33 273.611 471.518 271.803C471.847 271.531 472.173 271.261 472.5 271C475 269 476 268.5 478.5 268C479.815 267.737 480.854 266.782 481.615 266.082C482.302 265.451 482.763 265.026 483 265.5C483.4 266.3 486.833 266.833 488.5 267C488.5 268.333 488.1 271.4 486.5 273C484.89 274.61 486.519 275.895 487.738 276.857C488.033 277.09 488.305 277.305 488.5 277.5C489.3 278.3 488.833 280.833 488.5 282C487.833 282.5 486.2 283.5 485 283.5C483.5 283.5 482 283 480 281C478 279 477 279.5 474 281C471.6 282.2 473 283.167 474 283.5L472.5 287.5C472.167 288.5 470.6 290.5 467 290.5C463.4 290.5 461.167 289.5 460.5 289C459.833 288.667 458.1 287.9 456.5 287.5C454.706 287.051 454.521 288.615 454.141 291.828C454.098 292.197 454.051 292.588 454 293C453.5 297 454.5 298 456 299.5C457.2 300.7 459.5 301.667 460.5 302V303.5C459.667 303.667 457.6 304.6 456 307C454.778 308.833 452.436 309.919 450.229 310.943C448.824 311.595 447.473 312.222 446.5 313C444 315 444.5 318 445.5 320C446.5 322 448 322 449 321C450 320 452 318 456.5 315.5C461 313 464.5 312 468 313C471.5 314 472.5 311.5 472.5 310C472.5 308.5 473 306 474 307.5C474.8 308.7 476.333 309 477 309C476.833 310.333 477.1 313.2 479.5 314C481.243 314.581 481.467 313.305 481.741 311.741C481.939 310.614 482.162 309.338 483 308.5C485 306.5 488.5 307 488.5 309C488.5 309.764 488.646 310.236 488.771 310.639C488.972 311.292 489.118 311.764 488.5 313C488.163 313.673 487.543 314.233 486.964 314.756C485.823 315.787 484.842 316.673 486.5 318C487.601 318.881 487.732 319.762 487.876 320.728C488.059 321.956 488.262 323.321 490.5 325C493.046 326.91 494.985 325.578 496.573 324.486C497.48 323.863 498.273 323.318 499 323.5C500 323.75 500 324.25 500 324.875C500 325.5 500 326.25 501 327C503 328.5 504.5 331.5 502 331.5C499.5 331.5 496 334.5 494 337.5C493 339 493 340.125 493 340.938C493 341.75 493 342.25 492 342.5L491.818 342.545C489.85 343.034 487.425 343.635 485 348C482.556 352.399 482.979 353.453 483.933 355.833L484 356C485 358.5 488 362.5 490.5 362.5C492.5 362.5 496 361.167 497.5 360.5L497 356.5C497.667 355 499.4 351.8 501 351C502.6 350.2 507 348.667 509 348H513.5L516 346.5C518.333 345.667 523.5 343.9 525.5 343.5C527.5 343.1 530 342.667 531 342.5C531.167 343 531.3 344.3 530.5 345.5C530.201 345.949 529.857 346.308 529.522 346.658C528.737 347.478 528 348.248 528 350C528 351.409 528.794 351.865 529.487 352.263C530.024 352.572 530.5 352.845 530.5 353.5C530.5 354 530.278 354.444 530.056 354.889C529.611 355.778 529.167 356.667 530.5 358C530.864 358.364 531.194 358.711 531.495 359.026C532.847 360.446 533.591 361.227 534 360C534.271 359.188 535.274 358.376 536.376 357.484C537.309 356.729 538.312 355.917 539 355C539.072 354.903 539.144 354.808 539.214 354.714C540.599 352.86 541.597 351.524 543.5 352C545.5 352.5 546 353 546 355C546 355.899 545.394 356.293 544.727 356.727C543.909 357.258 543 357.848 543 359.5C543 361.9 544 362.5 544.5 362.5C544.5 362.833 544.8 364 546 366C547.5 368.5 546 369 542.5 370C539 371 538.5 374 541 378C542.831 380.929 544.125 380.909 545.669 380.885C546.233 380.876 546.831 380.866 547.5 381C549.151 381.33 549.711 382.532 550.478 384.174C550.872 385.019 551.32 385.981 552 387C553.236 388.854 553.517 387.652 553.906 385.992C554.146 384.966 554.427 383.764 555 383C556.5 381 556 380.5 554.5 379C553.794 378.294 553.974 378.142 554.363 377.814C554.8 377.444 555.5 376.853 555.5 375C555.5 372.2 556.833 371.5 557.5 371.5L558.5 374L557.5 375V378C557.667 379.167 558.4 381.3 560 380.5C562 379.5 563 380 564 382C565 384 565.5 385 566.5 384C566.629 383.871 566.758 383.726 566.891 383.575C567.791 382.559 568.887 381.322 571.5 383.5C574.5 386 575.5 388.5 574 390C573.558 390.442 572.942 390.971 572.255 391.561C570.611 392.973 568.558 394.737 567.5 396.5C566.968 397.387 566.31 398.022 565.705 398.606C564.604 399.669 563.677 400.564 564 402.5C564.167 403.5 564.167 404.5 564.167 405.481C564.167 407.444 564.167 409.333 565.5 411C567.5 413.5 572 415.5 576 414C577.99 413.254 579.113 411.889 579.986 410.829C580.868 409.758 581.495 408.997 582.5 409.5C583.635 410.067 584.608 409.83 585.512 409.61C586.202 409.442 586.851 409.284 587.5 409.5C589 410 590.5 413 587.5 413C585.757 413 585.533 413.507 585.259 414.127C585.061 414.575 584.838 415.081 584 415.5C583.279 415.86 582.363 416.741 581.37 417.696C579.607 419.39 577.599 421.32 576 421C573.5 420.5 572.5 420.5 573 424C573.111 424.778 573.173 425.556 573.235 426.333C573.451 429.056 573.667 431.778 576 434.5C578.071 436.916 581.095 436.473 583.427 436.131C584.473 435.978 585.381 435.845 586 436C588 436.5 589 439 587.5 441C586.797 441.937 586.863 442.983 586.925 443.985C586.996 445.122 587.063 446.203 586 447C584 448.5 583 450.5 583 453.5C583 454.815 583.384 455.746 583.732 456.588C584.177 457.665 584.562 458.596 584 460C583.356 461.61 584.371 462.39 585.175 463.009C585.62 463.351 586 463.644 586 464C586 464.22 586.048 464.487 586.102 464.788C586.294 465.854 586.56 467.33 585 468.5C583 470 581.5 473 580 478C578.8 482 580.167 483.667 581 484V485.5C580.167 485.667 578.2 486.6 577 489C576.139 490.722 576.596 492.444 576.952 493.787C577.217 494.785 577.426 495.574 577 496C576.2 496.8 575 496.333 574.5 496L573 494.5L567 494V495H565L563.5 494.5L556 499C554 500.2 554.167 502.833 554.5 504L556 508L558 519L555.5 520L553.5 509C553.333 508.5 552.7 507 551.5 505C550 502.5 546.5 503 545.5 504C545.116 504.384 544.658 505.064 544.211 505.727C543.495 506.789 542.808 507.808 542.5 507.5C542 507 540.5 506 539.5 509C538.7 511.4 539.833 513.333 540.5 514C540.667 514.333 540.9 515.3 540.5 516.5C540.227 517.318 539.062 517.244 537.897 517.169C536.926 517.107 535.955 517.045 535.5 517.5C535.358 517.642 535.177 517.813 534.968 518.011C533.701 519.208 531.429 521.354 531 523.5C530.6 525.5 531.167 528 531.5 529L535 533L536.5 531.5L538 532.5L535.5 535C535 534.667 533.5 533.6 531.5 532C529.797 530.638 528.558 532.291 527.309 533.958C526.725 534.738 526.138 535.522 525.5 536C524.647 536.64 523.702 537.735 522.667 538.936C521.275 540.549 519.72 542.353 518 543.5C515.6 545.1 518 548.5 519.5 550C520.5 551.333 523.1 554.2 525.5 555C527.333 555.611 529.167 553.608 530.886 551.729C531.98 550.534 533.028 549.389 534 549C536 548.2 539.167 548.667 540.5 549L544.5 555C545.167 555 546.7 554.8 547.5 554C548.5 553 548 550.5 546.5 547.5C545 544.5 547 541.5 550.5 539.5C553.407 537.839 556.314 534.798 558.075 532.956L558.078 532.953C558.436 532.578 558.747 532.253 559 532C560.2 530.8 561.833 530.167 562.5 530C563 530 564.5 530.4 566.5 532C568.5 533.6 568.333 536.333 568 537.5C567.5 538.5 566 540.7 564 541.5C562.104 542.258 562.221 544.742 562.388 548.296C562.442 549.429 562.5 550.671 562.5 552C562.5 557.5 564 560 566.5 563C568.5 565.4 572 565.333 573.5 565L575 567.5V571L583 575.5V577.5L575 573C575 573.5 574.1 574.5 570.5 574.5C566.9 574.5 564.667 573.5 564 573C562.333 572.667 558.5 572.5 556.5 574.5C554 577 553 578.5 553 586.5C553 594.5 556.5 599.5 559 600.5C561 601.3 563.167 598.5 564 597C564.333 597.333 564.5 598.5 562.5 600.5C560.5 602.5 566 606 569 607.5C571.667 607.167 577.7 606.2 580.5 605C583.3 603.8 587 597.167 588.5 594L590.5 592.5L583 581.5L585 580.5L595 594C596 594.333 598.1 595.6 598.5 598C599 601 605 603 608.5 600.5C612 598 613.5 597 616.5 598C617.327 598.276 618.04 598.437 618.713 598.59C620.479 598.99 621.965 599.327 624.5 601.5C626.486 603.202 629.598 602.812 631.919 602.521C633.69 602.299 635 602.135 635 603C635 605 637.5 606.5 640.5 606.5C642.9 606.5 646.167 605.5 647.5 605L649.5 606.5C649.5 607.667 649.1 609.8 647.5 609C645.5 608 641.5 609 640.5 610C640.403 610.097 640.297 610.194 640.187 610.294L640.187 610.294C639.168 611.223 637.889 612.389 641.5 616C644.7 619.2 644.167 622.333 643.5 623.5C642.167 623.333 638.8 623.5 636 625.5C632.5 628 633.5 634 641.5 639C647.9 643 651.833 640.667 653 639L655 640.5L659.5 639C660.167 639.5 662.3 640.5 665.5 640.5C668.7 640.5 671.167 641.5 672 642C671.667 642.333 670.6 643 669 643C667 643 661.5 647.5 665.5 653C669.5 658.5 672.5 657 674.5 655.5C676.1 654.3 678.5 652.667 679.5 652C680.5 652.333 682.7 653.5 683.5 655.5C684.174 657.186 683.485 658.417 682.964 659.346C682.712 659.795 682.5 660.174 682.5 660.5C682.5 660.833 681.889 661.111 681.074 661.481C679.444 662.222 677 663.333 677 666C677 669.2 680.667 669.333 682.5 669C682.833 670 682.5 672.2 678.5 673C673.5 674 677 678.5 680.5 681C683.3 683 683 687.167 682.5 689C685.167 689.5 690.7 691.1 691.5 693.5C692.3 695.9 694.5 695.833 695.5 695.5C695.833 696.833 696.1 699.8 694.5 701C693.167 702 691.833 701.222 690.5 700.444C689.833 700.056 689.167 699.667 688.5 699.5C686.9 699.1 684.5 698.667 683.5 698.5C682.333 699 679.4 699.5 677 697.5C675.357 696.13 672.963 696.712 669.983 697.435C667.524 698.032 664.665 698.726 661.5 698.5C657.593 698.221 656.957 699.344 656.462 700.216C656.071 700.907 655.768 701.442 654 701C650.8 700.2 647.333 695.667 646 693.5C646.167 692.667 646.9 690.1 648.5 686.5C650.5 682 650.5 676.5 647.5 676.5C645.1 676.5 642.5 674.167 641.5 673C641.5 671.667 640.7 668 637.5 664C634.172 659.84 629.46 660.179 626.243 660.411C625.593 660.458 625.004 660.5 624.5 660.5C622.1 660.5 618.833 657.167 617.5 655.5C614.833 655 608.8 654 606 654C603.2 654 602.167 658.333 602 660.5V665C603.167 665.333 605.4 666.6 605 669C604.875 669.747 604.906 670.525 604.937 671.319C605.031 673.712 605.13 676.247 601 678.5C598.641 679.786 597.386 681.165 596.406 682.241C595.101 683.674 594.285 684.571 592 684C589.399 683.35 588.912 684.179 588.202 685.389C587.821 686.04 587.374 686.801 586.5 687.5C584 689.5 578 688 575 686.5C572.6 685.3 574 682.333 575 681V676.5L569 670.5C568.833 669.833 568.4 667.8 568 665C567.6 662.2 565.167 660.833 564 660.5L559 666H556.5C556 665.333 554.6 663.6 553 662C552 661 552.375 659.875 552.812 658.562C553.25 657.25 553.75 655.75 553 654C552.003 651.674 549.682 651.556 547.503 651.445C546.403 651.39 545.339 651.336 544.5 651L544.241 650.896C541.93 649.969 540.982 649.588 540.5 652C540 654.5 539.5 654 537.5 651C535.9 648.6 532.833 647.667 531.5 647.5C532.333 645.167 532.7 639.8 527.5 637C522.3 634.2 516 635.833 513.5 637C512.5 638.167 509.9 641 507.5 643C505.96 644.283 505.343 645.83 504.836 647.099C504.355 648.302 503.974 649.257 503 649.5C501 650 499.5 649.5 499.5 647.5C499.5 645.5 497 645 493.5 647.5C492.048 648.537 491.112 649.747 490.264 650.843C489.069 652.388 488.048 653.707 486 654C482.5 654.5 479 653 477 652C475.731 651.365 475.871 649.925 476.015 648.446C476.098 647.595 476.183 646.731 476 646C475.5 644 474 640.5 470.5 642C468.085 643.035 467.813 642.642 466.89 641.313C466.476 640.716 465.93 639.93 465 639C463.694 637.694 463.051 635.819 462.411 633.953C461.582 631.533 460.758 629.129 458.5 628C454.712 626.106 450.923 627.799 446.71 629.683C446.475 629.788 446.238 629.894 446 630C443.095 631.291 442.69 630.707 441.827 629.457C441.353 628.772 440.74 627.886 439.5 627C437.562 625.616 436.697 625.764 435.802 625.918C435.08 626.042 434.339 626.169 433 625.5C431.192 624.596 431.018 622.965 430.838 621.265C430.718 620.144 430.596 618.993 430 618C428.8 616 426.167 615.5 425 615.5L423.5 620.5H421L422.5 614.5L418.5 619.5L416 618L421 613.5L419.5 609L423.5 606L421 602.5L419.5 604.5C418.833 604.167 417 603.3 415 602.5C413.729 601.992 412.329 602.259 410.997 602.513C409.708 602.758 408.483 602.992 407.5 602.5C405.9 601.7 404.833 604.5 404.5 606L379.5 590.5H377L376 586L372 583L371 586L365 583L363 579.5L358.5 578.5L354 575L356.5 569.5L347 566L337 586L340.5 588.5L335.5 593C336 593.667 337 595.8 337 599C337 602.042 338.446 603.638 339.579 604.888C339.935 605.282 340.261 605.641 340.5 606C340.709 606.313 340.961 606.626 341.202 606.926C342.117 608.061 342.874 609 340.5 609C338.1 609 336.167 612.667 335.5 614.5L334.5 622.5L337 623L338 628C338.833 629.667 340 633.3 338 634.5C336.794 635.224 336.519 635.831 336.22 636.491C335.9 637.198 335.552 637.965 334 639C331 641 329 642 326 642C324.639 642 323.792 641.28 323.087 640.679C322.238 639.956 321.593 639.407 320.5 640.5C318.5 642.5 316 642 311.5 640.5C307.9 639.3 307 636 307 634.5L303.5 633C303.167 634.333 302.3 637 301.5 637C300.5 637 295 640 289.5 644C285.864 646.644 284.413 646.011 282.403 645.133C281.372 644.684 280.195 644.169 278.5 644C276.098 643.76 274.042 645.597 271.833 647.571C269.444 649.706 266.877 652 263.5 652C260.364 652 258.974 652.931 258.038 653.558C257.034 654.23 256.553 654.553 255 653C253.393 651.393 253.077 652.368 252.746 653.39C252.459 654.276 252.161 655.197 251 654.5C248.5 653 248 654 247 656C246.2 657.6 240 654.667 237 653C236.667 654 235.5 655.4 233.5 653C232.091 651.309 230.205 651.683 228.291 652.063C226.809 652.357 225.309 652.655 224 652C221.6 650.8 215 650.833 212 651L207 650V656H205C205.167 655.167 205.1 653.2 203.5 652C202.566 651.3 201.632 651.689 200.648 652.1C199.523 652.569 198.333 653.066 197 652C195.8 651.04 192.987 651.232 189.501 651.47C185.725 651.728 181.16 652.04 177 651C169 649 161.5 644.5 159.5 642C158.514 640.767 155.826 640.142 153.174 639.526C150.448 638.892 147.76 638.267 147 637C145.5 634.5 134.5 624.5 128.5 620C124.879 617.284 124.718 620.942 124.61 623.39C124.539 624.999 124.491 626.086 123.5 624.5C122.121 622.293 120.437 622.978 118.869 623.615C117.595 624.134 116.397 624.621 115.5 623.5C114.272 621.965 112.856 622.88 111.945 623.468C111.373 623.838 111 624.079 111 623.5C111 622 110 619 107 616.5C105.384 615.153 104.348 615.403 103.502 615.607C102.777 615.781 102.192 615.922 101.5 615C100.3 613.4 96.6667 614.333 95 615C92.8333 615.667 88 616.4 86 614C84.75 612.5 83.75 612.25 83 612.062C82.25 611.875 81.75 611.75 81.5 610.5C81.2684 609.342 80.2857 608.291 79.4963 607.447C78.5816 606.469 77.9265 605.768 79 605.5C81 605 82 601 80 599C78 597 78.5 595 80 596.5C81.2 597.7 83.5 596 84.5 595C85.3333 595.5 87.3 596.5 88.5 596.5C90 596.5 92.5 594.5 91.5 591C90.5 587.5 87.5 585.5 86 587C85.3229 587.677 84.6458 588.966 84.1066 589.991C83.4514 591.238 83 592.097 83 591C83 589.4 84 586.667 84.5 585.5C84.8333 584.5 85.6 581.9 86 579.5C86.5 576.5 83.5 571 80 569.5C77.2 568.3 73.5 563.333 72 561H68C63.6667 557.667 54.6 549.3 53 542.5C51.4858 536.065 53.9839 528.483 55.2869 524.529C55.705 523.26 56 522.364 56 522C56 520.8 51.3333 517.833 49 516.5C49 515.833 49.8 515.1 53 517.5C56.3452 520.009 56.1934 516.923 56.0541 514.09C56.0268 513.536 56 512.991 56 512.5C56 509.5 51.5 506 52 509C52.5 512 50 512.5 50 510C50 508 48.6667 506.5 48 506C48 502.333 47.5 494.4 45.4998 492C43.4996 489.6 39.6662 483.667 37.9995 481L38.9995 471.5C33.7993 468.3 33.4994 465.5 33.9995 464.5C34.6662 465.833 36.3995 468.4 37.9995 468C39.5995 467.6 39.9997 460.833 39.9998 457.5L34.9995 459L39.9998 450.5C39.8331 448 40.6998 441.6 45.4998 436C46.6775 434.626 47.6818 433.387 48.5921 432.264C52.3198 427.665 54.4719 425.009 60.4998 423C65.4188 421.36 67.1116 419.075 69.3869 416.004C70.5808 414.393 71.935 412.565 73.9998 410.5C77.8861 406.614 79.2552 403.357 80.4169 400.593C81.0487 399.09 81.6191 397.733 82.4998 396.5C84.4363 393.789 87.5729 391.678 89.818 390.167C90.471 389.727 91.0491 389.338 91.4998 389C93.0998 387.8 94.1665 384.5 94.4998 383C94.4998 385 94.9998 389 96.9998 389C98.9998 389 102.166 385 103.5 383H116L121.5 379.5V377L128 370L129.5 363C130.5 362.333 132.4 360.7 132 359.5C131.5 358 128 356.5 124 355.5C120.801 354.7 121.667 347.833 122.5 344.5C123.333 344.5 124.8 344.1 124 342.5C123 340.5 123.5 337 125 337C125.5 337 126.389 336.722 127.278 336.444C129.056 335.889 130.833 335.333 129.5 337C127.9 339 128.833 339.833 129.5 340L135.5 344.5C137.1 345.7 142.5 342 145 340C145.5 339.5 147.1 337.7 149.5 334.5C151.9 331.3 154.833 325.5 156 323V315C156 312.6 159.667 306 161.5 303L163 298H165.5L172 296V293L176.5 290L182 288.5L186 285L193.5 273.5L191.5 264.5L193.5 261L198 255L197 245L193.5 244L191.5 240L188 239L188.5 237L190 235L191.5 231H194.5L197 228C197.333 227.5 198 226.4 198 226C198 225.6 204 222.5 207 221L209 220.5C210 218.5 211.7 214.3 210.5 213.5C210.218 213.312 209.901 213.16 209.589 213.009C208.237 212.359 206.969 211.749 209 208.5C211 205.3 214.5 203.833 216 203.5L221 202L221.5 195.5L216 193L214 196L212 195L215 190L219.5 190.5V187.5L217.5 186V183L224.5 180H231L232.5 178L229.5 174L232.5 170H234.5L232.5 174L234.5 176L237.5 172.5L240 174H244V170C244 168 246 168.167 247 168.5C248.5 167.333 252 164.7 254 163.5C256.5 162 257.5 160 258.5 156.5C259.3 153.7 257.167 152.667 256 152.5L254 149.5L257.5 147.5L260.5 149.5L263.5 148.5L265 145L272.5 141.5L274.5 144L280 141.5L288.5 132L299.5 128L301 126.5L299.5 122L303.5 124.5L306 128L318.5 122L323 121L324.5 117.5H328L329.5 114.5L338.5 113.5L341 116L343 117.5H348L350 121C350.5 121.333 352.8 122 358 122C364.5 122 375 116.5 377 114.5C378.6 112.9 386.333 109.833 390 108.5H398.5Z" fill="#1A203A"/>
<path d="M673 602C674.2 602 675.5 602.667 676 603L677 604L676.5 605L674.5 605.5C673.333 606 670.6 606.8 669 606C667.4 605.2 667.667 604 668 603.5C669.167 603 671.8 602 673 602Z" fill="#1A203A"/>
<path d="M365 633.001C365 632.601 365.333 631.835 365.5 631.501L364 630.001C363 630.335 360.9 630.601 360.5 629.001C360 627.001 359.5 625.001 361 623.001C361.944 621.742 361.106 621.474 359.856 621.074C359.12 620.838 358.241 620.557 357.5 620.001C355.5 618.501 355.5 616.001 356 614.001C356.393 612.429 355.859 611.475 355.127 610.167C354.927 609.811 354.714 609.429 354.5 609.001C353.703 607.408 354.492 605.498 355.099 604.029L355.101 604.026C355.255 603.651 355.398 603.306 355.5 603.001C355.875 601.876 355.687 600.751 355.57 600.048C355.531 599.814 355.5 599.626 355.5 599.501C355.5 599.001 353.5 598.001 352 599.501C350.5 601.001 348.5 604.001 349 606.501C349.162 607.311 349.429 608.015 349.681 608.682C350.209 610.076 350.676 611.309 350 613C349.098 615.256 350.23 617.105 351.562 619.28C351.706 619.516 351.853 619.756 352 620.001C353.5 622.5 354.999 626.499 354.5 627.5C354.212 628.077 353.259 628.82 352.217 629.633C351.45 630.23 350.635 630.866 350 631.501C348.8 632.701 349.5 633.001 350 633.001C351.5 631.835 354.8 629.401 356 629.001C357 628.668 357.556 629.223 358.407 630.075C358.833 630.501 359.333 631.001 360 631.501C362 633.001 363 633.502 365 633.001Z" fill="#1A203A"/>
<path d="M403 624.501L402 626.001C401.5 626.001 400.4 625.701 400 624.501C399.6 623.301 396.833 623.001 395.5 623.001C395.667 622.334 395.4 621.001 393 621.001C391.868 621.001 391.093 621.143 390.565 621.24C389.694 621.4 389.5 621.435 389.5 620.501C389.5 619.001 388.5 618.501 386.5 618.501C385.336 618.501 385.019 618.84 384.661 619.222C384.405 619.496 384.127 619.792 383.5 620.001C382 620.501 381 619.501 380 618.501C379.59 618.091 379.517 617.514 379.434 616.871C379.316 615.946 379.181 614.886 378 614.001C376.524 612.894 376.41 612.059 376.25 610.894C376.194 610.48 376.131 610.025 376 609.501C375.6 607.901 376.5 606.834 377 606.501L378 604.001L379.5 602.501L380 605.001L379.5 606.501L382.5 609.501C383.834 610.834 384.5 610.612 385.834 610.167L385.835 610.167C386.501 609.945 387.334 609.667 388.5 609.501C390.317 609.241 391.595 609.79 392.964 610.378C394.232 610.923 395.577 611.501 397.5 611.501C400.7 611.501 403.167 611.834 404 612.001C404 612.668 404.3 614.301 405.5 615.501C406.7 616.701 409.334 619.668 410.5 621.001V623.001L408 624.501H403Z" fill="#1A203A"/>
<path d="M385.5 627.001C385.9 626.601 387.667 627.835 388.5 628.501L389 630.001L387 631.501H384.5L385.5 630.001C385.333 629.168 385.1 627.401 385.5 627.001Z" fill="#1A203A"/>
<path d="M398.5 108.5L401.5 106.5L403 112L410.5 117.5L411.5 121L410 122V124.5L407 123.5L402 127L401.5 130L405.5 133L408.5 130L410.5 131L408.5 133L410.5 135L410 139.5L408.5 141.5L405.5 142.5L401.5 153L403 157L399.5 163L396.5 161L394.5 165.5L396.5 167L396 172L393 175.5L389 183.5L387.5 190.5L385 194.5L389 196V197.5H386.5V199.5L389 201V202.5L385 201L384.5 203.5L386 205H392L393 198L396 197.5L394.5 206.5L390.5 207C389.333 207 386.1 207.2 382.5 208C379.591 208.647 379.398 210.756 379.22 212.707C379.123 213.774 379.03 214.793 378.5 215.5C377 217.5 376 221.5 375.5 225.5C375 229.5 372.5 232.5 369.5 233C366.5 233.5 363.5 236 363.5 238C363.5 240 358 245.5 357 245.5C356.123 245.5 354.093 247.038 352.258 248.428C352 248.623 351.746 248.815 351.5 249C350.041 250.094 349.913 251.986 349.756 254.287C349.697 255.142 349.635 256.053 349.5 257C349.061 260.071 348.623 260.062 346.157 260.014C345.813 260.008 345.429 260 345 260C344.607 260 344.214 259.994 343.825 259.987C340.752 259.938 337.944 259.893 337.5 263C337.1 265.8 339.333 268.5 340.5 269.5L340 272L341.5 274.5L340.5 275.5C339.833 274.5 337.8 272.5 335 272.5C333.03 272.5 332.327 274.084 331.555 275.825C330.954 277.178 330.312 278.626 329 279.5C327.465 280.523 326.062 279.976 324.923 279.532C323.835 279.109 322.988 278.779 322.5 280C321.7 282 323.5 283.167 324.5 283.5C325 284 325.3 285.5 322.5 287.5C319.7 289.5 319.667 291 320 291.5C319.333 291.833 317.9 293.1 317.5 295.5C317.23 297.121 318.274 297.866 319.527 298.761C320.593 299.522 321.811 300.391 322.5 302C324 305.5 324 307 321 310.5C318.6 313.3 313.667 316.667 311.5 318C312.167 318.5 313.5 320.2 313.5 323C313.5 324.993 314.311 326.014 315.009 326.892C315.537 327.556 316 328.139 316 329V335H321L320 336.5H317.5L316 337.5C315.167 339.167 313 343.2 311 346C309 348.8 309.167 353.167 309.5 355H311.5C311.667 356 311.8 358.7 311 361.5C310 365 309 367 305.5 367C302.965 367 302.791 367.262 301.937 368.547C301.612 369.036 301.189 369.673 300.5 370.5C299.219 372.037 299.513 373.442 299.836 374.985C300.143 376.455 300.476 378.049 299.5 380C297.9 383.2 300.167 385.667 301.5 386.5H303.5V393L301.5 394.5H299.5C298.5 395 296.1 396.3 294.5 397.5C292.9 398.7 294.5 400.333 295.5 401C296.333 401.667 297.3 403.1 294.5 403.5C291.7 403.9 290.667 407.333 290.5 409L292 411C292.5 411.167 293 411.9 291 413.5C289 415.1 288.5 420.5 288.5 423L290.5 426V428L295.5 430.5V434C294.833 433.833 293.3 433.6 292.5 434C291.7 434.4 290.167 437.167 289.5 438.5V440L292.5 440.5L293.5 442L292 443.5C292 444.333 291.8 446.6 291 449C290.2 451.4 292.333 455 293.5 456.5L300 464.5L330.5 465.5L331.5 467L334.5 467.5L335.5 466L338 470V475.5C338 477.9 339 479.5 339.5 480H344.5L368 463.5C367.667 463.167 367.2 461.9 368 459.5C368.8 457.1 371.667 456.5 373 456.5C373.5 454.333 374 449.9 372 449.5C370 449.1 368.5 444.333 368 442C367 442.333 364.5 442.4 362.5 440C360.386 437.463 357.913 430.991 356.596 427.543C356.356 426.914 356.154 426.386 356 426C355.594 424.986 355.929 423.23 356.304 421.268C356.852 418.395 357.486 415.08 356 413C354.021 410.23 354.235 406.833 354.41 404.05C354.457 403.316 354.5 402.626 354.5 402C354.5 400.243 355.015 399.172 355.441 398.284C355.743 397.657 356 397.121 356 396.5C356 395 355.5 393.5 353.5 392C351.9 390.8 351.5 389.833 351.5 389.5H355.5C355.667 387 356.2 381.4 357 379C357.691 376.927 356.71 376.525 355.378 375.98C354.783 375.736 354.118 375.463 353.5 375C351.9 373.8 351.5 371.167 351.5 370L353.5 368V364.5L350.5 363.5V361.5L354.5 362.5C356 361.5 357.5 360.5 358.5 358C359.5 355.5 361 354.5 362.5 355C363.558 355.353 364.368 357.448 365.104 359.354C365.411 360.149 365.706 360.911 366 361.5C367 363.5 367.5 363.5 371 363.5C373.8 363.5 374.833 362.167 375 361.5C375 359.833 374.8 356.1 374 354.5C373.2 352.9 373.333 351.5 373.5 351C374 349.167 374.5 345.1 372.5 343.5C370 341.5 370.5 338.5 371 336.5C371.4 334.9 373.833 335.833 375 336.5V340L379.5 341.5C380.5 340.667 382.9 338.9 384.5 338.5C386.1 338.1 386.833 333 387 330.5C386.833 329.5 385.9 327.4 383.5 327C381.1 326.6 381.833 324.167 382.5 323L385.5 320C386.3 317.2 389.167 317.5 390.5 318L394.5 320L395.5 322C394.833 322 393.4 322.6 393 325C392.526 327.843 394.298 327.543 397.038 327.078L397.254 327.041C397.336 327.028 397.417 327.014 397.5 327C399.177 326.721 399.916 325.66 400.592 324.692C401.125 323.927 401.618 323.221 402.5 323C404.5 322.5 409.5 317 408.5 315.5C407.7 314.3 402.833 314.333 400.5 314.5C399.833 314.333 398.3 313.8 397.5 313C396.7 312.2 397.167 309.667 397.5 308.5L395.5 305.5H394.5V302L397 294L401 293L402 289.5L404.5 288.5C405.167 288.833 406.9 289.4 408.5 289C410.5 288.5 417.5 289 419 289.5C420.5 290 422 289.5 422.5 287.5C423 285.5 421 282 418.5 281C416 280 413.5 277.5 415 277.5C415.555 277.5 416.11 277.089 416.741 276.623C417.815 275.828 419.11 274.87 421 275.5C424 276.5 426 275 425 274.5C424.283 274.141 424.08 273.011 423.838 271.662C423.743 271.131 423.641 270.565 423.5 270C423.281 269.126 422.681 268.634 422.241 268.273C421.674 267.809 421.374 267.563 422.5 267C423.374 266.563 423.866 265.554 424.393 264.472C425.073 263.077 425.811 261.563 427.5 261C428.716 260.595 429.521 259.861 430.248 259.198C431.316 258.225 432.216 257.405 434 258C434.657 258.219 435.267 258.39 435.818 258.545C437.78 259.096 439 259.438 439 261C439 261.667 438.722 262.5 438.444 263.333C437.889 265 437.333 266.667 439 267C441.5 267.5 442.5 268 442 271.5C441.667 273.833 440.889 274.833 440.111 275.833C439.722 276.333 439.333 276.833 439 277.5C438.2 279.1 440.333 279.5 441.5 279.5C440.601 280.399 440.308 281.096 439.986 281.863C439.591 282.803 439.152 283.848 437.5 285.5C435.817 287.183 434.134 286.978 432.892 286.826C431.921 286.708 431.219 286.622 431 287.5C430.6 289.1 429.5 290.167 429 290.5C429.667 291.333 431.3 293.2 432.5 294C433.013 294.342 433.643 294.508 434.289 294.679C435.534 295.009 436.842 295.355 437.5 297C438.5 299.5 441.5 299.5 443.5 297C445.1 295 448.833 293.5 450.5 293C450.667 292.167 451.2 290.2 452 289C452.8 287.8 454.333 286.167 455 285.5C455 285 454.7 283.7 453.5 282.5C452.3 281.3 454 281.667 455 282L454 277.5L452 276.5V275L454 275.5L456.5 279.5C457.5 277.5 460.5 275.5 464 275.5C467.043 275.5 469.33 273.611 471.518 271.803C471.847 271.531 472.173 271.261 472.5 271C475 269 476 268.5 478.5 268C479.815 267.737 480.854 266.782 481.615 266.082C482.302 265.451 482.763 265.026 483 265.5C483.4 266.3 486.833 266.833 488.5 267C488.5 268.333 488.1 271.4 486.5 273C484.89 274.61 486.519 275.895 487.738 276.857C488.033 277.09 488.305 277.305 488.5 277.5C489.3 278.3 488.833 280.833 488.5 282C487.833 282.5 486.2 283.5 485 283.5C483.5 283.5 482 283 480 281C478 279 477 279.5 474 281C471.6 282.2 473 283.167 474 283.5L472.5 287.5C472.167 288.5 470.6 290.5 467 290.5C463.4 290.5 461.167 289.5 460.5 289C459.833 288.667 458.1 287.9 456.5 287.5C454.706 287.051 454.521 288.615 454.141 291.828C454.098 292.197 454.051 292.588 454 293C453.5 297 454.5 298 456 299.5C457.2 300.7 459.5 301.667 460.5 302V303.5C459.667 303.667 457.6 304.6 456 307C454.778 308.833 452.436 309.919 450.229 310.943C448.824 311.595 447.473 312.222 446.5 313C444 315 444.5 318 445.5 320C446.5 322 448 322 449 321C450 320 452 318 456.5 315.5C461 313 464.5 312 468 313C471.5 314 472.5 311.5 472.5 310C472.5 308.5 473 306 474 307.5C474.8 308.7 476.333 309 477 309C476.833 310.333 477.1 313.2 479.5 314C481.243 314.581 481.467 313.305 481.741 311.741C481.939 310.614 482.162 309.338 483 308.5C485 306.5 488.5 307 488.5 309C488.5 309.764 488.646 310.236 488.771 310.639C488.972 311.292 489.118 311.764 488.5 313C488.163 313.673 487.543 314.233 486.964 314.756C485.823 315.787 484.842 316.673 486.5 318C487.601 318.881 487.732 319.762 487.876 320.728C488.059 321.956 488.262 323.321 490.5 325C493.046 326.91 494.985 325.578 496.573 324.486C497.48 323.863 498.273 323.318 499 323.5C500 323.75 500 324.25 500 324.875C500 325.5 500 326.25 501 327C503 328.5 504.5 331.5 502 331.5C499.5 331.5 496 334.5 494 337.5C493 339 493 340.125 493 340.938C493 341.75 493 342.25 492 342.5L491.818 342.545C489.85 343.034 487.425 343.635 485 348C482.556 352.399 482.979 353.453 483.933 355.833L484 356C485 358.5 488 362.5 490.5 362.5C492.5 362.5 496 361.167 497.5 360.5L497 356.5C497.667 355 499.4 351.8 501 351C502.6 350.2 507 348.667 509 348H513.5L516 346.5C518.333 345.667 523.5 343.9 525.5 343.5C527.5 343.1 530 342.667 531 342.5C531.167 343 531.3 344.3 530.5 345.5C530.201 345.949 529.857 346.308 529.522 346.658C528.737 347.478 528 348.248 528 350C528 351.409 528.794 351.865 529.487 352.263C530.024 352.572 530.5 352.845 530.5 353.5C530.5 354 530.278 354.444 530.056 354.889C529.611 355.778 529.167 356.667 530.5 358C530.864 358.364 531.194 358.711 531.495 359.026C532.847 360.446 533.591 361.227 534 360C534.271 359.188 535.274 358.376 536.376 357.484C537.309 356.729 538.312 355.917 539 355C539.072 354.903 539.144 354.808 539.214 354.714C540.599 352.86 541.597 351.524 543.5 352C545.5 352.5 546 353 546 355C546 355.899 545.394 356.293 544.727 356.727C543.909 357.258 543 357.848 543 359.5C543 361.9 544 362.5 544.5 362.5C544.5 362.833 544.8 364 546 366C547.5 368.5 546 369 542.5 370C539 371 538.5 374 541 378C542.831 380.929 544.125 380.909 545.669 380.885C546.233 380.876 546.831 380.866 547.5 381C549.151 381.33 549.711 382.532 550.478 384.174C550.872 385.019 551.32 385.981 552 387C553.236 388.854 553.517 387.652 553.906 385.992C554.146 384.966 554.427 383.764 555 383C556.5 381 556 380.5 554.5 379C553.794 378.294 553.974 378.142 554.363 377.814C554.8 377.444 555.5 376.853 555.5 375C555.5 372.2 556.833 371.5 557.5 371.5L558.5 374L557.5 375V378C557.667 379.167 558.4 381.3 560 380.5C562 379.5 563 380 564 382C565 384 565.5 385 566.5 384C566.629 383.871 566.758 383.726 566.891 383.575C567.791 382.559 568.887 381.322 571.5 383.5C574.5 386 575.5 388.5 574 390C573.558 390.442 572.942 390.971 572.255 391.561C570.611 392.973 568.558 394.737 567.5 396.5C566.968 397.387 566.31 398.022 565.705 398.606C564.604 399.669 563.677 400.564 564 402.5C564.167 403.5 564.167 404.5 564.167 405.481C564.167 407.444 564.167 409.333 565.5 411C567.5 413.5 572 415.5 576 414C577.99 413.254 579.113 411.889 579.986 410.829C580.868 409.758 581.495 408.997 582.5 409.5C583.635 410.067 584.608 409.83 585.512 409.61C586.202 409.442 586.851 409.284 587.5 409.5C589 410 590.5 413 587.5 413C585.757 413 585.533 413.507 585.259 414.127C585.061 414.575 584.838 415.081 584 415.5C583.279 415.86 582.363 416.741 581.37 417.696C579.607 419.39 577.599 421.32 576 421C573.5 420.5 572.5 420.5 573 424C573.111 424.778 573.173 425.556 573.235 426.333C573.451 429.056 573.667 431.778 576 434.5C578.071 436.916 581.095 436.473 583.427 436.131C584.473 435.978 585.381 435.845 586 436C588 436.5 589 439 587.5 441C586.797 441.937 586.863 442.983 586.925 443.985C586.996 445.122 587.063 446.203 586 447C584 448.5 583 450.5 583 453.5C583 454.815 583.384 455.746 583.732 456.588C584.177 457.665 584.562 458.596 584 460C583.356 461.61 584.371 462.39 585.175 463.009C585.62 463.351 586 463.644 586 464C586 464.22 586.048 464.487 586.102 464.788C586.294 465.854 586.56 467.33 585 468.5C583 470 581.5 473 580 478C578.8 482 580.167 483.667 581 484V485.5C580.167 485.667 578.2 486.6 577 489C576.139 490.722 576.596 492.444 576.952 493.787C577.217 494.785 577.426 495.574 577 496C576.2 496.8 575 496.333 574.5 496L573 494.5L567 494V495H565L563.5 494.5L556 499C554 500.2 554.167 502.833 554.5 504L556 508L558 519L555.5 520L553.5 509C553.333 508.5 552.7 507 551.5 505C550 502.5 546.5 503 545.5 504C545.116 504.384 544.658 505.064 544.211 505.727C543.495 506.789 542.808 507.808 542.5 507.5C542 507 540.5 506 539.5 509C538.7 511.4 539.833 513.333 540.5 514C540.667 514.333 540.9 515.3 540.5 516.5C540.227 517.318 539.062 517.244 537.897 517.169C536.926 517.107 535.955 517.045 535.5 517.5C535.358 517.642 535.177 517.813 534.968 518.011C533.701 519.208 531.429 521.354 531 523.5C530.6 525.5 531.167 528 531.5 529L535 533L536.5 531.5L538 532.5L535.5 535C535 534.667 533.5 533.6 531.5 532C529.797 530.638 528.558 532.291 527.309 533.958C526.725 534.738 526.138 535.522 525.5 536C524.647 536.64 523.702 537.735 522.667 538.936C521.275 540.549 519.72 542.353 518 543.5C515.6 545.1 518 548.5 519.5 550C520.5 551.333 523.1 554.2 525.5 555C527.333 555.611 529.167 553.608 530.886 551.729C531.98 550.534 533.028 549.389 534 549C536 548.2 539.167 548.667 540.5 549L544.5 555C545.167 555 546.7 554.8 547.5 554C548.5 553 548 550.5 546.5 547.5C545 544.5 547 541.5 550.5 539.5C553.407 537.839 556.314 534.798 558.075 532.956L558.078 532.953C558.436 532.578 558.747 532.253 559 532C560.2 530.8 561.833 530.167 562.5 530C563 530 564.5 530.4 566.5 532C568.5 533.6 568.333 536.333 568 537.5C567.5 538.5 566 540.7 564 541.5C562.104 542.258 562.221 544.742 562.388 548.296C562.442 549.429 562.5 550.671 562.5 552C562.5 557.5 564 560 566.5 563C568.5 565.4 572 565.333 573.5 565L575 567.5V571L583 575.5V577.5L575 573C575 573.5 574.1 574.5 570.5 574.5C566.9 574.5 564.667 573.5 564 573C562.333 572.667 558.5 572.5 556.5 574.5C554 577 553 578.5 553 586.5C553 594.5 556.5 599.5 559 600.5C561 601.3 563.167 598.5 564 597C564.333 597.333 564.5 598.5 562.5 600.5C560.5 602.5 566 606 569 607.5C571.667 607.167 577.7 606.2 580.5 605C583.3 603.8 587 597.167 588.5 594L590.5 592.5L583 581.5L585 580.5L595 594C596 594.333 598.1 595.6 598.5 598C599 601 605 603 608.5 600.5C612 598 613.5 597 616.5 598C617.327 598.276 618.04 598.437 618.713 598.59C620.479 598.99 621.965 599.327 624.5 601.5C626.486 603.202 629.598 602.812 631.919 602.521C633.69 602.299 635 602.135 635 603C635 605 637.5 606.5 640.5 606.5C642.9 606.5 646.167 605.5 647.5 605L649.5 606.5C649.5 607.667 649.1 609.8 647.5 609C645.5 608 641.5 609 640.5 610C640.403 610.097 640.297 610.194 640.187 610.294L640.187 610.294C639.168 611.223 637.889 612.389 641.5 616C644.7 619.2 644.167 622.333 643.5 623.5C642.167 623.333 638.8 623.5 636 625.5C632.5 628 633.5 634 641.5 639C647.9 643 651.833 640.667 653 639L655 640.5L659.5 639C660.167 639.5 662.3 640.5 665.5 640.5C668.7 640.5 671.167 641.5 672 642C671.667 642.333 670.6 643 669 643C667 643 661.5 647.5 665.5 653C669.5 658.5 672.5 657 674.5 655.5C676.1 654.3 678.5 652.667 679.5 652C680.5 652.333 682.7 653.5 683.5 655.5C684.174 657.186 683.485 658.417 682.964 659.346C682.712 659.795 682.5 660.174 682.5 660.5C682.5 660.833 681.889 661.111 681.074 661.481C679.444 662.222 677 663.333 677 666C677 669.2 680.667 669.333 682.5 669C682.833 670 682.5 672.2 678.5 673C673.5 674 677 678.5 680.5 681C683.3 683 683 687.167 682.5 689C685.167 689.5 690.7 691.1 691.5 693.5C692.3 695.9 694.5 695.833 695.5 695.5C695.833 696.833 696.1 699.8 694.5 701C693.167 702 691.833 701.222 690.5 700.444C689.833 700.056 689.167 699.667 688.5 699.5C686.9 699.1 684.5 698.667 683.5 698.5C682.333 699 679.4 699.5 677 697.5C675.357 696.13 672.963 696.712 669.983 697.435C667.524 698.032 664.665 698.726 661.5 698.5C657.593 698.221 656.957 699.344 656.462 700.216C656.071 700.907 655.768 701.442 654 701C650.8 700.2 647.333 695.667 646 693.5C646.167 692.667 646.9 690.1 648.5 686.5C650.5 682 650.5 676.5 647.5 676.5C645.1 676.5 642.5 674.167 641.5 673C641.5 671.667 640.7 668 637.5 664C634.172 659.84 629.46 660.179 626.243 660.411C625.593 660.458 625.004 660.5 624.5 660.5C622.1 660.5 618.833 657.167 617.5 655.5C614.833 655 608.8 654 606 654C603.2 654 602.167 658.333 602 660.5V665C603.167 665.333 605.4 666.6 605 669C604.875 669.747 604.906 670.525 604.937 671.319C605.031 673.712 605.13 676.247 601 678.5C598.641 679.786 597.386 681.165 596.406 682.241C595.101 683.674 594.285 684.571 592 684C589.399 683.35 588.912 684.179 588.202 685.389C587.821 686.04 587.374 686.801 586.5 687.5C584 689.5 578 688 575 686.5C572.6 685.3 574 682.333 575 681V676.5L569 670.5C568.833 669.833 568.4 667.8 568 665C567.6 662.2 565.167 660.833 564 660.5L559 666H556.5C556 665.333 554.6 663.6 553 662C552 661 552.375 659.875 552.812 658.562C553.25 657.25 553.75 655.75 553 654C552.003 651.674 549.682 651.556 547.503 651.445C546.403 651.39 545.339 651.336 544.5 651L544.241 650.896C541.93 649.969 540.982 649.588 540.5 652C540 654.5 539.5 654 537.5 651C535.9 648.6 532.833 647.667 531.5 647.5C532.333 645.167 532.7 639.8 527.5 637C522.3 634.2 516 635.833 513.5 637C512.5 638.167 509.9 641 507.5 643C505.96 644.283 505.343 645.83 504.836 647.099C504.355 648.302 503.974 649.257 503 649.5C501 650 499.5 649.5 499.5 647.5C499.5 645.5 497 645 493.5 647.5C492.048 648.537 491.112 649.747 490.264 650.843C489.069 652.388 488.048 653.707 486 654C482.5 654.5 479 653 477 652C475.731 651.365 475.871 649.925 476.015 648.446C476.098 647.595 476.183 646.731 476 646C475.5 644 474 640.5 470.5 642C468.085 643.035 467.813 642.642 466.89 641.313C466.476 640.716 465.93 639.93 465 639C463.694 637.694 463.051 635.819 462.411 633.953C461.582 631.533 460.758 629.129 458.5 628C454.712 626.106 450.923 627.799 446.71 629.683C446.475 629.788 446.238 629.894 446 630C443.095 631.291 442.69 630.707 441.827 629.457C441.353 628.772 440.74 627.886 439.5 627C437.562 625.616 436.697 625.764 435.802 625.918C435.08 626.042 434.339 626.169 433 625.5C431.192 624.596 431.018 622.965 430.838 621.265C430.718 620.144 430.596 618.993 430 618C428.8 616 426.167 615.5 425 615.5L423.5 620.5H421L422.5 614.5L418.5 619.5L416 618L421 613.5L419.5 609L423.5 606L421 602.5L419.5 604.5C418.833 604.167 417 603.3 415 602.5C413.729 601.992 412.329 602.259 410.997 602.513C409.708 602.758 408.483 602.992 407.5 602.5C405.9 601.7 404.833 604.5 404.5 606L379.5 590.5H377L376 586L372 583L371 586L365 583L363 579.5L358.5 578.5L354 575L356.5 569.5L347 566L337 586L340.5 588.5L335.5 593C336 593.667 337 595.8 337 599C337 602.042 338.446 603.638 339.579 604.888C339.935 605.282 340.261 605.641 340.5 606C340.709 606.313 340.961 606.626 341.202 606.926C342.117 608.061 342.874 609 340.5 609C338.1 609 336.167 612.667 335.5 614.5L334.5 622.5L337 623L338 628C338.833 629.667 340 633.3 338 634.5C336.794 635.224 336.519 635.831 336.22 636.491C335.9 637.198 335.552 637.965 334 639C331 641 329 642 326 642C324.639 642 323.792 641.28 323.087 640.679C322.238 639.956 321.593 639.407 320.5 640.5C318.5 642.5 316 642 311.5 640.5C307.9 639.3 307 636 307 634.5L303.5 633C303.167 634.333 302.3 637 301.5 637C300.5 637 295 640 289.5 644C285.864 646.644 284.413 646.011 282.403 645.133C281.372 644.684 280.195 644.169 278.5 644C276.098 643.76 274.042 645.597 271.833 647.571C269.444 649.706 266.877 652 263.5 652C260.364 652 258.974 652.931 258.038 653.558C257.034 654.23 256.553 654.553 255 653C253.393 651.393 253.077 652.368 252.746 653.39C252.459 654.276 252.161 655.197 251 654.5C248.5 653 248 654 247 656C246.2 657.6 240 654.667 237 653C236.667 654 235.5 655.4 233.5 653C232.091 651.309 230.205 651.683 228.291 652.063C226.809 652.357 225.309 652.655 224 652C221.6 650.8 215 650.833 212 651L207 650V656H205C205.167 655.167 205.1 653.2 203.5 652C202.566 651.3 201.632 651.689 200.648 652.1C199.523 652.569 198.333 653.066 197 652C195.8 651.04 192.987 651.232 189.501 651.47C185.725 651.728 181.16 652.04 177 651C169 649 161.5 644.5 159.5 642C158.514 640.767 155.826 640.142 153.174 639.526C150.448 638.892 147.76 638.267 147 637C145.5 634.5 134.5 624.5 128.5 620C124.879 617.284 124.718 620.942 124.61 623.39C124.539 624.999 124.491 626.086 123.5 624.5C122.121 622.293 120.437 622.978 118.869 623.615C117.595 624.134 116.397 624.621 115.5 623.5C114.272 621.965 112.856 622.88 111.945 623.468C111.373 623.838 111 624.079 111 623.5C111 622 110 619 107 616.5C105.384 615.153 104.348 615.403 103.502 615.607C102.777 615.781 102.192 615.922 101.5 615C100.3 613.4 96.6667 614.333 95 615C92.8333 615.667 88 616.4 86 614C84.75 612.5 83.75 612.25 83 612.062C82.25 611.875 81.75 611.75 81.5 610.5C81.2684 609.342 80.2857 608.291 79.4963 607.447C78.5816 606.469 77.9265 605.768 79 605.5C81 605 82 601 80 599C78 597 78.5 595 80 596.5C81.2 597.7 83.5 596 84.5 595C85.3333 595.5 87.3 596.5 88.5 596.5C90 596.5 92.5 594.5 91.5 591C90.5 587.5 87.5 585.5 86 587C85.3229 587.677 84.6458 588.966 84.1066 589.991C83.4514 591.238 83 592.097 83 591C83 589.4 84 586.667 84.5 585.5C84.8333 584.5 85.6 581.9 86 579.5C86.5 576.5 83.5 571 80 569.5C77.2 568.3 73.5 563.333 72 561H68C63.6667 557.667 54.6 549.3 53 542.5C51.4858 536.065 53.9839 528.483 55.2869 524.529C55.705 523.26 56 522.364 56 522C56 520.8 51.3333 517.833 49 516.5C49 515.833 49.8 515.1 53 517.5C56.3452 520.009 56.1934 516.923 56.0541 514.09C56.0268 513.536 56 512.991 56 512.5C56 509.5 51.5 506 52 509C52.5 512 50 512.5 50 510C50 508 48.6667 506.5 48 506C48 502.333 47.5 494.4 45.4998 492C43.4996 489.6 39.6662 483.667 37.9995 481L38.9995 471.5C33.7993 468.3 33.4994 465.5 33.9995 464.5C34.6662 465.833 36.3995 468.4 37.9995 468C39.5995 467.6 39.9997 460.833 39.9998 457.5L34.9995 459L39.9998 450.5C39.8331 448 40.6998 441.6 45.4998 436C46.6775 434.626 47.6818 433.387 48.5921 432.264C52.3198 427.665 54.4719 425.009 60.4998 423C65.4188 421.36 67.1116 419.075 69.3869 416.004C70.5808 414.393 71.935 412.565 73.9998 410.5C77.8861 406.614 79.2552 403.357 80.4169 400.593C81.0487 399.09 81.6191 397.733 82.4998 396.5C84.4363 393.789 87.5729 391.678 89.818 390.167C90.471 389.727 91.0491 389.338 91.4998 389C93.0998 387.8 94.1665 384.5 94.4998 383C94.4998 385 94.9998 389 96.9998 389C98.9998 389 102.166 385 103.5 383H116L121.5 379.5V377L128 370L129.5 363C130.5 362.333 132.4 360.7 132 359.5C131.5 358 128 356.5 124 355.5C120.801 354.7 121.667 347.833 122.5 344.5C123.333 344.5 124.8 344.1 124 342.5C123 340.5 123.5 337 125 337C125.5 337 126.389 336.722 127.278 336.444C129.056 335.889 130.833 335.333 129.5 337C127.9 339 128.833 339.833 129.5 340L135.5 344.5C137.1 345.7 142.5 342 145 340C145.5 339.5 147.1 337.7 149.5 334.5C151.9 331.3 154.833 325.5 156 323V315C156 312.6 159.667 306 161.5 303L163 298H165.5L172 296V293L176.5 290L182 288.5L186 285L193.5 273.5L191.5 264.5L193.5 261L198 255L197 245L193.5 244L191.5 240L188 239L188.5 237L190 235L191.5 231H194.5L197 228C197.333 227.5 198 226.4 198 226C198 225.6 204 222.5 207 221L209 220.5C210 218.5 211.7 214.3 210.5 213.5C210.218 213.312 209.901 213.16 209.589 213.009C208.237 212.359 206.969 211.749 209 208.5C211 205.3 214.5 203.833 216 203.5L221 202L221.5 195.5L216 193L214 196L212 195L215 190L219.5 190.5V187.5L217.5 186V183L224.5 180H231L232.5 178L229.5 174L232.5 170H234.5L232.5 174L234.5 176L237.5 172.5L240 174H244V170C244 168 246 168.167 247 168.5C248.5 167.333 252 164.7 254 163.5C256.5 162 257.5 160 258.5 156.5C259.3 153.7 257.167 152.667 256 152.5L254 149.5L257.5 147.5L260.5 149.5L263.5 148.5L265 145L272.5 141.5L274.5 144L280 141.5L288.5 132L299.5 128L301 126.5L299.5 122L303.5 124.5L306 128L318.5 122L323 121L324.5 117.5H328L329.5 114.5L338.5 113.5L341 116L343 117.5H348L350 121C350.5 121.333 352.8 122 358 122C364.5 122 375 116.5 377 114.5C378.6 112.9 386.333 109.833 390 108.5H398.5Z" stroke="#333757" stroke-width="1.5" stroke-linejoin="round"/>
<path d="M673 602C674.2 602 675.5 602.667 676 603L677 604L676.5 605L674.5 605.5C673.333 606 670.6 606.8 669 606C667.4 605.2 667.667 604 668 603.5C669.167 603 671.8 602 673 602Z" stroke="#333757" stroke-width="1.5" stroke-linejoin="round"/>
<path d="M365 633.001C365 632.601 365.333 631.835 365.5 631.501L364 630.001C363 630.335 360.9 630.601 360.5 629.001C360 627.001 359.5 625.001 361 623.001C361.944 621.742 361.106 621.474 359.856 621.074C359.12 620.838 358.241 620.557 357.5 620.001C355.5 618.501 355.5 616.001 356 614.001C356.393 612.429 355.859 611.475 355.127 610.167C354.927 609.811 354.714 609.429 354.5 609.001C353.703 607.408 354.492 605.498 355.099 604.029L355.101 604.026C355.255 603.651 355.398 603.306 355.5 603.001C355.875 601.876 355.687 600.751 355.57 600.048C355.531 599.814 355.5 599.626 355.5 599.501C355.5 599.001 353.5 598.001 352 599.501C350.5 601.001 348.5 604.001 349 606.501C349.162 607.311 349.429 608.015 349.681 608.682C350.209 610.076 350.676 611.309 350 613C349.098 615.256 350.23 617.105 351.562 619.28C351.706 619.516 351.853 619.756 352 620.001C353.5 622.5 354.999 626.499 354.5 627.5C354.212 628.077 353.259 628.82 352.217 629.633C351.45 630.23 350.635 630.866 350 631.501C348.8 632.701 349.5 633.001 350 633.001C351.5 631.835 354.8 629.401 356 629.001C357 628.668 357.556 629.223 358.407 630.075C358.833 630.501 359.333 631.001 360 631.501C362 633.001 363 633.502 365 633.001Z" stroke="#333757" stroke-width="1.5" stroke-linejoin="round"/>
<path d="M403 624.501L402 626.001C401.5 626.001 400.4 625.701 400 624.501C399.6 623.301 396.833 623.001 395.5 623.001C395.667 622.334 395.4 621.001 393 621.001C391.868 621.001 391.093 621.143 390.565 621.24C389.694 621.4 389.5 621.435 389.5 620.501C389.5 619.001 388.5 618.501 386.5 618.501C385.336 618.501 385.019 618.84 384.661 619.222C384.405 619.496 384.127 619.792 383.5 620.001C382 620.501 381 619.501 380 618.501C379.59 618.091 379.517 617.514 379.434 616.871C379.316 615.946 379.181 614.886 378 614.001C376.524 612.894 376.41 612.059 376.25 610.894C376.194 610.48 376.131 610.025 376 609.501C375.6 607.901 376.5 606.834 377 606.501L378 604.001L379.5 602.501L380 605.001L379.5 606.501L382.5 609.501C383.834 610.834 384.5 610.612 385.834 610.167L385.835 610.167C386.501 609.945 387.334 609.667 388.5 609.501C390.317 609.241 391.595 609.79 392.964 610.378C394.232 610.923 395.577 611.501 397.5 611.501C400.7 611.501 403.167 611.834 404 612.001C404 612.668 404.3 614.301 405.5 615.501C406.7 616.701 409.334 619.668 410.5 621.001V623.001L408 624.501H403Z" stroke="#333757" stroke-width="1.5" stroke-linejoin="round"/>
<path d="M385.5 627.001C385.9 626.601 387.667 627.835 388.5 628.501L389 630.001L387 631.501H384.5L385.5 630.001C385.333 629.168 385.1 627.401 385.5 627.001Z" stroke="#333757" stroke-width="1.5" stroke-linejoin="round"/>
</svg>
