<svg width="200" height="204" viewBox="0 0 200 204" fill="none" xmlns="http://www.w3.org/2000/svg">
<mask id="path-1-inside-1_908_21817" fill="white">
<path d="M197.106 173.03C195.984 169.325 194.17 165.877 192.545 162.364C190.657 158.285 189.005 154.094 187.606 149.823C187.404 149.207 187.206 148.561 187.31 147.922C187.484 146.849 188.434 146.109 189.26 145.407C192.477 142.676 194.717 138.837 195.718 134.729C190.704 130.491 184.519 125.932 180.58 124.519C178.6 123.809 176.501 123.406 174.279 122.976C171.891 122.514 169.422 122.04 167.019 121.146C161.87 119.232 156.865 114.63 157.282 108.652C157.445 106.312 158.425 104.304 159.289 102.53C165.874 89.0147 172.687 75.0374 181.835 62.6239C182.459 61.7768 183.098 60.9297 183.74 60.0796C187.623 54.9318 191.636 49.6092 192.702 43.5669C194.617 32.6936 186.602 23.1059 183.066 19.4893C176.907 13.1863 167.099 7.455 158.04 10.2629C155.143 11.1604 152.515 12.8576 149.733 14.6495C146.909 16.4711 143.991 18.3519 140.626 19.4656C138.531 20.1587 136.332 20.4934 134.133 20.4934C127.948 20.4934 121.739 17.8543 117.657 13.1686C117.021 12.437 116.42 11.658 115.84 10.9057C114.145 8.70198 112.541 6.6227 110.466 6.27615C109.483 6.11325 108.311 6.34428 107.071 6.58716L106.545 6.69082C97.74 8.37616 89.2758 5.82002 84.2594 0.0146298C83.7149 0.26047 83.0845 0.340442 82.4423 0.180497C79.6071 -0.518518 76.9109 0.906175 74.7594 2.84624C74.4427 3.65485 74.9636 4.56416 75.6206 5.13285C76.2776 5.70154 77.0885 6.09843 77.6449 6.76487C79.172 8.59534 78.0859 11.4181 76.5706 13.2574C75.3335 14.7591 73.839 16.0505 72.1728 17.0546C71.4329 17.4989 70.6457 17.9017 70.0715 18.5474C69.4974 19.1931 69.1807 20.1617 69.5714 20.9318C71.4151 22.9015 74.8866 21.462 77.2809 22.706C78.9678 23.5827 79.7077 25.5613 80.3055 27.3681C80.5511 28.1056 80.7968 28.9083 80.5482 29.6458C80.3233 30.3181 79.7373 30.795 79.1543 31.1978C77.417 32.4004 75.4726 33.3038 73.4306 33.8428C72.4806 34.0946 71.6075 34.607 71.0008 35.3801C69.0919 37.8178 71.5749 39.974 73.7591 39.8645C75.4194 39.7815 76.8813 38.7893 78.2131 37.7941C79.5449 36.7989 80.9181 35.7266 82.5577 35.4423C84.1973 35.1579 86.1653 35.9873 86.5116 37.6163C86.6418 38.2206 86.5353 38.8485 86.5234 39.4676C86.4494 43.3506 89.9713 46.2859 93.3747 48.149C96.7781 50.012 100.667 51.6826 102.457 55.1273C102.952 56.0781 103.259 57.174 103.061 58.2284C102.653 60.4114 100.223 61.6791 98.0063 61.7442C95.7867 61.8064 93.644 61.0126 91.454 60.6394C89.3882 60.287 87.2781 60.3107 85.1828 60.3373C81.8119 60.3788 78.441 60.4173 75.0701 60.4588C72.7321 60.4854 70.3734 60.518 68.0857 61.0038C66.2893 61.3859 64.5639 62.0434 62.8207 62.6299C60.8704 63.2844 58.8934 63.8472 56.8898 64.3182C54.8833 64.7891 52.5246 65.1001 51.1395 63.2548C50.7134 62.6861 50.4766 61.993 50.4174 61.2851C50.2546 59.3599 51.175 57.6686 52.2197 56.1492C52.785 55.3287 53.4331 54.4135 52.5216 53.2909C52.2493 52.9562 51.8971 52.6926 51.5124 52.4971C48.9584 51.185 46.3806 49.9202 43.7792 48.7058C42.3705 49.704 43.2435 52.0528 44.1551 53.3412C44.6108 53.981 44.9038 54.7274 44.9808 55.5094C45.1672 57.3932 43.9242 57.7456 42.921 58.3321C40.9144 59.505 39.7632 62.4314 41.24 64.2263C41.6365 64.7091 42.1752 65.0586 42.5629 65.5474C43.9479 65.8939 44.747 67.7214 44.8446 69.1461C44.9423 70.5708 44.3238 71.9659 43.4448 73.0944C42.4593 74.3621 41.0831 75.3839 39.5057 75.6683C34.7142 76.5361 30.3549 70.633 25.7114 72.0992C24.7436 72.4042 23.8795 73.0322 23.2905 73.8556C22.524 74.9278 22.2103 76.311 21.0975 77.1256C20.5707 77.5106 19.8812 77.6469 19.2715 77.404C18.5287 77.1078 18.3955 76.465 18.36 75.8519C18.2061 73.2099 19.5822 70.7041 19.7598 68.062C19.9255 65.6155 18.9963 63.1127 17.2738 61.3681C15.5603 59.6294 13.0121 58.6668 10.612 59.1111C8.2118 59.5583 6.09871 61.528 5.74061 63.945C5.34699 66.5959 6.94217 69.0898 8.46632 71.2935L16.6405 83.1205C17.1998 83.9321 17.4573 84.9302 17.2768 85.8988C16.8773 88.0225 14.8855 88.292 13.1867 88.295C10.8191 88.3009 8.09638 87.8625 6.86226 85.8425C5.86491 84.2135 6.0188 81.7965 4.23718 80.905C3.0149 80.2919 1.54402 80.7687 0.759751 81.8913C-0.616422 83.855 0.0849831 86.2424 1.21848 88.1232C4.26085 93.1644 10.6564 95.9279 16.4096 94.6809C17.6467 94.4143 18.9282 93.9789 20.1416 94.3373C21.4911 94.7342 23.0981 96.0138 22.9679 97.4148C22.9147 97.9835 22.6661 98.5137 22.4234 99.029C20.9111 102.219 19.3988 105.368 17.8835 108.543C27.9192 108.344 40.4616 108.531 49.4911 111.567C51.4799 112.236 53.4154 113.03 55.2888 113.8C56.9905 114.499 58.7484 115.222 60.4827 115.817C61.5925 116.199 62.7526 116.552 63.8773 116.892C65.4843 117.381 67.1475 117.885 68.7812 118.507C72.7943 120.038 76.4581 122.206 80.0036 124.303C82.9188 126.027 85.9315 127.813 88.453 130.399C92.0222 134.06 94.0436 138.817 95.8252 143.014C96.13 143.728 96.4792 144.474 96.8462 145.265C98.6841 149.195 100.972 154.091 98.8232 158.546C97.1718 161.979 95.4138 165.433 93.715 168.774C92.0281 172.091 90.282 175.521 88.6513 178.906C87.9588 180.346 87.3521 184.01 86.8667 186.954C86.4879 189.244 86.1328 191.409 85.7125 192.804C85.2212 194.439 84.8809 196.115 84.6441 197.815C86.8608 197.555 89.3261 197.857 91.9482 198.728C93.4931 199.24 94.958 199.883 96.3757 200.505C97.9087 201.177 99.3559 201.814 100.847 202.27C107.983 204.462 116.595 202.723 126.45 197.105C126.799 196.906 127.149 196.705 127.498 196.5C129.229 195.496 131.02 194.459 133 193.689C137.445 191.963 142.316 191.829 146.229 191.723C152.751 191.545 159.552 191.714 164.72 195.825C165.785 196.672 166.685 197.62 167.558 198.535C168.641 199.675 169.668 200.754 170.837 201.441C172.266 202.282 174.11 202.646 175.892 202.999C178.727 203.559 181.66 204.139 184.454 203.97C186.102 203.87 189.165 203.378 191.16 201.207C192.433 199.821 193.226 197.638 194.066 195.324C195.3 191.924 196.679 188.13 200 185.547C198.721 181.474 198.343 177.129 197.1 173.03H197.106ZM9.659 101.707C9.58502 101.707 9.51399 101.71 9.44888 101.71C8.84514 101.71 7.7738 101.511 7.51336 102.263C7.4009 102.592 7.54887 102.951 7.72644 103.247C8.78003 104.997 11.0766 105.886 13.0328 105.299C14.0953 104.98 15.1489 103.907 14.7227 102.883C14.1811 101.256 11.0737 101.668 9.659 101.707Z"/>
</mask>
<path d="M197.106 173.03C195.984 169.325 194.17 165.877 192.545 162.364C190.657 158.285 189.005 154.094 187.606 149.823C187.404 149.207 187.206 148.561 187.31 147.922C187.484 146.849 188.434 146.109 189.26 145.407C192.477 142.676 194.717 138.837 195.718 134.729C190.704 130.491 184.519 125.932 180.58 124.519C178.6 123.809 176.501 123.406 174.279 122.976C171.891 122.514 169.422 122.04 167.019 121.146C161.87 119.232 156.865 114.63 157.282 108.652C157.445 106.312 158.425 104.304 159.289 102.53C165.874 89.0147 172.687 75.0374 181.835 62.6239C182.459 61.7768 183.098 60.9297 183.74 60.0796C187.623 54.9318 191.636 49.6092 192.702 43.5669C194.617 32.6936 186.602 23.1059 183.066 19.4893C176.907 13.1863 167.099 7.455 158.04 10.2629C155.143 11.1604 152.515 12.8576 149.733 14.6495C146.909 16.4711 143.991 18.3519 140.626 19.4656C138.531 20.1587 136.332 20.4934 134.133 20.4934C127.948 20.4934 121.739 17.8543 117.657 13.1686C117.021 12.437 116.42 11.658 115.84 10.9057C114.145 8.70198 112.541 6.6227 110.466 6.27615C109.483 6.11325 108.311 6.34428 107.071 6.58716L106.545 6.69082C97.74 8.37616 89.2758 5.82002 84.2594 0.0146298C83.7149 0.26047 83.0845 0.340442 82.4423 0.180497C79.6071 -0.518518 76.9109 0.906175 74.7594 2.84624C74.4427 3.65485 74.9636 4.56416 75.6206 5.13285C76.2776 5.70154 77.0885 6.09843 77.6449 6.76487C79.172 8.59534 78.0859 11.4181 76.5706 13.2574C75.3335 14.7591 73.839 16.0505 72.1728 17.0546C71.4329 17.4989 70.6457 17.9017 70.0715 18.5474C69.4974 19.1931 69.1807 20.1617 69.5714 20.9318C71.4151 22.9015 74.8866 21.462 77.2809 22.706C78.9678 23.5827 79.7077 25.5613 80.3055 27.3681C80.5511 28.1056 80.7968 28.9083 80.5482 29.6458C80.3233 30.3181 79.7373 30.795 79.1543 31.1978C77.417 32.4004 75.4726 33.3038 73.4306 33.8428C72.4806 34.0946 71.6075 34.607 71.0008 35.3801C69.0919 37.8178 71.5749 39.974 73.7591 39.8645C75.4194 39.7815 76.8813 38.7893 78.2131 37.7941C79.5449 36.7989 80.9181 35.7266 82.5577 35.4423C84.1973 35.1579 86.1653 35.9873 86.5116 37.6163C86.6418 38.2206 86.5353 38.8485 86.5234 39.4676C86.4494 43.3506 89.9713 46.2859 93.3747 48.149C96.7781 50.012 100.667 51.6826 102.457 55.1273C102.952 56.0781 103.259 57.174 103.061 58.2284C102.653 60.4114 100.223 61.6791 98.0063 61.7442C95.7867 61.8064 93.644 61.0126 91.454 60.6394C89.3882 60.287 87.2781 60.3107 85.1828 60.3373C81.8119 60.3788 78.441 60.4173 75.0701 60.4588C72.7321 60.4854 70.3734 60.518 68.0857 61.0038C66.2893 61.3859 64.5639 62.0434 62.8207 62.6299C60.8704 63.2844 58.8934 63.8472 56.8898 64.3182C54.8833 64.7891 52.5246 65.1001 51.1395 63.2548C50.7134 62.6861 50.4766 61.993 50.4174 61.2851C50.2546 59.3599 51.175 57.6686 52.2197 56.1492C52.785 55.3287 53.4331 54.4135 52.5216 53.2909C52.2493 52.9562 51.8971 52.6926 51.5124 52.4971C48.9584 51.185 46.3806 49.9202 43.7792 48.7058C42.3705 49.704 43.2435 52.0528 44.1551 53.3412C44.6108 53.981 44.9038 54.7274 44.9808 55.5094C45.1672 57.3932 43.9242 57.7456 42.921 58.3321C40.9144 59.505 39.7632 62.4314 41.24 64.2263C41.6365 64.7091 42.1752 65.0586 42.5629 65.5474C43.9479 65.8939 44.747 67.7214 44.8446 69.1461C44.9423 70.5708 44.3238 71.9659 43.4448 73.0944C42.4593 74.3621 41.0831 75.3839 39.5057 75.6683C34.7142 76.5361 30.3549 70.633 25.7114 72.0992C24.7436 72.4042 23.8795 73.0322 23.2905 73.8556C22.524 74.9278 22.2103 76.311 21.0975 77.1256C20.5707 77.5106 19.8812 77.6469 19.2715 77.404C18.5287 77.1078 18.3955 76.465 18.36 75.8519C18.2061 73.2099 19.5822 70.7041 19.7598 68.062C19.9255 65.6155 18.9963 63.1127 17.2738 61.3681C15.5603 59.6294 13.0121 58.6668 10.612 59.1111C8.2118 59.5583 6.09871 61.528 5.74061 63.945C5.34699 66.5959 6.94217 69.0898 8.46632 71.2935L16.6405 83.1205C17.1998 83.9321 17.4573 84.9302 17.2768 85.8988C16.8773 88.0225 14.8855 88.292 13.1867 88.295C10.8191 88.3009 8.09638 87.8625 6.86226 85.8425C5.86491 84.2135 6.0188 81.7965 4.23718 80.905C3.0149 80.2919 1.54402 80.7687 0.759751 81.8913C-0.616422 83.855 0.0849831 86.2424 1.21848 88.1232C4.26085 93.1644 10.6564 95.9279 16.4096 94.6809C17.6467 94.4143 18.9282 93.9789 20.1416 94.3373C21.4911 94.7342 23.0981 96.0138 22.9679 97.4148C22.9147 97.9835 22.6661 98.5137 22.4234 99.029C20.9111 102.219 19.3988 105.368 17.8835 108.543C27.9192 108.344 40.4616 108.531 49.4911 111.567C51.4799 112.236 53.4154 113.03 55.2888 113.8C56.9905 114.499 58.7484 115.222 60.4827 115.817C61.5925 116.199 62.7526 116.552 63.8773 116.892C65.4843 117.381 67.1475 117.885 68.7812 118.507C72.7943 120.038 76.4581 122.206 80.0036 124.303C82.9188 126.027 85.9315 127.813 88.453 130.399C92.0222 134.06 94.0436 138.817 95.8252 143.014C96.13 143.728 96.4792 144.474 96.8462 145.265C98.6841 149.195 100.972 154.091 98.8232 158.546C97.1718 161.979 95.4138 165.433 93.715 168.774C92.0281 172.091 90.282 175.521 88.6513 178.906C87.9588 180.346 87.3521 184.01 86.8667 186.954C86.4879 189.244 86.1328 191.409 85.7125 192.804C85.2212 194.439 84.8809 196.115 84.6441 197.815C86.8608 197.555 89.3261 197.857 91.9482 198.728C93.4931 199.24 94.958 199.883 96.3757 200.505C97.9087 201.177 99.3559 201.814 100.847 202.27C107.983 204.462 116.595 202.723 126.45 197.105C126.799 196.906 127.149 196.705 127.498 196.5C129.229 195.496 131.02 194.459 133 193.689C137.445 191.963 142.316 191.829 146.229 191.723C152.751 191.545 159.552 191.714 164.72 195.825C165.785 196.672 166.685 197.62 167.558 198.535C168.641 199.675 169.668 200.754 170.837 201.441C172.266 202.282 174.11 202.646 175.892 202.999C178.727 203.559 181.66 204.139 184.454 203.97C186.102 203.87 189.165 203.378 191.16 201.207C192.433 199.821 193.226 197.638 194.066 195.324C195.3 191.924 196.679 188.13 200 185.547C198.721 181.474 198.343 177.129 197.1 173.03H197.106ZM9.659 101.707C9.58502 101.707 9.51399 101.71 9.44888 101.71C8.84514 101.71 7.7738 101.511 7.51336 102.263C7.4009 102.592 7.54887 102.951 7.72644 103.247C8.78003 104.997 11.0766 105.886 13.0328 105.299C14.0953 104.98 15.1489 103.907 14.7227 102.883C14.1811 101.256 11.0737 101.668 9.659 101.707Z" fill="#1A203A" stroke="#333757" stroke-width="2" mask="url(#path-1-inside-1_908_21817)"/>
</svg>
