<svg width="211" height="246" viewBox="0 0 211 246" fill="none" xmlns="http://www.w3.org/2000/svg">
<mask id="path-1-inside-1_908_21819" fill="white">
<path d="M5.1734 118.103C5.51303 118.443 5.90582 118.804 6.38425 118.81C6.98377 118.818 7.42971 118.28 7.76639 117.784C8.17394 117.18 8.55492 116.562 8.91226 115.93C9.0363 115.708 9.1633 115.462 9.10718 115.214C9.05698 114.992 8.87683 114.83 8.69668 114.691C7.88157 114.055 6.93947 113.582 5.94126 113.31C5.37422 113.156 4.314 112.875 3.84147 113.23C3.36894 113.585 3.16516 114.217 3.19174 114.812C3.25081 116.125 4.24016 117.177 5.17045 118.103H5.1734ZM8.20643 128.795C8.97133 128.763 9.76282 128.721 10.4421 128.366C11.1568 127.994 11.6559 127.32 12.1314 126.669C12.5537 126.09 12.9996 125.415 12.8608 124.712C12.6954 123.86 11.7829 123.405 10.9678 123.115C8.50767 122.234 4.58275 121.296 2.01338 122.358C0.796628 122.861 0.140997 124.23 0.0199123 125.543C-0.0155272 125.924 -0.0155282 126.317 0.120323 126.672C0.35068 127.293 0.938382 127.704 1.53495 127.991C3.57567 128.973 5.94716 128.893 8.20938 128.795H8.20643ZM11.9276 82.6285C12.0516 82.7734 12.217 82.871 12.3824 82.9656C13.3068 83.4949 14.305 83.9976 15.3711 83.9799C16.9954 83.9503 18.3333 82.7232 19.3669 81.4724C20.4006 80.2187 21.3692 78.8052 22.8429 78.1192C23.3155 77.9004 23.8618 77.7378 24.1571 77.3061C24.671 76.555 24.0656 75.4935 23.2712 75.047C21.9569 74.3107 20.1407 74.6448 19.172 75.801C18.4662 76.6437 18.3126 77.8915 17.2346 78.3114C16.3044 78.6751 15.0226 78.0039 13.9653 78.3705C12.5714 78.8555 11.582 80.3281 11.6618 81.8036C11.6765 82.0963 11.7386 82.4038 11.9276 82.6256V82.6285ZM20.9824 167.768C20.5216 167.841 20.4714 167.49 20.2145 167.099C19.4407 165.928 18.0645 165.417 16.6735 165.603C16.2778 165.656 15.8259 165.837 15.7432 166.23C15.6753 166.549 15.8879 166.854 16.0769 167.123C16.8743 168.264 17.4118 169.607 18.413 170.577C19.4142 171.547 21.1477 171.999 22.1666 171.047C22.7041 170.544 22.9109 169.713 22.6687 169.015C22.4265 168.32 21.5464 167.679 20.9883 167.768H20.9824ZM188.697 100.21C190.23 99.486 192.019 99.56 193.496 100.397C197.902 102.895 203.578 103.043 208.283 101.041C209.231 100.639 210.135 100.154 211 99.6073C204.098 96.0885 197.808 89.7607 195.271 83.4861C192.149 75.7685 192.509 66.7143 196.234 59.2688C196.739 58.2604 197.294 57.2935 197.834 56.3591C198.676 54.8984 199.47 53.5175 200.023 52.0775C202.471 45.6846 199.417 37.6063 193.354 34.4364C191.715 33.5789 189.89 33.0289 187.955 32.4435C186.792 32.0916 185.59 31.7279 184.403 31.2873C181.228 30.1075 178.307 28.428 175.484 26.8076C171.913 24.7555 168.541 22.8157 164.834 21.9168C161.91 21.2071 158.848 21.1628 155.605 21.1155C154.244 21.0948 152.835 21.0741 151.432 21.0001C144.997 20.6601 140.298 18.9924 137.07 15.9024C135.532 14.4298 134.424 12.7237 133.352 11.0737C132.856 10.3108 132.389 9.58933 131.89 8.90628C128.299 3.99186 122.534 0.697836 116.495 0C115.813 4.88781 113.462 9.14873 109.82 11.6976C105.786 14.5244 100.213 15.3021 94.1294 13.8917C90.7745 13.114 87.6263 11.8129 84.5815 10.5533C83.2052 9.98555 81.7817 9.39714 80.3848 8.87672C75.8338 7.18831 72.473 7.10847 70.3968 8.64607C69.5492 9.27294 68.7843 10.2813 68.0549 11.7242C67.5085 12.8065 67.0271 13.9804 66.5162 15.2252C64.9067 19.1491 63.0845 23.5993 58.6663 25.542C54.1567 27.5261 49.6234 25.7519 45.6217 24.1847C43.8497 23.4899 42.1781 22.8364 40.5479 22.4786C36.0855 21.4999 30.7843 22.8305 26.003 26.1304C22.1755 28.771 18.1324 33.1945 14.2636 37.7748C15.696 38.3899 17.2642 38.6205 18.7703 39.0315C21.1389 39.6791 23.3775 40.8057 25.3119 42.3196C27.3674 43.9282 28.7259 46.415 30.1139 48.6268C30.613 49.4192 31.0974 50.2679 31.1712 51.2023C31.3898 53.9108 28.2977 55.6879 27.453 58.2723C26.7058 60.555 27.7927 63.2902 26.5345 65.3364C25.9882 66.2294 25.052 66.8651 24.6533 67.8321C24.2694 68.7694 24.5056 69.9256 25.2233 70.6382C25.9409 71.3508 27.0986 71.5755 28.0319 71.1823C29.3402 70.6323 29.9426 69.1627 30.6603 67.9356C31.1417 67.1135 31.7264 66.3565 32.3939 65.6794C34.1038 63.9466 36.9419 65.9781 35.8551 68.1573C35.7843 68.3022 35.7045 68.4412 35.6218 68.5772C35.1345 69.3696 34.4257 70.1385 34.4819 71.0669C34.5173 71.6465 34.8569 72.161 35.1936 72.6341C36.4547 74.4083 37.4617 76.9305 39.3666 77.9832C42.884 79.923 47.2283 78.8703 51.0912 77.7733L52.0008 77.516C53.5129 77.0873 55.0958 77.9655 55.5034 79.4853C56.1501 81.8834 57.7065 84.3406 56.3894 86.3365C55.9227 87.0433 55.1756 87.5045 54.4933 88.0072C50.9376 90.6241 48.8555 94.746 45.9524 98.0756C43.0493 101.405 38.4038 104.072 34.3401 102.345C33.2267 101.872 32.1842 101.08 30.9733 101.077C30.1848 101.077 29.4435 101.414 28.7141 101.713C26.3485 102.68 23.8264 103.262 21.2777 103.445C18.8294 103.62 17.4502 106.358 18.8324 108.389C19.4585 109.309 20.1289 110.208 20.7431 111.122C22.4147 113.596 23.7673 116.74 22.6303 119.499C21.9274 121.199 20.4153 122.399 19.2429 123.819C18.0704 125.238 17.2169 127.269 18.1 128.884C18.7201 130.016 20.058 130.655 20.5571 131.847C21.4962 134.091 18.7674 136.288 16.3398 136.394C13.7704 136.507 11.1952 135.404 8.6701 136.049C7.06942 136.457 5.86447 137.84 5.77587 139.493C5.66955 141.457 7.19936 141.519 7.99084 142.418C9.47634 144.106 7.34997 146.454 6.12436 148.34C4.43212 150.946 4.63 154.686 6.72093 156.981C8.81481 159.275 12.6629 159.766 15.1673 157.933C17.3321 156.348 18.856 153.172 21.9688 154.497C23.41 155.109 24.3668 156.472 24.6267 158.019C25.0195 160.36 27.1665 164.308 29.8806 163.418C32.1251 162.682 32.1783 159.426 33.8558 157.755C36.0766 155.544 39.8627 157.034 42.3671 158.917C46.3098 161.883 49.6795 165.609 52.2429 169.826C54.5878 173.687 56.0793 179.11 52.9754 182.393C50.8165 184.672 46.9625 185.202 45.5921 188.028C44.9985 189.253 45.0133 190.684 45.223 192.029C45.7191 195.243 47.5472 198.531 50.6304 199.549C54.0267 200.666 57.801 198.747 61.2682 199.617C63.7135 200.229 65.6243 202.148 67.0626 204.218C68.8818 206.838 70.1783 210.167 69.1801 213.198C65.6361 212.184 61.974 217.542 62.5647 221.185C63.1553 224.827 66.404 227.495 69.815 228.893C74.2538 230.712 79.3246 230.937 83.9081 229.523C87.774 228.329 91.25 226.031 95.166 225.017C99.0821 224.002 103.961 224.724 105.996 228.225C107.337 230.531 107.124 233.477 108.376 235.833C109.918 238.737 113.27 240.088 116.359 241.209C128.624 245.65 143.771 249.468 153.523 240.798C156.99 237.714 159.483 233.207 163.868 231.699C169.645 229.712 176.311 233.831 181.969 231.528C184.639 230.443 186.567 228.098 188.257 225.762C194.078 217.707 198.451 208.603 201.098 199.019C203.079 191.843 203.15 182.363 196.541 178.948C194.403 177.845 191.798 177.567 190.035 175.929C184.583 170.861 193.209 161.366 190.144 154.58C188.573 151.099 184.323 149.473 182.645 146.043C179.243 139.085 188.348 130.141 184.137 123.641C182.805 121.586 180.419 120.436 178.933 118.487C176.222 114.924 177.324 109.546 180.212 106.127C182.459 103.469 185.522 101.716 188.694 100.216L188.697 100.21Z"/>
</mask>
<path d="M5.1734 118.103C5.51303 118.443 5.90582 118.804 6.38425 118.81C6.98377 118.818 7.42971 118.28 7.76639 117.784C8.17394 117.18 8.55492 116.562 8.91226 115.93C9.0363 115.708 9.1633 115.462 9.10718 115.214C9.05698 114.992 8.87683 114.83 8.69668 114.691C7.88157 114.055 6.93947 113.582 5.94126 113.31C5.37422 113.156 4.314 112.875 3.84147 113.23C3.36894 113.585 3.16516 114.217 3.19174 114.812C3.25081 116.125 4.24016 117.177 5.17045 118.103H5.1734ZM8.20643 128.795C8.97133 128.763 9.76282 128.721 10.4421 128.366C11.1568 127.994 11.6559 127.32 12.1314 126.669C12.5537 126.09 12.9996 125.415 12.8608 124.712C12.6954 123.86 11.7829 123.405 10.9678 123.115C8.50767 122.234 4.58275 121.296 2.01338 122.358C0.796628 122.861 0.140997 124.23 0.0199123 125.543C-0.0155272 125.924 -0.0155282 126.317 0.120323 126.672C0.35068 127.293 0.938382 127.704 1.53495 127.991C3.57567 128.973 5.94716 128.893 8.20938 128.795H8.20643ZM11.9276 82.6285C12.0516 82.7734 12.217 82.871 12.3824 82.9656C13.3068 83.4949 14.305 83.9976 15.3711 83.9799C16.9954 83.9503 18.3333 82.7232 19.3669 81.4724C20.4006 80.2187 21.3692 78.8052 22.8429 78.1192C23.3155 77.9004 23.8618 77.7378 24.1571 77.3061C24.671 76.555 24.0656 75.4935 23.2712 75.047C21.9569 74.3107 20.1407 74.6448 19.172 75.801C18.4662 76.6437 18.3126 77.8915 17.2346 78.3114C16.3044 78.6751 15.0226 78.0039 13.9653 78.3705C12.5714 78.8555 11.582 80.3281 11.6618 81.8036C11.6765 82.0963 11.7386 82.4038 11.9276 82.6256V82.6285ZM20.9824 167.768C20.5216 167.841 20.4714 167.49 20.2145 167.099C19.4407 165.928 18.0645 165.417 16.6735 165.603C16.2778 165.656 15.8259 165.837 15.7432 166.23C15.6753 166.549 15.8879 166.854 16.0769 167.123C16.8743 168.264 17.4118 169.607 18.413 170.577C19.4142 171.547 21.1477 171.999 22.1666 171.047C22.7041 170.544 22.9109 169.713 22.6687 169.015C22.4265 168.32 21.5464 167.679 20.9883 167.768H20.9824ZM188.697 100.21C190.23 99.486 192.019 99.56 193.496 100.397C197.902 102.895 203.578 103.043 208.283 101.041C209.231 100.639 210.135 100.154 211 99.6073C204.098 96.0885 197.808 89.7607 195.271 83.4861C192.149 75.7685 192.509 66.7143 196.234 59.2688C196.739 58.2604 197.294 57.2935 197.834 56.3591C198.676 54.8984 199.47 53.5175 200.023 52.0775C202.471 45.6846 199.417 37.6063 193.354 34.4364C191.715 33.5789 189.89 33.0289 187.955 32.4435C186.792 32.0916 185.59 31.7279 184.403 31.2873C181.228 30.1075 178.307 28.428 175.484 26.8076C171.913 24.7555 168.541 22.8157 164.834 21.9168C161.91 21.2071 158.848 21.1628 155.605 21.1155C154.244 21.0948 152.835 21.0741 151.432 21.0001C144.997 20.6601 140.298 18.9924 137.07 15.9024C135.532 14.4298 134.424 12.7237 133.352 11.0737C132.856 10.3108 132.389 9.58933 131.89 8.90628C128.299 3.99186 122.534 0.697836 116.495 0C115.813 4.88781 113.462 9.14873 109.82 11.6976C105.786 14.5244 100.213 15.3021 94.1294 13.8917C90.7745 13.114 87.6263 11.8129 84.5815 10.5533C83.2052 9.98555 81.7817 9.39714 80.3848 8.87672C75.8338 7.18831 72.473 7.10847 70.3968 8.64607C69.5492 9.27294 68.7843 10.2813 68.0549 11.7242C67.5085 12.8065 67.0271 13.9804 66.5162 15.2252C64.9067 19.1491 63.0845 23.5993 58.6663 25.542C54.1567 27.5261 49.6234 25.7519 45.6217 24.1847C43.8497 23.4899 42.1781 22.8364 40.5479 22.4786C36.0855 21.4999 30.7843 22.8305 26.003 26.1304C22.1755 28.771 18.1324 33.1945 14.2636 37.7748C15.696 38.3899 17.2642 38.6205 18.7703 39.0315C21.1389 39.6791 23.3775 40.8057 25.3119 42.3196C27.3674 43.9282 28.7259 46.415 30.1139 48.6268C30.613 49.4192 31.0974 50.2679 31.1712 51.2023C31.3898 53.9108 28.2977 55.6879 27.453 58.2723C26.7058 60.555 27.7927 63.2902 26.5345 65.3364C25.9882 66.2294 25.052 66.8651 24.6533 67.8321C24.2694 68.7694 24.5056 69.9256 25.2233 70.6382C25.9409 71.3508 27.0986 71.5755 28.0319 71.1823C29.3402 70.6323 29.9426 69.1627 30.6603 67.9356C31.1417 67.1135 31.7264 66.3565 32.3939 65.6794C34.1038 63.9466 36.9419 65.9781 35.8551 68.1573C35.7843 68.3022 35.7045 68.4412 35.6218 68.5772C35.1345 69.3696 34.4257 70.1385 34.4819 71.0669C34.5173 71.6465 34.8569 72.161 35.1936 72.6341C36.4547 74.4083 37.4617 76.9305 39.3666 77.9832C42.884 79.923 47.2283 78.8703 51.0912 77.7733L52.0008 77.516C53.5129 77.0873 55.0958 77.9655 55.5034 79.4853C56.1501 81.8834 57.7065 84.3406 56.3894 86.3365C55.9227 87.0433 55.1756 87.5045 54.4933 88.0072C50.9376 90.6241 48.8555 94.746 45.9524 98.0756C43.0493 101.405 38.4038 104.072 34.3401 102.345C33.2267 101.872 32.1842 101.08 30.9733 101.077C30.1848 101.077 29.4435 101.414 28.7141 101.713C26.3485 102.68 23.8264 103.262 21.2777 103.445C18.8294 103.62 17.4502 106.358 18.8324 108.389C19.4585 109.309 20.1289 110.208 20.7431 111.122C22.4147 113.596 23.7673 116.74 22.6303 119.499C21.9274 121.199 20.4153 122.399 19.2429 123.819C18.0704 125.238 17.2169 127.269 18.1 128.884C18.7201 130.016 20.058 130.655 20.5571 131.847C21.4962 134.091 18.7674 136.288 16.3398 136.394C13.7704 136.507 11.1952 135.404 8.6701 136.049C7.06942 136.457 5.86447 137.84 5.77587 139.493C5.66955 141.457 7.19936 141.519 7.99084 142.418C9.47634 144.106 7.34997 146.454 6.12436 148.34C4.43212 150.946 4.63 154.686 6.72093 156.981C8.81481 159.275 12.6629 159.766 15.1673 157.933C17.3321 156.348 18.856 153.172 21.9688 154.497C23.41 155.109 24.3668 156.472 24.6267 158.019C25.0195 160.36 27.1665 164.308 29.8806 163.418C32.1251 162.682 32.1783 159.426 33.8558 157.755C36.0766 155.544 39.8627 157.034 42.3671 158.917C46.3098 161.883 49.6795 165.609 52.2429 169.826C54.5878 173.687 56.0793 179.11 52.9754 182.393C50.8165 184.672 46.9625 185.202 45.5921 188.028C44.9985 189.253 45.0133 190.684 45.223 192.029C45.7191 195.243 47.5472 198.531 50.6304 199.549C54.0267 200.666 57.801 198.747 61.2682 199.617C63.7135 200.229 65.6243 202.148 67.0626 204.218C68.8818 206.838 70.1783 210.167 69.1801 213.198C65.6361 212.184 61.974 217.542 62.5647 221.185C63.1553 224.827 66.404 227.495 69.815 228.893C74.2538 230.712 79.3246 230.937 83.9081 229.523C87.774 228.329 91.25 226.031 95.166 225.017C99.0821 224.002 103.961 224.724 105.996 228.225C107.337 230.531 107.124 233.477 108.376 235.833C109.918 238.737 113.27 240.088 116.359 241.209C128.624 245.65 143.771 249.468 153.523 240.798C156.99 237.714 159.483 233.207 163.868 231.699C169.645 229.712 176.311 233.831 181.969 231.528C184.639 230.443 186.567 228.098 188.257 225.762C194.078 217.707 198.451 208.603 201.098 199.019C203.079 191.843 203.15 182.363 196.541 178.948C194.403 177.845 191.798 177.567 190.035 175.929C184.583 170.861 193.209 161.366 190.144 154.58C188.573 151.099 184.323 149.473 182.645 146.043C179.243 139.085 188.348 130.141 184.137 123.641C182.805 121.586 180.419 120.436 178.933 118.487C176.222 114.924 177.324 109.546 180.212 106.127C182.459 103.469 185.522 101.716 188.694 100.216L188.697 100.21Z" fill="#1A203A" stroke="#333757" stroke-width="2" mask="url(#path-1-inside-1_908_21819)"/>
</svg>
