<svg width="211" height="246" viewBox="0 0 211 246" fill="none" xmlns="http://www.w3.org/2000/svg">
<mask id="path-1-inside-1_11418_68642" fill="white">
<path d="M5.1734 118.103C5.51303 118.443 5.90582 118.804 6.38425 118.81C6.98377 118.818 7.42971 118.28 7.76639 117.784C8.17394 117.18 8.55492 116.562 8.91226 115.93C9.0363 115.708 9.16329 115.462 9.10718 115.214C9.05698 114.992 8.87683 114.83 8.69668 114.691C7.88157 114.055 6.93947 113.582 5.94126 113.31C5.37422 113.156 4.314 112.875 3.84147 113.23C3.36894 113.585 3.16516 114.217 3.19174 114.812C3.25081 116.125 4.24016 117.177 5.17045 118.103H5.1734ZM8.20643 128.795C8.97133 128.763 9.76282 128.721 10.4421 128.366C11.1568 127.994 11.6559 127.32 12.1314 126.669C12.5537 126.09 12.9996 125.415 12.8608 124.712C12.6954 123.86 11.7829 123.405 10.9678 123.115C8.50767 122.234 4.58275 121.296 2.01338 122.358C0.796628 122.861 0.140997 124.23 0.0199123 125.543C-0.0155272 125.924 -0.0155282 126.317 0.120323 126.672C0.35068 127.293 0.938382 127.704 1.53495 127.991C3.57567 128.973 5.94716 128.893 8.20938 128.795H8.20643ZM11.9276 82.6285C12.0516 82.7734 12.217 82.871 12.3824 82.9656C13.3068 83.4949 14.305 83.9976 15.3711 83.9799C16.9954 83.9503 18.3333 82.7232 19.3669 81.4724C20.4006 80.2187 21.3692 78.8052 22.8429 78.1192C23.3155 77.9004 23.8618 77.7378 24.1571 77.3061C24.671 76.555 24.0656 75.4934 23.2712 75.047C21.9569 74.3107 20.1407 74.6448 19.172 75.801C18.4662 76.6437 18.3126 77.8915 17.2346 78.3114C16.3044 78.6751 15.0226 78.0039 13.9653 78.3705C12.5714 78.8555 11.582 80.3281 11.6618 81.8036C11.6765 82.0963 11.7386 82.4038 11.9276 82.6256V82.6285ZM20.9824 167.768C20.5216 167.841 20.4714 167.49 20.2145 167.099C19.4407 165.928 18.0645 165.417 16.6735 165.603C16.2778 165.656 15.8259 165.837 15.7432 166.23C15.6753 166.549 15.8879 166.854 16.0769 167.123C16.8743 168.264 17.4118 169.607 18.413 170.577C19.4142 171.547 21.1477 171.999 22.1666 171.047C22.7041 170.544 22.9109 169.713 22.6687 169.015C22.4265 168.32 21.5464 167.679 20.9883 167.768H20.9824ZM188.697 100.21C190.23 99.486 192.019 99.56 193.496 100.397C197.902 102.895 203.578 103.043 208.283 101.041C209.231 100.639 210.135 100.154 211 99.6073C204.098 96.0885 197.808 89.7607 195.271 83.4861C192.149 75.7685 192.509 66.7143 196.234 59.2688C196.739 58.2604 197.294 57.2935 197.834 56.3591C198.676 54.8984 199.47 53.5175 200.023 52.0775C202.471 45.6846 199.417 37.6063 193.354 34.4364C191.715 33.5789 189.89 33.0289 187.955 32.4435C186.792 32.0916 185.59 31.7279 184.403 31.2873C181.228 30.1075 178.307 28.428 175.484 26.8076C171.913 24.7555 168.541 22.8157 164.834 21.9168C161.91 21.2071 158.848 21.1628 155.605 21.1155C154.244 21.0948 152.835 21.0741 151.432 21.0001C144.997 20.6601 140.298 18.9924 137.07 15.9024C135.532 14.4298 134.424 12.7237 133.352 11.0737C132.856 10.3108 132.389 9.58933 131.89 8.90628C128.299 3.99186 122.534 0.697836 116.495 0C115.812 4.88781 113.462 9.14873 109.82 11.6976C105.786 14.5244 100.213 15.3021 94.1294 13.8917C90.7745 13.114 87.6263 11.8129 84.5815 10.5533C83.2052 9.98555 81.7817 9.39714 80.3848 8.87672C75.8338 7.18831 72.473 7.10847 70.3968 8.64607C69.5492 9.27294 68.7843 10.2813 68.0548 11.7242C67.5085 12.8065 67.0271 13.9804 66.5162 15.2252C64.9066 19.1491 63.0845 23.5993 58.6663 25.542C54.1567 27.5261 49.6234 25.7519 45.6217 24.1847C43.8497 23.4899 42.1781 22.8364 40.5479 22.4786C36.0855 21.4999 30.7843 22.8305 26.0029 26.1304C22.1755 28.771 18.1324 33.1945 14.2636 37.7748C15.696 38.3899 17.2642 38.6205 18.7703 39.0315C21.1389 39.6791 23.3775 40.8057 25.3119 42.3196C27.3674 43.9282 28.7259 46.415 30.1139 48.6268C30.613 49.4192 31.0974 50.2679 31.1712 51.2023C31.3898 53.9108 28.2977 55.6879 27.453 58.2723C26.7058 60.555 27.7927 63.2902 26.5345 65.3364C25.9882 66.2294 25.052 66.8652 24.6533 67.8321C24.2694 68.7694 24.5056 69.9256 25.2233 70.6382C25.9409 71.3508 27.0986 71.5755 28.0319 71.1823C29.3402 70.6323 29.9426 69.1627 30.6603 67.9356C31.1417 67.1135 31.7264 66.3566 32.3939 65.6794C34.1038 63.9467 36.9419 65.9781 35.8551 68.1573C35.7843 68.3022 35.7045 68.4412 35.6218 68.5772C35.1345 69.3696 34.4257 70.1385 34.4818 71.0669C34.5173 71.6465 34.8569 72.161 35.1936 72.6341C36.4546 74.4083 37.4617 76.9305 39.3666 77.9832C42.884 79.923 47.2282 78.8703 51.0912 77.7733L52.0008 77.516C53.5129 77.0873 55.0958 77.9654 55.5034 79.4853C56.1501 81.8834 57.7065 84.3406 56.3894 86.3365C55.9227 87.0433 55.1755 87.5045 54.4933 88.0072C50.9376 90.6241 48.8555 94.746 45.9524 98.0756C43.0493 101.405 38.4038 104.072 34.3401 102.345C33.2267 101.872 32.1842 101.08 30.9733 101.077C30.1848 101.077 29.4435 101.414 28.7141 101.713C26.3485 102.68 23.8264 103.262 21.2777 103.445C18.8294 103.62 17.4502 106.358 18.8324 108.389C19.4585 109.309 20.1289 110.208 20.7431 111.122C22.4147 113.596 23.7673 116.74 22.6303 119.499C21.9274 121.199 20.4153 122.399 19.2429 123.819C18.0704 125.238 17.2169 127.269 18.1 128.884C18.7201 130.016 20.058 130.655 20.5571 131.847C21.4962 134.091 18.7674 136.288 16.3398 136.394C13.7704 136.507 11.1952 135.404 8.6701 136.049C7.06942 136.457 5.86447 137.84 5.77587 139.493C5.66955 141.457 7.19936 141.519 7.99084 142.418C9.47634 144.106 7.34997 146.454 6.12436 148.34C4.43212 150.946 4.63 154.686 6.72093 156.981C8.81481 159.275 12.6629 159.766 15.1673 157.933C17.3321 156.348 18.856 153.172 21.9688 154.497C23.41 155.109 24.3668 156.472 24.6267 158.019C25.0195 160.36 27.1665 164.308 29.8806 163.418C32.1251 162.682 32.1783 159.426 33.8558 157.755C36.0766 155.544 39.8627 157.034 42.3671 158.917C46.3098 161.883 49.6795 165.609 52.2429 169.826C54.5878 173.687 56.0793 179.11 52.9754 182.393C50.8165 184.672 46.9625 185.202 45.5921 188.028C44.9985 189.253 45.0133 190.684 45.223 192.029C45.7191 195.243 47.5472 198.531 50.6304 199.549C54.0267 200.666 57.801 198.747 61.2682 199.617C63.7135 200.229 65.6243 202.148 67.0625 204.218C68.8818 206.838 70.1783 210.167 69.1801 213.198C65.6361 212.184 61.974 217.542 62.5647 221.185C63.1553 224.827 66.404 227.495 69.815 228.893C74.2538 230.712 79.3246 230.937 83.9081 229.523C87.774 228.329 91.25 226.031 95.166 225.017C99.0821 224.002 103.961 224.724 105.996 228.225C107.337 230.531 107.124 233.477 108.376 235.833C109.918 238.737 113.27 240.088 116.359 241.209C128.624 245.65 143.771 249.468 153.523 240.798C156.99 237.714 159.483 233.207 163.868 231.699C169.645 229.712 176.311 233.831 181.969 231.528C184.639 230.443 186.567 228.098 188.257 225.762C194.078 217.707 198.451 208.603 201.098 199.019C203.079 191.843 203.15 182.363 196.541 178.948C194.402 177.845 191.798 177.567 190.035 175.929C184.583 170.861 193.209 161.366 190.144 154.58C188.573 151.099 184.323 149.473 182.645 146.043C179.243 139.085 188.348 130.141 184.137 123.641C182.805 121.586 180.419 120.436 178.933 118.487C176.222 114.924 177.324 109.546 180.212 106.127C182.459 103.469 185.522 101.716 188.694 100.216L188.697 100.21Z"/>
</mask>
<path d="M5.1734 118.103C5.51303 118.443 5.90582 118.804 6.38425 118.81C6.98377 118.818 7.42971 118.28 7.76639 117.784C8.17394 117.18 8.55492 116.562 8.91226 115.93C9.0363 115.708 9.16329 115.462 9.10718 115.214C9.05698 114.992 8.87683 114.83 8.69668 114.691C7.88157 114.055 6.93947 113.582 5.94126 113.31C5.37422 113.156 4.314 112.875 3.84147 113.23C3.36894 113.585 3.16516 114.217 3.19174 114.812C3.25081 116.125 4.24016 117.177 5.17045 118.103H5.1734ZM8.20643 128.795C8.97133 128.763 9.76282 128.721 10.4421 128.366C11.1568 127.994 11.6559 127.32 12.1314 126.669C12.5537 126.09 12.9996 125.415 12.8608 124.712C12.6954 123.86 11.7829 123.405 10.9678 123.115C8.50767 122.234 4.58275 121.296 2.01338 122.358C0.796628 122.861 0.140997 124.23 0.0199123 125.543C-0.0155272 125.924 -0.0155282 126.317 0.120323 126.672C0.35068 127.293 0.938382 127.704 1.53495 127.991C3.57567 128.973 5.94716 128.893 8.20938 128.795H8.20643ZM11.9276 82.6285C12.0516 82.7734 12.217 82.871 12.3824 82.9656C13.3068 83.4949 14.305 83.9976 15.3711 83.9799C16.9954 83.9503 18.3333 82.7232 19.3669 81.4724C20.4006 80.2187 21.3692 78.8052 22.8429 78.1192C23.3155 77.9004 23.8618 77.7378 24.1571 77.3061C24.671 76.555 24.0656 75.4934 23.2712 75.047C21.9569 74.3107 20.1407 74.6448 19.172 75.801C18.4662 76.6437 18.3126 77.8915 17.2346 78.3114C16.3044 78.6751 15.0226 78.0039 13.9653 78.3705C12.5714 78.8555 11.582 80.3281 11.6618 81.8036C11.6765 82.0963 11.7386 82.4038 11.9276 82.6256V82.6285ZM20.9824 167.768C20.5216 167.841 20.4714 167.49 20.2145 167.099C19.4407 165.928 18.0645 165.417 16.6735 165.603C16.2778 165.656 15.8259 165.837 15.7432 166.23C15.6753 166.549 15.8879 166.854 16.0769 167.123C16.8743 168.264 17.4118 169.607 18.413 170.577C19.4142 171.547 21.1477 171.999 22.1666 171.047C22.7041 170.544 22.9109 169.713 22.6687 169.015C22.4265 168.32 21.5464 167.679 20.9883 167.768H20.9824ZM188.697 100.21C190.23 99.486 192.019 99.56 193.496 100.397C197.902 102.895 203.578 103.043 208.283 101.041C209.231 100.639 210.135 100.154 211 99.6073C204.098 96.0885 197.808 89.7607 195.271 83.4861C192.149 75.7685 192.509 66.7143 196.234 59.2688C196.739 58.2604 197.294 57.2935 197.834 56.3591C198.676 54.8984 199.47 53.5175 200.023 52.0775C202.471 45.6846 199.417 37.6063 193.354 34.4364C191.715 33.5789 189.89 33.0289 187.955 32.4435C186.792 32.0916 185.59 31.7279 184.403 31.2873C181.228 30.1075 178.307 28.428 175.484 26.8076C171.913 24.7555 168.541 22.8157 164.834 21.9168C161.91 21.2071 158.848 21.1628 155.605 21.1155C154.244 21.0948 152.835 21.0741 151.432 21.0001C144.997 20.6601 140.298 18.9924 137.07 15.9024C135.532 14.4298 134.424 12.7237 133.352 11.0737C132.856 10.3108 132.389 9.58933 131.89 8.90628C128.299 3.99186 122.534 0.697836 116.495 0C115.812 4.88781 113.462 9.14873 109.82 11.6976C105.786 14.5244 100.213 15.3021 94.1294 13.8917C90.7745 13.114 87.6263 11.8129 84.5815 10.5533C83.2052 9.98555 81.7817 9.39714 80.3848 8.87672C75.8338 7.18831 72.473 7.10847 70.3968 8.64607C69.5492 9.27294 68.7843 10.2813 68.0548 11.7242C67.5085 12.8065 67.0271 13.9804 66.5162 15.2252C64.9066 19.1491 63.0845 23.5993 58.6663 25.542C54.1567 27.5261 49.6234 25.7519 45.6217 24.1847C43.8497 23.4899 42.1781 22.8364 40.5479 22.4786C36.0855 21.4999 30.7843 22.8305 26.0029 26.1304C22.1755 28.771 18.1324 33.1945 14.2636 37.7748C15.696 38.3899 17.2642 38.6205 18.7703 39.0315C21.1389 39.6791 23.3775 40.8057 25.3119 42.3196C27.3674 43.9282 28.7259 46.415 30.1139 48.6268C30.613 49.4192 31.0974 50.2679 31.1712 51.2023C31.3898 53.9108 28.2977 55.6879 27.453 58.2723C26.7058 60.555 27.7927 63.2902 26.5345 65.3364C25.9882 66.2294 25.052 66.8652 24.6533 67.8321C24.2694 68.7694 24.5056 69.9256 25.2233 70.6382C25.9409 71.3508 27.0986 71.5755 28.0319 71.1823C29.3402 70.6323 29.9426 69.1627 30.6603 67.9356C31.1417 67.1135 31.7264 66.3566 32.3939 65.6794C34.1038 63.9467 36.9419 65.9781 35.8551 68.1573C35.7843 68.3022 35.7045 68.4412 35.6218 68.5772C35.1345 69.3696 34.4257 70.1385 34.4818 71.0669C34.5173 71.6465 34.8569 72.161 35.1936 72.6341C36.4546 74.4083 37.4617 76.9305 39.3666 77.9832C42.884 79.923 47.2282 78.8703 51.0912 77.7733L52.0008 77.516C53.5129 77.0873 55.0958 77.9654 55.5034 79.4853C56.1501 81.8834 57.7065 84.3406 56.3894 86.3365C55.9227 87.0433 55.1755 87.5045 54.4933 88.0072C50.9376 90.6241 48.8555 94.746 45.9524 98.0756C43.0493 101.405 38.4038 104.072 34.3401 102.345C33.2267 101.872 32.1842 101.08 30.9733 101.077C30.1848 101.077 29.4435 101.414 28.7141 101.713C26.3485 102.68 23.8264 103.262 21.2777 103.445C18.8294 103.62 17.4502 106.358 18.8324 108.389C19.4585 109.309 20.1289 110.208 20.7431 111.122C22.4147 113.596 23.7673 116.74 22.6303 119.499C21.9274 121.199 20.4153 122.399 19.2429 123.819C18.0704 125.238 17.2169 127.269 18.1 128.884C18.7201 130.016 20.058 130.655 20.5571 131.847C21.4962 134.091 18.7674 136.288 16.3398 136.394C13.7704 136.507 11.1952 135.404 8.6701 136.049C7.06942 136.457 5.86447 137.84 5.77587 139.493C5.66955 141.457 7.19936 141.519 7.99084 142.418C9.47634 144.106 7.34997 146.454 6.12436 148.34C4.43212 150.946 4.63 154.686 6.72093 156.981C8.81481 159.275 12.6629 159.766 15.1673 157.933C17.3321 156.348 18.856 153.172 21.9688 154.497C23.41 155.109 24.3668 156.472 24.6267 158.019C25.0195 160.36 27.1665 164.308 29.8806 163.418C32.1251 162.682 32.1783 159.426 33.8558 157.755C36.0766 155.544 39.8627 157.034 42.3671 158.917C46.3098 161.883 49.6795 165.609 52.2429 169.826C54.5878 173.687 56.0793 179.11 52.9754 182.393C50.8165 184.672 46.9625 185.202 45.5921 188.028C44.9985 189.253 45.0133 190.684 45.223 192.029C45.7191 195.243 47.5472 198.531 50.6304 199.549C54.0267 200.666 57.801 198.747 61.2682 199.617C63.7135 200.229 65.6243 202.148 67.0625 204.218C68.8818 206.838 70.1783 210.167 69.1801 213.198C65.6361 212.184 61.974 217.542 62.5647 221.185C63.1553 224.827 66.404 227.495 69.815 228.893C74.2538 230.712 79.3246 230.937 83.9081 229.523C87.774 228.329 91.25 226.031 95.166 225.017C99.0821 224.002 103.961 224.724 105.996 228.225C107.337 230.531 107.124 233.477 108.376 235.833C109.918 238.737 113.27 240.088 116.359 241.209C128.624 245.65 143.771 249.468 153.523 240.798C156.99 237.714 159.483 233.207 163.868 231.699C169.645 229.712 176.311 233.831 181.969 231.528C184.639 230.443 186.567 228.098 188.257 225.762C194.078 217.707 198.451 208.603 201.098 199.019C203.079 191.843 203.15 182.363 196.541 178.948C194.402 177.845 191.798 177.567 190.035 175.929C184.583 170.861 193.209 161.366 190.144 154.58C188.573 151.099 184.323 149.473 182.645 146.043C179.243 139.085 188.348 130.141 184.137 123.641C182.805 121.586 180.419 120.436 178.933 118.487C176.222 114.924 177.324 109.546 180.212 106.127C182.459 103.469 185.522 101.716 188.694 100.216L188.697 100.21Z" fill="#1A203A" stroke="#333757" stroke-width="2" mask="url(#path-1-inside-1_11418_68642)"/>
<path d="M56.1101 78.2411C57.0338 78.4259 59.1858 78.7399 60.405 78.5182C61.929 78.2411 64.8385 77.964 68.9949 77.6869C72.3199 77.4653 72.7818 77.3175 72.597 77.2713L71.6272 74.0848L75.0909 73.9462L76.1992 76.9942L79.8014 76.7171C80.4018 76.3938 81.7965 75.7196 82.5723 75.6088C83.3482 75.4979 83.8192 75.5626 83.9578 75.6088C84.1887 75.8397 84.7336 76.3015 85.0661 76.3015H85.4818V75.8858L84.9276 75.1931L85.2047 75.0546C85.8974 75.7011 87.5322 77.0496 88.5298 77.2713C89.5273 77.493 89.9614 77.456 90.0538 77.4098V78.7953H89.7767V84.3371H90.1923C90.2847 84.6604 90.3863 85.4178 90.0538 85.8611C89.6381 86.4153 89.7767 86.1382 89.7767 86.8309C89.7767 87.5237 89.6381 88.0779 89.3611 88.632C89.084 89.1862 89.4996 89.879 89.7767 89.879H90.4694C90.2385 90.2022 89.7767 90.9873 89.7767 91.5415C89.7767 92.0957 89.9614 93.1579 90.0538 93.6197L89.3611 93.3426L88.9454 92.9269L88.5298 93.3426L86.036 94.1739V95.8364C86.3592 96.4368 87.0058 97.9146 87.0058 99.0229C87.0058 100.408 86.7287 101.24 87.1443 101.932C87.56 102.625 88.5298 103.595 88.5298 105.812C88.5298 108.028 88.8069 108.721 89.084 109.83C89.3611 110.938 89.4996 112.046 89.4996 113.709C89.4996 115.371 89.6381 116.341 89.7767 116.895C89.9152 117.45 90.1923 118.419 89.4996 120.22C88.8069 122.022 88.9454 122.022 89.4996 122.576C90.0538 123.13 90.7465 123.684 90.8851 124.792C91.0236 125.901 90.608 126.871 91.5778 128.256C92.5476 129.642 92.6861 131.166 92.4091 131.858C92.132 132.551 91.9934 132.967 92.132 133.798C92.2705 134.629 92.9632 136.707 92.9632 137.262C93.3327 137.585 94.1824 138.508 94.6258 139.617C95.0691 140.725 95.2723 141.741 95.3185 142.111M95.3185 142.111L94.6258 142.803C94.1178 142.896 92.9632 143.136 92.4091 143.358C91.8549 143.579 90.7927 144.374 90.3309 144.743C89.9152 144.374 88.9454 143.607 88.3912 143.496C87.8371 143.385 87.5138 143.358 87.4214 143.358C87.1443 143.635 86.4239 144.244 85.7589 144.466C84.9276 144.743 84.3734 144.327 83.4036 143.773C82.4338 143.219 82.0181 142.803 81.3254 143.08C80.6327 143.358 79.94 143.635 79.3858 143.358C78.8316 143.08 78.416 142.526 77.7232 142.526C77.0305 142.526 75.5065 142.803 75.2294 142.803C74.9523 142.803 74.8138 144.327 74.5367 145.574C74.2596 146.821 73.2898 149.454 72.3199 150.146C71.3501 150.839 71.3501 151.393 71.2116 151.947C71.073 152.502 70.6574 152.779 70.9345 153.194C71.1562 153.527 71.4887 153.61 71.6272 153.61L70.9345 154.164C70.7959 154.534 70.408 155.356 69.9647 155.688L67.7479 157.351H67.0552C66.5472 157.905 65.5312 159.041 65.5312 159.152C65.5312 159.263 64.6999 159.383 64.2843 159.429V160.537C64.2843 161.091 64.1458 161.23 63.3145 161.784C62.4832 162.338 62.7603 162.477 61.929 162.477L61.7905 163.17C61.6981 163.4 61.4303 163.835 61.0978 163.724C60.6821 163.585 60.405 163.17 59.9894 163.724C59.5738 164.278 58.881 163.585 58.3268 164.001C57.7727 164.416 57.4956 164.971 55.0017 164.971C52.5079 164.971 51.5381 163.862 50.7068 163.724C49.8756 163.585 49.5985 163.724 49.3214 163.724C49.0443 163.724 48.7672 162.892 48.3516 163.031M95.3185 142.111L95.8727 142.111L96.4269 142.388H99.0592C99.4749 142.111 100.5 141.501 101.276 141.279C102.052 141.058 102.892 141.095 103.216 141.141C103.308 141.51 103.604 142.277 104.047 142.388C104.601 142.526 106.402 142.942 106.956 143.773C107.511 144.604 107.095 144.743 108.896 144.743C110.697 144.743 111.667 144.466 111.944 144.743C112.221 145.02 112.221 145.436 113.052 145.436C113.717 145.436 114.345 145.343 114.576 145.297M74.9523 73.8077C74.9523 73.6229 74.98 73.1981 75.0908 72.9764C75.2294 72.6993 75.0908 71.868 74.8138 71.3138C74.5367 70.7597 73.8439 68.4044 73.9825 67.7117M134.111 40.2796C133.372 40.0949 131.811 39.7255 131.479 39.7255C131.063 39.7255 130.093 41.1109 126.63 43.0506C123.166 44.9902 121.919 45.5444 118.04 45.5444C114.161 45.5444 111.113 45.1287 110.559 45.8215C110.004 46.5142 108.619 49.8393 108.065 53.8571C107.511 57.8749 108.065 58.5677 108.48 59.2604C108.813 59.8146 110.004 61.2462 110.559 61.8927C109.958 62.1698 108.619 62.9457 108.065 63.8324C107.372 64.9407 106.679 65.0793 105.709 65.3564C104.74 65.6335 104.047 65.3564 102.523 65.772C100.999 66.1877 100.86 66.6033 100.722 67.296C100.583 67.9888 99.4749 68.4044 98.7822 68.9586L96.704 70.6211L93.9331 70.2055C93.4713 69.8822 92.326 69.1802 91.4393 68.9586C90.3309 68.6815 89.6382 69.0971 88.8069 68.4044C88.1419 67.8502 87.1444 66.9727 86.7288 66.6033C86.544 66.788 86.1746 67.2406 86.1746 67.5731C86.1746 67.9056 85.8051 67.8964 85.6204 67.8502C85.5742 67.5731 85.3156 67.0189 84.6506 67.0189C83.8193 67.0189 81.464 67.5731 80.9098 67.5731C80.4665 67.5731 80.2633 67.9426 80.2171 68.1273C79.7553 68.1735 78.6931 68.4044 78.1389 68.9586C77.4462 69.6513 77.1691 69.7898 76.6149 69.5128C76.0607 69.2357 75.368 68.4044 75.5066 68.1273C75.6451 67.8502 74.8138 67.296 73.7054 67.8502C72.8187 68.2936 72.4123 68.2197 72.3199 68.1273C72.2738 67.7578 72.126 66.8527 71.9043 66.1877L71.4887 65.2178L72.3199 65.0793L71.3501 61.8927L68.7178 63.0011V62.3084L69.9647 61.4771L68.3021 59.2604L67.3323 58.5677H66.7781C66.8705 57.8749 67.1106 56.3509 67.3323 55.7967H68.025C68.2098 55.3811 68.4684 54.2727 68.025 53.1644C67.4709 51.7789 67.8865 50.532 67.7479 49.2851C67.6094 48.0382 67.0552 47.3455 67.1938 45.96V44.436C67.3323 44.1589 67.7202 43.5216 68.1636 43.1891C68.1174 42.8196 67.9419 42.0807 67.6094 42.0807C67.1938 42.0807 65.8083 41.9422 64.4228 41.1109C63.0374 40.2796 62.2061 39.864 61.929 38.7556C61.7074 37.8689 61.6519 37.0931 61.6519 36.816C61.6981 35.9385 61.8736 33.962 62.2061 33.0753C62.6218 31.9669 61.6519 31.5513 61.2363 31.1356C60.8207 30.72 60.1279 29.0574 59.2967 28.5033C58.4654 27.9491 56.6225 27.9622 55.7913 27.1309M52.4992 183.536L55.9716 183.536L56.1101 182.704C56.4334 182.566 57.0799 182.206 57.0799 181.873C57.0799 181.541 57.357 180.349 57.4956 179.795C58.0036 179.564 59.075 178.991 59.2967 178.548C59.5738 177.994 59.7123 177.44 60.1279 176.47C60.5436 175.5 60.405 175.223 61.0978 174.807C61.7905 174.392 61.6519 172.868 61.6519 172.036C61.6519 171.205 61.2363 171.067 62.0676 170.235V169.404C62.1599 169.219 62.4278 168.85 62.7603 168.85H68.025C68.025 169.727 68.0805 171.593 68.3021 172.036C68.5238 172.48 69.041 173.699 69.2719 174.253H68.5792C68.8563 174.484 69.3274 175.001 68.9949 175.223C68.5792 175.5 68.025 175.916 68.025 176.47V177.994C68.5792 177.624 69.9093 176.941 70.7959 177.163C71.9043 177.44 72.8741 177.994 73.4283 177.994C73.8717 177.994 74.4443 177.624 74.6752 177.44C74.6752 177.209 74.98 176.692 76.1992 176.47C77.4184 176.248 78.4621 176.839 78.8316 177.163C78.5545 177.44 78.0834 178.077 78.416 178.41C78.8316 178.825 78.693 180.488 78.416 180.765C78.1389 181.042 77.8618 181.18 78.1389 181.735C78.416 182.289 78.9701 181.873 79.5243 182.704C79.9677 183.369 80.2632 184.552 80.3556 185.06C80.7712 185.152 81.7133 185.559 82.1567 186.445C82.7109 187.554 83.265 187.831 84.3734 188.108C85.2601 188.329 86.3131 188.662 86.7287 188.8C86.6825 188.985 86.7287 189.438 87.2829 189.77C87.9756 190.186 88.1141 190.879 88.3912 191.71C88.6683 192.541 89.084 193.65 90.1923 194.204C91.3007 194.758 92.5476 198.914 92.5476 200.023C92.5476 200.909 92.64 203.625 92.6861 204.872C94.8567 205.38 99.8074 206.423 102.246 206.534L102.523 207.089C104.139 207.181 107.511 207.476 108.065 207.92C108.757 208.474 109.035 209.167 112.083 209.305C115.131 209.444 116.932 210.691 118.456 210.691C119.98 210.691 121.781 211.799 121.919 212.353C121.827 213.138 121.698 214.875 121.919 215.54C122.196 216.371 121.919 216.51 121.227 217.202C120.534 217.895 118.733 219.696 118.179 221.082C117.624 222.467 116.655 221.913 115.685 223.852C114.715 225.792 114.438 226.485 114.161 227.316C113.884 228.147 114.161 228.702 113.468 229.394C112.775 230.087 111.528 231.611 111.944 232.027C112.36 232.442 111.667 233.135 111.667 233.689V234.521C111.482 234.474 111.085 234.465 110.974 234.798C110.863 235.13 110.743 235.213 110.697 235.213C110.928 235.213 111.418 235.269 111.528 235.49C111.639 235.712 110.836 236.876 110.42 237.43M120.672 211.245L121.642 209.305C121.919 208.889 122.584 208.058 123.028 208.058C123.582 208.058 124.967 208.197 125.106 207.781C125.244 207.366 125.383 206.811 126.076 206.534C126.768 206.257 127.6 205.287 129.124 204.872C129.355 204.456 130.093 203.486 131.202 202.932C132.31 202.378 132.68 201.593 132.726 201.269C132.541 201.223 132.227 200.909 132.449 200.023C132.726 198.914 133.141 198.637 132.726 197.113C132.31 195.589 132.172 195.451 132.172 194.619C132.172 193.788 131.34 193.372 131.063 192.818C130.786 192.264 130.648 191.017 131.202 190.601C131.294 189.447 131.451 186.888 131.34 185.891C131.202 184.644 130.786 184.505 131.202 183.674C131.617 182.843 132.31 181.18 132.864 180.903C133.419 180.626 133.28 179.933 133.696 178.964C134.111 177.994 134.25 177.163 135.081 176.885C135.912 176.608 137.159 176.193 137.298 175.361C137.436 174.53 136.744 174.115 136.744 172.313C136.744 170.512 136.328 169.404 136.189 168.296C136.079 167.409 135.866 166.079 135.774 165.525V164.971M135.774 164.971C136.282 165.248 137.575 165.636 138.683 164.971C139.053 164.786 139.847 164.333 140.069 164.001C140.761 164.093 142.285 164.222 142.84 164.001C143.532 163.724 144.225 163.724 144.779 164.139C145.333 164.555 146.719 165.248 147.412 165.386C148.104 165.525 148.381 164.971 150.044 164.971C151.374 164.971 152.076 165.155 152.261 165.248L153.369 164.693V163.446C154.062 163.169 155.586 162.643 156.14 162.754C156.833 162.892 157.11 164.139 157.941 164.139H160.851C160.989 164.232 161.349 164.416 161.682 164.416C161.774 163.908 161.959 162.782 161.959 162.338C161.959 161.784 161.959 161.368 162.375 161.23C162.79 161.091 162.652 159.844 162.652 159.152C162.652 158.597 162.836 158.089 162.929 157.905V157.489L162.375 157.351V156.658H161.682C161.497 156.381 161.1 155.688 160.989 155.134H161.682C161.636 154.903 161.654 154.386 162.097 154.164C162.652 153.887 161.82 153.471 162.652 153.194C163.317 152.973 163.945 153.102 164.176 153.194L165.838 151.532C166.069 151.393 166.614 150.978 166.947 150.423C167.362 149.731 167.501 149.454 168.055 149.731C168.609 150.008 168.886 149.731 169.44 149.731C169.995 149.731 170.133 149.176 171.241 148.345C172.35 147.514 172.904 147.098 172.904 146.683C173.181 146.775 173.791 146.793 174.012 146.128C174.289 145.297 180.391 143.635 181.499 143.773M135.774 164.971C135.404 165.017 134.499 164.832 133.834 163.724C133.003 162.338 133.141 162.061 131.894 161.923C130.648 161.784 130.093 161.784 129.816 160.814C129.539 159.845 129.124 159.568 128.569 159.429C128.015 159.29 127.6 159.845 127.045 159.429C126.491 159.013 125.798 159.568 125.244 159.29C124.801 159.069 123.674 158.459 123.166 158.182H122.473C121.688 157.813 120.007 156.769 119.564 155.55C119.01 154.026 119.148 153.333 118.04 151.67C117.153 150.34 116.285 149.269 115.962 148.9L115.408 148.761C114.946 147.93 114.05 146.184 114.161 145.852C114.299 145.436 116.932 143.219 117.901 141.834C118.677 140.725 119.148 140.079 119.287 139.894C119.564 139.986 120.284 140.033 120.949 139.478C121.614 138.924 121.965 138.509 122.058 138.37C121.965 137.723 121.919 136.264 122.473 135.599C123.074 135.183 124.413 134.158 124.967 133.382C125.66 132.413 126.491 131.997 126.907 131.72C127.323 131.443 129.124 131.72 129.816 131.166C130.509 130.611 130.648 129.642 131.063 129.226C131.479 128.81 132.31 128.533 132.31 127.702C132.31 127.037 132.033 126.039 131.895 125.624C132.31 125.254 133.197 124.322 133.419 123.546C134.25 123.269 135.968 122.576 136.189 122.022C136.467 121.329 137.575 120.082 138.96 119.389C140.346 118.697 141.316 117.173 141.454 116.341C141.593 115.51 142.008 114.679 142.285 114.263C142.563 113.847 141.731 113.155 141.593 112.601C141.454 112.046 141.177 111.492 141.731 110.522C142.285 109.553 142.424 108.998 142.008 108.306C141.593 107.613 141.316 107.474 141.454 106.089C141.593 104.703 142.008 104.981 141.731 104.011C141.454 103.041 140.346 102.348 140.484 100.824C140.484 100.686 140.429 100.325 140.207 99.9929C139.93 99.5773 140.484 99.3002 140.484 98.8846C140.484 98.4689 140.761 97.0835 141.177 96.2522C141.593 95.4209 141.039 94.4511 141.593 94.3126C142.036 94.2017 142.516 94.2664 142.701 94.3126C142.978 94.5434 143.671 94.9775 144.225 94.8667C144.918 94.7281 145.472 94.0354 146.303 93.6198C147.135 93.2041 147.689 93.0656 147.966 92.65C148.243 92.2343 148.797 92.0958 149.213 92.3729C149.628 92.65 150.183 91.6801 150.321 91.403C150.46 91.1259 151.291 90.8488 152.122 91.403C152.953 91.9572 153.646 92.0958 154.062 92.3729C154.477 92.65 154.339 92.2343 154.339 91.8186C154.339 91.403 154.616 90.8488 155.309 90.4332C156.001 90.0176 156.556 89.6019 156.971 90.0176C157.387 90.4332 157.941 90.0175 158.218 90.5717C158.44 91.015 158.957 90.8488 159.188 90.7102C159.142 91.0336 159.133 91.8188 159.465 92.3729C159.881 93.0655 160.296 94.0352 160.712 95.1437C161.128 96.2522 161.959 97.9146 162.513 98.0531C163.067 98.1917 164.868 99.4386 165.561 99.8542C166.254 100.27 166.531 100.408 167.639 101.101C168.748 101.794 168.886 101.932 170.826 101.932H173.043C173.043 101.84 173.153 101.628 173.597 101.517C174.151 101.378 174.428 101.655 174.428 101.378C174.428 101.101 174.844 101.932 174.982 102.625C175.121 103.318 175.398 104.011 175.813 104.288C176.146 104.509 179.399 105.815 179.999 106M141.87 104.288C141.685 104.38 141.26 104.482 141.038 104.149C140.761 103.734 139.93 103.179 139.514 102.764C139.099 102.348 139.237 102.625 139.237 103.179V103.734L138.96 104.011C138.914 103.549 138.766 102.57 138.545 102.348C138.268 102.071 137.575 102.21 137.021 101.517C136.466 100.824 136.189 100.824 135.497 100.686C134.942 100.575 134.434 100.178 134.25 99.9928C134.204 100.085 134.111 100.325 134.111 100.547C134.111 100.824 133.834 101.101 133.557 100.686C133.335 100.353 132.818 100.085 132.587 99.9928C132.68 99.8081 132.809 99.3832 132.587 99.1615C132.31 98.8844 131.617 99.3001 131.063 98.7459C130.509 98.1917 129.955 97.6375 130.093 96.8062C130.204 96.1412 129.678 95.7902 129.401 95.6979V95.0051L128.431 94.8666L128.292 94.1739C127.738 94.1739 126.574 94.1185 126.353 93.8968C126.131 93.6751 125.891 93.1579 125.799 92.927V92.2342L124.829 92.0957L123.582 90.9873L123.859 90.2946C123.443 89.7404 122.584 88.5212 122.473 88.0779C122.335 87.5237 122.612 86.5539 122.196 86.2768C121.781 85.9997 121.088 85.5841 120.395 85.307C119.703 85.0299 119.703 85.1684 119.703 84.7528C119.703 84.3371 120.257 84.0601 120.534 83.3673C120.811 82.6746 120.534 81.8433 121.365 81.4277C122.196 81.0121 123.028 80.5964 122.889 80.1808C122.751 79.7651 122.612 78.5182 122.751 77.9641C122.889 77.4099 123.859 77.5484 123.997 76.8557C124.136 76.163 123.997 75.3317 124.413 75.0546C124.829 74.7775 125.66 74.0848 125.66 73.6691C125.66 73.2535 125.383 72.9764 125.799 72.5608C126.131 72.2283 126.584 72.2375 126.768 72.2837L127.461 71.5909C127.507 71.2677 127.572 70.5657 127.461 70.344C127.323 70.0669 127.045 69.9284 127.323 69.3742C127.6 68.82 127.6 68.4044 127.323 67.7117C127.045 67.0189 126.491 67.1575 126.768 66.4647C127.045 65.772 126.907 65.772 126.491 65.4949C126.076 65.2178 126.214 64.5251 126.353 63.8324C126.491 63.1397 126.768 63.0011 126.768 62.3084V61.2L127.323 60.9229L127.184 60.5073H126.63V60.0917L127.461 59.2604C127.507 58.66 127.683 57.293 128.015 56.628C128.431 55.7967 128.847 55.9353 128.847 54.1342C128.847 52.3331 129.539 51.5018 129.955 50.8091C130.371 50.1164 130.648 48.7309 131.202 48.0382C131.756 47.3455 133.141 46.7913 133.696 45.6829C134.139 44.7962 135.081 44.2975 135.497 44.1589C134.989 43.0505 134 40.6953 134.111 40.1411C134.25 39.4484 134.665 37.9244 134.804 37.2316C134.943 36.5389 134.804 36.2618 135.358 35.5691C135.912 34.8764 137.021 33.9065 137.159 33.2138C137.298 32.5211 138.129 32.244 138.406 31.9669C138.683 31.6898 139.099 31.5513 139.099 30.5814C139.099 29.6116 138.683 28.2262 139.515 27.1178C140.18 26.2311 140.253 24.3469 140.207 23.5156L140.999 19.5" stroke="#333757" stroke-width="0.765268" stroke-linejoin="round"/>
</svg>
