<svg width="182" height="314" viewBox="0 0 182 314" fill="none" xmlns="http://www.w3.org/2000/svg">
<mask id="path-1-inside-1_908_21815" fill="white">
<path d="M21.8878 10.0155C22.8695 10.6357 24.1077 11.2737 25.1277 10.7155C26.1949 10.1336 26.2863 8.66279 26.242 7.4489C26.2332 7.19785 26.2155 6.92612 26.0593 6.72824C25.9384 6.57761 25.7497 6.49786 25.5699 6.42993C25.5699 6.42993 24.3995 6.10504 23.238 6.31178C22.2386 6.48899 21.3395 7.20966 21.0329 8.18137C20.9327 8.5033 20.8944 8.86363 21.0211 9.1767C21.1774 9.55475 21.5429 9.79694 21.8878 10.0126V10.0155ZM32.8014 13.7222C34.0425 14.5905 35.2924 15.45 36.5601 16.277C37.1084 16.6343 37.6833 16.974 38.3289 17.0626C39.0393 17.1601 39.8589 16.8647 40.136 16.2031C40.5045 15.323 39.8383 14.1386 40.478 13.4327C41.1825 12.653 42.8393 13.2644 43.2963 12.3163C43.4643 11.9707 43.367 11.5779 43.3169 11.188C43.2609 10.7539 42.8511 10.4526 42.4296 10.5619C41.8429 10.7155 41.2327 11.1585 40.6165 11.3091C39.5022 11.5838 38.3878 10.8602 37.5683 10.0509C36.1385 8.64507 34.1604 6.99111 32.0496 6.71347C29.6234 6.39449 29.5291 9.39527 30.3398 11.2501C30.8115 12.3281 31.8374 13.0517 32.7955 13.7192L32.8014 13.7222ZM42.3735 5.6118C42.7981 5.6945 43.2491 5.75654 43.6559 5.60886C43.9507 5.49958 44.1984 5.28692 44.4047 5.04769C45.2036 4.10847 45.3687 2.6642 44.7673 1.58321C44.4372 0.830066 43.9301 0.398839 43.5822 0.203907C43.1577 -0.0323748 42.7096 -0.0205507 42.2527 0.0296592C42.0493 0.0532873 41.8459 0.0828225 41.6395 0.103497C40.6814 0.195056 40.0623 0.954099 39.6879 1.78995C39.3341 2.57853 39.3312 3.55025 39.8117 4.26795C40.363 5.09198 41.4037 5.42277 42.3765 5.6118H42.3735ZM63.499 310.377C63.0479 310.846 62.8003 311.469 62.5645 312.078C62.3787 312.559 62.1989 313.126 62.4731 313.563C62.7826 314.057 63.5049 314.08 64.0532 313.888C65.4476 313.401 66.4499 311.839 67.1604 310.545C67.8266 309.331 64.4571 309.381 63.496 310.377H63.499ZM181.767 257.497C180.812 251.888 177.587 246.601 174.745 241.938C170.352 234.734 165.376 226.568 164.061 217.444C163.849 215.979 163.737 214.517 163.628 213.102C163.507 211.537 163.392 210.057 163.156 208.598C162.189 202.626 159.238 197.162 156.114 191.376C152.255 184.229 148.263 176.839 148.357 168.395C148.396 164.99 149.018 161.534 149.619 158.194C150.669 152.366 151.659 146.861 149.613 142.147C148.493 139.566 146.27 137.268 142.615 134.914C141.332 134.09 140.088 133.508 138.773 132.891C136.966 132.046 135.1 131.169 133.169 129.66C132.067 128.797 130.873 128.026 129.605 127.208C128.108 126.242 126.412 125.15 124.641 123.744C121.749 121.452 119.688 118.622 118.512 115.338C117.545 112.633 117.946 108.985 118.335 105.456C118.521 103.769 118.697 102.177 118.665 101.037C118.491 94.6781 118.294 87.4715 120.304 80.7641C120.634 79.6624 120.967 77.6511 121.318 75.5216C121.908 71.9538 122.515 68.2648 123.5 66.218C125.145 62.7949 126.896 59.3511 128.588 56.0195C130.268 52.7116 132.008 49.2914 133.632 45.9155C134.797 43.4936 133.19 40.0528 131.636 36.7271C131.268 35.9356 130.885 35.1175 130.548 34.3289C128.856 30.3416 127.105 26.2156 124.169 23.2C122.094 21.0676 119.367 19.452 116.725 17.8896C113.365 15.8989 109.892 13.8403 106.269 12.4581C104.795 11.894 103.288 11.4391 101.693 10.9547C100.532 10.6033 99.332 10.237 98.144 9.82943C96.2867 9.18852 94.4707 8.44128 92.7137 7.72062C90.8359 6.94975 89.0612 6.22023 87.2245 5.60295C78.242 2.5815 64.9553 2.62875 54.9704 2.88571C54.9645 2.89752 54.9586 2.90934 54.9527 2.9241C54.6225 3.61818 54.2835 4.32997 53.7381 4.87342C53.0335 5.57636 52.0607 5.92783 51.2647 6.51853C49.8821 7.54045 49.1304 9.1767 48.2253 10.6387C47.3203 12.1007 46.032 13.5479 44.3251 13.7192C44.1276 13.7399 43.9065 13.7488 43.768 13.8905C43.5822 14.0766 43.6353 14.3867 43.7149 14.6378C44.4961 17.0921 46.7572 19.006 49.3014 19.3723C50.4304 19.5347 51.6185 19.4225 52.6709 19.8684C54.1774 20.5064 55.0382 22.184 55.1767 23.8173C55.3124 25.4506 54.8554 27.0691 54.3985 28.6434C53.6497 31.2129 52.8744 33.812 51.4829 36.0951C50.0885 38.3781 47.9866 40.3481 45.3953 41.0038C42.3293 41.7806 38.5971 40.3452 37.81 37.0313C37.583 36.0774 37.1025 35.1913 36.3272 34.5976C34.2724 33.0323 32.5537 34.893 31.914 36.674C31.4128 38.068 31.1918 39.6482 30.1599 40.7055C29.1105 41.7806 27.3269 42.203 26.8199 43.6147C26.5103 44.4772 26.7963 45.4725 26.4779 46.332C26.13 47.2712 25.1542 47.8117 24.2138 48.1454C23.0641 48.556 21.8023 48.807 21.0182 49.8437C20.6526 50.3281 20.5023 50.9631 20.7086 51.5331C21.0359 52.4487 21.9615 52.5757 22.7516 52.8415C24.3465 53.3761 25.6554 54.6993 26.1742 56.3001C26.7845 58.1785 26.1359 60.122 25.2928 61.9059C24.4497 63.6898 23.2734 65.3674 22.9403 67.3138C22.6691 68.9087 22.9933 70.5656 22.7074 72.1575C22.2593 74.6592 20.405 76.6351 18.6362 78.4544C16.8291 77.8165 15.4789 76.3102 14.335 74.7714C13.1912 73.2326 12.1476 71.5728 10.6353 70.3943C9.83638 69.7711 8.85764 69.3074 7.86121 69.1361C6.20443 68.8526 4.99869 70.6572 5.88604 72.0867C6.56409 73.1795 7.57525 74.225 8.12064 75.3887C9.2055 77.7072 8.34763 80.4422 7.34236 82.7961C6.59946 84.5328 5.75633 86.2695 4.42973 87.6133C3.507 88.5496 2.37791 89.2614 1.45814 90.2036C0.211128 91.4824 -0.664431 93.3963 0.662173 95.1123C1.09258 95.6705 1.69103 96.0781 2.34843 96.3232C4.36192 97.0705 6.51397 96.4 8.4744 95.8654C9.10527 95.6941 9.78626 95.7443 10.3582 96.0633C11.446 96.6688 11.3045 97.735 11.0686 98.6447C10.6353 100.313 9.81869 102.035 8.27983 102.812C6.26044 103.834 3.30064 103.102 2.11259 105.134C1.64976 105.925 1.64681 106.9 1.98583 107.753C2.69925 109.549 4.30886 110.527 5.67674 111.726C10.8534 116.268 12.2773 123.643 13.3946 130.445C14.7006 138.396 13.6039 146.53 14.4647 154.543C15.2342 161.705 18.4121 168.351 21.5429 174.834C22.6307 177.087 23.7244 179.35 25.1306 181.42C27.0675 184.27 29.5762 186.719 31.292 189.705C32.6304 192.035 33.444 194.622 34.2488 197.186L36.0678 202.981C36.9639 205.831 37.9486 208.832 40.1802 210.816C44.3664 214.544 51.9192 213.832 54.6048 218.755C56.2115 221.703 55.2092 225.289 54.0241 228.481C53.29 230.457 54.0653 233.113 55.787 234.326C57.3553 235.431 59.3894 235.771 61.288 235.49C62.4642 235.316 63.611 234.92 64.799 234.902C65.9871 234.888 67.296 235.369 67.7913 236.45C68.5076 238.018 67.2813 240.195 68.4605 241.453C68.8201 241.837 69.3272 242.029 69.7782 242.295C71.0429 243.045 71.8861 244.581 71.5618 246.016C71.0223 248.406 68.0301 249.132 66.2111 250.772C64.5013 252.313 63.8704 255.051 65.0084 257.057C66.845 260.294 72.1248 260.625 73.3217 264.148C73.7639 265.451 73.5016 266.874 73.2333 268.221C72.7027 270.897 72.1661 273.596 71.1225 276.119C70.6155 277.347 69.9846 278.547 69.7782 279.858C69.563 281.234 69.8283 282.637 70.0937 284.005C70.4533 285.856 70.813 287.708 71.1697 289.563C71.3731 290.615 71.5972 291.707 72.2575 292.546C73.1773 293.713 74.7191 294.132 76.0339 294.823C77.7762 295.739 79.1676 297.186 80.624 298.533C84.7777 293.595 89.1761 288.76 93.5244 285.759C99.3674 281.724 106.003 280.13 111.728 281.388C113.718 281.825 115.643 282.578 117.504 283.308C121.097 284.716 124.201 285.933 126.908 284.74C129.576 283.565 130.888 280.36 132.279 276.966C132.801 275.693 133.34 274.376 133.968 273.13C135.035 271.015 136.262 269.462 137.712 268.386C141.147 265.843 145.996 265.708 152.125 267.985C153.599 268.534 155.061 269.137 156.473 269.721C159.468 270.962 162.299 272.131 165.27 272.82C168.021 273.458 173.227 274.119 177.162 271.361C181.455 268.351 182.563 262.231 181.755 257.5L181.767 257.497Z"/>
</mask>
<path d="M21.8878 10.0155C22.8695 10.6357 24.1077 11.2737 25.1277 10.7155C26.1949 10.1336 26.2863 8.66279 26.242 7.4489C26.2332 7.19785 26.2155 6.92612 26.0593 6.72824C25.9384 6.57761 25.7497 6.49786 25.5699 6.42993C25.5699 6.42993 24.3995 6.10504 23.238 6.31178C22.2386 6.48899 21.3395 7.20966 21.0329 8.18137C20.9327 8.5033 20.8944 8.86363 21.0211 9.1767C21.1774 9.55475 21.5429 9.79694 21.8878 10.0126V10.0155ZM32.8014 13.7222C34.0425 14.5905 35.2924 15.45 36.5601 16.277C37.1084 16.6343 37.6833 16.974 38.3289 17.0626C39.0393 17.1601 39.8589 16.8647 40.136 16.2031C40.5045 15.323 39.8383 14.1386 40.478 13.4327C41.1825 12.653 42.8393 13.2644 43.2963 12.3163C43.4643 11.9707 43.367 11.5779 43.3169 11.188C43.2609 10.7539 42.8511 10.4526 42.4296 10.5619C41.8429 10.7155 41.2327 11.1585 40.6165 11.3091C39.5022 11.5838 38.3878 10.8602 37.5683 10.0509C36.1385 8.64507 34.1604 6.99111 32.0496 6.71347C29.6234 6.39449 29.5291 9.39527 30.3398 11.2501C30.8115 12.3281 31.8374 13.0517 32.7955 13.7192L32.8014 13.7222ZM42.3735 5.6118C42.7981 5.6945 43.2491 5.75654 43.6559 5.60886C43.9507 5.49958 44.1984 5.28692 44.4047 5.04769C45.2036 4.10847 45.3687 2.6642 44.7673 1.58321C44.4372 0.830066 43.9301 0.398839 43.5822 0.203907C43.1577 -0.0323748 42.7096 -0.0205507 42.2527 0.0296592C42.0493 0.0532873 41.8459 0.0828225 41.6395 0.103497C40.6814 0.195056 40.0623 0.954099 39.6879 1.78995C39.3341 2.57853 39.3312 3.55025 39.8117 4.26795C40.363 5.09198 41.4037 5.42277 42.3765 5.6118H42.3735ZM63.499 310.377C63.0479 310.846 62.8003 311.469 62.5645 312.078C62.3787 312.559 62.1989 313.126 62.4731 313.563C62.7826 314.057 63.5049 314.08 64.0532 313.888C65.4476 313.401 66.4499 311.839 67.1604 310.545C67.8266 309.331 64.4571 309.381 63.496 310.377H63.499ZM181.767 257.497C180.812 251.888 177.587 246.601 174.745 241.938C170.352 234.734 165.376 226.568 164.061 217.444C163.849 215.979 163.737 214.517 163.628 213.102C163.507 211.537 163.392 210.057 163.156 208.598C162.189 202.626 159.238 197.162 156.114 191.376C152.255 184.229 148.263 176.839 148.357 168.395C148.396 164.99 149.018 161.534 149.619 158.194C150.669 152.366 151.659 146.861 149.613 142.147C148.493 139.566 146.27 137.268 142.615 134.914C141.332 134.09 140.088 133.508 138.773 132.891C136.966 132.046 135.1 131.169 133.169 129.66C132.067 128.797 130.873 128.026 129.605 127.208C128.108 126.242 126.412 125.15 124.641 123.744C121.749 121.452 119.688 118.622 118.512 115.338C117.545 112.633 117.946 108.985 118.335 105.456C118.521 103.769 118.697 102.177 118.665 101.037C118.491 94.6781 118.294 87.4715 120.304 80.7641C120.634 79.6624 120.967 77.6511 121.318 75.5216C121.908 71.9538 122.515 68.2648 123.5 66.218C125.145 62.7949 126.896 59.3511 128.588 56.0195C130.268 52.7116 132.008 49.2914 133.632 45.9155C134.797 43.4936 133.19 40.0528 131.636 36.7271C131.268 35.9356 130.885 35.1175 130.548 34.3289C128.856 30.3416 127.105 26.2156 124.169 23.2C122.094 21.0676 119.367 19.452 116.725 17.8896C113.365 15.8989 109.892 13.8403 106.269 12.4581C104.795 11.894 103.288 11.4391 101.693 10.9547C100.532 10.6033 99.332 10.237 98.144 9.82943C96.2867 9.18852 94.4707 8.44128 92.7137 7.72062C90.8359 6.94975 89.0612 6.22023 87.2245 5.60295C78.242 2.5815 64.9553 2.62875 54.9704 2.88571C54.9645 2.89752 54.9586 2.90934 54.9527 2.9241C54.6225 3.61818 54.2835 4.32997 53.7381 4.87342C53.0335 5.57636 52.0607 5.92783 51.2647 6.51853C49.8821 7.54045 49.1304 9.1767 48.2253 10.6387C47.3203 12.1007 46.032 13.5479 44.3251 13.7192C44.1276 13.7399 43.9065 13.7488 43.768 13.8905C43.5822 14.0766 43.6353 14.3867 43.7149 14.6378C44.4961 17.0921 46.7572 19.006 49.3014 19.3723C50.4304 19.5347 51.6185 19.4225 52.6709 19.8684C54.1774 20.5064 55.0382 22.184 55.1767 23.8173C55.3124 25.4506 54.8554 27.0691 54.3985 28.6434C53.6497 31.2129 52.8744 33.812 51.4829 36.0951C50.0885 38.3781 47.9866 40.3481 45.3953 41.0038C42.3293 41.7806 38.5971 40.3452 37.81 37.0313C37.583 36.0774 37.1025 35.1913 36.3272 34.5976C34.2724 33.0323 32.5537 34.893 31.914 36.674C31.4128 38.068 31.1918 39.6482 30.1599 40.7055C29.1105 41.7806 27.3269 42.203 26.8199 43.6147C26.5103 44.4772 26.7963 45.4725 26.4779 46.332C26.13 47.2712 25.1542 47.8117 24.2138 48.1454C23.0641 48.556 21.8023 48.807 21.0182 49.8437C20.6526 50.3281 20.5023 50.9631 20.7086 51.5331C21.0359 52.4487 21.9615 52.5757 22.7516 52.8415C24.3465 53.3761 25.6554 54.6993 26.1742 56.3001C26.7845 58.1785 26.1359 60.122 25.2928 61.9059C24.4497 63.6898 23.2734 65.3674 22.9403 67.3138C22.6691 68.9087 22.9933 70.5656 22.7074 72.1575C22.2593 74.6592 20.405 76.6351 18.6362 78.4544C16.8291 77.8165 15.4789 76.3102 14.335 74.7714C13.1912 73.2326 12.1476 71.5728 10.6353 70.3943C9.83638 69.7711 8.85764 69.3074 7.86121 69.1361C6.20443 68.8526 4.99869 70.6572 5.88604 72.0867C6.56409 73.1795 7.57525 74.225 8.12064 75.3887C9.2055 77.7072 8.34763 80.4422 7.34236 82.7961C6.59946 84.5328 5.75633 86.2695 4.42973 87.6133C3.507 88.5496 2.37791 89.2614 1.45814 90.2036C0.211128 91.4824 -0.664431 93.3963 0.662173 95.1123C1.09258 95.6705 1.69103 96.0781 2.34843 96.3232C4.36192 97.0705 6.51397 96.4 8.4744 95.8654C9.10527 95.6941 9.78626 95.7443 10.3582 96.0633C11.446 96.6688 11.3045 97.735 11.0686 98.6447C10.6353 100.313 9.81869 102.035 8.27983 102.812C6.26044 103.834 3.30064 103.102 2.11259 105.134C1.64976 105.925 1.64681 106.9 1.98583 107.753C2.69925 109.549 4.30886 110.527 5.67674 111.726C10.8534 116.268 12.2773 123.643 13.3946 130.445C14.7006 138.396 13.6039 146.53 14.4647 154.543C15.2342 161.705 18.4121 168.351 21.5429 174.834C22.6307 177.087 23.7244 179.35 25.1306 181.42C27.0675 184.27 29.5762 186.719 31.292 189.705C32.6304 192.035 33.444 194.622 34.2488 197.186L36.0678 202.981C36.9639 205.831 37.9486 208.832 40.1802 210.816C44.3664 214.544 51.9192 213.832 54.6048 218.755C56.2115 221.703 55.2092 225.289 54.0241 228.481C53.29 230.457 54.0653 233.113 55.787 234.326C57.3553 235.431 59.3894 235.771 61.288 235.49C62.4642 235.316 63.611 234.92 64.799 234.902C65.9871 234.888 67.296 235.369 67.7913 236.45C68.5076 238.018 67.2813 240.195 68.4605 241.453C68.8201 241.837 69.3272 242.029 69.7782 242.295C71.0429 243.045 71.8861 244.581 71.5618 246.016C71.0223 248.406 68.0301 249.132 66.2111 250.772C64.5013 252.313 63.8704 255.051 65.0084 257.057C66.845 260.294 72.1248 260.625 73.3217 264.148C73.7639 265.451 73.5016 266.874 73.2333 268.221C72.7027 270.897 72.1661 273.596 71.1225 276.119C70.6155 277.347 69.9846 278.547 69.7782 279.858C69.563 281.234 69.8283 282.637 70.0937 284.005C70.4533 285.856 70.813 287.708 71.1697 289.563C71.3731 290.615 71.5972 291.707 72.2575 292.546C73.1773 293.713 74.7191 294.132 76.0339 294.823C77.7762 295.739 79.1676 297.186 80.624 298.533C84.7777 293.595 89.1761 288.76 93.5244 285.759C99.3674 281.724 106.003 280.13 111.728 281.388C113.718 281.825 115.643 282.578 117.504 283.308C121.097 284.716 124.201 285.933 126.908 284.74C129.576 283.565 130.888 280.36 132.279 276.966C132.801 275.693 133.34 274.376 133.968 273.13C135.035 271.015 136.262 269.462 137.712 268.386C141.147 265.843 145.996 265.708 152.125 267.985C153.599 268.534 155.061 269.137 156.473 269.721C159.468 270.962 162.299 272.131 165.27 272.82C168.021 273.458 173.227 274.119 177.162 271.361C181.455 268.351 182.563 262.231 181.755 257.5L181.767 257.497Z" fill="#1A203A" stroke="#333757" stroke-width="2" mask="url(#path-1-inside-1_908_21815)"/>
</svg>
