<svg width="15" height="15" viewBox="0 0 15 15" fill="none" xmlns="http://www.w3.org/2000/svg">
<rect x="2.5" y="3.5" width="10" height="9" rx="1.5" stroke="#9C7BFF"/>
<rect width="1" height="3" rx="0.5" transform="matrix(-1 0 0 1 6 2)" fill="#9C7BFF"/>
<rect width="9" height="1" transform="matrix(-1 0 0 1 12 6)" fill="#9C7BFF"/>
<rect width="1" height="1" transform="matrix(-1 0 0 1 10 8)" fill="#9C7BFF"/>
<rect opacity="0.5" width="1" height="1" transform="matrix(-1 0 0 1 10 10)" fill="#9C7BFF"/>
<rect width="1" height="1" transform="matrix(-1 0 0 1 8 8)" fill="#9C7BFF"/>
<rect width="1" height="1" transform="matrix(-1 0 0 1 8 10)" fill="#9C7BFF"/>
<rect opacity="0.5" width="1" height="1" transform="matrix(-1 0 0 1 6 8)" fill="#9C7BFF"/>
<rect width="1" height="1" transform="matrix(-1 0 0 1 6 10)" fill="#9C7BFF"/>
<rect width="1" height="3" rx="0.5" transform="matrix(-1 0 0 1 10 2)" fill="#9C7BFF"/>
</svg>
