<svg width="26" height="26" viewBox="0 0 26 26" fill="none" xmlns="http://www.w3.org/2000/svg">
<rect width="26" height="26" rx="13" fill="url(#paint0_linear_5910_44265)"/>
<path fill-rule="evenodd" clip-rule="evenodd" d="M12.5199 8C12.1806 8 11.8929 8.2495 11.8449 8.58539L11.7463 9.27571C11.5762 9.33296 11.4112 9.40154 11.2524 9.48056L10.6938 9.06159C10.4223 8.85801 10.0425 8.885 9.80257 9.12493L9.12362 9.80388C8.8837 10.0438 8.8567 10.4236 9.06029 10.6951L9.47965 11.2542C9.40106 11.4124 9.33281 11.5767 9.27579 11.7461L8.58539 11.8447C8.2495 11.8927 8 12.1804 8 12.5197V13.4798C8 13.8192 8.2495 14.1068 8.58539 14.1548L9.27562 14.2534C9.33264 14.4229 9.40092 14.5873 9.47955 14.7455L9.06014 15.3048C8.85655 15.5762 8.88355 15.956 9.12347 16.196L9.80243 16.8749C10.0424 17.1148 10.4222 17.1418 10.6936 16.9383L11.2522 16.5193C11.4111 16.5984 11.5761 16.667 11.7463 16.7243L11.8449 17.4146C11.8929 17.7505 12.1806 18 12.5199 18H13.4801C13.8194 18 14.1071 17.7505 14.1551 17.4146L14.2537 16.7243C14.4238 16.6671 14.5887 16.5985 14.7475 16.5195L15.3057 16.9382C15.5772 17.1417 15.957 17.1148 16.1969 16.8748L16.8759 16.1959C17.1158 15.9559 17.1428 15.5761 16.9392 15.3047L16.5202 14.746C16.5989 14.5877 16.6672 14.4233 16.7243 14.2537L17.4146 14.1551C17.7505 14.1071 18 13.8194 18 13.4801V12.5199C18 12.1806 17.7505 11.8929 17.4146 11.8449L16.7243 11.7463C16.6673 11.5769 16.599 11.4127 16.5205 11.2545L16.9399 10.6952C17.1434 10.4238 17.1165 10.044 16.8765 9.80403L16.1976 9.12508C15.9576 8.88515 15.5778 8.85816 15.3064 9.06174L14.7478 9.48067C14.5889 9.4016 14.4239 9.33298 14.2537 9.27571L14.1551 8.58539C14.1071 8.2495 13.8194 8 13.4801 8H12.5199ZM13 11.2143C12.0138 11.2143 11.2143 12.0138 11.2143 13C11.2143 13.9862 12.0138 14.7857 13 14.7857C13.9862 14.7857 14.7857 13.9862 14.7857 13C14.7857 12.0138 13.9862 11.2143 13 11.2143Z" fill="white"/>
<path d="M19.6153 8.5C20.4892 9.78211 21 11.3314 21 13C21 16.5452 18.6939 19.5518 15.5 20.6016" stroke="url(#paint1_linear_5910_44265)"/>
<path d="M15.5 20.6016C14.7135 20.8601 13.8731 21 13 21C8.58172 21 5 17.4183 5 13C5 12.1269 5.13985 11.2865 5.39838 10.5" stroke="url(#paint2_linear_5910_44265)"/>
<path d="M5.39844 10.5C6.44823 7.30607 9.45484 5 13.0001 5C15.7497 5 18.1754 6.38723 19.6154 8.5" stroke="url(#paint3_linear_5910_44265)"/>
<circle cx="19.5" cy="8.5" r="1.5" fill="white"/>
<circle cx="15.5" cy="20.5" r="1.5" fill="white"/>
<circle cx="5.5" cy="10.5" r="1.5" fill="white"/>
<defs>
<linearGradient id="paint0_linear_5910_44265" x1="12.9065" y1="-5.8503e-06" x2="12.9065" y2="26" gradientUnits="userSpaceOnUse">
<stop stop-color="#7F7AFF"/>
<stop offset="1" stop-color="#681CEB"/>
</linearGradient>
<linearGradient id="paint1_linear_5910_44265" x1="21" y1="9" x2="16.5" y2="20" gradientUnits="userSpaceOnUse">
<stop stop-color="white"/>
<stop offset="1" stop-color="white" stop-opacity="0"/>
</linearGradient>
<linearGradient id="paint2_linear_5910_44265" x1="16.5" y1="22.5" x2="5" y2="11.5" gradientUnits="userSpaceOnUse">
<stop stop-color="white"/>
<stop offset="1" stop-color="white" stop-opacity="0"/>
</linearGradient>
<linearGradient id="paint3_linear_5910_44265" x1="4.5" y1="10" x2="19" y2="6.5" gradientUnits="userSpaceOnUse">
<stop stop-color="white"/>
<stop offset="1" stop-color="white" stop-opacity="0"/>
</linearGradient>
</defs>
</svg>
