<svg width="22" height="22" viewBox="0 0 22 22" fill="none" xmlns="http://www.w3.org/2000/svg">
<rect opacity="0.19" width="22" height="22" rx="5" fill="#9C7BFF"/>
<path fill-rule="evenodd" clip-rule="evenodd" d="M8.17719 10.6047C8.19191 10.6047 8.2065 10.6041 8.22092 10.6029C8.32933 10.912 8.62367 11.1336 8.96977 11.1336C9.40793 11.1336 9.76314 10.7784 9.76314 10.3402C9.76314 9.90208 9.40793 9.54688 8.96977 9.54688C8.80657 9.54688 8.65488 9.59615 8.52877 9.68063C8.43532 9.59743 8.31216 9.54688 8.17719 9.54688C7.88508 9.54688 7.64828 9.78368 7.64828 10.0758C7.64828 10.3679 7.88508 10.6047 8.17719 10.6047ZM8.70531 15.1016C8.70531 15.0525 8.69863 15.005 8.68613 14.9599C8.65953 14.641 8.59536 14.156 8.44049 13.5692C8.35951 13.2624 8.39105 12.9193 8.44966 12.5903L8.77475 12.9153C8.82555 12.9661 8.88749 13.0044 8.95565 13.0271L10.1457 13.4238C10.1644 13.4301 10.1833 13.435 10.2021 13.4388C10.3467 13.4868 10.5119 13.4625 10.6392 13.3597L11.5038 12.6612L10.8673 14.0934C10.7912 14.2646 10.8114 14.4632 10.9202 14.6157L12.1152 16.2886L11.8867 17.6592C11.8387 17.9473 12.0334 18.2198 12.3215 18.2679C12.6096 18.3159 12.8821 18.1212 12.9302 17.8331L13.1946 16.2464C13.2177 16.108 13.1848 15.9661 13.1033 15.852L11.9567 14.2468L12.6559 12.6736L13.9906 13.627C14.0477 13.6677 14.1108 13.6937 14.1754 13.7056C14.1407 13.8297 14.1274 13.9473 14.1274 14.0434V17.7457C14.1274 17.9648 14.305 18.1424 14.5241 18.1424C14.7431 18.1424 14.9207 17.9648 14.9207 17.7457V14.0434C14.9207 13.9746 14.9446 13.8627 15.0047 13.7793C15.0501 13.7162 15.1294 13.6467 15.3174 13.6467C15.5055 13.6467 15.5847 13.7162 15.6302 13.7793C15.6902 13.8627 15.7141 13.9746 15.7141 14.0434C15.7141 14.2624 15.8917 14.4401 16.1108 14.4401C16.3299 14.4401 16.5075 14.2624 16.5075 14.0434C16.5075 13.8477 16.452 13.5629 16.274 13.3157C16.0815 13.0483 15.7641 12.8533 15.3174 12.8533C15.0564 12.8533 14.8396 12.9199 14.6659 13.0286C14.6335 12.9691 14.5875 12.9158 14.5286 12.8738L12.976 11.7648C12.9767 11.7096 12.9674 11.6534 12.9471 11.5985C12.8582 11.3588 12.5919 11.2366 12.3522 11.3254L11.1891 11.7567C11.142 11.7741 11.0981 11.7991 11.0591 11.8306L10.2511 12.4833L9.35199 12.1836L8.62443 11.456C8.60821 11.3277 8.55467 11.2342 8.44049 11.1891C7.84913 10.956 7.38266 11.7181 6.85375 12.72C6.32484 13.7219 6.32484 15.0119 6.32484 15.3645H7.64749V17.7461C7.64749 18.0382 7.88429 18.275 8.1764 18.275C8.46851 18.275 8.70531 18.0382 8.70531 17.7461V15.1016ZM6.07795 15.866L7.13176 15.8727L6.0672 17.7731C5.94165 17.9973 5.65747 18.0761 5.43437 17.9487C5.21366 17.8227 5.13603 17.5421 5.26055 17.3206L6.07795 15.866ZM13.9952 10.3402C13.9952 10.7784 13.64 11.1336 13.2018 11.1336C12.7636 11.1336 12.4084 10.7784 12.4084 10.3402C12.4084 9.90208 12.7636 9.54688 13.2018 9.54688C13.64 9.54688 13.9952 9.90208 13.9952 10.3402ZM11.1521 16.1574L10.6123 15.3641L9.46628 17.3709C9.33871 17.5943 9.41638 17.8788 9.63976 18.0063C9.86111 18.1327 10.143 18.0577 10.2722 17.838L11.1514 16.3437C11.1852 16.2862 11.1854 16.2151 11.1521 16.1574Z" fill="#9C7BFF"/>
<path fill-rule="evenodd" clip-rule="evenodd" d="M5 8.94468V10.349L10.818 5.13287L16.6361 10.349V8.94468L15.1943 7.65204V4.96186H15.5789V4.25664H13.4633V4.96186H13.8479V6.44499L10.818 3.72852L5 8.94468Z" fill="#9C7BFF"/>
</svg>
