<svg width="18" height="18" viewBox="0 0 18 18" fill="none" xmlns="http://www.w3.org/2000/svg">
<path fill-rule="evenodd" clip-rule="evenodd" d="M3.75 4C3.33579 4 3 4.33579 3 4.75V10C2.44772 10 2 10.4477 2 11V13C2 13.5523 2.44772 14 3 14H15C15.5523 14 16 13.5523 16 13V11C16 10.4477 15.5523 10 15 10H4.5V4.75C4.5 4.33579 4.16421 4 3.75 4ZM3.75 11H3.5C3.22386 11 3 11.2239 3 11.5V12.5C3 12.7761 3.22386 13 3.5 13H7.5C7.77614 13 8 12.7761 8 12.5V11.5C8 11.2239 7.77614 11 7.5 11H3.75ZM11 13C11.5523 13 12 12.5523 12 12C12 11.4477 11.5523 11 11 11C10.4477 11 10 11.4477 10 12C10 12.5523 10.4477 13 11 13ZM15 12C15 12.5523 14.5523 13 14 13C13.4477 13 13 12.5523 13 12C13 11.4477 13.4477 11 14 11C14.5523 11 15 11.4477 15 12ZM16 4H14C14 5.6 15.3333 6 16 6V4ZM11 4H12.5C12.5 6 14 7.5 16 7.5V9C13 9 11 7 11 4Z" fill="url(#paint0_linear_1951_15113)"/>
<defs>
<linearGradient id="paint0_linear_1951_15113" x1="3.96875" y1="5.40625" x2="10.7677" y2="14.9248" gradientUnits="userSpaceOnUse">
<stop stop-color="#FFF599"/>
<stop offset="1" stop-color="#22990F"/>
</linearGradient>
</defs>
</svg>
