<svg width="58" height="64" viewBox="0 0 58 64" fill="none" xmlns="http://www.w3.org/2000/svg">
<g filter="url(#filter0_d_7649_61730)">
<path d="M45.7056 33.2198C46.4397 33.5164 47.2752 33.1618 47.5718 32.4277C50.6157 24.8939 46.9759 16.3191 39.4421 13.2753C38.708 12.9787 37.8725 13.3334 37.5759 14.0675C37.2793 14.8016 37.634 15.6371 38.3681 15.9337C44.4336 18.3844 47.364 25.2881 44.9134 31.3536C44.6168 32.0877 44.9715 32.9232 45.7056 33.2198Z" fill="url(#paint0_linear_7649_61730)" fill-opacity="0.08" shape-rendering="crispEdges"/>
<path d="M40.025 30.9247C40.7591 31.2213 41.5946 30.8666 41.8912 30.1325C43.6671 25.7371 41.5435 20.7343 37.1481 18.9584C36.414 18.6618 35.5784 19.0165 35.2818 19.7506C34.9852 20.4847 35.3399 21.3202 36.074 21.6168C39.0012 22.7995 40.4155 26.1312 39.2328 29.0585C38.9362 29.7926 39.2909 30.6281 40.025 30.9247Z" fill="url(#paint1_linear_7649_61730)" fill-opacity="0.08" shape-rendering="crispEdges"/>
<path fill-rule="evenodd" clip-rule="evenodd" d="M6.67209 37.7672L11.0191 34.8743L14.4234 26.4486C16.3323 21.7238 21.323 19.1686 26.1422 20.164C26.16 20.11 26.1797 20.0563 26.2013 20.0028C26.7385 18.6733 28.2484 18.0296 29.5739 18.5651C30.8993 19.1006 31.5384 20.6126 31.0012 21.9421C30.9796 21.9956 30.9564 22.0481 30.9316 22.0994C35.0888 24.7314 36.9032 30.0356 34.9945 34.7599L31.5903 43.1856L32.7077 48.2863C32.9475 49.3809 31.8631 50.2966 30.8241 49.8769L23.6915 46.9951C22.6142 49.6567 19.5868 50.9508 16.9232 49.8746C14.2596 48.7985 12.9808 45.7645 14.0547 43.1016L6.92215 40.2198C5.88318 39.8001 5.73921 38.388 6.67209 37.7672ZM28.849 42.9544L29.6397 46.5637L10.0757 38.6593L13.1517 36.6122L16.8602 27.4332C18.4652 23.4609 22.9864 21.5417 26.9587 23.1466L28.271 23.6769C32.2433 25.2818 34.1625 29.803 32.5576 33.7753L28.849 42.9544ZM16.4916 44.0862C15.9586 45.4103 16.597 46.9082 17.9077 47.4378C19.2184 47.9673 20.7182 47.3333 21.2546 46.0105L16.4916 44.0862Z" fill="url(#paint2_linear_7649_61730)" fill-opacity="0.08" shape-rendering="crispEdges"/>
</g>
<path d="M46.1292 33.807C46.2613 33.939 46.4214 34.0472 46.6055 34.1216C47.3396 34.4182 48.1751 34.0635 48.4717 33.3294C50.7525 27.6842 49.2806 21.4544 45.2295 17.4052C43.8743 16.0506 42.2305 14.94 40.342 14.177C39.6079 13.8804 38.7724 14.2351 38.4758 14.9692C38.2535 15.5193 38.3969 16.1263 38.7917 16.5209C38.9237 16.6529 39.0839 16.7611 39.2679 16.8355C40.7902 17.4505 42.1149 18.3459 43.2067 19.4383C46.4654 22.6984 47.6489 27.712 45.8133 32.2553C45.591 32.8054 45.7345 33.4124 46.1292 33.807Z" fill="#FFAEC9"/>
<path d="M40.4486 31.5119C40.5806 31.6439 40.7408 31.7521 40.9248 31.8264C41.6589 32.123 42.4945 31.7684 42.7911 31.0343C44.1218 27.7407 43.263 24.106 40.8995 21.7435C40.1088 20.9532 39.1498 20.3053 38.0479 19.8601C37.3138 19.5635 36.4783 19.9182 36.1817 20.6523C35.9594 21.2024 36.1029 21.8094 36.4976 22.204C36.6297 22.336 36.7898 22.4442 36.9739 22.5185C37.7085 22.8153 38.3478 23.2475 38.8747 23.7747C40.4474 25.348 41.0185 27.7676 40.1327 29.9602C39.9104 30.5103 40.0538 31.1173 40.4486 31.5119Z" fill="#FFAEC9"/>
<path fill-rule="evenodd" clip-rule="evenodd" d="M7.35473 40.8146C6.76586 40.2259 6.80452 39.1797 7.57197 38.669L11.919 35.7761L15.3232 27.3504C17.2322 22.6256 22.2229 20.0704 27.042 21.0657C27.0599 21.0118 27.0796 20.958 27.1012 20.9045C27.6383 19.575 29.1483 18.9313 30.4738 19.4668C30.8055 19.6008 31.0942 19.796 31.3322 20.0342C32.0454 20.7477 32.3038 21.847 31.9011 22.8438C31.8795 22.8974 31.8562 22.9498 31.8315 23.0011C32.4833 23.4138 33.0775 23.8921 33.6087 24.4236C36.4661 27.282 37.5038 31.678 35.8943 35.6616L32.4901 44.0873L33.6076 49.188C33.8474 50.2826 32.7629 51.1984 31.724 50.7786L24.5914 47.8968C23.514 50.5584 20.4866 51.8525 17.823 50.7764C17.157 50.5073 16.5775 50.1158 16.0998 49.6382C14.667 48.2061 14.1492 46.0004 14.9546 44.0033L7.82203 41.1216C7.63778 41.0471 7.48168 40.9415 7.35473 40.8146ZM29.7489 43.8561L30.5396 47.4654L10.9755 39.561L14.0515 37.514L17.7601 28.3349C19.365 24.3626 23.8863 22.4435 27.8586 24.0484L29.1709 24.5786C30.1678 24.9814 31.0354 25.5678 31.7504 26.2832C33.8845 28.4183 34.6596 31.7016 33.4575 34.6771L29.7489 43.8561ZM17.3915 44.9879C16.992 45.9803 17.2506 47.0704 17.9571 47.7772C18.1932 48.0134 18.4793 48.2068 18.8076 48.3395C20.1183 48.869 21.6181 48.235 22.1545 46.9123L17.3915 44.9879Z" fill="#FFAEC9"/>
<path d="M10.0186 33.8749L13.4228 25.4492L15.3235 27.3499L11.9193 35.7756L10.0186 33.8749Z" fill="url(#paint3_linear_7649_61730)"/>
<path d="M13.4219 25.451C15.3308 20.7262 20.3215 18.171 25.1407 19.1664L27.0414 21.0671C22.2222 20.0717 17.2315 22.6269 15.3226 27.3517L13.4219 25.451Z" fill="url(#paint4_linear_7649_61730)"/>
<path d="M5.67139 36.7679L10.0184 33.875L11.9191 35.7757L7.57209 38.6686L5.67139 36.7679Z" fill="url(#paint5_linear_7649_61730)"/>
<path d="M5.45385 38.9152C4.86498 38.3264 4.90365 37.2802 5.67109 36.7695L7.57179 38.6702C6.80446 39.1809 6.7657 40.2268 7.35429 40.8156L5.45385 38.9152Z" fill="url(#paint6_linear_7649_61730)"/>
<path d="M25.1416 19.1651C25.1594 19.1111 25.1791 19.0574 25.2007 19.0039L27.1014 20.9046C27.0798 20.9581 27.0601 21.0118 27.0423 21.0658L25.1416 19.1651Z" fill="url(#paint7_linear_7649_61730)"/>
<path d="M5.9214 39.2211C5.73715 39.1466 5.58104 39.041 5.4541 38.9141L7.3548 40.8148C7.48175 40.9417 7.63785 41.0473 7.8221 41.1218L5.9214 39.2211Z" fill="url(#paint8_linear_7649_61730)"/>
<path d="M12.1514 35.6146L15.8599 26.4355L17.7607 28.3363L14.0521 37.5153L12.1514 35.6146Z" fill="url(#paint9_linear_7649_61730)"/>
<path d="M25.2007 19.0052C25.7379 17.6757 27.2478 17.032 28.5733 17.5675L30.474 19.4682C29.1485 18.9327 27.6386 19.5764 27.1014 20.9059L25.2007 19.0052Z" fill="url(#paint10_linear_7649_61730)"/>
<path d="M15.8591 26.4355C17.464 22.4632 21.9853 20.544 25.9576 22.1489L27.8583 24.0497C23.886 22.4447 19.3648 24.3639 17.7598 28.3362L15.8591 26.4355Z" fill="url(#paint11_linear_7649_61730)"/>
<path d="M28.5737 17.5664C28.9054 17.7004 29.1942 17.8956 29.4322 18.1337L31.3321 20.0336C31.0942 19.7958 30.8058 19.601 30.4744 19.4671L28.5737 17.5664Z" fill="url(#paint12_linear_7649_61730)"/>
<path d="M9.07422 37.6603L12.1502 35.6133L14.0509 37.514L10.9749 39.561L9.07422 37.6603Z" fill="url(#paint13_linear_7649_61730)"/>
<path d="M25.9575 22.1484L27.2699 22.6787L29.1706 24.5794L27.8582 24.0491L25.9575 22.1484Z" fill="url(#paint14_linear_7649_61730)"/>
<path d="M29.4312 18.1348C30.1443 18.8483 30.4028 19.9476 30 20.9444L31.9007 22.8451C32.3035 21.8483 32.045 20.749 31.3319 20.0355L29.4312 18.1348Z" fill="url(#paint15_linear_7649_61730)"/>
<path d="M13.0535 42.1025L5.9209 39.2207L7.8216 41.1214L14.9542 44.0032L13.0535 42.1025Z" fill="url(#paint16_linear_7649_61730)"/>
<path d="M38.4405 12.2766C37.7064 11.98 36.8708 12.3347 36.5742 13.0688L38.4749 14.9695C38.7715 14.2354 39.6071 13.8808 40.3412 14.1773L38.4405 12.2766Z" fill="url(#paint17_linear_7649_61730)"/>
<path d="M36.5752 13.0684C36.353 13.6184 36.4964 14.2255 36.8912 14.62L38.7914 16.5203C38.397 16.1257 38.2538 15.5189 38.4759 14.9691L36.5752 13.0684Z" fill="url(#paint18_linear_7649_61730)"/>
<path d="M29.9995 20.9434C29.9779 20.9969 29.9547 21.0494 29.9299 21.1007L31.8306 23.0014C31.8554 22.9501 31.8786 22.8976 31.9002 22.8441L29.9995 20.9434Z" fill="url(#paint19_linear_7649_61730)"/>
<path d="M36.8906 14.6211C37.0227 14.7531 37.1829 14.8613 37.3669 14.9357L39.2676 16.8364C39.0836 16.762 38.9234 16.6538 38.7913 16.5218L36.8906 14.6211Z" fill="url(#paint20_linear_7649_61730)"/>
<path d="M27.27 22.6777C28.2669 23.0805 29.1345 23.667 29.8495 24.3823L31.7477 26.2805C31.0332 25.5663 30.1665 24.9807 29.1707 24.5784L27.27 22.6777Z" fill="url(#paint21_linear_7649_61730)"/>
<path d="M29.9299 21.1016C30.5817 21.5142 31.1759 21.9925 31.7071 22.524L33.605 24.4218C33.0744 23.8915 32.4812 23.4142 31.8306 23.0023L29.9299 21.1016Z" fill="url(#paint22_linear_7649_61730)"/>
<path d="M36.147 17.9602C35.4129 17.6636 34.5774 18.0183 34.2808 18.7524L36.1815 20.6531C36.4781 19.919 37.3136 19.5643 38.0477 19.8609L36.147 17.9602Z" fill="url(#paint23_linear_7649_61730)"/>
<path d="M34.2806 18.752C34.0583 19.302 34.2017 19.9091 34.5965 20.3036L36.4967 22.2039C36.1023 21.8093 35.9591 21.2025 36.1813 20.6527L34.2806 18.752Z" fill="url(#paint24_linear_7649_61730)"/>
<path d="M43.3282 15.5055C41.973 14.1509 40.3292 13.0404 38.4407 12.2773L40.3414 14.178C42.2299 14.9411 43.8737 16.0516 45.2289 17.4062L43.3282 15.5055Z" fill="url(#paint25_linear_7649_61730)"/>
<path d="M34.5959 20.3027C34.728 20.4347 34.8882 20.5429 35.0722 20.6173L36.9729 22.518C36.7889 22.4436 36.6287 22.3354 36.4967 22.2034L34.5959 20.3027Z" fill="url(#paint26_linear_7649_61730)"/>
<path d="M37.3674 14.9355C38.8896 15.5506 40.2144 16.446 41.3062 17.5383L43.2031 19.4353C42.112 18.3447 40.7886 17.4506 39.2681 16.8363L37.3674 14.9355Z" fill="url(#paint27_linear_7649_61730)"/>
<path d="M38.9993 19.8444C38.2086 19.054 37.2495 18.4061 36.1477 17.9609L38.0484 19.8616C39.1502 20.3068 40.1093 20.9547 40.9 21.7451L38.9993 19.8444Z" fill="url(#paint28_linear_7649_61730)"/>
<path d="M35.0728 20.6191C35.8074 20.9159 36.4467 21.3481 36.9736 21.8753L38.8725 23.7741C38.3459 23.2478 37.7072 22.8163 36.9735 22.5198L35.0728 20.6191Z" fill="url(#paint29_linear_7649_61730)"/>
<path d="M13.0536 42.1035C12.2483 44.1006 12.7661 46.3063 14.1988 47.7384L16.0979 49.6375C14.6664 48.2053 14.1493 46.0005 14.9543 44.0042L13.0536 42.1035Z" fill="url(#paint30_linear_7649_61730)"/>
<path d="M29.8491 24.3828C31.9832 26.5179 32.7583 29.8013 31.5562 32.7767L33.4569 34.6774C34.659 31.702 33.8839 28.4186 31.7498 26.2835L29.8491 24.3828Z" fill="url(#paint31_linear_7649_61730)"/>
<path d="M16.0561 45.8772C15.3496 45.1704 15.091 44.0803 15.4905 43.0879L17.3912 44.9886C16.9917 45.9811 17.2503 47.0711 17.9568 47.7779L16.0561 45.8772Z" fill="url(#paint32_linear_7649_61730)"/>
<path d="M28.6383 45.5645L9.07422 37.6602L10.9749 39.5609L30.539 47.4652L28.6383 45.5645Z" fill="url(#paint33_linear_7649_61730)"/>
<path d="M31.7075 22.5234C34.5649 25.3819 35.6026 29.7779 33.9931 33.7615L35.8938 35.6622C37.5033 31.6786 36.4656 27.2826 33.6082 24.4241L31.7075 22.5234Z" fill="url(#paint34_linear_7649_61730)"/>
<path d="M20.2532 45.0123L15.4902 43.0879L17.3909 44.9886L22.1539 46.913L20.2532 45.0123Z" fill="url(#paint35_linear_7649_61730)"/>
<path d="M36.9736 21.875C38.5463 23.4484 39.1174 25.8679 38.2316 28.0605L40.1323 29.9612C41.0181 27.7686 40.447 25.3491 38.8743 23.7757L36.9736 21.875Z" fill="url(#paint36_linear_7649_61730)"/>
<path d="M16.9065 46.4392C16.5785 46.3067 16.2927 46.1136 16.0567 45.8778L17.9566 47.7777C18.1927 48.0139 18.4788 48.2073 18.8072 48.3399L16.9065 46.4392Z" fill="url(#paint37_linear_7649_61730)"/>
<path d="M14.1987 47.7383C14.6765 48.2158 15.2559 48.6073 15.922 48.8764L17.8227 50.7771C17.1566 50.508 16.5772 50.1165 16.0994 49.639L14.1987 47.7383Z" fill="url(#paint38_linear_7649_61730)"/>
<path d="M20.2534 45.0117C19.717 46.3345 18.2172 46.9685 16.9065 46.4389L18.8072 48.3396C20.1179 48.8692 21.6177 48.2352 22.1541 46.9124L20.2534 45.0117Z" fill="url(#paint39_linear_7649_61730)"/>
<path d="M40.8901 29.1345C42.2203 25.8421 41.3627 22.209 39.0012 19.8464L40.8992 21.7445C43.2627 24.1069 44.1215 27.7416 42.7908 31.0352L40.8901 29.1345Z" fill="url(#paint40_linear_7649_61730)"/>
<path d="M41.3059 17.5371C44.5646 20.7973 45.7481 25.8109 43.9125 30.3542L45.8132 32.2549C47.6488 27.7116 46.4653 22.698 43.2066 19.4378L41.3059 17.5371Z" fill="url(#paint41_linear_7649_61730)"/>
<path d="M15.9221 48.8756C18.5857 49.9518 21.6131 48.6577 22.6905 45.9961L24.5912 47.8968C23.5138 50.5584 20.4864 51.8525 17.8228 50.7763L15.9221 48.8756Z" fill="url(#paint42_linear_7649_61730)"/>
<path d="M31.556 32.7773L27.8474 41.9564L29.7481 43.8571L33.4567 34.678L31.556 32.7773Z" fill="url(#paint43_linear_7649_61730)"/>
<path d="M38.2312 28.0605C38.009 28.6106 38.1524 29.2177 38.5472 29.6122L40.4474 31.5125C40.053 31.1179 39.9098 30.5111 40.1319 29.9612L38.2312 28.0605Z" fill="url(#paint44_linear_7649_61730)"/>
<path d="M46.5705 31.4301C48.8505 25.787 47.3805 19.5598 43.333 15.5105L45.2291 17.4066C49.2801 21.4558 50.752 27.6855 48.4712 33.3308L46.5705 31.4301Z" fill="url(#paint45_linear_7649_61730)"/>
<path d="M38.5486 29.6113C38.6806 29.7433 38.8408 29.8515 39.0248 29.9259L40.9255 31.8266C40.7415 31.7522 40.5813 31.644 40.4493 31.512L38.5486 29.6113Z" fill="url(#paint46_linear_7649_61730)"/>
<path d="M39.0234 29.9269C39.7575 30.2235 40.5931 29.8689 40.8897 29.1348L42.7904 31.0355C42.4938 31.7696 41.6582 32.1242 40.9241 31.8276L39.0234 29.9269Z" fill="url(#paint47_linear_7649_61730)"/>
<path d="M33.9936 33.7617L30.5894 42.1874L32.4901 44.0881L35.8943 35.6624L33.9936 33.7617Z" fill="url(#paint48_linear_7649_61730)"/>
<path d="M27.8474 41.9551L28.6381 45.5644L30.5388 47.4651L29.7481 43.8558L27.8474 41.9551Z" fill="url(#paint49_linear_7649_61730)"/>
<path d="M29.8233 48.8778L22.6907 45.9961L24.5914 47.8968L31.724 50.7785L29.8233 48.8778Z" fill="url(#paint50_linear_7649_61730)"/>
<path d="M43.9121 30.3555C43.6899 30.9056 43.8333 31.5126 44.2281 31.9072L46.1283 33.8074C45.7339 33.4128 45.5907 32.806 45.8128 32.2562L43.9121 30.3555Z" fill="url(#paint51_linear_7649_61730)"/>
<path d="M30.5894 42.1875L31.7068 47.2882L33.6075 49.1889L32.4901 44.0882L30.5894 42.1875Z" fill="url(#paint52_linear_7649_61730)"/>
<path d="M44.2288 31.9062C44.3608 32.0382 44.521 32.1465 44.705 32.2208L46.6057 34.1215C46.4217 34.0472 46.2615 33.9389 46.1295 33.807L44.2288 31.9062Z" fill="url(#paint53_linear_7649_61730)"/>
<path d="M44.7051 32.2219C45.4392 32.5185 46.2747 32.1638 46.5713 31.4297L48.472 33.3304C48.1754 34.0645 47.3399 34.4192 46.6058 34.1226L44.7051 32.2219Z" fill="url(#paint54_linear_7649_61730)"/>
<path d="M31.7064 47.2871C31.9462 48.3817 30.8617 49.2974 29.8228 48.8777L31.7235 50.7784C32.7624 51.1981 33.8469 50.2824 33.6071 49.1878L31.7064 47.2871Z" fill="url(#paint55_linear_7649_61730)"/>
<path d="M44.7056 32.2198C45.4397 32.5164 46.2752 32.1618 46.5718 31.4277C49.6157 23.8939 45.9759 15.3191 38.4421 12.2753C37.708 11.9787 36.8725 12.3334 36.5759 13.0675C36.2793 13.8016 36.634 14.6371 37.3681 14.9337C43.4336 17.3844 46.364 24.2881 43.9134 30.3536C43.6168 31.0877 43.9715 31.9232 44.7056 32.2198Z" fill="url(#paint56_linear_7649_61730)"/>
<path d="M39.025 29.9247C39.7591 30.2213 40.5946 29.8666 40.8912 29.1325C42.6671 24.7371 40.5435 19.7343 36.1481 17.9584C35.414 17.6618 34.5784 18.0165 34.2818 18.7506C33.9852 19.4847 34.3399 20.3202 35.074 20.6168C38.0012 21.7995 39.4155 25.1312 38.2328 28.0585C37.9362 28.7926 38.2909 29.6281 39.025 29.9247Z" fill="url(#paint57_linear_7649_61730)"/>
<path fill-rule="evenodd" clip-rule="evenodd" d="M5.67209 36.7672L10.0191 33.8743L13.4234 25.4486C15.3323 20.7238 20.323 18.1686 25.1422 19.164C25.16 19.11 25.1797 19.0563 25.2013 19.0028C25.7385 17.6733 27.2484 17.0296 28.5739 17.5651C29.8993 18.1006 30.5384 19.6126 30.0012 20.9421C29.9796 20.9956 29.9564 21.0481 29.9316 21.0994C34.0888 23.7314 35.9032 29.0356 33.9945 33.7599L30.5903 42.1856L31.7077 47.2863C31.9475 48.3809 30.8631 49.2966 29.8241 48.8769L22.6915 45.9951C21.6142 48.6567 18.5868 49.9508 15.9232 48.8746C13.2596 47.7985 11.9808 44.7645 13.0547 42.1016L5.92215 39.2198C4.88318 38.8001 4.73921 37.388 5.67209 36.7672ZM27.849 41.9544L28.6397 45.5637L9.07566 37.6593L12.1517 35.6122L15.8602 26.4332C17.4652 22.4609 21.9864 20.5417 25.9587 22.1466L27.271 22.6769C31.2433 24.2818 33.1625 28.803 31.5576 32.7753L27.849 41.9544ZM15.4916 43.0862C14.9586 44.4103 15.597 45.9082 16.9077 46.4378C18.2184 46.9673 19.7182 46.3333 20.2546 45.0105L15.4916 43.0862Z" fill="url(#paint58_linear_7649_61730)"/>
<g opacity="0.75">
<path d="M44.7056 32.2198C45.4397 32.5164 46.2752 32.1618 46.5718 31.4277C49.6157 23.8939 45.9759 15.3191 38.4421 12.2753C37.708 11.9787 36.8725 12.3334 36.5759 13.0675C36.2793 13.8016 36.634 14.6371 37.3681 14.9337C43.4336 17.3844 46.364 24.2881 43.9134 30.3536C43.6168 31.0877 43.9715 31.9232 44.7056 32.2198Z" fill="url(#paint59_radial_7649_61730)"/>
<path d="M39.025 29.9247C39.7591 30.2213 40.5946 29.8666 40.8912 29.1325C42.6671 24.7371 40.5435 19.7343 36.1481 17.9584C35.414 17.6618 34.5784 18.0165 34.2818 18.7506C33.9852 19.4847 34.3399 20.3202 35.074 20.6168C38.0012 21.7995 39.4155 25.1312 38.2328 28.0585C37.9362 28.7926 38.2909 29.6281 39.025 29.9247Z" fill="url(#paint60_radial_7649_61730)"/>
<path fill-rule="evenodd" clip-rule="evenodd" d="M5.67209 36.7672L10.0191 33.8743L13.4234 25.4486C15.3323 20.7238 20.323 18.1686 25.1422 19.164C25.16 19.11 25.1797 19.0563 25.2013 19.0028C25.7385 17.6733 27.2484 17.0296 28.5739 17.5651C29.8993 18.1006 30.5384 19.6126 30.0012 20.9421C29.9796 20.9956 29.9564 21.0481 29.9316 21.0994C34.0888 23.7314 35.9032 29.0356 33.9945 33.7599L30.5903 42.1856L31.7077 47.2863C31.9475 48.3809 30.8631 49.2966 29.8241 48.8769L22.6915 45.9951C21.6142 48.6567 18.5868 49.9508 15.9232 48.8746C13.2596 47.7985 11.9808 44.7645 13.0547 42.1016L5.92215 39.2198C4.88318 38.8001 4.73921 37.388 5.67209 36.7672ZM27.849 41.9544L28.6397 45.5637L9.07566 37.6593L12.1517 35.6122L15.8602 26.4332C17.4652 22.4609 21.9864 20.5417 25.9587 22.1466L27.271 22.6769C31.2433 24.2818 33.1625 28.803 31.5576 32.7753L27.849 41.9544ZM15.4916 43.0862C14.9586 44.4103 15.597 45.9082 16.9077 46.4378C18.2184 46.9673 19.7182 46.3333 20.2546 45.0105L15.4916 43.0862Z" fill="url(#paint61_radial_7649_61730)"/>
</g>
<g opacity="0.75">
<path d="M44.7056 32.2198C45.4397 32.5164 46.2752 32.1618 46.5718 31.4277C49.6157 23.8939 45.9759 15.3191 38.4421 12.2753C37.708 11.9787 36.8725 12.3334 36.5759 13.0675C36.2793 13.8016 36.634 14.6371 37.3681 14.9337C43.4336 17.3844 46.364 24.2881 43.9134 30.3536C43.6168 31.0877 43.9715 31.9232 44.7056 32.2198Z" fill="url(#paint62_radial_7649_61730)"/>
<path d="M39.025 29.9247C39.7591 30.2213 40.5946 29.8666 40.8912 29.1325C42.6671 24.7371 40.5435 19.7343 36.1481 17.9584C35.414 17.6618 34.5784 18.0165 34.2818 18.7506C33.9852 19.4847 34.3399 20.3202 35.074 20.6168C38.0012 21.7995 39.4155 25.1312 38.2328 28.0585C37.9362 28.7926 38.2909 29.6281 39.025 29.9247Z" fill="url(#paint63_radial_7649_61730)"/>
<path fill-rule="evenodd" clip-rule="evenodd" d="M5.67209 36.7672L10.0191 33.8743L13.4234 25.4486C15.3323 20.7238 20.323 18.1686 25.1422 19.164C25.16 19.11 25.1797 19.0563 25.2013 19.0028C25.7385 17.6733 27.2484 17.0296 28.5739 17.5651C29.8993 18.1006 30.5384 19.6126 30.0012 20.9421C29.9796 20.9956 29.9564 21.0481 29.9316 21.0994C34.0888 23.7314 35.9032 29.0356 33.9945 33.7599L30.5903 42.1856L31.7077 47.2863C31.9475 48.3809 30.8631 49.2966 29.8241 48.8769L22.6915 45.9951C21.6142 48.6567 18.5868 49.9508 15.9232 48.8746C13.2596 47.7985 11.9808 44.7645 13.0547 42.1016L5.92215 39.2198C4.88318 38.8001 4.73921 37.388 5.67209 36.7672ZM27.849 41.9544L28.6397 45.5637L9.07566 37.6593L12.1517 35.6122L15.8602 26.4332C17.4652 22.4609 21.9864 20.5417 25.9587 22.1466L27.271 22.6769C31.2433 24.2818 33.1625 28.803 31.5576 32.7753L27.849 41.9544ZM15.4916 43.0862C14.9586 44.4103 15.597 45.9082 16.9077 46.4378C18.2184 46.9673 19.7182 46.3333 20.2546 45.0105L15.4916 43.0862Z" fill="url(#paint64_radial_7649_61730)"/>
</g>
<defs>
<filter id="filter0_d_7649_61730" x="6.05029" y="13.1699" width="50.5967" height="45.084" filterUnits="userSpaceOnUse" color-interpolation-filters="sRGB">
<feFlood flood-opacity="0" result="BackgroundImageFix"/>
<feColorMatrix in="SourceAlpha" type="matrix" values="0 0 0 0 0 0 0 0 0 0 0 0 0 0 0 0 0 0 127 0" result="hardAlpha"/>
<feOffset dx="4" dy="4"/>
<feGaussianBlur stdDeviation="2"/>
<feComposite in2="hardAlpha" operator="out"/>
<feColorMatrix type="matrix" values="0 0 0 0 0 0 0 0 0 0 0 0 0 0 0 0 0 0 0.33 0"/>
<feBlend mode="normal" in2="BackgroundImageFix" result="effect1_dropShadow_7649_61730"/>
<feBlend mode="normal" in="SourceGraphic" in2="effect1_dropShadow_7649_61730" result="shape"/>
</filter>
<linearGradient id="paint0_linear_7649_61730" x1="22.0334" y1="12.6679" x2="40.3021" y2="47.7378" gradientUnits="userSpaceOnUse">
<stop stop-color="#FFAEC9"/>
<stop offset="1" stop-color="#931252"/>
</linearGradient>
<linearGradient id="paint1_linear_7649_61730" x1="22.0334" y1="12.6679" x2="40.3021" y2="47.7378" gradientUnits="userSpaceOnUse">
<stop stop-color="#FFAEC9"/>
<stop offset="1" stop-color="#931252"/>
</linearGradient>
<linearGradient id="paint2_linear_7649_61730" x1="22.0334" y1="12.6679" x2="40.3021" y2="47.7378" gradientUnits="userSpaceOnUse">
<stop stop-color="#FFAEC9"/>
<stop offset="1" stop-color="#931252"/>
</linearGradient>
<linearGradient id="paint3_linear_7649_61730" x1="7.68127" y1="31.5376" x2="13.5962" y2="25.6227" gradientUnits="userSpaceOnUse">
<stop stop-color="#FFB6C1"/>
<stop offset="1" stop-color="#FFB6C1"/>
</linearGradient>
<linearGradient id="paint4_linear_7649_61730" x1="14.9882" y1="27.0173" x2="23.9899" y2="18.0156" gradientUnits="userSpaceOnUse">
<stop stop-color="#FFB6C1"/>
<stop offset="0.5" stop-color="#FFC5CB"/>
<stop offset="1" stop-color="#FF4F9B"/>
</linearGradient>
<linearGradient id="paint5_linear_7649_61730" x1="6.43386" y1="37.5304" x2="10.0538" y2="33.9104" gradientUnits="userSpaceOnUse">
<stop stop-color="#FFD9DB"/>
<stop offset="1" stop-color="#FFD9DB"/>
</linearGradient>
<linearGradient id="paint6_linear_7649_61730" x1="5.0706" y1="38.5319" x2="6.25203" y2="37.3505" gradientUnits="userSpaceOnUse">
<stop stop-color="#E800A4"/>
<stop offset="0.5" stop-color="#FF79A3"/>
<stop offset="1" stop-color="#FFD9DB"/>
</linearGradient>
<linearGradient id="paint7_linear_7649_61730" x1="25.7539" y1="19.7774" x2="25.8641" y2="19.6672" gradientUnits="userSpaceOnUse">
<stop stop-color="#FFAABA"/>
<stop offset="0.5" stop-color="#FFB0BD"/>
<stop offset="1" stop-color="#FFB6C1"/>
</linearGradient>
<linearGradient id="paint8_linear_7649_61730" x1="6.29132" y1="39.7513" x2="6.37146" y2="39.6711" gradientUnits="userSpaceOnUse">
<stop stop-color="#E800A4"/>
<stop offset="0.5" stop-color="#FF0AA1"/>
<stop offset="1" stop-color="#FF2F9A"/>
</linearGradient>
<linearGradient id="paint9_linear_7649_61730" x1="9.54502" y1="33.0083" x2="15.9888" y2="26.5644" gradientUnits="userSpaceOnUse">
<stop stop-color="#FFB6C1"/>
<stop offset="1" stop-color="#FFB6C1"/>
</linearGradient>
<linearGradient id="paint10_linear_7649_61730" x1="26.2519" y1="20.0565" x2="28.6571" y2="17.6513" gradientUnits="userSpaceOnUse">
<stop stop-color="#FFB6C1"/>
<stop offset="0.5" stop-color="#FFB9C3"/>
<stop offset="1" stop-color="#FF2F9A"/>
</linearGradient>
<linearGradient id="paint11_linear_7649_61730" x1="17.6747" y1="28.2511" x2="24.8673" y2="21.0586" gradientUnits="userSpaceOnUse">
<stop stop-color="#FFB6C1"/>
<stop offset="0.5" stop-color="#FFB9C3"/>
<stop offset="1" stop-color="#FF2F9A"/>
</linearGradient>
<linearGradient id="paint12_linear_7649_61730" x1="29.5492" y1="18.5419" x2="29.6948" y2="18.3964" gradientUnits="userSpaceOnUse">
<stop stop-color="#FF2F9A"/>
<stop offset="0.5" stop-color="#FF0AA1"/>
<stop offset="1" stop-color="#E800A4"/>
</linearGradient>
<linearGradient id="paint13_linear_7649_61730" x1="9.81024" y1="38.3963" x2="12.3717" y2="35.8348" gradientUnits="userSpaceOnUse">
<stop stop-color="#FFD9DB"/>
<stop offset="1" stop-color="#FFD9DB"/>
</linearGradient>
<linearGradient id="paint14_linear_7649_61730" x1="27.0935" y1="23.2844" x2="27.4846" y2="22.8934" gradientUnits="userSpaceOnUse">
<stop stop-color="#FF2F9A"/>
<stop offset="1" stop-color="#FF2F9A"/>
</linearGradient>
<linearGradient id="paint15_linear_7649_61730" x1="29.2512" y1="20.1956" x2="30.3716" y2="19.0752" gradientUnits="userSpaceOnUse">
<stop stop-color="#FFB6C1"/>
<stop offset="0.5" stop-color="#FF4A9A"/>
<stop offset="1" stop-color="#E800A4"/>
</linearGradient>
<linearGradient id="paint16_linear_7649_61730" x1="9.11465" y1="42.4145" x2="11.2401" y2="40.289" gradientUnits="userSpaceOnUse">
<stop stop-color="#FF2F9A"/>
<stop offset="1" stop-color="#FF2F9A"/>
</linearGradient>
<linearGradient id="paint17_linear_7649_61730" x1="37.4576" y1="13.9522" x2="38.7868" y2="12.623" gradientUnits="userSpaceOnUse">
<stop stop-color="#FFB6C1"/>
<stop offset="0.5" stop-color="#FFB9C3"/>
<stop offset="1" stop-color="#FF2F9A"/>
</linearGradient>
<linearGradient id="paint18_linear_7649_61730" x1="36.7257" y1="14.4546" x2="37.3436" y2="13.8367" gradientUnits="userSpaceOnUse">
<stop stop-color="#E800A4"/>
<stop offset="0.5" stop-color="#FF4A9A"/>
<stop offset="1" stop-color="#FFB6C1"/>
</linearGradient>
<linearGradient id="paint19_linear_7649_61730" x1="30.5479" y1="21.7186" x2="30.6613" y2="21.6052" gradientUnits="userSpaceOnUse">
<stop stop-color="#FFC1C8"/>
<stop offset="0.5" stop-color="#FFBBC4"/>
<stop offset="1" stop-color="#FFB6C1"/>
</linearGradient>
<linearGradient id="paint20_linear_7649_61730" x1="37.731" y1="15.4615" x2="37.8119" y2="15.3806" gradientUnits="userSpaceOnUse">
<stop stop-color="#E800A4"/>
<stop offset="0.5" stop-color="#FF0AA1"/>
<stop offset="1" stop-color="#FF2F9A"/>
</linearGradient>
<linearGradient id="paint21_linear_7649_61730" x1="28.854" y1="24.2617" x2="29.2915" y2="23.8243" gradientUnits="userSpaceOnUse">
<stop stop-color="#FF2F9A"/>
<stop offset="0.5" stop-color="#FF0AA1"/>
<stop offset="1" stop-color="#E800A4"/>
</linearGradient>
<linearGradient id="paint22_linear_7649_61730" x1="31.2303" y1="22.4019" x2="31.4076" y2="22.2245" gradientUnits="userSpaceOnUse">
<stop stop-color="#FF0FA0"/>
<stop offset="0.5" stop-color="#FA00A5"/>
<stop offset="1" stop-color="#E800A4"/>
</linearGradient>
<linearGradient id="paint23_linear_7649_61730" x1="35.1641" y1="19.6358" x2="36.4933" y2="18.3065" gradientUnits="userSpaceOnUse">
<stop stop-color="#FFB6C1"/>
<stop offset="0.5" stop-color="#FFB9C3"/>
<stop offset="1" stop-color="#FF2F9A"/>
</linearGradient>
<linearGradient id="paint24_linear_7649_61730" x1="34.431" y1="20.1382" x2="35.0489" y2="19.5203" gradientUnits="userSpaceOnUse">
<stop stop-color="#E800A4"/>
<stop offset="0.5" stop-color="#FF4A9A"/>
<stop offset="1" stop-color="#FFB6C1"/>
</linearGradient>
<linearGradient id="paint25_linear_7649_61730" x1="40.8407" y1="14.6773" x2="41.6704" y2="13.8477" gradientUnits="userSpaceOnUse">
<stop stop-color="#FF2F9A"/>
<stop offset="0.5" stop-color="#FF0AA1"/>
<stop offset="1" stop-color="#E800A4"/>
</linearGradient>
<linearGradient id="paint26_linear_7649_61730" x1="35.4363" y1="21.1431" x2="35.5172" y2="21.0623" gradientUnits="userSpaceOnUse">
<stop stop-color="#E800A4"/>
<stop offset="0.5" stop-color="#FF0AA1"/>
<stop offset="1" stop-color="#FF2F9A"/>
</linearGradient>
<linearGradient id="paint27_linear_7649_61730" x1="39.432" y1="17.0001" x2="40.1" y2="16.3321" gradientUnits="userSpaceOnUse">
<stop stop-color="#FF2F9A"/>
<stop offset="0.5" stop-color="#FF0AA1"/>
<stop offset="1" stop-color="#E800A4"/>
</linearGradient>
<linearGradient id="paint28_linear_7649_61730" x1="37.8279" y1="19.6411" x2="38.312" y2="19.157" gradientUnits="userSpaceOnUse">
<stop stop-color="#FF2F9A"/>
<stop offset="0.5" stop-color="#FF0AA1"/>
<stop offset="1" stop-color="#E800A4"/>
</linearGradient>
<linearGradient id="paint29_linear_7649_61730" x1="36.4168" y1="21.9632" x2="36.7392" y2="21.6408" gradientUnits="userSpaceOnUse">
<stop stop-color="#FF2F9A"/>
<stop offset="0.5" stop-color="#FF0AA1"/>
<stop offset="1" stop-color="#E800A4"/>
</linearGradient>
<linearGradient id="paint30_linear_7649_61730" x1="11.83" y1="45.3696" x2="14.0749" y2="43.1247" gradientUnits="userSpaceOnUse">
<stop stop-color="#E800A4"/>
<stop offset="0.5" stop-color="#FF4A9A"/>
<stop offset="1" stop-color="#FFB5C1"/>
</linearGradient>
<linearGradient id="paint31_linear_7649_61730" x1="27.9817" y1="29.2022" x2="31.3251" y2="25.8588" gradientUnits="userSpaceOnUse">
<stop stop-color="#FFB6C1"/>
<stop offset="0.5" stop-color="#FF4A9A"/>
<stop offset="1" stop-color="#E800A4"/>
</linearGradient>
<linearGradient id="paint32_linear_7649_61730" x1="15.223" y1="45.0442" x2="16.3349" y2="43.9323" gradientUnits="userSpaceOnUse">
<stop stop-color="#E800A4"/>
<stop offset="0.5" stop-color="#FF499A"/>
<stop offset="1" stop-color="#FFB5C0"/>
</linearGradient>
<linearGradient id="paint33_linear_7649_61730" x1="16.6632" y1="45.2491" x2="22.493" y2="39.4193" gradientUnits="userSpaceOnUse">
<stop stop-color="#FF2F9A"/>
<stop offset="1" stop-color="#FF2F9A"/>
</linearGradient>
<linearGradient id="paint34_linear_7649_61730" x1="28.9797" y1="28.7481" x2="33.456" y2="24.2719" gradientUnits="userSpaceOnUse">
<stop stop-color="#FFB6C1"/>
<stop offset="0.5" stop-color="#FF4A9A"/>
<stop offset="1" stop-color="#E800A4"/>
</linearGradient>
<linearGradient id="paint35_linear_7649_61730" x1="17.8462" y1="45.4439" x2="19.2655" y2="44.0246" gradientUnits="userSpaceOnUse">
<stop stop-color="#FF2F9A"/>
<stop offset="1" stop-color="#FF2F9A"/>
</linearGradient>
<linearGradient id="paint36_linear_7649_61730" x1="35.7743" y1="25.6033" x2="38.2381" y2="23.1394" gradientUnits="userSpaceOnUse">
<stop stop-color="#FFB6C1"/>
<stop offset="0.5" stop-color="#FF4A9A"/>
<stop offset="1" stop-color="#E800A4"/>
</linearGradient>
<linearGradient id="paint37_linear_7649_61730" x1="17.0286" y1="46.8497" x2="17.1728" y2="46.7055" gradientUnits="userSpaceOnUse">
<stop stop-color="#E800A4"/>
<stop offset="0.5" stop-color="#FF0AA1"/>
<stop offset="1" stop-color="#FF2F9A"/>
</linearGradient>
<linearGradient id="paint38_linear_7649_61730" x1="15.48" y1="49.0195" x2="15.7725" y2="48.727" gradientUnits="userSpaceOnUse">
<stop stop-color="#E800A4"/>
<stop offset="0.5" stop-color="#FF0AA1"/>
<stop offset="1" stop-color="#FF2F9A"/>
</linearGradient>
<linearGradient id="paint39_linear_7649_61730" x1="18.0482" y1="47.5806" x2="20.4352" y2="45.1936" gradientUnits="userSpaceOnUse">
<stop stop-color="#FF2F9A"/>
<stop offset="0.5" stop-color="#FFB8C2"/>
<stop offset="1" stop-color="#FFB6C1"/>
</linearGradient>
<linearGradient id="paint40_linear_7649_61730" x1="36.8615" y1="25.1059" x2="40.5611" y2="21.4063" gradientUnits="userSpaceOnUse">
<stop stop-color="#FFB6C1"/>
<stop offset="0.5" stop-color="#FF4A9A"/>
<stop offset="1" stop-color="#E800A4"/>
</linearGradient>
<linearGradient id="paint41_linear_7649_61730" x1="38.1003" y1="24.542" x2="43.2055" y2="19.4367" gradientUnits="userSpaceOnUse">
<stop stop-color="#FFB6C1"/>
<stop offset="0.5" stop-color="#FF4A9A"/>
<stop offset="1" stop-color="#E800A4"/>
</linearGradient>
<linearGradient id="paint42_linear_7649_61730" x1="17.5473" y1="50.5008" x2="22.3713" y2="45.6769" gradientUnits="userSpaceOnUse">
<stop stop-color="#FF2F9A"/>
<stop offset="0.5" stop-color="#FFB9C3"/>
<stop offset="1" stop-color="#FFB6C1"/>
</linearGradient>
<linearGradient id="paint43_linear_7649_61730" x1="25.2411" y1="39.3501" x2="31.6849" y2="32.9062" gradientUnits="userSpaceOnUse">
<stop stop-color="#FFB6C1"/>
<stop offset="1" stop-color="#FFB6C1"/>
</linearGradient>
<linearGradient id="paint44_linear_7649_61730" x1="38.3817" y1="29.4468" x2="38.9996" y2="28.8289" gradientUnits="userSpaceOnUse">
<stop stop-color="#E800A4"/>
<stop offset="0.5" stop-color="#FF4A9A"/>
<stop offset="1" stop-color="#FFB6C1"/>
</linearGradient>
<linearGradient id="paint45_linear_7649_61730" x1="39.1858" y1="24.0453" x2="45.5268" y2="17.7043" gradientUnits="userSpaceOnUse">
<stop stop-color="#FFB6C1"/>
<stop offset="0.5" stop-color="#FF4A9A"/>
<stop offset="1" stop-color="#E800A4"/>
</linearGradient>
<linearGradient id="paint46_linear_7649_61730" x1="39.389" y1="30.4517" x2="39.4698" y2="30.3709" gradientUnits="userSpaceOnUse">
<stop stop-color="#E800A4"/>
<stop offset="0.5" stop-color="#FF0AA1"/>
<stop offset="1" stop-color="#FF2F9A"/>
</linearGradient>
<linearGradient id="paint47_linear_7649_61730" x1="39.9592" y1="30.8627" x2="41.2884" y2="29.5335" gradientUnits="userSpaceOnUse">
<stop stop-color="#FF2F9A"/>
<stop offset="0.5" stop-color="#FFB9C3"/>
<stop offset="1" stop-color="#FFB6C1"/>
</linearGradient>
<linearGradient id="paint48_linear_7649_61730" x1="28.2521" y1="39.8501" x2="34.167" y2="33.9352" gradientUnits="userSpaceOnUse">
<stop stop-color="#FFB6C1"/>
<stop offset="1" stop-color="#FFB6C1"/>
</linearGradient>
<linearGradient id="paint49_linear_7649_61730" x1="27.3897" y1="44.3159" x2="28.799" y2="42.9066" gradientUnits="userSpaceOnUse">
<stop stop-color="#FF4C9A"/>
<stop offset="1" stop-color="#FF4C9A"/>
</linearGradient>
<linearGradient id="paint50_linear_7649_61730" x1="25.8844" y1="49.1898" x2="28.0098" y2="47.0644" gradientUnits="userSpaceOnUse">
<stop stop-color="#FF2F9A"/>
<stop offset="1" stop-color="#FF2F9A"/>
</linearGradient>
<linearGradient id="paint51_linear_7649_61730" x1="44.0626" y1="31.7417" x2="44.6805" y2="31.1238" gradientUnits="userSpaceOnUse">
<stop stop-color="#E800A4"/>
<stop offset="0.5" stop-color="#FF4A9A"/>
<stop offset="1" stop-color="#FFB6C1"/>
</linearGradient>
<linearGradient id="paint52_linear_7649_61730" x1="29.6648" y1="45.2462" x2="31.6564" y2="43.2546" gradientUnits="userSpaceOnUse">
<stop stop-color="#FF4C9A"/>
<stop offset="1" stop-color="#FF4C9A"/>
</linearGradient>
<linearGradient id="paint53_linear_7649_61730" x1="45.0691" y1="32.7466" x2="45.15" y2="32.6658" gradientUnits="userSpaceOnUse">
<stop stop-color="#E800A4"/>
<stop offset="0.5" stop-color="#FF0AA1"/>
<stop offset="1" stop-color="#FF2F9A"/>
</linearGradient>
<linearGradient id="paint54_linear_7649_61730" x1="45.6408" y1="33.1576" x2="46.97" y2="31.8284" gradientUnits="userSpaceOnUse">
<stop stop-color="#FF2F9A"/>
<stop offset="0.5" stop-color="#FFB9C3"/>
<stop offset="1" stop-color="#FFB6C1"/>
</linearGradient>
<linearGradient id="paint55_linear_7649_61730" x1="30.3773" y1="49.4322" x2="32.1144" y2="47.6952" gradientUnits="userSpaceOnUse">
<stop stop-color="#FF2F9A"/>
<stop offset="0.5" stop-color="#FFEDED"/>
<stop offset="1" stop-color="#FF4C9A"/>
</linearGradient>
<linearGradient id="paint56_linear_7649_61730" x1="21.0334" y1="11.6679" x2="39.3021" y2="46.7378" gradientUnits="userSpaceOnUse">
<stop stop-color="#FFAEC9"/>
<stop offset="1" stop-color="#931252"/>
</linearGradient>
<linearGradient id="paint57_linear_7649_61730" x1="21.0334" y1="11.6679" x2="39.3021" y2="46.7378" gradientUnits="userSpaceOnUse">
<stop stop-color="#FFAEC9"/>
<stop offset="1" stop-color="#931252"/>
</linearGradient>
<linearGradient id="paint58_linear_7649_61730" x1="21.0334" y1="11.6679" x2="39.3021" y2="46.7378" gradientUnits="userSpaceOnUse">
<stop stop-color="#FFAEC9"/>
<stop offset="1" stop-color="#931252"/>
</linearGradient>
<radialGradient id="paint59_radial_7649_61730" cx="0" cy="0" r="1" gradientUnits="userSpaceOnUse" gradientTransform="translate(36 9.5) rotate(87.2073) scale(20.5244 20.2699)">
<stop stop-color="#FFCFDF"/>
<stop offset="1" stop-color="#FF6699" stop-opacity="0"/>
</radialGradient>
<radialGradient id="paint60_radial_7649_61730" cx="0" cy="0" r="1" gradientUnits="userSpaceOnUse" gradientTransform="translate(36 9.5) rotate(87.2073) scale(20.5244 20.2699)">
<stop stop-color="#FFCFDF"/>
<stop offset="1" stop-color="#FF6699" stop-opacity="0"/>
</radialGradient>
<radialGradient id="paint61_radial_7649_61730" cx="0" cy="0" r="1" gradientUnits="userSpaceOnUse" gradientTransform="translate(36 9.5) rotate(87.2073) scale(20.5244 20.2699)">
<stop stop-color="#FFCFDF"/>
<stop offset="1" stop-color="#FF6699" stop-opacity="0"/>
</radialGradient>
<radialGradient id="paint62_radial_7649_61730" cx="0" cy="0" r="1" gradientUnits="userSpaceOnUse" gradientTransform="translate(8.5 28) rotate(42.1376) scale(14.1598 13.9842)">
<stop stop-color="#C51D6E"/>
<stop offset="0.75" stop-color="#C51D6E" stop-opacity="0"/>
</radialGradient>
<radialGradient id="paint63_radial_7649_61730" cx="0" cy="0" r="1" gradientUnits="userSpaceOnUse" gradientTransform="translate(8.5 28) rotate(42.1376) scale(14.1598 13.9842)">
<stop stop-color="#C51D6E"/>
<stop offset="0.75" stop-color="#C51D6E" stop-opacity="0"/>
</radialGradient>
<radialGradient id="paint64_radial_7649_61730" cx="0" cy="0" r="1" gradientUnits="userSpaceOnUse" gradientTransform="translate(8.5 28) rotate(42.1376) scale(14.1598 13.9842)">
<stop stop-color="#C51D6E"/>
<stop offset="0.75" stop-color="#C51D6E" stop-opacity="0"/>
</radialGradient>
</defs>
</svg>
