<svg width="18" height="18" viewBox="0 0 18 18" fill="none" xmlns="http://www.w3.org/2000/svg">
<path fill-rule="evenodd" clip-rule="evenodd" d="M15.6064 6.36409C15.901 6.36409 16.1398 6.12531 16.1398 5.83076C16.1398 2.80792 13.6893 0.357422 10.6664 0.357422C10.3719 0.357422 10.1331 0.596203 10.1331 0.890755C10.1331 1.18531 10.3719 1.42409 10.6664 1.42409C13.1002 1.42409 15.0731 3.39702 15.0731 5.83076C15.0731 6.12531 15.3119 6.36409 15.6064 6.36409ZM13.3271 6.36409C13.6217 6.36409 13.8605 6.12531 13.8605 5.83076C13.8605 4.06713 12.4308 2.63742 10.6671 2.63742C10.3726 2.63742 10.1338 2.8762 10.1338 3.17076C10.1338 3.46531 10.3726 3.70409 10.6671 3.70409C11.8417 3.70409 12.7938 4.65623 12.7938 5.83076C12.7938 6.12531 13.0326 6.36409 13.3271 6.36409ZM11.1486 11.7688V12.071L11.3192 12.3206L11.9244 13.2058H4.07449L4.67964 12.3206L4.85023 12.071V11.7688V8.38804C4.85023 6.79418 6.1423 5.50211 7.73615 5.50211H8.26272C9.85657 5.50211 11.1486 6.79418 11.1486 8.38804V11.7688ZM2.77616 13.3724L3.87245 11.7688V8.38804C3.87245 6.49226 5.23781 4.91537 7.03883 4.58709C7.03746 4.56599 7.03676 4.5447 7.03676 4.52324C7.03676 3.98978 7.46789 3.55732 7.99972 3.55732C8.53155 3.55732 8.96269 3.98978 8.96269 4.52324C8.96269 4.54473 8.96199 4.56606 8.96061 4.5872C10.7613 4.91571 12.1264 6.49246 12.1264 8.38804V11.7688L13.2227 13.3724C13.458 13.7166 13.2115 14.1836 12.7947 14.1836H9.93277C9.93208 15.2518 9.06818 16.1201 7.99943 16.1201C6.93069 16.1201 6.06679 15.2518 6.0661 14.1836H3.20422C2.78735 14.1836 2.5409 13.7166 2.77616 13.3724ZM7.04388 14.1836C7.04457 14.7146 7.47353 15.1423 7.99943 15.1423C8.52534 15.1423 8.9543 14.7146 8.95499 14.1836H7.04388Z" fill="url(#paint0_linear_375_18295)"/>
<defs>
<linearGradient id="paint0_linear_375_18295" x1="4.57692" y1="2.57405" x2="15.7659" y2="12.1249" gradientUnits="userSpaceOnUse">
<stop stop-color="#FF99BB"/>
<stop offset="1" stop-color="#990F54"/>
</linearGradient>
</defs>
</svg>
