<svg width="58" height="64" viewBox="0 0 58 64" fill="none" xmlns="http://www.w3.org/2000/svg">
<g filter="url(#filter0_d_7649_61603)">
<path d="M38.8965 30.1227C39.1126 29.5877 39.7215 29.3293 40.2564 29.5454C40.7913 29.7615 41.0498 30.3704 40.8337 30.9053L39.1118 35.167C38.8957 35.7019 38.2868 35.9604 37.7519 35.7443C37.217 35.5281 36.9586 34.9193 37.1747 34.3844L38.8965 30.1227Z" fill="url(#paint0_linear_7649_61603)" fill-opacity="0.05" shape-rendering="crispEdges"/>
<path d="M36.0794 37.0953C36.2955 36.5604 36.9044 36.3019 37.4393 36.518C37.9742 36.7342 38.2327 37.343 38.0165 37.8779C37.8004 38.4129 37.1916 38.6713 36.6566 38.4552C36.1217 38.2391 35.8633 37.6302 36.0794 37.0953Z" fill="url(#paint1_linear_7649_61603)" fill-opacity="0.05" shape-rendering="crispEdges"/>
<path fill-rule="evenodd" clip-rule="evenodd" d="M29.8861 13.5863L28.1287 11.7689L27.8317 14.2796C27.7048 15.3529 27.4155 17.5401 26.4765 19.7007C25.5409 21.8535 24.0154 23.8597 21.4689 24.7859C17.7829 26.1265 13.7199 28.6887 11.932 32.4757C11.0208 34.4058 10.7215 36.6182 11.3421 39.0462C11.9566 41.4499 13.4534 43.9937 16.0092 46.6644C17.1619 47.8998 20.3694 50.1358 24.5477 49.8022C26.9702 49.6088 29.0587 48.9664 30.9329 47.777C32.7972 46.5938 34.3843 44.9109 35.8691 42.7307L35.8747 42.7224L36.1366 42.3309C36.2 42.236 36.2482 42.1353 36.2816 42.0318C40.2504 43.0095 44.4375 40.9476 46.0133 37.0473C47.7413 32.7704 45.675 27.9025 41.3981 26.1745C39.2793 25.3185 37.0153 25.3937 35.06 26.2076C34.7766 23.5201 33.7714 17.6045 29.8861 13.5863ZM32.8528 27.5586C32.7886 27.4273 32.7475 27.2819 32.7351 27.1273C32.5926 25.3422 32.0443 20.9111 29.7577 17.3006C29.5259 18.3236 29.1857 19.4884 28.6776 20.6573C27.5877 23.1651 25.6704 25.8115 22.2893 27.0413C18.8613 28.2882 15.4983 30.5436 14.1023 33.5003C13.4216 34.9421 13.1896 36.583 13.6674 38.4518C13.9627 39.6073 14.5366 40.8759 15.4784 42.252C15.5381 41.775 15.6586 41.3086 15.8376 40.8657C16.9233 38.1784 19.1872 37.2175 21.451 36.2565C23.7149 35.2956 24.5835 33.1457 24.3771 30.5615C25.3417 31.7848 27.0102 34.8764 25.9679 37.4563C24.9256 40.0361 23.5141 41.4664 22.9386 41.8591C23.8344 42.2211 25.9506 42.4509 27.2491 40.4747C27.9278 41.3741 28.9169 43.7744 27.4447 46.1805C27.2673 46.4703 27.0576 46.7416 26.8211 46.9927C27.8545 46.7099 28.7844 46.298 29.6469 45.7506C31.1532 44.7946 32.5201 43.3838 33.8827 41.3838L34.0528 41.1295C30.5261 39.0731 28.9511 34.6862 30.5254 30.7897C31.0482 29.4957 31.8584 28.4041 32.8528 27.5586ZM44.1219 36.2831C42.816 39.5154 39.137 41.077 35.9048 39.7711C32.6725 38.4651 31.1109 34.7862 32.4168 31.5539C33.7227 28.3217 37.4017 26.7601 40.6339 28.066C43.8662 29.3719 45.4278 33.0508 44.1219 36.2831Z" fill="url(#paint2_linear_7649_61603)" fill-opacity="0.05" shape-rendering="crispEdges"/>
</g>
<path d="M39.5926 30.8206C39.8087 30.2857 40.4175 30.0272 40.9525 30.2434C41.0867 30.2976 41.2035 30.3766 41.2998 30.4729C41.5872 30.7604 41.6916 31.2026 41.5297 31.6032L39.8079 35.865C39.5917 36.3999 38.9829 36.6583 38.448 36.4422C38.3137 36.388 38.1969 36.309 38.1006 36.2126C37.8132 35.9251 37.7088 35.483 37.8707 35.0823L39.5926 30.8206Z" fill="#FFC68D"/>
<path d="M37.0053 38.9236C36.7179 38.6361 36.6136 38.1939 36.7754 37.7932C36.9916 37.2583 37.6004 36.9999 38.1353 37.216C38.2696 37.2702 38.3864 37.3492 38.4827 37.4455C38.7701 37.733 38.8745 38.1752 38.7126 38.5759C38.4965 39.1108 37.8876 39.3692 37.3527 39.1531C37.2184 39.0989 37.1016 39.0199 37.0053 38.9236Z" fill="#FFC68D"/>
<path fill-rule="evenodd" clip-rule="evenodd" d="M30.5821 14.2843C30.5821 14.2843 29.6391 13.309 29.1346 12.7873C29.0673 12.7177 29.0079 12.6563 30.2722 13.9638C28.8754 12.5192 28.8247 12.4668 28.8247 12.4668L28.5278 14.9775C28.4008 16.0508 28.1116 18.2381 27.1726 20.3986C26.237 22.5514 24.7114 24.5576 22.165 25.4838C18.479 26.8245 14.416 29.3867 12.6281 33.1736C11.7169 35.1037 11.4175 37.3162 12.0382 39.7442C12.6527 42.1479 14.1495 44.6917 16.7053 47.3623C17.8579 48.5977 21.0654 50.8338 25.2437 50.5001C27.6663 50.3067 29.7547 49.6643 31.629 48.4749C33.4932 47.2918 35.0804 45.6088 36.5651 43.4286L36.5708 43.4203L36.8326 43.0288C36.8961 42.9339 36.9442 42.8333 36.9776 42.7298C40.9465 43.7074 45.1336 41.6455 46.7094 37.7452C48.0037 34.5417 47.1692 31.0065 44.8715 28.7077C44.1016 27.9375 43.1675 27.3061 42.0942 26.8725C39.9753 26.0164 37.7114 26.0916 35.7561 26.9055C35.4727 24.218 34.4675 18.3024 30.5821 14.2843ZM33.5488 28.2566C33.4846 28.1252 33.4435 27.9798 33.4312 27.8253C33.2886 26.0401 32.7404 21.609 30.4538 17.9986C30.222 19.0215 29.8817 20.1863 29.3737 21.3553C28.2838 23.8631 26.3665 26.5095 22.9853 27.7393C19.5573 28.9861 16.1943 31.2415 14.7984 34.1983C14.1177 35.6401 13.8857 37.2809 14.3634 39.1497C14.6588 40.3052 15.2327 41.5738 16.1744 42.9499C16.2342 42.4729 16.3547 42.0065 16.5336 41.5637C17.6194 38.8763 19.8832 37.9154 22.1471 36.9545C24.4109 35.9935 25.2795 33.8436 25.0732 31.2595C26.0377 32.4828 27.7062 35.5744 26.6639 38.1542C25.6216 40.734 24.2101 42.1644 23.6346 42.5571C24.5304 42.919 26.6466 43.1488 27.9452 41.1727C28.6238 42.072 29.613 44.4723 28.1407 46.8784C27.9634 47.1682 27.7536 47.4395 27.5171 47.6906C28.5506 47.4078 29.4804 46.9959 30.343 46.4485C31.8493 45.4926 33.2161 44.0817 34.5787 42.0817L34.7488 41.8274C34.1217 41.4617 33.5563 41.0224 33.0593 40.5252C30.7616 38.2264 29.9271 34.6912 31.2214 31.4877C31.7442 30.1937 32.5545 29.102 33.5488 28.2566ZM43.4289 30.1509C45.1654 31.8883 45.7961 34.5599 44.8179 36.981C43.512 40.2133 39.8331 41.7749 36.6008 40.469C35.7896 40.1413 35.0837 39.6641 34.5019 39.082C32.7653 37.3447 32.1347 34.673 33.1128 32.2519C34.4188 29.0196 38.0977 27.458 41.33 28.7639C42.1411 29.0917 42.8471 29.5688 43.4289 30.1509Z" fill="#FFC68D"/>
<path d="M27.1277 10.7695L26.8308 13.2802L28.5279 14.9773L28.8248 12.4666L27.1277 10.7695Z" fill="url(#paint3_linear_7649_61603)"/>
<path d="M28.5759 12.2665L27.1284 10.7695L28.8255 12.4666L30.273 13.9636L28.5759 12.2665Z" fill="url(#paint4_linear_7649_61603)"/>
<path d="M28.5753 12.2653C27.311 10.9578 27.3704 11.0193 27.4377 11.0888L29.1347 12.7859C29.0844 12.7338 29.109 12.7593 29.1347 12.7859L29.1347 12.7859C29.2159 12.8698 29.4919 13.1553 30.2724 13.9624L28.5753 12.2653Z" fill="url(#paint5_linear_7649_61603)"/>
<path d="M28.8853 12.5868L27.4377 11.0898L29.1348 12.7869L30.5823 14.2839L28.8853 12.5868Z" fill="url(#paint6_linear_7649_61603)"/>
<path d="M26.8313 13.2812C26.7043 14.3546 26.4151 16.5418 25.4761 18.7024L27.1731 20.3994C28.1121 18.2389 28.4014 16.0516 28.5283 14.9783L26.8313 13.2812Z" fill="url(#paint7_linear_7649_61603)"/>
<path d="M20.4678 23.7871C16.7818 25.1278 12.7188 27.69 10.9309 31.4769L12.628 33.174C14.4159 29.387 18.4789 26.8248 22.1649 25.4842L20.4678 23.7871Z" fill="url(#paint8_linear_7649_61603)"/>
<path d="M25.4764 18.7012C24.5407 20.8539 23.0152 22.8602 20.4688 23.7864L22.1658 25.4834C24.7123 24.5572 26.2378 22.551 27.1734 20.3982L25.4764 18.7012Z" fill="url(#paint9_linear_7649_61603)"/>
<path d="M10.9313 31.4766C10.0201 33.4066 9.72073 35.6191 10.3414 38.0471L12.0385 39.7441C11.4178 37.3162 11.7171 35.1037 12.6284 33.1736L10.9313 31.4766Z" fill="url(#paint10_linear_7649_61603)"/>
<path d="M27.677 19.6575C28.185 18.4885 28.5253 17.3237 28.7571 16.3008L30.4541 17.9978C30.2223 19.0208 29.8821 20.1856 29.3741 21.3545L27.677 19.6575Z" fill="url(#paint11_linear_7649_61603)"/>
<path d="M13.1011 32.502C14.497 29.5452 17.86 27.2898 21.288 26.043L22.9851 27.74C19.5571 28.9868 16.1941 31.2423 14.7981 34.199L13.1011 32.502Z" fill="url(#paint12_linear_7649_61603)"/>
<path d="M21.2891 26.0422C24.6702 24.8124 26.5875 22.166 27.6774 19.6582L29.3745 21.3553C28.2846 23.8631 26.3673 26.5095 22.9861 27.7393L21.2891 26.0422Z" fill="url(#paint13_linear_7649_61603)"/>
<path d="M12.6665 37.4515C12.1888 35.5826 12.4208 33.9418 13.1015 32.5L14.7985 34.1971C14.1178 35.6388 13.8858 37.2797 14.3636 39.1485L12.6665 37.4515Z" fill="url(#paint14_linear_7649_61603)"/>
<path d="M34.059 25.2091C33.7756 22.5216 32.7704 16.606 28.885 12.5879L30.5821 14.2849C34.4674 18.3031 35.4726 24.2187 35.756 26.9062L34.059 25.2091Z" fill="url(#paint15_linear_7649_61603)"/>
<path d="M28.7573 16.3008C31.0439 19.9112 31.5922 24.3424 31.7347 26.1275L33.4318 27.8245C33.2893 26.0394 32.741 21.6083 30.4544 17.9978L28.7573 16.3008Z" fill="url(#paint16_linear_7649_61603)"/>
<path d="M14.4773 41.2533C13.5355 39.8772 12.9616 38.6086 12.6663 37.4531L14.3633 39.1502C14.6587 40.3056 15.2326 41.5742 16.1743 42.9504L14.4773 41.2533Z" fill="url(#paint17_linear_7649_61603)"/>
<path d="M23.3761 29.5625C23.5824 32.1467 22.7138 34.2965 20.45 35.2575L22.147 36.9545C24.4109 35.9936 25.2795 33.8437 25.0731 31.2596L23.3761 29.5625Z" fill="url(#paint18_linear_7649_61603)"/>
<path d="M10.3413 38.0469C10.9558 40.4506 12.4526 42.9944 15.0084 45.665L16.7055 47.3621C14.1496 44.6914 12.6528 42.1476 12.0384 39.7439L10.3413 38.0469Z" fill="url(#paint19_linear_7649_61603)"/>
<path d="M20.4501 35.2578C18.1863 36.2188 15.9224 37.1797 14.8367 39.867L16.5337 41.5641C17.6195 38.8768 19.8833 37.9158 22.1472 36.9549L20.4501 35.2578Z" fill="url(#paint20_linear_7649_61603)"/>
<path d="M14.8372 39.8672C14.6583 40.31 14.5377 40.7764 14.478 41.2534L16.1751 42.9505C16.2348 42.4735 16.3553 42.0071 16.5342 41.5642L14.8372 39.8672Z" fill="url(#paint21_linear_7649_61603)"/>
<path d="M24.967 36.4572C26.0093 33.8774 24.3408 30.7858 23.3762 29.5625L25.0733 31.2596C26.0378 32.4829 27.7064 35.5744 26.664 38.1543L24.967 36.4572Z" fill="url(#paint22_linear_7649_61603)"/>
<path d="M31.7339 26.1289C31.7462 26.2835 31.7873 26.4289 31.8515 26.5602L33.5486 28.2573C33.4844 28.1259 33.4433 27.9805 33.4309 27.826L31.7339 26.1289Z" fill="url(#paint23_linear_7649_61603)"/>
<path d="M29.5249 29.7897C30.0477 28.4957 30.858 27.404 31.8523 26.5586L33.5494 28.2557C32.555 29.1011 31.7448 30.1927 31.222 31.4868L29.5249 29.7897Z" fill="url(#paint24_linear_7649_61603)"/>
<path d="M21.9382 40.8599C22.5137 40.4672 23.9252 39.0369 24.9675 36.457L26.6646 38.1541C25.6223 40.7339 24.2107 42.1643 23.6353 42.557L21.9382 40.8599Z" fill="url(#paint25_linear_7649_61603)"/>
<path d="M34.0588 25.2079C36.0141 24.394 38.2781 24.3188 40.3969 25.1748L42.094 26.8719C39.9751 26.0158 37.7112 26.091 35.7559 26.9049L34.0588 25.2079Z" fill="url(#paint26_linear_7649_61603)"/>
<path d="M26.2488 39.4746C24.9502 41.4508 22.834 41.221 21.9382 40.859L23.6353 42.5561C24.5311 42.918 26.6473 43.1478 27.9458 41.1717L26.2488 39.4746Z" fill="url(#paint27_linear_7649_61603)"/>
<path d="M31.4163 30.5547C32.7222 27.3225 36.4011 25.7608 39.6334 27.0668L41.3304 28.7638C38.0982 27.4579 34.4192 29.0195 33.1133 32.2518L31.4163 30.5547Z" fill="url(#paint28_linear_7649_61603)"/>
<path d="M31.3626 38.8285C29.0649 36.5297 28.2304 32.9946 29.5247 29.791L31.2217 31.4881C29.9274 34.6916 30.7619 38.2268 33.0597 40.5256L31.3626 38.8285Z" fill="url(#paint29_linear_7649_61603)"/>
<path d="M32.8049 37.3848C31.0684 35.6475 30.4377 32.9758 31.4159 30.5547L33.1129 32.2517C32.1348 34.6728 32.7654 37.3445 34.502 39.0819L32.8049 37.3848Z" fill="url(#paint30_linear_7649_61603)"/>
<path d="M15.2993 45.9543C16.6433 47.2174 19.6794 49.1108 23.5475 48.8019L25.2445 50.499C21.0662 50.8326 17.8587 48.5966 16.7061 47.3611L15.2993 45.9543C15.1915 45.853 15.0946 45.7558 15.009 45.6641L15.2993 45.9543Z" fill="url(#paint31_linear_7649_61603)"/>
<path d="M37.8958 29.1223C38.1119 28.5874 38.7207 28.329 39.2556 28.5451L40.9527 30.2421C40.4178 30.026 39.8089 30.2845 39.5928 30.8194L37.8958 29.1223Z" fill="url(#paint32_linear_7649_61603)"/>
<path d="M40.3977 25.1758C41.471 25.6094 42.4052 26.2409 43.175 27.0111L44.8694 28.7054C44.1 27.9364 43.1669 27.306 42.0948 26.8728L40.3977 25.1758Z" fill="url(#paint33_linear_7649_61603)"/>
<path d="M39.2561 28.5469C39.3903 28.6011 39.5072 28.6801 39.6035 28.7764L41.3002 30.4731C41.204 30.377 41.0872 30.2981 40.9532 30.2439L39.2561 28.5469Z" fill="url(#paint34_linear_7649_61603)"/>
<path d="M36.1741 33.3847L37.8959 29.123L39.593 30.8201L37.8711 35.0818L36.1741 33.3847Z" fill="url(#paint35_linear_7649_61603)"/>
<path d="M39.6335 27.0664C40.4447 27.3941 41.1507 27.8713 41.7325 28.4534L43.4275 30.1485C42.8461 29.5673 42.1408 29.0908 41.3306 28.7635L39.6335 27.0664Z" fill="url(#paint36_linear_7649_61603)"/>
<path d="M26.4438 45.1804C27.9161 42.7743 26.9269 40.374 26.2483 39.4746L27.9453 41.1717C28.624 42.071 29.6132 44.4713 28.1409 46.8775L26.4438 45.1804Z" fill="url(#paint37_linear_7649_61603)"/>
<path d="M39.603 28.7754C39.8904 29.0629 39.9948 29.5051 39.8329 29.9057L41.53 31.6028C41.6918 31.2021 41.5875 30.76 41.3001 30.4724L39.603 28.7754Z" fill="url(#paint38_linear_7649_61603)"/>
<path d="M36.4041 34.5151C36.1167 34.2276 36.0124 33.7854 36.1742 33.3848L37.8713 35.0818C37.7094 35.4825 37.8138 35.9247 38.1012 36.2122L36.4041 34.5151Z" fill="url(#paint39_linear_7649_61603)"/>
<path d="M39.8332 29.9062L38.1113 34.168L39.8084 35.865L41.5302 31.6033L39.8332 29.9062Z" fill="url(#paint40_linear_7649_61603)"/>
<path d="M36.7512 34.7452C36.6171 34.691 36.5004 34.6121 36.4041 34.516L38.1009 36.2127C38.1972 36.309 38.314 36.388 38.4482 36.4422L36.7512 34.7452Z" fill="url(#paint41_linear_7649_61603)"/>
<path d="M35.0784 36.095C35.2945 35.5601 35.9033 35.3016 36.4383 35.5177L38.1353 37.2148C37.6004 36.9987 36.9915 37.2571 36.7754 37.792L35.0784 36.095Z" fill="url(#paint42_linear_7649_61603)"/>
<path d="M33.052 40.1303C32.426 39.7653 31.8615 39.3269 31.3652 38.8308L33.0596 40.5252C33.5566 41.0224 34.122 41.4617 34.7491 41.8274L33.052 40.1303Z" fill="url(#paint43_linear_7649_61603)"/>
<path d="M25.8206 45.9938C26.057 45.7427 26.2668 45.4714 26.4441 45.1816L28.1412 46.8787C27.9638 47.1685 27.7541 47.4398 27.5176 47.6909L25.8206 45.9938Z" fill="url(#paint44_linear_7649_61603)"/>
<path d="M35.3084 37.2261C35.021 36.9385 34.9167 36.4964 35.0785 36.0957L36.7756 37.7928C36.6137 38.1934 36.7181 38.6356 37.0055 38.9231L35.3084 37.2261Z" fill="url(#paint45_linear_7649_61603)"/>
<path d="M38.1106 34.168C37.8945 34.7029 37.2857 34.9613 36.7507 34.7452L38.4478 36.4423C38.9827 36.6584 39.5916 36.4 39.8077 35.865L38.1106 34.168Z" fill="url(#paint46_linear_7649_61603)"/>
<path d="M34.9039 38.7718C34.0936 38.4444 33.3884 37.968 32.807 37.3868L34.502 39.0818C35.0838 39.6639 35.7898 40.1411 36.6009 40.4688L34.9039 38.7718Z" fill="url(#paint47_linear_7649_61603)"/>
<path d="M36.439 35.5195C36.5732 35.5738 36.69 35.6527 36.7863 35.7491L38.4831 37.4458C38.3868 37.3496 38.2701 37.2708 38.136 37.2166L36.439 35.5195Z" fill="url(#paint48_linear_7649_61603)"/>
<path d="M28.6464 44.75C27.7838 45.2974 26.854 45.7093 25.8206 45.9921L27.5176 47.6891C28.5511 47.4064 29.4809 46.9945 30.3434 46.4471L28.6464 44.75Z" fill="url(#paint49_linear_7649_61603)"/>
<path d="M35.6555 37.4561C35.5214 37.4019 35.4047 37.3231 35.3084 37.2269L37.0052 38.9236C37.1014 39.02 37.2183 39.0989 37.3525 39.1532L35.6555 37.4561Z" fill="url(#paint50_linear_7649_61603)"/>
<path d="M36.7859 35.748C37.0733 36.0356 37.1776 36.4777 37.0158 36.8784L38.7128 38.5755C38.8747 38.1748 38.7703 37.7326 38.4829 37.4451L36.7859 35.748Z" fill="url(#paint51_linear_7649_61603)"/>
<path d="M33.0524 40.1309L32.8823 40.3852L34.5794 42.0823L34.7495 41.8279L33.0524 40.1309Z" fill="url(#paint52_linear_7649_61603)"/>
<path d="M32.8817 40.3848C31.5191 42.3847 30.1523 43.7956 28.646 44.7515L30.3431 46.4486C31.8494 45.4927 33.2162 44.0818 34.5788 42.0818L32.8817 40.3848Z" fill="url(#paint53_linear_7649_61603)"/>
<path d="M37.0161 36.8789C36.8 37.4138 36.1912 37.6723 35.6562 37.4561L37.3533 39.1532C37.8882 39.3693 38.4971 39.1109 38.7132 38.576L37.0161 36.8789Z" fill="url(#paint54_linear_7649_61603)"/>
<path d="M41.7324 28.4531C43.469 30.1904 44.0996 32.8621 43.1214 35.2832L44.8185 36.9803C45.7967 34.5592 45.166 31.8875 43.4295 30.1502L41.7324 28.4531Z" fill="url(#paint55_linear_7649_61603)"/>
<path d="M23.5471 48.8026C25.9697 48.6092 28.0581 47.9668 29.9324 46.7773L31.6294 48.4744C29.7552 49.6638 27.6667 50.3062 25.2442 50.4996L23.5471 48.8026Z" fill="url(#paint56_linear_7649_61603)"/>
<path d="M43.175 27.0098C45.4728 29.3086 46.3073 32.8437 45.013 36.0473L46.71 37.7443C48.0043 34.5408 47.1699 31.0056 44.8721 28.7068L43.175 27.0098Z" fill="url(#paint57_linear_7649_61603)"/>
<path d="M43.1209 35.2832C41.815 38.5155 38.1361 40.0771 34.9038 38.7712L36.6009 40.4682C39.8331 41.7741 43.5121 40.2125 44.818 36.9803L43.1209 35.2832Z" fill="url(#paint58_linear_7649_61603)"/>
<path d="M35.136 41.3322C35.1994 41.2374 35.2476 41.1367 35.281 41.0332L36.9781 42.7303C36.9447 42.8338 36.8965 42.9344 36.833 43.0293L35.136 41.3322Z" fill="url(#paint59_linear_7649_61603)"/>
<path d="M34.8745 41.7235L35.1364 41.332L36.8334 43.0291L36.5716 43.4206L34.8745 41.7235Z" fill="url(#paint60_linear_7649_61603)"/>
<path d="M34.8687 41.731L34.8743 41.7227L36.5713 43.4197L36.5657 43.428L34.8687 41.731Z" fill="url(#paint61_linear_7649_61603)"/>
<path d="M29.9329 46.7787C31.7971 45.5956 33.3843 43.9126 34.869 41.7324L36.5661 43.4295C35.0813 45.6097 33.4942 47.2926 31.6299 48.4757L29.9329 46.7787Z" fill="url(#paint62_linear_7649_61603)"/>
<path d="M45.013 36.0488C43.4372 39.9491 39.2501 42.011 35.2812 41.0333L36.9783 42.7304C40.9471 43.708 45.1342 41.6462 46.7101 37.7459L45.013 36.0488Z" fill="url(#paint63_linear_7649_61603)"/>
<path d="M37.8963 29.1227C38.1124 28.5877 38.7212 28.3293 39.2562 28.5454C39.7911 28.7615 40.0495 29.3704 39.8334 29.9053L38.1116 34.167C37.8955 34.7019 37.2866 34.9604 36.7517 34.7443C36.2168 34.5281 35.9583 33.9193 36.1744 33.3844L37.8963 29.1227Z" fill="url(#paint64_linear_7649_61603)"/>
<path d="M35.0792 36.0953C35.2953 35.5604 35.9041 35.3019 36.4391 35.518C36.974 35.7342 37.2324 36.343 37.0163 36.8779C36.8002 37.4129 36.1913 37.6713 35.6564 37.4552C35.1215 37.2391 34.863 36.6302 35.0792 36.0953Z" fill="url(#paint65_linear_7649_61603)"/>
<path fill-rule="evenodd" clip-rule="evenodd" d="M28.8858 12.5863L27.1284 10.7689L26.8315 13.2796C26.7045 14.3529 26.4153 16.5401 25.4763 18.7007C24.5407 20.8535 23.0152 22.8597 20.4687 23.7859C16.7827 25.1265 12.7197 27.6887 10.9318 31.4757C10.0206 33.4058 9.72121 35.6182 10.3419 38.0462C10.9564 40.4499 12.4532 42.9937 15.009 45.6644C16.1616 46.8998 19.3691 49.1358 23.5474 48.8022C25.97 48.6088 28.0584 47.9664 29.9327 46.777C31.7969 45.5938 33.3841 43.9109 34.8688 41.7307L34.8745 41.7224L35.1363 41.3309C35.1998 41.236 35.2479 41.1353 35.2814 41.0318C39.2502 42.0095 43.4373 39.9476 45.0131 36.0473C46.7411 31.7704 44.6748 26.9025 40.3979 25.1745C38.279 24.3185 36.0151 24.3937 34.0598 25.2076C33.7764 22.5201 32.7712 16.6045 28.8858 12.5863ZM31.8525 26.5586C31.7883 26.4273 31.7472 26.2819 31.7349 26.1273C31.5924 24.3422 31.0441 19.9111 28.7575 16.3006C28.5257 17.3236 28.1854 18.4884 27.6774 19.6573C26.5875 22.1651 24.6702 24.8115 21.289 26.0413C17.861 27.2882 14.498 29.5436 13.1021 32.5003C12.4214 33.9421 12.1894 35.583 12.6671 37.4518C12.9625 38.6073 13.5364 39.8759 14.4782 41.252C14.5379 40.775 14.6584 40.3086 14.8373 39.8657C15.9231 37.1784 18.1869 36.2175 20.4508 35.2565C22.7146 34.2956 23.5832 32.1457 23.3769 29.5615C24.3414 30.7848 26.01 33.8764 24.9676 36.4563C23.9253 39.0361 22.5138 40.4664 21.9384 40.8591C22.8341 41.2211 24.9503 41.4509 26.2489 39.4747C26.9275 40.3741 27.9167 42.7744 26.4444 45.1805C26.2671 45.4703 26.0573 45.7416 25.8209 45.9927C26.8543 45.7099 27.7841 45.298 28.6467 44.7506C30.153 43.7946 31.5198 42.3838 32.8824 40.3838L33.0525 40.1295C29.5258 38.0731 27.9508 33.6862 29.5251 29.7897C30.0479 28.4957 30.8582 27.4041 31.8525 26.5586ZM43.1216 35.2831C41.8157 38.5154 38.1368 40.077 34.9045 38.7711C31.6723 37.4651 30.1106 33.7862 31.4166 30.5539C32.7225 27.3217 36.4014 25.7601 39.6337 27.066C42.866 28.3719 44.4276 32.0508 43.1216 35.2831Z" fill="url(#paint66_linear_7649_61603)"/>
<g opacity="0.75">
<path d="M37.8965 29.1227C38.1126 28.5877 38.7215 28.3293 39.2564 28.5454C39.7913 28.7615 40.0498 29.3704 39.8337 29.9053L38.1118 34.167C37.8957 34.7019 37.2868 34.9604 36.7519 34.7443C36.217 34.5281 35.9586 33.9193 36.1747 33.3844L37.8965 29.1227Z" fill="url(#paint67_radial_7649_61603)"/>
<path d="M35.0794 36.0953C35.2955 35.5604 35.9044 35.3019 36.4393 35.518C36.9742 35.7342 37.2327 36.343 37.0165 36.8779C36.8004 37.4129 36.1916 37.6713 35.6566 37.4552C35.1217 37.2391 34.8633 36.6302 35.0794 36.0953Z" fill="url(#paint68_radial_7649_61603)"/>
<path fill-rule="evenodd" clip-rule="evenodd" d="M28.8861 12.5863L27.1287 10.7689L26.8317 13.2796C26.7048 14.3529 26.4155 16.5401 25.4765 18.7007C24.5409 20.8535 23.0154 22.8597 20.4689 23.7859C16.7829 25.1265 12.7199 27.6887 10.932 31.4757C10.0208 33.4058 9.72146 35.6182 10.3421 38.0462C10.9566 40.4499 12.4534 42.9937 15.0092 45.6644C16.1619 46.8998 19.3694 49.1358 23.5477 48.8022C25.9702 48.6088 28.0587 47.9664 29.9329 46.777C31.7972 45.5938 33.3843 43.9109 34.8691 41.7307L34.8747 41.7224L35.1366 41.3309C35.2 41.236 35.2482 41.1353 35.2816 41.0318C39.2504 42.0095 43.4375 39.9476 45.0133 36.0473C46.7413 31.7704 44.675 26.9025 40.3981 25.1745C38.2793 24.3185 36.0153 24.3937 34.06 25.2076C33.7766 22.5201 32.7714 16.6045 28.8861 12.5863ZM31.8528 26.5586C31.7886 26.4273 31.7475 26.2819 31.7351 26.1273C31.5926 24.3422 31.0443 19.9111 28.7577 16.3006C28.5259 17.3236 28.1857 18.4884 27.6776 19.6573C26.5877 22.1651 24.6704 24.8115 21.2893 26.0413C17.8613 27.2882 14.4983 29.5436 13.1023 32.5003C12.4216 33.9421 12.1896 35.583 12.6674 37.4518C12.9627 38.6073 13.5366 39.8759 14.4784 41.252C14.5381 40.775 14.6586 40.3086 14.8376 39.8657C15.9233 37.1784 18.1872 36.2175 20.451 35.2565C22.7149 34.2956 23.5835 32.1457 23.3771 29.5615C24.3417 30.7848 26.0102 33.8764 24.9679 36.4563C23.9256 39.0361 22.5141 40.4664 21.9386 40.8591C22.8344 41.2211 24.9506 41.4509 26.2491 39.4747C26.9278 40.3741 27.9169 42.7744 26.4447 45.1805C26.2673 45.4703 26.0576 45.7416 25.8211 45.9927C26.8545 45.7099 27.7844 45.298 28.6469 44.7506C30.1532 43.7946 31.5201 42.3838 32.8827 40.3838L33.0528 40.1295C29.5261 38.0731 27.9511 33.6862 29.5254 29.7897C30.0482 28.4957 30.8584 27.4041 31.8528 26.5586ZM43.1219 35.2831C41.816 38.5154 38.137 40.077 34.9048 38.7711C31.6725 37.4651 30.1109 33.7862 31.4168 30.5539C32.7227 27.3217 36.4017 25.7601 39.6339 27.066C42.8662 28.3719 44.4278 32.0508 43.1219 35.2831Z" fill="url(#paint69_radial_7649_61603)"/>
</g>
<g opacity="0.75">
<path d="M37.8965 29.1227C38.1126 28.5877 38.7215 28.3293 39.2564 28.5454C39.7913 28.7615 40.0498 29.3704 39.8337 29.9053L38.1118 34.167C37.8957 34.7019 37.2868 34.9604 36.7519 34.7443C36.217 34.5281 35.9586 33.9193 36.1747 33.3844L37.8965 29.1227Z" fill="url(#paint70_radial_7649_61603)"/>
<path d="M35.0794 36.0953C35.2955 35.5604 35.9044 35.3019 36.4393 35.518C36.9742 35.7342 37.2327 36.343 37.0165 36.8779C36.8004 37.4129 36.1916 37.6713 35.6566 37.4552C35.1217 37.2391 34.8633 36.6302 35.0794 36.0953Z" fill="url(#paint71_radial_7649_61603)"/>
<path fill-rule="evenodd" clip-rule="evenodd" d="M28.8861 12.5863L27.1287 10.7689L26.8317 13.2796C26.7048 14.3529 26.4155 16.5401 25.4765 18.7007C24.5409 20.8535 23.0154 22.8597 20.4689 23.7859C16.7829 25.1265 12.7199 27.6887 10.932 31.4757C10.0208 33.4058 9.72146 35.6182 10.3421 38.0462C10.9566 40.4499 12.4534 42.9937 15.0092 45.6644C16.1619 46.8998 19.3694 49.1358 23.5477 48.8022C25.9702 48.6088 28.0587 47.9664 29.9329 46.777C31.7972 45.5938 33.3843 43.9109 34.8691 41.7307L34.8747 41.7224L35.1366 41.3309C35.2 41.236 35.2482 41.1353 35.2816 41.0318C39.2504 42.0095 43.4375 39.9476 45.0133 36.0473C46.7413 31.7704 44.675 26.9025 40.3981 25.1745C38.2793 24.3185 36.0153 24.3937 34.06 25.2076C33.7766 22.5201 32.7714 16.6045 28.8861 12.5863ZM31.8528 26.5586C31.7886 26.4273 31.7475 26.2819 31.7351 26.1273C31.5926 24.3422 31.0443 19.9111 28.7577 16.3006C28.5259 17.3236 28.1857 18.4884 27.6776 19.6573C26.5877 22.1651 24.6704 24.8115 21.2893 26.0413C17.8613 27.2882 14.4983 29.5436 13.1023 32.5003C12.4216 33.9421 12.1896 35.583 12.6674 37.4518C12.9627 38.6073 13.5366 39.8759 14.4784 41.252C14.5381 40.775 14.6586 40.3086 14.8376 39.8657C15.9233 37.1784 18.1872 36.2175 20.451 35.2565C22.7149 34.2956 23.5835 32.1457 23.3771 29.5615C24.3417 30.7848 26.0102 33.8764 24.9679 36.4563C23.9256 39.0361 22.5141 40.4664 21.9386 40.8591C22.8344 41.2211 24.9506 41.4509 26.2491 39.4747C26.9278 40.3741 27.9169 42.7744 26.4447 45.1805C26.2673 45.4703 26.0576 45.7416 25.8211 45.9927C26.8545 45.7099 27.7844 45.298 28.6469 44.7506C30.1532 43.7946 31.5201 42.3838 32.8827 40.3838L33.0528 40.1295C29.5261 38.0731 27.9511 33.6862 29.5254 29.7897C30.0482 28.4957 30.8584 27.4041 31.8528 26.5586ZM43.1219 35.2831C41.816 38.5154 38.137 40.077 34.9048 38.7711C31.6725 37.4651 30.1109 33.7862 31.4168 30.5539C32.7227 27.3217 36.4017 25.7601 39.6339 27.066C42.8662 28.3719 44.4278 32.0508 43.1219 35.2831Z" fill="url(#paint72_radial_7649_61603)"/>
</g>
<defs>
<filter id="filter0_d_7649_61603" x="11.0151" y="11.7695" width="43.6086" height="46.0664" filterUnits="userSpaceOnUse" color-interpolation-filters="sRGB">
<feFlood flood-opacity="0" result="BackgroundImageFix"/>
<feColorMatrix in="SourceAlpha" type="matrix" values="0 0 0 0 0 0 0 0 0 0 0 0 0 0 0 0 0 0 127 0" result="hardAlpha"/>
<feOffset dx="4" dy="4"/>
<feGaussianBlur stdDeviation="2"/>
<feComposite in2="hardAlpha" operator="out"/>
<feColorMatrix type="matrix" values="0 0 0 0 0 0 0 0 0 0 0 0 0 0 0 0 0 0 0.33 0"/>
<feBlend mode="normal" in2="BackgroundImageFix" result="effect1_dropShadow_7649_61603"/>
<feBlend mode="normal" in="SourceGraphic" in2="effect1_dropShadow_7649_61603" result="shape"/>
</filter>
<linearGradient id="paint0_linear_7649_61603" x1="23.7397" y1="15.7184" x2="39.7876" y2="47.8407" gradientUnits="userSpaceOnUse">
<stop stop-color="#FFC68D"/>
<stop offset="1" stop-color="#9C0401"/>
</linearGradient>
<linearGradient id="paint1_linear_7649_61603" x1="23.7397" y1="15.7184" x2="39.7876" y2="47.8407" gradientUnits="userSpaceOnUse">
<stop stop-color="#FFC68D"/>
<stop offset="1" stop-color="#9C0401"/>
</linearGradient>
<linearGradient id="paint2_linear_7649_61603" x1="23.7397" y1="15.7184" x2="39.7876" y2="47.8407" gradientUnits="userSpaceOnUse">
<stop stop-color="#FFC68D"/>
<stop offset="1" stop-color="#9C0401"/>
</linearGradient>
<linearGradient id="paint3_linear_7649_61603" x1="26.2804" y1="12.7299" x2="27.6843" y2="11.326" gradientUnits="userSpaceOnUse">
<stop stop-color="#FFB665"/>
<stop offset="1" stop-color="#FFB665"/>
</linearGradient>
<linearGradient id="paint4_linear_7649_61603" x1="28.2155" y1="11.906" x2="28.2402" y2="11.8813" gradientUnits="userSpaceOnUse">
<stop stop-color="#C94000"/>
<stop offset="1" stop-color="#C94000"/>
</linearGradient>
<linearGradient id="paint5_linear_7649_61603" x1="28.4011" y1="12.0911" x2="28.4205" y2="12.0716" gradientUnits="userSpaceOnUse">
<stop stop-color="#C94000"/>
<stop offset="0.5" stop-color="#C94000"/>
<stop offset="1" stop-color="#C94000"/>
</linearGradient>
<linearGradient id="paint6_linear_7649_61603" x1="28.5248" y1="12.2264" x2="28.5495" y2="12.2016" gradientUnits="userSpaceOnUse">
<stop stop-color="#C94000"/>
<stop offset="1" stop-color="#C94000"/>
</linearGradient>
<linearGradient id="paint7_linear_7649_61603" x1="23.8446" y1="17.0709" x2="27.2328" y2="13.6828" gradientUnits="userSpaceOnUse">
<stop stop-color="#FFD698"/>
<stop offset="0.5" stop-color="#FFB868"/>
<stop offset="1" stop-color="#FFB665"/>
</linearGradient>
<linearGradient id="paint8_linear_7649_61603" x1="11.0578" y1="31.6038" x2="19.6712" y2="22.9905" gradientUnits="userSpaceOnUse">
<stop stop-color="#FFD99E"/>
<stop offset="0.5" stop-color="#FFE3B3"/>
<stop offset="1" stop-color="#FFD08E"/>
</linearGradient>
<linearGradient id="paint9_linear_7649_61603" x1="20.2966" y1="23.6142" x2="25.343" y2="18.5678" gradientUnits="userSpaceOnUse">
<stop stop-color="#FFD08E"/>
<stop offset="0.5" stop-color="#FFEAC3"/>
<stop offset="1" stop-color="#FFD698"/>
</linearGradient>
<linearGradient id="paint10_linear_7649_61603" x1="7.81682" y1="35.5225" x2="11.397" y2="31.9423" gradientUnits="userSpaceOnUse">
<stop stop-color="#FF8525"/>
<stop offset="0.5" stop-color="#FFB868"/>
<stop offset="1" stop-color="#FFD99E"/>
</linearGradient>
<linearGradient id="paint11_linear_7649_61603" x1="26.9805" y1="18.961" x2="29.1989" y2="16.7426" gradientUnits="userSpaceOnUse">
<stop stop-color="#FFD698"/>
<stop offset="0.5" stop-color="#FFC982"/>
<stop offset="1" stop-color="#FFC378"/>
</linearGradient>
<linearGradient id="paint12_linear_7649_61603" x1="13.3661" y1="32.767" x2="20.6891" y2="25.444" gradientUnits="userSpaceOnUse">
<stop stop-color="#FFD99E"/>
<stop offset="0.5" stop-color="#FFE6B8"/>
<stop offset="1" stop-color="#FFD08E"/>
</linearGradient>
<linearGradient id="paint13_linear_7649_61603" x1="20.9557" y1="25.7088" x2="27.3419" y2="19.3226" gradientUnits="userSpaceOnUse">
<stop stop-color="#FFD08E"/>
<stop offset="0.5" stop-color="#FFE8BF"/>
<stop offset="1" stop-color="#FFD698"/>
</linearGradient>
<linearGradient id="paint14_linear_7649_61603" x1="10.9076" y1="35.6926" x2="13.6008" y2="32.9994" gradientUnits="userSpaceOnUse">
<stop stop-color="#FF8525"/>
<stop offset="0.5" stop-color="#FFB969"/>
<stop offset="1" stop-color="#FFD99E"/>
</linearGradient>
<linearGradient id="paint15_linear_7649_61603" x1="27.5906" y1="18.7408" x2="31.3143" y2="15.0172" gradientUnits="userSpaceOnUse">
<stop stop-color="#FF9A3E"/>
<stop offset="0.5" stop-color="#FF9133"/>
<stop offset="1" stop-color="#C94000"/>
</linearGradient>
<linearGradient id="paint16_linear_7649_61603" x1="26.9854" y1="21.3781" x2="30.41" y2="17.9535" gradientUnits="userSpaceOnUse">
<stop stop-color="#FF9D43"/>
<stop offset="0.5" stop-color="#FF973B"/>
<stop offset="1" stop-color="#ED5600"/>
</linearGradient>
<linearGradient id="paint17_linear_7649_61603" x1="12.912" y1="39.688" x2="13.9066" y2="38.6934" gradientUnits="userSpaceOnUse">
<stop stop-color="#E65200"/>
<stop offset="0.5" stop-color="#FF6906"/>
<stop offset="1" stop-color="#FF8525"/>
</linearGradient>
<linearGradient id="paint18_linear_7649_61603" x1="19.2474" y1="34.0549" x2="23.558" y2="29.7444" gradientUnits="userSpaceOnUse">
<stop stop-color="#FFD597"/>
<stop offset="0.5" stop-color="#FFD394"/>
<stop offset="1" stop-color="#FF9D43"/>
</linearGradient>
<linearGradient id="paint19_linear_7649_61603" x1="11.1159" y1="41.7725" x2="12.5914" y2="40.2969" gradientUnits="userSpaceOnUse">
<stop stop-color="#CA4000"/>
<stop offset="0.5" stop-color="#F25A00"/>
<stop offset="1" stop-color="#FF8525"/>
</linearGradient>
<linearGradient id="paint20_linear_7649_61603" x1="15.1167" y1="40.1471" x2="20.228" y2="35.0357" gradientUnits="userSpaceOnUse">
<stop stop-color="#FFD394"/>
<stop offset="0.5" stop-color="#FFD597"/>
<stop offset="1" stop-color="#FFD597"/>
</linearGradient>
<linearGradient id="paint21_linear_7649_61603" x1="14.5119" y1="41.2873" x2="15.3846" y2="40.4146" gradientUnits="userSpaceOnUse">
<stop stop-color="#FFB766"/>
<stop offset="0.5" stop-color="#FFC67D"/>
<stop offset="1" stop-color="#FFD394"/>
</linearGradient>
<linearGradient id="paint22_linear_7649_61603" x1="22.0036" y1="33.4938" x2="24.6556" y2="30.8419" gradientUnits="userSpaceOnUse">
<stop stop-color="#FFD394"/>
<stop offset="0.5" stop-color="#F95F00"/>
<stop offset="1" stop-color="#DB4A00"/>
</linearGradient>
<linearGradient id="paint23_linear_7649_61603" x1="32.2187" y1="26.9273" x2="32.3755" y2="26.7705" gradientUnits="userSpaceOnUse">
<stop stop-color="#FF6401"/>
<stop offset="0.5" stop-color="#FF8120"/>
<stop offset="1" stop-color="#FF9D43"/>
</linearGradient>
<linearGradient id="paint24_linear_7649_61603" x1="29.3322" y1="29.597" x2="32.1115" y2="26.8177" gradientUnits="userSpaceOnUse">
<stop stop-color="#FFD394"/>
<stop offset="0.5" stop-color="#FFE9C1"/>
<stop offset="1" stop-color="#FFEECC"/>
</linearGradient>
<linearGradient id="paint25_linear_7649_61603" x1="21.4078" y1="40.3295" x2="25.1239" y2="36.6134" gradientUnits="userSpaceOnUse">
<stop stop-color="#FFE6BA"/>
<stop offset="0.5" stop-color="#FFF3D9"/>
<stop offset="1" stop-color="#FFD394"/>
</linearGradient>
<linearGradient id="paint26_linear_7649_61603" x1="36.578" y1="27.727" x2="39.7635" y2="24.5415" gradientUnits="userSpaceOnUse">
<stop stop-color="#FFD496"/>
<stop offset="0.5" stop-color="#FFAC56"/>
<stop offset="1" stop-color="#FF700D"/>
</linearGradient>
<linearGradient id="paint27_linear_7649_61603" x1="23.37" y1="42.2908" x2="26.2175" y2="39.4433" gradientUnits="userSpaceOnUse">
<stop stop-color="#FF700D"/>
<stop offset="0.5" stop-color="#FF993E"/>
<stop offset="1" stop-color="#FFE5B7"/>
</linearGradient>
<linearGradient id="paint28_linear_7649_61603" x1="32.9468" y1="32.0853" x2="38.7994" y2="26.2327" gradientUnits="userSpaceOnUse">
<stop stop-color="#FFD394"/>
<stop offset="0.5" stop-color="#FFD597"/>
<stop offset="1" stop-color="#FF700D"/>
</linearGradient>
<linearGradient id="paint29_linear_7649_61603" x1="27.0853" y1="34.5512" x2="30.6851" y2="30.9514" gradientUnits="userSpaceOnUse">
<stop stop-color="#C63E00"/>
<stop offset="0.5" stop-color="#FF8828"/>
<stop offset="1" stop-color="#FFD394"/>
</linearGradient>
<linearGradient id="paint30_linear_7649_61603" x1="29.7189" y1="34.2988" x2="32.4394" y2="31.5782" gradientUnits="userSpaceOnUse">
<stop stop-color="#C63E00"/>
<stop offset="0.5" stop-color="#FF8828"/>
<stop offset="1" stop-color="#FFD394"/>
</linearGradient>
<linearGradient id="paint31_linear_7649_61603" x1="18.6278" y1="49.2828" x2="21.3281" y2="46.5826" gradientUnits="userSpaceOnUse">
<stop stop-color="#CC4100"/>
<stop offset="0.5" stop-color="#E55100"/>
<stop offset="1" stop-color="#FFB25F"/>
</linearGradient>
<linearGradient id="paint32_linear_7649_61603" x1="38.6498" y1="29.8763" x2="39.6183" y2="28.9078" gradientUnits="userSpaceOnUse">
<stop stop-color="#FFD394"/>
<stop offset="0.5" stop-color="#FFD597"/>
<stop offset="1" stop-color="#FF700D"/>
</linearGradient>
<linearGradient id="paint33_linear_7649_61603" x1="41.9796" y1="26.7577" x2="42.4506" y2="26.2867" gradientUnits="userSpaceOnUse">
<stop stop-color="#FF700D"/>
<stop offset="0.5" stop-color="#E75300"/>
<stop offset="1" stop-color="#C63E00"/>
</linearGradient>
<linearGradient id="paint34_linear_7649_61603" x1="39.9789" y1="29.2697" x2="40.0378" y2="29.2108" gradientUnits="userSpaceOnUse">
<stop stop-color="#FF700D"/>
<stop offset="0.5" stop-color="#E75300"/>
<stop offset="1" stop-color="#C63E00"/>
</linearGradient>
<linearGradient id="paint35_linear_7649_61603" x1="35.252" y1="32.4627" x2="38.2438" y2="29.4709" gradientUnits="userSpaceOnUse">
<stop stop-color="#FFD394"/>
<stop offset="1" stop-color="#FFD394"/>
</linearGradient>
<linearGradient id="paint36_linear_7649_61603" x1="40.9756" y1="28.4085" x2="41.3316" y2="28.0525" gradientUnits="userSpaceOnUse">
<stop stop-color="#FF700D"/>
<stop offset="0.5" stop-color="#E75300"/>
<stop offset="1" stop-color="#C63E00"/>
</linearGradient>
<linearGradient id="paint37_linear_7649_61603" x1="24.4325" y1="43.1691" x2="27.1876" y2="40.4139" gradientUnits="userSpaceOnUse">
<stop stop-color="#FFE2B1"/>
<stop offset="0.5" stop-color="#FF6F0C"/>
<stop offset="1" stop-color="#DE4D00"/>
</linearGradient>
<linearGradient id="paint38_linear_7649_61603" x1="39.8611" y1="29.9339" x2="40.3113" y2="29.4837" gradientUnits="userSpaceOnUse">
<stop stop-color="#FFD394"/>
<stop offset="0.5" stop-color="#FF8828"/>
<stop offset="1" stop-color="#C63E00"/>
</linearGradient>
<linearGradient id="paint39_linear_7649_61603" x1="36.3941" y1="34.5051" x2="36.8443" y2="34.0549" gradientUnits="userSpaceOnUse">
<stop stop-color="#C63E00"/>
<stop offset="0.5" stop-color="#FF8828"/>
<stop offset="1" stop-color="#FFD394"/>
</linearGradient>
<linearGradient id="paint40_linear_7649_61603" x1="37.1892" y1="33.2459" x2="40.181" y2="30.2541" gradientUnits="userSpaceOnUse">
<stop stop-color="#FFD394"/>
<stop offset="1" stop-color="#FFD394"/>
</linearGradient>
<linearGradient id="paint41_linear_7649_61603" x1="37.1266" y1="35.2384" x2="37.1855" y2="35.1795" gradientUnits="userSpaceOnUse">
<stop stop-color="#C63E00"/>
<stop offset="0.5" stop-color="#E75300"/>
<stop offset="1" stop-color="#FF700D"/>
</linearGradient>
<linearGradient id="paint42_linear_7649_61603" x1="35.8324" y1="36.849" x2="36.8009" y2="35.8804" gradientUnits="userSpaceOnUse">
<stop stop-color="#FFD394"/>
<stop offset="0.5" stop-color="#FFD597"/>
<stop offset="1" stop-color="#FF700D"/>
</linearGradient>
<linearGradient id="paint43_linear_7649_61603" x1="32.5599" y1="40.0255" x2="32.7535" y2="39.8318" gradientUnits="userSpaceOnUse">
<stop stop-color="#C63E00"/>
<stop offset="0.5" stop-color="#DC4B00"/>
<stop offset="1" stop-color="#F35B00"/>
</linearGradient>
<linearGradient id="paint44_linear_7649_61603" x1="26.2349" y1="46.4082" x2="26.9528" y2="45.6903" gradientUnits="userSpaceOnUse">
<stop stop-color="#FFF2D5"/>
<stop offset="0.5" stop-color="#FFEBC4"/>
<stop offset="1" stop-color="#FFE2B1"/>
</linearGradient>
<linearGradient id="paint45_linear_7649_61603" x1="35.2984" y1="37.216" x2="35.7486" y2="36.7658" gradientUnits="userSpaceOnUse">
<stop stop-color="#C63E00"/>
<stop offset="0.5" stop-color="#FF8828"/>
<stop offset="1" stop-color="#FFD394"/>
</linearGradient>
<linearGradient id="paint46_linear_7649_61603" x1="37.5429" y1="35.5374" x2="38.5115" y2="34.5688" gradientUnits="userSpaceOnUse">
<stop stop-color="#FF700D"/>
<stop offset="0.5" stop-color="#FFD597"/>
<stop offset="1" stop-color="#FFD394"/>
</linearGradient>
<linearGradient id="paint47_linear_7649_61603" x1="34.147" y1="38.7269" x2="34.503" y2="38.3709" gradientUnits="userSpaceOnUse">
<stop stop-color="#C63E00"/>
<stop offset="0.5" stop-color="#E75300"/>
<stop offset="1" stop-color="#FF700D"/>
</linearGradient>
<linearGradient id="paint48_linear_7649_61603" x1="37.1618" y1="36.2423" x2="37.2207" y2="36.1834" gradientUnits="userSpaceOnUse">
<stop stop-color="#FF700D"/>
<stop offset="0.5" stop-color="#E75300"/>
<stop offset="1" stop-color="#C63E00"/>
</linearGradient>
<linearGradient id="paint49_linear_7649_61603" x1="26.7986" y1="46.9701" x2="28.8325" y2="44.9362" gradientUnits="userSpaceOnUse">
<stop stop-color="#FFC77F"/>
<stop offset="0.5" stop-color="#FFD69A"/>
<stop offset="1" stop-color="#FFE4B4"/>
</linearGradient>
<linearGradient id="paint50_linear_7649_61603" x1="36.0309" y1="37.9494" x2="36.0898" y2="37.8905" gradientUnits="userSpaceOnUse">
<stop stop-color="#C63E00"/>
<stop offset="0.5" stop-color="#E75300"/>
<stop offset="1" stop-color="#FF700D"/>
</linearGradient>
<linearGradient id="paint51_linear_7649_61603" x1="37.0439" y1="36.9066" x2="37.4942" y2="36.4563" gradientUnits="userSpaceOnUse">
<stop stop-color="#FFD394"/>
<stop offset="0.5" stop-color="#FF8828"/>
<stop offset="1" stop-color="#C63E00"/>
</linearGradient>
<linearGradient id="paint52_linear_7649_61603" x1="33.4153" y1="40.9182" x2="33.6275" y2="40.7059" gradientUnits="userSpaceOnUse">
<stop stop-color="#FFE5B8"/>
<stop offset="1" stop-color="#FFE5B8"/>
</linearGradient>
<linearGradient id="paint53_linear_7649_61603" x1="28.5602" y1="44.6657" x2="32.8614" y2="40.3645" gradientUnits="userSpaceOnUse">
<stop stop-color="#FFE4B4"/>
<stop offset="0.5" stop-color="#FFF3D8"/>
<stop offset="1" stop-color="#FFE6B9"/>
</linearGradient>
<linearGradient id="paint54_linear_7649_61603" x1="36.4484" y1="38.2483" x2="37.417" y2="37.2798" gradientUnits="userSpaceOnUse">
<stop stop-color="#FF700D"/>
<stop offset="0.5" stop-color="#FFD597"/>
<stop offset="1" stop-color="#FFD394"/>
</linearGradient>
<linearGradient id="paint55_linear_7649_61603" x1="40.2661" y1="32.4279" x2="42.9866" y2="29.7073" gradientUnits="userSpaceOnUse">
<stop stop-color="#FFD394"/>
<stop offset="0.5" stop-color="#FF8828"/>
<stop offset="1" stop-color="#C63E00"/>
</linearGradient>
<linearGradient id="paint56_linear_7649_61603" x1="25.392" y1="50.6475" x2="29.5973" y2="46.4422" gradientUnits="userSpaceOnUse">
<stop stop-color="#FFB25F"/>
<stop offset="0.5" stop-color="#FFCB85"/>
<stop offset="1" stop-color="#FFE4B4"/>
</linearGradient>
<linearGradient id="paint57_linear_7649_61603" x1="41.0409" y1="32.0752" x2="44.6407" y2="28.4754" gradientUnits="userSpaceOnUse">
<stop stop-color="#FFD394"/>
<stop offset="0.5" stop-color="#FF8828"/>
<stop offset="1" stop-color="#C63E00"/>
</linearGradient>
<linearGradient id="paint58_linear_7649_61603" x1="36.665" y1="40.5324" x2="42.5176" y2="34.6798" gradientUnits="userSpaceOnUse">
<stop stop-color="#FF700D"/>
<stop offset="0.5" stop-color="#FFD597"/>
<stop offset="1" stop-color="#FFD394"/>
</linearGradient>
<linearGradient id="paint59_linear_7649_61603" x1="35.6377" y1="41.834" x2="35.8598" y2="41.612" gradientUnits="userSpaceOnUse">
<stop stop-color="#FFE5B8"/>
<stop offset="0.5" stop-color="#FFD99F"/>
<stop offset="1" stop-color="#FFCC87"/>
</linearGradient>
<linearGradient id="paint60_linear_7649_61603" x1="35.3713" y1="42.2204" x2="35.698" y2="41.8937" gradientUnits="userSpaceOnUse">
<stop stop-color="#FFE5B8"/>
<stop offset="1" stop-color="#FFE5B8"/>
</linearGradient>
<linearGradient id="paint61_linear_7649_61603" x1="35.4665" y1="42.3288" x2="35.4734" y2="42.3218" gradientUnits="userSpaceOnUse">
<stop stop-color="#FFE6B9"/>
<stop offset="1" stop-color="#FFE6B9"/>
</linearGradient>
<linearGradient id="paint62_linear_7649_61603" x1="29.7549" y1="46.6008" x2="34.7462" y2="41.6095" gradientUnits="userSpaceOnUse">
<stop stop-color="#FFE4B4"/>
<stop offset="0.5" stop-color="#FFF2D5"/>
<stop offset="1" stop-color="#FFE6B9"/>
</linearGradient>
<linearGradient id="paint63_linear_7649_61603" x1="36.8297" y1="42.5818" x2="44.1878" y2="35.2236" gradientUnits="userSpaceOnUse">
<stop stop-color="#FF8626"/>
<stop offset="0.5" stop-color="#FFDAA1"/>
<stop offset="1" stop-color="#FFD394"/>
</linearGradient>
<linearGradient id="paint64_linear_7649_61603" x1="22.7394" y1="14.7184" x2="38.7874" y2="46.8407" gradientUnits="userSpaceOnUse">
<stop stop-color="#FFC68D"/>
<stop offset="1" stop-color="#9C0401"/>
</linearGradient>
<linearGradient id="paint65_linear_7649_61603" x1="22.7394" y1="14.7184" x2="38.7874" y2="46.8407" gradientUnits="userSpaceOnUse">
<stop stop-color="#FFC68D"/>
<stop offset="1" stop-color="#9C0401"/>
</linearGradient>
<linearGradient id="paint66_linear_7649_61603" x1="22.7394" y1="14.7184" x2="38.7874" y2="46.8407" gradientUnits="userSpaceOnUse">
<stop stop-color="#FFC68D"/>
<stop offset="1" stop-color="#9C0401"/>
</linearGradient>
<radialGradient id="paint67_radial_7649_61603" cx="0" cy="0" r="1" gradientUnits="userSpaceOnUse" gradientTransform="translate(24.5 10.499) rotate(73.4429) scale(19.3003 19.1526)">
<stop stop-color="#D90400"/>
<stop offset="1" stop-color="#FFC68D" stop-opacity="0"/>
</radialGradient>
<radialGradient id="paint68_radial_7649_61603" cx="0" cy="0" r="1" gradientUnits="userSpaceOnUse" gradientTransform="translate(24.5 10.499) rotate(73.4429) scale(19.3003 19.1526)">
<stop stop-color="#D90400"/>
<stop offset="1" stop-color="#FFC68D" stop-opacity="0"/>
</radialGradient>
<radialGradient id="paint69_radial_7649_61603" cx="0" cy="0" r="1" gradientUnits="userSpaceOnUse" gradientTransform="translate(24.5 10.499) rotate(73.4429) scale(19.3003 19.1526)">
<stop stop-color="#D90400"/>
<stop offset="1" stop-color="#FFC68D" stop-opacity="0"/>
</radialGradient>
<radialGradient id="paint70_radial_7649_61603" cx="0" cy="0" r="1" gradientUnits="userSpaceOnUse" gradientTransform="translate(23.5 29.999) rotate(126.87) scale(5 4.96174)">
<stop stop-color="#FFF1B9"/>
<stop offset="1" stop-color="#FFC68D" stop-opacity="0"/>
</radialGradient>
<radialGradient id="paint71_radial_7649_61603" cx="0" cy="0" r="1" gradientUnits="userSpaceOnUse" gradientTransform="translate(23.5 29.999) rotate(126.87) scale(5 4.96174)">
<stop stop-color="#FFF1B9"/>
<stop offset="1" stop-color="#FFC68D" stop-opacity="0"/>
</radialGradient>
<radialGradient id="paint72_radial_7649_61603" cx="0" cy="0" r="1" gradientUnits="userSpaceOnUse" gradientTransform="translate(23.5 29.999) rotate(126.87) scale(5 4.96174)">
<stop stop-color="#FFF1B9"/>
<stop offset="1" stop-color="#FFC68D" stop-opacity="0"/>
</radialGradient>
</defs>
</svg>
