<svg width="20" height="20" viewBox="0 0 20 20" fill="none" xmlns="http://www.w3.org/2000/svg">
<path fill-rule="evenodd" clip-rule="evenodd" d="M5.61284 1.98816C5.83336 1.76554 5.83167 1.4063 5.60905 1.18578C5.38643 0.96525 5.02719 0.966946 4.80667 1.18956C3.52123 2.48719 2.72656 4.26731 2.72656 6.23103C2.72656 8.19475 3.52123 9.97486 4.80667 11.2725C5.02719 11.4951 5.38643 11.4968 5.60905 11.2763C5.83167 11.0558 5.83336 10.6965 5.61284 10.4739C4.52806 9.37883 3.86131 7.88195 3.86131 6.23103C3.86131 4.5801 4.52806 3.08323 5.61284 1.98816ZM15.1919 1.18956C14.9714 0.966946 14.6121 0.96525 14.3895 1.18578C14.1669 1.4063 14.1652 1.76554 14.3857 1.98816C15.4705 3.08323 16.1373 4.5801 16.1373 6.23103C16.1373 7.88195 15.4705 9.37883 14.3857 10.4739C14.1652 10.6965 14.1669 11.0558 14.3895 11.2763C14.6121 11.4968 14.9714 11.4951 15.1919 11.2725C16.4774 9.97486 17.272 8.19474 17.272 6.23103C17.272 4.26731 16.4774 2.48719 15.1919 1.18956ZM7.71342 3.22061C7.95073 3.42524 7.97722 3.7835 7.77259 4.02081C7.26895 4.60488 6.95702 5.38986 6.95702 6.25924C6.95702 7.10356 7.25122 7.86828 7.72953 8.44668C7.92922 8.68816 7.89534 9.04581 7.65386 9.2455C7.41238 9.44519 7.05474 9.41131 6.85504 9.16983C6.20981 8.38957 5.82227 7.36958 5.82227 6.25924C5.82227 5.11595 6.23315 4.06843 6.91321 3.27978C7.11784 3.04247 7.47611 3.01598 7.71342 3.22061ZM12.3466 3.27299C12.5881 3.0733 12.9457 3.10718 13.1454 3.34866C13.7906 4.12892 14.1782 5.14891 14.1782 6.25924C14.1782 7.36958 13.7906 8.38957 13.1454 9.16983C12.9457 9.41131 12.5881 9.44519 12.3466 9.2455C12.1051 9.04581 12.0712 8.68816 12.2709 8.44668C12.7492 7.86828 13.0434 7.10356 13.0434 6.25924C13.0434 5.41493 12.7492 4.65021 12.2709 4.07181C12.0712 3.83033 12.1051 3.47268 12.3466 3.27299ZM10.5494 7.95161C11.2777 7.71911 11.8051 7.0369 11.8051 6.23151C11.8051 5.23447 10.9968 4.42622 9.99979 4.42622C9.00276 4.42622 8.19451 5.23447 8.19451 6.23151C8.19451 7.0369 8.72191 7.71911 9.45019 7.95161H9.44131V12.4207H7.76412H6.64657V13.5383V14.6562H4.41185H3.29429V15.7737V18.0088V19.1264H4.41185H6.64697H7.76453V19.1261H8.88201V19.1274H9.99957H11.1171V19.1261H12.2344H12.2352V19.1264H13.3527H15.5878H16.7054V18.0088V15.7737V14.6562H15.5878H13.3527H13.3519V13.5383V12.4207H12.2344H10.5589V7.95161H10.5494ZM12.2344 18.0085H11.1171V16.8923V15.7748H9.99957H8.88201V16.8923V18.0085H7.76453V15.7737V14.6562H7.76412V13.5383H9.44131V13.5394H10.5589V13.5383H12.2344V18.0085ZM6.64657 15.7737H4.41185V18.0088H6.64657V18.0085V15.7737ZM13.3527 15.7737H15.5878V18.0088H13.3527V15.7737Z" fill="white"/>
</svg>
