<svg width="58" height="64" viewBox="0 0 58 64" fill="none" xmlns="http://www.w3.org/2000/svg">
<g filter="url(#filter0_d_7649_61673)">
<path fill-rule="evenodd" clip-rule="evenodd" d="M20.3257 14.1708C19.324 13.7661 18.1839 14.25 17.7792 15.2517L12.6498 27.9477C11.3142 27.4081 9.7941 28.0534 9.2545 29.389L7.30043 34.2256C6.76082 35.5611 7.40608 37.0813 8.74164 37.6209L37.7606 49.3455C39.0962 49.8851 40.6163 49.2399 41.1559 47.9043L43.11 43.0677C43.6496 41.7321 43.0043 40.212 41.6688 39.6724L16.2772 29.4133L21.4066 16.7173C21.8113 15.7156 21.3274 14.5755 20.3257 14.1708ZM12.8819 30.8546C12.2141 30.5847 11.454 30.9074 11.1842 31.5752L10.2072 33.9935C9.93739 34.6613 10.26 35.4213 10.9278 35.6911L20.6008 39.5993C21.2686 39.8692 22.0286 39.5465 22.2984 38.8787L23.2755 36.4604C23.5453 35.7926 23.2226 35.0326 22.5549 34.7628L12.8819 30.8546ZM29.0647 43.019C30.4002 43.5586 31.9203 42.9134 32.46 41.5778C32.9996 40.2422 32.3543 38.7221 31.0187 38.1825C29.6832 37.6428 28.1631 38.2881 27.6235 39.6237C27.0839 40.9593 27.7291 42.4794 29.0647 43.019ZM39.7147 44.509C39.1751 45.8445 37.655 46.4898 36.3194 45.9502C34.9838 45.4106 34.3386 43.8904 34.8782 42.5548C35.4178 41.2193 36.9379 40.574 38.2735 41.1136C39.609 41.6532 40.2543 43.1734 39.7147 44.509Z" fill="url(#paint0_linear_7649_61673)" fill-opacity="0.08" shape-rendering="crispEdges"/>
<path d="M49.9492 26.1397L45.1127 24.1856C43.5495 28.0548 46.383 30.3249 47.9952 30.9763L49.9492 26.1397Z" fill="url(#paint1_linear_7649_61673)" fill-opacity="0.08" shape-rendering="crispEdges"/>
<path d="M37.858 21.2544L41.4854 22.72C39.5313 27.5566 41.6931 32.6496 46.5296 34.6037L45.0641 38.2311C37.8093 35.3 34.9269 28.5093 37.858 21.2544Z" fill="url(#paint2_linear_7649_61673)" fill-opacity="0.08" shape-rendering="crispEdges"/>
</g>
<path fill-rule="evenodd" clip-rule="evenodd" d="M21.8215 15.4433C21.6413 15.2632 21.4228 15.1155 21.1717 15.0141C20.17 14.6093 19.0299 15.0933 18.6252 16.095L13.4958 28.791C12.1602 28.2514 10.6401 28.8967 10.1005 30.2322L8.14642 35.0688C7.74208 36.0696 8.00303 37.174 8.72118 37.8919C8.96143 38.132 9.25284 38.3289 9.58763 38.4642L38.6066 50.1888C39.9422 50.7284 41.4623 50.0832 42.0019 48.7476L43.956 43.911C44.3603 42.9102 44.0994 41.8058 43.3812 41.0879C43.141 40.8478 42.8495 40.6509 42.5148 40.5156L17.1231 30.2566L22.2526 17.5606C22.5558 16.81 22.3601 15.9817 21.8215 15.4433ZM13.7279 31.6978C13.0601 31.428 12.3 31.7507 12.0302 32.4184L11.0532 34.8367C10.851 35.3371 10.9815 35.8893 11.3406 36.2483C11.4607 36.3683 11.6064 36.4668 11.7738 36.5344L21.4468 40.4426C22.1146 40.7124 22.8746 40.3898 23.1444 39.722L24.1215 37.3037C24.3236 36.8033 24.1932 36.2511 23.8341 35.8922C23.714 35.7721 23.5683 35.6737 23.4009 35.606L13.7279 31.6978ZM29.0442 43.29C29.2845 43.5302 29.5759 43.727 29.9107 43.8623C31.2462 44.4019 32.7663 43.7567 33.3059 42.4211C33.7103 41.4203 33.4493 40.3159 32.7312 39.598C32.4909 39.3579 32.1995 39.161 31.8647 39.0257C30.5292 38.4861 29.009 39.1314 28.4694 40.467C28.0651 41.4677 28.3261 42.5722 29.0442 43.29ZM39.9868 42.53C40.7043 43.2479 40.9649 44.3518 40.5607 45.3522C40.0211 46.6878 38.501 47.3331 37.1654 46.7935C36.8302 46.658 36.5385 46.4609 36.2981 46.2203C35.5806 45.5025 35.32 44.3985 35.7242 43.3981C36.2638 42.0625 37.7839 41.4173 39.1195 41.9569C39.4547 42.0923 39.7463 42.2895 39.9868 42.53Z" fill="#FFF599"/>
<path d="M50.7952 26.9829L45.9587 25.0288C44.9413 27.5471 45.7863 29.3879 46.9448 30.546C47.5664 31.1673 48.2782 31.5921 48.8412 31.8195L50.7952 26.9829Z" fill="#FFF599"/>
<path d="M40.997 35.9017C37.5187 32.4219 36.5686 27.383 38.704 22.0977L42.3314 23.5633C40.8835 27.1469 41.6953 30.8713 44.1804 33.3554C45.0493 34.2239 46.1227 34.9407 47.3756 35.447L45.91 39.0744C43.9405 38.2786 42.2932 37.1984 40.997 35.9017Z" fill="#FFF599"/>
<path d="M19.3275 13.1703C18.3258 12.7656 17.1857 13.2495 16.781 14.2512L18.6253 16.0955C19.03 15.0938 20.1701 14.6099 21.1717 15.0146L19.3275 13.1703Z" fill="url(#paint3_linear_7649_61673)"/>
<path d="M19.9763 13.5991C19.7961 13.419 19.5775 13.2714 19.3264 13.1699L21.1707 15.0142C21.4218 15.1157 21.6403 15.2633 21.8205 15.4434L19.9763 13.5991Z" fill="url(#paint4_linear_7649_61673)"/>
<path d="M16.7808 14.252L11.6514 26.948L13.4956 28.7923L18.6251 16.0962L16.7808 14.252Z" fill="url(#paint5_linear_7649_61673)"/>
<path d="M20.4086 15.7169C20.7117 14.9666 20.5163 14.1386 19.9782 13.6002L21.8218 15.4439C22.3604 15.9823 22.5561 16.8106 22.2529 17.5612L20.4086 15.7169Z" fill="url(#paint6_linear_7649_61673)"/>
<path d="M11.6504 26.9465C10.3149 26.4069 8.79473 27.0521 8.25513 28.3877L10.0994 30.232C10.639 28.8964 12.1591 28.2511 13.4947 28.7908L11.6504 26.9465Z" fill="url(#paint7_linear_7649_61673)"/>
<path d="M8.25583 28.3887L6.30176 33.2253L8.14601 35.0695L10.1001 30.233L8.25583 28.3887Z" fill="url(#paint8_linear_7649_61673)"/>
<path d="M15.2791 28.4128L20.4085 15.7168L22.2527 17.5611L17.1233 30.2571L15.2791 28.4128Z" fill="url(#paint9_linear_7649_61673)"/>
<path opacity="0.33" d="M15.2791 28.4128L20.4085 15.7168L22.2527 17.5611L17.1233 30.2571L15.2791 28.4128Z" fill="url(#paint10_linear_7649_61673)"/>
<path d="M6.30169 33.2246C5.89735 34.2254 6.1583 35.3298 6.87645 36.0477L8.71989 37.8911C8.00235 37.1733 7.74176 36.0693 8.14594 35.0689L6.30169 33.2246Z" fill="url(#paint11_linear_7649_61673)"/>
<path d="M11.8837 29.8531C11.2159 29.5833 10.4558 29.9059 10.186 30.5737L12.0303 32.418C12.3001 31.7502 13.0601 31.4276 13.7279 31.6974L11.8837 29.8531Z" fill="url(#paint12_linear_7649_61673)"/>
<path d="M10.1848 30.5742L9.20776 32.9925L11.052 34.8368L12.0291 32.4185L10.1848 30.5742Z" fill="url(#paint13_linear_7649_61673)"/>
<path d="M9.20761 32.9941C9.00544 33.4945 9.13591 34.0467 9.49499 34.4057L11.3388 36.2495C10.9801 35.8906 10.8498 35.3386 11.0519 34.8384L9.20761 32.9941Z" fill="url(#paint14_linear_7649_61673)"/>
<path d="M6.87622 36.0488C7.11647 36.289 7.40788 36.4859 7.74267 36.6211L9.58692 38.4654C9.25213 38.3301 8.96072 38.1333 8.72047 37.8931L6.87622 36.0488Z" fill="url(#paint15_linear_7649_61673)"/>
<path d="M9.49609 34.4043C9.61622 34.5244 9.76192 34.6228 9.92932 34.6904L11.7736 36.5347C11.6062 36.4671 11.4605 36.3687 11.3403 36.2486L9.49609 34.4043Z" fill="url(#paint16_linear_7649_61673)"/>
<path d="M21.5561 33.7617L11.8831 29.8535L13.7273 31.6978L23.4003 35.606L21.5561 33.7617Z" fill="url(#paint17_linear_7649_61673)"/>
<path d="M9.92993 34.6914L19.6029 38.5996L21.4472 40.4439L11.7742 36.5357L9.92993 34.6914Z" fill="url(#paint18_linear_7649_61673)"/>
<path d="M21.9899 34.0498C21.8697 33.9297 21.724 33.8313 21.5566 33.7637L23.4009 35.608C23.5683 35.6756 23.714 35.774 23.8341 35.8941L21.9899 34.0498Z" fill="url(#paint19_linear_7649_61673)"/>
<path d="M22.2766 35.4604C22.4787 34.9602 22.3484 34.4082 21.9897 34.0492L23.8335 35.8931C24.1926 36.252 24.3231 36.8042 24.1209 37.3046L22.2766 35.4604Z" fill="url(#paint20_linear_7649_61673)"/>
<path d="M21.3003 37.8792L22.2773 35.4609L24.1216 37.3052L23.1445 39.7235L21.3003 37.8792Z" fill="url(#paint21_linear_7649_61673)"/>
<path d="M19.6023 38.5976C20.2701 38.8674 21.0301 38.5447 21.2999 37.877L23.1442 39.7212C22.8744 40.389 22.1143 40.7117 21.4465 40.4419L19.6023 38.5976Z" fill="url(#paint22_linear_7649_61673)"/>
<path d="M36.8586 20.2539L40.486 21.7195L42.3303 23.5638L38.7029 22.0982L36.8586 20.2539Z" fill="url(#paint23_linear_7649_61673)"/>
<path d="M40.6707 38.6712L15.2791 28.4121L17.1233 30.2564L42.5149 40.5154L40.6707 38.6712Z" fill="url(#paint24_linear_7649_61673)"/>
<path d="M7.74243 36.6211L36.7614 48.3457L38.6057 50.19L9.58668 38.4654L7.74243 36.6211Z" fill="url(#paint25_linear_7649_61673)"/>
<path d="M39.152 34.0579C35.6737 30.5782 34.7236 25.5392 36.8589 20.2539L38.7032 22.0982C36.5678 27.3835 37.5179 32.4224 40.9962 35.9022L39.152 34.0579Z" fill="url(#paint26_linear_7649_61673)"/>
<path d="M30.0203 37.1828C28.6847 36.6432 27.1646 37.2885 26.625 38.624L28.4693 40.4683C29.0089 39.1327 30.529 38.4875 31.8645 39.0271L30.0203 37.1828Z" fill="url(#paint27_linear_7649_61673)"/>
<path d="M26.6249 38.623C26.2206 39.6238 26.4815 40.7283 27.1997 41.4461L29.0431 43.2896C28.3256 42.5717 28.065 41.4677 28.4692 40.4673L26.6249 38.623Z" fill="url(#paint28_linear_7649_61673)"/>
<path d="M30.8865 37.7539C30.6462 37.5138 30.3548 37.3169 30.02 37.1816L31.8643 39.0259C32.1991 39.1612 32.4905 39.3581 32.7307 39.5982L30.8865 37.7539Z" fill="url(#paint29_linear_7649_61673)"/>
<path d="M40.4869 21.7188C39.039 25.3024 39.8508 29.0268 42.3359 31.5109L44.1773 33.3523C41.6944 30.8682 40.8838 27.1453 42.3311 23.563L40.4869 21.7188Z" fill="url(#paint30_linear_7649_61673)"/>
<path d="M27.1992 41.4473C27.4395 41.6874 27.7309 41.8843 28.0657 42.0196L29.9099 43.8638C29.5751 43.7286 29.2837 43.5317 29.0435 43.2915L27.1992 41.4473Z" fill="url(#paint31_linear_7649_61673)"/>
<path d="M31.4612 40.577C31.8654 39.5765 31.6048 38.4726 30.8873 37.7547L32.7307 39.5982C33.4489 40.316 33.7098 41.4205 33.3055 42.4212L31.4612 40.577Z" fill="url(#paint32_linear_7649_61673)"/>
<path d="M44.1132 23.1855C43.0958 25.7038 43.9407 27.5446 45.0993 28.7027L46.9419 30.5453C45.7842 29.3871 44.9405 27.5468 45.9574 25.0298L44.1132 23.1855Z" fill="url(#paint33_linear_7649_61673)"/>
<path d="M48.9508 25.1397L44.1143 23.1855L45.9585 25.0298L50.795 26.9839L48.9508 25.1397Z" fill="url(#paint34_linear_7649_61673)"/>
<path d="M28.0667 42.0194C29.4022 42.559 30.9223 41.9137 31.4619 40.5781L33.3062 42.4224C32.7666 43.758 31.2465 44.4033 29.9109 43.8636L28.0667 42.0194Z" fill="url(#paint35_linear_7649_61673)"/>
<path d="M45.0996 28.7012C45.7212 29.3225 46.433 29.7473 46.996 29.9747L48.8402 31.819C48.2773 31.5916 47.5654 31.1668 46.9439 30.5455L45.0996 28.7012Z" fill="url(#paint36_linear_7649_61673)"/>
<path d="M46.9966 29.9753L48.9507 25.1387L50.7949 26.983L48.8408 31.8195L46.9966 29.9753Z" fill="url(#paint37_linear_7649_61673)"/>
<path d="M33.8789 41.5537C34.4185 40.2181 35.9386 39.5729 37.2742 40.1125L39.1184 41.9568C37.7829 41.4172 36.2628 42.0624 35.7232 43.398L33.8789 41.5537Z" fill="url(#paint38_linear_7649_61673)"/>
<path d="M42.335 31.5117C43.2038 32.3802 44.2773 33.0971 45.5302 33.6033L47.3744 35.4476C46.1215 34.9414 45.0481 34.2245 44.1792 33.356L42.335 31.5117Z" fill="url(#paint39_linear_7649_61673)"/>
<path d="M34.4545 44.3769C33.737 43.659 33.4764 42.5551 33.8805 41.5547L35.7248 43.399C35.3206 44.3994 35.5812 45.5033 36.2987 46.2212L34.4545 44.3769Z" fill="url(#paint40_linear_7649_61673)"/>
<path d="M44.0663 37.2293C42.0986 36.4343 40.4525 35.3553 39.1569 34.0602L40.9976 35.9009C42.2938 37.1977 43.9411 38.2779 45.9106 39.0736L44.0663 37.2293Z" fill="url(#paint41_linear_7649_61673)"/>
<path d="M37.2759 40.1133C37.6111 40.2487 37.9028 40.4459 38.1432 40.6864L39.9866 42.5298C39.7463 42.2897 39.4549 42.0928 39.1201 41.9576L37.2759 40.1133Z" fill="url(#paint42_linear_7649_61673)"/>
<path d="M35.3202 44.9501C34.9854 44.8148 34.694 44.6179 34.4537 44.3778L36.2971 46.2212C36.5375 46.4618 36.8292 46.6589 37.1644 46.7944L35.3202 44.9501Z" fill="url(#paint43_linear_7649_61673)"/>
<path d="M41.5364 39.2442C41.2961 39.004 41.0047 38.8071 40.6699 38.6719L42.5142 40.5162C42.849 40.6514 43.1404 40.8483 43.3806 41.0884L41.5364 39.2442Z" fill="url(#paint44_linear_7649_61673)"/>
<path d="M45.5315 33.6035L44.0659 37.231L45.9102 39.0752L47.3757 35.4478L45.5315 33.6035Z" fill="url(#paint45_linear_7649_61673)"/>
<path d="M38.1421 40.6855C38.8596 41.4034 39.1202 42.5074 38.716 43.5078L40.5603 45.3521C40.9645 44.3517 40.7039 43.2477 39.9863 42.5298L38.1421 40.6855Z" fill="url(#paint46_linear_7649_61673)"/>
<path d="M38.7156 43.5078C38.176 44.8434 36.6559 45.4887 35.3203 44.9491L37.1646 46.7933C38.5001 47.3329 40.0202 46.6877 40.5598 45.3521L38.7156 43.5078Z" fill="url(#paint47_linear_7649_61673)"/>
<path d="M42.1099 42.0672C42.5141 41.0668 42.2535 39.9628 41.536 39.245L43.3794 41.0884C44.0976 41.8063 44.3585 42.9107 43.9542 43.9115L42.1099 42.0672Z" fill="url(#paint48_linear_7649_61673)"/>
<path d="M40.1572 46.9049L42.1113 42.0684L43.9556 43.9126L42.0015 48.7492L40.1572 46.9049Z" fill="url(#paint49_linear_7649_61673)"/>
<path d="M36.762 48.3455C38.0975 48.8851 39.6176 48.2399 40.1572 46.9043L42.0015 48.7486C41.4619 50.0842 39.9418 50.7294 38.6062 50.1898L36.762 48.3455Z" fill="url(#paint50_linear_7649_61673)"/>
<path fill-rule="evenodd" clip-rule="evenodd" d="M19.3254 13.1708C18.3238 12.7661 17.1837 13.25 16.779 14.2517L11.6495 26.9477C10.314 26.4081 8.79386 27.0534 8.25425 28.389L6.30018 33.2256C5.76058 34.5611 6.40583 36.0813 7.7414 36.6209L36.7604 48.3455C38.0959 48.8851 39.6161 48.2399 40.1557 46.9043L42.1097 42.0677C42.6493 40.7321 42.0041 39.212 40.6685 38.6724L15.2769 28.4133L20.4064 15.7173C20.8111 14.7156 20.3271 13.5755 19.3254 13.1708ZM11.8816 29.8546C11.2138 29.5847 10.4538 29.9074 10.184 30.5752L9.20695 32.9935C8.93715 33.6613 9.25977 34.4213 9.92756 34.6911L19.6006 38.5993C20.2683 38.8692 21.0284 38.5465 21.2982 37.8787L22.2752 35.4604C22.545 34.7926 22.2224 34.0326 21.5546 33.7628L11.8816 29.8546ZM28.0644 42.019C29.4 42.5586 30.9201 41.9134 31.4597 40.5778C31.9993 39.2422 31.3541 37.7221 30.0185 37.1825C28.6829 36.6428 27.1628 37.2881 26.6232 38.6237C26.0836 39.9593 26.7289 41.4794 28.0644 42.019ZM38.7145 43.509C38.1749 44.8445 36.6547 45.4898 35.3192 44.9502C33.9836 44.4106 33.3384 42.8904 33.878 41.5548C34.4176 40.2193 35.9377 39.574 37.2732 40.1136C38.6088 40.6532 39.2541 42.1734 38.7145 43.509Z" fill="url(#paint51_linear_7649_61673)"/>
<path d="M48.949 25.1397L44.1125 23.1856C42.5492 27.0548 45.3828 29.3249 46.9949 29.9763L48.949 25.1397Z" fill="url(#paint52_linear_7649_61673)"/>
<path d="M36.8577 20.2544L40.4851 21.72C38.531 26.5566 40.6929 31.6496 45.5294 33.6037L44.0638 37.2311C36.8091 34.3 33.9266 27.5093 36.8577 20.2544Z" fill="url(#paint53_linear_7649_61673)"/>
<path fill-rule="evenodd" clip-rule="evenodd" d="M19.3257 13.1708C18.324 12.7661 17.1839 13.25 16.7792 14.2517L11.6498 26.9477C10.3142 26.4081 8.7941 27.0534 8.2545 28.389L6.30043 33.2256C5.76082 34.5611 6.40608 36.0813 7.74164 36.6209L36.7606 48.3455C38.0962 48.8851 39.6163 48.2399 40.1559 46.9043L42.11 42.0677C42.6496 40.7321 42.0043 39.212 40.6688 38.6724L15.2772 28.4133L20.4066 15.7173C20.8113 14.7156 20.3274 13.5755 19.3257 13.1708ZM11.8819 29.8546C11.2141 29.5847 10.454 29.9074 10.1842 30.5752L9.20719 32.9935C8.93739 33.6613 9.26002 34.4213 9.9278 34.6911L19.6008 38.5993C20.2686 38.8692 21.0286 38.5465 21.2984 37.8787L22.2755 35.4604C22.5453 34.7926 22.2226 34.0326 21.5549 33.7628L11.8819 29.8546ZM28.0647 42.019C29.4002 42.5586 30.9203 41.9134 31.46 40.5778C31.9996 39.2422 31.3543 37.7221 30.0187 37.1825C28.6832 36.6428 27.1631 37.2881 26.6235 38.6237C26.0839 39.9593 26.7291 41.4794 28.0647 42.019ZM38.7147 43.509C38.1751 44.8445 36.655 45.4898 35.3194 44.9502C33.9838 44.4106 33.3386 42.8904 33.8782 41.5548C34.4178 40.2193 35.9379 39.574 37.2735 40.1136C38.609 40.6532 39.2543 42.1734 38.7147 43.509Z" fill="url(#paint54_radial_7649_61673)"/>
<path d="M48.9492 25.1397L44.1127 23.1856C42.5495 27.0548 45.383 29.3249 46.9952 29.9763L48.9492 25.1397Z" fill="url(#paint55_radial_7649_61673)"/>
<path d="M36.858 20.2544L40.4854 21.72C38.5313 26.5566 40.6931 31.6496 45.5296 33.6037L44.0641 37.2311C36.8093 34.3 33.9269 27.5093 36.858 20.2544Z" fill="url(#paint56_radial_7649_61673)"/>
<g opacity="0.6">
<path fill-rule="evenodd" clip-rule="evenodd" d="M19.3257 13.1708C18.324 12.7661 17.1839 13.25 16.7792 14.2517L11.6498 26.9477C10.3142 26.4081 8.7941 27.0534 8.2545 28.389L6.30043 33.2256C5.76082 34.5611 6.40608 36.0813 7.74164 36.6209L36.7606 48.3455C38.0962 48.8851 39.6163 48.2399 40.1559 46.9043L42.11 42.0677C42.6496 40.7321 42.0043 39.212 40.6688 38.6724L15.2772 28.4133L20.4066 15.7173C20.8113 14.7156 20.3274 13.5755 19.3257 13.1708ZM11.8819 29.8546C11.2141 29.5847 10.454 29.9074 10.1842 30.5752L9.20719 32.9935C8.93739 33.6613 9.26002 34.4213 9.9278 34.6911L19.6008 38.5993C20.2686 38.8692 21.0286 38.5465 21.2984 37.8787L22.2755 35.4604C22.5453 34.7926 22.2226 34.0326 21.5549 33.7628L11.8819 29.8546ZM28.0647 42.019C29.4002 42.5586 30.9203 41.9134 31.46 40.5778C31.9996 39.2422 31.3543 37.7221 30.0187 37.1825C28.6832 36.6428 27.1631 37.2881 26.6235 38.6237C26.0839 39.9593 26.7291 41.4794 28.0647 42.019ZM38.7147 43.509C38.1751 44.8445 36.655 45.4898 35.3194 44.9502C33.9838 44.4106 33.3386 42.8904 33.8782 41.5548C34.4178 40.2193 35.9379 39.574 37.2735 40.1136C38.609 40.6532 39.2543 42.1734 38.7147 43.509Z" fill="url(#paint57_radial_7649_61673)"/>
<path d="M48.9492 25.1397L44.1127 23.1856C42.5495 27.0548 45.383 29.3249 46.9952 29.9763L48.9492 25.1397Z" fill="url(#paint58_radial_7649_61673)"/>
<path d="M36.858 20.2544L40.4854 21.72C38.5313 26.5566 40.6931 31.6496 45.5296 33.6037L44.0641 37.2311C36.8093 34.3 33.9269 27.5093 36.858 20.2544Z" fill="url(#paint59_radial_7649_61673)"/>
</g>
<defs>
<filter id="filter0_d_7649_61673" x="7.10986" y="14.0273" width="50.8394" height="43.5098" filterUnits="userSpaceOnUse" color-interpolation-filters="sRGB">
<feFlood flood-opacity="0" result="BackgroundImageFix"/>
<feColorMatrix in="SourceAlpha" type="matrix" values="0 0 0 0 0 0 0 0 0 0 0 0 0 0 0 0 0 0 127 0" result="hardAlpha"/>
<feOffset dx="4" dy="4"/>
<feGaussianBlur stdDeviation="2"/>
<feComposite in2="hardAlpha" operator="out"/>
<feColorMatrix type="matrix" values="0 0 0 0 0 0 0 0 0 0 0 0 0 0 0 0 0 0 0.33 0"/>
<feBlend mode="normal" in2="BackgroundImageFix" result="effect1_dropShadow_7649_61673"/>
<feBlend mode="normal" in="SourceGraphic" in2="effect1_dropShadow_7649_61673" result="shape"/>
</filter>
<linearGradient id="paint0_linear_7649_61673" x1="19.4807" y1="17.7852" x2="26.6226" y2="47.4468" gradientUnits="userSpaceOnUse">
<stop stop-color="#FFF599"/>
<stop offset="1" stop-color="#22990F"/>
</linearGradient>
<linearGradient id="paint1_linear_7649_61673" x1="19.4807" y1="17.7852" x2="26.6226" y2="47.4468" gradientUnits="userSpaceOnUse">
<stop stop-color="#FFF599"/>
<stop offset="1" stop-color="#22990F"/>
</linearGradient>
<linearGradient id="paint2_linear_7649_61673" x1="19.4807" y1="17.7852" x2="26.6226" y2="47.4468" gradientUnits="userSpaceOnUse">
<stop stop-color="#FFF599"/>
<stop offset="1" stop-color="#22990F"/>
</linearGradient>
<linearGradient id="paint3_linear_7649_61673" x1="17.7214" y1="15.1917" x2="19.5351" y2="13.378" gradientUnits="userSpaceOnUse">
<stop stop-color="#FFF59F"/>
<stop offset="0.5" stop-color="#FFF6A2"/>
<stop offset="1" stop-color="#FFE818"/>
</linearGradient>
<linearGradient id="paint4_linear_7649_61673" x1="20.2082" y1="14.0517" x2="20.3185" y2="13.9414" gradientUnits="userSpaceOnUse">
<stop stop-color="#FFE818"/>
<stop offset="0.5" stop-color="#F3DA00"/>
<stop offset="1" stop-color="#D1BC00"/>
</linearGradient>
<linearGradient id="paint5_linear_7649_61673" x1="7.76904" y1="23.0656" x2="16.6818" y2="14.153" gradientUnits="userSpaceOnUse">
<stop stop-color="#FFF59F"/>
<stop offset="1" stop-color="#FFF59F"/>
</linearGradient>
<linearGradient id="paint6_linear_7649_61673" x1="19.9894" y1="15.2977" x2="20.8325" y2="14.4546" gradientUnits="userSpaceOnUse">
<stop stop-color="#FFF59F"/>
<stop offset="0.5" stop-color="#FFEB33"/>
<stop offset="1" stop-color="#D1BC00"/>
</linearGradient>
<linearGradient id="paint7_linear_7649_61673" x1="9.29167" y1="29.4243" x2="11.71" y2="27.006" gradientUnits="userSpaceOnUse">
<stop stop-color="#FFF59F"/>
<stop offset="0.5" stop-color="#FFF6A2"/>
<stop offset="1" stop-color="#FFE818"/>
</linearGradient>
<linearGradient id="paint8_linear_7649_61673" x1="5.22642" y1="32.1499" x2="8.62176" y2="28.7546" gradientUnits="userSpaceOnUse">
<stop stop-color="#FFF59F"/>
<stop offset="1" stop-color="#FFF59F"/>
</linearGradient>
<linearGradient id="paint9_linear_7649_61673" x1="11.3967" y1="24.5304" x2="20.3095" y2="15.6178" gradientUnits="userSpaceOnUse">
<stop stop-color="#FFF59F"/>
<stop offset="1" stop-color="#FFF59F"/>
</linearGradient>
<linearGradient id="paint10_linear_7649_61673" x1="11.3967" y1="24.5304" x2="20.3095" y2="15.6178" gradientUnits="userSpaceOnUse">
<stop stop-color="#80B532"/>
<stop offset="1" stop-color="#FFF59F" stop-opacity="0"/>
</linearGradient>
<linearGradient id="paint11_linear_7649_61673" x1="6.00491" y1="35.1761" x2="7.12905" y2="34.052" gradientUnits="userSpaceOnUse">
<stop stop-color="#D1BC00"/>
<stop offset="0.5" stop-color="#FFEB33"/>
<stop offset="1" stop-color="#FFF59F"/>
</linearGradient>
<linearGradient id="paint12_linear_7649_61673" x1="11.0303" y1="31.418" x2="12.2395" y2="30.2089" gradientUnits="userSpaceOnUse">
<stop stop-color="#FFF59F"/>
<stop offset="0.5" stop-color="#FFF6A2"/>
<stop offset="1" stop-color="#FFE818"/>
</linearGradient>
<linearGradient id="paint13_linear_7649_61673" x1="8.99612" y1="32.7809" x2="10.6938" y2="31.0832" gradientUnits="userSpaceOnUse">
<stop stop-color="#FFF59F"/>
<stop offset="1" stop-color="#FFF59F"/>
</linearGradient>
<linearGradient id="paint14_linear_7649_61673" x1="9.38524" y1="34.2959" x2="9.94731" y2="33.7339" gradientUnits="userSpaceOnUse">
<stop stop-color="#D1BC00"/>
<stop offset="0.5" stop-color="#FFEB33"/>
<stop offset="1" stop-color="#FFF59F"/>
</linearGradient>
<linearGradient id="paint15_linear_7649_61673" x1="7.8346" y1="37.0072" x2="7.98169" y2="36.8601" gradientUnits="userSpaceOnUse">
<stop stop-color="#D1BC00"/>
<stop offset="0.5" stop-color="#F3DA00"/>
<stop offset="1" stop-color="#FFE818"/>
</linearGradient>
<linearGradient id="paint16_linear_7649_61673" x1="10.3013" y1="35.2095" x2="10.3748" y2="35.136" gradientUnits="userSpaceOnUse">
<stop stop-color="#D1BC00"/>
<stop offset="0.5" stop-color="#F3DA00"/>
<stop offset="1" stop-color="#FFE818"/>
</linearGradient>
<linearGradient id="paint17_linear_7649_61673" x1="15.955" y1="33.9255" x2="18.8375" y2="31.0431" gradientUnits="userSpaceOnUse">
<stop stop-color="#FFE818"/>
<stop offset="1" stop-color="#FFE818"/>
</linearGradient>
<linearGradient id="paint18_linear_7649_61673" x1="14.0019" y1="38.7634" x2="16.8844" y2="35.881" gradientUnits="userSpaceOnUse">
<stop stop-color="#FFE818"/>
<stop offset="1" stop-color="#FFE818"/>
</linearGradient>
<linearGradient id="paint19_linear_7649_61673" x1="22.3618" y1="34.5689" x2="22.4354" y2="34.4954" gradientUnits="userSpaceOnUse">
<stop stop-color="#FFE818"/>
<stop offset="0.5" stop-color="#F3DA00"/>
<stop offset="1" stop-color="#D1BC00"/>
</linearGradient>
<linearGradient id="paint20_linear_7649_61673" x1="22.2145" y1="35.3983" x2="22.7766" y2="34.8362" gradientUnits="userSpaceOnUse">
<stop stop-color="#FFF59F"/>
<stop offset="0.5" stop-color="#FFEB33"/>
<stop offset="1" stop-color="#D1BC00"/>
</linearGradient>
<linearGradient id="paint21_linear_7649_61673" x1="21.0886" y1="37.6676" x2="22.7863" y2="35.9699" gradientUnits="userSpaceOnUse">
<stop stop-color="#FFF59F"/>
<stop offset="1" stop-color="#FFF59F"/>
</linearGradient>
<linearGradient id="paint22_linear_7649_61673" x1="20.4942" y1="39.4895" x2="21.7034" y2="38.2804" gradientUnits="userSpaceOnUse">
<stop stop-color="#FFE818"/>
<stop offset="0.5" stop-color="#FFF6A2"/>
<stop offset="1" stop-color="#FFF59F"/>
</linearGradient>
<linearGradient id="paint23_linear_7649_61673" x1="38.7932" y1="22.1885" x2="39.8741" y2="21.1075" gradientUnits="userSpaceOnUse">
<stop stop-color="#FFE818"/>
<stop offset="1" stop-color="#FFE818"/>
</linearGradient>
<linearGradient id="paint24_linear_7649_61673" x1="24.9084" y1="38.0416" x2="32.4749" y2="30.4752" gradientUnits="userSpaceOnUse">
<stop stop-color="#FFE818"/>
<stop offset="1" stop-color="#FFE818"/>
</linearGradient>
<linearGradient id="paint25_linear_7649_61673" x1="18.6542" y1="47.5331" x2="27.3017" y2="38.8858" gradientUnits="userSpaceOnUse">
<stop stop-color="#FFE818"/>
<stop offset="1" stop-color="#FFE818"/>
</linearGradient>
<linearGradient id="paint26_linear_7649_61673" x1="32.4005" y1="27.3063" x2="38.1559" y2="21.5509" gradientUnits="userSpaceOnUse">
<stop stop-color="#D1BC00"/>
<stop offset="0.5" stop-color="#FFEB3B"/>
<stop offset="1" stop-color="#FFF59F"/>
</linearGradient>
<linearGradient id="paint27_linear_7649_61673" x1="27.6615" y1="39.6606" x2="30.0798" y2="37.2424" gradientUnits="userSpaceOnUse">
<stop stop-color="#FFF59F"/>
<stop offset="0.5" stop-color="#FFF6A2"/>
<stop offset="1" stop-color="#FFE818"/>
</linearGradient>
<linearGradient id="paint28_linear_7649_61673" x1="26.3281" y1="40.5745" x2="27.4523" y2="39.4504" gradientUnits="userSpaceOnUse">
<stop stop-color="#D1BC00"/>
<stop offset="0.5" stop-color="#FFEB33"/>
<stop offset="1" stop-color="#FFF59F"/>
</linearGradient>
<linearGradient id="paint29_linear_7649_61673" x1="30.9784" y1="38.14" x2="31.1255" y2="37.993" gradientUnits="userSpaceOnUse">
<stop stop-color="#FFE818"/>
<stop offset="0.5" stop-color="#F3DA00"/>
<stop offset="1" stop-color="#D1BC00"/>
</linearGradient>
<linearGradient id="paint30_linear_7649_61673" x1="37.7163" y1="26.8912" x2="41.6878" y2="22.9197" gradientUnits="userSpaceOnUse">
<stop stop-color="#D1BC00"/>
<stop offset="0.5" stop-color="#FFEB36"/>
<stop offset="1" stop-color="#FFF59F"/>
</linearGradient>
<linearGradient id="paint31_linear_7649_61673" x1="28.1576" y1="42.4057" x2="28.3047" y2="42.2586" gradientUnits="userSpaceOnUse">
<stop stop-color="#D1BC00"/>
<stop offset="0.5" stop-color="#F3DA00"/>
<stop offset="1" stop-color="#FFE818"/>
</linearGradient>
<linearGradient id="paint32_linear_7649_61673" x1="30.685" y1="39.8007" x2="31.8091" y2="38.6766" gradientUnits="userSpaceOnUse">
<stop stop-color="#FFF59F"/>
<stop offset="0.5" stop-color="#FFEB33"/>
<stop offset="1" stop-color="#D1BC00"/>
</linearGradient>
<linearGradient id="paint33_linear_7649_61673" x1="42.7817" y1="26.385" x2="45.0472" y2="24.1196" gradientUnits="userSpaceOnUse">
<stop stop-color="#D1BC00"/>
<stop offset="0.5" stop-color="#FFE710"/>
<stop offset="1" stop-color="#FFF59F"/>
</linearGradient>
<linearGradient id="paint34_linear_7649_61673" x1="46.4763" y1="25.5476" x2="47.9175" y2="24.1064" gradientUnits="userSpaceOnUse">
<stop stop-color="#FFE818"/>
<stop offset="1" stop-color="#FFE818"/>
</linearGradient>
<linearGradient id="paint35_linear_7649_61673" x1="29.1985" y1="43.1512" x2="31.6168" y2="40.733" gradientUnits="userSpaceOnUse">
<stop stop-color="#FFE818"/>
<stop offset="0.5" stop-color="#FFF6A2"/>
<stop offset="1" stop-color="#FFF59F"/>
</linearGradient>
<linearGradient id="paint36_linear_7649_61673" x1="46.4221" y1="30.0237" x2="46.7335" y2="29.7123" gradientUnits="userSpaceOnUse">
<stop stop-color="#D1BC00"/>
<stop offset="0.5" stop-color="#FCE300"/>
<stop offset="1" stop-color="#FFE818"/>
</linearGradient>
<linearGradient id="paint37_linear_7649_61673" x1="45.9212" y1="28.8999" x2="49.3166" y2="25.5046" gradientUnits="userSpaceOnUse">
<stop stop-color="#FFF59F"/>
<stop offset="1" stop-color="#FFF59F"/>
</linearGradient>
<linearGradient id="paint38_linear_7649_61673" x1="34.9155" y1="42.5903" x2="37.3337" y2="40.172" gradientUnits="userSpaceOnUse">
<stop stop-color="#FFF59F"/>
<stop offset="0.5" stop-color="#FFF6A2"/>
<stop offset="1" stop-color="#FFE818"/>
</linearGradient>
<linearGradient id="paint39_linear_7649_61673" x1="44.1167" y1="33.2935" x2="44.6685" y2="32.7416" gradientUnits="userSpaceOnUse">
<stop stop-color="#D1BC00"/>
<stop offset="0.5" stop-color="#F4DB00"/>
<stop offset="1" stop-color="#FFE818"/>
</linearGradient>
<linearGradient id="paint40_linear_7649_61673" x1="33.5835" y1="43.5059" x2="34.7076" y2="42.3818" gradientUnits="userSpaceOnUse">
<stop stop-color="#D1BC00"/>
<stop offset="0.5" stop-color="#FFEB33"/>
<stop offset="1" stop-color="#FFF59F"/>
</linearGradient>
<linearGradient id="paint41_linear_7649_61673" x1="41.5424" y1="36.4457" x2="42.4126" y2="35.5756" gradientUnits="userSpaceOnUse">
<stop stop-color="#D1BC00"/>
<stop offset="0.5" stop-color="#F5DD00"/>
<stop offset="1" stop-color="#FFE818"/>
</linearGradient>
<linearGradient id="paint42_linear_7649_61673" x1="38.2345" y1="41.072" x2="38.3816" y2="40.9249" gradientUnits="userSpaceOnUse">
<stop stop-color="#FFE818"/>
<stop offset="0.5" stop-color="#F3DA00"/>
<stop offset="1" stop-color="#D1BC00"/>
</linearGradient>
<linearGradient id="paint43_linear_7649_61673" x1="35.4116" y1="45.3356" x2="35.5586" y2="45.1886" gradientUnits="userSpaceOnUse">
<stop stop-color="#D1BC00"/>
<stop offset="0.5" stop-color="#F3DA00"/>
<stop offset="1" stop-color="#FFE818"/>
</linearGradient>
<linearGradient id="paint44_linear_7649_61673" x1="41.6283" y1="39.6303" x2="41.7754" y2="39.4832" gradientUnits="userSpaceOnUse">
<stop stop-color="#FFE818"/>
<stop offset="0.5" stop-color="#F3DA00"/>
<stop offset="1" stop-color="#D1BC00"/>
</linearGradient>
<linearGradient id="paint45_linear_7649_61673" x1="43.4224" y1="36.5874" x2="45.9689" y2="34.041" gradientUnits="userSpaceOnUse">
<stop stop-color="#FFF59F"/>
<stop offset="1" stop-color="#FFF59F"/>
</linearGradient>
<linearGradient id="paint46_linear_7649_61673" x1="37.9403" y1="42.7321" x2="39.0645" y2="41.6079" gradientUnits="userSpaceOnUse">
<stop stop-color="#FFF59F"/>
<stop offset="0.5" stop-color="#FFEB33"/>
<stop offset="1" stop-color="#D1BC00"/>
</linearGradient>
<linearGradient id="paint47_linear_7649_61673" x1="36.4522" y1="46.0809" x2="38.8705" y2="43.6627" gradientUnits="userSpaceOnUse">
<stop stop-color="#FFE818"/>
<stop offset="0.5" stop-color="#FFF6A2"/>
<stop offset="1" stop-color="#FFF59F"/>
</linearGradient>
<linearGradient id="paint48_linear_7649_61673" x1="41.3337" y1="41.2909" x2="42.4578" y2="40.1668" gradientUnits="userSpaceOnUse">
<stop stop-color="#FFF59F"/>
<stop offset="0.5" stop-color="#FFEB33"/>
<stop offset="1" stop-color="#D1BC00"/>
</linearGradient>
<linearGradient id="paint49_linear_7649_61673" x1="39.0819" y1="45.8296" x2="42.4772" y2="42.4343" gradientUnits="userSpaceOnUse">
<stop stop-color="#FFF59F"/>
<stop offset="1" stop-color="#FFF59F"/>
</linearGradient>
<linearGradient id="paint50_linear_7649_61673" x1="37.8938" y1="49.4774" x2="40.3121" y2="47.0592" gradientUnits="userSpaceOnUse">
<stop stop-color="#FFE818"/>
<stop offset="0.5" stop-color="#FFF6A2"/>
<stop offset="1" stop-color="#FFF59F"/>
</linearGradient>
<linearGradient id="paint51_linear_7649_61673" x1="18.4805" y1="16.7852" x2="25.6223" y2="46.4468" gradientUnits="userSpaceOnUse">
<stop stop-color="#D9D082"/>
<stop offset="1" stop-color="#1F8A0D"/>
</linearGradient>
<linearGradient id="paint52_linear_7649_61673" x1="18.4805" y1="16.7852" x2="25.6223" y2="46.4468" gradientUnits="userSpaceOnUse">
<stop stop-color="#D9D082"/>
<stop offset="1" stop-color="#1F8A0D"/>
</linearGradient>
<linearGradient id="paint53_linear_7649_61673" x1="18.4805" y1="16.7852" x2="25.6223" y2="46.4468" gradientUnits="userSpaceOnUse">
<stop stop-color="#D9D082"/>
<stop offset="1" stop-color="#1F8A0D"/>
</linearGradient>
<radialGradient id="paint54_radial_7649_61673" cx="0" cy="0" r="1" gradientUnits="userSpaceOnUse" gradientTransform="translate(17 12.999) rotate(72.2553) scale(13.1244 12.1316)">
<stop stop-color="#22990F"/>
<stop offset="1" stop-color="#22990F" stop-opacity="0"/>
</radialGradient>
<radialGradient id="paint55_radial_7649_61673" cx="0" cy="0" r="1" gradientUnits="userSpaceOnUse" gradientTransform="translate(17 12.999) rotate(72.2553) scale(13.1244 12.1316)">
<stop stop-color="#22990F"/>
<stop offset="1" stop-color="#22990F" stop-opacity="0"/>
</radialGradient>
<radialGradient id="paint56_radial_7649_61673" cx="0" cy="0" r="1" gradientUnits="userSpaceOnUse" gradientTransform="translate(17 12.999) rotate(72.2553) scale(13.1244 12.1316)">
<stop stop-color="#22990F"/>
<stop offset="1" stop-color="#22990F" stop-opacity="0"/>
</radialGradient>
<radialGradient id="paint57_radial_7649_61673" cx="0" cy="0" r="1" gradientUnits="userSpaceOnUse" gradientTransform="translate(31.5 37.999) rotate(-126.469) scale(14.3003 13.2186)">
<stop stop-color="#B2D569"/>
<stop offset="1" stop-color="#22990F" stop-opacity="0"/>
</radialGradient>
<radialGradient id="paint58_radial_7649_61673" cx="0" cy="0" r="1" gradientUnits="userSpaceOnUse" gradientTransform="translate(31.5 37.999) rotate(-126.469) scale(14.3003 13.2186)">
<stop stop-color="#B2D569"/>
<stop offset="1" stop-color="#22990F" stop-opacity="0"/>
</radialGradient>
<radialGradient id="paint59_radial_7649_61673" cx="0" cy="0" r="1" gradientUnits="userSpaceOnUse" gradientTransform="translate(31.5 37.999) rotate(-126.469) scale(14.3003 13.2186)">
<stop stop-color="#B2D569"/>
<stop offset="1" stop-color="#22990F" stop-opacity="0"/>
</radialGradient>
</defs>
</svg>
