<svg width="58" height="64" viewBox="0 0 58 64" fill="none" xmlns="http://www.w3.org/2000/svg">
<g filter="url(#filter0_d_7649_61792)">
<path d="M27.8283 26.9597L22.8829 22.81L20.808 25.2827L25.7534 29.4324L27.8283 26.9597Z" fill="url(#paint0_linear_7649_61792)" fill-opacity="0.08" shape-rendering="crispEdges"/>
<path fill-rule="evenodd" clip-rule="evenodd" d="M25.657 15.6532C23.9731 14.2402 21.4625 14.4598 20.0494 16.1438L13.7547 23.6455C12.3417 25.3295 12.5614 27.8401 14.2453 29.2531L22.0335 35.7881L21.4962 38.8348C21.3768 39.5124 21.0658 40.2548 20.5361 40.7511C20.0613 41.1958 19.2938 41.5579 17.9465 41.3203L14.4913 40.7111L14.7412 39.2941C14.9545 38.0842 14.2548 36.9245 13.1369 36.5221C13.0046 36.4744 12.8665 36.4374 12.7233 36.4122L10.6934 36.0542L8.89797 46.2364L10.9279 46.5943C11.0711 46.6196 11.2136 46.632 11.3542 46.6325C12.5423 46.6366 13.5965 45.7863 13.8098 44.5764L14.0594 43.161L17.5146 43.7702C19.5614 44.1311 21.1395 43.5945 22.2368 42.5666C23.2791 41.5903 23.7664 40.2863 23.9461 39.2668L24.2335 37.6369L30.324 42.7447C32.008 44.1577 34.5186 43.9381 35.9316 42.2541L37.5188 40.3625L38.6742 44.9345C39.1047 46.6377 41.2834 47.1371 42.4126 45.7913L46.5918 40.8107C47.7211 39.4649 46.851 37.406 45.0988 37.2779L40.3958 36.934L42.2263 34.7524C43.6393 33.0684 43.4197 30.5578 41.7357 29.1448L25.657 15.6532ZM40.1367 31.0505L24.058 17.5589C23.4265 17.029 22.485 17.1114 21.9551 17.7428L15.6604 25.2446C15.1306 25.8761 15.2129 26.8175 15.8444 27.3474L31.9231 40.839C32.5546 41.3689 33.4961 41.2865 34.0259 40.6551L40.3206 33.1533C40.8505 32.5218 40.7681 31.5804 40.1367 31.0505ZM40.9263 43.6925L39.8384 39.3875L44.2668 39.7114L40.9263 43.6925Z" fill="url(#paint1_linear_7649_61792)" fill-opacity="0.08" shape-rendering="crispEdges"/>
</g>
<path d="M29.0927 27.4302L24.1473 23.2805L22.0725 25.7532L27.0179 29.9029L29.0927 27.4302Z" fill="#9DFFE8"/>
<path fill-rule="evenodd" clip-rule="evenodd" d="M26.9215 16.1237C25.2375 14.7106 22.7269 14.9303 21.3139 16.6143L15.0192 24.116C13.6062 25.8 13.8258 28.3106 15.5098 29.7236L23.2979 36.2586L22.7607 39.3053C22.6412 39.9828 22.3303 40.7253 21.8005 41.2216C21.3258 41.6663 20.5582 42.0284 19.211 41.7908L15.7558 41.1816L16.0057 39.7645C16.1844 38.7507 15.722 37.7721 14.9097 37.2448C14.7526 37.1428 14.5825 37.0578 14.4014 36.9926C14.2691 36.9449 14.1309 36.9079 13.9877 36.8826L11.9578 36.5247L10.1624 46.7069L12.1923 47.0648C12.3355 47.0901 12.478 47.1025 12.6187 47.103C13.8067 47.1071 14.8609 46.2567 15.0742 45.0469L15.3238 43.6315L18.779 44.2407C20.8258 44.6016 22.404 44.065 23.5012 43.0371C24.5435 42.0607 25.0308 40.7567 25.2106 39.7373L25.498 38.1074L31.5885 43.2152C33.2725 44.6282 35.7831 44.4086 37.1961 42.7246L38.7833 40.833L39.9387 45.4049C40.0816 45.9706 40.4174 46.4034 40.8435 46.6801C41.7004 47.2364 42.9229 47.1606 43.6771 46.2618L47.8563 41.2812C48.7369 40.2317 48.4017 38.7485 47.3804 38.0855C47.0921 37.8984 46.7491 37.7766 46.3633 37.7484L41.6602 37.4044L43.4908 35.2229C44.9038 33.5389 44.6841 31.0283 43.0002 29.6153L26.9215 16.1237ZM41.4011 31.521L25.3224 18.0293C24.6909 17.4995 23.7495 17.5818 23.2196 18.2133L16.9249 25.715C16.395 26.3465 16.4774 27.288 17.1089 27.8179L33.1876 41.3095C33.819 41.8394 34.7605 41.757 35.2904 41.1255L41.5851 33.6238C42.115 32.9923 42.0326 32.0508 41.4011 31.521ZM42.1907 44.163L41.1028 39.858L45.5313 40.1819L42.1907 44.163Z" fill="#9DFFE8"/>
<path d="M19.0497 15.1436L12.755 22.6453L15.0194 24.1159L21.3141 16.6142L19.0497 15.1436Z" fill="url(#paint2_linear_7649_61792)"/>
<path d="M12.7558 22.6467C11.3428 24.3307 11.5624 26.8413 13.2464 28.2543L15.5108 29.7249C13.8269 28.3118 13.6072 25.8012 15.0202 24.1173L12.7558 22.6467Z" fill="url(#paint3_linear_7649_61792)"/>
<path d="M20.9559 16.7432L14.6612 24.245L16.9256 25.7155L23.2203 18.2138L20.9559 16.7432Z" fill="url(#paint4_linear_7649_61792)"/>
<path d="M14.6613 24.2459C14.1314 24.8774 14.2138 25.8189 14.8453 26.3488L17.1097 27.8193C16.4782 27.2894 16.3958 26.348 16.9257 25.7165L14.6613 24.2459Z" fill="url(#paint5_linear_7649_61792)"/>
<path d="M19.05 15.1439C20.463 13.4599 22.9736 13.2403 24.6576 14.6533L26.1019 15.5912C26.3899 15.7313 26.6655 15.9086 26.922 16.1238L26.1019 15.5912C24.4988 14.8116 22.5122 15.1869 21.3144 16.6144L19.05 15.1439Z" fill="url(#paint6_linear_7649_61792)"/>
<path d="M20.955 16.7432C21.4848 16.1117 22.4263 16.0293 23.0578 16.5592L25.0147 17.83C25.1227 17.8825 25.226 17.949 25.3222 18.0297L25.0147 17.83C24.4135 17.5377 23.6686 17.6784 23.2194 18.2137L20.955 16.7432Z" fill="url(#paint7_linear_7649_61792)"/>
<path d="M11.7238 35.4126L9.69385 35.0547L11.9583 36.5252L13.9882 36.8831L11.7238 35.4126Z" fill="url(#paint8_linear_7649_61792)"/>
<path d="M9.69329 35.0541L7.8979 45.2363L10.1623 46.7068L11.9577 36.5246L9.69329 35.0541Z" fill="url(#paint9_linear_7649_61792)"/>
<path d="M12.1358 35.524C12.0035 35.4763 11.8654 35.4393 11.7222 35.4141L13.9866 36.8846C14.1298 36.9098 14.2679 36.9469 14.4002 36.9945L12.1358 35.524Z" fill="url(#paint10_linear_7649_61792)"/>
<path d="M12.6445 35.7757C12.4874 35.6737 12.3173 35.5886 12.1362 35.5234L14.4006 36.994C14.5817 37.0592 14.7519 37.1442 14.9089 37.2462L12.6445 35.7757Z" fill="url(#paint11_linear_7649_61792)"/>
<path d="M21.8831 21.811L19.8082 24.2837L22.0726 25.7542L24.1475 23.2815L21.8831 21.811Z" fill="url(#paint12_linear_7649_61792)"/>
<path d="M13.741 38.2951C13.9197 37.2816 13.4577 36.3034 12.6458 35.7759L14.9094 37.2459C15.7218 37.7732 16.1842 38.7518 16.0054 39.7657L13.741 38.2951Z" fill="url(#paint13_linear_7649_61792)"/>
<path d="M13.2456 28.2539L21.0337 34.7889L23.2981 36.2594L15.51 29.7244L13.2456 28.2539Z" fill="url(#paint14_linear_7649_61792)"/>
<path d="M7.89795 45.2363L9.92787 45.5943L12.1923 47.0648L10.1624 46.7069L7.89795 45.2363Z" fill="url(#paint15_linear_7649_61792)"/>
<path d="M13.4908 39.7112L13.7406 38.2942L16.005 39.7647L15.7552 41.1817L13.4908 39.7112Z" fill="url(#paint16_linear_7649_61792)"/>
<path d="M19.8081 24.2832L24.7535 28.4329L27.0179 29.9034L22.0725 25.7537L19.8081 24.2832Z" fill="url(#paint17_linear_7649_61792)"/>
<path d="M9.92822 45.5938C10.0714 45.619 10.2139 45.6315 10.3545 45.6319L12.6189 47.1025C12.4783 47.102 12.3358 47.0895 12.1926 47.0643L9.92822 45.5938Z" fill="url(#paint18_linear_7649_61792)"/>
<path d="M26.8277 25.9603L21.8823 21.8105L24.1467 23.2811L29.0922 27.4308L26.8277 25.9603Z" fill="url(#paint19_linear_7649_61792)"/>
<path d="M10.3545 45.6319C11.5425 45.636 12.5967 44.7856 12.8101 43.5758L15.0745 45.0463C14.8611 46.2562 13.807 47.1066 12.6189 47.1024L10.3545 45.6319Z" fill="url(#paint20_linear_7649_61792)"/>
<path d="M12.8098 43.5769L13.0594 42.1615L15.3238 43.632L15.0742 45.0474L12.8098 43.5769Z" fill="url(#paint21_linear_7649_61792)"/>
<path d="M16.9459 40.3202L13.4907 39.7109L15.7551 41.1815L19.2103 41.7907L16.9459 40.3202Z" fill="url(#paint22_linear_7649_61792)"/>
<path d="M13.0591 42.1621L16.5143 42.7714L18.7787 44.2419L15.3235 43.6326L13.0591 42.1621Z" fill="url(#paint23_linear_7649_61792)"/>
<path d="M24.7535 28.4321L26.8284 25.9594L29.0928 27.43L27.0179 29.9027L24.7535 28.4321Z" fill="url(#paint24_linear_7649_61792)"/>
<path d="M19.5362 39.7515C19.0615 40.1962 18.2939 40.5583 16.9467 40.3207L19.2111 41.7913C20.5584 42.0288 21.3259 41.6668 21.8006 41.222L19.5362 39.7515Z" fill="url(#paint25_linear_7649_61792)"/>
<path d="M21.0335 34.7883L20.4963 37.835L22.7607 39.3056L23.2979 36.2589L21.0335 34.7883Z" fill="url(#paint26_linear_7649_61792)"/>
<path d="M14.8442 26.3477L30.9229 39.8393L33.1873 41.3098L17.1086 27.8182L14.8442 26.3477Z" fill="url(#paint27_linear_7649_61792)"/>
<path d="M20.4964 37.8352C20.3769 38.5127 20.0659 39.2552 19.5362 39.7515L21.8006 41.222C22.3303 40.7257 22.6413 39.9833 22.7608 39.3057L20.4964 37.8352Z" fill="url(#paint28_linear_7649_61792)"/>
<path d="M39.1368 30.0502L23.0581 16.5586L25.3225 18.0291L41.4012 31.5207L39.1368 30.0502Z" fill="url(#paint29_linear_7649_61792)"/>
<path d="M16.5148 42.7713C18.5616 43.1322 20.1398 42.5956 21.237 41.5677L23.5014 43.0382C22.4042 44.0661 20.826 44.6028 18.7792 44.2418L16.5148 42.7713Z" fill="url(#paint30_linear_7649_61792)"/>
<path d="M40.7354 28.1459L24.6567 14.6543L26.9211 16.1248L42.9998 29.6164L40.7354 28.1459Z" fill="url(#paint31_linear_7649_61792)"/>
<path d="M22.9465 38.2666L23.2339 36.6367L25.4983 38.1072L25.2109 39.7372L22.9465 38.2666Z" fill="url(#paint32_linear_7649_61792)"/>
<path d="M21.2363 41.5674C22.2786 40.591 22.7659 39.287 22.9457 38.2675L25.2101 39.7381C25.0304 40.7575 24.543 42.0615 23.5008 43.0379L21.2363 41.5674Z" fill="url(#paint33_linear_7649_61792)"/>
<path d="M23.2339 36.6367L29.3244 41.7446L31.5888 43.2151L25.4983 38.1072L23.2339 36.6367Z" fill="url(#paint34_linear_7649_61792)"/>
<path d="M31.2309 40.0396C31.832 40.3319 32.577 40.1912 33.0262 39.6559L35.2906 41.1264C34.7607 41.7579 33.8192 41.8403 33.1878 41.3104L31.2309 40.0396C31.1229 39.987 31.0195 39.9205 30.9233 39.8398L31.2309 40.0396Z" fill="url(#paint35_linear_7649_61792)"/>
<path d="M30.1448 42.2787C31.7479 43.0582 33.7345 42.683 34.9323 41.2555L37.1967 42.726C35.7837 44.41 33.2731 44.6296 31.5891 43.2166L30.1448 42.2787C29.8568 42.1386 29.5812 41.9613 29.3247 41.7461L30.1448 42.2787Z" fill="url(#paint36_linear_7649_61792)"/>
<path d="M39.3209 32.1548C39.8507 31.5233 39.7684 30.5819 39.1369 30.052L41.4013 31.5225C42.0328 32.0524 42.1152 32.9939 41.5853 33.6254L39.3209 32.1548Z" fill="url(#paint37_linear_7649_61792)"/>
<path d="M33.0265 39.6551L39.3211 32.1534L41.5856 33.6239L35.2909 41.1256L33.0265 39.6551Z" fill="url(#paint38_linear_7649_61792)"/>
<path d="M41.2266 33.7521C42.6396 32.0681 42.4199 29.5575 40.736 28.1445L43.0004 29.615C44.6843 31.028 44.904 33.5386 43.491 35.2226L41.2266 33.7521Z" fill="url(#paint39_linear_7649_61792)"/>
<path d="M34.9308 41.2546L36.518 39.363L38.7824 40.8335L37.1952 42.7251L34.9308 41.2546Z" fill="url(#paint40_linear_7649_61792)"/>
<path d="M39.3963 35.9337L41.2268 33.7522L43.4912 35.2227L41.6607 37.4043L39.3963 35.9337Z" fill="url(#paint41_linear_7649_61792)"/>
<path d="M36.519 39.3633L37.6744 43.9352L39.9388 45.4057L38.7835 40.8338L36.519 39.3633Z" fill="url(#paint42_linear_7649_61792)"/>
<path d="M44.1001 36.2775L39.397 35.9336L41.6614 37.4041L46.3645 37.748L44.1001 36.2775Z" fill="url(#paint43_linear_7649_61792)"/>
<path d="M39.9263 42.6936L38.8384 38.3887L41.1028 39.8592L42.1907 44.1641L39.9263 42.6936Z" fill="url(#paint44_linear_7649_61792)"/>
<path d="M38.8384 38.3887L43.2668 38.7125L45.5312 40.183L41.1028 39.8592L38.8384 38.3887Z" fill="url(#paint45_linear_7649_61792)"/>
<path d="M37.6753 43.9355C37.8182 44.5012 38.154 44.9341 38.5801 45.2107L40.8439 46.6808C40.4181 46.4042 40.0826 45.9715 39.9397 45.4061L37.6753 43.9355Z" fill="url(#paint46_linear_7649_61792)"/>
<path d="M43.267 38.711L39.9265 42.6921L42.1909 44.1627L45.5314 40.1816L43.267 38.711Z" fill="url(#paint47_linear_7649_61792)"/>
<path d="M45.1172 36.6145C44.8289 36.4273 44.4859 36.3056 44.1001 36.2773L46.3645 37.7479C46.7503 37.7761 47.0933 37.8979 47.3816 38.085L45.1172 36.6145Z" fill="url(#paint48_linear_7649_61792)"/>
<path d="M38.5796 45.209C39.4366 45.7653 40.659 45.6896 41.4132 44.7907L43.6776 46.2612C42.9234 47.1601 41.701 47.2358 40.844 46.6795L38.5796 45.209Z" fill="url(#paint49_linear_7649_61792)"/>
<path d="M45.5919 39.8106C46.4723 38.7613 46.1374 37.2784 45.1166 36.6153L47.3804 38.0854C48.4017 38.7484 48.7369 40.2316 47.8563 41.2811L45.5919 39.8106Z" fill="url(#paint50_linear_7649_61792)"/>
<path d="M41.4128 44.7903L45.592 39.8098L47.8564 41.2803L43.6772 46.2609L41.4128 44.7903Z" fill="url(#paint51_linear_7649_61792)"/>
<path d="M26.8278 25.9597L21.8824 21.81L19.8075 24.2827L24.7529 28.4324L26.8278 25.9597Z" fill="url(#paint52_linear_7649_61792)"/>
<path fill-rule="evenodd" clip-rule="evenodd" d="M24.6565 14.6532C22.9726 13.2402 20.462 13.4598 19.049 15.1438L12.7543 22.6455C11.3412 24.3295 11.5609 26.8401 13.2449 28.2531L21.033 34.7881L20.4958 37.8348C20.3763 38.5124 20.0653 39.2548 19.5356 39.7511C19.0608 40.1958 18.2933 40.5579 16.946 40.3203L13.4909 39.7111L13.7407 38.2941C13.954 37.0842 13.2543 35.9245 12.1365 35.5221C12.0042 35.4744 11.866 35.4374 11.7228 35.4122L9.69288 35.0542L7.89749 45.2364L9.92741 45.5943C10.0706 45.6196 10.2131 45.632 10.3537 45.6325C11.5418 45.6366 12.596 44.7863 12.8093 43.5764L13.0589 42.161L16.5141 42.7702C18.5609 43.1311 20.1391 42.5945 21.2363 41.5666C22.2786 40.5903 22.7659 39.2863 22.9457 38.2668L23.2331 36.6369L29.3235 41.7447C31.0075 43.1577 33.5181 42.9381 34.9311 41.2541L36.5184 39.3625L37.6737 43.9345C38.1042 45.6377 40.2829 46.1371 41.4122 44.7913L45.5913 39.8107C46.7206 38.4649 45.8505 36.406 44.0984 36.2779L39.3953 35.934L41.2258 33.7524C42.6389 32.0684 42.4192 29.5578 40.7352 28.1448L24.6565 14.6532ZM39.1362 30.0505L23.0575 16.5589C22.426 16.029 21.4845 16.1114 20.9546 16.7428L14.6599 24.2446C14.1301 24.8761 14.2124 25.8175 14.8439 26.3474L30.9226 39.839C31.5541 40.3689 32.4956 40.2865 33.0255 39.6551L39.3201 32.1533C39.85 31.5218 39.7677 30.5804 39.1362 30.0505ZM39.9258 42.6925L38.8379 38.3875L43.2663 38.7114L39.9258 42.6925Z" fill="url(#paint53_linear_7649_61792)"/>
<path d="M26.8278 25.9597L21.8824 21.81L19.8075 24.2827L24.7529 28.4324L26.8278 25.9597Z" fill="url(#paint54_radial_7649_61792)"/>
<path fill-rule="evenodd" clip-rule="evenodd" d="M24.6565 14.6532C22.9726 13.2402 20.462 13.4598 19.049 15.1438L12.7543 22.6455C11.3412 24.3295 11.5609 26.8401 13.2449 28.2531L21.033 34.7881L20.4958 37.8348C20.3763 38.5124 20.0653 39.2548 19.5356 39.7511C19.0608 40.1958 18.2933 40.5579 16.946 40.3203L13.4909 39.7111L13.7407 38.2941C13.954 37.0842 13.2543 35.9245 12.1365 35.5221C12.0042 35.4744 11.866 35.4374 11.7228 35.4122L9.69288 35.0542L7.89749 45.2364L9.92741 45.5943C10.0706 45.6196 10.2131 45.632 10.3537 45.6325C11.5418 45.6366 12.596 44.7863 12.8093 43.5764L13.0589 42.161L16.5141 42.7702C18.5609 43.1311 20.1391 42.5945 21.2363 41.5666C22.2786 40.5903 22.7659 39.2863 22.9457 38.2668L23.2331 36.6369L29.3235 41.7447C31.0075 43.1577 33.5181 42.9381 34.9311 41.2541L36.5184 39.3625L37.6737 43.9345C38.1042 45.6377 40.2829 46.1371 41.4122 44.7913L45.5913 39.8107C46.7206 38.4649 45.8505 36.406 44.0984 36.2779L39.3953 35.934L41.2258 33.7524C42.6389 32.0684 42.4192 29.5578 40.7352 28.1448L24.6565 14.6532ZM39.1362 30.0505L23.0575 16.5589C22.426 16.029 21.4845 16.1114 20.9546 16.7428L14.6599 24.2446C14.1301 24.8761 14.2124 25.8175 14.8439 26.3474L30.9226 39.839C31.5541 40.3689 32.4956 40.2865 33.0255 39.6551L39.3201 32.1533C39.85 31.5218 39.7677 30.5804 39.1362 30.0505ZM39.9258 42.6925L38.8379 38.3875L43.2663 38.7114L39.9258 42.6925Z" fill="url(#paint55_radial_7649_61792)"/>
<defs>
<filter id="filter0_d_7649_61792" x="7.89795" y="13.7227" width="46.2009" height="39.9102" filterUnits="userSpaceOnUse" color-interpolation-filters="sRGB">
<feFlood flood-opacity="0" result="BackgroundImageFix"/>
<feColorMatrix in="SourceAlpha" type="matrix" values="0 0 0 0 0 0 0 0 0 0 0 0 0 0 0 0 0 0 127 0" result="hardAlpha"/>
<feOffset dx="3" dy="3"/>
<feGaussianBlur stdDeviation="2"/>
<feComposite in2="hardAlpha" operator="out"/>
<feColorMatrix type="matrix" values="0 0 0 0 0 0 0 0 0 0 0 0 0 0 0 0 0 0 0.33 0"/>
<feBlend mode="normal" in2="BackgroundImageFix" result="effect1_dropShadow_7649_61792"/>
<feBlend mode="normal" in="SourceGraphic" in2="effect1_dropShadow_7649_61792" result="shape"/>
</filter>
<linearGradient id="paint0_linear_7649_61792" x1="18.9575" y1="18.7223" x2="38.0959" y2="48.6238" gradientUnits="userSpaceOnUse">
<stop stop-color="#9DFFE8"/>
<stop offset="1" stop-color="#1951A4"/>
</linearGradient>
<linearGradient id="paint1_linear_7649_61792" x1="18.9575" y1="18.7223" x2="38.0959" y2="48.6238" gradientUnits="userSpaceOnUse">
<stop stop-color="#9DFFE8"/>
<stop offset="1" stop-color="#1951A4"/>
</linearGradient>
<linearGradient id="paint2_linear_7649_61792" x1="13.2161" y1="22.9448" x2="18.5099" y2="14.7931" gradientUnits="userSpaceOnUse">
<stop stop-color="#C7FFFB"/>
<stop offset="1" stop-color="#C7FFFB"/>
</linearGradient>
<linearGradient id="paint3_linear_7649_61792" x1="10.8748" y1="26.7142" x2="13.2907" y2="22.9941" gradientUnits="userSpaceOnUse">
<stop stop-color="#00DD86"/>
<stop offset="0.5" stop-color="#68FFE0"/>
<stop offset="1" stop-color="#C7FFFB"/>
</linearGradient>
<linearGradient id="paint4_linear_7649_61792" x1="15.1223" y1="24.5444" x2="20.4161" y2="16.3927" gradientUnits="userSpaceOnUse">
<stop stop-color="#C7FFFB"/>
<stop offset="1" stop-color="#C7FFFB"/>
</linearGradient>
<linearGradient id="paint5_linear_7649_61792" x1="14.4563" y1="26.0962" x2="15.3622" y2="24.7011" gradientUnits="userSpaceOnUse">
<stop stop-color="#00DD86"/>
<stop offset="0.5" stop-color="#68FFE0"/>
<stop offset="1" stop-color="#C7FFFB"/>
</linearGradient>
<linearGradient id="paint6_linear_7649_61792" x1="21.6929" y1="16.8602" x2="23.5804" y2="13.9538" gradientUnits="userSpaceOnUse">
<stop stop-color="#C7FFFB"/>
<stop offset="0.5" stop-color="#3DFFCC"/>
<stop offset="1" stop-color="#00DD86"/>
</linearGradient>
<linearGradient id="paint7_linear_7649_61792" x1="22.4464" y1="17.7117" x2="23.1542" y2="16.6218" gradientUnits="userSpaceOnUse">
<stop stop-color="#C7FFFB"/>
<stop offset="0.5" stop-color="#3DFFCC"/>
<stop offset="1" stop-color="#00DD86"/>
</linearGradient>
<linearGradient id="paint8_linear_7649_61792" x1="11.2958" y1="36.095" x2="11.7345" y2="35.4196" gradientUnits="userSpaceOnUse">
<stop stop-color="#0FFFB1"/>
<stop offset="1" stop-color="#0FFFB1"/>
</linearGradient>
<linearGradient id="paint9_linear_7649_61792" x1="4.63764" y1="43.119" x2="9.82114" y2="35.1371" gradientUnits="userSpaceOnUse">
<stop stop-color="#96FFF0"/>
<stop offset="1" stop-color="#96FFF0"/>
</linearGradient>
<linearGradient id="paint10_linear_7649_61792" x1="12.6828" y1="36.0379" x2="12.7553" y2="35.9263" gradientUnits="userSpaceOnUse">
<stop stop-color="#0FFFB1"/>
<stop offset="0.5" stop-color="#00FFA7"/>
<stop offset="1" stop-color="#00F098"/>
</linearGradient>
<linearGradient id="paint11_linear_7649_61792" x1="13.1233" y1="36.1644" x2="13.1589" y2="36.1097" gradientUnits="userSpaceOnUse">
<stop stop-color="#00F098"/>
<stop offset="0.5" stop-color="#00DB85"/>
<stop offset="1" stop-color="#00C874"/>
</linearGradient>
<linearGradient id="paint12_linear_7649_61792" x1="20.4969" y1="24.731" x2="22.2418" y2="22.044" gradientUnits="userSpaceOnUse">
<stop stop-color="#C7FFFB"/>
<stop offset="1" stop-color="#C7FFFB"/>
</linearGradient>
<linearGradient id="paint13_linear_7649_61792" x1="12.9259" y1="37.7658" x2="13.7517" y2="36.4941" gradientUnits="userSpaceOnUse">
<stop stop-color="#96FFF0"/>
<stop offset="0.5" stop-color="#2AFFC1"/>
<stop offset="1" stop-color="#00C874"/>
</linearGradient>
<linearGradient id="paint14_linear_7649_61792" x1="15.9961" y1="31.5174" x2="16.6709" y2="30.4783" gradientUnits="userSpaceOnUse">
<stop stop-color="#00DD86"/>
<stop offset="1" stop-color="#00DD86"/>
</linearGradient>
<linearGradient id="paint15_linear_7649_61792" x1="9.49995" y1="46.2767" x2="9.9386" y2="45.6012" gradientUnits="userSpaceOnUse">
<stop stop-color="#0FFFB1"/>
<stop offset="1" stop-color="#0FFFB1"/>
</linearGradient>
<linearGradient id="paint16_linear_7649_61792" x1="13.7262" y1="39.8641" x2="14.4476" y2="38.7533" gradientUnits="userSpaceOnUse">
<stop stop-color="#96FFF0"/>
<stop offset="1" stop-color="#96FFF0"/>
</linearGradient>
<linearGradient id="paint17_linear_7649_61792" x1="21.8469" y1="26.5453" x2="22.2754" y2="25.8855" gradientUnits="userSpaceOnUse">
<stop stop-color="#00DD86"/>
<stop offset="1" stop-color="#00DD86"/>
</linearGradient>
<linearGradient id="paint18_linear_7649_61792" x1="10.9003" y1="46.2251" x2="11.0094" y2="46.0572" gradientUnits="userSpaceOnUse">
<stop stop-color="#0FFFB1"/>
<stop offset="0.5" stop-color="#1EFFBB"/>
<stop offset="1" stop-color="#2DFFC3"/>
</linearGradient>
<linearGradient id="paint19_linear_7649_61792" x1="23.9211" y1="24.0726" x2="24.3496" y2="23.4128" gradientUnits="userSpaceOnUse">
<stop stop-color="#00DD86"/>
<stop offset="1" stop-color="#00DD86"/>
</linearGradient>
<linearGradient id="paint20_linear_7649_61792" x1="11.4516" y1="46.3444" x2="13.1192" y2="43.7766" gradientUnits="userSpaceOnUse">
<stop stop-color="#2DFFC3"/>
<stop offset="0.5" stop-color="#A5FFF4"/>
<stop offset="1" stop-color="#96FFF0"/>
</linearGradient>
<linearGradient id="paint21_linear_7649_61792" x1="13.0459" y1="43.7302" x2="13.7664" y2="42.6207" gradientUnits="userSpaceOnUse">
<stop stop-color="#96FFF0"/>
<stop offset="1" stop-color="#96FFF0"/>
</linearGradient>
<linearGradient id="paint22_linear_7649_61792" x1="15.6554" y1="41.1167" x2="16.4021" y2="39.967" gradientUnits="userSpaceOnUse">
<stop stop-color="#0FFFB1"/>
<stop offset="1" stop-color="#0FFFB1"/>
</linearGradient>
<linearGradient id="paint23_linear_7649_61792" x1="15.2238" y1="43.5679" x2="15.9704" y2="42.4182" gradientUnits="userSpaceOnUse">
<stop stop-color="#0FFFB1"/>
<stop offset="1" stop-color="#0FFFB1"/>
</linearGradient>
<linearGradient id="paint24_linear_7649_61792" x1="25.4422" y1="28.8794" x2="27.1871" y2="26.1924" gradientUnits="userSpaceOnUse">
<stop stop-color="#C7FFFB"/>
<stop offset="1" stop-color="#C7FFFB"/>
</linearGradient>
<linearGradient id="paint25_linear_7649_61792" x1="18.8481" y1="41.5556" x2="19.8763" y2="39.9723" gradientUnits="userSpaceOnUse">
<stop stop-color="#0FFFB1"/>
<stop offset="0.5" stop-color="#7BFFE7"/>
<stop offset="1" stop-color="#B1FFF7"/>
</linearGradient>
<linearGradient id="paint26_linear_7649_61792" x1="20.0818" y1="37.5659" x2="21.6328" y2="35.1775" gradientUnits="userSpaceOnUse">
<stop stop-color="#96FFF0"/>
<stop offset="1" stop-color="#96FFF0"/>
</linearGradient>
<linearGradient id="paint27_linear_7649_61792" x1="19.6704" y1="32.5318" x2="21.0636" y2="30.3865" gradientUnits="userSpaceOnUse">
<stop stop-color="#00DD86"/>
<stop offset="1" stop-color="#00DD86"/>
</linearGradient>
<linearGradient id="paint28_linear_7649_61792" x1="19.9045" y1="39.9906" x2="21.0646" y2="38.2042" gradientUnits="userSpaceOnUse">
<stop stop-color="#B1FFF7"/>
<stop offset="0.5" stop-color="#BCFFF9"/>
<stop offset="1" stop-color="#96FFF0"/>
</linearGradient>
<linearGradient id="paint29_linear_7649_61792" x1="27.8843" y1="22.7428" x2="29.2775" y2="20.5975" gradientUnits="userSpaceOnUse">
<stop stop-color="#00DD86"/>
<stop offset="1" stop-color="#00DD86"/>
</linearGradient>
<linearGradient id="paint30_linear_7649_61792" x1="19.2413" y1="44.5419" x2="21.1918" y2="41.5384" gradientUnits="userSpaceOnUse">
<stop stop-color="#0FFFB1"/>
<stop offset="0.5" stop-color="#67FFE0"/>
<stop offset="1" stop-color="#B1FFF7"/>
</linearGradient>
<linearGradient id="paint31_linear_7649_61792" x1="29.4829" y1="20.8385" x2="30.8761" y2="18.6932" gradientUnits="userSpaceOnUse">
<stop stop-color="#00DD86"/>
<stop offset="1" stop-color="#00DD86"/>
</linearGradient>
<linearGradient id="paint32_linear_7649_61792" x1="23.097" y1="38.3644" x2="23.9268" y2="37.0867" gradientUnits="userSpaceOnUse">
<stop stop-color="#96FFF0"/>
<stop offset="1" stop-color="#96FFF0"/>
</linearGradient>
<linearGradient id="paint33_linear_7649_61792" x1="21.3224" y1="41.6232" x2="23.3367" y2="38.5215" gradientUnits="userSpaceOnUse">
<stop stop-color="#B1FFF7"/>
<stop offset="0.5" stop-color="#B6FFF8"/>
<stop offset="1" stop-color="#96FFF0"/>
</linearGradient>
<linearGradient id="paint34_linear_7649_61792" x1="25.5608" y1="39.3005" x2="26.0873" y2="38.4897" gradientUnits="userSpaceOnUse">
<stop stop-color="#00DD86"/>
<stop offset="1" stop-color="#00DD86"/>
</linearGradient>
<linearGradient id="paint35_linear_7649_61792" x1="32.6025" y1="40.9303" x2="33.3103" y2="39.8404" gradientUnits="userSpaceOnUse">
<stop stop-color="#00DD86"/>
<stop offset="0.5" stop-color="#3DFFCC"/>
<stop offset="1" stop-color="#C7FFFB"/>
</linearGradient>
<linearGradient id="paint36_linear_7649_61792" x1="32.4681" y1="43.7875" x2="34.3556" y2="40.881" gradientUnits="userSpaceOnUse">
<stop stop-color="#00DD86"/>
<stop offset="0.5" stop-color="#3DFFCC"/>
<stop offset="1" stop-color="#C7FFFB"/>
</linearGradient>
<linearGradient id="paint37_linear_7649_61792" x1="39.1196" y1="32.0241" x2="40.0255" y2="30.6291" gradientUnits="userSpaceOnUse">
<stop stop-color="#C7FFFB"/>
<stop offset="0.5" stop-color="#68FFE0"/>
<stop offset="1" stop-color="#00DD86"/>
</linearGradient>
<linearGradient id="paint38_linear_7649_61792" x1="33.4876" y1="39.9546" x2="38.7814" y2="31.8029" gradientUnits="userSpaceOnUse">
<stop stop-color="#C7FFFB"/>
<stop offset="1" stop-color="#C7FFFB"/>
</linearGradient>
<linearGradient id="paint39_linear_7649_61792" x1="39.3554" y1="32.5369" x2="41.7713" y2="28.8168" gradientUnits="userSpaceOnUse">
<stop stop-color="#C7FFFB"/>
<stop offset="0.5" stop-color="#68FFE0"/>
<stop offset="1" stop-color="#00DD86"/>
</linearGradient>
<linearGradient id="paint40_linear_7649_61792" x1="35.6458" y1="41.7189" x2="36.9806" y2="39.6634" gradientUnits="userSpaceOnUse">
<stop stop-color="#C7FFFB"/>
<stop offset="1" stop-color="#C7FFFB"/>
</linearGradient>
<linearGradient id="paint41_linear_7649_61792" x1="40.0981" y1="36.3895" x2="41.6376" y2="34.0189" gradientUnits="userSpaceOnUse">
<stop stop-color="#C7FFFB"/>
<stop offset="1" stop-color="#C7FFFB"/>
</linearGradient>
<linearGradient id="paint42_linear_7649_61792" x1="35.6493" y1="42.6201" x2="37.3949" y2="39.9321" gradientUnits="userSpaceOnUse">
<stop stop-color="#4CFFD3"/>
<stop offset="1" stop-color="#4CFFD3"/>
</linearGradient>
<linearGradient id="paint43_linear_7649_61792" x1="42.0966" y1="37.6868" x2="43.3346" y2="35.7805" gradientUnits="userSpaceOnUse">
<stop stop-color="#21FFBC"/>
<stop offset="1" stop-color="#21FFBC"/>
</linearGradient>
<linearGradient id="paint44_linear_7649_61792" x1="38.0662" y1="41.4857" x2="39.7099" y2="38.9546" gradientUnits="userSpaceOnUse">
<stop stop-color="#4CFFD3"/>
<stop offset="1" stop-color="#4CFFD3"/>
</linearGradient>
<linearGradient id="paint45_linear_7649_61792" x1="41.4272" y1="40.0698" x2="42.5929" y2="38.2748" gradientUnits="userSpaceOnUse">
<stop stop-color="#21FFBC"/>
<stop offset="1" stop-color="#21FFBC"/>
</linearGradient>
<linearGradient id="paint46_linear_7649_61792" x1="38.4218" y1="45.1079" x2="38.7358" y2="44.6243" gradientUnits="userSpaceOnUse">
<stop stop-color="#00C874"/>
<stop offset="0.5" stop-color="#03FFA9"/>
<stop offset="1" stop-color="#4CFFD3"/>
</linearGradient>
<linearGradient id="paint47_linear_7649_61792" x1="40.5469" y1="43.0951" x2="43.3563" y2="38.769" gradientUnits="userSpaceOnUse">
<stop stop-color="#C7FFFB"/>
<stop offset="1" stop-color="#C7FFFB"/>
</linearGradient>
<linearGradient id="paint48_linear_7649_61792" x1="45.2885" y1="37.0491" x2="45.4362" y2="36.8217" gradientUnits="userSpaceOnUse">
<stop stop-color="#21FFBC"/>
<stop offset="0.5" stop-color="#00F199"/>
<stop offset="1" stop-color="#00C874"/>
</linearGradient>
<linearGradient id="paint49_linear_7649_61792" x1="40.5789" y1="46.5074" x2="41.6105" y2="44.9188" gradientUnits="userSpaceOnUse">
<stop stop-color="#00C874"/>
<stop offset="0.5" stop-color="#38FFCA"/>
<stop offset="1" stop-color="#C7FFFB"/>
</linearGradient>
<linearGradient id="paint50_linear_7649_61792" x1="44.8276" y1="39.3142" x2="46.1461" y2="37.2839" gradientUnits="userSpaceOnUse">
<stop stop-color="#C7FFFB"/>
<stop offset="0.5" stop-color="#50FFD6"/>
<stop offset="1" stop-color="#00C874"/>
</linearGradient>
<linearGradient id="paint51_linear_7649_61792" x1="41.988" y1="45.1639" x2="45.5027" y2="39.7518" gradientUnits="userSpaceOnUse">
<stop stop-color="#C7FFFB"/>
<stop offset="1" stop-color="#C7FFFB"/>
</linearGradient>
<linearGradient id="paint52_linear_7649_61792" x1="17.957" y1="17.7223" x2="37.0954" y2="47.6238" gradientUnits="userSpaceOnUse">
<stop stop-color="#9DFFE8"/>
<stop offset="1" stop-color="#1951A4"/>
</linearGradient>
<linearGradient id="paint53_linear_7649_61792" x1="17.957" y1="17.7223" x2="37.0954" y2="47.6238" gradientUnits="userSpaceOnUse">
<stop stop-color="#9DFFE8"/>
<stop offset="1" stop-color="#1951A4"/>
</linearGradient>
<radialGradient id="paint54_radial_7649_61792" cx="0" cy="0" r="1" gradientUnits="userSpaceOnUse" gradientTransform="translate(20.999 12.4985) rotate(75.9638) scale(14.4309 14.3811)">
<stop stop-color="#307AE9"/>
<stop offset="1" stop-color="#3075DD" stop-opacity="0"/>
</radialGradient>
<radialGradient id="paint55_radial_7649_61792" cx="0" cy="0" r="1" gradientUnits="userSpaceOnUse" gradientTransform="translate(20.999 12.4985) rotate(75.9638) scale(14.4309 14.3811)">
<stop stop-color="#307AE9"/>
<stop offset="1" stop-color="#3075DD" stop-opacity="0"/>
</radialGradient>
</defs>
</svg>
