<svg width="18" height="18" viewBox="0 0 18 18" fill="none" xmlns="http://www.w3.org/2000/svg">
<path d="M13.8239 5.26644L12.2617 3.40656C11.8747 2.94577 11.3037 2.67969 10.7019 2.67969H5.29117C4.41304 2.67969 3.70117 3.39155 3.70117 4.26969V13.9473C3.70117 14.694 4.30653 15.2994 5.05328 15.2994H12.7112C13.5893 15.2994 14.3012 14.5875 14.3012 13.7094V13.1961V6.57661C14.3012 6.09734 14.1322 5.63343 13.8239 5.26644Z" stroke="#F2F4FC" stroke-width="1.25"/>
<path d="M10.2992 2.89883V5.78957C10.2992 6.07083 10.0712 6.29883 9.78996 6.29883H6.20848C5.92722 6.29883 5.69922 6.07083 5.69922 5.78957V2.89883" stroke="#F2F4FC" stroke-width="1.25"/>
<path d="M6.69922 15.1504L6.69922 10.2004C6.69922 9.92425 6.92308 9.70039 7.19922 9.70039H10.7992C11.0754 9.70039 11.2992 9.92425 11.2992 10.2004L11.2992 15.1504" stroke="#F2F4FC" stroke-width="1.25"/>
</svg>
