<svg width="18" height="25" viewBox="0 0 18 25" fill="none" xmlns="http://www.w3.org/2000/svg">
<ellipse opacity="0.25" cx="9" cy="23" rx="7" ry="2" fill="#7C6FFC"/>
<path fill-rule="evenodd" clip-rule="evenodd" d="M16.2007 14.4C17.3305 12.8958 18 11.0261 18 9C18 4.02944 13.9706 0 9 0C4.02944 0 0 4.02944 0 9C0 11.0261 0.669501 12.8958 1.79934 14.4C2.51539 15.3533 3.46283 16.5021 4.52759 17.7931C5.90443 19.4626 7.47745 21.3699 9 23.4C10.5226 21.3699 12.0956 19.4626 13.4724 17.7931C14.5372 16.5021 15.4846 15.3533 16.2007 14.4ZM8.9995 12.5995C10.9877 12.5995 12.5995 10.9877 12.5995 8.9995C12.5995 7.01127 10.9877 5.3995 8.9995 5.3995C7.01127 5.3995 5.3995 7.01127 5.3995 8.9995C5.3995 10.9877 7.01127 12.5995 8.9995 12.5995Z" fill="url(#paint0_linear_908_18487)"/>
<defs>
<linearGradient id="paint0_linear_908_18487" x1="8.93525" y1="-5.26527e-06" x2="8.93523" y2="23.4" gradientUnits="userSpaceOnUse">
<stop stop-color="#7F7AFF"/>
<stop offset="1" stop-color="#681CEB"/>
</linearGradient>
</defs>
</svg>
