<svg width="26" height="26" viewBox="0 0 26 26" fill="none" xmlns="http://www.w3.org/2000/svg">
<path fill-rule="evenodd" clip-rule="evenodd" d="M23.5 18.5C23.5 21.2614 21.2614 23.5 18.5 23.5C15.7386 23.5 13.5 21.2614 13.5 18.5C13.5 15.7386 15.7386 13.5 18.5 13.5C21.2614 13.5 23.5 15.7386 23.5 18.5ZM25 18.5C25 22.0899 22.0899 25 18.5 25C14.9101 25 12 22.0899 12 18.5C12 14.9101 14.9101 12 18.5 12C22.0899 12 25 14.9101 25 18.5ZM17.75 16C17.75 15.5858 18.0858 15.25 18.5 15.25C18.9142 15.25 19.25 15.5858 19.25 16V17.75H21.5C21.9142 17.75 22.25 18.0858 22.25 18.5C22.25 18.9142 21.9142 19.25 21.5 19.25H18.5C18.0858 19.25 17.75 18.9142 17.75 18.5V16Z" fill="url(#paint0_linear_806_7638)"/>
<path d="M10.8 21H8.525H4.92857C3.86345 21 3 20.1365 3 19.0714V19.0714V4.95C3 3.87304 3.87304 3 4.95 3V3H11.2782C11.868 3 12.4277 3.26029 12.8077 3.71129L15.5295 6.94155C15.8333 7.30221 16 7.75865 16 8.23026V8.78571V10.5" stroke="#E2E9F1" stroke-width="1.5"/>
<path d="M11 8H6" stroke="#E2E9F1" stroke-width="1.5"/>
<path d="M13 12H6" stroke="#E2E9F1" stroke-width="1.5"/>
<path d="M9 16H6" stroke="#E2E9F1" stroke-width="1.5"/>
<defs>
<linearGradient id="paint0_linear_806_7638" x1="12" y1="13" x2="25" y2="25" gradientUnits="userSpaceOnUse">
<stop stop-color="#9C7BFF"/>
<stop offset="1" stop-color="#7A45FF"/>
</linearGradient>
</defs>
</svg>
