<svg width="18" height="18" viewBox="0 0 18 18" fill="none" xmlns="http://www.w3.org/2000/svg">
<rect x="5.16626" y="7.66602" width="1.66667" height="0.833333" rx="0.416667" fill="#ACB2C1"/>
<rect x="2.66626" y="7.66602" width="1.66667" height="0.833333" rx="0.416667" fill="#ACB2C1"/>
<path fill-rule="evenodd" clip-rule="evenodd" d="M4.69202 9.33203H4.80717C5.4708 9.30194 5.99959 8.75439 5.99959 8.08333C5.99959 7.39298 5.43995 6.83333 4.74959 6.83333C4.05924 6.83333 3.49959 7.39298 3.49959 8.08333C3.49959 8.75439 4.02839 9.30194 4.69202 9.33203ZM4.33325 10.1251C3.38216 9.93216 2.66626 9.09135 2.66626 8.08333C2.66626 6.93274 3.599 6 4.74959 6C5.90019 6 6.83293 6.93274 6.83293 8.08333C6.83293 9.09112 6.11736 9.93177 5.16659 10.1249V11.834H6.00024V11.4167C6.00024 11.1865 6.18679 11 6.41691 11H8.08358C8.3137 11 8.50024 11.1865 8.50024 11.4167V11.834H10.9993V11.4167C10.9993 11.1865 11.1858 11 11.4159 11H13.0826C13.3127 11 13.4993 11.1865 13.4993 11.4167V11.834H15.1663V12.6673H13.4993V14.334H15.1663V15.1673H13.4993V15.5833C13.4993 15.8135 13.3127 16 13.0826 16H11.4159C11.1858 16 10.9993 15.8135 10.9993 15.5833V15.1673H8.50024V15.5833C8.50024 15.8135 8.3137 16 8.08358 16H6.41691C6.18679 16 6.00024 15.8135 6.00024 15.5833V15.1673H1.83325V14.334H6.00024V12.6673H1.83325V11.834H4.33325V10.1251ZM10.9993 14.334H8.50024V12.6673H10.9993V14.334ZM11.8326 11.834H11.8339V12.6673H11.8326V14.334H11.8339V15.1667H12.6659V11.8333H11.8326V11.834ZM6.83358 11.8333V15.1667H7.66691V11.8333H6.83358Z" fill="url(#paint0_linear_375_18260)"/>
<path d="M9.20489 9.02859C9.09214 9.37021 9.25186 9.93008 9.34581 10.1673C9.39279 9.93008 9.5713 9.39866 9.90952 9.17091C10.3323 8.88623 10.6142 9.17091 11.0369 9.17091C11.4597 9.17091 12.0234 8.88623 12.1644 8.45921C12.3053 8.03219 12.4462 8.03219 12.7281 7.88985C13.0099 7.74751 13.4327 7.60517 13.5737 7.03583C13.7146 6.46649 13.4327 6.18176 13.5737 5.89708C13.7146 5.6124 14.1374 5.6124 14.2783 5.18538C14.4192 4.75836 14.2783 4.189 13.9964 4.04666C13.7146 3.90432 13.7146 3.76197 13.8555 3.47729C13.9964 3.19261 14.1374 2.19625 13.2918 1.91157C12.4462 1.62689 11.8825 2.19625 11.7416 2.48093C11.6007 2.76561 11.4597 2.62327 11.0369 2.62327C10.6142 2.62327 10.1914 2.76561 10.0505 3.19264C9.90952 3.61966 10.1914 3.90434 9.90952 4.04668C9.62767 4.18902 9.34581 4.18902 8.92303 4.61604C8.50024 5.04306 8.64117 5.75476 8.7821 6.03945C8.92303 6.32413 8.50024 6.32413 8.50024 7.03583C8.50024 7.74753 8.92303 8.17455 9.20489 8.31689C9.48674 8.45923 9.34581 8.60157 9.20489 9.02859Z" stroke="url(#paint1_linear_375_18260)" stroke-width="0.833333" stroke-linejoin="round"/>
<path d="M10.1663 7.25195C10.1663 6.6964 10.1663 6.00195 10.9996 6.00195" stroke="url(#paint2_linear_375_18260)" stroke-width="0.833333" stroke-linecap="round"/>
<path d="M11.8333 4.33398C11.8333 4.61176 11.9999 5.16732 12.6666 5.16732" stroke="url(#paint3_linear_375_18260)" stroke-width="0.833333" stroke-linecap="round"/>
<defs>
<linearGradient id="paint0_linear_375_18260" x1="3.70821" y1="7.40625" x2="10.6082" y2="16.6061" gradientUnits="userSpaceOnUse">
<stop stop-color="#C3C8D5"/>
<stop offset="1" stop-color="#48506B"/>
</linearGradient>
<linearGradient id="paint1_linear_375_18260" x1="9.32056" y1="3.00586" x2="14.9484" y2="6.94532" gradientUnits="userSpaceOnUse">
<stop stop-color="#C3C8D5"/>
<stop offset="1" stop-color="#48506B"/>
</linearGradient>
<linearGradient id="paint2_linear_375_18260" x1="10.2834" y1="6.17773" x2="11.1128" y2="6.73062" gradientUnits="userSpaceOnUse">
<stop stop-color="#C3C8D5"/>
<stop offset="1" stop-color="#48506B"/>
</linearGradient>
<linearGradient id="paint3_linear_375_18260" x1="11.9504" y1="4.45117" x2="12.5494" y2="5.05013" gradientUnits="userSpaceOnUse">
<stop stop-color="#C3C8D5"/>
<stop offset="1" stop-color="#48506B"/>
</linearGradient>
</defs>
</svg>
