<svg width="18" height="18" viewBox="0 0 18 18" fill="none" xmlns="http://www.w3.org/2000/svg">
<mask id="path-1-outside-1_505_7399" maskUnits="userSpaceOnUse" x="1" y="1" width="16" height="16" fill="black">
<rect fill="white" x="1" y="1" width="16" height="16"/>
<path fill-rule="evenodd" clip-rule="evenodd" d="M2 4C2 2.89543 2.89543 2 4 2H14C15.1046 2 16 2.89543 16 4V14C16 15.1046 15.1046 16 14 16H4C2.89543 16 2 15.1046 2 14V4ZM3 4.45455C3 4.20351 3.20351 4 3.45455 4H4.36364C4.61467 4 4.81818 4.20351 4.81818 4.45455V5.36364C4.81818 5.61467 4.61468 5.81818 4.36364 5.81818H3.45455C3.20351 5.81818 3 5.61468 3 5.36364V4.45455ZM3 7.18111C3 6.93007 3.20351 6.72656 3.45455 6.72656H4.36364C4.61467 6.72656 4.81818 6.93007 4.81818 7.18111V8.0902C4.81818 8.34124 4.61468 8.54474 4.36364 8.54474H3.45455C3.20351 8.54474 3 8.34124 3 8.0902V7.18111ZM3.45455 9.45508C3.20351 9.45508 3 9.65859 3 9.90962V10.8187C3 11.0698 3.20351 11.2733 3.45455 11.2733H4.36364C4.61468 11.2733 4.81818 11.0698 4.81818 10.8187V9.90962C4.81818 9.65859 4.61467 9.45508 4.36364 9.45508H3.45455ZM3 12.6362C3 12.3851 3.20351 12.1816 3.45455 12.1816H4.36364C4.61467 12.1816 4.81818 12.3851 4.81818 12.6362V13.5453C4.81818 13.7963 4.61468 13.9998 4.36364 13.9998H3.45455C3.20351 13.9998 3 13.7963 3 13.5453V12.6362ZM13.1816 4.45455C13.1816 4.20351 13.3851 4 13.6362 4H14.5453C14.7963 4 14.9998 4.20351 14.9998 4.45455V5.36364C14.9998 5.61467 14.7963 5.81818 14.5453 5.81818H13.6362C13.3851 5.81818 13.1816 5.61468 13.1816 5.36364V4.45455ZM13.1816 7.18111C13.1816 6.93007 13.3851 6.72656 13.6362 6.72656H14.5453C14.7963 6.72656 14.9998 6.93007 14.9998 7.18111V8.0902C14.9998 8.34124 14.7963 8.54474 14.5453 8.54474H13.6362C13.3851 8.54474 13.1816 8.34124 13.1816 8.0902V7.18111ZM13.6362 9.45508C13.3851 9.45508 13.1816 9.65859 13.1816 9.90962V10.8187C13.1816 11.0698 13.3851 11.2733 13.6362 11.2733H14.5453C14.7963 11.2733 14.9998 11.0698 14.9998 10.8187V9.90962C14.9998 9.65859 14.7963 9.45508 14.5453 9.45508H13.6362ZM13.1816 12.6362C13.1816 12.3851 13.3851 12.1816 13.6362 12.1816H14.5453C14.7963 12.1816 14.9998 12.3851 14.9998 12.6362V13.5453C14.9998 13.7963 14.7963 13.9998 14.5453 13.9998H13.6362C13.3851 13.9998 13.1816 13.7963 13.1816 13.5453V12.6362ZM10.876 9.41603C11.1728 9.21811 11.1728 8.78189 10.876 8.58397L7.77735 6.51823C7.44507 6.29671 7 6.53491 7 6.93426V11.0657C7 11.4651 7.44507 11.7033 7.77735 11.4818L10.876 9.41603Z"/>
</mask>
<path fill-rule="evenodd" clip-rule="evenodd" d="M2 4C2 2.89543 2.89543 2 4 2H14C15.1046 2 16 2.89543 16 4V14C16 15.1046 15.1046 16 14 16H4C2.89543 16 2 15.1046 2 14V4ZM3 4.45455C3 4.20351 3.20351 4 3.45455 4H4.36364C4.61467 4 4.81818 4.20351 4.81818 4.45455V5.36364C4.81818 5.61467 4.61468 5.81818 4.36364 5.81818H3.45455C3.20351 5.81818 3 5.61468 3 5.36364V4.45455ZM3 7.18111C3 6.93007 3.20351 6.72656 3.45455 6.72656H4.36364C4.61467 6.72656 4.81818 6.93007 4.81818 7.18111V8.0902C4.81818 8.34124 4.61468 8.54474 4.36364 8.54474H3.45455C3.20351 8.54474 3 8.34124 3 8.0902V7.18111ZM3.45455 9.45508C3.20351 9.45508 3 9.65859 3 9.90962V10.8187C3 11.0698 3.20351 11.2733 3.45455 11.2733H4.36364C4.61468 11.2733 4.81818 11.0698 4.81818 10.8187V9.90962C4.81818 9.65859 4.61467 9.45508 4.36364 9.45508H3.45455ZM3 12.6362C3 12.3851 3.20351 12.1816 3.45455 12.1816H4.36364C4.61467 12.1816 4.81818 12.3851 4.81818 12.6362V13.5453C4.81818 13.7963 4.61468 13.9998 4.36364 13.9998H3.45455C3.20351 13.9998 3 13.7963 3 13.5453V12.6362ZM13.1816 4.45455C13.1816 4.20351 13.3851 4 13.6362 4H14.5453C14.7963 4 14.9998 4.20351 14.9998 4.45455V5.36364C14.9998 5.61467 14.7963 5.81818 14.5453 5.81818H13.6362C13.3851 5.81818 13.1816 5.61468 13.1816 5.36364V4.45455ZM13.1816 7.18111C13.1816 6.93007 13.3851 6.72656 13.6362 6.72656H14.5453C14.7963 6.72656 14.9998 6.93007 14.9998 7.18111V8.0902C14.9998 8.34124 14.7963 8.54474 14.5453 8.54474H13.6362C13.3851 8.54474 13.1816 8.34124 13.1816 8.0902V7.18111ZM13.6362 9.45508C13.3851 9.45508 13.1816 9.65859 13.1816 9.90962V10.8187C13.1816 11.0698 13.3851 11.2733 13.6362 11.2733H14.5453C14.7963 11.2733 14.9998 11.0698 14.9998 10.8187V9.90962C14.9998 9.65859 14.7963 9.45508 14.5453 9.45508H13.6362ZM13.1816 12.6362C13.1816 12.3851 13.3851 12.1816 13.6362 12.1816H14.5453C14.7963 12.1816 14.9998 12.3851 14.9998 12.6362V13.5453C14.9998 13.7963 14.7963 13.9998 14.5453 13.9998H13.6362C13.3851 13.9998 13.1816 13.7963 13.1816 13.5453V12.6362ZM10.876 9.41603C11.1728 9.21811 11.1728 8.78189 10.876 8.58397L7.77735 6.51823C7.44507 6.29671 7 6.53491 7 6.93426V11.0657C7 11.4651 7.44507 11.7033 7.77735 11.4818L10.876 9.41603Z" fill="#F2F4FC"/>
<path d="M10.876 8.58397L10.5986 9H10.5986L10.876 8.58397ZM10.876 9.41603L11.1533 9.83205L10.876 9.41603ZM7.77735 6.51823L7.5 6.93426H7.5L7.77735 6.51823ZM7 11.0657L7.5 11.0657V11.0657H7ZM7.77735 11.4818L8.0547 11.8978H8.0547L7.77735 11.4818ZM4 1.5C2.61929 1.5 1.5 2.61929 1.5 4H2.5C2.5 3.17157 3.17157 2.5 4 2.5V1.5ZM14 1.5H4V2.5H14V1.5ZM16.5 4C16.5 2.61929 15.3807 1.5 14 1.5V2.5C14.8284 2.5 15.5 3.17157 15.5 4H16.5ZM16.5 14V4H15.5V14H16.5ZM14 16.5C15.3807 16.5 16.5 15.3807 16.5 14H15.5C15.5 14.8284 14.8284 15.5 14 15.5V16.5ZM4 16.5H14V15.5H4V16.5ZM1.5 14C1.5 15.3807 2.61929 16.5 4 16.5V15.5C3.17157 15.5 2.5 14.8284 2.5 14H1.5ZM1.5 4V14H2.5V4H1.5ZM3.45455 3.5C2.92736 3.5 2.5 3.92737 2.5 4.45455H3.5C3.5 4.47965 3.47965 4.5 3.45455 4.5V3.5ZM4.36364 3.5H3.45455V4.5H4.36364V3.5ZM5.31818 4.45455C5.31818 3.92736 4.89082 3.5 4.36364 3.5V4.5C4.33853 4.5 4.31818 4.47965 4.31818 4.45455H5.31818ZM5.31818 5.36364V4.45455H4.31818V5.36364H5.31818ZM4.36364 6.31818C4.89082 6.31818 5.31818 5.89082 5.31818 5.36364H4.31818C4.31818 5.33853 4.33853 5.31818 4.36364 5.31818V6.31818ZM3.45455 6.31818H4.36364V5.31818H3.45455V6.31818ZM2.5 5.36364C2.5 5.89082 2.92737 6.31818 3.45455 6.31818V5.31818C3.47965 5.31818 3.5 5.33853 3.5 5.36364H2.5ZM2.5 4.45455V5.36364H3.5V4.45455H2.5ZM3.45455 6.22656C2.92736 6.22656 2.5 6.65393 2.5 7.18111H3.5C3.5 7.20621 3.47965 7.22656 3.45455 7.22656V6.22656ZM4.36364 6.22656H3.45455V7.22656H4.36364V6.22656ZM5.31818 7.18111C5.31818 6.65393 4.89082 6.22656 4.36364 6.22656V7.22656C4.33853 7.22656 4.31818 7.20621 4.31818 7.18111H5.31818ZM5.31818 8.0902V7.18111H4.31818V8.0902H5.31818ZM4.36364 9.04474C4.89082 9.04474 5.31818 8.61738 5.31818 8.0902H4.31818C4.31818 8.0651 4.33853 8.04474 4.36364 8.04474V9.04474ZM3.45455 9.04474H4.36364V8.04474H3.45455V9.04474ZM2.5 8.0902C2.5 8.61738 2.92737 9.04474 3.45455 9.04474V8.04474C3.47965 8.04474 3.5 8.06509 3.5 8.0902H2.5ZM2.5 7.18111V8.0902H3.5V7.18111H2.5ZM3.5 9.90962C3.5 9.93473 3.47965 9.95508 3.45455 9.95508V8.95508C2.92736 8.95508 2.5 9.38244 2.5 9.90962H3.5ZM3.5 10.8187V9.90962H2.5V10.8187H3.5ZM3.45455 10.7733C3.47965 10.7733 3.5 10.7936 3.5 10.8187H2.5C2.5 11.3459 2.92737 11.7733 3.45455 11.7733V10.7733ZM4.36364 10.7733H3.45455V11.7733H4.36364V10.7733ZM4.31818 10.8187C4.31818 10.7936 4.33853 10.7733 4.36364 10.7733V11.7733C4.89082 11.7733 5.31818 11.3459 5.31818 10.8187H4.31818ZM4.31818 9.90962V10.8187H5.31818V9.90962H4.31818ZM4.36364 9.95508C4.33853 9.95508 4.31818 9.93473 4.31818 9.90962H5.31818C5.31818 9.38244 4.89082 8.95508 4.36364 8.95508V9.95508ZM3.45455 9.95508H4.36364V8.95508H3.45455V9.95508ZM3.45455 11.6816C2.92736 11.6816 2.5 12.109 2.5 12.6362H3.5C3.5 12.6613 3.47965 12.6816 3.45455 12.6816V11.6816ZM4.36364 11.6816H3.45455V12.6816H4.36364V11.6816ZM5.31818 12.6362C5.31818 12.109 4.89082 11.6816 4.36364 11.6816V12.6816C4.33853 12.6816 4.31818 12.6613 4.31818 12.6362H5.31818ZM5.31818 13.5453V12.6362H4.31818V13.5453H5.31818ZM4.36364 14.4998C4.89082 14.4998 5.31818 14.0725 5.31818 13.5453H4.31818C4.31818 13.5202 4.33853 13.4998 4.36364 13.4998V14.4998ZM3.45455 14.4998H4.36364V13.4998H3.45455V14.4998ZM2.5 13.5453C2.5 14.0725 2.92737 14.4998 3.45455 14.4998V13.4998C3.47965 13.4998 3.5 13.5202 3.5 13.5453H2.5ZM2.5 12.6362V13.5453H3.5V12.6362H2.5ZM13.6362 3.5C13.109 3.5 12.6816 3.92737 12.6816 4.45455H13.6816C13.6816 4.47965 13.6613 4.5 13.6362 4.5V3.5ZM14.5453 3.5H13.6362V4.5H14.5453V3.5ZM15.4998 4.45455C15.4998 3.92736 15.0725 3.5 14.5453 3.5V4.5C14.5202 4.5 14.4998 4.47965 14.4998 4.45455H15.4998ZM15.4998 5.36364V4.45455H14.4998V5.36364H15.4998ZM14.5453 6.31818C15.0725 6.31818 15.4998 5.89082 15.4998 5.36364H14.4998C14.4998 5.33853 14.5202 5.31818 14.5453 5.31818V6.31818ZM13.6362 6.31818H14.5453V5.31818H13.6362V6.31818ZM12.6816 5.36364C12.6816 5.89082 13.109 6.31818 13.6362 6.31818V5.31818C13.6613 5.31818 13.6816 5.33853 13.6816 5.36364H12.6816ZM12.6816 4.45455V5.36364H13.6816V4.45455H12.6816ZM13.6362 6.22656C13.109 6.22656 12.6816 6.65393 12.6816 7.18111H13.6816C13.6816 7.20621 13.6613 7.22656 13.6362 7.22656V6.22656ZM14.5453 6.22656H13.6362V7.22656H14.5453V6.22656ZM15.4998 7.18111C15.4998 6.65393 15.0725 6.22656 14.5453 6.22656V7.22656C14.5202 7.22656 14.4998 7.20621 14.4998 7.18111H15.4998ZM15.4998 8.0902V7.18111H14.4998V8.0902H15.4998ZM14.5453 9.04474C15.0725 9.04474 15.4998 8.61738 15.4998 8.0902H14.4998C14.4998 8.06509 14.5202 8.04474 14.5453 8.04474V9.04474ZM13.6362 9.04474H14.5453V8.04474H13.6362V9.04474ZM12.6816 8.0902C12.6816 8.61738 13.109 9.04474 13.6362 9.04474V8.04474C13.6613 8.04474 13.6816 8.06509 13.6816 8.0902H12.6816ZM12.6816 7.18111V8.0902H13.6816V7.18111H12.6816ZM13.6816 9.90962C13.6816 9.93473 13.6613 9.95508 13.6362 9.95508V8.95508C13.109 8.95508 12.6816 9.38244 12.6816 9.90962H13.6816ZM13.6816 10.8187V9.90962H12.6816V10.8187H13.6816ZM13.6362 10.7733C13.6613 10.7733 13.6816 10.7936 13.6816 10.8187H12.6816C12.6816 11.3459 13.109 11.7733 13.6362 11.7733V10.7733ZM14.5453 10.7733H13.6362V11.7733H14.5453V10.7733ZM14.4998 10.8187C14.4998 10.7936 14.5202 10.7733 14.5453 10.7733V11.7733C15.0725 11.7733 15.4998 11.3459 15.4998 10.8187H14.4998ZM14.4998 9.90962V10.8187H15.4998V9.90962H14.4998ZM14.5453 9.95508C14.5202 9.95508 14.4998 9.93473 14.4998 9.90962H15.4998C15.4998 9.38244 15.0725 8.95508 14.5453 8.95508V9.95508ZM13.6362 9.95508H14.5453V8.95508H13.6362V9.95508ZM13.6362 11.6816C13.109 11.6816 12.6816 12.109 12.6816 12.6362H13.6816C13.6816 12.6613 13.6613 12.6816 13.6362 12.6816V11.6816ZM14.5453 11.6816H13.6362V12.6816H14.5453V11.6816ZM15.4998 12.6362C15.4998 12.109 15.0725 11.6816 14.5453 11.6816V12.6816C14.5202 12.6816 14.4998 12.6613 14.4998 12.6362H15.4998ZM15.4998 13.5453V12.6362H14.4998V13.5453H15.4998ZM14.5453 14.4998C15.0725 14.4998 15.4998 14.0725 15.4998 13.5453H14.4998C14.4998 13.5202 14.5202 13.4998 14.5453 13.4998V14.4998ZM13.6362 14.4998H14.5453V13.4998H13.6362V14.4998ZM12.6816 13.5453C12.6816 14.0725 13.109 14.4998 13.6362 14.4998V13.4998C13.6613 13.4998 13.6816 13.5202 13.6816 13.5453H12.6816ZM12.6816 12.6362V13.5453H13.6816V12.6362H12.6816ZM10.5986 9H10.5986L11.1533 9.83205C11.747 9.43623 11.747 8.56377 11.1533 8.16795L10.5986 9ZM7.5 6.93426L10.5986 9L11.1533 8.16795L8.0547 6.10221L7.5 6.93426ZM7.5 6.93426H7.5L8.0547 6.10221C7.39014 5.65917 6.5 6.13556 6.5 6.93426H7.5ZM7.5 11.0657V6.93426H6.5V11.0657H7.5ZM7.5 11.0657L7.5 11.0657L6.5 11.0657C6.5 11.8644 7.39015 12.3408 8.0547 11.8978L7.5 11.0657ZM10.5986 9L7.5 11.0657L8.0547 11.8978L11.1533 9.83205L10.5986 9Z" fill="black" fill-opacity="0.2" mask="url(#path-1-outside-1_505_7399)"/>
</svg>
