<svg width="12" height="13" viewBox="0 0 12 13" fill="none" xmlns="http://www.w3.org/2000/svg">
<rect x="0.5" y="1.5" width="11" height="11" rx="1.5" stroke="#8352FF"/>
<rect width="1" height="3" rx="0.5" transform="matrix(-1 0 0 1 4 0)" fill="#8352FF"/>
<rect width="12" height="1" transform="matrix(-1 0 0 1 12 4)" fill="#8352FF"/>
<rect width="2" height="2" transform="matrix(-1 0 0 1 10 6)" fill="#8352FF"/>
<rect width="2" height="2" transform="matrix(-1 0 0 1 7 6)" fill="#8352FF"/>
<rect width="2" height="2" transform="matrix(-1 0 0 1 7 9)" fill="#8352FF"/>
<rect width="2" height="2" transform="matrix(-1 0 0 1 4 9)" fill="#8352FF"/>
<rect width="1" height="3" rx="0.5" transform="matrix(-1 0 0 1 9 0)" fill="#8352FF"/>
</svg>
