<svg width="18" height="18" viewBox="0 0 18 18" fill="none" xmlns="http://www.w3.org/2000/svg">
<path fill-rule="evenodd" clip-rule="evenodd" d="M6.08141 1.60269L5.24391 1.23047L5.48506 2.11467C5.60384 2.55022 5.83574 3.44805 5.80994 4.43931C5.78423 5.4275 5.50469 6.46072 4.64761 7.23209C3.43839 8.32038 2.28314 9.9296 2.18493 11.6468C2.13499 12.5201 2.36057 13.4065 2.97007 14.2351C3.57419 15.0563 4.5393 15.7994 5.9369 16.4291C6.56213 16.7206 8.12915 17.0796 9.66916 16.3096C10.5669 15.8607 11.2647 15.293 11.7961 14.5508C12.3249 13.8121 12.6726 12.9232 12.9047 11.8549L12.9055 11.8513L12.9455 11.6592C12.9537 11.62 12.9563 11.581 12.9539 11.5429C14.6712 11.3294 16.0001 9.86471 16.0001 8.08965C16.0001 6.16766 14.442 4.60958 12.5201 4.60958C11.5434 4.60958 10.6607 5.01191 10.0287 5.65987C9.5079 4.6774 8.20213 2.54523 6.08141 1.60269ZM9.46656 6.41884C9.43219 6.38556 9.40277 6.346 9.38016 6.30078C9.03669 5.61385 8.08424 3.89825 6.54769 2.85606C6.63037 3.31616 6.69502 3.87191 6.67967 4.46194C6.6503 5.59042 6.32602 6.892 5.22962 7.87877C4.09437 8.90049 3.13273 10.3116 3.05353 11.6965C3.01477 12.3744 3.18536 13.0595 3.67089 13.7195C3.98133 14.1415 4.42691 14.5616 5.04371 14.9624C4.97409 14.7389 4.93842 14.5069 4.93842 14.2748C4.93842 13.0672 5.66302 12.3426 6.38761 11.618C7.1122 10.8934 7.1122 9.92727 6.62914 8.96114C7.19271 9.28319 8.31986 10.2171 8.31986 11.3765C8.31986 12.5358 7.99782 13.3087 7.8368 13.5502C8.23935 13.5502 9.09276 13.3087 9.28599 12.3426C9.68854 12.5841 10.4453 13.357 10.2521 14.5164C10.2219 14.6974 10.1659 14.8749 10.0881 15.0456C10.488 14.7551 10.8162 14.4249 11.0886 14.0444C11.5281 13.4306 11.8387 12.6631 12.0541 11.672L12.0812 11.5423C10.3664 11.3265 9.03998 9.86299 9.03998 8.08965C9.03998 7.48415 9.19462 6.91477 9.46656 6.41884ZM15.3037 8.08965C15.3037 9.62702 14.0574 10.8733 12.5201 10.8733C10.9827 10.8733 9.73641 9.62702 9.73641 8.08965C9.73641 6.55229 10.9827 5.30601 12.5201 5.30601C14.0574 5.30601 15.3037 6.55229 15.3037 8.08965ZM12.1699 6.52532C12.1699 6.28493 12.3647 6.09005 12.6051 6.09005C12.8455 6.09005 13.0404 6.28493 13.0404 6.52532V8.44048C13.0404 8.68087 12.8455 8.87574 12.6051 8.87574C12.3647 8.87574 12.1699 8.68087 12.1699 8.44048V6.52532ZM12.1699 9.65874C12.1699 9.41835 12.3647 9.22347 12.6051 9.22347C12.8455 9.22347 13.0404 9.41835 13.0404 9.65874C13.0404 9.89913 12.8455 10.094 12.6051 10.094C12.3647 10.094 12.1699 9.89913 12.1699 9.65874Z" fill="url(#paint0_linear_375_18251)"/>
<defs>
<linearGradient id="paint0_linear_375_18251" x1="4.12193" y1="3.41604" x2="15.2162" y2="13.2826" gradientUnits="userSpaceOnUse">
<stop stop-color="#F9B690"/>
<stop offset="1" stop-color="#9C0401"/>
</linearGradient>
</defs>
</svg>
