<svg width="18" height="18" viewBox="0 0 18 18" fill="none" xmlns="http://www.w3.org/2000/svg">
<path fill-rule="evenodd" clip-rule="evenodd" d="M8.9998 8.15C9.66255 8.15 10.1998 7.61274 10.1998 6.95C10.1998 6.28726 9.66255 5.75 8.9998 5.75C8.33706 5.75 7.7998 6.28726 7.7998 6.95C7.7998 7.61274 8.33706 8.15 8.9998 8.15ZM9 9C8.71828 9 8.48445 9.21772 8.46438 9.49873L8.07125 15.0025C8.03275 15.5415 8.45963 16 9 16C9.54037 16 9.96725 15.5415 9.92875 15.0025L9.53562 9.49873C9.51555 9.21772 9.28172 9 9 9Z" fill="#F2F4FC"/>
<path d="M11.571 4.68028C12.1045 5.28468 12.4282 6.0786 12.4282 6.94813C12.4282 7.81765 12.1045 8.61158 11.571 9.21598M6.42819 9.21598C5.89473 8.61158 5.57104 7.81765 5.57104 6.94813C5.57104 6.05279 5.91424 5.23761 6.47625 4.62695" stroke="#F2F4FC" stroke-width="1.33" stroke-linecap="round"/>
<path d="M13.2857 2.75C14.3462 3.83217 15 5.3143 15 6.94913C15 8.58396 14.3462 10.0661 13.2857 11.1483M4.71429 11.1483C3.65384 10.0661 3 8.58396 3 6.94913C3 5.3143 3.65384 3.83217 4.71429 2.75" stroke="#F2F4FC" stroke-width="1.33" stroke-linecap="round"/>
</svg>
