<svg width="58" height="64" viewBox="0 0 58 64" fill="none" xmlns="http://www.w3.org/2000/svg">
<g filter="url(#filter0_d_7649_61488)">
<path fill-rule="evenodd" clip-rule="evenodd" d="M16.7198 20.8777C15.738 23.3077 16.6449 26.0319 18.7498 27.4232L17.0853 31.5429L11.0587 29.108L10.247 31.1169L20.2922 35.1754L18.6689 39.1932L8.62376 35.1347L7.81212 37.1436L17.8573 41.2021L17.4521 42.205C17.228 42.7597 17.496 43.3911 18.0507 43.6153L22.0685 45.2386C22.6232 45.4627 23.2546 45.1947 23.4787 44.6399L23.8839 43.6371L29.9082 46.071L29.503 47.0739C29.2789 47.6287 29.5469 48.2601 30.1016 48.4842L34.1194 50.1075C34.6741 50.3316 35.3055 50.0636 35.5297 49.5089L35.9348 48.506L39.9534 50.1296L40.765 48.1207L36.7465 46.4971L38.3698 42.4793L42.3883 44.1029L43.1999 42.094L39.1814 40.4704L39.5879 39.4644C39.812 38.9096 39.544 38.2782 38.9892 38.0541L34.9715 36.4308C34.4167 36.2067 33.7854 36.4747 33.5612 37.0294L33.1548 38.0354L27.1305 35.6015L27.5369 34.5954C27.7611 34.0407 27.4931 33.4093 26.9383 33.1852L22.9206 31.5619C22.3658 31.3377 21.7344 31.6058 21.5103 32.1605L21.1039 33.1665L19.0942 32.3545L20.7588 28.2346C23.2389 28.695 25.7826 27.3654 26.7642 24.9359C27.8848 22.1622 26.5448 19.0052 23.7711 17.8845C20.9974 16.7639 17.8404 18.104 16.7198 20.8777ZM24.1795 25.0577C23.3246 26.0266 21.9397 26.4222 20.6646 25.9731L20.387 25.8609C19.1579 25.2983 18.4365 24.052 18.4944 22.7613L19.3279 23.098C19.8827 23.3222 20.514 23.0541 20.7382 22.4994C20.9623 21.9447 20.6943 21.3133 20.1396 21.0891L19.3071 20.7528C20.1938 19.7506 21.648 19.3636 22.9594 19.8934C24.271 20.4234 25.0483 21.7122 24.9897 23.0492C24.9804 23.0451 24.9711 23.0412 24.9616 23.0374L24.1573 22.7124C23.6026 22.4883 22.9712 22.7563 22.7471 23.311C22.5229 23.8658 22.7909 24.4972 23.3457 24.7213L24.15 25.0463C24.1598 25.0503 24.1697 25.0541 24.1795 25.0577ZM24.6956 41.6282L30.7199 44.0621L32.3431 40.0443L26.3189 37.6104L24.6956 41.6282ZM35.1668 38.8484L35.1636 38.8471L37.1732 39.6572L33.9266 47.6928L31.9209 46.8824L32.7319 44.8751L32.7287 44.8738L34.352 40.856L34.3551 40.8573L35.1668 38.8484ZM19.8668 42.0122L23.1134 33.9766L25.1222 34.7882L21.8757 42.8238L19.8668 42.0122Z" fill="url(#paint0_linear_7649_61488)" fill-opacity="0.05" shape-rendering="crispEdges"/>
<path d="M31.562 29.5237C30.9575 30.2374 30.7972 31.7426 30.7926 32.406C31.1369 31.8799 32.0848 30.7727 33.122 30.5531C34.4185 30.2786 34.8206 31.2394 35.8398 31.6512C36.859 32.0629 38.4952 31.9257 39.2508 31.0336C40.0065 30.1414 40.3462 30.2787 41.1643 30.2101C41.9824 30.1414 43.1402 30.2101 44.0344 28.9749C44.9287 27.7396 44.5265 26.7787 45.1435 26.2297C45.7605 25.6807 46.7797 26.0925 47.5354 25.2003C48.291 24.3082 48.5058 22.7984 47.965 22.1807C47.4242 21.563 47.5628 21.2199 48.1798 20.6709C48.7968 20.1219 50.1069 17.8572 48.3458 16.3474C46.5847 14.8376 44.6713 15.6611 44.0543 16.2101C43.4373 16.7591 43.2362 16.2787 42.217 15.8669C41.1978 15.4551 40.04 15.3865 39.2844 16.2786C38.5287 17.1708 38.9309 18.1316 38.1128 18.2002C37.2947 18.2688 36.6153 17.9943 35.1802 18.6119C33.7451 19.2296 33.3917 21.0825 33.4541 21.906C33.5166 22.7296 32.4974 22.3178 31.8042 24.0335C31.111 25.7492 31.7143 27.1903 32.2551 27.808C32.796 28.4257 32.3176 28.6315 31.562 29.5237Z" fill="url(#paint1_linear_7649_61488)" fill-opacity="0.05" shape-rendering="crispEdges"/>
</g>
<path fill-rule="evenodd" clip-rule="evenodd" d="M17.5585 21.7154C16.7188 23.7937 17.2607 26.0873 18.7521 27.5781C19.0044 27.8303 19.2839 28.0596 19.5885 28.2609L17.9241 32.3806L11.8974 29.9456L11.0858 31.9545L21.131 36.0131L19.5077 40.0309L9.46252 35.9723L8.65088 37.9812L18.6961 42.0398L18.2909 43.0427C18.1229 43.4583 18.2313 43.9171 18.5296 44.2152C18.6294 44.315 18.7504 44.3968 18.8895 44.4529L22.9072 46.0762C23.462 46.3004 24.0934 46.0323 24.3175 45.4776L24.7227 44.4747L30.747 46.9087L30.3418 47.9116C30.1738 48.3273 30.2822 48.786 30.5805 49.0842C30.6803 49.1839 30.8013 49.2657 30.9404 49.3219L34.9582 50.9452C35.5129 51.1693 36.1443 50.9013 36.3684 50.3465L36.7736 49.3437L40.7921 50.9673L41.6038 48.9584L37.5852 47.3348L39.2085 43.317L43.2271 44.9406L44.0387 42.9317L40.0202 41.3081L40.4266 40.3021C40.5946 39.8864 40.4862 39.4276 40.1879 39.1295C40.0881 39.0297 39.9671 38.948 39.828 38.8918L35.8102 37.2685C35.2555 37.0444 34.6241 37.3124 34.4 37.8671L33.9935 38.8731L27.9692 36.4391L28.3757 35.4331C28.5436 35.0174 28.4353 34.5587 28.137 34.2605C28.0372 34.1608 27.9161 34.079 27.7771 34.0228L23.7593 32.3995C23.2046 32.1754 22.5732 32.4434 22.3491 32.9982L21.9426 34.0042L19.933 33.1922L21.5975 29.0722C24.0776 29.5326 26.6214 28.203 27.6029 25.7736C28.4427 23.6952 27.9007 21.4016 26.4093 19.9107C25.9103 19.412 25.3051 19.0031 24.6098 18.7222C21.8362 17.6016 18.6792 18.9416 17.5585 21.7154ZM25.0183 25.8954C24.1633 26.8643 22.7785 27.2599 21.5033 26.8108L21.2258 26.6986C20.8655 26.5337 20.5488 26.31 20.2826 26.0437C19.6407 25.4015 19.2923 24.5113 19.3331 23.5989L20.1667 23.9357C20.7214 24.1598 21.3528 23.8918 21.5769 23.3371C21.7448 22.9216 21.6366 22.463 21.3385 22.1649C21.2387 22.065 21.1175 21.9831 20.9783 21.9268L20.1459 21.5905C21.0325 20.5882 22.4868 20.2013 23.7982 20.7311C24.2159 20.8999 24.5794 21.1456 24.8789 21.4453C25.5201 22.0868 25.8684 22.9756 25.8285 23.8869C25.8192 23.8828 25.8098 23.8789 25.8004 23.8751L24.9961 23.5501C24.4413 23.326 23.8099 23.594 23.5858 24.1487C23.4179 24.5643 23.5262 25.0228 23.8242 25.321C23.9241 25.4209 24.0452 25.5028 24.1844 25.559L24.9888 25.884C24.9986 25.8879 25.0084 25.8918 25.0183 25.8954ZM25.5343 42.4658L31.5586 44.8998L33.1819 40.882L27.1576 38.448L25.5343 42.4658ZM36.0055 39.686L36.0024 39.6848L38.0119 40.4949L34.7654 48.5304L32.7596 47.7201L33.5706 45.7127L33.5675 45.7115L35.1908 41.6937L35.1939 41.6949L36.0055 39.686ZM20.7056 42.8499L23.9521 34.8143L25.961 35.6259L22.7144 43.6615L20.7056 42.8499Z" fill="#C2C7D4"/>
<path d="M32.4007 30.3614C31.7962 31.0751 31.636 32.5803 31.6314 33.2437C31.9757 32.7176 32.9236 31.6103 33.9608 31.3908C35.2572 31.1163 35.6594 32.0771 36.6786 32.4888C37.6978 32.9006 39.334 32.7634 40.0896 31.8712C40.8452 30.9791 41.185 31.1163 42.003 31.0477C42.8211 30.9791 43.979 31.0478 44.8732 29.8125C45.7674 28.5773 45.3653 27.6164 45.9823 27.0674C46.5993 26.5184 47.6185 26.9301 48.3741 26.038C49.1298 25.1458 49.3446 23.636 48.8037 23.0184C48.2629 22.4007 48.4016 22.0576 49.0186 21.5086C49.6356 20.9596 50.9457 18.6949 49.1846 17.1851C47.4235 15.6752 45.51 16.4987 44.893 17.0478C44.2761 17.5968 44.075 17.1164 43.0558 16.7046C42.0366 16.2928 40.8788 16.2242 40.1231 17.1163C39.3675 18.0085 39.7697 18.9693 38.9516 19.0379C38.1335 19.1065 37.454 18.832 36.019 19.4496C34.5839 20.0672 34.2304 21.9202 34.2929 22.7437C34.3553 23.5672 33.3361 23.1555 32.643 24.8711C31.9498 26.5868 32.5531 28.028 33.0939 28.6457C33.6347 29.2633 33.1564 29.4692 32.4007 30.3614Z" fill="#C2C7D4"/>
<path d="M22.772 16.8841C19.9983 15.7635 16.8413 17.1036 15.7207 19.8773L17.5592 21.7157C18.6798 18.942 21.8368 17.602 24.6105 18.7226L22.772 16.8841Z" fill="url(#paint2_linear_7649_61488)"/>
<path d="M18.3081 19.752L19.1405 20.0883L20.979 21.9268L20.1466 21.5904L18.3081 19.752Z" fill="url(#paint3_linear_7649_61488)"/>
<path d="M10.0592 28.1074L9.24756 30.1163L11.086 31.9548L11.8977 29.9459L10.0592 28.1074Z" fill="url(#paint4_linear_7649_61488)"/>
<path d="M15.7206 19.877C14.8808 21.9553 15.4227 24.2489 16.9141 25.7397L18.7511 27.5767C17.2608 26.0858 16.7196 23.7931 17.559 21.7154L15.7206 19.877Z" fill="url(#paint5_linear_7649_61488)"/>
<path d="M18.3081 19.7531C19.1947 18.7509 20.649 18.3639 21.9604 18.8938L23.7989 20.7322C22.4874 20.2024 21.0332 20.5894 20.1466 21.5916L18.3081 19.7531Z" fill="url(#paint6_linear_7649_61488)"/>
<path d="M19.1396 20.0879C19.2789 20.1441 19.4 20.226 19.4999 20.3259L21.338 22.1641C21.2382 22.0643 21.1172 21.9826 20.9781 21.9264L19.1396 20.0879Z" fill="url(#paint7_linear_7649_61488)"/>
<path d="M18.3277 22.0985L17.4941 21.7617L19.3326 23.6002L20.1661 23.937L18.3277 22.0985Z" fill="url(#paint8_linear_7649_61488)"/>
<path d="M19.5 20.3262C19.798 20.6243 19.9063 21.0829 19.7384 21.4984L21.5768 23.3369C21.7447 22.9214 21.6365 22.4628 21.3385 22.1646L19.5 20.3262Z" fill="url(#paint9_linear_7649_61488)"/>
<path d="M19.7386 21.5C19.5145 22.0547 18.8831 22.3228 18.3284 22.0986L20.1668 23.9371C20.7216 24.1612 21.353 23.8932 21.5771 23.3385L19.7386 21.5Z" fill="url(#paint10_linear_7649_61488)"/>
<path d="M18.4444 24.2065C17.8025 23.5643 17.454 22.6741 17.4949 21.7617L19.3334 23.6002C19.2925 24.5126 19.6409 25.4027 20.2828 26.0449L18.4444 24.2065Z" fill="url(#paint11_linear_7649_61488)"/>
<path d="M24.5712 18.0733C24.0722 17.5746 23.467 17.1657 22.7717 16.8848L24.6102 18.7232C25.3055 19.0042 25.9107 19.413 26.4096 19.9118L24.5712 18.0733Z" fill="url(#paint12_linear_7649_61488)"/>
<path d="M21.9604 18.8926C22.3781 19.0613 22.7416 19.307 23.0412 19.6068L24.8785 21.4441C24.5792 21.1449 24.2161 20.8996 23.7989 20.7311L21.9604 18.8926Z" fill="url(#paint13_linear_7649_61488)"/>
<path d="M7.62414 34.1348L6.8125 36.1437L8.65096 37.9821L9.4626 35.9732L7.62414 34.1348Z" fill="url(#paint14_linear_7649_61488)"/>
<path d="M16.0852 30.5424L10.0586 28.1074L11.8971 29.9459L17.9237 32.3808L16.0852 30.5424Z" fill="url(#paint15_linear_7649_61488)"/>
<path d="M16.9141 25.7402C17.1664 25.9925 17.4459 26.2217 17.7505 26.423L19.5889 28.2615C19.2843 28.0602 19.0048 27.8309 18.7525 27.5787L16.9141 25.7402Z" fill="url(#paint16_linear_7649_61488)"/>
<path d="M19.387 24.86C19.0272 24.6953 18.7109 24.472 18.4449 24.2061L20.2823 26.0436C20.5485 26.3099 20.8652 26.5335 21.2255 26.6985L19.387 24.86Z" fill="url(#paint17_linear_7649_61488)"/>
<path d="M23.0408 19.6074C23.6819 20.2489 24.0303 21.1377 23.9903 22.049L25.8288 23.8875C25.8687 22.9762 25.5204 22.0874 24.8792 21.4459L23.0408 19.6074Z" fill="url(#paint18_linear_7649_61488)"/>
<path d="M19.6646 24.9735L19.387 24.8613L21.2254 26.6998L21.503 26.812L19.6646 24.9735Z" fill="url(#paint19_linear_7649_61488)"/>
<path d="M21.7471 22.3106C21.9712 21.7559 22.6026 21.4879 23.1573 21.712L24.9958 23.5505C24.4411 23.3263 23.8097 23.5943 23.5855 24.1491L21.7471 22.3106Z" fill="url(#paint20_linear_7649_61488)"/>
<path d="M21.986 23.4828C21.688 23.1846 21.5797 22.7261 21.7476 22.3105L23.5861 24.149C23.4182 24.5645 23.5264 25.0231 23.8245 25.3213L21.986 23.4828Z" fill="url(#paint21_linear_7649_61488)"/>
<path d="M17.7494 26.4238L16.085 30.5435L17.9234 32.382L19.5879 28.2623L17.7494 26.4238Z" fill="url(#paint22_linear_7649_61488)"/>
<path d="M23.1575 21.7129L23.9618 22.0379L25.8003 23.8763L24.9959 23.5514L23.1575 21.7129Z" fill="url(#paint23_linear_7649_61488)"/>
<path d="M22.3461 23.7205C22.207 23.6643 22.086 23.5825 21.9862 23.4828L23.8243 25.3209C23.9242 25.4208 24.0453 25.5027 24.1845 25.5589L22.3461 23.7205Z" fill="url(#paint24_linear_7649_61488)"/>
<path d="M23.18 24.0566C22.325 25.0256 20.9402 25.4212 19.665 24.972L21.5035 26.8105C22.7787 27.2596 24.1635 26.864 25.0184 25.8951L23.18 24.0566Z" fill="url(#paint25_linear_7649_61488)"/>
<path d="M23.9624 22.0371C23.9718 22.0409 23.9812 22.0449 23.9905 22.0489L25.8289 23.8874C25.8197 23.8833 25.8103 23.8794 25.8009 23.8756L23.9624 22.0371Z" fill="url(#paint26_linear_7649_61488)"/>
<path d="M25.7642 23.9351C26.6036 21.8575 26.0624 19.5648 24.5723 18.074L26.409 19.9107C27.9005 21.4015 28.4424 23.6952 27.6027 25.7736L25.7642 23.9351Z" fill="url(#paint27_linear_7649_61488)"/>
<path d="M9.24756 30.1172L19.2927 34.1757L21.1312 36.0142L11.086 31.9557L9.24756 30.1172Z" fill="url(#paint28_linear_7649_61488)"/>
<path d="M23.1508 24.0457L22.3464 23.7207L24.1849 25.5592L24.9892 25.8842L23.1508 24.0457Z" fill="url(#paint29_linear_7649_61488)"/>
<path d="M23.1794 24.0583C23.1696 24.0547 23.1597 24.0508 23.1499 24.0469L24.9884 25.8854C24.9982 25.8893 25.008 25.8931 25.0179 25.8968L23.1794 24.0583Z" fill="url(#paint30_linear_7649_61488)"/>
<path d="M18.0947 31.3544L19.7593 27.2344L21.5978 29.0729L19.9332 33.1928L18.0947 31.3544Z" fill="url(#paint31_linear_7649_61488)"/>
<path d="M19.759 27.2342C22.2391 27.6946 24.7829 26.365 25.7645 23.9355L27.6029 25.774C26.6214 28.2035 24.0776 29.5331 21.5975 29.0727L19.759 27.2342Z" fill="url(#paint32_linear_7649_61488)"/>
<path d="M17.669 38.1933L7.62378 34.1348L9.46224 35.9732L19.5074 40.0318L17.669 38.1933Z" fill="url(#paint33_linear_7649_61488)"/>
<path d="M6.8125 36.1426L16.8577 40.2011L18.6961 42.0396L8.65096 37.9811L6.8125 36.1426Z" fill="url(#paint34_linear_7649_61488)"/>
<path d="M20.1044 32.1674L18.0947 31.3555L19.9332 33.1939L21.9428 34.0059L20.1044 32.1674Z" fill="url(#paint35_linear_7649_61488)"/>
<path d="M20.5107 31.1602L20.1042 32.1662L21.9427 34.0047L22.3492 32.9986L20.5107 31.1602Z" fill="url(#paint36_linear_7649_61488)"/>
<path d="M21.9208 30.5616C21.366 30.3375 20.7346 30.6055 20.5105 31.1602L22.349 32.9987C22.5731 32.444 23.2045 32.1759 23.7592 32.4001L21.9208 30.5616Z" fill="url(#paint37_linear_7649_61488)"/>
<path d="M34.1809 17.6113C32.7458 18.229 32.3923 20.0819 32.4548 20.9054L34.2932 22.7439C34.2308 21.9204 34.5842 20.0674 36.0193 19.4498L34.1809 17.6113Z" fill="url(#paint38_linear_7649_61488)"/>
<path d="M37.1133 17.1989C36.2952 17.2676 35.6158 16.993 34.1807 17.6107L36.0191 19.4491C37.4542 18.8315 38.1337 19.106 38.9518 19.0374L37.1133 17.1989Z" fill="url(#paint39_linear_7649_61488)"/>
<path d="M32.4551 20.9062C32.5175 21.7298 31.4984 21.318 30.8052 23.0337L32.6436 24.8722C33.3368 23.1565 34.356 23.5683 34.2935 22.7447L32.4551 20.9062Z" fill="url(#paint40_linear_7649_61488)"/>
<path d="M38.2848 15.2793C37.5292 16.1714 37.9314 17.1322 37.1133 17.2009L38.9517 19.0393C39.7698 18.9707 39.3676 18.0099 40.1233 17.1178L38.2848 15.2793Z" fill="url(#paint41_linear_7649_61488)"/>
<path d="M19.2927 34.1758L17.6694 38.1936L19.5079 40.0321L21.1312 36.0143L19.2927 34.1758Z" fill="url(#paint42_linear_7649_61488)"/>
<path d="M41.2178 14.866C40.1986 14.4542 39.0408 14.3856 38.2852 15.2777L40.1236 17.1162C40.8792 16.224 42.0371 16.2927 43.0563 16.7045L41.2178 14.866Z" fill="url(#paint43_linear_7649_61488)"/>
<path d="M25.9389 32.1858L21.9211 30.5625L23.7596 32.401L27.7774 34.0243L25.9389 32.1858Z" fill="url(#paint44_linear_7649_61488)"/>
<path d="M30.8046 23.0332C30.1115 24.7489 30.7147 26.1901 31.2556 26.8077L33.094 28.6462C32.5532 28.0286 31.9499 26.5874 32.6431 24.8717L30.8046 23.0332Z" fill="url(#paint45_linear_7649_61488)"/>
<path d="M22.114 32.9766L24.1229 33.7882L25.9614 35.6267L23.9525 34.815L22.114 32.9766Z" fill="url(#paint46_linear_7649_61488)"/>
<path d="M43.0551 15.2104C42.4381 15.7594 42.237 15.279 41.2178 14.8672L43.0562 16.7057C44.0754 17.1174 44.2765 17.5978 44.8935 17.0488L43.0551 15.2104Z" fill="url(#paint47_linear_7649_61488)"/>
<path d="M16.8571 40.2012L16.4519 41.2041L18.2904 43.0425L18.6955 42.0396L16.8571 40.2012Z" fill="url(#paint48_linear_7649_61488)"/>
<path d="M18.8667 41.0122L22.1133 32.9766L23.9517 34.815L20.7052 42.8506L18.8667 41.0122Z" fill="url(#paint49_linear_7649_61488)"/>
<path d="M16.4525 41.2051C16.2845 41.6208 16.3929 42.0795 16.6912 42.3776L18.5293 44.2158C18.2313 43.9176 18.123 43.4591 18.2909 43.0436L16.4525 41.2051Z" fill="url(#paint50_linear_7649_61488)"/>
<path d="M26.2989 32.4233C26.1991 32.3235 26.078 32.2417 25.939 32.1855L27.7774 34.024C27.9165 34.0802 28.0375 34.162 28.1373 34.2617L26.2989 32.4233Z" fill="url(#paint51_linear_7649_61488)"/>
<path d="M31.2559 26.8086C31.7967 27.4263 31.3184 27.6321 30.5627 28.5243L32.4012 30.3628C33.1568 29.4706 33.6352 29.2647 33.0944 28.6471L31.2559 26.8086Z" fill="url(#paint52_linear_7649_61488)"/>
<path d="M16.6907 42.377C16.7905 42.4767 16.9115 42.5585 17.0506 42.6147L18.889 44.4531C18.75 44.397 18.6289 44.3152 18.5291 44.2154L16.6907 42.377Z" fill="url(#paint53_linear_7649_61488)"/>
<path d="M26.5371 33.5964C26.705 33.1809 26.5967 32.7223 26.2987 32.4242L28.1368 34.2623C28.4351 34.5605 28.5435 35.0192 28.3755 35.4349L26.5371 33.5964Z" fill="url(#paint54_linear_7649_61488)"/>
<path d="M30.5626 28.5234C29.9581 29.2372 29.7978 30.7424 29.7932 31.4058L31.6317 33.2443C31.6362 32.5809 31.7965 31.0756 32.401 30.3619L30.5626 28.5234Z" fill="url(#paint55_linear_7649_61488)"/>
<path d="M24.1228 33.7891L20.8762 41.8247L22.7147 43.6631L25.9612 35.6275L24.1228 33.7891Z" fill="url(#paint56_linear_7649_61488)"/>
<path d="M26.1309 34.6017L26.5373 33.5957L28.3758 35.4342L27.9693 36.4402L26.1309 34.6017Z" fill="url(#paint57_linear_7649_61488)"/>
<path d="M47.3462 15.3472C45.5851 13.8373 43.6717 14.6609 43.0547 15.2099L44.8931 17.0483C45.5101 16.4993 47.4236 15.6758 49.1847 17.1857L47.3462 15.3472Z" fill="url(#paint58_linear_7649_61488)"/>
<path d="M20.8756 41.8234L18.8667 41.0117L20.7052 42.8502L22.714 43.6618L20.8756 41.8234Z" fill="url(#paint59_linear_7649_61488)"/>
<path d="M29.7932 31.4057C30.1375 30.8795 31.0854 29.7723 32.1226 29.5527L33.9611 31.3912C32.9239 31.6108 31.976 32.718 31.6317 33.2442L29.7932 31.4057Z" fill="url(#paint60_linear_7649_61488)"/>
<path d="M17.0513 42.6152L21.069 44.2385L22.9075 46.077L18.8897 44.4537L17.0513 42.6152Z" fill="url(#paint61_linear_7649_61488)"/>
<path d="M25.3191 36.6113L23.6958 40.6291L25.5343 42.4676L27.1575 38.4498L25.3191 36.6113Z" fill="url(#paint62_linear_7649_61488)"/>
<path d="M32.1228 29.5525C33.4193 29.278 33.8214 30.2388 34.8406 30.6505L36.6791 32.489C35.6599 32.0772 35.2577 31.1164 33.9613 31.3909L32.1228 29.5525Z" fill="url(#paint63_linear_7649_61488)"/>
<path d="M47.3467 15.3477C47.4668 15.4506 47.5726 15.5571 47.6654 15.6663L49.1852 17.1861C50.9463 18.696 49.6361 20.9606 49.0191 21.5096L47.1807 19.6711C47.7556 19.1596 48.9323 17.1584 47.6654 15.6663L47.3467 15.3477Z" fill="url(#paint64_linear_7649_61488)"/>
<path d="M32.1551 37.0356L26.1309 34.6016L27.9693 36.44L33.9936 38.874L32.1551 37.0356Z" fill="url(#paint65_linear_7649_61488)"/>
<path d="M21.0691 44.2392C21.6238 44.4634 22.2552 44.1954 22.4794 43.6406L24.3178 45.4791C24.0937 46.0338 23.4623 46.3019 22.9076 46.0777L21.0691 44.2392Z" fill="url(#paint66_linear_7649_61488)"/>
<path d="M22.4797 43.6396L22.8849 42.6367L24.7234 44.4752L24.3182 45.4781L22.4797 43.6396Z" fill="url(#paint67_linear_7649_61488)"/>
<path d="M31.3439 39.0453L25.3196 36.6113L27.158 38.4498L33.1823 40.8838L31.3439 39.0453Z" fill="url(#paint68_linear_7649_61488)"/>
<path d="M34.8396 30.6508C35.8588 31.0626 37.495 30.9254 38.2506 30.0332L40.0891 31.8717C39.3334 32.7638 37.6972 32.9011 36.6781 32.4893L34.8396 30.6508Z" fill="url(#paint69_linear_7649_61488)"/>
<path d="M46.9652 21.1797C46.4244 20.5621 46.563 20.2189 47.18 19.6699L49.0185 21.5084C48.4015 22.0574 48.2629 22.4006 48.8037 23.0182L46.9652 21.1797Z" fill="url(#paint70_linear_7649_61488)"/>
<path d="M23.6958 40.627L29.7201 43.0609L31.5585 44.8994L25.5343 42.4654L23.6958 40.627Z" fill="url(#paint71_linear_7649_61488)"/>
<path d="M38.251 30.0325C39.0066 29.1403 39.3463 29.2776 40.1644 29.209L42.0029 31.0475C41.1848 31.1161 40.8451 30.9788 40.0894 31.871L38.251 30.0325Z" fill="url(#paint72_linear_7649_61488)"/>
<path d="M32.561 36.0293L32.1545 37.0353L33.993 38.8738L34.3995 37.8678L32.561 36.0293Z" fill="url(#paint73_linear_7649_61488)"/>
<path d="M33.9725 35.4307C33.4178 35.2066 32.7864 35.4746 32.5623 36.0294L34.4007 37.8678C34.6248 37.3131 35.2562 37.0451 35.811 37.2692L33.9725 35.4307Z" fill="url(#paint74_linear_7649_61488)"/>
<path d="M46.5356 24.1993C47.2913 23.3072 47.5061 21.7973 46.9653 21.1797L48.8037 23.0182C49.3445 23.6358 49.1297 25.1456 48.3741 26.0378L46.5356 24.1993Z" fill="url(#paint75_linear_7649_61488)"/>
<path d="M22.8845 42.6367L28.9088 45.0707L30.7473 46.9092L24.723 44.4752L22.8845 42.6367Z" fill="url(#paint76_linear_7649_61488)"/>
<path d="M44.144 25.2286C44.761 24.6796 45.7802 25.0914 46.5359 24.1992L48.3743 26.0377C47.6187 26.9298 46.5995 26.5181 45.9825 27.0671L44.144 25.2286Z" fill="url(#paint77_linear_7649_61488)"/>
<path d="M43.0344 27.9756C43.9287 26.7404 43.5265 25.7795 44.1435 25.2305L45.982 27.0689C45.365 27.618 45.7671 28.5789 44.8729 29.8141L43.0344 27.9756Z" fill="url(#paint78_linear_7649_61488)"/>
<path d="M40.1653 29.2098C40.9834 29.1412 42.1412 29.2098 43.0354 27.9746L44.8739 29.8131C43.9797 31.0483 42.8218 30.9797 42.0037 31.0483L40.1653 29.2098Z" fill="url(#paint79_linear_7649_61488)"/>
<path d="M29.7197 43.0627L31.343 39.0449L33.1815 40.8834L31.5582 44.9012L29.7197 43.0627Z" fill="url(#paint80_linear_7649_61488)"/>
<path d="M34.1674 37.8489L34.1643 37.8477L36.0028 39.6861L36.0059 39.6874L34.1674 37.8489Z" fill="url(#paint81_linear_7649_61488)"/>
<path d="M37.9889 37.053L33.9712 35.4297L35.8097 37.2682L39.8274 38.8915L37.9889 37.053Z" fill="url(#paint82_linear_7649_61488)"/>
<path d="M33.3557 39.8566L34.1674 37.8477L36.0058 39.6861L35.1942 41.695L33.3557 39.8566Z" fill="url(#paint83_linear_7649_61488)"/>
<path d="M33.3518 39.8555L33.3549 39.8567L35.1934 41.6952L35.1903 41.6939L33.3518 39.8555Z" fill="url(#paint84_linear_7649_61488)"/>
<path d="M34.1643 37.8477L36.1738 38.6577L38.0123 40.4962L36.0028 39.6861L34.1643 37.8477Z" fill="url(#paint85_linear_7649_61488)"/>
<path d="M28.9086 45.0703L28.5034 46.0732L30.3419 47.9117L30.7471 46.9088L28.9086 45.0703Z" fill="url(#paint86_linear_7649_61488)"/>
<path d="M31.7292 43.8733L33.3525 39.8555L35.191 41.6939L33.5677 45.7117L31.7292 43.8733Z" fill="url(#paint87_linear_7649_61488)"/>
<path d="M28.504 46.0742C28.336 46.4899 28.4444 46.9486 28.7427 47.2468L30.5808 49.0849C30.2828 48.7868 30.1746 48.3282 30.3424 47.9127L28.504 46.0742Z" fill="url(#paint88_linear_7649_61488)"/>
<path d="M38.3491 37.2924C38.2494 37.1926 38.1283 37.1109 37.9893 37.0547L39.8277 38.8932C39.9668 38.9493 40.0878 39.0311 40.1876 39.1309L38.3491 37.2924Z" fill="url(#paint89_linear_7649_61488)"/>
<path d="M31.7324 43.8743L31.7292 43.873L33.5677 45.7115L33.5708 45.7128L31.7324 43.8743Z" fill="url(#paint90_linear_7649_61488)"/>
<path d="M30.9207 45.8823L31.7317 43.875L33.5701 45.7135L32.7591 47.7208L30.9207 45.8823Z" fill="url(#paint91_linear_7649_61488)"/>
<path d="M28.7422 47.2461C28.842 47.3458 28.963 47.4276 29.1021 47.4838L30.9405 49.3223C30.8015 49.2661 30.6804 49.1843 30.5806 49.0846L28.7422 47.2461Z" fill="url(#paint92_linear_7649_61488)"/>
<path d="M38.5886 38.4636C38.7565 38.0481 38.6482 37.5895 38.3502 37.2914L40.1883 39.1295C40.4866 39.4277 40.595 39.8864 40.427 40.3021L38.5886 38.4636Z" fill="url(#paint93_linear_7649_61488)"/>
<path d="M36.1731 38.6562L32.9265 46.6918L34.765 48.5303L38.0115 40.4947L36.1731 38.6562Z" fill="url(#paint94_linear_7649_61488)"/>
<path d="M38.1824 39.4709L38.5888 38.4648L40.4273 40.3033L40.0208 41.3093L38.1824 39.4709Z" fill="url(#paint95_linear_7649_61488)"/>
<path d="M32.9264 46.6932L30.9207 45.8828L32.7591 47.7213L34.7649 48.5317L32.9264 46.6932Z" fill="url(#paint96_linear_7649_61488)"/>
<path d="M29.1013 47.4844L33.1191 49.1077L34.9575 50.9461L30.9398 49.3229L29.1013 47.4844Z" fill="url(#paint97_linear_7649_61488)"/>
<path d="M35.7473 45.4963L37.3706 41.4785L39.2091 43.317L37.5858 47.3348L35.7473 45.4963Z" fill="url(#paint98_linear_7649_61488)"/>
<path d="M42.2009 41.0943L38.1824 39.4707L40.0208 41.3092L44.0394 42.9328L42.2009 41.0943Z" fill="url(#paint99_linear_7649_61488)"/>
<path d="M37.3699 41.4785L41.3884 43.1021L43.2269 44.9406L39.2083 43.317L37.3699 41.4785Z" fill="url(#paint100_linear_7649_61488)"/>
<path d="M33.1194 49.1064C33.6741 49.3306 34.3055 49.0626 34.5296 48.5078L36.3681 50.3463C36.144 50.901 35.5126 51.169 34.9578 50.9449L33.1194 49.1064Z" fill="url(#paint101_linear_7649_61488)"/>
<path d="M34.5298 48.5087L34.935 47.5059L36.7734 49.3443L36.3682 50.3472L34.5298 48.5087Z" fill="url(#paint102_linear_7649_61488)"/>
<path d="M41.3892 43.1026L42.2008 41.0938L44.0393 42.9322L43.2276 44.9411L41.3892 43.1026Z" fill="url(#paint103_linear_7649_61488)"/>
<path d="M39.7659 47.1217L35.7473 45.498L37.5858 47.3365L41.6043 48.9601L39.7659 47.1217Z" fill="url(#paint104_linear_7649_61488)"/>
<path d="M34.9348 47.5059L38.9534 49.1295L40.7918 50.9679L36.7733 49.3443L34.9348 47.5059Z" fill="url(#paint105_linear_7649_61488)"/>
<path d="M38.9541 49.13L39.7657 47.1211L41.6042 48.9596L40.7926 50.9685L38.9541 49.13Z" fill="url(#paint106_linear_7649_61488)"/>
<path fill-rule="evenodd" clip-rule="evenodd" d="M15.7198 19.8777C14.738 22.3077 15.6449 25.0319 17.7498 26.4232L16.0853 30.5429L10.0587 28.108L9.24704 30.1169L19.2922 34.1754L17.6689 38.1932L7.62376 34.1347L6.81212 36.1436L16.8573 40.2021L16.4521 41.205C16.228 41.7597 16.496 42.3911 17.0507 42.6153L21.0685 44.2386C21.6232 44.4627 22.2546 44.1947 22.4787 43.6399L22.8839 42.6371L28.9082 45.071L28.503 46.0739C28.2789 46.6287 28.5469 47.2601 29.1016 47.4842L33.1194 49.1075C33.6741 49.3316 34.3055 49.0636 34.5297 48.5089L34.9348 47.506L38.9534 49.1296L39.765 47.1207L35.7465 45.4971L37.3698 41.4793L41.3883 43.1029L42.1999 41.094L38.1814 39.4704L38.5879 38.4644C38.812 37.9096 38.544 37.2782 37.9892 37.0541L33.9715 35.4308C33.4167 35.2067 32.7854 35.4747 32.5612 36.0294L32.1548 37.0354L26.1305 34.6015L26.5369 33.5954C26.7611 33.0407 26.4931 32.4093 25.9383 32.1852L21.9206 30.5619C21.3658 30.3377 20.7344 30.6058 20.5103 31.1605L20.1039 32.1665L18.0942 31.3545L19.7588 27.2346C22.2389 27.695 24.7826 26.3654 25.7642 23.9359C26.8848 21.1622 25.5448 18.0052 22.7711 16.8845C19.9974 15.7639 16.8404 17.104 15.7198 19.8777ZM23.1795 24.0577C22.3246 25.0266 20.9397 25.4222 19.6646 24.9731L19.387 24.8609C18.1579 24.2983 17.4365 23.052 17.4944 21.7613L18.3279 22.098C18.8827 22.3222 19.514 22.0541 19.7382 21.4994C19.9623 20.9447 19.6943 20.3133 19.1396 20.0891L18.3071 19.7528C19.1938 18.7506 20.648 18.3636 21.9594 18.8934C23.271 19.4234 24.0483 20.7122 23.9897 22.0492C23.9804 22.0451 23.9711 22.0412 23.9616 22.0374L23.1573 21.7124C22.6026 21.4883 21.9712 21.7563 21.7471 22.311C21.5229 22.8658 21.7909 23.4972 22.3457 23.7213L23.15 24.0463C23.1598 24.0503 23.1697 24.0541 23.1795 24.0577ZM23.6956 40.6282L29.7199 43.0621L31.3431 39.0443L25.3189 36.6104L23.6956 40.6282ZM34.1668 37.8484L34.1636 37.8471L36.1732 38.6572L32.9266 46.6928L30.9209 45.8824L31.7319 43.8751L31.7287 43.8738L33.352 39.856L33.3551 39.8573L34.1668 37.8484ZM18.8668 41.0122L22.1134 32.9766L24.1222 33.7882L20.8757 41.8238L18.8668 41.0122Z" fill="url(#paint107_linear_7649_61488)"/>
<path d="M30.562 28.5237C29.9575 29.2374 29.7972 30.7426 29.7926 31.406C30.1369 30.8799 31.0848 29.7727 32.122 29.5531C33.4185 29.2786 33.8206 30.2394 34.8398 30.6512C35.859 31.0629 37.4952 30.9257 38.2508 30.0336C39.0065 29.1414 39.3462 29.2787 40.1643 29.2101C40.9824 29.1414 42.1402 29.2101 43.0344 27.9749C43.9287 26.7396 43.5265 25.7787 44.1435 25.2297C44.7605 24.6807 45.7797 25.0925 46.5354 24.2003C47.291 23.3082 47.5058 21.7984 46.965 21.1807C46.4242 20.563 46.5628 20.2199 47.1798 19.6709C47.7968 19.1219 49.1069 16.8572 47.3458 15.3474C45.5847 13.8376 43.6713 14.6611 43.0543 15.2101C42.4373 15.7591 42.2362 15.2787 41.217 14.8669C40.1978 14.4551 39.04 14.3865 38.2844 15.2786C37.5287 16.1708 37.9309 17.1316 37.1128 17.2002C36.2947 17.2688 35.6153 16.9943 34.1802 17.6119C32.7451 18.2296 32.3917 20.0825 32.4541 20.906C32.5166 21.7296 31.4974 21.3178 30.8042 23.0335C30.111 24.7492 30.7143 26.1903 31.2551 26.808C31.796 27.4257 31.3176 27.6315 30.562 28.5237Z" fill="url(#paint108_linear_7649_61488)"/>
<path d="M19.6271 25.0658L19.6271 25.0659L19.6314 25.0674C20.946 25.5305 22.3733 25.1225 23.2545 24.1239L23.3509 24.0147L23.2143 23.964C23.2053 23.9607 23.1964 23.9572 23.1875 23.9536L22.3831 23.6286C21.8796 23.4252 21.6363 22.852 21.8398 22.3485C22.0432 21.845 22.6163 21.6017 23.1199 21.8051L23.9242 22.1301C23.9328 22.1336 23.9413 22.1372 23.9497 22.1408L24.0832 22.1991L24.0896 22.0536C24.15 20.6755 23.349 19.347 21.9969 18.8007C20.645 18.2545 19.1461 18.6536 18.2322 19.6865L18.1385 19.7925L18.2697 19.8455L19.1021 20.1818C19.6056 20.3853 19.8489 20.9584 19.6455 21.4619C19.442 21.9655 18.8689 22.2087 18.3654 22.0053L17.5318 21.6685L17.4008 21.6156L17.3945 21.7568C17.3349 23.0871 18.0782 24.3718 19.3454 24.9519L19.3453 24.9519L19.3495 24.9536L19.6271 25.0658ZM17.8425 26.4607L17.8731 26.3849L17.8049 26.3398C15.7389 24.9741 14.8489 22.3002 15.8125 19.9151C16.9125 17.1926 20.0111 15.8773 22.7336 16.9773C25.4561 18.0772 26.7714 21.1759 25.6715 23.8985C24.7081 26.2829 22.2113 27.5881 19.777 27.1362L19.6967 27.1213L19.666 27.1971L18.0015 31.3171L17.964 31.4098L18.0567 31.4473L20.0664 32.2592L20.1591 32.2967L20.1966 32.204L20.603 31.198C20.8065 30.6944 21.3796 30.4511 21.8831 30.6546L25.9009 32.2779C26.4044 32.4813 26.6477 33.0544 26.4442 33.558L26.0378 34.564L26.0003 34.6567L26.093 34.6942L32.1173 37.1282L32.21 37.1656L32.2475 37.0729L32.6539 36.0669C32.8574 35.5634 33.4305 35.3201 33.934 35.5235L37.9518 37.1468C38.4553 37.3503 38.6986 37.9234 38.4951 38.4269L38.0887 39.4329L38.0512 39.5256L38.1439 39.5631L42.0698 41.1493L41.3331 42.9727L37.4072 41.3866L37.3145 41.3491L37.277 41.4418L35.6538 45.4596L35.6163 45.5523L35.709 45.5898L39.6349 47.176L38.8981 48.9994L34.9723 47.4133L34.8796 47.3758L34.8421 47.4685L34.4369 48.4714C34.2335 48.9749 33.6604 49.2182 33.1569 49.0148L29.1391 47.3915C28.6356 47.188 28.3923 46.6149 28.5957 46.1114L29.0009 45.1085L29.0384 45.0158L28.9457 44.9783L22.9214 42.5443L22.8287 42.5069L22.7912 42.5996L22.386 43.6025C22.1826 44.106 21.6095 44.3493 21.1059 44.1458L17.0882 42.5225C16.5847 42.3191 16.3414 41.746 16.5448 41.2424L16.95 40.2396L16.9875 40.1469L16.8948 40.1094L6.9423 36.0883L7.67902 34.2648L17.6315 38.2859L17.7242 38.3234L17.7617 38.2307L19.3849 34.2129L19.4224 34.1202L19.3297 34.0827L9.37722 30.0616L10.1139 28.2381L16.0479 30.6356L16.1406 30.6731L16.178 30.5804L17.8425 26.4607ZM29.6824 43.1549L29.7751 43.1923L29.8126 43.0996L31.4358 39.0818L31.4733 38.9891L31.3806 38.9516L25.3563 36.5176L25.2636 36.4802L25.2261 36.5729L23.6029 40.5907L23.5654 40.6834L23.6581 40.7209L29.6824 43.1549ZM34.201 37.7543L34.1636 37.8471L34.0741 37.8109L33.2999 39.7271L33.2968 39.7258L33.2593 39.8185L31.636 43.8363L31.5986 43.929L31.6017 43.9303L30.8281 45.8449L30.7907 45.9376L30.8834 45.9751L32.8891 46.7855L32.9819 46.8229L33.0193 46.7302L36.2659 38.6946L36.3034 38.6018L36.2106 38.5644L34.2042 37.7556L34.2011 37.7544L34.201 37.7543ZM22.1508 32.8839L22.0581 32.8464L22.0207 32.9391L18.7741 40.9747L18.7366 41.0674L18.8293 41.1049L20.8382 41.9165L20.9309 41.954L20.9684 41.8613L24.215 33.8257L24.2524 33.733L24.1597 33.6955L22.1508 32.8839ZM29.905 31.077C29.9245 30.7713 29.9686 30.3893 30.0501 30.0045C30.1655 29.4602 30.3525 28.9257 30.6383 28.5883C30.7913 28.4077 30.9325 28.2558 31.0575 28.1214C31.0853 28.0914 31.1124 28.0623 31.1386 28.034C31.2803 27.8806 31.4009 27.7449 31.4801 27.615C31.5611 27.4821 31.6044 27.3464 31.58 27.1953C31.5562 27.0482 31.4707 26.9024 31.3304 26.7421C30.811 26.149 30.2197 24.7471 30.8969 23.0709C31.234 22.2367 31.6459 21.9255 31.9666 21.7193C31.9964 21.7002 32.0263 21.6814 32.0559 21.6629C32.1828 21.5834 32.3049 21.507 32.3931 21.413C32.512 21.2863 32.5713 21.129 32.5538 20.8985C32.5238 20.5022 32.5941 19.8485 32.8483 19.2192C33.1022 18.5907 33.5345 17.9987 34.2197 17.7038C35.2384 17.2654 35.8518 17.2857 36.4333 17.305C36.66 17.3125 36.882 17.3199 37.1212 17.2998C37.3491 17.2807 37.5046 17.1969 37.6134 17.0582C37.7167 16.9265 37.7708 16.7532 37.8186 16.574C37.8289 16.5358 37.8389 16.4967 37.8491 16.457C37.937 16.116 38.0379 15.7244 38.3607 15.3433C39.0735 14.5017 40.1737 14.5532 41.1796 14.9596C41.429 15.0604 41.6287 15.1655 41.7991 15.2591C41.8276 15.2747 41.8554 15.2901 41.8827 15.3053C42.0165 15.3794 42.1373 15.4464 42.249 15.4915C42.3871 15.5473 42.5231 15.5751 42.671 15.5438C42.8164 15.513 42.9601 15.4277 43.1208 15.2848C43.4138 15.024 44.0271 14.6896 44.782 14.6061C45.5327 14.5231 46.4231 14.688 47.2808 15.4233C48.1264 16.1483 48.2356 17.0505 48.057 17.8476C47.8769 18.6514 47.4056 19.3361 47.1133 19.5962C46.8058 19.8698 46.5912 20.1129 46.54 20.3813C46.4869 20.6597 46.6136 20.9311 46.8897 21.2466C47.1317 21.5229 47.2163 22.0185 47.1373 22.5735C47.0591 23.1237 46.823 23.7059 46.4591 24.1357C46.1041 24.5548 45.689 24.6694 45.2696 24.7453C45.2151 24.7552 45.1599 24.7645 45.1043 24.7738C44.9492 24.7999 44.7922 24.8264 44.6452 24.8662C44.4423 24.9211 44.2469 25.0039 44.0771 25.155C43.7615 25.4358 43.6902 25.8169 43.6125 26.2319C43.6066 26.2632 43.6008 26.2946 43.5947 26.3262C43.5073 26.7847 43.3876 27.3165 42.9534 27.9162C42.184 28.979 41.2224 29.0405 40.4337 29.0909C40.3384 29.097 40.2456 29.1029 40.1559 29.1104C40.0314 29.1208 39.922 29.1263 39.8182 29.1314C39.7505 29.1348 39.6853 29.138 39.6197 29.1424C39.4583 29.1533 39.3067 29.1711 39.155 29.2173C38.8474 29.311 38.5584 29.5157 38.1745 29.9689C37.8176 30.3903 37.2457 30.6403 36.6294 30.7324C36.0137 30.8245 35.3682 30.7568 34.8773 30.5584C34.6329 30.4597 34.424 30.3275 34.2256 30.1859C34.1518 30.1332 34.0777 30.0778 34.0034 30.0223C33.8826 29.932 33.7612 29.8413 33.64 29.7613C33.2345 29.4937 32.7827 29.311 32.1013 29.4552C31.5577 29.5703 31.0457 29.9153 30.6305 30.2904C30.3378 30.5547 30.0886 30.8382 29.905 31.077Z" stroke="url(#paint109_linear_7649_61488)" stroke-opacity="0.5" stroke-width="0.2"/>
<path fill-rule="evenodd" clip-rule="evenodd" d="M15.7188 19.8777C14.737 22.3077 15.6439 25.0319 17.7488 26.4232L16.0843 30.5429L10.0577 28.108L9.24606 30.1169L19.2912 34.1754L17.668 38.1932L7.62278 34.1347L6.81114 36.1436L16.8563 40.2021L16.4511 41.205C16.227 41.7597 16.495 42.3911 17.0498 42.6153L21.0675 44.2386C21.6222 44.4627 22.2536 44.1947 22.4778 43.6399L22.883 42.6371L28.9072 45.071L28.502 46.0739C28.2779 46.6287 28.5459 47.2601 29.1007 47.4842L33.1184 49.1075C33.6732 49.3316 34.3046 49.0636 34.5287 48.5089L34.9339 47.506L38.9524 49.1296L39.7641 47.1207L35.7455 45.4971L37.3688 41.4793L41.3873 43.1029L42.199 41.094L38.1804 39.4704L38.5869 38.4644C38.811 37.9096 38.543 37.2782 37.9883 37.0541L33.9705 35.4308C33.4158 35.2067 32.7844 35.4747 32.5602 36.0294L32.1538 37.0354L26.1295 34.6015L26.536 33.5954C26.7601 33.0407 26.4921 32.4093 25.9373 32.1852L21.9196 30.5619C21.3649 30.3377 20.7335 30.6058 20.5093 31.1605L20.1029 32.1665L18.0932 31.3545L19.7578 27.2346C22.2379 27.695 24.7817 26.3654 25.7632 23.9359C26.8838 21.1622 25.5438 18.0052 22.7701 16.8845C19.9964 15.7639 16.8394 17.104 15.7188 19.8777ZM23.1785 24.0577C22.3236 25.0266 20.9388 25.4222 19.6636 24.9731L19.386 24.8609C18.1569 24.2983 17.4356 23.052 17.4934 21.7613L18.3269 22.098C18.8817 22.3222 19.5131 22.0541 19.7372 21.4994C19.9613 20.9447 19.6933 20.3133 19.1386 20.0891L18.3062 19.7528C19.1928 18.7506 20.647 18.3636 21.9585 18.8934C23.27 19.4234 24.0473 20.7122 23.9887 22.0492C23.9795 22.0451 23.9701 22.0412 23.9607 22.0374L23.1563 21.7124C22.6016 21.4883 21.9702 21.7563 21.7461 22.311C21.5219 22.8658 21.79 23.4972 22.3447 23.7213L23.149 24.0463C23.1588 24.0503 23.1687 24.0541 23.1785 24.0577ZM23.6946 40.6282L29.7189 43.0621L31.3422 39.0443L25.3179 36.6104L23.6946 40.6282ZM34.1658 37.8484L34.1627 37.8471L36.1722 38.6572L32.9256 46.6928L30.9199 45.8824L31.7309 43.8751L31.7278 43.8738L33.351 39.856L33.3542 39.8573L34.1658 37.8484ZM18.8658 41.0122L22.1124 32.9766L24.1213 33.7882L20.8747 41.8238L18.8658 41.0122Z" fill="url(#paint110_radial_7649_61488)"/>
<path d="M30.561 28.5237C29.9565 29.2374 29.7962 30.7426 29.7916 31.406C30.1359 30.8799 31.0839 29.7727 32.121 29.5531C33.4175 29.2786 33.8197 30.2394 34.8388 30.6512C35.858 31.0629 37.4942 30.9257 38.2499 30.0336C39.0055 29.1414 39.3452 29.2787 40.1633 29.2101C40.9814 29.1414 42.1392 29.2101 43.0335 27.9749C43.9277 26.7396 43.5256 25.7787 44.1426 25.2297C44.7596 24.6807 45.7788 25.0925 46.5344 24.2003C47.29 23.3082 47.5048 21.7984 46.964 21.1807C46.4232 20.563 46.5618 20.2199 47.1788 19.6709C47.7958 19.1219 49.106 16.8572 47.3449 15.3474C45.5838 13.8376 43.6703 14.6611 43.0533 15.2101C42.4363 15.7591 42.2352 15.2787 41.216 14.8669C40.1968 14.4551 39.039 14.3865 38.2834 15.2786C37.5278 16.1708 37.9299 17.1316 37.1119 17.2002C36.2938 17.2688 35.6143 16.9943 34.1792 17.6119C32.7441 18.2296 32.3907 20.0825 32.4531 20.906C32.5156 21.7296 31.4964 21.3178 30.8032 23.0335C30.1101 24.7492 30.7133 26.1903 31.2542 26.808C31.795 27.4257 31.3166 27.6315 30.561 28.5237Z" fill="url(#paint111_radial_7649_61488)"/>
<g opacity="0.9">
<path fill-rule="evenodd" clip-rule="evenodd" d="M15.7188 19.8777C14.737 22.3077 15.6439 25.0319 17.7488 26.4232L16.0843 30.5429L10.0577 28.108L9.24606 30.1169L19.2912 34.1754L17.668 38.1932L7.62278 34.1347L6.81114 36.1436L16.8563 40.2021L16.4511 41.205C16.227 41.7597 16.495 42.3911 17.0498 42.6153L21.0675 44.2386C21.6222 44.4627 22.2536 44.1947 22.4778 43.6399L22.883 42.6371L28.9072 45.071L28.502 46.0739C28.2779 46.6287 28.5459 47.2601 29.1007 47.4842L33.1184 49.1075C33.6732 49.3316 34.3046 49.0636 34.5287 48.5089L34.9339 47.506L38.9524 49.1296L39.7641 47.1207L35.7455 45.4971L37.3688 41.4793L41.3873 43.1029L42.199 41.094L38.1804 39.4704L38.5869 38.4644C38.811 37.9096 38.543 37.2782 37.9883 37.0541L33.9705 35.4308C33.4158 35.2067 32.7844 35.4747 32.5602 36.0294L32.1538 37.0354L26.1295 34.6015L26.536 33.5954C26.7601 33.0407 26.4921 32.4093 25.9373 32.1852L21.9196 30.5619C21.3649 30.3377 20.7335 30.6058 20.5093 31.1605L20.1029 32.1665L18.0932 31.3545L19.7578 27.2346C22.2379 27.695 24.7817 26.3654 25.7632 23.9359C26.8838 21.1622 25.5438 18.0052 22.7701 16.8845C19.9964 15.7639 16.8394 17.104 15.7188 19.8777ZM23.1785 24.0577C22.3236 25.0266 20.9388 25.4222 19.6636 24.9731L19.386 24.8609C18.1569 24.2983 17.4356 23.052 17.4934 21.7613L18.3269 22.098C18.8817 22.3222 19.5131 22.0541 19.7372 21.4994C19.9613 20.9447 19.6933 20.3133 19.1386 20.0891L18.3062 19.7528C19.1928 18.7506 20.647 18.3636 21.9585 18.8934C23.27 19.4234 24.0473 20.7122 23.9887 22.0492C23.9795 22.0451 23.9701 22.0412 23.9607 22.0374L23.1563 21.7124C22.6016 21.4883 21.9702 21.7563 21.7461 22.311C21.5219 22.8658 21.79 23.4972 22.3447 23.7213L23.149 24.0463C23.1588 24.0503 23.1687 24.0541 23.1785 24.0577ZM23.6946 40.6282L29.7189 43.0621L31.3422 39.0443L25.3179 36.6104L23.6946 40.6282ZM34.1658 37.8484L34.1627 37.8471L36.1722 38.6572L32.9256 46.6928L30.9199 45.8824L31.7309 43.8751L31.7278 43.8738L33.351 39.856L33.3542 39.8573L34.1658 37.8484ZM18.8658 41.0122L22.1124 32.9766L24.1213 33.7882L20.8747 41.8238L18.8658 41.0122Z" fill="url(#paint112_radial_7649_61488)"/>
<path d="M30.561 28.5237C29.9565 29.2374 29.7962 30.7426 29.7916 31.406C30.1359 30.8799 31.0839 29.7727 32.121 29.5531C33.4175 29.2786 33.8197 30.2394 34.8388 30.6512C35.858 31.0629 37.4942 30.9257 38.2499 30.0336C39.0055 29.1414 39.3452 29.2787 40.1633 29.2101C40.9814 29.1414 42.1392 29.2101 43.0335 27.9749C43.9277 26.7396 43.5256 25.7787 44.1426 25.2297C44.7596 24.6807 45.7788 25.0925 46.5344 24.2003C47.29 23.3082 47.5048 21.7984 46.964 21.1807C46.4232 20.563 46.5618 20.2199 47.1788 19.6709C47.7958 19.1219 49.106 16.8572 47.3449 15.3474C45.5838 13.8376 43.6703 14.6611 43.0533 15.2101C42.4363 15.7591 42.2352 15.2787 41.216 14.8669C40.1968 14.4551 39.039 14.3865 38.2834 15.2786C37.5278 16.1708 37.9299 17.1316 37.1119 17.2002C36.2938 17.2688 35.6143 16.9943 34.1792 17.6119C32.7441 18.2296 32.3907 20.0825 32.4531 20.906C32.5156 21.7296 31.4964 21.3178 30.8032 23.0335C30.1101 24.7492 30.7133 26.1903 31.2542 26.808C31.795 27.4257 31.3166 27.6315 30.561 28.5237Z" fill="url(#paint113_radial_7649_61488)"/>
</g>
<g opacity="0.75">
<path fill-rule="evenodd" clip-rule="evenodd" d="M15.7188 19.8777C14.737 22.3077 15.6439 25.0319 17.7488 26.4232L16.0843 30.5429L10.0577 28.108L9.24606 30.1169L19.2912 34.1754L17.668 38.1932L7.62278 34.1347L6.81114 36.1436L16.8563 40.2021L16.4511 41.205C16.227 41.7597 16.495 42.3911 17.0498 42.6153L21.0675 44.2386C21.6222 44.4627 22.2536 44.1947 22.4778 43.6399L22.883 42.6371L28.9072 45.071L28.502 46.0739C28.2779 46.6287 28.5459 47.2601 29.1007 47.4842L33.1184 49.1075C33.6732 49.3316 34.3046 49.0636 34.5287 48.5089L34.9339 47.506L38.9524 49.1296L39.7641 47.1207L35.7455 45.4971L37.3688 41.4793L41.3873 43.1029L42.199 41.094L38.1804 39.4704L38.5869 38.4644C38.811 37.9096 38.543 37.2782 37.9883 37.0541L33.9705 35.4308C33.4158 35.2067 32.7844 35.4747 32.5602 36.0294L32.1538 37.0354L26.1295 34.6015L26.536 33.5954C26.7601 33.0407 26.4921 32.4093 25.9373 32.1852L21.9196 30.5619C21.3649 30.3377 20.7335 30.6058 20.5093 31.1605L20.1029 32.1665L18.0932 31.3545L19.7578 27.2346C22.2379 27.695 24.7817 26.3654 25.7632 23.9359C26.8838 21.1622 25.5438 18.0052 22.7701 16.8845C19.9964 15.7639 16.8394 17.104 15.7188 19.8777ZM23.1785 24.0577C22.3236 25.0266 20.9388 25.4222 19.6636 24.9731L19.386 24.8609C18.1569 24.2983 17.4356 23.052 17.4934 21.7613L18.3269 22.098C18.8817 22.3222 19.5131 22.0541 19.7372 21.4994C19.9613 20.9447 19.6933 20.3133 19.1386 20.0891L18.3062 19.7528C19.1928 18.7506 20.647 18.3636 21.9585 18.8934C23.27 19.4234 24.0473 20.7122 23.9887 22.0492C23.9795 22.0451 23.9701 22.0412 23.9607 22.0374L23.1563 21.7124C22.6016 21.4883 21.9702 21.7563 21.7461 22.311C21.5219 22.8658 21.79 23.4972 22.3447 23.7213L23.149 24.0463C23.1588 24.0503 23.1687 24.0541 23.1785 24.0577ZM23.6946 40.6282L29.7189 43.0621L31.3422 39.0443L25.3179 36.6104L23.6946 40.6282ZM34.1658 37.8484L34.1627 37.8471L36.1722 38.6572L32.9256 46.6928L30.9199 45.8824L31.7309 43.8751L31.7278 43.8738L33.351 39.856L33.3542 39.8573L34.1658 37.8484ZM18.8658 41.0122L22.1124 32.9766L24.1213 33.7882L20.8747 41.8238L18.8658 41.0122Z" fill="url(#paint114_radial_7649_61488)"/>
<path d="M30.561 28.5237C29.9565 29.2374 29.7962 30.7426 29.7916 31.406C30.1359 30.8799 31.0839 29.7727 32.121 29.5531C33.4175 29.2786 33.8197 30.2394 34.8388 30.6512C35.858 31.0629 37.4942 30.9257 38.2499 30.0336C39.0055 29.1414 39.3452 29.2787 40.1633 29.2101C40.9814 29.1414 42.1392 29.2101 43.0335 27.9749C43.9277 26.7396 43.5256 25.7787 44.1426 25.2297C44.7596 24.6807 45.7788 25.0925 46.5344 24.2003C47.29 23.3082 47.5048 21.7984 46.964 21.1807C46.4232 20.563 46.5618 20.2199 47.1788 19.6709C47.7958 19.1219 49.106 16.8572 47.3449 15.3474C45.5838 13.8376 43.6703 14.6611 43.0533 15.2101C42.4363 15.7591 42.2352 15.2787 41.216 14.8669C40.1968 14.4551 39.039 14.3865 38.2834 15.2786C37.5278 16.1708 37.9299 17.1316 37.1119 17.2002C36.2938 17.2688 35.6143 16.9943 34.1792 17.6119C32.7441 18.2296 32.3907 20.0825 32.4531 20.906C32.5156 21.7296 31.4964 21.3178 30.8032 23.0335C30.1101 24.7492 30.7133 26.1903 31.2542 26.808C31.795 27.4257 31.3166 27.6315 30.561 28.5237Z" fill="url(#paint115_radial_7649_61488)"/>
</g>
<defs>
<filter id="filter0_d_7649_61488" x="7.81201" y="15.4863" width="49.418" height="42.7012" filterUnits="userSpaceOnUse" color-interpolation-filters="sRGB">
<feFlood flood-opacity="0" result="BackgroundImageFix"/>
<feColorMatrix in="SourceAlpha" type="matrix" values="0 0 0 0 0 0 0 0 0 0 0 0 0 0 0 0 0 0 127 0" result="hardAlpha"/>
<feOffset dx="4" dy="4"/>
<feGaussianBlur stdDeviation="2"/>
<feComposite in2="hardAlpha" operator="out"/>
<feColorMatrix type="matrix" values="0 0 0 0 0 0 0 0 0 0 0 0 0 0 0 0 0 0 0.33 0"/>
<feBlend mode="normal" in2="BackgroundImageFix" result="effect1_dropShadow_7649_61488"/>
<feBlend mode="normal" in="SourceGraphic" in2="effect1_dropShadow_7649_61488" result="shape"/>
</filter>
<linearGradient id="paint0_linear_7649_61488" x1="23.3784" y1="11.6286" x2="38.5628" y2="44.5869" gradientUnits="userSpaceOnUse">
<stop stop-color="#C2C7D4"/>
<stop offset="1" stop-color="#656F93"/>
</linearGradient>
<linearGradient id="paint1_linear_7649_61488" x1="23.3784" y1="11.6286" x2="38.5628" y2="44.5869" gradientUnits="userSpaceOnUse">
<stop stop-color="#C2C7D4"/>
<stop offset="1" stop-color="#656F93"/>
</linearGradient>
<linearGradient id="paint2_linear_7649_61488" x1="17.1692" y1="21.3258" x2="22.1915" y2="16.3036" gradientUnits="userSpaceOnUse">
<stop stop-color="#C7C9DB"/>
<stop offset="0.5" stop-color="#C9CBDC"/>
<stop offset="1" stop-color="#8398AF"/>
</linearGradient>
<linearGradient id="paint3_linear_7649_61488" x1="19.2524" y1="20.6963" x2="19.5005" y2="20.4482" gradientUnits="userSpaceOnUse">
<stop stop-color="#8398AF"/>
<stop offset="1" stop-color="#8398AF"/>
</linearGradient>
<linearGradient id="paint4_linear_7649_61488" x1="9.18007" y1="30.0488" x2="10.5903" y2="28.6386" gradientUnits="userSpaceOnUse">
<stop stop-color="#C7C9DB"/>
<stop offset="1" stop-color="#C7C9DB"/>
</linearGradient>
<linearGradient id="paint5_linear_7649_61488" x1="14.4" y1="23.2256" x2="16.7346" y2="20.891" gradientUnits="userSpaceOnUse">
<stop stop-color="#5C869C"/>
<stop offset="0.5" stop-color="#92A0B6"/>
<stop offset="1" stop-color="#C7C9DB"/>
</linearGradient>
<linearGradient id="paint6_linear_7649_61488" x1="19.701" y1="21.146" x2="21.9568" y2="18.8902" gradientUnits="userSpaceOnUse">
<stop stop-color="#E5E5EF"/>
<stop offset="0.5" stop-color="#BDC1D3"/>
<stop offset="1" stop-color="#8398AF"/>
</linearGradient>
<linearGradient id="paint7_linear_7649_61488" x1="19.917" y1="20.8653" x2="19.9781" y2="20.8042" gradientUnits="userSpaceOnUse">
<stop stop-color="#8398AF"/>
<stop offset="0.5" stop-color="#6E8DA6"/>
<stop offset="1" stop-color="#5C869C"/>
</linearGradient>
<linearGradient id="paint8_linear_7649_61488" x1="18.4388" y1="22.7064" x2="18.6872" y2="22.458" gradientUnits="userSpaceOnUse">
<stop stop-color="#8398AF"/>
<stop offset="1" stop-color="#8398AF"/>
</linearGradient>
<linearGradient id="paint9_linear_7649_61488" x1="19.7954" y1="21.5554" x2="20.2623" y2="21.0885" gradientUnits="userSpaceOnUse">
<stop stop-color="#C7C9DB"/>
<stop offset="0.5" stop-color="#92A0B6"/>
<stop offset="1" stop-color="#5C869C"/>
</linearGradient>
<linearGradient id="paint10_linear_7649_61488" x1="19.1777" y1="22.9479" x2="20.1821" y2="21.9435" gradientUnits="userSpaceOnUse">
<stop stop-color="#8398AF"/>
<stop offset="0.5" stop-color="#C9CBDC"/>
<stop offset="1" stop-color="#C7C9DB"/>
</linearGradient>
<linearGradient id="paint11_linear_7649_61488" x1="17.7325" y1="23.4946" x2="18.4801" y2="22.7469" gradientUnits="userSpaceOnUse">
<stop stop-color="#5C869C"/>
<stop offset="0.5" stop-color="#8498AF"/>
<stop offset="1" stop-color="#ACB2C5"/>
</linearGradient>
<linearGradient id="paint12_linear_7649_61488" x1="24.0579" y1="18.171" x2="24.3634" y2="17.8655" gradientUnits="userSpaceOnUse">
<stop stop-color="#8398AF"/>
<stop offset="0.5" stop-color="#6E8DA6"/>
<stop offset="1" stop-color="#5C869C"/>
</linearGradient>
<linearGradient id="paint13_linear_7649_61488" x1="22.9925" y1="19.9247" x2="23.1758" y2="19.7414" gradientUnits="userSpaceOnUse">
<stop stop-color="#8398AF"/>
<stop offset="0.5" stop-color="#6E8DA6"/>
<stop offset="1" stop-color="#5C869C"/>
</linearGradient>
<linearGradient id="paint14_linear_7649_61488" x1="6.74501" y1="36.0762" x2="8.15529" y2="34.6659" gradientUnits="userSpaceOnUse">
<stop stop-color="#C7C9DB"/>
<stop offset="1" stop-color="#C7C9DB"/>
</linearGradient>
<linearGradient id="paint15_linear_7649_61488" x1="12.8393" y1="30.8882" x2="14.6352" y2="29.0923" gradientUnits="userSpaceOnUse">
<stop stop-color="#8398AF"/>
<stop offset="1" stop-color="#8398AF"/>
</linearGradient>
<linearGradient id="paint16_linear_7649_61488" x1="17.8598" y1="26.6859" x2="17.9366" y2="26.6091" gradientUnits="userSpaceOnUse">
<stop stop-color="#5C869C"/>
<stop offset="0.5" stop-color="#648AA2"/>
<stop offset="1" stop-color="#6F8EA6"/>
</linearGradient>
<linearGradient id="paint17_linear_7649_61488" x1="19.4273" y1="25.1885" x2="19.5714" y2="25.0444" gradientUnits="userSpaceOnUse">
<stop stop-color="#5C869C"/>
<stop offset="0.5" stop-color="#6C8DA5"/>
<stop offset="1" stop-color="#7F95AD"/>
</linearGradient>
<linearGradient id="paint18_linear_7649_61488" x1="23.2816" y1="21.3402" x2="24.0276" y2="20.5942" gradientUnits="userSpaceOnUse">
<stop stop-color="#ACB2C5"/>
<stop offset="0.5" stop-color="#8498AF"/>
<stop offset="1" stop-color="#5C869C"/>
</linearGradient>
<linearGradient id="paint19_linear_7649_61488" x1="20.1351" y1="25.6095" x2="20.2178" y2="25.5268" gradientUnits="userSpaceOnUse">
<stop stop-color="#8398AF"/>
<stop offset="1" stop-color="#8398AF"/>
</linearGradient>
<linearGradient id="paint20_linear_7649_61488" x1="22.5568" y1="23.1203" x2="23.5612" y2="22.1159" gradientUnits="userSpaceOnUse">
<stop stop-color="#C7C9DB"/>
<stop offset="0.5" stop-color="#C9CBDC"/>
<stop offset="1" stop-color="#8398AF"/>
</linearGradient>
<linearGradient id="paint21_linear_7649_61488" x1="22.0034" y1="23.5002" x2="22.4703" y2="23.0332" gradientUnits="userSpaceOnUse">
<stop stop-color="#5C869C"/>
<stop offset="0.5" stop-color="#92A0B6"/>
<stop offset="1" stop-color="#C7C9DB"/>
</linearGradient>
<linearGradient id="paint22_linear_7649_61488" x1="15.2636" y1="29.7221" x2="18.1557" y2="26.8301" gradientUnits="userSpaceOnUse">
<stop stop-color="#C7C9DB"/>
<stop offset="1" stop-color="#C7C9DB"/>
</linearGradient>
<linearGradient id="paint23_linear_7649_61488" x1="24.0918" y1="22.6473" x2="24.3315" y2="22.4076" gradientUnits="userSpaceOnUse">
<stop stop-color="#8398AF"/>
<stop offset="1" stop-color="#8398AF"/>
</linearGradient>
<linearGradient id="paint24_linear_7649_61488" x1="22.7632" y1="24.2598" x2="22.8243" y2="24.1987" gradientUnits="userSpaceOnUse">
<stop stop-color="#5C869C"/>
<stop offset="0.5" stop-color="#6E8DA6"/>
<stop offset="1" stop-color="#8398AF"/>
</linearGradient>
<linearGradient id="paint25_linear_7649_61488" x1="21.1001" y1="26.407" x2="23.3152" y2="24.1919" gradientUnits="userSpaceOnUse">
<stop stop-color="#889AB1"/>
<stop offset="0.5" stop-color="#BFC2D4"/>
<stop offset="1" stop-color="#E5E5EF"/>
</linearGradient>
<linearGradient id="paint26_linear_7649_61488" x1="24.6223" y1="22.697" x2="24.6305" y2="22.6889" gradientUnits="userSpaceOnUse">
<stop stop-color="#8398AF"/>
<stop offset="0.5" stop-color="#8297AE"/>
<stop offset="1" stop-color="#8096AE"/>
</linearGradient>
<linearGradient id="paint27_linear_7649_61488" x1="23.448" y1="21.6188" x2="25.7826" y2="19.2843" gradientUnits="userSpaceOnUse">
<stop stop-color="#C7C9DB"/>
<stop offset="0.5" stop-color="#92A0B6"/>
<stop offset="1" stop-color="#5C869C"/>
</linearGradient>
<linearGradient id="paint28_linear_7649_61488" x1="13.4491" y1="34.3187" x2="16.4424" y2="31.3254" gradientUnits="userSpaceOnUse">
<stop stop-color="#8398AF"/>
<stop offset="1" stop-color="#8398AF"/>
</linearGradient>
<linearGradient id="paint29_linear_7649_61488" x1="23.2808" y1="24.6551" x2="23.5205" y2="24.4154" gradientUnits="userSpaceOnUse">
<stop stop-color="#8398AF"/>
<stop offset="1" stop-color="#8398AF"/>
</linearGradient>
<linearGradient id="paint30_linear_7649_61488" x1="23.8103" y1="24.7073" x2="23.8194" y2="24.6983" gradientUnits="userSpaceOnUse">
<stop stop-color="#8398AF"/>
<stop offset="0.5" stop-color="#8598AF"/>
<stop offset="1" stop-color="#8699B0"/>
</linearGradient>
<linearGradient id="paint31_linear_7649_61488" x1="17.2733" y1="30.5329" x2="20.1655" y2="27.6406" gradientUnits="userSpaceOnUse">
<stop stop-color="#C7C9DB"/>
<stop offset="1" stop-color="#C7C9DB"/>
</linearGradient>
<linearGradient id="paint32_linear_7649_61488" x1="20.883" y1="28.3581" x2="25.535" y2="23.7061" gradientUnits="userSpaceOnUse">
<stop stop-color="#97A3B8"/>
<stop offset="0.5" stop-color="#D0D0E1"/>
<stop offset="1" stop-color="#C7C9DB"/>
</linearGradient>
<linearGradient id="paint33_linear_7649_61488" x1="11.8253" y1="38.3363" x2="14.8186" y2="35.343" gradientUnits="userSpaceOnUse">
<stop stop-color="#8398AF"/>
<stop offset="1" stop-color="#8398AF"/>
</linearGradient>
<linearGradient id="paint34_linear_7649_61488" x1="11.014" y1="40.3441" x2="14.0074" y2="37.3508" gradientUnits="userSpaceOnUse">
<stop stop-color="#8398AF"/>
<stop offset="1" stop-color="#8398AF"/>
</linearGradient>
<linearGradient id="paint35_linear_7649_61488" x1="19.4552" y1="32.716" x2="20.0541" y2="32.1171" gradientUnits="userSpaceOnUse">
<stop stop-color="#8398AF"/>
<stop offset="1" stop-color="#8398AF"/>
</linearGradient>
<linearGradient id="paint36_linear_7649_61488" x1="20.3949" y1="32.4569" x2="21.1012" y2="31.7506" gradientUnits="userSpaceOnUse">
<stop stop-color="#C7C9DB"/>
<stop offset="1" stop-color="#C7C9DB"/>
</linearGradient>
<linearGradient id="paint37_linear_7649_61488" x1="21.3202" y1="31.9699" x2="22.3246" y2="30.9655" gradientUnits="userSpaceOnUse">
<stop stop-color="#C7C9DB"/>
<stop offset="0.5" stop-color="#C9CBDC"/>
<stop offset="1" stop-color="#8398AF"/>
</linearGradient>
<linearGradient id="paint38_linear_7649_61488" x1="32.067" y1="20.5177" x2="34.5771" y2="18.0076" gradientUnits="userSpaceOnUse">
<stop stop-color="#A1AABE"/>
<stop offset="0.5" stop-color="#B7BCCE"/>
<stop offset="1" stop-color="#C9CBDC"/>
</linearGradient>
<linearGradient id="paint39_linear_7649_61488" x1="35.6598" y1="19.0898" x2="37.332" y2="17.4177" gradientUnits="userSpaceOnUse">
<stop stop-color="#C9CBDC"/>
<stop offset="0.5" stop-color="#8398AF"/>
<stop offset="1" stop-color="#AFB5C7"/>
</linearGradient>
<linearGradient id="paint40_linear_7649_61488" x1="30.9758" y1="23.2043" x2="32.8644" y2="21.3156" gradientUnits="userSpaceOnUse">
<stop stop-color="#C7C9DB"/>
<stop offset="0.5" stop-color="#8398AF"/>
<stop offset="1" stop-color="#A1AABE"/>
</linearGradient>
<linearGradient id="paint41_linear_7649_61488" x1="37.2167" y1="17.3043" x2="38.7633" y2="15.7577" gradientUnits="userSpaceOnUse">
<stop stop-color="#AFB5C7"/>
<stop offset="0.5" stop-color="#8297AE"/>
<stop offset="1" stop-color="#E3E3EE"/>
</linearGradient>
<linearGradient id="paint42_linear_7649_61488" x1="16.8845" y1="37.4086" x2="19.705" y2="34.5881" gradientUnits="userSpaceOnUse">
<stop stop-color="#C7C9DB"/>
<stop offset="1" stop-color="#C7C9DB"/>
</linearGradient>
<linearGradient id="paint43_linear_7649_61488" x1="39.6203" y1="16.6128" x2="41.2925" y2="14.9406" gradientUnits="userSpaceOnUse">
<stop stop-color="#E3E3EE"/>
<stop offset="0.5" stop-color="#A3ACBF"/>
<stop offset="1" stop-color="#8398AF"/>
</linearGradient>
<linearGradient id="paint44_linear_7649_61488" x1="23.9916" y1="32.633" x2="25.1889" y2="31.4358" gradientUnits="userSpaceOnUse">
<stop stop-color="#8398AF"/>
<stop offset="1" stop-color="#8398AF"/>
</linearGradient>
<linearGradient id="paint45_linear_7649_61488" x1="29.9066" y1="25.4588" x2="31.5684" y2="23.797" gradientUnits="userSpaceOnUse">
<stop stop-color="#6189A0"/>
<stop offset="0.5" stop-color="#8297AE"/>
<stop offset="1" stop-color="#C7C9DB"/>
</linearGradient>
<linearGradient id="paint46_linear_7649_61488" x1="23.4743" y1="34.3368" x2="24.0729" y2="33.7382" gradientUnits="userSpaceOnUse">
<stop stop-color="#8398AF"/>
<stop offset="1" stop-color="#8398AF"/>
</linearGradient>
<linearGradient id="paint47_linear_7649_61488" x1="42.5173" y1="16.1668" x2="43.2644" y2="15.4197" gradientUnits="userSpaceOnUse">
<stop stop-color="#8398AF"/>
<stop offset="0.5" stop-color="#8297AE"/>
<stop offset="1" stop-color="#E6E5EF"/>
</linearGradient>
<linearGradient id="paint48_linear_7649_61488" x1="16.7437" y1="41.4959" x2="17.4478" y2="40.7918" gradientUnits="userSpaceOnUse">
<stop stop-color="#C7C9DB"/>
<stop offset="1" stop-color="#C7C9DB"/>
</linearGradient>
<linearGradient id="paint49_linear_7649_61488" x1="16.6468" y1="38.7922" x2="22.2879" y2="33.1512" gradientUnits="userSpaceOnUse">
<stop stop-color="#C7C9DB"/>
<stop offset="1" stop-color="#C7C9DB"/>
</linearGradient>
<linearGradient id="paint50_linear_7649_61488" x1="16.7084" y1="42.3948" x2="17.1753" y2="41.9279" gradientUnits="userSpaceOnUse">
<stop stop-color="#5C869C"/>
<stop offset="0.5" stop-color="#92A0B6"/>
<stop offset="1" stop-color="#C7C9DB"/>
</linearGradient>
<linearGradient id="paint51_linear_7649_61488" x1="26.7162" y1="32.9628" x2="26.7773" y2="32.9017" gradientUnits="userSpaceOnUse">
<stop stop-color="#8398AF"/>
<stop offset="0.5" stop-color="#6E8DA6"/>
<stop offset="1" stop-color="#5C869C"/>
</linearGradient>
<linearGradient id="paint52_linear_7649_61488" x1="30.6819" y1="28.6434" x2="31.8863" y2="27.439" gradientUnits="userSpaceOnUse">
<stop stop-color="#E3E3EE"/>
<stop offset="0.5" stop-color="#C9CBDC"/>
<stop offset="1" stop-color="#6189A0"/>
</linearGradient>
<linearGradient id="paint53_linear_7649_61488" x1="17.4679" y1="43.1542" x2="17.529" y2="43.0931" gradientUnits="userSpaceOnUse">
<stop stop-color="#5C869C"/>
<stop offset="0.5" stop-color="#6E8DA6"/>
<stop offset="1" stop-color="#8398AF"/>
</linearGradient>
<linearGradient id="paint54_linear_7649_61488" x1="26.5938" y1="33.6531" x2="27.0607" y2="33.1862" gradientUnits="userSpaceOnUse">
<stop stop-color="#C7C9DB"/>
<stop offset="0.5" stop-color="#92A0B6"/>
<stop offset="1" stop-color="#5C869C"/>
</linearGradient>
<linearGradient id="paint55_linear_7649_61488" x1="29.274" y1="30.8866" x2="31.0999" y2="29.0608" gradientUnits="userSpaceOnUse">
<stop stop-color="#A9B0C2"/>
<stop offset="0.5" stop-color="#B1B6C9"/>
<stop offset="1" stop-color="#E3E3EE"/>
</linearGradient>
<linearGradient id="paint56_linear_7649_61488" x1="18.6563" y1="39.6047" x2="24.2974" y2="33.9637" gradientUnits="userSpaceOnUse">
<stop stop-color="#C7C9DB"/>
<stop offset="1" stop-color="#C7C9DB"/>
</linearGradient>
<linearGradient id="paint57_linear_7649_61488" x1="26.4216" y1="34.8924" x2="27.1278" y2="34.1862" gradientUnits="userSpaceOnUse">
<stop stop-color="#C7C9DB"/>
<stop offset="1" stop-color="#C7C9DB"/>
</linearGradient>
<linearGradient id="paint58_linear_7649_61488" x1="44.8602" y1="17.0154" x2="46.9373" y2="14.9383" gradientUnits="userSpaceOnUse">
<stop stop-color="#E6E5EF"/>
<stop offset="0.5" stop-color="#C9CBDC"/>
<stop offset="1" stop-color="#6289A1"/>
</linearGradient>
<linearGradient id="paint59_linear_7649_61488" x1="20.2269" y1="42.372" x2="20.8256" y2="41.7734" gradientUnits="userSpaceOnUse">
<stop stop-color="#8398AF"/>
<stop offset="1" stop-color="#8398AF"/>
</linearGradient>
<linearGradient id="paint60_linear_7649_61488" x1="30.3403" y1="31.9528" x2="32.4315" y2="29.8616" gradientUnits="userSpaceOnUse">
<stop stop-color="#D8D8E7"/>
<stop offset="0.5" stop-color="#E4E3EE"/>
<stop offset="1" stop-color="#B9BDD0"/>
</linearGradient>
<linearGradient id="paint61_linear_7649_61488" x1="19.1218" y1="44.6857" x2="20.319" y2="43.4885" gradientUnits="userSpaceOnUse">
<stop stop-color="#8398AF"/>
<stop offset="1" stop-color="#8398AF"/>
</linearGradient>
<linearGradient id="paint62_linear_7649_61488" x1="22.9108" y1="39.8441" x2="25.7314" y2="37.0236" gradientUnits="userSpaceOnUse">
<stop stop-color="#C7C9DB"/>
<stop offset="1" stop-color="#C7C9DB"/>
</linearGradient>
<linearGradient id="paint63_linear_7649_61488" x1="33.7094" y1="31.1391" x2="34.5193" y2="30.3292" gradientUnits="userSpaceOnUse">
<stop stop-color="#B9BDD0"/>
<stop offset="0.5" stop-color="#8297AE"/>
<stop offset="1" stop-color="#8398AF"/>
</linearGradient>
<linearGradient id="paint64_linear_7649_61488" x1="46.0402" y1="18.5307" x2="48.285" y2="16.286" gradientUnits="userSpaceOnUse">
<stop stop-color="#E6E5EF"/>
<stop offset="0.5" stop-color="#D3D4E4"/>
<stop offset="1" stop-color="#6289A1"/>
</linearGradient>
<linearGradient id="paint65_linear_7649_61488" x1="28.9108" y1="37.3815" x2="30.7059" y2="35.5863" gradientUnits="userSpaceOnUse">
<stop stop-color="#8398AF"/>
<stop offset="1" stop-color="#8398AF"/>
</linearGradient>
<linearGradient id="paint66_linear_7649_61488" x1="21.9184" y1="45.0885" x2="22.9228" y2="44.0841" gradientUnits="userSpaceOnUse">
<stop stop-color="#8398AF"/>
<stop offset="0.5" stop-color="#C9CBDC"/>
<stop offset="1" stop-color="#C7C9DB"/>
</linearGradient>
<linearGradient id="paint67_linear_7649_61488" x1="22.7715" y1="43.9314" x2="23.4756" y2="43.2274" gradientUnits="userSpaceOnUse">
<stop stop-color="#C7C9DB"/>
<stop offset="1" stop-color="#C7C9DB"/>
</linearGradient>
<linearGradient id="paint68_linear_7649_61488" x1="28.0995" y1="39.3913" x2="29.8947" y2="37.5961" gradientUnits="userSpaceOnUse">
<stop stop-color="#8398AF"/>
<stop offset="1" stop-color="#8398AF"/>
</linearGradient>
<linearGradient id="paint69_linear_7649_61488" x1="36.3868" y1="32.198" x2="38.4011" y2="30.1837" gradientUnits="userSpaceOnUse">
<stop stop-color="#8398AF"/>
<stop offset="0.5" stop-color="#AFB5C7"/>
<stop offset="1" stop-color="#E3E3EE"/>
</linearGradient>
<linearGradient id="paint70_linear_7649_61488" x1="46.8869" y1="21.1015" x2="47.7493" y2="20.2391" gradientUnits="userSpaceOnUse">
<stop stop-color="#6189A0"/>
<stop offset="0.5" stop-color="#C7C9DB"/>
<stop offset="1" stop-color="#E6E5EF"/>
</linearGradient>
<linearGradient id="paint71_linear_7649_61488" x1="26.4757" y1="43.4069" x2="28.2709" y2="41.6117" gradientUnits="userSpaceOnUse">
<stop stop-color="#8398AF"/>
<stop offset="1" stop-color="#8398AF"/>
</linearGradient>
<linearGradient id="paint72_linear_7649_61488" x1="39.1657" y1="30.9473" x2="40.5342" y2="29.5788" gradientUnits="userSpaceOnUse">
<stop stop-color="#E3E3EE"/>
<stop offset="0.5" stop-color="#8398AF"/>
<stop offset="1" stop-color="#AFB5C7"/>
</linearGradient>
<linearGradient id="paint73_linear_7649_61488" x1="32.4452" y1="37.326" x2="33.1515" y2="36.6198" gradientUnits="userSpaceOnUse">
<stop stop-color="#C7C9DB"/>
<stop offset="1" stop-color="#C7C9DB"/>
</linearGradient>
<linearGradient id="paint74_linear_7649_61488" x1="33.372" y1="36.8391" x2="34.3764" y2="35.8346" gradientUnits="userSpaceOnUse">
<stop stop-color="#C7C9DB"/>
<stop offset="0.5" stop-color="#C9CBDC"/>
<stop offset="1" stop-color="#8398AF"/>
</linearGradient>
<linearGradient id="paint75_linear_7649_61488" x1="45.9342" y1="23.5978" x2="47.6588" y2="21.8732" gradientUnits="userSpaceOnUse">
<stop stop-color="#E3E3EE"/>
<stop offset="0.5" stop-color="#B4B9CB"/>
<stop offset="1" stop-color="#6189A0"/>
</linearGradient>
<linearGradient id="paint76_linear_7649_61488" x1="25.6644" y1="45.4166" x2="27.4596" y2="43.6215" gradientUnits="userSpaceOnUse">
<stop stop-color="#8398AF"/>
<stop offset="1" stop-color="#8398AF"/>
</linearGradient>
<linearGradient id="paint77_linear_7649_61488" x1="45.125" y1="26.2096" x2="46.8356" y2="24.499" gradientUnits="userSpaceOnUse">
<stop stop-color="#E6E5EF"/>
<stop offset="0.5" stop-color="#8398AF"/>
<stop offset="1" stop-color="#E3E3EE"/>
</linearGradient>
<linearGradient id="paint78_linear_7649_61488" x1="42.704" y1="27.6452" x2="44.6311" y2="25.7181" gradientUnits="userSpaceOnUse">
<stop stop-color="#DCDCEA"/>
<stop offset="0.5" stop-color="#8297AE"/>
<stop offset="1" stop-color="#E6E5EF"/>
</linearGradient>
<linearGradient id="paint79_linear_7649_61488" x1="41.2124" y1="30.257" x2="43.2651" y2="28.2043" gradientUnits="userSpaceOnUse">
<stop stop-color="#AFB5C7"/>
<stop offset="0.5" stop-color="#A3ACBF"/>
<stop offset="1" stop-color="#DCDCEA"/>
</linearGradient>
<linearGradient id="paint80_linear_7649_61488" x1="28.9348" y1="42.2777" x2="31.7553" y2="39.4572" gradientUnits="userSpaceOnUse">
<stop stop-color="#C7C9DB"/>
<stop offset="1" stop-color="#C7C9DB"/>
</linearGradient>
<linearGradient id="paint81_linear_7649_61488" x1="34.8154" y1="38.4988" x2="34.8163" y2="38.4978" gradientUnits="userSpaceOnUse">
<stop stop-color="#8398AF"/>
<stop offset="1" stop-color="#8398AF"/>
</linearGradient>
<linearGradient id="paint82_linear_7649_61488" x1="36.0417" y1="37.5002" x2="37.2389" y2="36.303" gradientUnits="userSpaceOnUse">
<stop stop-color="#8398AF"/>
<stop offset="1" stop-color="#8398AF"/>
</linearGradient>
<linearGradient id="paint83_linear_7649_61488" x1="33.2882" y1="39.7891" x2="34.6985" y2="38.3788" gradientUnits="userSpaceOnUse">
<stop stop-color="#C7C9DB"/>
<stop offset="1" stop-color="#C7C9DB"/>
</linearGradient>
<linearGradient id="paint84_linear_7649_61488" x1="34.0029" y1="40.5066" x2="34.0038" y2="40.5056" gradientUnits="userSpaceOnUse">
<stop stop-color="#8398AF"/>
<stop offset="1" stop-color="#8398AF"/>
</linearGradient>
<linearGradient id="paint85_linear_7649_61488" x1="35.5248" y1="39.2081" x2="36.1245" y2="38.6084" gradientUnits="userSpaceOnUse">
<stop stop-color="#8398AF"/>
<stop offset="1" stop-color="#8398AF"/>
</linearGradient>
<linearGradient id="paint86_linear_7649_61488" x1="28.7952" y1="46.365" x2="29.4993" y2="45.661" gradientUnits="userSpaceOnUse">
<stop stop-color="#C7C9DB"/>
<stop offset="1" stop-color="#C7C9DB"/>
</linearGradient>
<linearGradient id="paint87_linear_7649_61488" x1="30.9443" y1="43.0883" x2="33.7648" y2="40.2678" gradientUnits="userSpaceOnUse">
<stop stop-color="#C7C9DB"/>
<stop offset="1" stop-color="#C7C9DB"/>
</linearGradient>
<linearGradient id="paint88_linear_7649_61488" x1="28.7599" y1="47.2639" x2="29.2268" y2="46.797" gradientUnits="userSpaceOnUse">
<stop stop-color="#5C869C"/>
<stop offset="0.5" stop-color="#92A0B6"/>
<stop offset="1" stop-color="#C7C9DB"/>
</linearGradient>
<linearGradient id="paint89_linear_7649_61488" x1="38.7665" y1="37.8319" x2="38.8276" y2="37.7708" gradientUnits="userSpaceOnUse">
<stop stop-color="#8398AF"/>
<stop offset="0.5" stop-color="#6E8DA6"/>
<stop offset="1" stop-color="#5C869C"/>
</linearGradient>
<linearGradient id="paint90_linear_7649_61488" x1="32.3804" y1="44.5242" x2="32.3813" y2="44.5232" gradientUnits="userSpaceOnUse">
<stop stop-color="#8398AF"/>
<stop offset="1" stop-color="#8398AF"/>
</linearGradient>
<linearGradient id="paint91_linear_7649_61488" x1="30.8537" y1="45.8154" x2="32.2629" y2="44.4062" gradientUnits="userSpaceOnUse">
<stop stop-color="#C7C9DB"/>
<stop offset="1" stop-color="#C7C9DB"/>
</linearGradient>
<linearGradient id="paint92_linear_7649_61488" x1="29.5194" y1="48.0233" x2="29.5805" y2="47.9622" gradientUnits="userSpaceOnUse">
<stop stop-color="#5C869C"/>
<stop offset="0.5" stop-color="#6E8DA6"/>
<stop offset="1" stop-color="#8398AF"/>
</linearGradient>
<linearGradient id="paint93_linear_7649_61488" x1="38.6453" y1="38.5203" x2="39.1122" y2="38.0534" gradientUnits="userSpaceOnUse">
<stop stop-color="#C7C9DB"/>
<stop offset="0.5" stop-color="#92A0B6"/>
<stop offset="1" stop-color="#5C869C"/>
</linearGradient>
<linearGradient id="paint94_linear_7649_61488" x1="30.7066" y1="44.4719" x2="36.3477" y2="38.8309" gradientUnits="userSpaceOnUse">
<stop stop-color="#C7C9DB"/>
<stop offset="1" stop-color="#C7C9DB"/>
</linearGradient>
<linearGradient id="paint95_linear_7649_61488" x1="38.4731" y1="39.7616" x2="39.1793" y2="39.0553" gradientUnits="userSpaceOnUse">
<stop stop-color="#C7C9DB"/>
<stop offset="1" stop-color="#C7C9DB"/>
</linearGradient>
<linearGradient id="paint96_linear_7649_61488" x1="32.2798" y1="47.242" x2="32.8775" y2="46.6443" gradientUnits="userSpaceOnUse">
<stop stop-color="#8398AF"/>
<stop offset="1" stop-color="#8398AF"/>
</linearGradient>
<linearGradient id="paint97_linear_7649_61488" x1="31.1718" y1="49.5549" x2="32.3691" y2="48.3576" gradientUnits="userSpaceOnUse">
<stop stop-color="#8398AF"/>
<stop offset="1" stop-color="#8398AF"/>
</linearGradient>
<linearGradient id="paint98_linear_7649_61488" x1="34.9623" y1="44.7113" x2="37.7829" y2="41.8908" gradientUnits="userSpaceOnUse">
<stop stop-color="#C7C9DB"/>
<stop offset="1" stop-color="#C7C9DB"/>
</linearGradient>
<linearGradient id="paint99_linear_7649_61488" x1="40.2531" y1="41.5415" x2="41.4506" y2="40.344" gradientUnits="userSpaceOnUse">
<stop stop-color="#8398AF"/>
<stop offset="1" stop-color="#8398AF"/>
</linearGradient>
<linearGradient id="paint100_linear_7649_61488" x1="39.4406" y1="43.5493" x2="40.6381" y2="42.3518" gradientUnits="userSpaceOnUse">
<stop stop-color="#8398AF"/>
<stop offset="1" stop-color="#8398AF"/>
</linearGradient>
<linearGradient id="paint101_linear_7649_61488" x1="33.9687" y1="49.9557" x2="34.9731" y2="48.9513" gradientUnits="userSpaceOnUse">
<stop stop-color="#8398AF"/>
<stop offset="0.5" stop-color="#C9CBDC"/>
<stop offset="1" stop-color="#C7C9DB"/>
</linearGradient>
<linearGradient id="paint102_linear_7649_61488" x1="34.8216" y1="48.8006" x2="35.5256" y2="48.0965" gradientUnits="userSpaceOnUse">
<stop stop-color="#C7C9DB"/>
<stop offset="1" stop-color="#C7C9DB"/>
</linearGradient>
<linearGradient id="paint103_linear_7649_61488" x1="41.3217" y1="43.0352" x2="42.7319" y2="41.6249" gradientUnits="userSpaceOnUse">
<stop stop-color="#C7C9DB"/>
<stop offset="1" stop-color="#C7C9DB"/>
</linearGradient>
<linearGradient id="paint104_linear_7649_61488" x1="37.8181" y1="47.5688" x2="39.0156" y2="46.3714" gradientUnits="userSpaceOnUse">
<stop stop-color="#8398AF"/>
<stop offset="1" stop-color="#8398AF"/>
</linearGradient>
<linearGradient id="paint105_linear_7649_61488" x1="37.0056" y1="49.5766" x2="38.2031" y2="48.3792" gradientUnits="userSpaceOnUse">
<stop stop-color="#8398AF"/>
<stop offset="1" stop-color="#8398AF"/>
</linearGradient>
<linearGradient id="paint106_linear_7649_61488" x1="38.8866" y1="49.0625" x2="40.2969" y2="47.6522" gradientUnits="userSpaceOnUse">
<stop stop-color="#C7C9DB"/>
<stop offset="1" stop-color="#C7C9DB"/>
</linearGradient>
<linearGradient id="paint107_linear_7649_61488" x1="22.3784" y1="10.6286" x2="37.5628" y2="43.5869" gradientUnits="userSpaceOnUse">
<stop stop-color="#C2C7D4"/>
<stop offset="1" stop-color="#656F93"/>
</linearGradient>
<linearGradient id="paint108_linear_7649_61488" x1="22.3784" y1="10.6286" x2="37.5628" y2="43.5869" gradientUnits="userSpaceOnUse">
<stop stop-color="#C2C7D4"/>
<stop offset="1" stop-color="#656F93"/>
</linearGradient>
<linearGradient id="paint109_linear_7649_61488" x1="39.5" y1="49" x2="24.5002" y2="22.9999" gradientUnits="userSpaceOnUse">
<stop stop-color="white"/>
<stop offset="1" stop-color="white" stop-opacity="0"/>
</linearGradient>
<radialGradient id="paint110_radial_7649_61488" cx="0" cy="0" r="1" gradientUnits="userSpaceOnUse" gradientTransform="translate(19.0006 17) rotate(58.9501) scale(32.1089 32.0498)">
<stop stop-color="#F7F9FF"/>
<stop offset="1" stop-color="#656F93" stop-opacity="0"/>
</radialGradient>
<radialGradient id="paint111_radial_7649_61488" cx="0" cy="0" r="1" gradientUnits="userSpaceOnUse" gradientTransform="translate(19.0006 17) rotate(58.9501) scale(32.1089 32.0498)">
<stop stop-color="#F7F9FF"/>
<stop offset="1" stop-color="#656F93" stop-opacity="0"/>
</radialGradient>
<radialGradient id="paint112_radial_7649_61488" cx="0" cy="0" r="1" gradientUnits="userSpaceOnUse" gradientTransform="translate(34.5 14.5) rotate(80.5377) scale(18.2483 18.2147)">
<stop stop-color="#F7F9FF"/>
<stop offset="1" stop-color="#656F93" stop-opacity="0"/>
</radialGradient>
<radialGradient id="paint113_radial_7649_61488" cx="0" cy="0" r="1" gradientUnits="userSpaceOnUse" gradientTransform="translate(34.5 14.5) rotate(80.5377) scale(18.2483 18.2147)">
<stop stop-color="#F7F9FF"/>
<stop offset="1" stop-color="#656F93" stop-opacity="0"/>
</radialGradient>
<radialGradient id="paint114_radial_7649_61488" cx="0" cy="0" r="1" gradientUnits="userSpaceOnUse" gradientTransform="translate(5.5 35.5) scale(14.5 14.4733)">
<stop stop-color="#F7F9FF"/>
<stop offset="1" stop-color="#656F93" stop-opacity="0"/>
</radialGradient>
<radialGradient id="paint115_radial_7649_61488" cx="0" cy="0" r="1" gradientUnits="userSpaceOnUse" gradientTransform="translate(5.5 35.5) scale(14.5 14.4733)">
<stop stop-color="#F7F9FF"/>
<stop offset="1" stop-color="#656F93" stop-opacity="0"/>
</radialGradient>
</defs>
</svg>
