<svg width="18" height="18" viewBox="0 0 18 18" fill="none" xmlns="http://www.w3.org/2000/svg">
<path fill-rule="evenodd" clip-rule="evenodd" d="M12.8364 7.42164L6.10409 3.53474C5.83968 3.38208 5.50158 3.47268 5.34892 3.73709L3.53544 6.87813C3.38278 7.14254 3.47337 7.48064 3.73778 7.6333L10.4701 11.5202C10.7345 11.6729 11.0726 11.5823 11.2253 11.3178L13.0387 8.17681C13.1914 7.9124 13.1008 7.57429 12.8364 7.42164ZM6.56477 2.73681C5.85968 2.32973 4.95808 2.57131 4.55099 3.2764L2.73751 6.41745C2.33042 7.12254 2.57201 8.02414 3.2771 8.43123L6.53805 10.3139V10.3154V10.3178V10.3202V10.3226V10.325V10.3274V10.3298V10.3322V10.3346V10.337V10.3394V10.3418V10.3442V10.3465V10.3489V10.3513V10.3537V10.3561V10.3585V10.3609V10.3632V10.3656V10.368V10.3704V10.3727V10.3751V10.3775V10.3799V10.3822V10.3846V10.387V10.3894V10.3917V10.3941V10.3965V10.3988V10.4012V10.4035V10.4059V10.4083V10.4106V10.413V10.4154V10.4177V10.4201V10.4224V10.4248V10.4271V10.4295V10.4318V10.4342V10.4365V10.4389V10.4412V10.4436V10.4459V10.4483V10.4506V10.453V10.4553V10.4577V10.46V10.4624V10.4647V10.4671V10.4694V10.4717V10.4741V10.4764V10.4788V10.4811V10.4834V10.4858V10.4881V10.4905V10.4928V10.4951V10.4975V10.4998V10.5021V10.5045V10.5068V10.5091V10.5115V10.5138V10.5161V10.5185V10.5208V10.5231V10.5255V10.5278V10.5301V10.5325V10.5348V10.5371V10.5394V10.5418V10.5441V10.5464V10.5488V10.5511V10.5534V10.5557V10.5581V10.5604V10.5627V10.5651V10.5674V10.5697V10.572V10.5744V10.5767V10.579V10.5814V10.5837V10.586V10.5883V10.5907V10.593V10.5953V10.5976V10.6V10.6023V10.6046V10.6069V10.6093V10.6116V10.6139V10.6163V10.6186V10.6209V10.6232V10.6256V10.6279V10.6302V10.6326V10.6349V10.6372V10.6395V10.6419V10.6442V10.6465V10.6489V10.6512V10.6535V10.6559V10.6582V10.6605V10.6629V10.6652V10.6675V10.6698V10.6722V10.6745V10.6769V10.6792V10.6815V10.6839V10.6862V10.6885V10.6909V10.6932V10.6955V10.6979V10.7002V10.7026V10.7049V10.7072V10.7096V10.7119V10.7143V10.7166V10.719V10.7213V10.7236V10.726V10.7283V10.7307V10.733V10.7354V10.7377V10.7401V10.7424V10.7448V10.7471V10.7495V10.7518V10.7542V10.7566V10.7589V10.7613V10.7636V10.766V10.7683V10.7707V10.7731V10.7754V10.7778V10.7802V10.7825V10.7849V10.7873V10.7896V10.792V10.7944V10.7967V10.7991V10.8015V10.8039V10.8062V10.8086V10.811V10.8134V10.8157V10.8181V10.8205V10.8229V10.8253V10.8277V10.83V10.8324V10.8348V10.8372V10.8396V10.842V10.8444V10.8468V10.8492V10.8516V10.854V10.8564V10.8588V10.8612V10.8636V10.866V10.8684V10.8708V10.8732V10.8756V10.878V10.8804V10.8828V10.8853V10.8877V10.8901V10.8925V10.8949V10.8974V10.8998V10.9022V10.9046V10.9071V10.9095V10.9119V10.9144V10.9168V10.9192V10.9217V10.9241V10.9266V10.929V10.9314V10.9339V10.9363V10.9388V10.9412V10.9437V10.9462V10.9486V10.9511V10.9535V10.956V10.9585V10.9609V10.9634V10.9659V10.9683V10.9708V10.9733V10.9757V10.9782V10.9807V10.9832V10.9857V10.9882V10.9906V10.9931V10.9956V10.9981V11.0006V11.0031V11.0056V11.0081V11.0106V11.0131V11.0156V11.0181V11.0206V11.0232V11.0257V11.0282V11.0307V11.0332V11.0358V11.0383V11.0408V11.0433V11.0459V11.0484V11.0509V11.0535V11.056V11.0586V11.0611V11.0637V11.0662V11.0688V11.0713V11.0739V11.0764V11.079V11.0816V11.0841V11.0867V11.0893V11.0918V11.0944V11.097V11.0996V11.1022V11.1047V11.1073V11.1099V11.1125V11.1151V11.1177V11.1203V11.1229V11.1255V11.1281V11.1307V11.1333V11.136V11.1386V11.1412V11.1438V11.1465V11.1491V11.1517V11.1543V11.157V11.1596V11.1623V11.1649V11.1676V11.1702V11.1729V11.1755V11.1782V11.1808V11.1835V11.1862V11.1888V11.1915V11.1942V11.1968V11.1995V11.2022V11.2049V11.2076V11.2103V11.213V11.2157V11.2184V11.2211V11.2238V11.2265V11.2292V11.2319V11.2346V11.2374V11.2401V11.2428V11.2455V11.2483V11.251V11.2537V11.2565V11.2592V11.262V11.2647V11.2675V11.2702V11.273V11.2758V11.2785V11.2813V11.2841V11.2869V11.2896V11.2924V11.2952V11.298V11.3008V11.3036V11.3064V11.3092V11.312V11.3148V11.3176V11.3204V11.3233V11.3261V11.3289V11.3317V11.3346V11.3374V11.3402V11.3431V11.3459V11.3488V11.3516V11.3545V11.3574V11.3602V11.3631V11.366V11.3688V11.3717V11.3746V11.3775V11.3804V11.3833V11.3862V11.3891V11.392V11.3949V11.3978V11.4007V11.4036V11.4065V11.4095V11.4124V11.4153V11.4183V11.4212V11.4241V11.4271V11.43V11.433V11.436V11.4389V11.4419V11.4448V11.4478V11.4508V11.4538V11.4568V11.4598C6.53805 11.7146 6.47238 12.0054 6.31108 12.2205C6.16652 12.4132 5.90986 12.5946 5.40318 12.5946H5.39721H5.39128H5.38537H5.3795H5.37366H5.36785H5.36208H5.35633H5.35062H5.34493H5.33928H5.33366H5.32807H5.3225H5.31697H5.31147H5.306H5.30057H5.29516H5.28978H5.28442H5.2791H5.27381H5.26855H5.26332H5.25811H5.25294H5.24779H5.24268H5.23759H5.23253H5.2275H5.22249H5.21752H5.21257H5.20765H5.20276H5.19789H5.19305H5.18825H5.18346H5.17871H5.17398H5.16928H5.1646H5.15996H5.15533H5.15074H5.14617H5.14163H5.13711H5.13262H5.12815H5.12371H5.1193H5.11491H5.11055H5.10621H5.1019H5.09761H5.09334H5.0891H5.08489H5.0807H5.07653H5.07239H5.06828H5.06418H5.06011H5.05607H5.05204H5.04804H5.04407H5.04012H5.03619H5.03228H5.0284H5.02453H5.0207H5.01688H5.01309H5.00931H5.00557H5.00184H4.99813H4.99445H4.99079H4.98714H4.98352H4.97993H4.97635H4.97279H4.96926H4.96574H4.96225H4.95877H4.95532H4.95189H4.94847H4.94508H4.94171H4.93835H4.93502H4.93171H4.92841H4.92514H4.92188H4.91864H4.91542H4.91222H4.90904H4.90588H4.90274H4.89961H4.8965H4.89341H4.89034H4.88729H4.88425H4.88123H4.87823H4.87525H4.87228H4.86933H4.86639H4.86348H4.86058H4.8577H4.85483H4.85198H4.84914H4.84633H4.84352H4.84074H4.83797H4.83521H4.83247H4.82975H4.82704H4.82435H4.82167H4.819H4.81635H4.81372H4.8111H4.80849H4.8059H4.80332H4.80076H4.79821H4.79567H4.79315H4.79064H4.78815H4.78566H4.78319H4.78074H4.77829H4.77586H4.77345H4.77104H4.76865H4.76627H4.7639H4.76154H4.7592H4.75686H4.75454H4.75223H4.74993H4.74765H4.74537H4.74311H4.74085H4.73861H4.73638H4.73415H4.73194H4.72974H4.72755H4.72537H4.7232H4.72104H4.71888H4.71674H4.71461H4.71249H4.71037H4.70827H4.70617H4.70408H4.702H4.69993H4.69787H4.69582H4.69377H4.69174H4.68971H4.68769H4.68567H4.68367H4.68167H4.67968H4.67769H4.67572H4.67375H4.67179H4.66983H4.66788H4.66594H4.664H4.66207H4.66015H4.65823H4.65632H4.65441H4.65251H4.65061H4.64872H4.64684H4.64496H4.64308H4.64122H4.63935H4.63749H4.63563H4.63378H4.63194H4.63009H4.62825H4.62642H4.62459H4.62276H4.62094H4.61912H4.6173H4.61549H4.61368H4.61187H4.61006H4.60826H4.60646H4.60466H4.60287H4.60108H4.59928H4.5975H4.59571H4.59392H4.59214H4.59036H4.58858H4.5868H4.58502H4.58324H4.58146H4.57969H4.57791H4.57614H4.57436H4.57259H4.57082H4.56904H4.56727H4.56549H4.56372H4.56194H4.56017H4.55839H4.55661H4.55483H4.55305H4.55127H4.54949H4.54771H4.54592H4.54413H4.54234H4.54055H4.53876H4.53697H4.53517H4.53337H4.53157H4.52976H4.52795H4.52614H4.52433H4.52251H4.52069H4.51886H4.51704H4.51521H4.51337H4.51153H4.50969H4.50784H4.50599H4.50413H4.50227H4.50041H4.49854H4.49666H4.49478H4.4929H4.49101H4.48911H4.48721H4.4853H4.48339H4.48147H4.47955H4.47761H4.47568H4.47373H4.47178H4.46983H4.46786H4.46589H4.46392H4.46193H4.45994H4.45794H4.45593H4.45392H4.4519H4.44987H4.44783H4.44579H4.44373H4.44167H4.4396H4.43752H4.43543H4.43333H4.43123H4.42911H4.42699H4.42486H4.42271H4.42056H4.4184H4.41623H4.41404H4.41185H4.40965H4.40744H4.40521H4.40298H4.40074H4.39848H4.39621H4.39394H4.39165H4.38935H4.38704H4.38472H4.38238H4.38004H4.37768H4.37531H4.37293H4.37053H4.36813H4.36571H4.36327H4.36083H4.35837H4.3559H4.35342H4.35092H4.34841H4.34589H4.34335H4.3408H4.33823H4.33565H4.33306H4.33045H4.32783H4.3252H4.32255H4.31988H4.3172H4.3145H4.31179H4.30907H4.30633H4.30357H4.3008H4.29801H4.29521H4.29239H4.28955H4.2867H4.28383H4.28095H4.27805H4.27513H4.27219H4.26924H4.26627H4.26329H4.26028H4.25726H4.25423H4.25117H4.2481H4.24501H4.2419H4.23877H4.23562H4.23246H4.22927H4.22607H4.22285H4.21961H4.21636H4.21308H4.20978H4.20646H4.20313H4.19977H4.1964H4.193H4.18959H4.18615H4.1827H4.17922H4.17573H4.17221H4.16867H4.16511H4.16154H4.15794H4.15431H4.15067H4.14701H4.14332H4.13961H4.13588H4.13213H4.12836H4.12456H4.12074H4.1169H4.11304H4.10915H4.10524H4.10374V12.0617C4.10374 11.6067 3.77392 11.2287 3.34031 11.1538C3.28899 11.145 3.23622 11.1403 3.18237 11.1403H2.41895V12.0617V14.0483V14.9697H3.18237C3.23622 14.9697 3.28899 14.9651 3.34031 14.9562C3.77392 14.8813 4.10374 14.5033 4.10374 14.0483V13.516H4.10524H4.10915H4.11304H4.1169H4.12074H4.12456H4.12836H4.13213H4.13588H4.13961H4.14332H4.14701H4.15067H4.15431H4.15794H4.16154H4.16511H4.16867H4.17221H4.17573H4.17922H4.1827H4.18615H4.18959H4.193H4.1964H4.19977H4.20313H4.20646H4.20978H4.21308H4.21636H4.21961H4.22285H4.22607H4.22927H4.23246H4.23562H4.23877H4.2419H4.24501H4.2481H4.25117H4.25423H4.25726H4.26028H4.26329H4.26627H4.26924H4.27219H4.27513H4.27805H4.28095H4.28383H4.2867H4.28955H4.29239H4.29521H4.29801H4.3008H4.30357H4.30633H4.30907H4.31179H4.3145H4.3172H4.31988H4.32255H4.3252H4.32783H4.33045H4.33306H4.33565H4.33823H4.3408H4.34335H4.34589H4.34841H4.35092H4.35342H4.3559H4.35837H4.36083H4.36327H4.36571H4.36813H4.37053H4.37293H4.37531H4.37768H4.38004H4.38238H4.38472H4.38704H4.38935H4.39165H4.39394H4.39621H4.39848H4.40074H4.40298H4.40521H4.40744H4.40965H4.41185H4.41404H4.41623H4.4184H4.42056H4.42271H4.42486H4.42699H4.42911H4.43123H4.43333H4.43543H4.43752H4.4396H4.44167H4.44373H4.44579H4.44783H4.44987H4.4519H4.45392H4.45593H4.45794H4.45994H4.46193H4.46392H4.46589H4.46786H4.46983H4.47178H4.47373H4.47568H4.47761H4.47955H4.48147H4.48339H4.4853H4.48721H4.48911H4.49101H4.4929H4.49478H4.49666H4.49854H4.50041H4.50227H4.50413H4.50599H4.50784H4.50969H4.51153H4.51337H4.51521H4.51704H4.51886H4.52069H4.52251H4.52433H4.52614H4.52795H4.52976H4.53157H4.53337H4.53517H4.53697H4.53876H4.54055H4.54234H4.54413H4.54592H4.54771H4.54949H4.55127H4.55305H4.55483H4.55661H4.55839H4.56017H4.56194H4.56372H4.56549H4.56727H4.56904H4.57082H4.57259H4.57436H4.57614H4.57791H4.57969H4.58146H4.58324H4.58502H4.5868H4.58858H4.59036H4.59214H4.59392H4.59571H4.5975H4.59928H4.60108H4.60287H4.60466H4.60646H4.60826H4.61006H4.61187H4.61368H4.61549H4.6173H4.61912H4.62094H4.62276H4.62459H4.62642H4.62825H4.63009H4.63194H4.63378H4.63563H4.63749H4.63935H4.64122H4.64308H4.64496H4.64684H4.64872H4.65061H4.65251H4.65441H4.65632H4.65823H4.66015H4.66207H4.664H4.66594H4.66788H4.66983H4.67179H4.67375H4.67572H4.67769H4.67968H4.68167H4.68367H4.68567H4.68769H4.68971H4.69174H4.69377H4.69582H4.69787H4.69993H4.702H4.70408H4.70617H4.70827H4.71037H4.71249H4.71461H4.71674H4.71888H4.72104H4.7232H4.72537H4.72755H4.72974H4.73194H4.73415H4.73638H4.73861H4.74085H4.74311H4.74537H4.74765H4.74993H4.75223H4.75454H4.75686H4.7592H4.76154H4.7639H4.76627H4.76865H4.77104H4.77345H4.77586H4.77829H4.78074H4.78319H4.78566H4.78815H4.79064H4.79315H4.79567H4.79821H4.80076H4.80332H4.8059H4.80849H4.8111H4.81372H4.81635H4.819H4.82167H4.82435H4.82704H4.82975H4.83247H4.83521H4.83797H4.84074H4.84352H4.84633H4.84914H4.85198H4.85483H4.8577H4.86058H4.86348H4.86639H4.86933H4.87228H4.87525H4.87823H4.88123H4.88425H4.88729H4.89034H4.89341H4.8965H4.89961H4.90274H4.90588H4.90904H4.91222H4.91542H4.91864H4.92188H4.92514H4.92841H4.93171H4.93502H4.93835H4.94171H4.94508H4.94847H4.95189H4.95532H4.95877H4.96225H4.96574H4.96926H4.97279H4.97635H4.97993H4.98352H4.98714H4.99079H4.99445H4.99813H5.00184H5.00557H5.00931H5.01309H5.01688H5.0207H5.02453H5.0284H5.03228H5.03619H5.04012H5.04407H5.04804H5.05204H5.05607H5.06011H5.06418H5.06828H5.07239H5.07653H5.0807H5.08489H5.0891H5.09334H5.09761H5.1019H5.10621H5.11055H5.11491H5.1193H5.12371H5.12815H5.13262H5.13711H5.14163H5.14617H5.15074H5.15533H5.15996H5.1646H5.16928H5.17398H5.17871H5.18346H5.18825H5.19305H5.19789H5.20276H5.20765H5.21257H5.21752H5.22249H5.2275H5.23253H5.23759H5.24268H5.24779H5.25294H5.25811H5.26332H5.26855H5.27381H5.2791H5.28442H5.28978H5.29516H5.30057H5.306H5.31147H5.31697H5.3225H5.32807H5.33366H5.33928H5.34493H5.35062H5.35633H5.36208H5.36785H5.37366H5.3795H5.38537H5.39128H5.39721H5.40318C6.17295 13.516 6.71407 13.2188 7.04817 12.7733C7.36554 12.3501 7.45942 11.8432 7.45942 11.4598V11.4568V11.4538V11.4508V11.4478V11.4448V11.4419V11.4389V11.436V11.433V11.43V11.4271V11.4241V11.4212V11.4183V11.4153V11.4124V11.4095V11.4065V11.4036V11.4007V11.3978V11.3949V11.392V11.3891V11.3862V11.3833V11.3804V11.3775V11.3746V11.3717V11.3688V11.366V11.3631V11.3602V11.3574V11.3545V11.3516V11.3488V11.3459V11.3431V11.3402V11.3374V11.3346V11.3317V11.3289V11.3261V11.3233V11.3204V11.3176V11.3148V11.312V11.3092V11.3064V11.3036V11.3008V11.298V11.2952V11.2924V11.2896V11.2869V11.2841V11.2813V11.2785V11.2758V11.273V11.2702V11.2675V11.2647V11.262V11.2592V11.2565V11.2537V11.251V11.2483V11.2455V11.2428V11.2401V11.2374V11.2346V11.2319V11.2292V11.2265V11.2238V11.2211V11.2184V11.2157V11.213V11.2103V11.2076V11.2049V11.2022V11.1995V11.1968V11.1942V11.1915V11.1888V11.1862V11.1835V11.1808V11.1782V11.1755V11.1729V11.1702V11.1676V11.1649V11.1623V11.1596V11.157V11.1543V11.1517V11.1491V11.1465V11.1438V11.1412V11.1386V11.136V11.1333V11.1307V11.1281V11.1255V11.1229V11.1203V11.1177V11.1151V11.1125V11.1099V11.1073V11.1047V11.1022V11.0996V11.097V11.0944V11.0918V11.0893V11.0867V11.0841V11.0816V11.079V11.0764V11.0739V11.0713V11.0688V11.0662V11.0637V11.0611V11.0586V11.056V11.0535V11.0509V11.0484V11.0459V11.0433V11.0408V11.0383V11.0358V11.0332V11.0307V11.0282V11.0257V11.0232V11.0206V11.0181V11.0156V11.0131V11.0106V11.0081V11.0056V11.0031V11.0006V10.9981V10.9956V10.9931V10.9906V10.9882V10.9857V10.9832V10.9807V10.9782V10.9757V10.9733V10.9708V10.9683V10.9659V10.9634V10.9609V10.9585V10.956V10.9535V10.9511V10.9486V10.9462V10.9437V10.9412V10.9388V10.9363V10.9339V10.9314V10.929V10.9266V10.9241V10.9217V10.9192V10.9168V10.9144V10.9119V10.9095V10.9071V10.9046V10.9022V10.8998V10.8974V10.8949V10.8925V10.8901V10.8877V10.8853V10.8828V10.8804V10.878V10.8756V10.8732V10.8708V10.8684V10.866V10.8636V10.8612V10.8588V10.8564V10.854V10.8516V10.8492V10.8468V10.8459L10.0094 12.3181C10.7145 12.7252 11.6161 12.4836 12.0232 11.7785L12.4805 10.9865L13.1959 12.5798C13.4625 13.1734 14.2892 13.2154 14.6146 12.6519L15.8186 10.5665C16.1439 10.003 15.6941 9.30795 15.0468 9.37391L13.3093 9.55093L13.8367 8.63749C14.2437 7.9324 14.0022 7.03079 13.2971 6.62371L6.56477 2.73681ZM13.9375 11.9819L13.2638 10.4817L14.8999 10.315L13.9375 11.9819ZM8.08389 6.72116L6.0132 5.52564L5.41544 6.56099L7.48614 7.75651L8.08389 6.72116Z" fill="url(#paint0_linear_375_18282)"/>
<defs>
<linearGradient id="paint0_linear_375_18282" x1="4.31853" y1="4.28712" x2="13.2223" y2="13.9627" gradientUnits="userSpaceOnUse">
<stop stop-color="#9DFFE8"/>
<stop offset="1" stop-color="#1951A4"/>
</linearGradient>
</defs>
</svg>
