<svg width="22" height="22" viewBox="0 0 22 22" fill="none" xmlns="http://www.w3.org/2000/svg">
<rect width="22" height="22" rx="5" fill="#9C7BFF" fill-opacity="0.19"/>
<path fill-rule="evenodd" clip-rule="evenodd" d="M7.49091 4.5917C7.66733 4.4136 7.66597 4.12621 7.48787 3.94979C7.30978 3.77337 7.02239 3.77473 6.84597 3.95282C5.81762 4.99093 5.18188 6.41502 5.18188 7.98599C5.18188 9.55697 5.81762 10.9811 6.84597 12.0192C7.02239 12.1973 7.30978 12.1986 7.48788 12.0222C7.66597 11.8458 7.66733 11.5584 7.49091 11.3803C6.62308 10.5042 6.08969 9.30673 6.08969 7.98599C6.08969 6.66526 6.62308 5.46776 7.49091 4.5917ZM15.1542 3.95282C14.9777 3.77473 14.6904 3.77337 14.5123 3.94979C14.3342 4.12621 14.3328 4.4136 14.5092 4.5917C15.3771 5.46776 15.9104 6.66526 15.9104 7.98599C15.9104 9.30673 15.3771 10.5042 14.5092 11.3803C14.3328 11.5584 14.3342 11.8458 14.5123 12.0222C14.6904 12.1986 14.9777 12.1973 15.1542 12.0192C16.1825 10.9811 16.8182 9.55697 16.8182 7.98599C16.8182 6.41502 16.1825 4.99093 15.1542 3.95282ZM9.17137 5.57766C9.36122 5.74136 9.38241 6.02797 9.2187 6.21782C8.8158 6.68507 8.56625 7.31306 8.56625 8.00857C8.56625 8.68402 8.80161 9.2958 9.18426 9.75852C9.34401 9.9517 9.31691 10.2378 9.12372 10.3976C8.93054 10.5573 8.64442 10.5302 8.48467 10.337C7.96848 9.71283 7.65845 8.89684 7.65845 8.00857C7.65845 7.09393 7.98716 6.25592 8.5312 5.62499C8.69491 5.43515 8.98152 5.41395 9.17137 5.57766ZM12.8779 5.61957C13.0711 5.45981 13.3572 5.48691 13.5169 5.6801C14.0331 6.30431 14.3432 7.1203 14.3432 8.00857C14.3432 8.89684 14.0331 9.71283 13.5169 10.337C13.3572 10.5302 13.0711 10.5573 12.8779 10.3976C12.6847 10.2378 12.6576 9.9517 12.8174 9.75852C13.2 9.2958 13.4354 8.68402 13.4354 8.00857C13.4354 7.33311 13.2 6.72134 12.8174 6.25862C12.6576 6.06543 12.6847 5.77932 12.8779 5.61957ZM11.4401 9.36246C12.0228 9.17646 12.4447 8.63069 12.4447 7.98638C12.4447 7.18875 11.7981 6.54215 11.0005 6.54215C10.2028 6.54215 9.55624 7.18875 9.55624 7.98638C9.55624 8.63069 9.97816 9.17646 10.5608 9.36246H10.5535V12.9377H9.21174H8.31769V13.8318V14.7261H6.52992H5.63587V15.6201V17.4082V18.3023H6.52992H8.31802H9.21206V18.302H10.106V18.3031H11.0001H11.8941V18.302H12.7879H12.7886V18.3023H13.6826H15.4707H16.3648V17.4082V15.6201V14.7261H15.4707H13.6826H13.682V13.8318V12.9377H12.7879H11.4475V9.36246H11.4401ZM12.7879 17.408H11.8941V16.515V15.621H11.0001H10.106V16.515V17.408H9.21206V15.6201V14.7261H9.21174V13.8318H10.5535V13.8327H11.4475V13.8318H12.7879V17.408ZM8.31769 15.6201H6.52992V17.4082H8.31769V17.408V15.6201ZM13.6826 15.6201H15.4707V17.4082H13.6826V15.6201Z" fill="#9C7BFF"/>
</svg>
