<svg width="18" height="18" viewBox="0 0 18 18" fill="none" xmlns="http://www.w3.org/2000/svg">
<mask id="path-1-outside-1_5474_45188" maskUnits="userSpaceOnUse" x="1" y="1" width="16" height="16" fill="black">
<rect fill="white" x="1" y="1" width="16" height="16"/>
<path fill-rule="evenodd" clip-rule="evenodd" d="M2 5C2 2.6 4 2 5 2H13C15.4 2 16 4 16 5V9.5L14 7.5L11.5 10L6 5L2 9V5ZM13.5 5C13.5 3.89543 12.6046 3 11.5 3C10.3954 3 9.5 3.89543 9.5 5C9.5 6.10457 10.3954 7 11.5 7C12.6046 7 13.5 6.10457 13.5 5ZM14.2043 15.7485C13.8357 15.9102 13.4283 16 13 16H5C3.34315 16 2 14.6569 2 13V12L6 8L14.2043 15.7485ZM16 12V13C16 13.5722 15.8398 14.1069 15.5619 14.5619L12.5 11.5L14 10L16 12Z"/>
</mask>
<path fill-rule="evenodd" clip-rule="evenodd" d="M2 5C2 2.6 4 2 5 2H13C15.4 2 16 4 16 5V9.5L14 7.5L11.5 10L6 5L2 9V5ZM13.5 5C13.5 3.89543 12.6046 3 11.5 3C10.3954 3 9.5 3.89543 9.5 5C9.5 6.10457 10.3954 7 11.5 7C12.6046 7 13.5 6.10457 13.5 5ZM14.2043 15.7485C13.8357 15.9102 13.4283 16 13 16H5C3.34315 16 2 14.6569 2 13V12L6 8L14.2043 15.7485ZM16 12V13C16 13.5722 15.8398 14.1069 15.5619 14.5619L12.5 11.5L14 10L16 12Z" fill="#F2F4FC"/>
<path d="M16 9.5L15.6464 9.85355L16.5 10.7071V9.5H16ZM14 7.5L14.3536 7.14645L14 6.79289L13.6464 7.14645L14 7.5ZM11.5 10L11.1637 10.37L11.5164 10.6907L11.8536 10.3536L11.5 10ZM6 5L6.33634 4.63003L5.98356 4.30933L5.64645 4.64645L6 5ZM2 9H1.5V10.2071L2.35355 9.35355L2 9ZM14.2043 15.7485L14.4052 16.2064L15.0962 15.9031L14.5476 15.385L14.2043 15.7485ZM2 12L1.64645 11.6464L1.5 11.7929V12H2ZM6 8L6.34331 7.63649L5.99004 7.30285L5.64645 7.64645L6 8ZM16 12H16.5V11.7929L16.3536 11.6464L16 12ZM15.5619 14.5619L15.2083 14.9154L15.6574 15.3645L15.9885 14.8225L15.5619 14.5619ZM12.5 11.5L12.1464 11.1464L11.7929 11.5L12.1464 11.8536L12.5 11.5ZM14 10L14.3536 9.64645L14 9.29289L13.6464 9.64645L14 10ZM5 1.5C4.41999 1.5 3.5611 1.66989 2.83285 2.19423C2.0791 2.73693 1.5 3.63704 1.5 5H2.5C2.5 3.96296 2.9209 3.36307 3.41715 3.00577C3.9389 2.63011 4.58001 2.5 5 2.5V1.5ZM13 1.5H5V2.5H13V1.5ZM16.5 5C16.5 4.41999 16.3301 3.5611 15.8058 2.83285C15.2631 2.0791 14.363 1.5 13 1.5V2.5C14.037 2.5 14.6369 2.9209 14.9942 3.41715C15.3699 3.9389 15.5 4.58001 15.5 5H16.5ZM16.5 9.5V5H15.5V9.5H16.5ZM13.6464 7.85355L15.6464 9.85355L16.3536 9.14645L14.3536 7.14645L13.6464 7.85355ZM11.8536 10.3536L14.3536 7.85355L13.6464 7.14645L11.1464 9.64645L11.8536 10.3536ZM5.66366 5.36997L11.1637 10.37L11.8363 9.63003L6.33634 4.63003L5.66366 5.36997ZM2.35355 9.35355L6.35355 5.35355L5.64645 4.64645L1.64645 8.64645L2.35355 9.35355ZM1.5 5V9H2.5V5H1.5ZM11.5 3.5C12.3284 3.5 13 4.17157 13 5H14C14 3.61929 12.8807 2.5 11.5 2.5V3.5ZM10 5C10 4.17157 10.6716 3.5 11.5 3.5V2.5C10.1193 2.5 9 3.61929 9 5H10ZM11.5 6.5C10.6716 6.5 10 5.82843 10 5H9C9 6.38071 10.1193 7.5 11.5 7.5V6.5ZM13 5C13 5.82843 12.3284 6.5 11.5 6.5V7.5C12.8807 7.5 14 6.38071 14 5H13ZM13 16.5C13.4988 16.5 13.9745 16.3954 14.4052 16.2064L14.0034 15.2906C13.6969 15.4251 13.3579 15.5 13 15.5V16.5ZM5 16.5H13V15.5H5V16.5ZM1.5 13C1.5 14.933 3.067 16.5 5 16.5V15.5C3.61929 15.5 2.5 14.3807 2.5 13H1.5ZM1.5 12V13H2.5V12H1.5ZM5.64645 7.64645L1.64645 11.6464L2.35355 12.3536L6.35355 8.35355L5.64645 7.64645ZM14.5476 15.385L6.34331 7.63649L5.65669 8.36351L13.861 16.112L14.5476 15.385ZM16.5 13V12H15.5V13H16.5ZM15.9885 14.8225C16.3131 14.2913 16.5 13.6667 16.5 13H15.5C15.5 13.4776 15.3666 13.9225 15.1352 14.3012L15.9885 14.8225ZM12.1464 11.8536L15.2083 14.9154L15.9154 14.2083L12.8536 11.1464L12.1464 11.8536ZM13.6464 9.64645L12.1464 11.1464L12.8536 11.8536L14.3536 10.3536L13.6464 9.64645ZM16.3536 11.6464L14.3536 9.64645L13.6464 10.3536L15.6464 12.3536L16.3536 11.6464Z" fill="black" fill-opacity="0.2" mask="url(#path-1-outside-1_5474_45188)"/>
</svg>
