<svg width="22" height="22" viewBox="0 0 22 22" fill="none" xmlns="http://www.w3.org/2000/svg">
<path d="M9.47032 3.7536C10.1371 2.55343 11.8631 2.55343 12.5299 3.7536L19.5557 16.4001C20.2037 17.5666 19.3603 19 18.0259 19H3.97424C2.63989 19 1.79645 17.5666 2.44447 16.4001L9.47032 3.7536Z" fill="#F73942" stroke="#C0010A" stroke-opacity="0.66" stroke-width="2"/>
<path fill-rule="evenodd" clip-rule="evenodd" d="M11 7C10.4477 7 10 7.44772 10 8V13C10 13.5523 10.4477 14 11 14C11.5523 14 12 13.5523 12 13V8C12 7.44772 11.5523 7 11 7ZM11 15C10.4477 15 10 15.4477 10 16C10 16.5523 10.4477 17 11 17C11.5523 17 12 16.5523 12 16C12 15.4477 11.5523 15 11 15Z" fill="white"/>
</svg>
