<svg width="20" height="20" viewBox="0 0 20 20" fill="none" xmlns="http://www.w3.org/2000/svg">
<path fill-rule="evenodd" clip-rule="evenodd" d="M6.69592 9.50392C6.71444 9.50392 6.73279 9.50316 6.75093 9.50166C6.88643 9.88802 7.25436 10.1651 7.687 10.1651C8.2347 10.1651 8.67871 9.72106 8.67871 9.17335C8.67871 8.62564 8.2347 8.18164 7.687 8.18164C7.48291 8.18164 7.29323 8.24329 7.13555 8.34898C7.01871 8.24489 6.8647 8.18164 6.69592 8.18164C6.33078 8.18164 6.03478 8.47764 6.03478 8.84278C6.03478 9.20792 6.33078 9.50392 6.69592 9.50392ZM7.35643 15.1241C7.35643 15.0627 7.34807 15.0033 7.33242 14.9469C7.29917 14.5483 7.21894 13.9422 7.0254 13.2089C6.92417 12.8254 6.96359 12.3964 7.03686 11.9851L7.44322 12.3915C7.50673 12.455 7.58415 12.5029 7.66935 12.5313L9.15691 13.0271C9.17655 13.0337 9.19629 13.0391 9.21606 13.0435C9.39936 13.1085 9.61113 13.0795 9.77351 12.9484L10.853 12.0763L10.0584 13.8641C9.96334 14.0781 9.98851 14.3264 10.1246 14.5169L11.6183 16.608L11.3327 18.3213C11.2727 18.6815 11.516 19.0221 11.8762 19.0822C12.2363 19.1422 12.577 18.8989 12.637 18.5387L12.9676 16.5553C12.9964 16.3823 12.9553 16.205 12.8534 16.0623L11.4202 14.0558L12.2941 12.0896L13.9622 13.2811C14.0336 13.3321 14.1127 13.3645 14.1936 13.3794C14.1501 13.5347 14.1334 13.6819 14.1334 13.8023V18.4302C14.1334 18.7041 14.3554 18.9261 14.6292 18.9261C14.9031 18.9261 15.1251 18.7041 15.1251 18.4302V13.8023C15.1251 13.7163 15.1549 13.5764 15.23 13.4722C15.2868 13.3932 15.3858 13.3064 15.6209 13.3064C15.856 13.3064 15.9551 13.3932 16.0119 13.4722C16.0869 13.5764 16.1168 13.7163 16.1168 13.8023C16.1168 14.0761 16.3388 14.2981 16.6126 14.2981C16.8865 14.2981 17.1085 14.0761 17.1085 13.8023C17.1085 13.5576 17.0392 13.2017 16.8167 12.8927C16.576 12.5584 16.1792 12.3147 15.6209 12.3147C15.2948 12.3147 15.0237 12.3979 14.8067 12.5337C14.7662 12.4591 14.7085 12.3923 14.6347 12.3396L12.6945 10.9537C12.6952 10.8851 12.6836 10.8151 12.6583 10.7469C12.5473 10.4473 12.2144 10.2945 11.9148 10.4056L10.4608 10.9446C10.402 10.9664 10.3472 10.9976 10.2984 11.037L9.28973 11.8518L8.16478 11.4768L7.25532 10.5674C7.23506 10.407 7.16812 10.2901 7.0254 10.2338C6.2862 9.94231 5.70312 10.8949 5.04198 12.1473C4.38084 13.3997 4.38084 15.0123 4.38084 15.453H6.03415V18.4298C6.03415 18.7949 6.33015 19.091 6.69529 19.091C7.06043 19.091 7.35643 18.7949 7.35643 18.4298V15.1241ZM4.07205 16.081L5.38931 16.0894L4.05861 18.465C3.90167 18.7452 3.54645 18.8437 3.26758 18.6845C2.99169 18.5269 2.89465 18.1763 3.05029 17.8993L4.07205 16.081ZM13.9679 9.17335C13.9679 9.72106 13.5239 10.1651 12.9762 10.1651C12.4285 10.1651 11.9845 9.72106 11.9845 9.17335C11.9845 8.62564 12.4285 8.18164 12.9762 8.18164C13.5239 8.18164 13.9679 8.62564 13.9679 9.17335ZM10.414 16.4443L9.7393 15.4526L8.30672 17.9611C8.14725 18.2403 8.24434 18.596 8.52357 18.7554C8.80026 18.9134 9.15256 18.8197 9.31413 18.5451L10.4131 16.6771C10.4554 16.6053 10.4557 16.5164 10.414 16.4443Z" fill="white"/>
<path fill-rule="evenodd" clip-rule="evenodd" d="M2.72705 7.43036V9.1858L9.99958 2.6656L17.2721 9.1858V7.43036L15.4696 5.81432V2.45219H15.9504V1.57067H13.3059V2.45219H13.7867V4.30551L9.99958 0.910156L2.72705 7.43036Z" fill="white"/>
</svg>
