<svg width="20" height="20" viewBox="0 0 20 20" fill="none" xmlns="http://www.w3.org/2000/svg">
<path d="M4.5 3.5H15.5C16.6046 3.5 17.5 4.39543 17.5 5.5V13.3C17.5 14.4046 16.6046 15.3 15.5 15.3H14C13.2238 15.3 12.4822 15.6213 11.9513 16.1876L10.6352 17.5914C10.2912 17.9583 9.70877 17.9583 9.36477 17.5914L8.04871 16.1876C7.51782 15.6213 6.77622 15.3 6 15.3H4.5C3.39543 15.3 2.5 14.4046 2.5 13.3V5.5C2.5 4.39543 3.39543 3.5 4.5 3.5Z" stroke="#97A0D1"/>
<path d="M8 6.5H5" stroke="#7A45FF" stroke-width="1.25"/>
<path d="M8 9.5H5" stroke="#7A45FF" stroke-width="1.25"/>
<path d="M8 12.5H5" stroke="#7A45FF" stroke-width="1.25"/>
<path d="M15 6.5H10" stroke="#7A45FF" stroke-width="1.25"/>
<path d="M15 9.5H10" stroke="#7A45FF" stroke-width="1.25"/>
<path d="M15 12.5H10" stroke="#7A45FF" stroke-width="1.25"/>
</svg>
