<svg width="17" height="17" viewBox="0 0 17 17" fill="none" xmlns="http://www.w3.org/2000/svg">
<mask id="path-1-outside-1_2336_12351" maskUnits="userSpaceOnUse" x="3.55811" y="3.55859" width="10" height="10" fill="black">
<rect fill="white" x="3.55811" y="3.55859" width="10" height="10"/>
<path fill-rule="evenodd" clip-rule="evenodd" d="M8.50005 9.38442L11.5581 12.4425L12.442 11.5586L9.38393 8.50054L12.442 5.44248L11.5581 4.55859L8.50005 7.61665L5.44199 4.55859L4.55811 5.44248L7.61616 8.50054L4.55811 11.5586L5.44199 12.4425L8.50005 9.38442Z"/>
</mask>
<path fill-rule="evenodd" clip-rule="evenodd" d="M8.50005 9.38442L11.5581 12.4425L12.442 11.5586L9.38393 8.50054L12.442 5.44248L11.5581 4.55859L8.50005 7.61665L5.44199 4.55859L4.55811 5.44248L7.61616 8.50054L4.55811 11.5586L5.44199 12.4425L8.50005 9.38442Z" fill="#CFD6E6"/>
<path d="M11.5581 12.4425L11.2046 12.796L11.5581 13.1496L11.9117 12.796L11.5581 12.4425ZM8.50005 9.38442L8.8536 9.03087L8.50005 8.67731L8.14649 9.03087L8.50005 9.38442ZM12.442 11.5586L12.7955 11.9121L13.1491 11.5586L12.7955 11.205L12.442 11.5586ZM9.38393 8.50054L9.03038 8.14698L8.67682 8.50054L9.03038 8.85409L9.38393 8.50054ZM12.442 5.44248L12.7955 5.79603L13.1491 5.44248L12.7955 5.08892L12.442 5.44248ZM11.5581 4.55859L11.9117 4.20504L11.5581 3.85149L11.2046 4.20504L11.5581 4.55859ZM8.50005 7.61665L8.14649 7.97021L8.50005 8.32376L8.8536 7.97021L8.50005 7.61665ZM5.44199 4.55859L5.79554 4.20504L5.44199 3.85149L5.08844 4.20504L5.44199 4.55859ZM4.55811 5.44248L4.20455 5.08892L3.851 5.44248L4.20455 5.79603L4.55811 5.44248ZM7.61616 8.50054L7.96972 8.85409L8.32327 8.50054L7.96972 8.14698L7.61616 8.50054ZM4.55811 11.5586L4.20455 11.205L3.851 11.5586L4.20455 11.9121L4.55811 11.5586ZM5.44199 12.4425L5.08844 12.796L5.44199 13.1496L5.79554 12.796L5.44199 12.4425ZM11.9117 12.0889L8.8536 9.03087L8.14649 9.73797L11.2046 12.796L11.9117 12.0889ZM12.0884 11.205L11.2046 12.0889L11.9117 12.796L12.7955 11.9121L12.0884 11.205ZM9.03038 8.85409L12.0884 11.9121L12.7955 11.205L9.73748 8.14698L9.03038 8.85409ZM12.0884 5.08892L9.03038 8.14698L9.73748 8.85409L12.7955 5.79603L12.0884 5.08892ZM11.2046 4.91215L12.0884 5.79603L12.7955 5.08892L11.9117 4.20504L11.2046 4.91215ZM8.8536 7.97021L11.9117 4.91215L11.2046 4.20504L8.14649 7.2631L8.8536 7.97021ZM5.08844 4.91215L8.14649 7.97021L8.8536 7.2631L5.79554 4.20504L5.08844 4.91215ZM4.91166 5.79603L5.79554 4.91215L5.08844 4.20504L4.20455 5.08892L4.91166 5.79603ZM7.96972 8.14698L4.91166 5.08892L4.20455 5.79603L7.26261 8.85409L7.96972 8.14698ZM4.91166 11.9121L7.96972 8.85409L7.26261 8.14698L4.20455 11.205L4.91166 11.9121ZM5.79554 12.0889L4.91166 11.205L4.20455 11.9121L5.08844 12.796L5.79554 12.0889ZM8.14649 9.03087L5.08844 12.0889L5.79554 12.796L8.8536 9.73797L8.14649 9.03087Z" fill="black" fill-opacity="0.2" mask="url(#path-1-outside-1_2336_12351)"/>
</svg>
