<svg width="14" height="14" viewBox="0 0 14 14" fill="none" xmlns="http://www.w3.org/2000/svg">
<g id="Group 1949">
<path id="Rectangle 1177" d="M4 3.5V2C4 1.44772 4.44772 1 5 1H12C12.5523 1 13 1.44772 13 2V12C13 12.5523 12.5523 13 12 13H5C4.44772 13 4 12.5523 4 12V10.5" stroke="white" stroke-width="0.9"/>
<rect id="Rectangle 1178" x="0.5" y="3.5" width="7" height="7" rx="1" stroke="white" stroke-width="0.9"/>
<path id="Vector 472" d="M3 6L5 8" stroke="white" stroke-width="0.9" stroke-linecap="round"/>
<path id="Vector 473" d="M3 8L5 6" stroke="white" stroke-width="0.9" stroke-linecap="round"/>
<path id="Vector 474" d="M10.5 13L10.5 1" stroke="white" stroke-width="0.9"/>
<path id="Vector 475" d="M7.1001 4L13.1001 4" stroke="white" stroke-width="0.9"/>
<path id="Vector 476" d="M7.1001 7L13.1001 7" stroke="white" stroke-width="0.9"/>
<path id="Vector 477" d="M7.1001 10L13.1001 10" stroke="white" stroke-width="0.9"/>
</g>
</svg>
