<svg width="22" height="22" viewBox="0 0 22 22" fill="none" xmlns="http://www.w3.org/2000/svg">
<circle cx="11" cy="11" r="9" fill="#F73942" fill-opacity="0.3"/>
<circle cx="11" cy="11" r="8.5" stroke="#F73942" stroke-opacity="0.6"/>
<mask id="path-3-outside-1_325_4455" maskUnits="userSpaceOnUse" x="9" y="5" width="4" height="12" fill="black">
<rect fill="white" x="9" y="5" width="4" height="12"/>
<path fill-rule="evenodd" clip-rule="evenodd" d="M11 6C10.4477 6 10 6.44772 10 7V12C10 12.5523 10.4477 13 11 13C11.5523 13 12 12.5523 12 12V7C12 6.44772 11.5523 6 11 6ZM11 14C10.4477 14 10 14.4477 10 15C10 15.5523 10.4477 16 11 16C11.5523 16 12 15.5523 12 15C12 14.4477 11.5523 14 11 14Z"/>
</mask>
<path fill-rule="evenodd" clip-rule="evenodd" d="M11 6C10.4477 6 10 6.44772 10 7V12C10 12.5523 10.4477 13 11 13C11.5523 13 12 12.5523 12 12V7C12 6.44772 11.5523 6 11 6ZM11 14C10.4477 14 10 14.4477 10 15C10 15.5523 10.4477 16 11 16C11.5523 16 12 15.5523 12 15C12 14.4477 11.5523 14 11 14Z" fill="#F73942"/>
<path d="M10.5 7C10.5 6.72386 10.7239 6.5 11 6.5V5.5C10.1716 5.5 9.5 6.17157 9.5 7H10.5ZM10.5 12V7H9.5V12H10.5ZM11 12.5C10.7239 12.5 10.5 12.2761 10.5 12H9.5C9.5 12.8284 10.1716 13.5 11 13.5V12.5ZM11.5 12C11.5 12.2761 11.2761 12.5 11 12.5V13.5C11.8284 13.5 12.5 12.8284 12.5 12H11.5ZM11.5 7V12H12.5V7H11.5ZM11 6.5C11.2761 6.5 11.5 6.72386 11.5 7H12.5C12.5 6.17157 11.8284 5.5 11 5.5V6.5ZM10.5 15C10.5 14.7239 10.7239 14.5 11 14.5V13.5C10.1716 13.5 9.5 14.1716 9.5 15H10.5ZM11 15.5C10.7239 15.5 10.5 15.2761 10.5 15H9.5C9.5 15.8284 10.1716 16.5 11 16.5V15.5ZM11.5 15C11.5 15.2761 11.2761 15.5 11 15.5V16.5C11.8284 16.5 12.5 15.8284 12.5 15H11.5ZM11 14.5C11.2761 14.5 11.5 14.7239 11.5 15H12.5C12.5 14.1716 11.8284 13.5 11 13.5V14.5Z" fill="black" fill-opacity="0.2" mask="url(#path-3-outside-1_325_4455)"/>
</svg>
