<svg width="22" height="22" viewBox="0 0 22 22" fill="none" xmlns="http://www.w3.org/2000/svg">
<rect width="22" height="22" rx="4.4" fill="#F73942"/>
<rect x="7.9632" y="3.66699" width="10.6907" height="7.12715" rx="1.46667" transform="rotate(30 7.9632 3.66699)" fill="white"/>
<path d="M8.79955 11V14.3C8.79955 14.6667 8.60399 15.4 7.82179 15.4C7.03958 15.4 6.19219 15.4 5.86627 15.4" stroke="white" stroke-opacity="0.6" stroke-width="1.46667"/>
<path d="M14.8938 12.1317C14.7844 11.9002 14.94 11.6307 15.1952 11.6097L18.0206 11.3766C18.3154 11.3523 18.5162 11.6692 18.3683 11.9254L16.7538 14.7218C16.6059 14.978 16.231 14.9626 16.1047 14.6951L14.8938 12.1317Z" fill="white"/>
<path d="M4.39966 13.2002H5.13299C5.538 13.2002 5.86632 13.5285 5.86632 13.9335V16.8669C5.86632 17.2719 5.538 17.6002 5.13299 17.6002H4.39966V13.2002Z" fill="white"/>
</svg>
