<svg width="15" height="15" viewBox="0 0 15 15" fill="none" xmlns="http://www.w3.org/2000/svg">
<rect width="15" height="15" rx="3" fill="url(#paint0_linear_325_4730)"/>
<rect x="5.42969" y="2.5" width="7.28913" height="4.85942" rx="1" transform="rotate(30 5.42969 2.5)" fill="white"/>
<path d="M5.99996 7.5V9.75C5.99996 10 5.86663 10.5 5.33331 10.5C4.79998 10.5 4.22222 10.5 4 10.5" stroke="white" stroke-opacity="0.6"/>
<path d="M10.1556 8.27157C10.081 8.11372 10.1871 7.92998 10.3611 7.91563L12.2875 7.75675C12.4885 7.74017 12.6254 7.95622 12.5246 8.1309L11.4238 10.0375C11.3229 10.2122 11.0674 10.2017 10.9812 10.0193L10.1556 8.27157Z" fill="white"/>
<path d="M3 9H3.5C3.77614 9 4 9.22386 4 9.5V11.5C4 11.7761 3.77614 12 3.5 12H3V9Z" fill="white"/>
<defs>
<linearGradient id="paint0_linear_325_4730" x1="7" y1="-9.76179e-08" x2="6.99999" y2="15" gradientUnits="userSpaceOnUse">
<stop stop-color="#9DFFE8"/>
<stop offset="1" stop-color="#1951A4"/>
</linearGradient>
</defs>
</svg>
