<svg width="18" height="18" viewBox="0 0 18 18" fill="none" xmlns="http://www.w3.org/2000/svg">
<path fill-rule="evenodd" clip-rule="evenodd" d="M9.25383 3.00633C9.16975 3.00213 9.08512 3 9 3C6.23858 3 4 5.23858 4 8C4 9.12561 4.37194 10.1643 4.99963 11C5.39743 11.5296 5.92378 12.1678 6.5153 12.885L6.51533 12.8851C7.28024 13.8126 8.15414 14.8722 9 16C9.84586 14.8722 10.7198 13.8126 11.4847 12.8851C12.0762 12.1678 12.6026 11.5296 13.0004 11C13.4406 10.4139 13.755 9.72793 13.9036 8.98215C13.7706 8.99397 13.636 9 13.5 9C12.5691 9 11.7043 8.71735 10.9866 8.23319C10.871 9.22789 10.0257 10 9 10C7.89543 10 7 9.10457 7 8C7 6.89543 7.89543 6 9 6C9.08884 6 9.17633 6.00579 9.26211 6.01702C9.09243 5.54305 9 5.03232 9 4.5C9 3.97641 9.08942 3.47371 9.25383 3.00633Z" fill="#A62929" fill-opacity="0.5"/>
<circle cx="13.5" cy="4.5" r="3.5" fill="#F03A46"/>
<rect x="13" y="2" width="1" height="3" rx="0.5" fill="#0C171A"/>
<rect x="13" y="6" width="1" height="1" rx="0.5" fill="#0C171A"/>
</svg>
