<svg width="16" height="16" viewBox="0 0 16 16" fill="none" xmlns="http://www.w3.org/2000/svg">
<path fill-rule="evenodd" clip-rule="evenodd" d="M12.0004 10C12.6281 9.16434 13 8.12561 13 7C13 4.23858 10.7614 2 8 2C5.23858 2 3 4.23858 3 7C3 8.12561 3.37194 9.16434 3.99963 10C4.39744 10.5296 4.92379 11.1678 5.51533 11.8851C6.28024 12.8126 7.15414 13.8722 8 15C8.84586 13.8722 9.71976 12.8126 10.4847 11.8851C11.0762 11.1678 11.6026 10.5296 12.0004 10ZM8 9C9.10457 9 10 8.10457 10 7C10 5.89543 9.10457 5 8 5C6.89543 5 6 5.89543 6 7C6 8.10457 6.89543 9 8 9Z" fill="#D8DCEB"/>
</svg>
