<svg width="40" height="44" viewBox="0 0 40 44" fill="none" xmlns="http://www.w3.org/2000/svg">
<path opacity="0.25" d="M20 44C24.9706 44 29 42.8807 29 41.5C29 40.1193 24.9706 39 20 39C15.0294 39 11 40.1193 11 41.5C11 42.8807 15.0294 44 20 44Z" fill="black"/>
<path opacity="0.5" d="M20 43C22.7614 43 25 42.3284 25 41.5C25 40.6716 22.7614 40 20 40C17.2386 40 15 40.6716 15 41.5C15 42.3284 17.2386 43 20 43Z" fill="black"/>
<path opacity="0.75" d="M20 42C21.1046 42 22 41.7761 22 41.5C22 41.2239 21.1046 41 20 41C18.8954 41 18 41.2239 18 41.5C18 41.7761 18.8954 42 20 42Z" fill="black"/>
<g filter="url(#filter0_i_7640_57909)">
<path d="M34 23.0073C34.0013 20.493 33.3255 18.0247 32.0435 15.8618C30.7615 13.6989 28.9207 11.9211 26.7144 10.7152C24.5082 9.50933 22.0179 8.91987 19.5051 9.00875C16.9924 9.09763 14.5499 9.86157 12.4344 11.2203C10.3188 12.5791 8.6082 14.4825 7.48225 16.7306C6.3563 18.9787 5.85655 21.4885 6.03551 23.9965C6.21447 26.5044 7.06553 28.9179 8.49929 30.9833C11.5214 35.3369 18.4402 41.2576 20 42C21.5597 41.2576 28.8395 35.1383 31.7757 30.5718C33.2266 28.3155 33.9986 25.6898 34 23.0073Z" fill="url(#paint0_linear_7640_57909)"/>
</g>
<mask id="path-5-outside-1_7640_57909" maskUnits="userSpaceOnUse" x="16" y="17" width="7" height="13" fill="black">
<rect fill="white" x="16" y="17" width="7" height="13"/>
<path d="M21.7432 18.3945V29H19.8242V20.2549H19.7656L17.29 21.8369V20.0938L19.9121 18.3945H21.7432Z"/>
</mask>
<path d="M21.7432 18.3945V29H19.8242V20.2549H19.7656L17.29 21.8369V20.0938L19.9121 18.3945H21.7432Z" fill="white"/>
<path d="M21.7432 18.3945H22.7432V17.3945H21.7432V18.3945ZM21.7432 29V30H22.7432V29H21.7432ZM19.8242 29H18.8242V30H19.8242V29ZM19.8242 20.2549H20.8242V19.2549H19.8242V20.2549ZM19.7656 20.2549V19.2549H19.4734L19.2271 19.4122L19.7656 20.2549ZM17.29 21.8369H16.29V23.6627L17.8285 22.6795L17.29 21.8369ZM17.29 20.0938L16.7462 19.2546L16.29 19.5502V20.0938H17.29ZM19.9121 18.3945V17.3945H19.6164L19.3683 17.5553L19.9121 18.3945ZM20.7432 18.3945V29H22.7432V18.3945H20.7432ZM21.7432 28H19.8242V30H21.7432V28ZM20.8242 29V20.2549H18.8242V29H20.8242ZM19.8242 19.2549H19.7656V21.2549H19.8242V19.2549ZM19.2271 19.4122L16.7516 20.9943L17.8285 22.6795L20.3041 21.0975L19.2271 19.4122ZM18.29 21.8369V20.0938H16.29V21.8369H18.29ZM17.8339 20.9329L20.4559 19.2337L19.3683 17.5553L16.7462 19.2546L17.8339 20.9329ZM19.9121 19.3945H21.7432V17.3945H19.9121V19.3945Z" fill="#50535E" mask="url(#path-5-outside-1_7640_57909)"/>
<defs>
<filter id="filter0_i_7640_57909" x="6" y="9" width="29" height="34" filterUnits="userSpaceOnUse" color-interpolation-filters="sRGB">
<feFlood flood-opacity="0" result="BackgroundImageFix"/>
<feBlend mode="normal" in="SourceGraphic" in2="BackgroundImageFix" result="shape"/>
<feColorMatrix in="SourceAlpha" type="matrix" values="0 0 0 0 0 0 0 0 0 0 0 0 0 0 0 0 0 0 127 0" result="hardAlpha"/>
<feOffset dx="1" dy="1"/>
<feGaussianBlur stdDeviation="1"/>
<feComposite in2="hardAlpha" operator="arithmetic" k2="-1" k3="1"/>
<feColorMatrix type="matrix" values="0 0 0 0 1 0 0 0 0 1 0 0 0 0 1 0 0 0 0.15 0"/>
<feBlend mode="normal" in2="shape" result="effect1_innerShadow_7640_57909"/>
</filter>
<linearGradient id="paint0_linear_7640_57909" x1="9" y1="-0.5" x2="25.2853" y2="41.3492" gradientUnits="userSpaceOnUse">
<stop stop-color="#868993"/>
<stop offset="1" stop-color="#505461"/>
</linearGradient>
</defs>
</svg>
