<svg width="40" height="44" viewBox="0 0 40 44" fill="none" xmlns="http://www.w3.org/2000/svg">
<path opacity="0.25" d="M20 44C24.9706 44 29 42.8807 29 41.5C29 40.1193 24.9706 39 20 39C15.0294 39 11 40.1193 11 41.5C11 42.8807 15.0294 44 20 44Z" fill="black"/>
<path opacity="0.5" d="M20 43C22.7614 43 25 42.3284 25 41.5C25 40.6716 22.7614 40 20 40C17.2386 40 15 40.6716 15 41.5C15 42.3284 17.2386 43 20 43Z" fill="black"/>
<path opacity="0.75" d="M20 42C21.1046 42 22 41.7761 22 41.5C22 41.2239 21.1046 41 20 41C18.8954 41 18 41.2239 18 41.5C18 41.7761 18.8954 42 20 42Z" fill="black"/>
<g filter="url(#filter0_i_7640_57907)">
<path d="M34 23.0073C34.0013 20.493 33.3255 18.0247 32.0435 15.8618C30.7615 13.6989 28.9207 11.9211 26.7144 10.7152C24.5082 9.50933 22.0179 8.91987 19.5051 9.00875C16.9924 9.09763 14.5499 9.86157 12.4344 11.2203C10.3188 12.5791 8.6082 14.4825 7.48225 16.7306C6.3563 18.9787 5.85655 21.4885 6.03551 23.9965C6.21447 26.5044 7.06553 28.9179 8.49929 30.9833C11.5214 35.3369 18.4402 41.2576 20 42C21.5597 41.2576 28.8395 35.1383 31.7757 30.5718C33.2266 28.3155 33.9986 25.6898 34 23.0073Z" fill="url(#paint0_linear_7640_57907)"/>
</g>
<mask id="path-5-outside-1_7640_57907" maskUnits="userSpaceOnUse" x="15" y="17" width="10" height="14" fill="black">
<rect fill="white" x="15" y="17" width="10" height="14"/>
<path d="M19.9927 29.1465C17.7222 29.1465 16.1108 27.916 16.0669 26.1289H17.9858C18.0444 26.9785 18.894 27.5352 19.9927 27.5352C21.1646 27.5352 21.9995 26.8906 21.9995 25.9531C21.9995 25.001 21.1792 24.3125 19.8022 24.3125H18.8501V22.8477H19.8022C20.9302 22.8477 21.7212 22.2178 21.7065 21.2949C21.7212 20.4014 21.0474 19.8008 20.0073 19.8008C19.0112 19.8008 18.147 20.3574 18.1177 21.251H16.2866C16.3306 19.4639 17.9419 18.248 20.022 18.248C22.1753 18.248 23.5669 19.5664 23.5522 21.1924C23.5669 22.3789 22.7759 23.2432 21.6187 23.4775V23.5654C23.1128 23.7705 23.9624 24.7227 23.9478 26.0557C23.9624 27.8428 22.2925 29.1465 19.9927 29.1465Z"/>
</mask>
<path d="M19.9927 29.1465C17.7222 29.1465 16.1108 27.916 16.0669 26.1289H17.9858C18.0444 26.9785 18.894 27.5352 19.9927 27.5352C21.1646 27.5352 21.9995 26.8906 21.9995 25.9531C21.9995 25.001 21.1792 24.3125 19.8022 24.3125H18.8501V22.8477H19.8022C20.9302 22.8477 21.7212 22.2178 21.7065 21.2949C21.7212 20.4014 21.0474 19.8008 20.0073 19.8008C19.0112 19.8008 18.147 20.3574 18.1177 21.251H16.2866C16.3306 19.4639 17.9419 18.248 20.022 18.248C22.1753 18.248 23.5669 19.5664 23.5522 21.1924C23.5669 22.3789 22.7759 23.2432 21.6187 23.4775V23.5654C23.1128 23.7705 23.9624 24.7227 23.9478 26.0557C23.9624 27.8428 22.2925 29.1465 19.9927 29.1465Z" fill="white"/>
<path d="M16.0669 26.1289V25.1289H15.042L15.0672 26.1535L16.0669 26.1289ZM17.9858 26.1289L18.9835 26.0601L18.9192 25.1289H17.9858V26.1289ZM18.8501 24.3125H17.8501V25.3125H18.8501V24.3125ZM18.8501 22.8477V21.8477H17.8501V22.8477H18.8501ZM21.7065 21.2949L20.7067 21.2785L20.7064 21.2947L20.7067 21.3108L21.7065 21.2949ZM18.1177 21.251V22.251H19.0854L19.1171 21.2837L18.1177 21.251ZM16.2866 21.251L15.2869 21.2264L15.2617 22.251H16.2866V21.251ZM23.5522 21.1924L22.5523 21.1834L22.5522 21.1941L22.5523 21.2047L23.5522 21.1924ZM21.6187 23.4775L21.4202 22.4974L20.6187 22.6598V23.4775H21.6187ZM21.6187 23.5654H20.6187V24.4376L21.4827 24.5561L21.6187 23.5654ZM23.9478 26.0557L22.9478 26.0447L22.9477 26.0543L22.9478 26.0639L23.9478 26.0557ZM19.9927 28.1465C18.0309 28.1465 17.0921 27.1418 17.0666 26.1043L15.0672 26.1535C15.1296 28.6902 17.4135 30.1465 19.9927 30.1465V28.1465ZM16.0669 27.1289H17.9858V25.1289H16.0669V27.1289ZM16.9882 26.1977C17.1001 27.82 18.6607 28.5352 19.9927 28.5352V26.5352C19.6025 26.5352 19.3237 26.4351 19.1656 26.3265C19.0217 26.2276 18.9888 26.137 18.9835 26.0601L16.9882 26.1977ZM19.9927 28.5352C20.7538 28.5352 21.4864 28.3262 22.0523 27.8829C22.6347 27.4265 22.9995 26.7474 22.9995 25.9531H20.9995C20.9995 26.0963 20.9468 26.2082 20.8188 26.3085C20.6742 26.4218 20.4034 26.5352 19.9927 26.5352V28.5352ZM22.9995 25.9531C22.9995 25.1617 22.6464 24.4613 22.0282 23.9841C21.431 23.5231 20.6473 23.3125 19.8022 23.3125V25.3125C20.3342 25.3125 20.6491 25.4461 20.8062 25.5674C20.9425 25.6725 20.9995 25.7924 20.9995 25.9531H22.9995ZM19.8022 23.3125H18.8501V25.3125H19.8022V23.3125ZM19.8501 24.3125V22.8477H17.8501V24.3125H19.8501ZM18.8501 23.8477H19.8022V21.8477H18.8501V23.8477ZM19.8022 23.8477C20.5444 23.8477 21.2613 23.6406 21.8122 23.1945C22.3804 22.7344 22.7188 22.0572 22.7064 21.2791L20.7067 21.3108C20.709 21.4555 20.6591 21.5547 20.5535 21.6402C20.4306 21.7398 20.188 21.8477 19.8022 21.8477V23.8477ZM22.7064 21.3113C22.7182 20.5923 22.4449 19.9315 21.9142 19.4631C21.3967 19.0063 20.7149 18.8008 20.0073 18.8008V20.8008C20.3398 20.8008 20.5149 20.8956 20.5907 20.9625C20.6532 21.0177 20.7095 21.104 20.7067 21.2785L22.7064 21.3113ZM20.0073 18.8008C18.7478 18.8008 17.173 19.5465 17.1182 21.2182L19.1171 21.2837C19.1204 21.1857 19.1587 21.0939 19.2889 20.999C19.4351 20.8924 19.6849 20.8008 20.0073 20.8008V18.8008ZM18.1177 20.251H16.2866V22.251H18.1177V20.251ZM17.2863 21.2756C17.3124 20.2158 18.2787 19.248 20.022 19.248V17.248C17.6051 17.248 15.3488 18.7119 15.2869 21.2264L17.2863 21.2756ZM20.022 19.248C21.769 19.248 22.5607 20.2518 22.5523 21.1834L24.5522 21.2014C24.5731 18.881 22.5816 17.248 20.022 17.248V19.248ZM22.5523 21.2047C22.5603 21.8534 22.1652 22.3465 21.4202 22.4974L21.8172 24.4576C23.3866 24.1398 24.5735 22.9044 24.5522 21.18L22.5523 21.2047ZM20.6187 23.4775V23.5654H22.6187V23.4775H20.6187ZM21.4827 24.5561C22.0491 24.6339 22.4049 24.8392 22.6143 25.066C22.8184 25.287 22.9527 25.6021 22.9478 26.0447L24.9477 26.0667C24.9575 25.1762 24.6743 24.3488 24.0837 23.7092C23.4984 23.0754 22.6824 22.7021 21.7546 22.5747L21.4827 24.5561ZM22.9478 26.0639C22.9561 27.072 21.9904 28.1465 19.9927 28.1465V30.1465C22.5945 30.1465 24.9688 28.6136 24.9477 26.0475L22.9478 26.0639Z" fill="#50535E" mask="url(#path-5-outside-1_7640_57907)"/>
<defs>
<filter id="filter0_i_7640_57907" x="6" y="9" width="29" height="34" filterUnits="userSpaceOnUse" color-interpolation-filters="sRGB">
<feFlood flood-opacity="0" result="BackgroundImageFix"/>
<feBlend mode="normal" in="SourceGraphic" in2="BackgroundImageFix" result="shape"/>
<feColorMatrix in="SourceAlpha" type="matrix" values="0 0 0 0 0 0 0 0 0 0 0 0 0 0 0 0 0 0 127 0" result="hardAlpha"/>
<feOffset dx="1" dy="1"/>
<feGaussianBlur stdDeviation="1"/>
<feComposite in2="hardAlpha" operator="arithmetic" k2="-1" k3="1"/>
<feColorMatrix type="matrix" values="0 0 0 0 1 0 0 0 0 1 0 0 0 0 1 0 0 0 0.15 0"/>
<feBlend mode="normal" in2="shape" result="effect1_innerShadow_7640_57907"/>
</filter>
<linearGradient id="paint0_linear_7640_57907" x1="9" y1="-0.5" x2="25.2853" y2="41.3492" gradientUnits="userSpaceOnUse">
<stop stop-color="#868993"/>
<stop offset="1" stop-color="#505461"/>
</linearGradient>
</defs>
</svg>
