<svg width="40" height="44" viewBox="0 0 40 44" fill="none" xmlns="http://www.w3.org/2000/svg">
<path opacity="0.25" d="M20 44C24.9706 44 29 42.8807 29 41.5C29 40.1193 24.9706 39 20 39C15.0294 39 11 40.1193 11 41.5C11 42.8807 15.0294 44 20 44Z" fill="black"/>
<path opacity="0.5" d="M20 43C22.7614 43 25 42.3284 25 41.5C25 40.6716 22.7614 40 20 40C17.2386 40 15 40.6716 15 41.5C15 42.3284 17.2386 43 20 43Z" fill="black"/>
<path opacity="0.75" d="M20 42C21.1046 42 22 41.7761 22 41.5C22 41.2239 21.1046 41 20 41C18.8954 41 18 41.2239 18 41.5C18 41.7761 18.8954 42 20 42Z" fill="black"/>
<g filter="url(#filter0_i_7640_57908)">
<path d="M34 23.0073C34.0013 20.493 33.3255 18.0247 32.0435 15.8618C30.7615 13.6989 28.9207 11.9211 26.7144 10.7152C24.5082 9.50933 22.0179 8.91987 19.5051 9.00875C16.9924 9.09763 14.5499 9.86157 12.4344 11.2203C10.3188 12.5791 8.6082 14.4825 7.48225 16.7306C6.3563 18.9787 5.85655 21.4885 6.03551 23.9965C6.21447 26.5044 7.06553 28.9179 8.49929 30.9833C11.5214 35.3369 18.4402 41.2576 20 42C21.5597 41.2576 28.8395 35.1383 31.7757 30.5718C33.2266 28.3155 33.9986 25.6898 34 23.0073Z" fill="url(#paint0_linear_7640_57908)"/>
</g>
<mask id="path-5-outside-1_7640_57908" maskUnits="userSpaceOnUse" x="15" y="17" width="10" height="13" fill="black">
<rect fill="white" x="15" y="17" width="10" height="13"/>
<path d="M16.3599 29V27.623L20.1099 24.0049C21.1792 22.9355 21.7358 22.3057 21.7358 21.4121C21.7358 20.4307 20.9595 19.8008 19.9194 19.8008C18.8208 19.8008 18.1177 20.4893 18.1323 21.5586H16.3159C16.3013 19.5518 17.8101 18.248 19.9341 18.248C22.1021 18.248 23.5669 19.5371 23.5669 21.3242C23.5669 22.5254 22.981 23.4922 20.9009 25.4551L19.0112 27.3301V27.4033H23.728V29H16.3599Z"/>
</mask>
<path d="M16.3599 29V27.623L20.1099 24.0049C21.1792 22.9355 21.7358 22.3057 21.7358 21.4121C21.7358 20.4307 20.9595 19.8008 19.9194 19.8008C18.8208 19.8008 18.1177 20.4893 18.1323 21.5586H16.3159C16.3013 19.5518 17.8101 18.248 19.9341 18.248C22.1021 18.248 23.5669 19.5371 23.5669 21.3242C23.5669 22.5254 22.981 23.4922 20.9009 25.4551L19.0112 27.3301V27.4033H23.728V29H16.3599Z" fill="white"/>
<path d="M16.3599 29H15.3599V30H16.3599V29ZM16.3599 27.623L15.6655 26.9034L15.3599 27.1983V27.623H16.3599ZM20.1099 24.0049L20.8042 24.7245L20.8106 24.7183L20.817 24.712L20.1099 24.0049ZM18.1323 21.5586V22.5586H19.1461L19.1322 21.5449L18.1323 21.5586ZM16.3159 21.5586L15.3159 21.5659L15.3232 22.5586H16.3159V21.5586ZM20.9009 25.4551L20.2146 24.7278L20.2054 24.7364L20.1965 24.7452L20.9009 25.4551ZM19.0112 27.3301L18.3069 26.6202L18.0112 26.9136V27.3301H19.0112ZM19.0112 27.4033H18.0112V28.4033H19.0112V27.4033ZM23.728 27.4033H24.728V26.4033H23.728V27.4033ZM23.728 29V30H24.728V29H23.728ZM17.3599 29V27.623H15.3599V29H17.3599ZM17.0542 28.3427L20.8042 24.7245L19.4155 23.2852L15.6655 26.9034L17.0542 28.3427ZM20.817 24.712C21.8181 23.7109 22.7358 22.79 22.7358 21.4121H20.7358C20.7358 21.8213 20.5403 22.1602 19.4028 23.2978L20.817 24.712ZM22.7358 21.4121C22.7358 20.6378 22.4206 19.9564 21.8716 19.4819C21.3358 19.0187 20.6367 18.8008 19.9194 18.8008V20.8008C20.2422 20.8008 20.4513 20.8978 20.5637 20.9949C20.6629 21.0807 20.7358 21.205 20.7358 21.4121H22.7358ZM19.9194 18.8008C19.1601 18.8008 18.4401 19.0423 17.9076 19.5653C17.3718 20.0917 17.122 20.8093 17.1324 21.5723L19.1322 21.5449C19.128 21.2386 19.2224 21.0773 19.3092 20.9921C19.3993 20.9035 19.5801 20.8008 19.9194 20.8008V18.8008ZM18.1323 20.5586H16.3159V22.5586H18.1323V20.5586ZM17.3159 21.5513C17.3105 20.8161 17.5766 20.2679 17.992 19.8941C18.4181 19.5105 19.0738 19.248 19.9341 19.248V17.248C18.6703 17.248 17.5096 17.6374 16.654 18.4075C15.7877 19.1872 15.3067 20.2943 15.3159 21.5659L17.3159 21.5513ZM19.9341 19.248C20.8232 19.248 21.4876 19.5112 21.913 19.8755C22.3282 20.231 22.5669 20.7225 22.5669 21.3242H24.5669C24.5669 20.1388 24.0732 19.0922 23.2139 18.3564C22.3649 17.6294 21.213 17.248 19.9341 17.248V19.248ZM22.5669 21.3242C22.5669 22.0612 22.2949 22.7646 20.2146 24.7278L21.5872 26.1824C23.667 24.2197 24.5669 22.9896 24.5669 21.3242H22.5669ZM20.1965 24.7452L18.3069 26.6202L19.7156 28.0399L21.6052 26.1649L20.1965 24.7452ZM18.0112 27.3301V27.4033H20.0112V27.3301H18.0112ZM19.0112 28.4033H23.728V26.4033H19.0112V28.4033ZM22.728 27.4033V29H24.728V27.4033H22.728ZM23.728 28H16.3599V30H23.728V28Z" fill="#50535E" mask="url(#path-5-outside-1_7640_57908)"/>
<defs>
<filter id="filter0_i_7640_57908" x="6" y="9" width="29" height="34" filterUnits="userSpaceOnUse" color-interpolation-filters="sRGB">
<feFlood flood-opacity="0" result="BackgroundImageFix"/>
<feBlend mode="normal" in="SourceGraphic" in2="BackgroundImageFix" result="shape"/>
<feColorMatrix in="SourceAlpha" type="matrix" values="0 0 0 0 0 0 0 0 0 0 0 0 0 0 0 0 0 0 127 0" result="hardAlpha"/>
<feOffset dx="1" dy="1"/>
<feGaussianBlur stdDeviation="1"/>
<feComposite in2="hardAlpha" operator="arithmetic" k2="-1" k3="1"/>
<feColorMatrix type="matrix" values="0 0 0 0 1 0 0 0 0 1 0 0 0 0 1 0 0 0 0.15 0"/>
<feBlend mode="normal" in2="shape" result="effect1_innerShadow_7640_57908"/>
</filter>
<linearGradient id="paint0_linear_7640_57908" x1="9" y1="-0.5" x2="25.2853" y2="41.3492" gradientUnits="userSpaceOnUse">
<stop stop-color="#868993"/>
<stop offset="1" stop-color="#505461"/>
</linearGradient>
</defs>
</svg>
