<svg width="40" height="44" viewBox="0 0 40 44" fill="none" xmlns="http://www.w3.org/2000/svg">
<path opacity="0.25" d="M20 44C24.9706 44 29 42.8807 29 41.5C29 40.1193 24.9706 39 20 39C15.0294 39 11 40.1193 11 41.5C11 42.8807 15.0294 44 20 44Z" fill="black"/>
<path opacity="0.5" d="M20 43C22.7614 43 25 42.3284 25 41.5C25 40.6716 22.7614 40 20 40C17.2386 40 15 40.6716 15 41.5C15 42.3284 17.2386 43 20 43Z" fill="black"/>
<path opacity="0.75" d="M20 42C21.1046 42 22 41.7761 22 41.5C22 41.2239 21.1046 41 20 41C18.8954 41 18 41.2239 18 41.5C18 41.7761 18.8954 42 20 42Z" fill="black"/>
<path d="M34 16.0073C34.0013 13.493 33.3255 11.0247 32.0435 8.8618C30.7615 6.69886 28.9207 4.92107 26.7144 3.7152C24.5082 2.50933 22.0179 1.91987 19.5051 2.00875C16.9924 2.09763 14.5499 2.86157 12.4344 4.22031C10.3188 5.57905 8.6082 7.48245 7.48225 9.73056C6.3563 11.9787 5.85655 14.4885 6.03551 16.9965C6.21447 19.5044 7.06553 21.9179 8.49929 23.9833C13.0967 30.6063 17.5 34 20 41C22.5 34 27 30.5 31.7757 23.5718C33.2266 21.3155 33.9986 18.6898 34 16.0073Z" fill="url(#paint0_linear_321_871)" stroke="white" stroke-width="1.5" stroke-linejoin="round"/>
<rect x="12" y="20" width="6" height="1" fill="white"/>
<rect x="12" y="23" width="6" height="1" fill="white"/>
<rect x="19" y="20" width="5" height="1" fill="white"/>
<rect opacity="0.75" x="15" y="17" width="1" height="4" fill="white"/>
<rect x="16" y="15" width="2" height="1" rx="0.5" fill="white"/>
<rect x="13" y="15" width="2" height="1" rx="0.5" fill="white"/>
<circle cx="15.5" cy="15.5" r="2" stroke="white"/>
<rect x="19" y="23" width="5" height="1" fill="white"/>
<rect x="25" y="20" width="3" height="1" fill="white"/>
<rect x="25" y="23" width="3" height="1" fill="white"/>
<mask id="path-15-inside-1_321_871" fill="white">
<rect x="23" y="19" width="3" height="6" rx="0.5"/>
</mask>
<rect x="23" y="19" width="3" height="6" rx="0.5" stroke="white" stroke-width="2" mask="url(#path-15-inside-1_321_871)"/>
<mask id="path-16-inside-2_321_871" fill="white">
<rect x="17" y="19" width="3" height="6" rx="0.5"/>
</mask>
<rect x="17" y="19" width="3" height="6" rx="0.5" stroke="white" stroke-width="2" mask="url(#path-16-inside-2_321_871)"/>
<path d="M20.8456 16.6335C20.7103 17.0435 20.9019 17.7153 21.0147 18C21.0711 17.7153 21.2853 17.0776 21.6911 16.8043C22.1985 16.4627 22.5367 16.8043 23.044 16.8043C23.5514 16.8043 24.2278 16.4627 24.397 15.9503C24.5661 15.4378 24.7352 15.4378 25.0734 15.267C25.4116 15.0962 25.919 14.9254 26.0881 14.2422C26.2572 13.559 25.919 13.2173 26.0881 12.8757C26.2572 12.5341 26.7645 12.5341 26.9337 12.0217C27.1028 11.5092 26.9337 10.826 26.5954 10.6552C26.2572 10.4844 26.2572 10.3136 26.4263 9.97197C26.5954 9.63035 26.7645 8.43472 25.7499 8.09311C24.7352 7.75149 24.0587 8.43472 23.8896 8.77634C23.7205 9.11796 23.5514 8.94715 23.044 8.94715C22.5367 8.94715 22.0294 9.11796 21.8602 9.63038C21.6911 10.1428 22.0294 10.4844 21.6911 10.6552C21.3529 10.826 21.0147 10.826 20.5073 11.3385C20 11.8509 20.1691 12.7049 20.3382 13.0466C20.5073 13.3882 20 13.3882 20 14.2422C20 15.0963 20.5073 15.6087 20.8456 15.7795C21.1838 15.9503 21.0147 16.1211 20.8456 16.6335Z" stroke="white" stroke-linejoin="round"/>
<path opacity="0.75" d="M22 14.5C22 13.8333 22 13 23 13" stroke="white" stroke-linecap="round"/>
<path opacity="0.75" d="M24 11C24 11.3333 24.2 12 25 12" stroke="white" stroke-linecap="round"/>
<defs>
<linearGradient id="paint0_linear_321_871" x1="9.9375" y1="7.48438" x2="36.4973" y2="26.5529" gradientUnits="userSpaceOnUse">
<stop stop-color="#9DAAFF"/>
<stop offset="0.526042" stop-color="#6F40FF"/>
<stop offset="1" stop-color="#430DA1"/>
</linearGradient>
</defs>
</svg>
