<svg width="40" height="44" viewBox="0 0 40 44" fill="none" xmlns="http://www.w3.org/2000/svg">
<path opacity="0.25" d="M20 44C24.9706 44 29 42.8807 29 41.5C29 40.1193 24.9706 39 20 39C15.0294 39 11 40.1193 11 41.5C11 42.8807 15.0294 44 20 44Z" fill="black"/>
<path opacity="0.5" d="M20 43C22.7614 43 25 42.3284 25 41.5C25 40.6716 22.7614 40 20 40C17.2386 40 15 40.6716 15 41.5C15 42.3284 17.2386 43 20 43Z" fill="black"/>
<path opacity="0.75" d="M20 42C21.1046 42 22 41.7761 22 41.5C22 41.2239 21.1046 41 20 41C18.8954 41 18 41.2239 18 41.5C18 41.7761 18.8954 42 20 42Z" fill="black"/>
<path d="M34 23.0073C34.0013 20.493 33.3255 18.0247 32.0435 15.8618C30.7615 13.6989 28.9207 11.9211 26.7144 10.7152C24.5082 9.50933 22.0179 8.91987 19.5051 9.00875C16.9924 9.09763 14.5499 9.86157 12.4344 11.2203C10.3188 12.5791 8.6082 14.4825 7.48225 16.7306C6.3563 18.9787 5.85655 21.4885 6.03551 23.9965C6.21447 26.5044 7.06553 28.9179 8.49929 30.9833C11.5214 35.3369 18.4402 41.2576 20 42C21.5597 41.2576 28.8395 35.1383 31.7757 30.5718C33.2266 28.3155 33.9986 25.6898 34 23.0073Z" fill="url(#paint0_linear_375_10905)"/>
<path fill-rule="evenodd" clip-rule="evenodd" d="M13 22.1931V20.4552L20.2 14L23.9489 17.361V15.5266H23.4728V14.6539H26.091V15.5266H25.615V18.8548L27.4 20.4552V22.1931L20.2 15.7379L13 22.1931ZM16.9822 22.508C16.964 22.5095 16.9457 22.5103 16.9271 22.5103C16.5656 22.5103 16.2726 22.2172 16.2726 21.8557C16.2726 21.4942 16.5656 21.2012 16.9271 21.2012C17.0943 21.2012 17.2469 21.2639 17.3626 21.3671C17.5188 21.2623 17.7067 21.2012 17.909 21.2012C18.4512 21.2012 18.8908 21.6407 18.8908 22.183C18.8908 22.7252 18.4512 23.1648 17.909 23.1648C17.4806 23.1648 17.1163 22.8905 16.9822 22.508ZM17.5584 27.9006C17.5736 27.9559 17.5817 28.0141 17.5817 28.0742V28.3799L17.5817 28.4017H17.5817V31.347C17.5817 31.7084 17.2886 32.0015 16.9271 32.0015C16.5656 32.0015 16.2726 31.7084 16.2726 31.347V28.4017H14.6363C14.6363 27.9654 14.6363 26.3689 15.2908 25.129C15.9454 23.8891 16.5226 22.946 17.2544 23.2345C17.3953 23.2901 17.4616 23.4053 17.4819 23.5634L18.382 24.4634L19.4976 24.8353L20.4947 24.0297C20.543 23.9907 20.5973 23.9598 20.6556 23.9382L22.095 23.4046C22.3916 23.2946 22.7212 23.4459 22.8311 23.7425C22.856 23.8096 22.8675 23.8783 22.867 23.9459L24.7874 25.3176C24.8604 25.3697 24.9175 25.4358 24.9576 25.5097C25.1725 25.3752 25.4408 25.2929 25.7637 25.2929C26.3164 25.2929 26.7093 25.5342 26.9475 25.8651C27.1678 26.1711 27.2364 26.5234 27.2364 26.7656C27.2364 27.0367 27.0166 27.2565 26.7455 27.2565C26.4744 27.2565 26.2546 27.0367 26.2546 26.7656C26.2546 26.6805 26.225 26.542 26.1508 26.4388C26.0945 26.3607 25.9964 26.2747 25.7637 26.2747C25.531 26.2747 25.4329 26.3607 25.3766 26.4388C25.3023 26.542 25.2728 26.6805 25.2728 26.7656V31.3474C25.2728 31.6186 25.053 31.8383 24.7819 31.8383C24.5108 31.8383 24.291 31.6186 24.291 31.3474V26.7656C24.291 26.6465 24.3076 26.5008 24.3506 26.347C24.2705 26.3323 24.1923 26.3002 24.1216 26.2497L22.47 25.0699L21.6048 27.0167L23.0237 29.0032C23.1246 29.1444 23.1652 29.32 23.1367 29.4912L22.8094 31.4549C22.75 31.8115 22.4128 32.0523 22.0562 31.9929C21.6996 31.9335 21.4587 31.5962 21.5182 31.2397L21.8009 29.5435L20.3221 27.4732C20.1873 27.2845 20.1624 27.0387 20.2566 26.8269L21.0417 25.0604L19.9751 25.922C19.8108 26.0548 19.5953 26.0818 19.4111 26.0117C19.3954 26.0079 19.3798 26.0035 19.3642 25.9983L17.8915 25.5073C17.8071 25.4792 17.7305 25.4319 17.6676 25.369L17.266 24.9674C17.1933 25.3749 17.1541 25.8 17.2544 26.18C17.446 26.9059 17.5255 27.506 17.5584 27.9006ZM15.6338 29.0299L14.3297 29.0216L13.3181 30.8217C13.164 31.0959 13.2601 31.4431 13.5332 31.5991C13.8093 31.7567 14.161 31.6592 14.3164 31.3818L15.6338 29.0299ZM23.1454 23.1648C23.6877 23.1648 24.1273 22.7252 24.1273 22.183C24.1273 21.6407 23.6877 21.2012 23.1454 21.2012C22.6032 21.2012 22.1636 21.6407 22.1636 22.183C22.1636 22.7252 22.6032 23.1648 23.1454 23.1648ZM19.9406 28.4012L20.6086 29.383C20.6499 29.4544 20.6496 29.5424 20.6078 29.6134L19.5197 31.4628C19.3598 31.7347 19.011 31.8275 18.737 31.6711C18.4606 31.5132 18.3645 31.1611 18.5223 30.8847L19.9406 28.4012Z" fill="url(#paint1_linear_375_10905)"/>
<defs>
<linearGradient id="paint0_linear_375_10905" x1="9.9375" y1="13.6406" x2="33.3397" y2="33.497" gradientUnits="userSpaceOnUse">
<stop stop-color="white"/>
<stop offset="1" stop-color="#DA9796"/>
</linearGradient>
<linearGradient id="paint1_linear_375_10905" x1="15" y1="15" x2="25.5" y2="32.5" gradientUnits="userSpaceOnUse">
<stop stop-color="#FB575E"/>
<stop offset="1" stop-color="#780404"/>
</linearGradient>
</defs>
</svg>
