<svg width="32" height="32" viewBox="0 0 32 32" fill="none" xmlns="http://www.w3.org/2000/svg">
<path opacity="0.25" d="M16 32C19.9765 32 23.2 31.1046 23.2 30C23.2 28.8954 19.9765 28 16 28C12.0236 28 8.80005 28.8954 8.80005 30C8.80005 31.1046 12.0236 32 16 32Z" fill="black"/>
<path opacity="0.5" d="M16.0002 31.1998C18.2094 31.1998 20.0002 30.6625 20.0002 29.9998C20.0002 29.3371 18.2094 28.7998 16.0002 28.7998C13.7911 28.7998 12.0002 29.3371 12.0002 29.9998C12.0002 30.6625 13.7911 31.1998 16.0002 31.1998Z" fill="black"/>
<path opacity="0.75" d="M16.0001 30.3996C16.8838 30.3996 17.6001 30.2205 17.6001 29.9996C17.6001 29.7787 16.8838 29.5996 16.0001 29.5996C15.1165 29.5996 14.4001 29.7787 14.4001 29.9996C14.4001 30.2205 15.1165 30.3996 16.0001 30.3996Z" fill="black"/>
<path d="M27.2 15.2059C27.2011 13.1944 26.6604 11.2198 25.6349 9.48944C24.6093 7.75908 23.1366 6.33686 21.3716 5.37216C19.6066 4.40746 17.6143 3.9359 15.6041 4.007C13.5939 4.0781 11.64 4.68925 9.94755 5.77625C8.2551 6.86324 6.88661 8.38596 5.98585 10.1845C5.08509 11.9829 4.68529 13.9908 4.82846 15.9972C4.97163 18.0035 5.65247 19.9343 6.79948 21.5867C9.21713 25.0695 14.7522 29.8061 16 30.4C17.2478 29.8061 23.0716 24.9106 25.4206 21.2574C26.5813 19.4524 27.1989 17.3519 27.2 15.2059Z" fill="url(#paint0_linear_325_9728)"/>
<path opacity="0.75" d="M14.8476 16.8818C14.8476 17.2604 14.8476 17.5633 14.8476 18.0177C14.8476 18.5856 14.5637 19.4375 13.4278 19.4375C12.5192 19.4375 12.8599 19.4375 12.0081 19.4375" stroke="white" stroke-width="0.819869"/>
<path d="M11.1829 18.1433H11.4523C11.6787 18.1433 11.8622 18.3269 11.8622 18.5533V20.321C11.8622 20.5474 11.6787 20.731 11.4523 20.731H11.1829V18.1433Z" stroke="white" stroke-width="0.749595"/>
<path d="M19.9858 17.1775C19.902 16.9909 20.0255 16.7769 20.229 16.7562L22.0503 16.5706C22.2937 16.5458 22.4628 16.8072 22.3405 17.019L21.2691 18.8747C21.1468 19.0866 20.8359 19.0708 20.7357 18.8476L19.9858 17.1775Z" stroke="white" stroke-width="0.819869"/>
<rect x="13.475" y="10.1606" width="8.72112" height="5.03112" rx="0.901856" transform="rotate(30 13.475 10.1606)" stroke="white" stroke-width="0.819869"/>
<rect opacity="0.75" x="13.9702" y="12.7383" width="2.12763" height="1.06382" transform="rotate(30 13.9702 12.7383)" fill="white"/>
<defs>
<linearGradient id="paint0_linear_325_9728" x1="7.95005" y1="7.7125" x2="26.6718" y2="23.5976" gradientUnits="userSpaceOnUse">
<stop stop-color="#9DFFE8"/>
<stop offset="1" stop-color="#1951A4"/>
</linearGradient>
</defs>
</svg>
