<svg width="40" height="44" viewBox="0 0 40 44" fill="none" xmlns="http://www.w3.org/2000/svg">
<path opacity="0.25" d="M20 44C24.9706 44 29 42.8807 29 41.5C29 40.1193 24.9706 39 20 39C15.0294 39 11 40.1193 11 41.5C11 42.8807 15.0294 44 20 44Z" fill="black"/>
<path opacity="0.5" d="M20 43C22.7614 43 25 42.3284 25 41.5C25 40.6716 22.7614 40 20 40C17.2386 40 15 40.6716 15 41.5C15 42.3284 17.2386 43 20 43Z" fill="black"/>
<path opacity="0.75" d="M20 42C21.1046 42 22 41.7761 22 41.5C22 41.2239 21.1046 41 20 41C18.8954 41 18 41.2239 18 41.5C18 41.7761 18.8954 42 20 42Z" fill="black"/>
<path d="M34 23.0073C34.0013 20.493 33.3255 18.0247 32.0435 15.8618C30.7615 13.6989 28.9207 11.9211 26.7144 10.7152C24.5082 9.50933 22.0179 8.91987 19.5051 9.00875C16.9924 9.09763 14.5499 9.86157 12.4344 11.2203C10.3188 12.5791 8.6082 14.4825 7.48225 16.7306C6.3563 18.9787 5.85655 21.4885 6.03551 23.9965C6.21447 26.5044 7.06553 28.9179 8.49929 30.9833C11.5214 35.3369 18.4402 41.2576 20 42C21.5597 41.2576 28.8395 35.1383 31.7757 30.5718C33.2266 28.3155 33.9986 25.6898 34 23.0073Z" fill="url(#paint0_linear_310_10894)"/>
<path opacity="0.75" d="M18.5605 25.1016C18.5605 25.5748 18.5605 25.9534 18.5605 26.5214C18.5605 27.2312 18.2055 28.2961 16.7857 28.2961C15.6499 28.2961 16.0758 28.2961 15.011 28.2961" stroke="white" stroke-width="1.02484"/>
<path d="M13.979 26.6784H14.3157C14.5987 26.6784 14.8281 26.9079 14.8281 27.1909V29.4005C14.8281 29.6836 14.5987 29.913 14.3157 29.913H13.979V26.6784Z" stroke="white" stroke-width="0.936993"/>
<path d="M24.9823 25.4706C24.8776 25.2373 25.032 24.9699 25.2864 24.944L27.563 24.7121C27.8673 24.6811 28.0787 25.0077 27.9258 25.2726L26.5865 27.5921C26.4336 27.857 26.045 27.8372 25.9198 27.5583L24.9823 25.4706Z" stroke="white" stroke-width="1.02484"/>
<rect x="16.8444" y="16.7" width="10.9014" height="6.2889" rx="1.12732" transform="rotate(30 16.8444 16.7)" stroke="white" stroke-width="1.02484"/>
<rect opacity="0.75" x="17.4635" y="19.9209" width="2.65954" height="1.32977" transform="rotate(30 17.4635 19.9209)" fill="white"/>
<defs>
<linearGradient id="paint0_linear_310_10894" x1="9.9375" y1="13.6406" x2="33.3397" y2="33.497" gradientUnits="userSpaceOnUse">
<stop stop-color="#9DFFE8"/>
<stop offset="1" stop-color="#1951A4"/>
</linearGradient>
</defs>
</svg>
