<svg width="40" height="44" viewBox="0 0 40 44" fill="none" xmlns="http://www.w3.org/2000/svg">
<path opacity="0.25" d="M20 44C24.9706 44 29 42.8807 29 41.5C29 40.1193 24.9706 39 20 39C15.0294 39 11 40.1193 11 41.5C11 42.8807 15.0294 44 20 44Z" fill="black"/>
<path opacity="0.5" d="M20 43C22.7614 43 25 42.3284 25 41.5C25 40.6716 22.7614 40 20 40C17.2386 40 15 40.6716 15 41.5C15 42.3284 17.2386 43 20 43Z" fill="black"/>
<path opacity="0.75" d="M20 42C21.1046 42 22 41.7761 22 41.5C22 41.2239 21.1046 41 20 41C18.8954 41 18 41.2239 18 41.5C18 41.7761 18.8954 42 20 42Z" fill="black"/>
<path d="M34 16.0073C34.0013 13.493 33.3255 11.0247 32.0435 8.8618C30.7615 6.69886 28.9207 4.92107 26.7144 3.7152C24.5082 2.50933 22.0179 1.91987 19.5051 2.00875C16.9924 2.09763 14.5499 2.86157 12.4344 4.22031C10.3188 5.57905 8.6082 7.48245 7.48225 9.73056C6.3563 11.9787 5.85655 14.4885 6.03551 16.9965C6.21447 19.5044 7.06553 21.9179 8.49929 23.9833C13.0967 30.6063 17.5 34 20 41C22.5 34 27 30.5 31.7757 23.5718C33.2266 21.3155 33.9986 18.6898 34 16.0073Z" fill="url(#paint0_linear_310_10934)" stroke="white" stroke-width="1.5" stroke-linejoin="round"/>
<path opacity="0.75" d="M18.5605 18.1016C18.5605 18.5748 18.5605 18.9534 18.5605 19.5214C18.5605 20.2312 18.2055 21.2961 16.7857 21.2961C15.6499 21.2961 16.0758 21.2961 15.011 21.2961" stroke="white" stroke-width="1.02484"/>
<path d="M13.979 19.6784H14.3157C14.5987 19.6784 14.8281 19.9079 14.8281 20.1909V22.4005C14.8281 22.6836 14.5987 22.913 14.3157 22.913H13.979V19.6784Z" stroke="white" stroke-width="0.936993"/>
<path d="M24.9823 18.4706C24.8776 18.2373 25.032 17.9699 25.2864 17.944L27.563 17.7121C27.8673 17.6811 28.0787 18.0077 27.9258 18.2726L26.5865 20.5921C26.4336 20.857 26.045 20.8372 25.9198 20.5583L24.9823 18.4706Z" stroke="white" stroke-width="1.02484"/>
<rect x="16.8444" y="9.69998" width="10.9014" height="6.2889" rx="1.12732" transform="rotate(30 16.8444 9.69998)" stroke="white" stroke-width="1.02484"/>
<rect opacity="0.75" x="17.4635" y="12.9209" width="2.65954" height="1.32977" transform="rotate(30 17.4635 12.9209)" fill="white"/>
<defs>
<linearGradient id="paint0_linear_310_10934" x1="9.9375" y1="7.48438" x2="36.4973" y2="26.5529" gradientUnits="userSpaceOnUse">
<stop stop-color="#9DAAFF"/>
<stop offset="0.526042" stop-color="#6F40FF"/>
<stop offset="1" stop-color="#430DA1"/>
</linearGradient>
</defs>
</svg>
