<svg width="40" height="44" viewBox="0 0 40 44" fill="none" xmlns="http://www.w3.org/2000/svg">
<path opacity="0.25" d="M20 44C24.9706 44 29 42.8807 29 41.5C29 40.1193 24.9706 39 20 39C15.0294 39 11 40.1193 11 41.5C11 42.8807 15.0294 44 20 44Z" fill="black"/>
<path opacity="0.5" d="M20 43C22.7614 43 25 42.3284 25 41.5C25 40.6716 22.7614 40 20 40C17.2386 40 15 40.6716 15 41.5C15 42.3284 17.2386 43 20 43Z" fill="black"/>
<path opacity="0.75" d="M20 42C21.1046 42 22 41.7761 22 41.5C22 41.2239 21.1046 41 20 41C18.8954 41 18 41.2239 18 41.5C18 41.7761 18.8954 42 20 42Z" fill="black"/>
<path d="M34 23.0073C34.0013 20.493 33.3255 18.0247 32.0435 15.8618C30.7615 13.6989 28.9207 11.9211 26.7144 10.7152C24.5082 9.50933 22.0179 8.91987 19.5051 9.00875C16.9924 9.09763 14.5499 9.86157 12.4344 11.2203C10.3188 12.5791 8.6082 14.4825 7.48225 16.7306C6.3563 18.9787 5.85655 21.4885 6.03551 23.9965C6.21447 26.5044 7.06553 28.9179 8.49929 30.9833C11.5214 35.3369 18.4402 41.2576 20 42C21.5597 41.2576 28.8395 35.1383 31.7757 30.5718C33.2266 28.3155 33.9986 25.6898 34 23.0073Z" fill="url(#paint0_linear_310_10995)"/>
<path d="M23 15.0001C26.0693 15.0001 28.5575 17.4883 28.5575 20.5576" stroke="white" stroke-width="1.2" stroke-linecap="round"/>
<path opacity="0.75" d="M23.0005 17.5651C24.6533 17.5651 25.993 18.9049 25.993 20.5576" stroke="white" stroke-width="1.2" stroke-linecap="round"/>
<path d="M24.0929 27.2369V27.4069L24.1888 27.5473L25.4221 29.3514C25.426 29.3571 25.4275 29.3608 25.428 29.3625C25.4286 29.3644 25.4289 29.3659 25.4289 29.3676C25.4291 29.3714 25.4282 29.3781 25.4241 29.3858C25.42 29.3935 25.415 29.398 25.4118 29.4001C25.4104 29.401 25.4089 29.4016 25.4071 29.4022C25.4054 29.4027 25.4015 29.4036 25.3946 29.4036H14.6054C14.5985 29.4036 14.5946 29.4027 14.5929 29.4022C14.5911 29.4016 14.5896 29.401 14.5882 29.4001C14.585 29.398 14.58 29.3935 14.5759 29.3858C14.5718 29.3781 14.5709 29.3714 14.5711 29.3676C14.5711 29.3659 14.5714 29.3644 14.572 29.3625C14.5725 29.3608 14.574 29.3571 14.5779 29.3514L15.8112 27.5473L15.9071 27.4069V27.2369V23.4336C15.9071 21.3367 17.607 19.6369 19.7038 19.6369H20.2962C22.393 19.6369 24.0929 21.3367 24.0929 23.4336V27.2369Z" stroke="white" stroke-width="1.1"/>
<ellipse cx="20" cy="19.0867" rx="1.08333" ry="1.08667" fill="white"/>
<path opacity="0.75" d="M21.625 29.9531C21.625 30.8533 20.8975 31.5831 20 31.5831C19.1025 31.5831 18.375 30.8533 18.375 29.9531" stroke="white" stroke-width="1.1"/>
<defs>
<linearGradient id="paint0_linear_310_10995" x1="9.9375" y1="13.6406" x2="33.3397" y2="33.497" gradientUnits="userSpaceOnUse">
<stop stop-color="#FF99BB"/>
<stop offset="1" stop-color="#990F54"/>
</linearGradient>
</defs>
</svg>
