<svg width="32" height="32" viewBox="0 0 32 32" fill="none" xmlns="http://www.w3.org/2000/svg">
<path opacity="0.25" d="M16 32C19.9765 32 23.2 31.1046 23.2 30C23.2 28.8954 19.9765 28 16 28C12.0236 28 8.80005 28.8954 8.80005 30C8.80005 31.1046 12.0236 32 16 32Z" fill="black"/>
<path opacity="0.5" d="M16.0002 31.1998C18.2094 31.1998 20.0002 30.6625 20.0002 29.9998C20.0002 29.3371 18.2094 28.7998 16.0002 28.7998C13.7911 28.7998 12.0002 29.3371 12.0002 29.9998C12.0002 30.6625 13.7911 31.1998 16.0002 31.1998Z" fill="black"/>
<path opacity="0.75" d="M16.0001 30.3996C16.8838 30.3996 17.6001 30.2205 17.6001 29.9996C17.6001 29.7787 16.8838 29.5996 16.0001 29.5996C15.1165 29.5996 14.4001 29.7787 14.4001 29.9996C14.4001 30.2205 15.1165 30.3996 16.0001 30.3996Z" fill="black"/>
<path d="M27.2 15.2059C27.2011 13.1944 26.6604 11.2198 25.6349 9.48944C24.6093 7.75908 23.1366 6.33686 21.3716 5.37216C19.6066 4.40746 17.6143 3.9359 15.6041 4.007C13.5939 4.0781 11.64 4.68925 9.94755 5.77625C8.2551 6.86324 6.88661 8.38596 5.98585 10.1845C5.08509 11.9829 4.68529 13.9908 4.82846 15.9972C4.97163 18.0035 5.65247 19.9343 6.79948 21.5867C9.21713 25.0695 14.7522 29.8061 16 30.4C17.2478 29.8061 23.0716 24.9106 25.4206 21.2574C26.5813 19.4524 27.1989 17.3519 27.2 15.2059Z" fill="url(#paint0_linear_325_9783)"/>
<circle cx="20.0003" cy="14.4002" r="2.87981" stroke="white" stroke-width="0.640376"/>
<path fill-rule="evenodd" clip-rule="evenodd" d="M20.0789 12.5605C19.8579 12.5605 19.6787 12.7397 19.6787 12.9608V14.7218C19.6787 14.9429 19.8579 15.1221 20.0789 15.1221C20.3 15.1221 20.4792 14.9429 20.4792 14.7218V12.9608C20.4792 12.7397 20.3 12.5605 20.0789 12.5605ZM20.0789 15.4418C19.8579 15.4418 19.6787 15.621 19.6787 15.842C19.6787 16.0631 19.8579 16.2423 20.0789 16.2423C20.3 16.2423 20.4792 16.0631 20.4792 15.842C20.4792 15.621 20.3 15.4418 20.0789 15.4418Z" fill="white"/>
<path d="M13.0291 20.0862C13.0291 21.1967 13.9174 22.3072 15.4721 22.3072C16.5825 22.3072 17.7374 21.3744 17.9151 20.3083C18.0928 19.2423 17.3969 18.5316 17.0267 18.3095C16.8491 19.1979 16.0643 19.42 15.6942 19.42C15.8422 19.1979 16.1384 18.4872 16.1384 17.4211C16.1384 16.3551 15.1019 15.4963 14.5837 15.2002C15.0279 16.0886 15.0279 16.9769 14.3616 17.6432C13.6953 18.3095 13.0291 18.9758 13.0291 20.0862Z" fill="url(#paint1_linear_325_9783)"/>
<path d="M17.471 12.5754C17.1008 11.8351 15.9163 9.68818 13.9175 8.7998C14.1396 9.61415 14.8254 12.2913 13.0291 13.9079C10.8733 15.8482 9.13606 19.4624 14.1139 21.7039C14.6093 21.9359 15.9201 22.2398 17.2001 21.5998C18.7524 20.8236 19.5517 19.671 19.9632 17.7765L20.0001 17.5998" stroke="white" stroke-width="0.8" stroke-linecap="round"/>
<defs>
<linearGradient id="paint0_linear_325_9783" x1="7.95005" y1="7.7125" x2="26.6718" y2="23.5976" gradientUnits="userSpaceOnUse">
<stop stop-color="#F9B690"/>
<stop offset="1" stop-color="#9C0401"/>
</linearGradient>
<linearGradient id="paint1_linear_325_9783" x1="15.4863" y1="15.2002" x2="15.4863" y2="22.3072" gradientUnits="userSpaceOnUse">
<stop stop-color="white" stop-opacity="0.25"/>
<stop offset="0.916667" stop-color="white"/>
</linearGradient>
</defs>
</svg>
