<svg width="32" height="32" viewBox="0 0 32 32" fill="none" xmlns="http://www.w3.org/2000/svg">
<path opacity="0.25" d="M16 32C19.9765 32 23.2 31.1046 23.2 30C23.2 28.8954 19.9765 28 16 28C12.0236 28 8.80005 28.8954 8.80005 30C8.80005 31.1046 12.0236 32 16 32Z" fill="black"/>
<path opacity="0.5" d="M16.0002 31.1998C18.2094 31.1998 20.0002 30.6625 20.0002 29.9998C20.0002 29.3371 18.2094 28.7998 16.0002 28.7998C13.7911 28.7998 12.0002 29.3371 12.0002 29.9998C12.0002 30.6625 13.7911 31.1998 16.0002 31.1998Z" fill="black"/>
<path opacity="0.75" d="M16.0001 30.3996C16.8838 30.3996 17.6001 30.2205 17.6001 29.9996C17.6001 29.7787 16.8838 29.5996 16.0001 29.5996C15.1165 29.5996 14.4001 29.7787 14.4001 29.9996C14.4001 30.2205 15.1165 30.3996 16.0001 30.3996Z" fill="black"/>
<path d="M27.2 15.2059C27.2011 13.1944 26.6604 11.2198 25.6349 9.48944C24.6093 7.75908 23.1366 6.33686 21.3716 5.37216C19.6066 4.40746 17.6143 3.9359 15.6041 4.007C13.5939 4.0781 11.64 4.68925 9.94755 5.77625C8.2551 6.86324 6.88661 8.38596 5.98585 10.1845C5.08509 11.9829 4.68529 13.9908 4.82846 15.9972C4.97163 18.0035 5.65247 19.9343 6.79948 21.5867C9.21713 25.0695 14.7522 29.8061 16 30.4C17.2478 29.8061 23.0716 24.9106 25.4206 21.2574C26.5813 19.4524 27.1989 17.3519 27.2 15.2059Z" fill="url(#paint0_linear_325_9742)"/>
<path d="M18.4004 8.80107C20.8559 8.80107 22.8464 10.7916 22.8464 13.2471" stroke="white" stroke-width="0.96" stroke-linecap="round"/>
<path opacity="0.75" d="M18.4007 10.8531C19.7228 10.8531 20.7947 11.9249 20.7947 13.2471" stroke="white" stroke-width="0.96" stroke-linecap="round"/>
<path d="M19.2748 18.5913V18.7273L19.3516 18.8396L20.3382 20.2829C20.3414 20.2875 20.3425 20.2904 20.3429 20.2918C20.3434 20.2932 20.3436 20.2945 20.3437 20.2959C20.3438 20.2989 20.3431 20.3042 20.3398 20.3104C20.3365 20.3166 20.3326 20.3202 20.33 20.3218C20.3288 20.3225 20.3277 20.3231 20.3262 20.3235C20.3248 20.3239 20.3217 20.3246 20.3162 20.3246H11.6848C11.6793 20.3246 11.6762 20.3239 11.6749 20.3235C11.6734 20.3231 11.6722 20.3225 11.6711 20.3218C11.6685 20.3202 11.6645 20.3166 11.6613 20.3104C11.658 20.3042 11.6573 20.2989 11.6574 20.2959C11.6574 20.2945 11.6577 20.2932 11.6581 20.2918C11.6586 20.2904 11.6597 20.2875 11.6628 20.2829L12.6495 18.8396L12.7263 18.7273V18.5913V15.5486C12.7263 13.8711 14.0861 12.5113 15.7636 12.5113H16.2375C17.915 12.5113 19.2748 13.8711 19.2748 15.5486V18.5913Z" stroke="white" stroke-width="0.88"/>
<ellipse cx="16.0007" cy="12.0705" rx="0.866667" ry="0.869333" fill="white"/>
<path opacity="0.75" d="M17.3004 20.7637C17.3004 21.4839 16.7184 22.0677 16.0004 22.0677C15.2825 22.0677 14.7004 21.4839 14.7004 20.7637" stroke="white" stroke-width="0.88"/>
<defs>
<linearGradient id="paint0_linear_325_9742" x1="7.95005" y1="7.7125" x2="26.6718" y2="23.5976" gradientUnits="userSpaceOnUse">
<stop stop-color="#FF99BB"/>
<stop offset="1" stop-color="#990F54"/>
</linearGradient>
</defs>
</svg>
