<svg width="32" height="32" viewBox="0 0 32 32" fill="none" xmlns="http://www.w3.org/2000/svg">
<path opacity="0.25" d="M16 32C19.9765 32 23.2 31.1046 23.2 30C23.2 28.8954 19.9765 28 16 28C12.0236 28 8.80005 28.8954 8.80005 30C8.80005 31.1046 12.0236 32 16 32Z" fill="black"/>
<path opacity="0.5" d="M16.0002 31.1998C18.2094 31.1998 20.0002 30.6625 20.0002 29.9998C20.0002 29.3371 18.2094 28.7998 16.0002 28.7998C13.7911 28.7998 12.0002 29.3371 12.0002 29.9998C12.0002 30.6625 13.7911 31.1998 16.0002 31.1998Z" fill="black"/>
<path opacity="0.75" d="M16.0001 30.3996C16.8838 30.3996 17.6001 30.2205 17.6001 29.9996C17.6001 29.7787 16.8838 29.5996 16.0001 29.5996C15.1165 29.5996 14.4001 29.7787 14.4001 29.9996C14.4001 30.2205 15.1165 30.3996 16.0001 30.3996Z" fill="black"/>
<path d="M27.2 15.2059C27.2011 13.1944 26.6604 11.2198 25.6349 9.48944C24.6093 7.75908 23.1366 6.33686 21.3716 5.37216C19.6066 4.40746 17.6143 3.9359 15.6041 4.007C13.5939 4.0781 11.64 4.68925 9.94755 5.77625C8.2551 6.86324 6.88661 8.38596 5.98585 10.1845C5.08509 11.9829 4.68529 13.9908 4.82846 15.9972C4.97163 18.0035 5.65247 19.9343 6.79948 21.5867C9.21713 25.0695 14.7522 29.8061 16 30.4C17.2478 29.8061 23.0716 24.9106 25.4206 21.2574C26.5813 19.4524 27.1989 17.3519 27.2 15.2059Z" fill="url(#paint0_linear_325_9758)"/>
<rect x="9.60059" y="18.3984" width="4.8" height="0.8" fill="white"/>
<rect x="9.60059" y="20.7988" width="4.8" height="0.8" fill="white"/>
<rect x="15.2007" y="18.3984" width="4" height="0.8" fill="white"/>
<rect opacity="0.75" x="12.0005" y="15.999" width="0.8" height="3.2" fill="white"/>
<rect x="12.8005" y="14.3984" width="1.6" height="0.8" rx="0.4" fill="white"/>
<rect x="10.4006" y="14.3984" width="1.6" height="0.8" rx="0.4" fill="white"/>
<circle cx="12.4006" cy="14.7988" r="1.6" stroke="white" stroke-width="0.8"/>
<rect x="15.2007" y="20.7988" width="4" height="0.8" fill="white"/>
<rect x="20.0005" y="18.3984" width="2.4" height="0.8" fill="white"/>
<rect x="20.0005" y="20.7988" width="2.4" height="0.8" fill="white"/>
<mask id="path-15-inside-1_325_9758" fill="white">
<rect x="18.4006" y="17.5986" width="2.4" height="4.8" rx="0.4"/>
</mask>
<rect x="18.4006" y="17.5986" width="2.4" height="4.8" rx="0.4" stroke="white" stroke-width="1.6" mask="url(#path-15-inside-1_325_9758)"/>
<mask id="path-16-inside-2_325_9758" fill="white">
<rect x="13.6006" y="17.5986" width="2.4" height="4.8" rx="0.4"/>
</mask>
<rect x="13.6006" y="17.5986" width="2.4" height="4.8" rx="0.4" stroke="white" stroke-width="1.6" mask="url(#path-16-inside-2_325_9758)"/>
<path d="M16.6767 15.7066C16.5685 16.0346 16.7218 16.5721 16.812 16.7998C16.8571 16.5721 17.0285 16.0619 17.3532 15.8433C17.759 15.57 18.0296 15.8433 18.4355 15.8433C18.8414 15.8433 19.3825 15.57 19.5178 15.16C19.6531 14.7501 19.7884 14.7501 20.059 14.6134C20.3296 14.4768 20.7354 14.3401 20.8707 13.7936C21.006 13.247 20.7354 12.9737 20.8707 12.7004C21.006 12.4271 21.4119 12.4271 21.5472 12.0171C21.6825 11.6072 21.5472 11.0606 21.2766 10.924C21.006 10.7873 21.006 10.6507 21.1413 10.3774C21.2766 10.1041 21.4119 9.14758 20.6001 8.87429C19.7884 8.601 19.2472 9.14758 19.1119 9.42088C18.9766 9.69417 18.8414 9.55752 18.4355 9.55752C18.0296 9.55752 17.6237 9.69417 17.4884 10.1041C17.3532 10.5141 17.6237 10.7873 17.3532 10.924C17.0826 11.0606 16.812 11.0606 16.4061 11.4706C16.0002 11.8805 16.1355 12.5638 16.2708 12.837C16.4061 13.1103 16.0002 13.1103 16.0002 13.7936C16.0002 14.4768 16.4061 14.8867 16.6767 15.0234C16.9473 15.16 16.812 15.2967 16.6767 15.7066Z" stroke="white" stroke-width="0.8" stroke-linejoin="round"/>
<path opacity="0.75" d="M17.6003 13.9998C17.6003 13.4665 17.6003 12.7998 18.4003 12.7998" stroke="white" stroke-width="0.8" stroke-linecap="round"/>
<path opacity="0.75" d="M19.2002 11.2002C19.2002 11.4669 19.3602 12.0002 20.0002 12.0002" stroke="white" stroke-width="0.8" stroke-linecap="round"/>
<defs>
<linearGradient id="paint0_linear_325_9758" x1="7.95005" y1="7.7125" x2="26.6718" y2="23.5976" gradientUnits="userSpaceOnUse">
<stop stop-color="#C3C8D5"/>
<stop offset="1" stop-color="#48506B"/>
</linearGradient>
</defs>
</svg>
