<svg width="40" height="44" viewBox="0 0 40 44" fill="none" xmlns="http://www.w3.org/2000/svg">
<path opacity="0.25" d="M20 44C24.9706 44 29 42.8807 29 41.5C29 40.1193 24.9706 39 20 39C15.0294 39 11 40.1193 11 41.5C11 42.8807 15.0294 44 20 44Z" fill="black"/>
<path opacity="0.5" d="M20 43C22.7614 43 25 42.3284 25 41.5C25 40.6716 22.7614 40 20 40C17.2386 40 15 40.6716 15 41.5C15 42.3284 17.2386 43 20 43Z" fill="black"/>
<path opacity="0.75" d="M20 42C21.1046 42 22 41.7761 22 41.5C22 41.2239 21.1046 41 20 41C18.8954 41 18 41.2239 18 41.5C18 41.7761 18.8954 42 20 42Z" fill="black"/>
<path d="M34 16.0073C34.0013 13.493 33.3255 11.0247 32.0435 8.8618C30.7615 6.69886 28.9207 4.92107 26.7144 3.7152C24.5082 2.50933 22.0179 1.91987 19.5051 2.00875C16.9924 2.09763 14.5499 2.86157 12.4344 4.22031C10.3188 5.57905 8.6082 7.48245 7.48225 9.73056C6.3563 11.9787 5.85655 14.4885 6.03551 16.9965C6.21447 19.5044 7.06553 21.9179 8.49929 23.9833C13.0967 30.6063 17.5 34 20 41C22.5 34 27 30.5 31.7757 23.5718C33.2266 21.3155 33.9986 18.6898 34 16.0073Z" fill="url(#paint0_linear_310_11023)" stroke="white" stroke-width="1.5" stroke-linejoin="round"/>
<path d="M23 8.00012C26.0693 8.00012 28.5575 10.4883 28.5575 13.5576" stroke="white" stroke-width="1.2" stroke-linecap="round"/>
<path opacity="0.75" d="M23.0005 10.5651C24.6533 10.5651 25.993 11.9049 25.993 13.5576" stroke="white" stroke-width="1.2" stroke-linecap="round"/>
<path d="M24.0929 20.2369V20.4069L24.1888 20.5473L25.4221 22.3514C25.426 22.3571 25.4275 22.3608 25.428 22.3625C25.4286 22.3644 25.4289 22.3659 25.4289 22.3676C25.4291 22.3714 25.4282 22.3781 25.4241 22.3858C25.42 22.3935 25.415 22.398 25.4118 22.4001C25.4104 22.401 25.4089 22.4016 25.4071 22.4022C25.4054 22.4027 25.4015 22.4036 25.3946 22.4036H14.6054C14.5985 22.4036 14.5946 22.4027 14.5929 22.4022C14.5911 22.4016 14.5896 22.401 14.5882 22.4001C14.585 22.398 14.58 22.3935 14.5759 22.3858C14.5718 22.3781 14.5709 22.3714 14.5711 22.3676C14.5711 22.3659 14.5714 22.3644 14.572 22.3625C14.5725 22.3608 14.574 22.3571 14.5779 22.3514L15.8112 20.5473L15.9071 20.4069V20.2369V16.4336C15.9071 14.3367 17.607 12.6369 19.7038 12.6369H20.2962C22.393 12.6369 24.0929 14.3367 24.0929 16.4336V20.2369Z" stroke="white" stroke-width="1.1"/>
<ellipse cx="20" cy="12.0867" rx="1.08333" ry="1.08667" fill="white"/>
<path opacity="0.75" d="M21.625 22.9531C21.625 23.8533 20.8975 24.5831 20 24.5831C19.1025 24.5831 18.375 23.8533 18.375 22.9531" stroke="white" stroke-width="1.1"/>
<defs>
<linearGradient id="paint0_linear_310_11023" x1="9.9375" y1="7.48438" x2="36.4973" y2="26.5529" gradientUnits="userSpaceOnUse">
<stop stop-color="#9DAAFF"/>
<stop offset="0.526042" stop-color="#6F40FF"/>
<stop offset="1" stop-color="#430DA1"/>
</linearGradient>
</defs>
</svg>
