<svg width="40" height="44" viewBox="0 0 40 44" fill="none" xmlns="http://www.w3.org/2000/svg">
<path opacity="0.25" d="M20 44C24.9706 44 29 42.8807 29 41.5C29 40.1193 24.9706 39 20 39C15.0294 39 11 40.1193 11 41.5C11 42.8807 15.0294 44 20 44Z" fill="black"/>
<path opacity="0.5" d="M20 43C22.7614 43 25 42.3284 25 41.5C25 40.6716 22.7614 40 20 40C17.2386 40 15 40.6716 15 41.5C15 42.3284 17.2386 43 20 43Z" fill="black"/>
<path opacity="0.75" d="M20 42C21.1046 42 22 41.7761 22 41.5C22 41.2239 21.1046 41 20 41C18.8954 41 18 41.2239 18 41.5C18 41.7761 18.8954 42 20 42Z" fill="black"/>
<path d="M34 16.0073C34.0013 13.493 33.3255 11.0247 32.0435 8.8618C30.7615 6.69886 28.9207 4.92107 26.7144 3.7152C24.5082 2.50933 22.0179 1.91987 19.5051 2.00875C16.9924 2.09763 14.5499 2.86157 12.4344 4.22031C10.3188 5.57905 8.6082 7.48245 7.48225 9.73056C6.3563 11.9787 5.85655 14.4885 6.03551 16.9965C6.21447 19.5044 7.06553 21.9179 8.49929 23.9833C13.0967 30.6063 17.5 34 20 41C22.5 34 27 30.5 31.7757 23.5718C33.2266 21.3155 33.9986 18.6898 34 16.0073Z" fill="url(#paint0_linear_321_1001)" stroke="white" stroke-width="1.5" stroke-linejoin="round"/>
<circle cx="25" cy="15" r="3.59976" stroke="white" stroke-width="0.80047"/>
<path fill-rule="evenodd" clip-rule="evenodd" d="M25.0977 12.7002C24.8214 12.7002 24.5974 12.9242 24.5974 13.2005V15.4018C24.5974 15.6781 24.8214 15.9021 25.0977 15.9021C25.374 15.9021 25.598 15.6781 25.598 15.4018V13.2005C25.598 12.9242 25.374 12.7002 25.0977 12.7002ZM25.0977 16.3027C24.8214 16.3027 24.5974 16.5267 24.5974 16.803C24.5974 17.0793 24.8214 17.3033 25.0977 17.3033C25.374 17.3033 25.598 17.0793 25.598 16.803C25.598 16.5267 25.374 16.3027 25.0977 16.3027Z" fill="white"/>
<path d="M16.2864 22.1076C16.2864 23.4956 17.3968 24.8837 19.3402 24.8837C20.7282 24.8837 22.1718 23.7177 22.3939 22.3852C22.616 21.0526 21.7462 20.1642 21.2835 19.8866C21.0614 20.9971 20.0805 21.2747 19.6178 21.2747C19.8029 20.9971 20.173 20.1087 20.173 18.7762C20.173 17.4436 18.8775 16.3702 18.2297 16C18.7849 17.1105 18.7849 18.2209 17.9521 19.0538C17.1192 19.8866 16.2864 20.7195 16.2864 22.1076Z" fill="url(#paint1_linear_321_1001)"/>
<path d="M21.8387 12.7195C21.376 11.7941 19.8953 9.11047 17.3968 8C17.6744 9.01793 18.5317 12.3644 16.2863 14.3852C13.5916 16.8104 11.42 21.3282 17.6423 24.1301C18.2615 24.4201 19.9 24.8 21.5 24C23.4404 23.0298 24.4395 21.5889 24.954 19.2208L25 19" stroke="white" stroke-linecap="round"/>
<defs>
<linearGradient id="paint0_linear_321_1001" x1="9.9375" y1="7.48438" x2="36.4973" y2="26.5529" gradientUnits="userSpaceOnUse">
<stop stop-color="#9DAAFF"/>
<stop offset="0.526042" stop-color="#6F40FF"/>
<stop offset="1" stop-color="#430DA1"/>
</linearGradient>
<linearGradient id="paint1_linear_321_1001" x1="19.358" y1="16" x2="19.358" y2="24.8837" gradientUnits="userSpaceOnUse">
<stop stop-color="white" stop-opacity="0.25"/>
<stop offset="0.916667" stop-color="white"/>
</linearGradient>
</defs>
</svg>
