<svg width="32" height="32" viewBox="0 0 32 32" fill="none" xmlns="http://www.w3.org/2000/svg">
<path opacity="0.25" d="M15.9998 32C19.9763 32 23.1998 31.1046 23.1998 30C23.1998 28.8954 19.9763 28 15.9998 28C12.0234 28 8.7998 28.8954 8.7998 30C8.7998 31.1046 12.0234 32 15.9998 32Z" fill="black"/>
<path opacity="0.5" d="M16 31.2008C18.2091 31.2008 20 30.6635 20 30.0008C20 29.338 18.2091 28.8008 16 28.8008C13.7909 28.8008 12 29.338 12 30.0008C12 30.6635 13.7909 31.2008 16 31.2008Z" fill="black"/>
<path opacity="0.75" d="M16.0004 30.3996C16.884 30.3996 17.6004 30.2205 17.6004 29.9996C17.6004 29.7787 16.884 29.5996 16.0004 29.5996C15.1167 29.5996 14.4004 29.7787 14.4004 29.9996C14.4004 30.2205 15.1167 30.3996 16.0004 30.3996Z" fill="black"/>
<path d="M27.1998 15.2059C27.2009 13.1944 26.6602 11.2198 25.6346 9.48944C24.609 7.75908 23.1364 6.33686 21.3714 5.37216C19.6063 4.40746 17.6141 3.9359 15.6039 4.007C13.5937 4.0781 11.6398 4.68925 9.9473 5.77625C8.25485 6.86324 6.88637 8.38596 5.98561 10.1845C5.08484 11.9829 4.68505 13.9908 4.82821 15.9972C4.97138 18.0035 5.65223 19.9343 6.79923 21.5867C9.21689 25.0695 14.752 29.8061 15.9998 30.4C17.2476 29.8061 23.0714 24.9106 25.4204 21.2574C26.581 19.4524 27.1987 17.3519 27.1998 15.2059Z" fill="url(#paint0_linear_366_8267)"/>
<path fill-rule="evenodd" clip-rule="evenodd" d="M10.3994 13.3653V14.7557L16.1594 9.59152L21.9194 14.7557V13.3653L20.4913 12.0849V9.42279H20.8721V8.72461H18.7775V9.42279H19.1584V10.8899L16.1594 8.20117L10.3994 13.3653Z" fill="white"/>
<path fill-rule="evenodd" clip-rule="evenodd" d="M13.5428 15.0082C13.5576 15.0082 13.5722 15.0076 13.5867 15.0064C13.694 15.3124 13.9854 15.5318 14.3281 15.5318C14.7619 15.5318 15.1136 15.1802 15.1136 14.7464C15.1136 14.3126 14.7619 13.9609 14.3281 13.9609C14.1664 13.9609 14.0161 14.0098 13.8912 14.0936C13.7986 14.0111 13.6766 13.9609 13.5428 13.9609C13.2536 13.9609 13.0192 14.1954 13.0192 14.4846C13.0192 14.7738 13.2536 15.0082 13.5428 15.0082ZM14.1972 19.4594C14.1972 19.283 14.1274 19.1229 14.0139 19.0051C13.9768 18.7172 13.9132 18.3557 13.8044 17.9435C13.7355 17.6826 13.7488 17.3951 13.7907 17.1128L14.054 17.376C14.1169 17.4389 14.1935 17.4863 14.2779 17.5144L15.4561 17.9071C15.4691 17.9115 15.4822 17.9153 15.4953 17.9187C15.678 17.9857 15.8904 17.9578 16.0529 17.8266L16.5082 17.4588L16.0864 18.4077C15.9923 18.6195 16.0172 18.8654 16.1519 19.054L17.3034 20.6661L17.0862 21.9696C17.0267 22.3262 17.2676 22.6634 17.6242 22.7228C17.9808 22.7823 18.318 22.5414 18.3774 22.1848L18.6393 20.6139C18.6678 20.4427 18.6272 20.2671 18.5263 20.1258L17.4346 18.5975L18.038 17.24L19.2312 18.0923C19.2723 18.1216 19.3158 18.1447 19.3608 18.1619C19.3431 18.253 19.3358 18.3383 19.3358 18.412V22.0775C19.3358 22.3486 19.5556 22.5684 19.8267 22.5684C20.0978 22.5684 20.3176 22.3486 20.3176 22.0775V18.412C20.3176 18.3597 20.3374 18.2702 20.3822 18.2079C20.4011 18.1818 20.4225 18.1626 20.4494 18.1488C20.476 18.1351 20.5252 18.1175 20.6122 18.1175C20.6992 18.1175 20.7484 18.1351 20.7749 18.1488C20.8019 18.1626 20.8233 18.1818 20.8422 18.2079C20.887 18.2702 20.9067 18.3597 20.9067 18.412C20.9067 18.6831 21.1265 18.9029 21.3976 18.9029C21.6688 18.9029 21.8885 18.6831 21.8885 18.412C21.8885 18.2026 21.8297 17.8993 21.6389 17.6343C21.4301 17.3442 21.0864 17.1357 20.6122 17.1357C20.3811 17.1357 20.181 17.1852 20.0124 17.2695C19.98 17.2289 19.9415 17.192 19.897 17.1602L18.406 16.0952C18.4012 16.048 18.3904 16.0006 18.3731 15.954C18.2632 15.6575 17.9336 15.5062 17.637 15.6161L16.4854 16.043C16.4272 16.0646 16.3729 16.0955 16.3246 16.1345L15.5756 16.7396L14.7684 16.4705L13.9476 15.6497C13.724 15.426 13.3613 15.426 13.1377 15.6497C13.0688 15.7185 13.0212 15.8005 12.9947 15.8875C12.741 16.1713 12.4949 16.6074 12.2335 17.1027C11.7098 18.0947 11.7098 19.3718 11.7098 19.7209H12.8881V22.0776C12.8881 22.4391 13.1811 22.7321 13.5426 22.7321C13.9041 22.7321 14.1972 22.4391 14.1972 22.0776V19.4594ZM11.4647 20.2177L12.508 20.2244L11.4541 22.1059C11.3298 22.3278 11.0484 22.4059 10.8276 22.2797C10.609 22.1549 10.5322 21.8772 10.6555 21.6578L11.4647 20.2177ZM19.3023 14.7464C19.3023 15.1802 18.9507 15.5318 18.5169 15.5318C18.0831 15.5318 17.7314 15.1802 17.7314 14.7464C17.7314 14.3126 18.0831 13.9609 18.5169 13.9609C18.9507 13.9609 19.3023 14.3126 19.3023 14.7464ZM16.4877 20.5058L15.9533 19.7203L14.8187 21.7071C14.6924 21.9283 14.7693 22.2099 14.9904 22.3362C15.2095 22.4614 15.4886 22.3871 15.6165 22.1696L16.487 20.6901C16.5204 20.6333 16.5207 20.5629 16.4877 20.5058Z" fill="white"/>
<defs>
<linearGradient id="paint0_linear_366_8267" x1="7.9498" y1="7.7125" x2="26.6715" y2="23.5976" gradientUnits="userSpaceOnUse">
<stop stop-color="#5CD5F7"/>
<stop offset="1" stop-color="#0C5292"/>
</linearGradient>
</defs>
</svg>
