<svg width="40" height="44" viewBox="0 0 40 44" fill="none" xmlns="http://www.w3.org/2000/svg">
<path opacity="0.25" d="M20 44C24.9706 44 29 42.8807 29 41.5C29 40.1193 24.9706 39 20 39C15.0294 39 11 40.1193 11 41.5C11 42.8807 15.0294 44 20 44Z" fill="black"/>
<path opacity="0.5" d="M20 43C22.7614 43 25 42.3284 25 41.5C25 40.6716 22.7614 40 20 40C17.2386 40 15 40.6716 15 41.5C15 42.3284 17.2386 43 20 43Z" fill="black"/>
<path opacity="0.75" d="M20 42C21.1046 42 22 41.7761 22 41.5C22 41.2239 21.1046 41 20 41C18.8954 41 18 41.2239 18 41.5C18 41.7761 18.8954 42 20 42Z" fill="black"/>
<path d="M34 23.0073C34.0013 20.493 33.3255 18.0247 32.0435 15.8618C30.7615 13.6989 28.9207 11.9211 26.7144 10.7152C24.5082 9.50933 22.0179 8.91987 19.5051 9.00875C16.9924 9.09763 14.5499 9.86157 12.4344 11.2203C10.3188 12.5791 8.6082 14.4825 7.48225 16.7306C6.3563 18.9787 5.85655 21.4885 6.03551 23.9965C6.21447 26.5044 7.06553 28.9179 8.49929 30.9833C11.5214 35.3369 18.4402 41.2576 20 42C21.5597 41.2576 28.8395 35.1383 31.7757 30.5718C33.2266 28.3155 33.9986 25.6898 34 23.0073Z" fill="url(#paint0_linear_310_11009)"/>
<path fill-rule="evenodd" clip-rule="evenodd" d="M28.5574 21.1579C28.8888 21.1579 29.1574 20.8893 29.1574 20.5579C29.1574 17.1572 26.4006 14.4004 22.9999 14.4004C22.6686 14.4004 22.3999 14.669 22.3999 15.0004C22.3999 15.3318 22.6686 15.6004 22.9999 15.6004C25.7379 15.6004 27.9574 17.8199 27.9574 20.5579C27.9574 20.8893 28.2261 21.1579 28.5574 21.1579ZM25.993 21.1579C26.3244 21.1579 26.593 20.8893 26.593 20.5579C26.593 18.5738 24.9846 16.9654 23.0005 16.9654C22.6691 16.9654 22.4005 17.234 22.4005 17.5654C22.4005 17.8968 22.6691 18.1654 23.0005 18.1654C24.3218 18.1654 25.393 19.2365 25.393 20.5579C25.393 20.8893 25.6616 21.1579 25.993 21.1579ZM23.5428 27.2372V27.5773L23.7347 27.858L24.4155 28.8539H15.5844L16.2652 27.858L16.4571 27.5773V27.2372V23.4339C16.4571 21.6408 17.9107 20.1872 19.7038 20.1872H20.2961C22.0892 20.1872 23.5428 21.6408 23.5428 23.4339V27.2372ZM14.1238 29.0414L15.3571 27.2372V23.4339C15.3571 21.3013 16.8929 19.5274 18.9189 19.1579C18.9174 19.1345 18.9166 19.1108 18.9166 19.0869C18.9166 18.4868 19.4016 18.0003 19.9999 18.0003C20.5983 18.0003 21.0833 18.4868 21.0833 19.0869C21.0833 19.1108 21.0825 19.1345 21.081 19.1579C23.107 19.5274 24.6428 21.3013 24.6428 23.4339V27.2372L25.8761 29.0414C26.1408 29.4285 25.8635 29.9539 25.3946 29.9539H22.1749C22.1746 31.156 21.2026 32.1333 19.9999 32.1333C18.7973 32.1333 17.8253 31.156 17.8249 29.9539H14.6053C14.1363 29.9539 13.8591 29.4285 14.1238 29.0414ZM18.9249 29.9539C18.9253 30.5517 19.408 31.0333 19.9999 31.0333C20.5919 31.0333 21.0746 30.5517 21.0749 29.9539H18.9249Z" fill="url(#paint1_linear_310_11009)"/>
<defs>
<linearGradient id="paint0_linear_310_11009" x1="9.9375" y1="13.6406" x2="33.3397" y2="33.497" gradientUnits="userSpaceOnUse">
<stop stop-color="white"/>
<stop offset="1" stop-color="#EDB0C5"/>
</linearGradient>
<linearGradient id="paint1_linear_310_11009" x1="16.1496" y1="16.8941" x2="28.737" y2="27.6385" gradientUnits="userSpaceOnUse">
<stop stop-color="#F977A2"/>
<stop offset="1" stop-color="#820D47"/>
</linearGradient>
</defs>
</svg>
