<svg width="40" height="44" viewBox="0 0 40 44" fill="none" xmlns="http://www.w3.org/2000/svg">
<path opacity="0.25" d="M20 44C24.9706 44 29 42.8807 29 41.5C29 40.1193 24.9706 39 20 39C15.0294 39 11 40.1193 11 41.5C11 42.8807 15.0294 44 20 44Z" fill="black"/>
<path opacity="0.5" d="M20 43C22.7614 43 25 42.3284 25 41.5C25 40.6716 22.7614 40 20 40C17.2386 40 15 40.6716 15 41.5C15 42.3284 17.2386 43 20 43Z" fill="black"/>
<path opacity="0.75" d="M20 42C21.1046 42 22 41.7761 22 41.5C22 41.2239 21.1046 41 20 41C18.8954 41 18 41.2239 18 41.5C18 41.7761 18.8954 42 20 42Z" fill="black"/>
<path d="M34 23.0073C34.0013 20.493 33.3255 18.0247 32.0435 15.8618C30.7615 13.6989 28.9207 11.9211 26.7144 10.7152C24.5082 9.50933 22.0179 8.91987 19.5051 9.00875C16.9924 9.09763 14.5499 9.86157 12.4344 11.2203C10.3188 12.5791 8.6082 14.4825 7.48225 16.7306C6.3563 18.9787 5.85655 21.4885 6.03551 23.9965C6.21447 26.5044 7.06553 28.9179 8.49929 30.9833C11.5214 35.3369 18.4402 41.2576 20 42C21.5597 41.2576 28.8395 35.1383 31.7757 30.5718C33.2266 28.3155 33.9986 25.6898 34 23.0073Z" fill="url(#paint0_linear_321_950)"/>
<circle cx="25" cy="22" r="3.59976" stroke="white" stroke-width="0.80047"/>
<path fill-rule="evenodd" clip-rule="evenodd" d="M25.0977 19.7002C24.8214 19.7002 24.5974 19.9242 24.5974 20.2005V22.4018C24.5974 22.6781 24.8214 22.9021 25.0977 22.9021C25.374 22.9021 25.598 22.6781 25.598 22.4018V20.2005C25.598 19.9242 25.374 19.7002 25.0977 19.7002ZM25.0977 23.3027C24.8214 23.3027 24.5974 23.5267 24.5974 23.803C24.5974 24.0793 24.8214 24.3033 25.0977 24.3033C25.374 24.3033 25.598 24.0793 25.598 23.803C25.598 23.5267 25.374 23.3027 25.0977 23.3027Z" fill="white"/>
<path d="M16.2864 29.1076C16.2864 30.4956 17.3968 31.8837 19.3402 31.8837C20.7282 31.8837 22.1718 30.7177 22.3939 29.3852C22.616 28.0526 21.7462 27.1642 21.2835 26.8866C21.0614 27.9971 20.0805 28.2747 19.6178 28.2747C19.8029 27.9971 20.173 27.1087 20.173 25.7762C20.173 24.4436 18.8775 23.3702 18.2297 23C18.7849 24.1105 18.7849 25.2209 17.9521 26.0538C17.1192 26.8866 16.2864 27.7195 16.2864 29.1076Z" fill="url(#paint1_linear_321_950)"/>
<path d="M21.8387 19.7195C21.376 18.7941 19.8953 16.1105 17.3968 15C17.6744 16.0179 18.5317 19.3644 16.2863 21.3852C13.5916 23.8104 11.42 28.3282 17.6423 31.1301C18.2615 31.4201 19.9 31.8 21.5 31C23.4404 30.0298 24.4395 28.5889 24.954 26.2208L25 26" stroke="white" stroke-linecap="round"/>
<defs>
<linearGradient id="paint0_linear_321_950" x1="9.9375" y1="13.6406" x2="33.3397" y2="33.497" gradientUnits="userSpaceOnUse">
<stop stop-color="#F9B690"/>
<stop offset="1" stop-color="#9C0401"/>
</linearGradient>
<linearGradient id="paint1_linear_321_950" x1="19.358" y1="23" x2="19.358" y2="31.8837" gradientUnits="userSpaceOnUse">
<stop stop-color="white" stop-opacity="0.25"/>
<stop offset="0.916667" stop-color="white"/>
</linearGradient>
</defs>
</svg>
