<svg width="45" height="63" viewBox="0 0 45 63" fill="none" xmlns="http://www.w3.org/2000/svg">
<ellipse cx="22.5" cy="55" rx="13.5" ry="7" fill="#D65063" fill-opacity="0.15"/>
<path d="M35.75 55C35.75 56.7921 34.3441 58.4765 31.9309 59.7278C29.5302 60.9726 26.1962 61.75 22.5 61.75C18.8038 61.75 15.4698 60.9726 13.0691 59.7278C10.6559 58.4765 9.25 56.7921 9.25 55C9.25 53.2079 10.6559 51.5235 13.0691 50.2722C15.4698 49.0274 18.8038 48.25 22.5 48.25C26.1962 48.25 29.5302 49.0274 31.9309 50.2722C34.3441 51.5235 35.75 53.2079 35.75 55Z" stroke="#D65063" stroke-opacity="0.05" stroke-width="0.5"/>
<g filter="url(#filter0_d_321_1068)">
<ellipse cx="22.5" cy="55" rx="9.5" ry="4" fill="#AF3546" fill-opacity="0.25" shape-rendering="crispEdges"/>
<path d="M31.75 55C31.75 55.4662 31.5267 55.9322 31.0771 56.3798C30.6265 56.8283 29.9618 57.2438 29.1205 57.598C27.4389 58.3061 25.0983 58.75 22.5 58.75C19.9017 58.75 17.5611 58.3061 15.8795 57.598C15.0382 57.2438 14.3735 56.8283 13.9229 56.3798C13.4733 55.9322 13.25 55.4662 13.25 55C13.25 54.5338 13.4733 54.0678 13.9229 53.6202C14.3735 53.1717 15.0382 52.7562 15.8795 52.402C17.5611 51.6939 19.9017 51.25 22.5 51.25C25.0983 51.25 27.4389 51.6939 29.1205 52.402C29.9618 52.7562 30.6265 53.1717 31.0771 53.6202C31.5267 54.0678 31.75 54.5338 31.75 55Z" stroke="#AF3546" stroke-opacity="0.05" stroke-width="0.5" shape-rendering="crispEdges"/>
</g>
<g opacity="0.5" filter="url(#filter1_d_321_1068)">
<ellipse cx="22.5" cy="55" rx="5.5" ry="2" fill="#AF3546"/>
</g>
<g opacity="0.75" filter="url(#filter2_d_321_1068)">
<ellipse cx="22.5" cy="55" rx="2.5" ry="1" fill="#741223"/>
</g>
<g filter="url(#filter3_ii_321_1068)">
<path d="M37.7005 37.9381C40.708 34.9943 42.7563 31.2434 43.5864 27.1598C44.4165 23.0762 43.9911 18.8433 42.364 14.9964C40.7369 11.1495 37.9812 7.86149 34.4454 5.54813C30.9096 3.23476 26.7526 2 22.5 2C18.2474 2 14.0904 3.23476 10.5546 5.54813C7.01877 7.86149 4.26307 11.1495 2.63598 14.9964C1.00888 18.8433 0.583493 23.0762 1.4136 27.1598C2.24371 31.2434 4.29203 34.9943 7.29951 37.9381C8.82497 39.4352 11.577 42.176 14.5022 45.0847C20 50.5825 22 55 22.5 55C23 55 25.0847 50.5 30.5 45.0847C33.5336 42.0692 36.3579 39.2562 37.7005 37.9381Z" fill="url(#paint0_linear_321_1068)"/>
</g>
<g opacity="0.5" filter="url(#filter4_iiii_321_1068)">
<circle cx="22.5" cy="23.5" r="15.5" fill="#8B1733"/>
</g>
<path d="M18.7356 18.8683C18.8031 18.2047 19.3619 17.7 20.0289 17.7H24.9711C25.6381 17.7 26.1969 18.2047 26.2644 18.8683L27.2251 28.3H17.7749L18.7356 18.8683Z" stroke="url(#paint1_linear_321_1068)" stroke-width="1.4"/>
<path d="M16.75 29C16.75 28.5858 17.0858 28.25 17.5 28.25H27.5C27.9142 28.25 28.25 28.5858 28.25 29V30.75H16.75V29Z" stroke="white" stroke-width="1.5"/>
<path d="M22 27.5C22 27.7761 22.2239 28 22.5 28C22.7761 28 23 27.7761 23 27.5H22ZM22 23.5V27.5H23V23.5H22Z" fill="url(#paint2_linear_321_1068)"/>
<circle opacity="0.5" cx="22.5" cy="22.5" r="2.5" fill="white"/>
<circle cx="22.5" cy="22.5" r="1.5" fill="white"/>
<path d="M34 15L23 22.5L34 30V15Z" fill="url(#paint3_linear_321_1068)"/>
<path d="M11 30L22 22.5L11 15L11 30Z" fill="url(#paint4_linear_321_1068)"/>
<defs>
<filter id="filter0_d_321_1068" x="9" y="47" width="27" height="16" filterUnits="userSpaceOnUse" color-interpolation-filters="sRGB">
<feFlood flood-opacity="0" result="BackgroundImageFix"/>
<feColorMatrix in="SourceAlpha" type="matrix" values="0 0 0 0 0 0 0 0 0 0 0 0 0 0 0 0 0 0 127 0" result="hardAlpha"/>
<feOffset/>
<feGaussianBlur stdDeviation="2"/>
<feComposite in2="hardAlpha" operator="out"/>
<feColorMatrix type="matrix" values="0 0 0 0 0 0 0 0 0 0 0 0 0 0 0 0 0 0 0.24 0"/>
<feBlend mode="normal" in2="BackgroundImageFix" result="effect1_dropShadow_321_1068"/>
<feBlend mode="normal" in="SourceGraphic" in2="effect1_dropShadow_321_1068" result="shape"/>
</filter>
<filter id="filter1_d_321_1068" x="13" y="49" width="19" height="12" filterUnits="userSpaceOnUse" color-interpolation-filters="sRGB">
<feFlood flood-opacity="0" result="BackgroundImageFix"/>
<feColorMatrix in="SourceAlpha" type="matrix" values="0 0 0 0 0 0 0 0 0 0 0 0 0 0 0 0 0 0 127 0" result="hardAlpha"/>
<feOffset/>
<feGaussianBlur stdDeviation="2"/>
<feComposite in2="hardAlpha" operator="out"/>
<feColorMatrix type="matrix" values="0 0 0 0 0 0 0 0 0 0 0 0 0 0 0 0 0 0 0.4 0"/>
<feBlend mode="normal" in2="BackgroundImageFix" result="effect1_dropShadow_321_1068"/>
<feBlend mode="normal" in="SourceGraphic" in2="effect1_dropShadow_321_1068" result="shape"/>
</filter>
<filter id="filter2_d_321_1068" x="16" y="50" width="13" height="10" filterUnits="userSpaceOnUse" color-interpolation-filters="sRGB">
<feFlood flood-opacity="0" result="BackgroundImageFix"/>
<feColorMatrix in="SourceAlpha" type="matrix" values="0 0 0 0 0 0 0 0 0 0 0 0 0 0 0 0 0 0 127 0" result="hardAlpha"/>
<feOffset/>
<feGaussianBlur stdDeviation="2"/>
<feComposite in2="hardAlpha" operator="out"/>
<feColorMatrix type="matrix" values="0 0 0 0 0 0 0 0 0 0 0 0 0 0 0 0 0 0 0.4 0"/>
<feBlend mode="normal" in2="BackgroundImageFix" result="effect1_dropShadow_321_1068"/>
<feBlend mode="normal" in="SourceGraphic" in2="effect1_dropShadow_321_1068" result="shape"/>
</filter>
<filter id="filter3_ii_321_1068" x="-1" y="-1" width="47" height="58" filterUnits="userSpaceOnUse" color-interpolation-filters="sRGB">
<feFlood flood-opacity="0" result="BackgroundImageFix"/>
<feBlend mode="normal" in="SourceGraphic" in2="BackgroundImageFix" result="shape"/>
<feColorMatrix in="SourceAlpha" type="matrix" values="0 0 0 0 0 0 0 0 0 0 0 0 0 0 0 0 0 0 127 0" result="hardAlpha"/>
<feOffset dx="-2" dy="-3"/>
<feGaussianBlur stdDeviation="3.5"/>
<feComposite in2="hardAlpha" operator="arithmetic" k2="-1" k3="1"/>
<feColorMatrix type="matrix" values="0 0 0 0 0.994417 0 0 0 0 0.720833 0 0 0 0 1 0 0 0 0.12 0"/>
<feBlend mode="normal" in2="shape" result="effect1_innerShadow_321_1068"/>
<feColorMatrix in="SourceAlpha" type="matrix" values="0 0 0 0 0 0 0 0 0 0 0 0 0 0 0 0 0 0 127 0" result="hardAlpha"/>
<feOffset dx="2" dy="2"/>
<feGaussianBlur stdDeviation="3"/>
<feComposite in2="hardAlpha" operator="arithmetic" k2="-1" k3="1"/>
<feColorMatrix type="matrix" values="0 0 0 0 1 0 0 0 0 1 0 0 0 0 1 0 0 0 0.5 0"/>
<feBlend mode="normal" in2="effect1_innerShadow_321_1068" result="effect2_innerShadow_321_1068"/>
</filter>
<filter id="filter4_iiii_321_1068" x="4" y="5" width="37" height="37" filterUnits="userSpaceOnUse" color-interpolation-filters="sRGB">
<feFlood flood-opacity="0" result="BackgroundImageFix"/>
<feBlend mode="normal" in="SourceGraphic" in2="BackgroundImageFix" result="shape"/>
<feColorMatrix in="SourceAlpha" type="matrix" values="0 0 0 0 0 0 0 0 0 0 0 0 0 0 0 0 0 0 127 0" result="hardAlpha"/>
<feOffset dx="0.5" dy="0.5"/>
<feGaussianBlur stdDeviation="0.25"/>
<feComposite in2="hardAlpha" operator="arithmetic" k2="-1" k3="1"/>
<feColorMatrix type="matrix" values="0 0 0 0 0 0 0 0 0 0 0 0 0 0 0 0 0 0 1 0"/>
<feBlend mode="normal" in2="shape" result="effect1_innerShadow_321_1068"/>
<feColorMatrix in="SourceAlpha" type="matrix" values="0 0 0 0 0 0 0 0 0 0 0 0 0 0 0 0 0 0 127 0" result="hardAlpha"/>
<feOffset dx="-0.5" dy="-0.5"/>
<feGaussianBlur stdDeviation="0.25"/>
<feComposite in2="hardAlpha" operator="arithmetic" k2="-1" k3="1"/>
<feColorMatrix type="matrix" values="0 0 0 0 1 0 0 0 0 1 0 0 0 0 1 0 0 0 0.33 0"/>
<feBlend mode="normal" in2="effect1_innerShadow_321_1068" result="effect2_innerShadow_321_1068"/>
<feColorMatrix in="SourceAlpha" type="matrix" values="0 0 0 0 0 0 0 0 0 0 0 0 0 0 0 0 0 0 127 0" result="hardAlpha"/>
<feOffset dx="3" dy="3"/>
<feGaussianBlur stdDeviation="1.5"/>
<feComposite in2="hardAlpha" operator="arithmetic" k2="-1" k3="1"/>
<feColorMatrix type="matrix" values="0 0 0 0 0 0 0 0 0 0 0 0 0 0 0 0 0 0 0.75 0"/>
<feBlend mode="normal" in2="effect2_innerShadow_321_1068" result="effect3_innerShadow_321_1068"/>
<feColorMatrix in="SourceAlpha" type="matrix" values="0 0 0 0 0 0 0 0 0 0 0 0 0 0 0 0 0 0 127 0" result="hardAlpha"/>
<feOffset dx="-3" dy="-3"/>
<feGaussianBlur stdDeviation="1.5"/>
<feComposite in2="hardAlpha" operator="arithmetic" k2="-1" k3="1"/>
<feColorMatrix type="matrix" values="0 0 0 0 1 0 0 0 0 1 0 0 0 0 1 0 0 0 0.2 0"/>
<feBlend mode="normal" in2="effect3_innerShadow_321_1068" result="effect4_innerShadow_321_1068"/>
</filter>
<linearGradient id="paint0_linear_321_1068" x1="11.5" y1="3" x2="35.3929" y2="52.3791" gradientUnits="userSpaceOnUse">
<stop stop-color="#FF787E"/>
<stop offset="0.551241" stop-color="#CF162D"/>
<stop offset="1" stop-color="#BA57BC"/>
</linearGradient>
<linearGradient id="paint1_linear_321_1068" x1="22.5" y1="22.5" x2="22.5" y2="31.5" gradientUnits="userSpaceOnUse">
<stop stop-color="white"/>
<stop offset="1" stop-color="white" stop-opacity="0"/>
</linearGradient>
<linearGradient id="paint2_linear_321_1068" x1="23" y1="25" x2="23" y2="29" gradientUnits="userSpaceOnUse">
<stop stop-color="white"/>
<stop offset="1" stop-color="white" stop-opacity="0"/>
</linearGradient>
<linearGradient id="paint3_linear_321_1068" x1="23" y1="22.5" x2="33.4211" y2="22.5" gradientUnits="userSpaceOnUse">
<stop stop-color="white"/>
<stop offset="1" stop-color="white" stop-opacity="0"/>
</linearGradient>
<linearGradient id="paint4_linear_321_1068" x1="22" y1="22.5" x2="11.5789" y2="22.5" gradientUnits="userSpaceOnUse">
<stop stop-color="white"/>
<stop offset="1" stop-color="white" stop-opacity="0"/>
</linearGradient>
</defs>
</svg>
