<svg width="40" height="44" viewBox="0 0 40 44" fill="none" xmlns="http://www.w3.org/2000/svg">
<path opacity="0.25" d="M20 44C24.9706 44 29 42.8807 29 41.5C29 40.1193 24.9706 39 20 39C15.0294 39 11 40.1193 11 41.5C11 42.8807 15.0294 44 20 44Z" fill="black"/>
<path opacity="0.5" d="M20 43C22.7614 43 25 42.3284 25 41.5C25 40.6716 22.7614 40 20 40C17.2386 40 15 40.6716 15 41.5C15 42.3284 17.2386 43 20 43Z" fill="black"/>
<path opacity="0.75" d="M20 42C21.1046 42 22 41.7761 22 41.5C22 41.2239 21.1046 41 20 41C18.8954 41 18 41.2239 18 41.5C18 41.7761 18.8954 42 20 42Z" fill="black"/>
<path d="M34 23.0073C34.0013 20.493 33.3255 18.0247 32.0435 15.8618C30.7615 13.6989 28.9207 11.9211 26.7144 10.7152C24.5082 9.50933 22.0179 8.91987 19.5051 9.00875C16.9924 9.09763 14.5499 9.86157 12.4344 11.2203C10.3188 12.5791 8.6082 14.4825 7.48225 16.7306C6.3563 18.9787 5.85655 21.4885 6.03551 23.9965C6.21447 26.5044 7.06553 28.9179 8.49929 30.9833C11.5214 35.3369 18.4402 41.2576 20 42C21.5597 41.2576 28.8395 35.1383 31.7757 30.5718C33.2266 28.3155 33.9986 25.6898 34 23.0073Z" fill="url(#paint0_linear_321_975)"/>
<path fill-rule="evenodd" clip-rule="evenodd" d="M17.5999 14.5431L16.6372 14.1152L16.9144 15.1315C17.0509 15.6322 17.3175 16.6641 17.2878 17.8035C17.2583 18.9393 16.937 20.1269 15.9518 21.0135C14.562 22.2644 13.2341 24.114 13.1212 26.0878C13.0638 27.0916 13.3231 28.1104 14.0237 29.0627C14.718 30.0066 15.8273 30.8607 17.4337 31.5846C18.1523 31.9196 19.9535 32.3323 21.7236 31.4472C22.7554 30.9313 23.5575 30.2788 24.1683 29.4257C24.7762 28.5765 25.1758 27.5549 25.4426 26.3269L25.4426 26.327L25.4435 26.3229L25.4895 26.102C25.4988 26.0573 25.5019 26.0127 25.4992 25.9691C27.4727 25.7234 29 24.0401 29 22C29 19.7908 27.2092 18 25 18C23.8777 18 22.8634 18.4622 22.1369 19.2066C21.5385 18.0775 20.0376 15.6265 17.5999 14.5431ZM21.4908 20.0788C21.4513 20.0405 21.4174 19.995 21.3914 19.9431C20.9967 19.1535 19.9019 17.1816 18.1358 15.9837C18.2308 16.5125 18.3051 17.1513 18.2875 17.8295C18.2537 19.1266 17.881 20.6226 16.6208 21.7568C15.3159 22.9312 14.2106 24.553 14.1196 26.1449C14.0751 26.924 14.2711 27.7116 14.8292 28.4702C15.1861 28.9554 15.6985 29.4383 16.4078 29.8992C16.3275 29.6419 16.2863 29.3747 16.2863 29.1075C16.2863 27.7195 17.1192 26.8866 17.952 26.0538C18.7849 25.2209 18.7849 24.1104 18.2296 23C18.8774 23.3701 20.173 24.4436 20.173 25.7761C20.173 27.1087 19.8028 27.9971 19.6177 28.2747C20.0804 28.2747 21.0613 27.9971 21.2834 26.8866C21.7461 27.1642 22.616 28.0526 22.3939 29.3852C22.3592 29.5936 22.2945 29.798 22.2049 29.9945C22.6647 29.6606 23.042 29.281 23.3552 28.8435C23.8602 28.1381 24.2172 27.2559 24.4649 26.1168L24.4958 25.9685C22.5247 25.7206 21 24.0383 21 22C21 21.3037 21.1779 20.649 21.4908 20.0788ZM28.1995 22C28.1995 23.767 26.7671 25.1995 25 25.1995C23.233 25.1995 21.8005 23.767 21.8005 22C21.8005 20.2329 23.233 18.8004 25 18.8004C26.7671 18.8004 28.1995 20.2329 28.1995 22ZM24.5975 20.2005C24.5975 19.9242 24.8215 19.7002 25.0978 19.7002C25.3741 19.7002 25.5981 19.9242 25.5981 20.2005V22.4018C25.5981 22.6781 25.3741 22.902 25.0978 22.902C24.8215 22.902 24.5975 22.6781 24.5975 22.4018V20.2005ZM24.5975 23.803C24.5975 23.5267 24.8215 23.3027 25.0978 23.3027C25.3741 23.3027 25.5981 23.5267 25.5981 23.803C25.5981 24.0793 25.3741 24.3033 25.0978 24.3033C24.8215 24.3033 24.5975 24.0793 24.5975 23.803Z" fill="url(#paint1_linear_321_975)"/>
<defs>
<linearGradient id="paint0_linear_321_975" x1="9.9375" y1="13.6406" x2="33.3397" y2="33.497" gradientUnits="userSpaceOnUse">
<stop stop-color="white"/>
<stop offset="1" stop-color="#E0ACA1"/>
</linearGradient>
<linearGradient id="paint1_linear_321_975" x1="15.3476" y1="16.6273" x2="28.0993" y2="27.9676" gradientUnits="userSpaceOnUse">
<stop stop-color="#FB8C6B"/>
<stop offset="1" stop-color="#780200"/>
</linearGradient>
</defs>
</svg>
