<svg width="40" height="44" viewBox="0 0 40 44" fill="none" xmlns="http://www.w3.org/2000/svg">
<path opacity="0.25" d="M20 44C24.9706 44 29 42.8807 29 41.5C29 40.1193 24.9706 39 20 39C15.0294 39 11 40.1193 11 41.5C11 42.8807 15.0294 44 20 44Z" fill="black"/>
<path opacity="0.5" d="M20 43C22.7614 43 25 42.3284 25 41.5C25 40.6716 22.7614 40 20 40C17.2386 40 15 40.6716 15 41.5C15 42.3284 17.2386 43 20 43Z" fill="black"/>
<path opacity="0.75" d="M20 42C21.1046 42 22 41.7761 22 41.5C22 41.2239 21.1046 41 20 41C18.8954 41 18 41.2239 18 41.5C18 41.7761 18.8954 42 20 42Z" fill="black"/>
<path d="M34 16.0073C34.0013 13.493 33.3255 11.0247 32.0435 8.8618C30.7615 6.69886 28.9207 4.92107 26.7144 3.7152C24.5082 2.50933 22.0179 1.91987 19.5051 2.00875C16.9924 2.09763 14.5499 2.86157 12.4344 4.22031C10.3188 5.57905 8.6082 7.48245 7.48225 9.73056C6.3563 11.9787 5.85655 14.4885 6.03551 16.9965C6.21447 19.5044 7.06553 21.9179 8.49929 23.9833C13.0967 30.6063 17.5 34 20 41C22.5 34 27 30.5 31.7757 23.5718C33.2266 21.3155 33.9986 18.6898 34 16.0073Z" fill="url(#paint0_linear_375_10932)" stroke="white" stroke-width="1.5" stroke-linejoin="round"/>
<path fill-rule="evenodd" clip-rule="evenodd" d="M13 13.4552V15.1931L20.2 8.73793L27.4 15.1931V13.4552L25.615 11.8548V8.52663H26.091V7.65391H23.4728V8.52663H23.9489V10.361L20.2 7L13 13.4552Z" fill="white"/>
<path fill-rule="evenodd" clip-rule="evenodd" d="M16.9271 15.5103C16.9457 15.5103 16.964 15.5095 16.9822 15.508C17.1163 15.8905 17.4806 16.1648 17.909 16.1648C18.4512 16.1648 18.8908 15.7252 18.8908 15.183C18.8908 14.6407 18.4512 14.2012 17.909 14.2012C17.7067 14.2012 17.5188 14.2623 17.3626 14.3671C17.2469 14.2639 17.0943 14.2012 16.9271 14.2012C16.5656 14.2012 16.2726 14.4942 16.2726 14.8557C16.2726 15.2172 16.5656 15.5103 16.9271 15.5103ZM17.5817 21.0742C17.5817 21.0141 17.5736 20.9559 17.5584 20.9006C17.5255 20.506 17.446 19.9059 17.2544 19.18C17.1541 18.8 17.1933 18.3749 17.266 17.9674L17.6676 18.369C17.7305 18.4319 17.8071 18.4792 17.8915 18.5073L19.3642 18.9983C19.3798 19.0035 19.3954 19.0079 19.4111 19.0117C19.5953 19.0818 19.8108 19.0548 19.9751 18.922L21.0417 18.0604L20.2566 19.8269C20.1624 20.0387 20.1873 20.2845 20.3221 20.4732L21.8009 22.5435L21.5182 24.2397C21.4587 24.5962 21.6996 24.9335 22.0562 24.9929C22.4128 25.0523 22.75 24.8115 22.8094 24.4549L23.1367 22.4912C23.1652 22.32 23.1246 22.1444 23.0237 22.0032L21.6048 20.0167L22.47 18.0699L24.1216 19.2497C24.1923 19.3002 24.2705 19.3323 24.3506 19.347C24.3076 19.5008 24.291 19.6465 24.291 19.7656V24.3474C24.291 24.6186 24.5108 24.8383 24.7819 24.8383C25.053 24.8383 25.2728 24.6186 25.2728 24.3474V19.7656C25.2728 19.6805 25.3023 19.542 25.3766 19.4388C25.4329 19.3607 25.531 19.2747 25.7637 19.2747C25.9964 19.2747 26.0945 19.3607 26.1508 19.4388C26.225 19.542 26.2546 19.6805 26.2546 19.7656C26.2546 20.0367 26.4744 20.2565 26.7455 20.2565C27.0166 20.2565 27.2364 20.0367 27.2364 19.7656C27.2364 19.5234 27.1678 19.1711 26.9475 18.8651C26.7093 18.5342 26.3164 18.2929 25.7637 18.2929C25.4408 18.2929 25.1725 18.3752 24.9576 18.5097C24.9175 18.4358 24.8604 18.3697 24.7874 18.3176L22.867 16.9459C22.8675 16.8783 22.856 16.8096 22.8311 16.7425C22.7212 16.4459 22.3916 16.2946 22.095 16.4046L20.6556 16.9382C20.5973 16.9598 20.543 16.9907 20.4947 17.0297L19.4976 17.8353L18.382 17.4634L17.4819 16.5634C17.4616 16.4053 17.3953 16.2901 17.2544 16.2345C16.5226 15.946 15.9454 16.8891 15.2908 18.129C14.6363 19.3689 14.6363 20.9654 14.6363 21.4017H16.2726V24.347C16.2726 24.7084 16.5656 25.0015 16.9271 25.0015C17.2886 25.0015 17.5817 24.7084 17.5817 24.347V21.4017H17.5817L17.5817 21.3799V21.0742ZM14.3297 22.0216L15.6338 22.0299L14.3164 24.3818C14.161 24.6592 13.8093 24.7567 13.5332 24.5991C13.2601 24.4431 13.164 24.0959 13.3181 23.8217L14.3297 22.0216ZM24.1273 15.183C24.1273 15.7252 23.6877 16.1648 23.1454 16.1648C22.6032 16.1648 22.1636 15.7252 22.1636 15.183C22.1636 14.6407 22.6032 14.2012 23.1454 14.2012C23.6877 14.2012 24.1273 14.6407 24.1273 15.183ZM20.6086 22.383L19.9406 21.4012L18.5223 23.8847C18.3645 24.1611 18.4606 24.5132 18.737 24.6711C19.011 24.8275 19.3598 24.7347 19.5197 24.4628L20.6078 22.6134C20.6496 22.5424 20.6499 22.4544 20.6086 22.383Z" fill="white"/>
<defs>
<linearGradient id="paint0_linear_375_10932" x1="9.9375" y1="7.48438" x2="36.4973" y2="26.5529" gradientUnits="userSpaceOnUse">
<stop stop-color="#FFADB1"/>
<stop offset="0.432292" stop-color="#FF5961"/>
<stop offset="1" stop-color="#770404"/>
</linearGradient>
</defs>
</svg>
