<svg width="40" height="44" viewBox="0 0 40 44" fill="none" xmlns="http://www.w3.org/2000/svg">
<path opacity="0.25" d="M20 44C24.9706 44 29 42.8807 29 41.5C29 40.1193 24.9706 39 20 39C15.0294 39 11 40.1193 11 41.5C11 42.8807 15.0294 44 20 44Z" fill="black"/>
<path opacity="0.5" d="M20 43C22.7614 43 25 42.3284 25 41.5C25 40.6716 22.7614 40 20 40C17.2386 40 15 40.6716 15 41.5C15 42.3284 17.2386 43 20 43Z" fill="black"/>
<path opacity="0.75" d="M20 42C21.1046 42 22 41.7761 22 41.5C22 41.2239 21.1046 41 20 41C18.8954 41 18 41.2239 18 41.5C18 41.7761 18.8954 42 20 42Z" fill="black"/>
<path d="M34 23.0073C34.0013 20.493 33.3255 18.0247 32.0435 15.8618C30.7615 13.6989 28.9207 11.9211 26.7144 10.7152C24.5082 9.50933 22.0179 8.91987 19.5051 9.00875C16.9924 9.09763 14.5499 9.86157 12.4344 11.2203C10.3188 12.5791 8.6082 14.4825 7.48225 16.7306C6.3563 18.9787 5.85655 21.4885 6.03551 23.9965C6.21447 26.5044 7.06553 28.9179 8.49929 30.9833C11.5214 35.3369 18.4402 41.2576 20 42C21.5597 41.2576 28.8395 35.1383 31.7757 30.5718C33.2266 28.3155 33.9986 25.6898 34 23.0073Z" fill="url(#paint0_linear_818_9660)"/>
<path fill-rule="evenodd" clip-rule="evenodd" d="M13 20.4552V22.1931L20.2 15.7379L27.4 22.1931V20.4552L25.615 18.8548V15.5266H26.091V14.6539H23.4728V15.5266H23.9489V17.361L20.2 14L13 20.4552Z" fill="white"/>
<path fill-rule="evenodd" clip-rule="evenodd" d="M16.9271 22.5103C16.9457 22.5103 16.964 22.5095 16.9822 22.508C17.1163 22.8905 17.4806 23.1648 17.909 23.1648C18.4512 23.1648 18.8908 22.7252 18.8908 22.183C18.8908 21.6407 18.4512 21.2012 17.909 21.2012C17.7067 21.2012 17.5188 21.2623 17.3626 21.3671C17.2469 21.2639 17.0943 21.2012 16.9271 21.2012C16.5656 21.2012 16.2726 21.4942 16.2726 21.8557C16.2726 22.2172 16.5656 22.5103 16.9271 22.5103ZM17.5817 28.0742C17.5817 28.0141 17.5736 27.9559 17.5584 27.9006C17.5255 27.506 17.446 26.9059 17.2544 26.18C17.1541 25.8 17.1933 25.3749 17.266 24.9674L17.6676 25.369C17.7305 25.4319 17.8071 25.4792 17.8915 25.5073L19.3642 25.9983C19.3798 26.0035 19.3954 26.0079 19.4111 26.0117C19.5953 26.0818 19.8108 26.0548 19.9751 25.922L21.0417 25.0604L20.2566 26.8269C20.1624 27.0387 20.1873 27.2845 20.3221 27.4732L21.8009 29.5435L21.5182 31.2397C21.4587 31.5962 21.6996 31.9335 22.0562 31.9929C22.4128 32.0523 22.75 31.8115 22.8094 31.4549L23.1367 29.4912C23.1652 29.32 23.1246 29.1444 23.0237 29.0032L21.6048 27.0167L22.47 25.0699L24.1216 26.2497C24.1923 26.3002 24.2705 26.3323 24.3506 26.347C24.3076 26.5008 24.291 26.6465 24.291 26.7656V31.3474C24.291 31.6186 24.5108 31.8383 24.7819 31.8383C25.053 31.8383 25.2728 31.6186 25.2728 31.3474V26.7656C25.2728 26.6805 25.3023 26.542 25.3766 26.4388C25.4329 26.3607 25.531 26.2747 25.7637 26.2747C25.9964 26.2747 26.0945 26.3607 26.1508 26.4388C26.225 26.542 26.2546 26.6805 26.2546 26.7656C26.2546 27.0367 26.4744 27.2565 26.7455 27.2565C27.0166 27.2565 27.2364 27.0367 27.2364 26.7656C27.2364 26.5234 27.1678 26.1711 26.9475 25.8651C26.7093 25.5342 26.3164 25.2929 25.7637 25.2929C25.4408 25.2929 25.1725 25.3752 24.9576 25.5097C24.9175 25.4358 24.8604 25.3697 24.7874 25.3176L22.867 23.9459C22.8675 23.8783 22.856 23.8096 22.8311 23.7425C22.7212 23.4459 22.3916 23.2946 22.095 23.4046L20.6556 23.9382C20.5973 23.9598 20.543 23.9907 20.4947 24.0297L19.4976 24.8353L18.382 24.4634L17.4819 23.5634C17.4616 23.4053 17.3953 23.2901 17.2544 23.2345C16.5226 22.946 15.9454 23.8891 15.2908 25.129C14.6363 26.3689 14.6363 27.9654 14.6363 28.4017H16.2726V31.347C16.2726 31.7084 16.5656 32.0015 16.9271 32.0015C17.2886 32.0015 17.5817 31.7084 17.5817 31.347V28.4017H17.5817L17.5817 28.3799V28.0742ZM14.3297 29.0216L15.6338 29.0299L14.3164 31.3818C14.161 31.6592 13.8093 31.7567 13.5332 31.5991C13.2601 31.4431 13.164 31.0959 13.3181 30.8217L14.3297 29.0216ZM24.1273 22.183C24.1273 22.7252 23.6877 23.1648 23.1454 23.1648C22.6032 23.1648 22.1636 22.7252 22.1636 22.183C22.1636 21.6407 22.6032 21.2012 23.1454 21.2012C23.6877 21.2012 24.1273 21.6407 24.1273 22.183ZM20.6086 29.383L19.9406 28.4012L18.5223 30.8847C18.3645 31.1611 18.4606 31.5132 18.737 31.6711C19.011 31.8275 19.3598 31.7347 19.5197 31.4628L20.6078 29.6134C20.6496 29.5424 20.6499 29.4544 20.6086 29.383Z" fill="white"/>
<defs>
<linearGradient id="paint0_linear_818_9660" x1="9.9375" y1="13.6406" x2="33.3397" y2="33.497" gradientUnits="userSpaceOnUse">
<stop stop-color="#FFD059"/>
<stop offset="1" stop-color="#752500"/>
</linearGradient>
</defs>
</svg>
