<svg width="40" height="44" viewBox="0 0 40 44" fill="none" xmlns="http://www.w3.org/2000/svg">
<path opacity="0.25" d="M20 44C24.9706 44 29 42.8807 29 41.5C29 40.1193 24.9706 39 20 39C15.0294 39 11 40.1193 11 41.5C11 42.8807 15.0294 44 20 44Z" fill="black"/>
<path opacity="0.5" d="M20 43C22.7614 43 25 42.3284 25 41.5C25 40.6716 22.7614 40 20 40C17.2386 40 15 40.6716 15 41.5C15 42.3284 17.2386 43 20 43Z" fill="black"/>
<path opacity="0.75" d="M20 42C21.1046 42 22 41.7761 22 41.5C22 41.2239 21.1046 41 20 41C18.8954 41 18 41.2239 18 41.5C18 41.7761 18.8954 42 20 42Z" fill="black"/>
<path d="M34 23.0073C34.0013 20.493 33.3255 18.0247 32.0435 15.8618C30.7615 13.6989 28.9207 11.9211 26.7144 10.7152C24.5082 9.50933 22.0179 8.91987 19.5051 9.00875C16.9924 9.09763 14.5499 9.86157 12.4344 11.2203C10.3188 12.5791 8.6082 14.4825 7.48225 16.7306C6.3563 18.9787 5.85655 21.4885 6.03551 23.9965C6.21447 26.5044 7.06553 28.9179 8.49929 30.9833C11.5214 35.3369 18.4402 41.2576 20 42C21.5597 41.2576 28.8395 35.1383 31.7757 30.5718C33.2266 28.3155 33.9986 25.6898 34 23.0073Z" fill="url(#paint0_linear_310_10920)"/>
<path opacity="0.75" fill-rule="evenodd" clip-rule="evenodd" d="M25.0528 22.0305L17.5645 17.7071C17.2704 17.5373 16.8943 17.6381 16.7245 17.9322L14.7074 21.4259C14.5376 21.72 14.6383 22.0961 14.9324 22.2659L22.4208 26.5893C22.7149 26.7591 23.0909 26.6583 23.2607 26.3642L25.2779 22.8705C25.4477 22.5764 25.3469 22.2003 25.0528 22.0305ZM18.0769 16.8196C17.2926 16.3668 16.2898 16.6355 15.837 17.4198L13.8198 20.9135C13.367 21.6978 13.6357 22.7006 14.42 23.1534L18.048 25.2481V25.2482V25.2509V25.2535V25.2562V25.2589V25.2615V25.2642V25.2669V25.2695V25.2722V25.2749V25.2775V25.2802V25.2828V25.2855V25.2881V25.2908V25.2934V25.2961V25.2987V25.3014V25.304V25.3067V25.3093V25.312V25.3146V25.3173V25.3199V25.3225V25.3252V25.3278V25.3304V25.3331V25.3357V25.3383V25.341V25.3436V25.3462V25.3489V25.3515V25.3541V25.3567V25.3594V25.362V25.3646V25.3672V25.3698V25.3725V25.3751V25.3777V25.3803V25.3829V25.3855V25.3882V25.3908V25.3934V25.396V25.3986V25.4012V25.4038V25.4064V25.4091V25.4117V25.4143V25.4169V25.4195V25.4221V25.4247V25.4273V25.4299V25.4325V25.4351V25.4377V25.4403V25.4429V25.4455V25.4481V25.4507V25.4533V25.4559V25.4585V25.4611V25.4637V25.4663V25.4689V25.4715V25.4741V25.4767V25.4792V25.4818V25.4844V25.487V25.4896V25.4922V25.4948V25.4974V25.5V25.5026V25.5052V25.5078V25.5103V25.5129V25.5155V25.5181V25.5207V25.5233V25.5259V25.5285V25.5311V25.5336V25.5362V25.5388V25.5414V25.544V25.5466V25.5492V25.5518V25.5544V25.5569V25.5595V25.5621V25.5647V25.5673V25.5699V25.5725V25.5751V25.5776V25.5802V25.5828V25.5854V25.588V25.5906V25.5932V25.5958V25.5984V25.601V25.6035V25.6061V25.6087V25.6113V25.6139V25.6165V25.6191V25.6217V25.6243V25.6269V25.6295V25.6321V25.6347V25.6372V25.6398V25.6424V25.645V25.6476V25.6502V25.6528V25.6554V25.658V25.6606V25.6632V25.6658V25.6684V25.671V25.6736V25.6762V25.6788V25.6814V25.684V25.6866V25.6892V25.6918V25.6945V25.6971V25.6997V25.7023V25.7049V25.7075V25.7101V25.7127V25.7153V25.7179V25.7206V25.7232V25.7258V25.7284V25.731V25.7336V25.7363V25.7389V25.7415V25.7441V25.7467V25.7494V25.752V25.7546V25.7572V25.7599V25.7625V25.7651V25.7678V25.7704V25.773V25.7757V25.7783V25.7809V25.7836V25.7862V25.7888V25.7915V25.7941V25.7968V25.7994V25.8021V25.8047V25.8074V25.81V25.8127V25.8153V25.818V25.8206V25.8233V25.8259V25.8286V25.8312V25.8339V25.8366V25.8392V25.8419V25.8446V25.8472V25.8499V25.8526V25.8552V25.8579V25.8606V25.8633V25.8659V25.8686V25.8713V25.874V25.8767V25.8794V25.882V25.8847V25.8874V25.8901V25.8928V25.8955V25.8982V25.9009V25.9036V25.9063V25.909V25.9117V25.9144V25.9171V25.9198V25.9225V25.9253V25.928V25.9307V25.9334V25.9361V25.9389V25.9416V25.9443V25.947V25.9498V25.9525V25.9552V25.958V25.9607V25.9634V25.9662V25.9689V25.9717V25.9744V25.9772V25.9799V25.9827V25.9854V25.9882V25.991V25.9937V25.9965V25.9993V26.002V26.0048V26.0076V26.0103V26.0131V26.0159V26.0187V26.0215V26.0243V26.027V26.0298V26.0326V26.0354V26.0382V26.041V26.0438V26.0466V26.0494V26.0522V26.0551V26.0579V26.0607V26.0635V26.0663V26.0692V26.072V26.0748V26.0776V26.0805V26.0833V26.0862V26.089V26.0918V26.0947V26.0975V26.1004V26.1032V26.1061V26.109V26.1118V26.1147V26.1176V26.1204V26.1233V26.1262V26.129V26.1319V26.1348V26.1377V26.1406V26.1435V26.1464V26.1493V26.1522V26.1551V26.158V26.1609V26.1638V26.1667V26.1696V26.1726V26.1755V26.1784V26.1813V26.1843V26.1872V26.1901V26.1931V26.196V26.199V26.2019V26.2049V26.2078V26.2108V26.2138V26.2167V26.2197V26.2227V26.2256V26.2286V26.2316V26.2346V26.2376V26.2406V26.2436V26.2466V26.2496V26.2526V26.2556V26.2586V26.2616V26.2646V26.2676V26.2706V26.2737V26.2767V26.2797V26.2828V26.2858V26.2889V26.2919V26.295V26.298V26.3011V26.3041V26.3072V26.3103V26.3133V26.3164V26.3195V26.3226V26.3256V26.3287V26.3318V26.3349V26.338V26.3411V26.3442V26.3473V26.3505V26.3536V26.3567V26.3598V26.3629V26.3661V26.3692V26.3724V26.3755V26.3786V26.3818V26.385V26.3881V26.3913V26.3944V26.3976V26.4008V26.404V26.4071V26.4103V26.4135V26.4167V26.4199V26.4231V26.4263V26.4295V26.4327V26.436V26.4392V26.4424V26.4456V26.4489V26.4521V26.4553V26.4586V26.4618V26.4651V26.4684V26.4716V26.4749V26.4782V26.4814V26.4847V26.488V26.4913V26.4946V26.4979V26.5012V26.5045V26.5078V26.5111V26.5144V26.5177V26.5211C18.048 26.8045 17.9749 27.128 17.7955 27.3672C17.6347 27.5816 17.3492 27.7834 16.7857 27.7834H16.779H16.7724H16.7659H16.7593H16.7528H16.7464H16.7399H16.7336H16.7272H16.7209H16.7146H16.7083H16.7021H16.6959H16.6898H16.6837H16.6776H16.6715H16.6655H16.6595H16.6536H16.6477H16.6418H16.6359H16.6301H16.6243H16.6186H16.6128H16.6071H16.6015H16.5958H16.5903H16.5847H16.5792H16.5736H16.5682H16.5627H16.5573H16.5519H16.5466H16.5413H16.536H16.5307H16.5255H16.5203H16.5151H16.51H16.5049H16.4998H16.4947H16.4897H16.4847H16.4798H16.4748H16.4699H16.465H16.4602H16.4553H16.4505H16.4458H16.441H16.4363H16.4316H16.427H16.4223H16.4177H16.4132H16.4086H16.4041H16.3996H16.3951H16.3906H16.3862H16.3818H16.3775H16.3731H16.3688H16.3645H16.3602H16.356H16.3518H16.3476H16.3434H16.3393H16.3351H16.331H16.327H16.3229H16.3189H16.3149H16.3109H16.3069H16.303H16.2991H16.2952H16.2914H16.2875H16.2837H16.2799H16.2761H16.2724H16.2686H16.2649H16.2612H16.2576H16.2539H16.2503H16.2467H16.2431H16.2396H16.236H16.2325H16.229H16.2255H16.2221H16.2187H16.2152H16.2118H16.2085H16.2051H16.2018H16.1984H16.1951H16.1919H16.1886H16.1854H16.1821H16.1789H16.1757H16.1726H16.1694H16.1663H16.1632H16.1601H16.157H16.1539H16.1509H16.1478H16.1448H16.1418H16.1388H16.1359H16.1329H16.13H16.1271H16.1242H16.1213H16.1184H16.1156H16.1128H16.1099H16.1071H16.1043H16.1016H16.0988H16.0961H16.0933H16.0906H16.0879H16.0852H16.0825H16.0799H16.0772H16.0746H16.072H16.0694H16.0668H16.0642H16.0616H16.0591H16.0565H16.054H16.0515H16.049H16.0465H16.044H16.0415H16.039H16.0366H16.0342H16.0317H16.0293H16.0269H16.0245H16.0221H16.0198H16.0174H16.0151H16.0127H16.0104H16.0081H16.0057H16.0034H16.0012H15.9989H15.9966H15.9943H15.9921H15.9898H15.9876H15.9854H15.9831H15.9809H15.9787H15.9765H15.9743H15.9721H15.97H15.9678H15.9656H15.9635H15.9613H15.9592H15.9571H15.9549H15.9528H15.9507H15.9486H15.9465H15.9444H15.9423H15.9402H15.9381H15.9361H15.934H15.9319H15.9299H15.9278H15.9258H15.9237H15.9217H15.9196H15.9176H15.9156H15.9136H15.9115H15.9095H15.9075H15.9055H15.9035H15.9015H15.8995H15.8975H15.8955H15.8935H15.8915H15.8895H15.8875H15.8855H15.8835H15.8816H15.8796H15.8776H15.8756H15.8736H15.8717H15.8697H15.8677H15.8657H15.8638H15.8618H15.8598H15.8579H15.8559H15.8539H15.8519H15.85H15.848H15.846H15.844H15.8421H15.8401H15.8381H15.8361H15.8341H15.8321H15.8302H15.8282H15.8262H15.8242H15.8222H15.8202H15.8182H15.8162H15.8142H15.8122H15.8101H15.8081H15.8061H15.8041H15.802H15.8H15.798H15.7959H15.7939H15.7918H15.7898H15.7877H15.7857H15.7836H15.7815H15.7794H15.7773H15.7753H15.7732H15.7711H15.7689H15.7668H15.7647H15.7626H15.7605H15.7583H15.7562H15.754H15.7518H15.7497H15.7475H15.7453H15.7431H15.7409H15.7387H15.7365H15.7343H15.732H15.7298H15.7276H15.7253H15.723H15.7208H15.7185H15.7162H15.7139H15.7116H15.7092H15.7069H15.7046H15.7022H15.6999H15.6975H15.6951H15.6927H15.6903H15.6879H15.6855H15.683H15.6806H15.6781H15.6756H15.6731H15.6706H15.6681H15.6656H15.6631H15.6605H15.658H15.6554H15.6528H15.6502H15.6476H15.645H15.6424H15.6397H15.6371H15.6344H15.6317H15.629H15.6263H15.6235H15.6208H15.618H15.6152H15.6124H15.6096H15.6068H15.604H15.6011H15.5983H15.5954H15.5925H15.5896H15.5866H15.5837H15.5807H15.5777H15.5747H15.5717H15.5687H15.5656H15.5626H15.5595H15.5564H15.5533H15.5501H15.547H15.5438H15.5406H15.5374H15.5342H15.5309H15.5277H15.5244H15.5211H15.5178H15.5144H15.5111H15.5077H15.5043H15.5009H15.4974H15.494H15.4905H15.487H15.4835H15.4799H15.4764H15.4728H15.4692H15.4656H15.4619H15.4583H15.4546H15.4509H15.4471H15.4434H15.4396H15.4358H15.432H15.4281H15.4243H15.4204H15.4165H15.4125H15.4086H15.4046H15.4006H15.3966H15.3925H15.3884H15.3843H15.3802H15.3761H15.3719H15.3677H15.3635H15.3592H15.3549H15.3506H15.3463H15.342H15.3405V27.1905C15.3405 26.6845 14.9737 26.264 14.4914 26.1807C14.4343 26.1709 14.3756 26.1657 14.3157 26.1657H13.4666V27.1905V29.4002V30.4251H14.3157C14.3756 30.4251 14.4343 30.4199 14.4914 30.4101C14.9737 30.3268 15.3405 29.9063 15.3405 29.4002V28.8082H15.342H15.3463H15.3506H15.3549H15.3592H15.3635H15.3677H15.3719H15.3761H15.3802H15.3843H15.3884H15.3925H15.3966H15.4006H15.4046H15.4086H15.4125H15.4165H15.4204H15.4243H15.4281H15.432H15.4358H15.4396H15.4434H15.4471H15.4509H15.4546H15.4583H15.4619H15.4656H15.4692H15.4728H15.4764H15.4799H15.4835H15.487H15.4905H15.494H15.4974H15.5009H15.5043H15.5077H15.5111H15.5144H15.5178H15.5211H15.5244H15.5277H15.5309H15.5342H15.5374H15.5406H15.5438H15.547H15.5501H15.5533H15.5564H15.5595H15.5626H15.5656H15.5687H15.5717H15.5747H15.5777H15.5807H15.5837H15.5866H15.5896H15.5925H15.5954H15.5983H15.6011H15.604H15.6068H15.6096H15.6124H15.6152H15.618H15.6208H15.6235H15.6263H15.629H15.6317H15.6344H15.6371H15.6397H15.6424H15.645H15.6476H15.6502H15.6528H15.6554H15.658H15.6605H15.6631H15.6656H15.6681H15.6706H15.6731H15.6756H15.6781H15.6806H15.683H15.6855H15.6879H15.6903H15.6927H15.6951H15.6975H15.6999H15.7022H15.7046H15.7069H15.7092H15.7116H15.7139H15.7162H15.7185H15.7208H15.723H15.7253H15.7276H15.7298H15.732H15.7343H15.7365H15.7387H15.7409H15.7431H15.7453H15.7475H15.7497H15.7518H15.754H15.7562H15.7583H15.7605H15.7626H15.7647H15.7668H15.7689H15.7711H15.7732H15.7753H15.7773H15.7794H15.7815H15.7836H15.7857H15.7877H15.7898H15.7918H15.7939H15.7959H15.798H15.8H15.802H15.8041H15.8061H15.8081H15.8101H15.8122H15.8142H15.8162H15.8182H15.8202H15.8222H15.8242H15.8262H15.8282H15.8302H15.8321H15.8341H15.8361H15.8381H15.8401H15.8421H15.844H15.846H15.848H15.85H15.8519H15.8539H15.8559H15.8579H15.8598H15.8618H15.8638H15.8657H15.8677H15.8697H15.8717H15.8736H15.8756H15.8776H15.8796H15.8816H15.8835H15.8855H15.8875H15.8895H15.8915H15.8935H15.8955H15.8975H15.8995H15.9015H15.9035H15.9055H15.9075H15.9095H15.9115H15.9136H15.9156H15.9176H15.9196H15.9217H15.9237H15.9258H15.9278H15.9299H15.9319H15.934H15.9361H15.9381H15.9402H15.9423H15.9444H15.9465H15.9486H15.9507H15.9528H15.9549H15.9571H15.9592H15.9613H15.9635H15.9656H15.9678H15.97H15.9721H15.9743H15.9765H15.9787H15.9809H15.9831H15.9854H15.9876H15.9898H15.9921H15.9943H15.9966H15.9989H16.0012H16.0034H16.0057H16.0081H16.0104H16.0127H16.0151H16.0174H16.0198H16.0221H16.0245H16.0269H16.0293H16.0317H16.0342H16.0366H16.039H16.0415H16.044H16.0465H16.049H16.0515H16.054H16.0565H16.0591H16.0616H16.0642H16.0668H16.0694H16.072H16.0746H16.0772H16.0799H16.0825H16.0852H16.0879H16.0906H16.0933H16.0961H16.0988H16.1016H16.1043H16.1071H16.1099H16.1128H16.1156H16.1184H16.1213H16.1242H16.1271H16.13H16.1329H16.1359H16.1388H16.1418H16.1448H16.1478H16.1509H16.1539H16.157H16.1601H16.1632H16.1663H16.1694H16.1726H16.1757H16.1789H16.1821H16.1854H16.1886H16.1919H16.1951H16.1984H16.2018H16.2051H16.2085H16.2118H16.2152H16.2187H16.2221H16.2255H16.229H16.2325H16.236H16.2396H16.2431H16.2467H16.2503H16.2539H16.2576H16.2612H16.2649H16.2686H16.2724H16.2761H16.2799H16.2837H16.2875H16.2914H16.2952H16.2991H16.303H16.3069H16.3109H16.3149H16.3189H16.3229H16.327H16.331H16.3351H16.3393H16.3434H16.3476H16.3518H16.356H16.3602H16.3645H16.3688H16.3731H16.3775H16.3818H16.3862H16.3906H16.3951H16.3996H16.4041H16.4086H16.4132H16.4177H16.4223H16.427H16.4316H16.4363H16.441H16.4458H16.4505H16.4553H16.4602H16.465H16.4699H16.4748H16.4798H16.4847H16.4897H16.4947H16.4998H16.5049H16.51H16.5151H16.5203H16.5255H16.5307H16.536H16.5413H16.5466H16.5519H16.5573H16.5627H16.5682H16.5736H16.5792H16.5847H16.5903H16.5958H16.6015H16.6071H16.6128H16.6186H16.6243H16.6301H16.6359H16.6418H16.6477H16.6536H16.6595H16.6655H16.6715H16.6776H16.6837H16.6898H16.6959H16.7021H16.7083H16.7146H16.7209H16.7272H16.7336H16.7399H16.7464H16.7528H16.7593H16.7659H16.7724H16.779H16.7857C17.6419 28.8082 18.2438 28.4776 18.6154 27.9821C18.9684 27.5114 19.0728 26.9475 19.0728 26.5211V26.5177V26.5144V26.5111V26.5078V26.5045V26.5012V26.4979V26.4946V26.4913V26.488V26.4847V26.4814V26.4782V26.4749V26.4716V26.4684V26.4651V26.4618V26.4586V26.4553V26.4521V26.4489V26.4456V26.4424V26.4392V26.436V26.4327V26.4295V26.4263V26.4231V26.4199V26.4167V26.4135V26.4103V26.4071V26.404V26.4008V26.3976V26.3944V26.3913V26.3881V26.385V26.3818V26.3786V26.3755V26.3724V26.3692V26.3661V26.3629V26.3598V26.3567V26.3536V26.3505V26.3473V26.3442V26.3411V26.338V26.3349V26.3318V26.3287V26.3256V26.3226V26.3195V26.3164V26.3133V26.3103V26.3072V26.3041V26.3011V26.298V26.295V26.2919V26.2889V26.2858V26.2828V26.2797V26.2767V26.2737V26.2706V26.2676V26.2646V26.2616V26.2586V26.2556V26.2526V26.2496V26.2466V26.2436V26.2406V26.2376V26.2346V26.2316V26.2286V26.2256V26.2227V26.2197V26.2167V26.2138V26.2108V26.2078V26.2049V26.2019V26.199V26.196V26.1931V26.1901V26.1872V26.1843V26.1813V26.1784V26.1755V26.1726V26.1696V26.1667V26.1638V26.1609V26.158V26.1551V26.1522V26.1493V26.1464V26.1435V26.1406V26.1377V26.1348V26.1319V26.129V26.1262V26.1233V26.1204V26.1176V26.1147V26.1118V26.109V26.1061V26.1032V26.1004V26.0975V26.0947V26.0918V26.089V26.0862V26.0833V26.0805V26.0776V26.0748V26.072V26.0692V26.0663V26.0635V26.0607V26.0579V26.0551V26.0522V26.0494V26.0466V26.0438V26.041V26.0382V26.0354V26.0326V26.0298V26.027V26.0243V26.0215V26.0187V26.0159V26.0131V26.0103V26.0076V26.0048V26.002V25.9993V25.9965V25.9937V25.991V25.9882V25.9854V25.9827V25.9799V25.9772V25.9744V25.9717V25.9689V25.9662V25.9634V25.9607V25.958V25.9552V25.9525V25.9498V25.947V25.9443V25.9416V25.9389V25.9361V25.9334V25.9307V25.928V25.9253V25.9225V25.9198V25.9171V25.9144V25.9117V25.909V25.9063V25.9036V25.9009V25.8982V25.8955V25.8928V25.8901V25.8874V25.8847V25.882V25.8794V25.8767V25.874V25.8713V25.8686V25.8659V25.8633V25.8606V25.8579V25.8552V25.8526V25.8499V25.8472V25.8446V25.8419V25.8397L21.9083 27.4768C22.6926 27.9296 23.6955 27.6609 24.1483 26.8766L24.6568 25.9958L25.4523 27.7674C25.7488 28.4276 26.6684 28.4744 27.0303 27.8476L28.3695 25.528C28.7314 24.9012 28.2311 24.1282 27.5111 24.2015L25.5791 24.3984L26.1654 23.3829C26.6182 22.5986 26.3495 21.5957 25.5652 21.1429L18.0769 16.8196ZM26.2771 27.1024L25.5278 25.4337L27.3476 25.2483L26.2771 27.1024ZM19.7667 21.2504L17.4634 19.9206L16.7985 21.0722L19.1018 22.402L19.7667 21.2504Z" fill="url(#paint1_linear_310_10920)"/>
<defs>
<linearGradient id="paint0_linear_310_10920" x1="9.9375" y1="13.6406" x2="33.3397" y2="33.497" gradientUnits="userSpaceOnUse">
<stop stop-color="white"/>
<stop offset="1" stop-color="#60AEC8"/>
</linearGradient>
<linearGradient id="paint1_linear_310_10920" x1="15.5793" y1="18.5438" x2="22.1675" y2="28.5482" gradientUnits="userSpaceOnUse">
<stop stop-color="#2ECCD1"/>
<stop offset="1" stop-color="#0B2751"/>
</linearGradient>
</defs>
</svg>
