<svg width="40" height="44" viewBox="0 0 40 44" fill="none" xmlns="http://www.w3.org/2000/svg">
<path opacity="0.25" d="M20 44C24.9706 44 29 42.8807 29 41.5C29 40.1193 24.9706 39 20 39C15.0294 39 11 40.1193 11 41.5C11 42.8807 15.0294 44 20 44Z" fill="black"/>
<path opacity="0.5" d="M20 43C22.7614 43 25 42.3284 25 41.5C25 40.6716 22.7614 40 20 40C17.2386 40 15 40.6716 15 41.5C15 42.3284 17.2386 43 20 43Z" fill="black"/>
<path opacity="0.75" d="M20 42C21.1046 42 22 41.7761 22 41.5C22 41.2239 21.1046 41 20 41C18.8954 41 18 41.2239 18 41.5C18 41.7761 18.8954 42 20 42Z" fill="black"/>
<path d="M34 23.0073C34.0013 20.493 33.3255 18.0247 32.0435 15.8618C30.7615 13.6989 28.9207 11.9211 26.7144 10.7152C24.5082 9.50933 22.0179 8.91987 19.5051 9.00875C16.9924 9.09763 14.5499 9.86157 12.4344 11.2203C10.3188 12.5791 8.6082 14.4825 7.48225 16.7306C6.3563 18.9787 5.85655 21.4885 6.03551 23.9965C6.21447 26.5044 7.06553 28.9179 8.49929 30.9833C11.5214 35.3369 18.4402 41.2576 20 42C21.5597 41.2576 28.8395 35.1383 31.7757 30.5718C33.2266 28.3155 33.9986 25.6898 34 23.0073Z" fill="url(#paint0_linear_321_856)"/>
<path fill-rule="evenodd" clip-rule="evenodd" d="M15.5 24C16.1531 24 16.7087 23.5826 16.9146 23H16.5C16.2239 23 16 22.7761 16 22.5C16 22.2239 16.2239 22 16.5 22H16.9146C16.7087 21.4174 16.1531 21 15.5 21C14.8469 21 14.2913 21.4174 14.0854 22H14.5C14.7761 22 15 22.2239 15 22.5C15 22.7761 14.7761 23 14.5 23H14.0854C14.2913 23.5826 14.8469 24 15.5 24ZM16 24.95C17.1411 24.7184 18 23.7095 18 22.5C18 21.1193 16.8807 20 15.5 20C14.1193 20 13 21.1193 13 22.5C13 23.7095 13.8589 24.7184 15 24.95V27H12V28H15H16H17V30H12V31H17V31.5C17 31.7761 17.2239 32 17.5 32H19.5C19.7761 32 20 31.7761 20 31.5V31H23V31.5C23 31.7761 23.2239 32 23.5 32H25.5C25.7761 32 26 31.7761 26 31.5V31H28V30H26V28H28V27H26V26.5C26 26.2239 25.7761 26 25.5 26H23.5C23.2239 26 23 26.2239 23 26.5V27H20V26.5C20 26.2239 19.7761 26 19.5 26H17.5C17.2239 26 17 26.2239 17 26.5V27H16V24.95ZM19 28V27H18V28V30V31H19V30V28ZM20 30V28H23V30H20ZM25 30V31H24V30V28V27H25V28V30Z" fill="url(#paint1_linear_321_856)"/>
<path d="M20.8456 23.6335C20.7103 24.0435 20.9019 24.7153 21.0147 25C21.0711 24.7153 21.2853 24.0776 21.6911 23.8043C22.1985 23.4627 22.5367 23.8043 23.044 23.8043C23.5514 23.8043 24.2278 23.4627 24.397 22.9503C24.5661 22.4378 24.7352 22.4378 25.0734 22.267C25.4116 22.0962 25.919 21.9254 26.0881 21.2422C26.2572 20.559 25.919 20.2173 26.0881 19.8757C26.2572 19.5341 26.7645 19.5341 26.9337 19.0217C27.1028 18.5092 26.9337 17.826 26.5954 17.6552C26.2572 17.4844 26.2572 17.3136 26.4263 16.972C26.5954 16.6304 26.7645 15.4347 25.7499 15.0931C24.7352 14.7515 24.0587 15.4347 23.8896 15.7763C23.7205 16.118 23.5514 15.9471 23.044 15.9471C22.5367 15.9471 22.0294 16.118 21.8602 16.6304C21.6911 17.1428 22.0294 17.4844 21.6911 17.6552C21.3529 17.826 21.0147 17.826 20.5073 18.3385C20 18.8509 20.1691 19.7049 20.3382 20.0466C20.5073 20.3882 20 20.3882 20 21.2422C20 22.0963 20.5073 22.6087 20.8456 22.7795C21.1838 22.9503 21.0147 23.1211 20.8456 23.6335Z" stroke="url(#paint2_linear_321_856)" stroke-linejoin="round"/>
<path d="M22 21.5C22 20.8333 22 20 23 20" stroke="url(#paint3_linear_321_856)" stroke-linecap="round"/>
<path d="M24 18C24 18.3333 24.2 19 25 19" stroke="url(#paint4_linear_321_856)" stroke-linecap="round"/>
<defs>
<linearGradient id="paint0_linear_321_856" x1="9.9375" y1="13.6406" x2="33.3397" y2="33.497" gradientUnits="userSpaceOnUse">
<stop stop-color="white"/>
<stop offset="1" stop-color="#94A1BE"/>
</linearGradient>
<linearGradient id="paint1_linear_321_856" x1="14.25" y1="21.6875" x2="22.53" y2="32.7275" gradientUnits="userSpaceOnUse">
<stop stop-color="#808BA5"/>
<stop offset="1" stop-color="#3F4661"/>
</linearGradient>
<linearGradient id="paint2_linear_321_856" x1="20.9844" y1="16.4063" x2="27.7377" y2="21.1336" gradientUnits="userSpaceOnUse">
<stop stop-color="#8C94A9"/>
<stop offset="1" stop-color="#48506B"/>
</linearGradient>
<linearGradient id="paint3_linear_321_856" x1="22.1406" y1="20.2109" x2="23.1358" y2="20.8744" gradientUnits="userSpaceOnUse">
<stop stop-color="#8C94A9"/>
<stop offset="1" stop-color="#48506B"/>
</linearGradient>
<linearGradient id="paint4_linear_321_856" x1="24.1406" y1="18.1406" x2="24.8594" y2="18.8594" gradientUnits="userSpaceOnUse">
<stop stop-color="#8C94A9"/>
<stop offset="1" stop-color="#48506B"/>
</linearGradient>
</defs>
</svg>
