<svg width="147" height="140" viewBox="0 0 147 140" fill="none" xmlns="http://www.w3.org/2000/svg">
<g filter="url(#filter0_di_908_22090)">
<path fill-rule="evenodd" clip-rule="evenodd" d="M30.3433 74.9357C20.3967 74.9357 12.3333 66.8723 12.3333 56.9257C12.3333 48.9189 17.5582 42.1325 24.7844 39.7899C24.5907 38.6266 24.4899 37.4319 24.4899 36.2136C24.4899 24.2776 34.166 14.6016 46.102 14.6016C54.4146 14.6016 61.6312 19.2946 65.2465 26.1758C67.2683 25.3903 69.467 24.9594 71.7665 24.9594C81.7131 24.9594 89.7765 33.0228 89.7765 42.9694C89.7765 44.0902 89.6741 45.187 89.4782 46.251C96.5118 47.2042 101.933 53.2329 101.933 60.5278C101.933 68.4852 95.4825 74.9359 87.5252 74.9359L87.5252 74.936H30.3433V74.9357Z" fill="url(#paint0_linear_908_22090)"/>
</g>
<g filter="url(#filter1_di_908_22090)">
<path fill-rule="evenodd" clip-rule="evenodd" d="M65.6532 105.688C56.0656 104.177 48.7333 95.8781 48.7333 85.8661C48.7333 74.7836 57.7175 65.7995 68.8 65.7995C70.2217 65.7995 71.6088 65.9473 72.9468 66.2285C75.8991 55.2299 85.9384 47.1328 97.8687 47.1328C112.119 47.1328 123.671 58.6848 123.671 72.9349C123.671 73.985 123.608 75.0204 123.486 76.0377C129.898 77.8324 134.6 83.7186 134.6 90.703C134.6 99.1129 127.782 105.93 119.372 105.93C119.307 105.93 119.242 105.93 119.177 105.929H69.1848C69.0568 105.932 68.9286 105.933 68.8 105.933C68.6714 105.933 68.5432 105.932 68.4152 105.929H65.6532V105.688Z" fill="url(#paint1_linear_908_22090)"/>
</g>
<g filter="url(#filter2_di_908_22090)">
<path fill-rule="evenodd" clip-rule="evenodd" d="M38.5938 123.653C38.5156 123.654 38.4372 123.655 38.3587 123.655C30.9441 123.655 24.9333 117.644 24.9333 110.23C24.9333 103.497 29.8888 97.9222 36.3513 96.9532C36.6274 85.8864 45.6852 77 56.8185 77C68.1258 77 77.2922 86.1664 77.2922 97.4737C77.2922 98.3696 77.2346 99.252 77.123 100.118C78.3354 99.709 79.6338 99.4875 80.984 99.4875C87.6572 99.4875 93.0668 104.897 93.0668 111.57C93.0668 118.244 87.6572 123.653 80.984 123.653C80.956 123.653 80.9279 123.653 80.9 123.653H38.5938Z" fill="url(#paint2_linear_908_22090)"/>
</g>
<defs>
<filter id="filter0_di_908_22090" x="0.333344" y="10.6016" width="113.6" height="84.3359" filterUnits="userSpaceOnUse" color-interpolation-filters="sRGB">
<feFlood flood-opacity="0" result="BackgroundImageFix"/>
<feColorMatrix in="SourceAlpha" type="matrix" values="0 0 0 0 0 0 0 0 0 0 0 0 0 0 0 0 0 0 127 0" result="hardAlpha"/>
<feOffset dy="8"/>
<feGaussianBlur stdDeviation="6"/>
<feComposite in2="hardAlpha" operator="out"/>
<feColorMatrix type="matrix" values="0 0 0 0 0.0009 0 0 0 0 0.046935 0 0 0 0 0.09 0 0 0 0.16 0"/>
<feBlend mode="normal" in2="BackgroundImageFix" result="effect1_dropShadow_908_22090"/>
<feBlend mode="normal" in="SourceGraphic" in2="effect1_dropShadow_908_22090" result="shape"/>
<feColorMatrix in="SourceAlpha" type="matrix" values="0 0 0 0 0 0 0 0 0 0 0 0 0 0 0 0 0 0 127 0" result="hardAlpha"/>
<feOffset dx="-1.76471" dy="1.76471"/>
<feGaussianBlur stdDeviation="1.76471"/>
<feComposite in2="hardAlpha" operator="arithmetic" k2="-1" k3="1"/>
<feColorMatrix type="matrix" values="0 0 0 0 1 0 0 0 0 1 0 0 0 0 1 0 0 0 0.75 0"/>
<feBlend mode="normal" in2="shape" result="effect2_innerShadow_908_22090"/>
</filter>
<filter id="filter1_di_908_22090" x="36.7333" y="43.1328" width="109.867" height="82.8008" filterUnits="userSpaceOnUse" color-interpolation-filters="sRGB">
<feFlood flood-opacity="0" result="BackgroundImageFix"/>
<feColorMatrix in="SourceAlpha" type="matrix" values="0 0 0 0 0 0 0 0 0 0 0 0 0 0 0 0 0 0 127 0" result="hardAlpha"/>
<feOffset dy="8"/>
<feGaussianBlur stdDeviation="6"/>
<feComposite in2="hardAlpha" operator="out"/>
<feColorMatrix type="matrix" values="0 0 0 0 0 0 0 0 0 0.0470588 0 0 0 0 0.0901961 0 0 0 0.16 0"/>
<feBlend mode="normal" in2="BackgroundImageFix" result="effect1_dropShadow_908_22090"/>
<feBlend mode="normal" in="SourceGraphic" in2="effect1_dropShadow_908_22090" result="shape"/>
<feColorMatrix in="SourceAlpha" type="matrix" values="0 0 0 0 0 0 0 0 0 0 0 0 0 0 0 0 0 0 127 0" result="hardAlpha"/>
<feOffset dx="-1.76471" dy="1.76471"/>
<feGaussianBlur stdDeviation="1.76471"/>
<feComposite in2="hardAlpha" operator="arithmetic" k2="-1" k3="1"/>
<feColorMatrix type="matrix" values="0 0 0 0 1 0 0 0 0 1 0 0 0 0 1 0 0 0 0.75 0"/>
<feBlend mode="normal" in2="shape" result="effect2_innerShadow_908_22090"/>
</filter>
<filter id="filter2_di_908_22090" x="16.9333" y="73" width="84.1335" height="62.6562" filterUnits="userSpaceOnUse" color-interpolation-filters="sRGB">
<feFlood flood-opacity="0" result="BackgroundImageFix"/>
<feColorMatrix in="SourceAlpha" type="matrix" values="0 0 0 0 0 0 0 0 0 0 0 0 0 0 0 0 0 0 127 0" result="hardAlpha"/>
<feOffset dy="4"/>
<feGaussianBlur stdDeviation="4"/>
<feComposite in2="hardAlpha" operator="out"/>
<feColorMatrix type="matrix" values="0 0 0 0 0 0 0 0 0 0.0470588 0 0 0 0 0.0901961 0 0 0 0.16 0"/>
<feBlend mode="normal" in2="BackgroundImageFix" result="effect1_dropShadow_908_22090"/>
<feBlend mode="normal" in="SourceGraphic" in2="effect1_dropShadow_908_22090" result="shape"/>
<feColorMatrix in="SourceAlpha" type="matrix" values="0 0 0 0 0 0 0 0 0 0 0 0 0 0 0 0 0 0 127 0" result="hardAlpha"/>
<feOffset dx="-1.76471" dy="1.76471"/>
<feGaussianBlur stdDeviation="1.76471"/>
<feComposite in2="hardAlpha" operator="arithmetic" k2="-1" k3="1"/>
<feColorMatrix type="matrix" values="0 0 0 0 1 0 0 0 0 1 0 0 0 0 1 0 0 0 0.75 0"/>
<feBlend mode="normal" in2="shape" result="effect2_innerShadow_908_22090"/>
</filter>
<linearGradient id="paint0_linear_908_22090" x1="78.6424" y1="17.4943" x2="68.852" y2="56.8797" gradientUnits="userSpaceOnUse">
<stop stop-color="#FAFAFA"/>
<stop offset="0.940365" stop-color="#CAD0E3"/>
</linearGradient>
<linearGradient id="paint1_linear_908_22090" x1="114.3" y1="47.1328" x2="89.1009" y2="105.933" gradientUnits="userSpaceOnUse">
<stop stop-color="#FAFAFA"/>
<stop offset="0.836264" stop-color="#CAD0E3"/>
</linearGradient>
<linearGradient id="paint2_linear_908_22090" x1="74.4001" y1="77" x2="48.0323" y2="119.701" gradientUnits="userSpaceOnUse">
<stop stop-color="#FAFAFA"/>
<stop offset="1" stop-color="#CAD0E3"/>
</linearGradient>
</defs>
</svg>
