<svg width="140" height="140" viewBox="0 0 140 140" fill="none" xmlns="http://www.w3.org/2000/svg">
<g filter="url(#filter0_d_5172_35304)">
<g filter="url(#filter1_i_5172_35304)">
<path fill-rule="evenodd" clip-rule="evenodd" d="M68.616 110.618C68.616 112.156 69.8625 113.403 71.4002 113.403C72.9379 113.403 74.1845 112.156 74.1845 110.618V92.59L82.2345 100.64C83.3218 101.727 85.0847 101.727 86.172 100.64C87.2593 99.5527 87.2593 97.7898 86.172 96.7024L78.122 88.6524H96.1491C97.6868 88.6524 98.9333 87.4058 98.9333 85.8681C98.9333 84.3304 97.6868 83.0839 96.1491 83.0839H78.1244L86.1721 75.0362C87.2594 73.9488 87.2594 72.1859 86.1721 71.0986C85.0847 70.0113 83.3218 70.0113 82.2345 71.0986L74.1845 79.1487V61.1202C74.1845 59.5825 72.9379 58.3359 71.4002 58.3359C69.8625 58.3359 68.6159 59.5825 68.6159 61.1202V79.1464L60.566 71.0964C59.4787 70.0091 57.7158 70.0091 56.6284 71.0964C55.5411 72.1837 55.5411 73.9466 56.6284 75.0339L64.6783 83.0839H46.6509C45.1132 83.0839 43.8667 84.3304 43.8667 85.8681C43.8667 87.4058 45.1132 88.6524 46.6509 88.6524H64.6807L56.6285 96.7047C55.5412 97.792 55.5412 99.5549 56.6285 100.642C57.7158 101.73 59.4787 101.73 60.566 100.642L68.616 92.5923V110.618Z" fill="url(#paint0_linear_5172_35304)"/>
</g>
<g filter="url(#filter2_i_5172_35304)">
<path fill-rule="evenodd" clip-rule="evenodd" d="M101.35 105.221C100.955 105.617 100.955 106.258 101.35 106.654C101.746 107.05 102.388 107.05 102.783 106.654L107.421 102.016V106.156C107.421 106.715 107.875 107.169 108.434 107.169C108.994 107.169 109.447 106.715 109.447 106.156V102.016L114.086 106.654C114.481 107.05 115.123 107.05 115.518 106.654C115.914 106.258 115.914 105.617 115.518 105.221L110.878 100.581H115.022C115.582 100.581 116.036 100.127 116.036 99.5679C116.036 99.0084 115.582 98.5548 115.022 98.5548L110.882 98.5548L115.518 93.9188C115.914 93.5232 115.914 92.8818 115.518 92.4861C115.123 92.0905 114.481 92.0905 114.086 92.4861L109.447 97.1243L109.447 92.9799C109.447 92.4204 108.994 91.9668 108.434 91.9668C107.875 91.9668 107.421 92.4204 107.421 92.9799V97.1243L102.783 92.4863C102.388 92.0906 101.746 92.0906 101.351 92.4863C100.955 92.8819 100.955 93.5233 101.351 93.919L105.986 98.5548H101.846C101.287 98.5548 100.833 99.0084 100.833 99.5679C100.833 100.127 101.287 100.581 101.846 100.581L105.991 100.581L101.35 105.221Z" fill="url(#paint1_linear_5172_35304)"/>
</g>
<g filter="url(#filter3_i_5172_35304)">
<path fill-rule="evenodd" clip-rule="evenodd" d="M42.6407 123.791C42.6407 124.44 43.1666 124.965 43.8153 124.965C44.4641 124.965 44.9899 124.44 44.9899 123.791V116.186L48.3862 119.582C48.8449 120.041 49.5886 120.041 50.0473 119.582C50.506 119.123 50.506 118.38 50.0473 117.921L46.6515 114.525H54.2564C54.9051 114.525 55.431 113.999 55.431 113.35C55.431 112.702 54.9051 112.176 54.2564 112.176H46.6489L50.0473 108.777C50.506 108.319 50.506 107.575 50.0473 107.116C49.5886 106.658 48.8449 106.658 48.3862 107.116L44.9899 110.512V102.909C44.9899 102.26 44.4641 101.734 43.8153 101.734C43.1666 101.734 42.6407 102.26 42.6407 102.909V110.514L39.2449 107.118C38.7862 106.66 38.0424 106.66 37.5837 107.118C37.125 107.577 37.125 108.321 37.5837 108.78L40.98 112.176H33.3746C32.7259 112.176 32.2 112.702 32.2 113.35C32.2 113.999 32.7259 114.525 33.3746 114.525H40.9774L37.5837 117.919C37.125 118.377 37.125 119.121 37.5837 119.58C38.0424 120.039 38.7862 120.039 39.2449 119.58L42.6407 116.184V123.791Z" fill="url(#paint2_linear_5172_35304)"/>
</g>
<g filter="url(#filter4_i_5172_35304)">
<path fill-rule="evenodd" clip-rule="evenodd" d="M83.7589 130.792C83.7589 131.183 84.0758 131.5 84.4668 131.5C84.8577 131.5 85.1746 131.183 85.1746 130.792V126.207L87.2213 128.253C87.4977 128.53 87.9459 128.53 88.2224 128.253C88.4988 127.977 88.4988 127.529 88.2224 127.252L86.1786 125.208H90.7588C91.1497 125.208 91.4666 124.892 91.4666 124.501C91.4666 124.11 91.1497 123.793 90.7588 123.793H86.1758L88.2222 121.746C88.4986 121.47 88.4986 121.022 88.2222 120.745C87.9458 120.469 87.4976 120.469 87.2211 120.745L85.1746 122.792V118.208C85.1746 117.817 84.8577 117.5 84.4668 117.5C84.0758 117.5 83.7589 117.817 83.7589 118.208V122.789L81.7124 120.742C81.4359 120.466 80.9877 120.466 80.7113 120.742C80.4349 121.019 80.4349 121.467 80.7113 121.743L82.7607 123.793H78.1745C77.7836 123.793 77.4666 124.11 77.4666 124.501C77.4666 124.892 77.7836 125.208 78.1745 125.208H82.7579L80.7111 127.255C80.4347 127.532 80.4347 127.98 80.7111 128.256C80.9876 128.533 81.4358 128.533 81.7122 128.256L83.7589 126.21V130.792Z" fill="url(#paint3_linear_5172_35304)"/>
</g>
</g>
<g filter="url(#filter5_ddii_5172_35304)">
<path fill-rule="evenodd" clip-rule="evenodd" d="M20.0667 52.7331C20.0667 70.7744 34.692 85.3997 52.7333 85.3997L98 85.3997C110.113 85.3997 119.933 75.5798 119.933 63.4664C119.933 51.353 110.113 41.5331 98 41.5331C93.0033 41.5331 88.3969 43.2039 84.709 46.0173C81.6122 31.1977 68.4727 20.0664 52.7333 20.0664C34.692 20.0664 20.0667 34.6918 20.0667 52.7331Z" fill="url(#paint4_linear_5172_35304)"/>
</g>
<g opacity="0.66" filter="url(#filter6_if_5172_35304)">
<path fill-rule="evenodd" clip-rule="evenodd" d="M98.891 85.3838C98.6618 84.077 97.5213 83.0839 96.1488 83.0839H78.1241L86.1718 75.0362C87.2591 73.9488 87.2591 72.1859 86.1718 71.0986C85.0844 70.0113 83.3215 70.0113 82.2342 71.0986L74.1842 79.1486V61.1202C74.1842 59.5825 72.9376 58.3359 71.3999 58.3359C69.8622 58.3359 68.6157 59.5825 68.6157 61.1202V79.1464L60.5657 71.0964C59.4783 70.0091 57.7154 70.0091 56.6281 71.0964C55.5408 72.1837 55.5408 73.9466 56.6281 75.0339L64.678 83.0839H46.6506C45.6887 83.0839 44.8407 83.5717 44.3405 84.3134C47.0186 85.0233 49.8316 85.4016 52.733 85.4016L97.9997 85.4016C98.2982 85.4016 98.5954 85.3956 98.891 85.3838Z" fill="url(#paint5_linear_5172_35304)"/>
</g>
<defs>
<filter id="filter0_d_5172_35304" x="26.6" y="55.5359" width="95.0355" height="84.3641" filterUnits="userSpaceOnUse" color-interpolation-filters="sRGB">
<feFlood flood-opacity="0" result="BackgroundImageFix"/>
<feColorMatrix in="SourceAlpha" type="matrix" values="0 0 0 0 0 0 0 0 0 0 0 0 0 0 0 0 0 0 127 0" result="hardAlpha"/>
<feOffset dy="2.8"/>
<feGaussianBlur stdDeviation="2.8"/>
<feComposite in2="hardAlpha" operator="out"/>
<feColorMatrix type="matrix" values="0 0 0 0 0 0 0 0 0 0 0 0 0 0 0 0 0 0 0.12 0"/>
<feBlend mode="normal" in2="BackgroundImageFix" result="effect1_dropShadow_5172_35304"/>
<feBlend mode="normal" in="SourceGraphic" in2="effect1_dropShadow_5172_35304" result="shape"/>
</filter>
<filter id="filter1_i_5172_35304" x="43.8667" y="58.3359" width="55.0667" height="55.0664" filterUnits="userSpaceOnUse" color-interpolation-filters="sRGB">
<feFlood flood-opacity="0" result="BackgroundImageFix"/>
<feBlend mode="normal" in="SourceGraphic" in2="BackgroundImageFix" result="shape"/>
<feColorMatrix in="SourceAlpha" type="matrix" values="0 0 0 0 0 0 0 0 0 0 0 0 0 0 0 0 0 0 127 0" result="hardAlpha"/>
<feOffset/>
<feGaussianBlur stdDeviation="0.7"/>
<feComposite in2="hardAlpha" operator="arithmetic" k2="-1" k3="1"/>
<feColorMatrix type="matrix" values="0 0 0 0 1 0 0 0 0 1 0 0 0 0 1 0 0 0 0.33 0"/>
<feBlend mode="normal" in2="shape" result="effect1_innerShadow_5172_35304"/>
</filter>
<filter id="filter2_i_5172_35304" x="100.833" y="91.9648" width="15.2022" height="15.2031" filterUnits="userSpaceOnUse" color-interpolation-filters="sRGB">
<feFlood flood-opacity="0" result="BackgroundImageFix"/>
<feBlend mode="normal" in="SourceGraphic" in2="BackgroundImageFix" result="shape"/>
<feColorMatrix in="SourceAlpha" type="matrix" values="0 0 0 0 0 0 0 0 0 0 0 0 0 0 0 0 0 0 127 0" result="hardAlpha"/>
<feOffset/>
<feGaussianBlur stdDeviation="0.7"/>
<feComposite in2="hardAlpha" operator="arithmetic" k2="-1" k3="1"/>
<feColorMatrix type="matrix" values="0 0 0 0 1 0 0 0 0 1 0 0 0 0 1 0 0 0 0.33 0"/>
<feBlend mode="normal" in2="shape" result="effect1_innerShadow_5172_35304"/>
</filter>
<filter id="filter3_i_5172_35304" x="32.2" y="101.734" width="23.231" height="23.2305" filterUnits="userSpaceOnUse" color-interpolation-filters="sRGB">
<feFlood flood-opacity="0" result="BackgroundImageFix"/>
<feBlend mode="normal" in="SourceGraphic" in2="BackgroundImageFix" result="shape"/>
<feColorMatrix in="SourceAlpha" type="matrix" values="0 0 0 0 0 0 0 0 0 0 0 0 0 0 0 0 0 0 127 0" result="hardAlpha"/>
<feOffset/>
<feGaussianBlur stdDeviation="0.7"/>
<feComposite in2="hardAlpha" operator="arithmetic" k2="-1" k3="1"/>
<feColorMatrix type="matrix" values="0 0 0 0 1 0 0 0 0 1 0 0 0 0 1 0 0 0 0.33 0"/>
<feBlend mode="normal" in2="shape" result="effect1_innerShadow_5172_35304"/>
</filter>
<filter id="filter4_i_5172_35304" x="77.4666" y="117.5" width="14" height="14" filterUnits="userSpaceOnUse" color-interpolation-filters="sRGB">
<feFlood flood-opacity="0" result="BackgroundImageFix"/>
<feBlend mode="normal" in="SourceGraphic" in2="BackgroundImageFix" result="shape"/>
<feColorMatrix in="SourceAlpha" type="matrix" values="0 0 0 0 0 0 0 0 0 0 0 0 0 0 0 0 0 0 127 0" result="hardAlpha"/>
<feOffset/>
<feGaussianBlur stdDeviation="0.7"/>
<feComposite in2="hardAlpha" operator="arithmetic" k2="-1" k3="1"/>
<feColorMatrix type="matrix" values="0 0 0 0 1 0 0 0 0 1 0 0 0 0 1 0 0 0 0.33 0"/>
<feBlend mode="normal" in2="shape" result="effect1_innerShadow_5172_35304"/>
</filter>
<filter id="filter5_ddii_5172_35304" x="5.13332" y="16.3331" width="129.733" height="95.1987" filterUnits="userSpaceOnUse" color-interpolation-filters="sRGB">
<feFlood flood-opacity="0" result="BackgroundImageFix"/>
<feColorMatrix in="SourceAlpha" type="matrix" values="0 0 0 0 0 0 0 0 0 0 0 0 0 0 0 0 0 0 127 0" result="hardAlpha"/>
<feOffset dy="11.2"/>
<feGaussianBlur stdDeviation="7.46667"/>
<feComposite in2="hardAlpha" operator="out"/>
<feColorMatrix type="matrix" values="0 0 0 0 0.0009 0 0 0 0 0.046935 0 0 0 0 0.09 0 0 0 0.16 0"/>
<feBlend mode="normal" in2="BackgroundImageFix" result="effect1_dropShadow_5172_35304"/>
<feColorMatrix in="SourceAlpha" type="matrix" values="0 0 0 0 0 0 0 0 0 0 0 0 0 0 0 0 0 0 127 0" result="hardAlpha"/>
<feOffset dy="2.33333"/>
<feGaussianBlur stdDeviation="2.33333"/>
<feComposite in2="hardAlpha" operator="out"/>
<feColorMatrix type="matrix" values="0 0 0 0 0.00114583 0 0 0 0 0.0482167 0 0 0 0 0.0916667 0 0 0 0.15 0"/>
<feBlend mode="normal" in2="effect1_dropShadow_5172_35304" result="effect2_dropShadow_5172_35304"/>
<feBlend mode="normal" in="SourceGraphic" in2="effect2_dropShadow_5172_35304" result="shape"/>
<feColorMatrix in="SourceAlpha" type="matrix" values="0 0 0 0 0 0 0 0 0 0 0 0 0 0 0 0 0 0 127 0" result="hardAlpha"/>
<feOffset dx="-1.4" dy="1.4"/>
<feGaussianBlur stdDeviation="2.1"/>
<feComposite in2="hardAlpha" operator="arithmetic" k2="-1" k3="1"/>
<feColorMatrix type="matrix" values="0 0 0 0 1 0 0 0 0 1 0 0 0 0 1 0 0 0 0.66 0"/>
<feBlend mode="normal" in2="shape" result="effect3_innerShadow_5172_35304"/>
<feColorMatrix in="SourceAlpha" type="matrix" values="0 0 0 0 0 0 0 0 0 0 0 0 0 0 0 0 0 0 127 0" result="hardAlpha"/>
<feOffset dy="-0.933333"/>
<feGaussianBlur stdDeviation="0.466667"/>
<feComposite in2="hardAlpha" operator="arithmetic" k2="-1" k3="1"/>
<feColorMatrix type="matrix" values="0 0 0 0 1 0 0 0 0 1 0 0 0 0 1 0 0 0 0.2 0"/>
<feBlend mode="normal" in2="effect3_innerShadow_5172_35304" result="effect4_innerShadow_5172_35304"/>
</filter>
<filter id="filter6_if_5172_35304" x="36.8738" y="50.8693" width="69.4839" height="41.9997" filterUnits="userSpaceOnUse" color-interpolation-filters="sRGB">
<feFlood flood-opacity="0" result="BackgroundImageFix"/>
<feBlend mode="normal" in="SourceGraphic" in2="BackgroundImageFix" result="shape"/>
<feColorMatrix in="SourceAlpha" type="matrix" values="0 0 0 0 0 0 0 0 0 0 0 0 0 0 0 0 0 0 127 0" result="hardAlpha"/>
<feOffset dy="0.933333"/>
<feGaussianBlur stdDeviation="0.466667"/>
<feComposite in2="hardAlpha" operator="arithmetic" k2="-1" k3="1"/>
<feColorMatrix type="matrix" values="0 0 0 0 1 0 0 0 0 1 0 0 0 0 1 0 0 0 0.2 0"/>
<feBlend mode="normal" in2="shape" result="effect1_innerShadow_5172_35304"/>
<feGaussianBlur stdDeviation="3.73333" result="effect2_foregroundBlur_5172_35304"/>
</filter>
<linearGradient id="paint0_linear_5172_35304" x1="71.4" y1="58.3359" x2="71.4" y2="113.403" gradientUnits="userSpaceOnUse">
<stop offset="0.25" stop-color="#3D70FF"/>
<stop offset="0.5" stop-color="#76EDFF"/>
<stop offset="1" stop-color="#CFF9FF"/>
</linearGradient>
<linearGradient id="paint1_linear_5172_35304" x1="108.267" y1="91.0023" x2="108.267" y2="107.802" gradientUnits="userSpaceOnUse">
<stop stop-color="#3D70FF"/>
<stop offset="0.5" stop-color="#76EDFF"/>
<stop offset="1" stop-color="#CFF9FF"/>
</linearGradient>
<linearGradient id="paint2_linear_5172_35304" x1="43.8155" y1="101.734" x2="43.8155" y2="124.965" gradientUnits="userSpaceOnUse">
<stop stop-color="#3D70FF"/>
<stop offset="0.5" stop-color="#76EDFF"/>
<stop offset="1" stop-color="#CFF9FF"/>
</linearGradient>
<linearGradient id="paint3_linear_5172_35304" x1="84.4666" y1="117.5" x2="84.4666" y2="131.5" gradientUnits="userSpaceOnUse">
<stop stop-color="#3D70FF"/>
<stop offset="0.5" stop-color="#76EDFF"/>
<stop offset="1" stop-color="#CFF9FF"/>
</linearGradient>
<linearGradient id="paint4_linear_5172_35304" x1="93.5667" y1="20.0664" x2="50.7039" y2="85.5707" gradientUnits="userSpaceOnUse">
<stop offset="0.16364" stop-color="#FAFAFA"/>
<stop offset="0.792483" stop-color="#DDE9F8"/>
</linearGradient>
<linearGradient id="paint5_linear_5172_35304" x1="71.6158" y1="58.3359" x2="71.6158" y2="85.4016" gradientUnits="userSpaceOnUse">
<stop offset="0.135417" stop-color="#76B6FF"/>
<stop offset="1" stop-color="#2C4BB8"/>
</linearGradient>
</defs>
</svg>
