<svg width="140" height="140" viewBox="0 0 140 140" fill="none" xmlns="http://www.w3.org/2000/svg">
<g filter="url(#filter0_d_5172_35357)">
<g filter="url(#filter1_i_5172_35357)">
<path fill-rule="evenodd" clip-rule="evenodd" d="M89.3954 100.129C89.3954 101.015 90.1137 101.733 90.9999 101.733C91.886 101.733 92.6044 101.015 92.6044 100.129V89.7402L97.2437 94.3795C97.8703 95.0061 98.8862 95.0061 99.5128 94.3795C100.139 93.7529 100.139 92.737 99.5128 92.1104L94.8739 87.4715H105.262C106.148 87.4715 106.867 86.7531 106.867 85.867C106.867 84.9809 106.148 84.2625 105.262 84.2625H94.8747L99.5128 79.6244C100.139 78.9978 100.139 77.9819 99.5128 77.3553C98.8862 76.7287 97.8703 76.7287 97.2437 77.3553L92.6044 81.9946V71.6045C92.6044 70.7184 91.886 70 90.9999 70C90.1137 70 89.3954 70.7184 89.3954 71.6045V81.993L84.7567 77.3543C84.1302 76.7277 83.1142 76.7277 82.4877 77.3543C81.8611 77.9809 81.8611 78.9968 82.4877 79.6234L87.1267 84.2625H76.7378C75.8517 84.2625 75.1333 84.9809 75.1333 85.867C75.1333 86.7531 75.8517 87.4715 76.7378 87.4715H87.1275L82.4877 92.1113C81.8611 92.7379 81.8611 93.7538 82.4877 94.3804C83.1143 95.007 84.1302 95.007 84.7568 94.3804L89.3954 89.7418V100.129Z" fill="url(#paint0_linear_5172_35357)"/>
</g>
<g filter="url(#filter2_i_5172_35357)">
<path fill-rule="evenodd" clip-rule="evenodd" d="M101.634 106.298C101.634 106.611 101.887 106.864 102.2 106.864C102.513 106.864 102.766 106.611 102.766 106.298V102.631L104.404 104.268C104.625 104.489 104.983 104.489 105.204 104.268C105.426 104.047 105.426 103.688 105.204 103.467L103.565 101.828H107.234C107.546 101.828 107.8 101.574 107.8 101.262C107.8 100.949 107.546 100.695 107.234 100.695H103.569L105.205 99.0596C105.426 98.8385 105.426 98.4799 105.205 98.2587C104.983 98.0376 104.625 98.0376 104.404 98.2587L102.766 99.8963V96.2304C102.766 95.9176 102.513 95.6641 102.2 95.6641C101.887 95.6641 101.634 95.9176 101.634 96.2304V99.8964L99.9964 98.2593C99.7752 98.0381 99.4167 98.0381 99.1955 98.2593C98.9744 98.4804 98.9744 98.839 99.1955 99.0601L100.831 100.695H97.1663C96.8535 100.695 96.6 100.949 96.6 101.262C96.6 101.574 96.8535 101.828 97.1663 101.828H100.835L99.1957 103.467C98.9745 103.688 98.9745 104.046 99.1957 104.268C99.4168 104.489 99.7754 104.489 99.9965 104.268L101.634 102.631V106.298Z" fill="url(#paint1_linear_5172_35357)"/>
</g>
<g filter="url(#filter3_i_5172_35357)">
<path fill-rule="evenodd" clip-rule="evenodd" d="M83.4263 111.258C83.4263 111.483 83.6089 111.665 83.8342 111.665C84.0595 111.665 84.2421 111.483 84.2421 111.258V108.613L85.4214 109.793C85.5807 109.952 85.839 109.952 85.9983 109.793C86.1576 109.633 86.1576 109.375 85.9983 109.216L84.8195 108.037H87.4599C87.6852 108.037 87.8678 107.854 87.8678 107.629C87.8678 107.404 87.6852 107.221 87.4599 107.221H84.8211L85.9983 106.044C86.1576 105.885 86.1576 105.626 85.9983 105.467C85.839 105.308 85.5807 105.308 85.4214 105.467L84.2421 106.646V104.006C84.2421 103.78 84.0595 103.598 83.8342 103.598C83.6089 103.598 83.4263 103.78 83.4263 104.006V106.644L82.2468 105.464C82.0875 105.305 81.8292 105.305 81.6699 105.464C81.5106 105.624 81.5106 105.882 81.6699 106.041L82.8499 107.221H80.2079C79.9827 107.221 79.8 107.404 79.8 107.629C79.8 107.854 79.9827 108.037 80.2079 108.037H82.8515L81.6698 109.219C81.5105 109.378 81.5105 109.636 81.6698 109.796C81.8291 109.955 82.0874 109.955 82.2467 109.796L83.4263 108.616V111.258Z" fill="url(#paint2_linear_5172_35357)"/>
</g>
</g>
<g filter="url(#filter4_d_5172_35357)">
<g filter="url(#filter5_i_5172_35357)">
<rect x="49.231" y="78.1836" width="3.98351" height="22.5732" rx="1.99175" fill="url(#paint3_linear_5172_35357)"/>
</g>
<g filter="url(#filter6_i_5172_35357)">
<path fill-rule="evenodd" clip-rule="evenodd" d="M42.5831 75.8594C41.4879 75.8594 40.6 76.7473 40.6 77.8425V92.5177C40.6 93.6129 41.4879 94.5008 42.5831 94.5008C43.6784 94.5008 44.5662 93.6129 44.5662 92.5177V77.8425C44.5662 76.7473 43.6784 75.8594 42.5831 75.8594ZM42.5831 97.4755C41.4879 97.4755 40.6 98.3634 40.6 99.4587V101.838C40.6 102.934 41.4879 103.822 42.5831 103.822C43.6784 103.822 44.5663 102.934 44.5663 101.838V99.4587C44.5663 98.3634 43.6784 97.4755 42.5831 97.4755Z" fill="url(#paint4_linear_5172_35357)"/>
</g>
<g filter="url(#filter7_i_5172_35357)">
<path fill-rule="evenodd" clip-rule="evenodd" d="M60.4313 75.8594C59.336 75.8594 58.4481 76.7473 58.4481 77.8425V88.948C58.4481 90.0433 59.336 90.9312 60.4313 90.9312C61.5265 90.9312 62.4144 90.0433 62.4144 88.948V77.8425C62.4144 76.7473 61.5265 75.8594 60.4313 75.8594ZM60.4313 93.9062C59.3361 93.9062 58.4482 94.7941 58.4482 95.8894V102.235C58.4482 103.331 59.3361 104.219 60.4313 104.219C61.5266 104.219 62.4144 103.331 62.4144 102.235V95.8894C62.4144 94.7941 61.5266 93.9062 60.4313 93.9062Z" fill="url(#paint5_linear_5172_35357)"/>
</g>
<g filter="url(#filter8_i_5172_35357)">
<path fill-rule="evenodd" clip-rule="evenodd" d="M69.1567 77.0508C68.0614 77.0508 67.1736 77.9387 67.1736 79.0339V92.9158C67.1736 94.0111 68.0614 94.899 69.1567 94.899C70.2519 94.899 71.1398 94.0111 71.1398 92.9158V79.0339C71.1398 77.9387 70.2519 77.0508 69.1567 77.0508ZM69.1567 97.081C68.0614 97.081 67.1736 97.9689 67.1736 99.0641V104.419C67.1736 105.514 68.0614 106.402 69.1567 106.402C70.2519 106.402 71.1398 105.514 71.1398 104.419V99.0641C71.1398 97.9689 70.2519 97.081 69.1567 97.081Z" fill="url(#paint6_linear_5172_35357)"/>
</g>
</g>
<g filter="url(#filter9_ddii_5172_35357)">
<path fill-rule="evenodd" clip-rule="evenodd" d="M20.0667 52.7331C20.0667 70.7744 34.692 85.3997 52.7333 85.3997L98 85.3997C110.113 85.3997 119.933 75.5798 119.933 63.4664C119.933 51.353 110.113 41.5331 98 41.5331C93.0033 41.5331 88.3969 43.2039 84.709 46.0173C81.6122 31.1977 68.4727 20.0664 52.7333 20.0664C34.692 20.0664 20.0667 34.6918 20.0667 52.7331Z" fill="url(#paint7_linear_5172_35357)"/>
</g>
<g opacity="0.66" filter="url(#filter10_if_5172_35357)">
<path fill-rule="evenodd" clip-rule="evenodd" d="M53.0543 85.5571H53.0546V85.5579H53.2145V80.3761C53.2145 79.2761 52.3228 78.3844 51.2228 78.3844C50.1228 78.3844 49.231 79.2761 49.231 80.3761V85.3522C50.4842 85.4875 51.7601 85.5571 53.0543 85.5571ZM44.5662 84.5248V77.5769C44.5662 76.4816 43.6784 75.5938 42.5831 75.5938C41.4879 75.5938 40.6 76.4816 40.6 77.5769V83.274C41.8801 83.7665 43.2044 84.1855 44.5662 84.5248ZM62.4144 85.5579H58.4481V77.5769C58.4481 76.4816 59.336 75.5938 60.4313 75.5938C61.5265 75.5938 62.4144 76.4816 62.4144 77.5769V85.5579ZM71.1398 85.5579H67.1736V79.0021C67.1736 77.9069 68.0614 77.019 69.1567 77.019C70.2519 77.019 71.1398 77.9069 71.1398 79.0021V85.5579Z" fill="url(#paint8_linear_5172_35357)"/>
</g>
<g opacity="0.66" filter="url(#filter11_if_5172_35357)">
<path fill-rule="evenodd" clip-rule="evenodd" d="M80.2434 85.5971C80.3179 85.5971 80.3922 85.5967 80.4664 85.5958H106.17C106.223 85.5965 106.276 85.5968 106.329 85.5968C106.501 85.5968 106.672 85.5934 106.842 85.5866C106.71 84.8341 106.053 84.2625 105.262 84.2625H94.8746L99.5128 79.6244C100.139 78.9978 100.139 77.9819 99.5128 77.3553C98.8862 76.7287 97.8703 76.7287 97.2437 77.3553L92.6044 81.9946V71.6045C92.6044 70.7184 91.886 70 90.9999 70C90.1137 70 89.3954 70.7184 89.3954 71.6045V81.993L84.7567 77.3543C84.1301 76.7277 83.1142 76.7277 82.4876 77.3543C81.861 77.9809 81.861 78.9968 82.4876 79.6234L87.1267 84.2625H76.7378C76.1839 84.2625 75.6956 84.5432 75.4072 84.9701C76.9505 85.3791 78.5715 85.5971 80.2434 85.5971Z" fill="url(#paint9_linear_5172_35357)"/>
</g>
<defs>
<filter id="filter0_d_5172_35357" x="69.5333" y="67.2" width="43.8667" height="52.8641" filterUnits="userSpaceOnUse" color-interpolation-filters="sRGB">
<feFlood flood-opacity="0" result="BackgroundImageFix"/>
<feColorMatrix in="SourceAlpha" type="matrix" values="0 0 0 0 0 0 0 0 0 0 0 0 0 0 0 0 0 0 127 0" result="hardAlpha"/>
<feOffset dy="2.8"/>
<feGaussianBlur stdDeviation="2.8"/>
<feComposite in2="hardAlpha" operator="out"/>
<feColorMatrix type="matrix" values="0 0 0 0 0 0 0 0 0 0 0 0 0 0 0 0 0 0 0.12 0"/>
<feBlend mode="normal" in2="BackgroundImageFix" result="effect1_dropShadow_5172_35357"/>
<feBlend mode="normal" in="SourceGraphic" in2="effect1_dropShadow_5172_35357" result="shape"/>
</filter>
<filter id="filter1_i_5172_35357" x="75.1333" y="70" width="31.7333" height="31.7344" filterUnits="userSpaceOnUse" color-interpolation-filters="sRGB">
<feFlood flood-opacity="0" result="BackgroundImageFix"/>
<feBlend mode="normal" in="SourceGraphic" in2="BackgroundImageFix" result="shape"/>
<feColorMatrix in="SourceAlpha" type="matrix" values="0 0 0 0 0 0 0 0 0 0 0 0 0 0 0 0 0 0 127 0" result="hardAlpha"/>
<feOffset/>
<feGaussianBlur stdDeviation="0.7"/>
<feComposite in2="hardAlpha" operator="arithmetic" k2="-1" k3="1"/>
<feColorMatrix type="matrix" values="0 0 0 0 1 0 0 0 0 1 0 0 0 0 1 0 0 0 0.33 0"/>
<feBlend mode="normal" in2="shape" result="effect1_innerShadow_5172_35357"/>
</filter>
<filter id="filter2_i_5172_35357" x="96.6" y="95.6641" width="11.2" height="11.1992" filterUnits="userSpaceOnUse" color-interpolation-filters="sRGB">
<feFlood flood-opacity="0" result="BackgroundImageFix"/>
<feBlend mode="normal" in="SourceGraphic" in2="BackgroundImageFix" result="shape"/>
<feColorMatrix in="SourceAlpha" type="matrix" values="0 0 0 0 0 0 0 0 0 0 0 0 0 0 0 0 0 0 127 0" result="hardAlpha"/>
<feOffset/>
<feGaussianBlur stdDeviation="0.7"/>
<feComposite in2="hardAlpha" operator="arithmetic" k2="-1" k3="1"/>
<feColorMatrix type="matrix" values="0 0 0 0 1 0 0 0 0 1 0 0 0 0 1 0 0 0 0.33 0"/>
<feBlend mode="normal" in2="shape" result="effect1_innerShadow_5172_35357"/>
</filter>
<filter id="filter3_i_5172_35357" x="79.8" y="103.598" width="8.06781" height="8.06641" filterUnits="userSpaceOnUse" color-interpolation-filters="sRGB">
<feFlood flood-opacity="0" result="BackgroundImageFix"/>
<feBlend mode="normal" in="SourceGraphic" in2="BackgroundImageFix" result="shape"/>
<feColorMatrix in="SourceAlpha" type="matrix" values="0 0 0 0 0 0 0 0 0 0 0 0 0 0 0 0 0 0 127 0" result="hardAlpha"/>
<feOffset/>
<feGaussianBlur stdDeviation="0.7"/>
<feComposite in2="hardAlpha" operator="arithmetic" k2="-1" k3="1"/>
<feColorMatrix type="matrix" values="0 0 0 0 1 0 0 0 0 1 0 0 0 0 1 0 0 0 0.33 0"/>
<feBlend mode="normal" in2="shape" result="effect1_innerShadow_5172_35357"/>
</filter>
<filter id="filter4_d_5172_35357" x="35" y="73.0594" width="41.7398" height="41.743" filterUnits="userSpaceOnUse" color-interpolation-filters="sRGB">
<feFlood flood-opacity="0" result="BackgroundImageFix"/>
<feColorMatrix in="SourceAlpha" type="matrix" values="0 0 0 0 0 0 0 0 0 0 0 0 0 0 0 0 0 0 127 0" result="hardAlpha"/>
<feOffset dy="2.8"/>
<feGaussianBlur stdDeviation="2.8"/>
<feComposite in2="hardAlpha" operator="out"/>
<feColorMatrix type="matrix" values="0 0 0 0 0 0 0 0 0 0 0 0 0 0 0 0 0 0 0.12 0"/>
<feBlend mode="normal" in2="BackgroundImageFix" result="effect1_dropShadow_5172_35357"/>
<feBlend mode="normal" in="SourceGraphic" in2="effect1_dropShadow_5172_35357" result="shape"/>
</filter>
<filter id="filter5_i_5172_35357" x="49.231" y="78.1836" width="3.98352" height="22.5742" filterUnits="userSpaceOnUse" color-interpolation-filters="sRGB">
<feFlood flood-opacity="0" result="BackgroundImageFix"/>
<feBlend mode="normal" in="SourceGraphic" in2="BackgroundImageFix" result="shape"/>
<feColorMatrix in="SourceAlpha" type="matrix" values="0 0 0 0 0 0 0 0 0 0 0 0 0 0 0 0 0 0 127 0" result="hardAlpha"/>
<feOffset/>
<feGaussianBlur stdDeviation="0.7"/>
<feComposite in2="hardAlpha" operator="arithmetic" k2="-1" k3="1"/>
<feColorMatrix type="matrix" values="0 0 0 0 1 0 0 0 0 1 0 0 0 0 1 0 0 0 0.33 0"/>
<feBlend mode="normal" in2="shape" result="effect1_innerShadow_5172_35357"/>
</filter>
<filter id="filter6_i_5172_35357" x="40.6" y="75.8594" width="3.96628" height="27.9609" filterUnits="userSpaceOnUse" color-interpolation-filters="sRGB">
<feFlood flood-opacity="0" result="BackgroundImageFix"/>
<feBlend mode="normal" in="SourceGraphic" in2="BackgroundImageFix" result="shape"/>
<feColorMatrix in="SourceAlpha" type="matrix" values="0 0 0 0 0 0 0 0 0 0 0 0 0 0 0 0 0 0 127 0" result="hardAlpha"/>
<feOffset/>
<feGaussianBlur stdDeviation="0.7"/>
<feComposite in2="hardAlpha" operator="arithmetic" k2="-1" k3="1"/>
<feColorMatrix type="matrix" values="0 0 0 0 1 0 0 0 0 1 0 0 0 0 1 0 0 0 0.33 0"/>
<feBlend mode="normal" in2="shape" result="effect1_innerShadow_5172_35357"/>
</filter>
<filter id="filter7_i_5172_35357" x="58.4481" y="75.8594" width="3.96631" height="28.3594" filterUnits="userSpaceOnUse" color-interpolation-filters="sRGB">
<feFlood flood-opacity="0" result="BackgroundImageFix"/>
<feBlend mode="normal" in="SourceGraphic" in2="BackgroundImageFix" result="shape"/>
<feColorMatrix in="SourceAlpha" type="matrix" values="0 0 0 0 0 0 0 0 0 0 0 0 0 0 0 0 0 0 127 0" result="hardAlpha"/>
<feOffset/>
<feGaussianBlur stdDeviation="0.7"/>
<feComposite in2="hardAlpha" operator="arithmetic" k2="-1" k3="1"/>
<feColorMatrix type="matrix" values="0 0 0 0 1 0 0 0 0 1 0 0 0 0 1 0 0 0 0.33 0"/>
<feBlend mode="normal" in2="shape" result="effect1_innerShadow_5172_35357"/>
</filter>
<filter id="filter8_i_5172_35357" x="67.1736" y="77.0508" width="3.96625" height="29.3516" filterUnits="userSpaceOnUse" color-interpolation-filters="sRGB">
<feFlood flood-opacity="0" result="BackgroundImageFix"/>
<feBlend mode="normal" in="SourceGraphic" in2="BackgroundImageFix" result="shape"/>
<feColorMatrix in="SourceAlpha" type="matrix" values="0 0 0 0 0 0 0 0 0 0 0 0 0 0 0 0 0 0 127 0" result="hardAlpha"/>
<feOffset/>
<feGaussianBlur stdDeviation="0.7"/>
<feComposite in2="hardAlpha" operator="arithmetic" k2="-1" k3="1"/>
<feColorMatrix type="matrix" values="0 0 0 0 1 0 0 0 0 1 0 0 0 0 1 0 0 0 0.33 0"/>
<feBlend mode="normal" in2="shape" result="effect1_innerShadow_5172_35357"/>
</filter>
<filter id="filter9_ddii_5172_35357" x="5.13332" y="16.3331" width="129.733" height="95.1987" filterUnits="userSpaceOnUse" color-interpolation-filters="sRGB">
<feFlood flood-opacity="0" result="BackgroundImageFix"/>
<feColorMatrix in="SourceAlpha" type="matrix" values="0 0 0 0 0 0 0 0 0 0 0 0 0 0 0 0 0 0 127 0" result="hardAlpha"/>
<feOffset dy="11.2"/>
<feGaussianBlur stdDeviation="7.46667"/>
<feComposite in2="hardAlpha" operator="out"/>
<feColorMatrix type="matrix" values="0 0 0 0 0.0009 0 0 0 0 0.046935 0 0 0 0 0.09 0 0 0 0.16 0"/>
<feBlend mode="normal" in2="BackgroundImageFix" result="effect1_dropShadow_5172_35357"/>
<feColorMatrix in="SourceAlpha" type="matrix" values="0 0 0 0 0 0 0 0 0 0 0 0 0 0 0 0 0 0 127 0" result="hardAlpha"/>
<feOffset dy="2.33333"/>
<feGaussianBlur stdDeviation="2.33333"/>
<feComposite in2="hardAlpha" operator="out"/>
<feColorMatrix type="matrix" values="0 0 0 0 0.00114583 0 0 0 0 0.0482167 0 0 0 0 0.0916667 0 0 0 0.15 0"/>
<feBlend mode="normal" in2="effect1_dropShadow_5172_35357" result="effect2_dropShadow_5172_35357"/>
<feBlend mode="normal" in="SourceGraphic" in2="effect2_dropShadow_5172_35357" result="shape"/>
<feColorMatrix in="SourceAlpha" type="matrix" values="0 0 0 0 0 0 0 0 0 0 0 0 0 0 0 0 0 0 127 0" result="hardAlpha"/>
<feOffset dx="-1.4" dy="1.4"/>
<feGaussianBlur stdDeviation="2.1"/>
<feComposite in2="hardAlpha" operator="arithmetic" k2="-1" k3="1"/>
<feColorMatrix type="matrix" values="0 0 0 0 1 0 0 0 0 1 0 0 0 0 1 0 0 0 0.66 0"/>
<feBlend mode="normal" in2="shape" result="effect3_innerShadow_5172_35357"/>
<feColorMatrix in="SourceAlpha" type="matrix" values="0 0 0 0 0 0 0 0 0 0 0 0 0 0 0 0 0 0 127 0" result="hardAlpha"/>
<feOffset dy="-0.933333"/>
<feGaussianBlur stdDeviation="0.466667"/>
<feComposite in2="hardAlpha" operator="arithmetic" k2="-1" k3="1"/>
<feColorMatrix type="matrix" values="0 0 0 0 1 0 0 0 0 1 0 0 0 0 1 0 0 0 0.2 0"/>
<feBlend mode="normal" in2="effect3_innerShadow_5172_35357" result="effect4_innerShadow_5172_35357"/>
</filter>
<filter id="filter10_if_5172_35357" x="35" y="69.9938" width="41.7399" height="21.1648" filterUnits="userSpaceOnUse" color-interpolation-filters="sRGB">
<feFlood flood-opacity="0" result="BackgroundImageFix"/>
<feBlend mode="normal" in="SourceGraphic" in2="BackgroundImageFix" result="shape"/>
<feColorMatrix in="SourceAlpha" type="matrix" values="0 0 0 0 0 0 0 0 0 0 0 0 0 0 0 0 0 0 127 0" result="hardAlpha"/>
<feOffset dy="1.86667"/>
<feGaussianBlur stdDeviation="0.933333"/>
<feComposite in2="hardAlpha" operator="arithmetic" k2="-1" k3="1"/>
<feColorMatrix type="matrix" values="0 0 0 0 1 0 0 0 0 1 0 0 0 0 1 0 0 0 0.25 0"/>
<feBlend mode="normal" in2="shape" result="effect1_innerShadow_5172_35357"/>
<feGaussianBlur stdDeviation="2.8" result="effect2_foregroundBlur_5172_35357"/>
</filter>
<filter id="filter11_if_5172_35357" x="69.8072" y="64.4" width="42.635" height="26.7977" filterUnits="userSpaceOnUse" color-interpolation-filters="sRGB">
<feFlood flood-opacity="0" result="BackgroundImageFix"/>
<feBlend mode="normal" in="SourceGraphic" in2="BackgroundImageFix" result="shape"/>
<feColorMatrix in="SourceAlpha" type="matrix" values="0 0 0 0 0 0 0 0 0 0 0 0 0 0 0 0 0 0 127 0" result="hardAlpha"/>
<feOffset dy="0.933333"/>
<feGaussianBlur stdDeviation="0.466667"/>
<feComposite in2="hardAlpha" operator="arithmetic" k2="-1" k3="1"/>
<feColorMatrix type="matrix" values="0 0 0 0 1 0 0 0 0 1 0 0 0 0 1 0 0 0 0.2 0"/>
<feBlend mode="normal" in2="shape" result="effect1_innerShadow_5172_35357"/>
<feGaussianBlur stdDeviation="2.8" result="effect2_foregroundBlur_5172_35357"/>
</filter>
<linearGradient id="paint0_linear_5172_35357" x1="91" y1="70" x2="91" y2="101.733" gradientUnits="userSpaceOnUse">
<stop offset="0.25" stop-color="#3D70FF"/>
<stop offset="0.5" stop-color="#76EDFF"/>
<stop offset="1" stop-color="#CFF9FF"/>
</linearGradient>
<linearGradient id="paint1_linear_5172_35357" x1="102.2" y1="95.6641" x2="102.2" y2="106.864" gradientUnits="userSpaceOnUse">
<stop stop-color="#3D70FF"/>
<stop offset="0.5" stop-color="#76EDFF"/>
<stop offset="1" stop-color="#CFF9FF"/>
</linearGradient>
<linearGradient id="paint2_linear_5172_35357" x1="83.8339" y1="103.598" x2="83.8339" y2="111.665" gradientUnits="userSpaceOnUse">
<stop stop-color="#3D70FF"/>
<stop offset="0.5" stop-color="#76EDFF"/>
<stop offset="1" stop-color="#CFF9FF"/>
</linearGradient>
<linearGradient id="paint3_linear_5172_35357" x1="51.2228" y1="78.1836" x2="51.2228" y2="100.757" gradientUnits="userSpaceOnUse">
<stop offset="0.25" stop-color="#3D70FF"/>
<stop offset="0.5" stop-color="#76EDFF"/>
<stop offset="1" stop-color="#CFF9FF"/>
</linearGradient>
<linearGradient id="paint4_linear_5172_35357" x1="42.5831" y1="75.8594" x2="42.5831" y2="103.822" gradientUnits="userSpaceOnUse">
<stop offset="0.25" stop-color="#3D70FF"/>
<stop offset="0.5" stop-color="#76EDFF"/>
<stop offset="1" stop-color="#CFF9FF"/>
</linearGradient>
<linearGradient id="paint5_linear_5172_35357" x1="60.4313" y1="75.8594" x2="60.4313" y2="104.219" gradientUnits="userSpaceOnUse">
<stop offset="0.25" stop-color="#3D70FF"/>
<stop offset="0.5" stop-color="#76EDFF"/>
<stop offset="1" stop-color="#CFF9FF"/>
</linearGradient>
<linearGradient id="paint6_linear_5172_35357" x1="69.1567" y1="77.0508" x2="69.1567" y2="106.402" gradientUnits="userSpaceOnUse">
<stop offset="0.25" stop-color="#3D70FF"/>
<stop offset="0.5" stop-color="#76EDFF"/>
<stop offset="1" stop-color="#CFF9FF"/>
</linearGradient>
<linearGradient id="paint7_linear_5172_35357" x1="93.5667" y1="20.0664" x2="50.7039" y2="85.5707" gradientUnits="userSpaceOnUse">
<stop offset="0.16364" stop-color="#FAFAFA"/>
<stop offset="0.792483" stop-color="#DDE9F8"/>
</linearGradient>
<linearGradient id="paint8_linear_5172_35357" x1="43.4713" y1="75.5938" x2="43.4714" y2="85.7035" gradientUnits="userSpaceOnUse">
<stop stop-color="#85B0F1"/>
<stop offset="1" stop-color="#3373D3"/>
</linearGradient>
<linearGradient id="paint9_linear_5172_35357" x1="91.1247" y1="70" x2="91.1247" y2="85.5971" gradientUnits="userSpaceOnUse">
<stop offset="0.135417" stop-color="#76B6FF"/>
<stop offset="1" stop-color="#2C4BB8"/>
</linearGradient>
</defs>
</svg>
