<svg width="176" height="35" viewBox="0 0 176 35" fill="none" xmlns="http://www.w3.org/2000/svg">
<mask id="path-1-inside-1_9788_106644" fill="white">
<path d="M87.5244 33.8951C87.8944 34.2017 88.4298 34.2016 88.7998 33.8951L93.0508 30.3746H172C174.209 30.3746 176 28.5837 176 26.3746V4.00062C176 1.79159 174.209 0.000617981 172 0.000617981H4C1.79094 0.000617981 0.00013316 1.79159 0 4.00062V26.3746C9.81418e-05 28.5837 1.79092 30.3746 4 30.3746H83.2734L87.5244 33.8951Z"/>
</mask>
<path d="M87.5244 33.8951C87.8944 34.2017 88.4298 34.2016 88.7998 33.8951L93.0508 30.3746H172C174.209 30.3746 176 28.5837 176 26.3746V4.00062C176 1.79159 174.209 0.000617981 172 0.000617981H4C1.79094 0.000617981 0.00013316 1.79159 0 4.00062V26.3746C9.81418e-05 28.5837 1.79092 30.3746 4 30.3746H83.2734L87.5244 33.8951Z" fill="#26283F"/>
<path d="M87.5244 33.8951L88.1622 33.125L88.1623 33.1251L87.5244 33.8951ZM88.7998 33.8951L89.4376 34.6653L89.4376 34.6654L88.7998 33.8951ZM93.0508 30.3746L92.4129 29.6045L92.6905 29.3746H93.0508V30.3746ZM176 26.3746H177V26.3747L176 26.3746ZM176 4.00062L177 4.00056V4.00062H176ZM172 0.000617981V-0.999382V0.000617981ZM0 4.00062H-1V4.00056L0 4.00062ZM0 26.3746L-1 26.3747V26.3746H0ZM4 30.3746V31.3746V30.3746ZM83.2734 30.3746V29.3746H83.6338L83.9113 29.6045L83.2734 30.3746ZM87.5244 33.8951L88.1623 33.1251L88.162 33.1249L88.7998 33.8951L89.4376 34.6654C88.6977 35.2781 87.6267 35.2784 86.8865 34.6652L87.5244 33.8951ZM88.7998 33.8951L88.162 33.125L92.4129 29.6045L93.0508 30.3746L93.6886 31.1448L89.4376 34.6653L88.7998 33.8951ZM93.0508 30.3746V29.3746H172V30.3746V31.3746H93.0508V30.3746ZM172 30.3746V29.3746C173.657 29.3746 175 28.0314 175 26.3746L176 26.3746L177 26.3747C177 29.1359 174.761 31.3746 172 31.3746V30.3746ZM176 26.3746H175V4.00062H176H177V26.3746H176ZM176 4.00062L175 4.00068C175 2.34383 173.657 1.00062 172 1.00062V0.000617981V-0.999382C174.761 -0.999382 177 1.23935 177 4.00056L176 4.00062ZM172 0.000617981V1.00062H4V0.000617981V-0.999382H172V0.000617981ZM4 0.000617981V1.00062C2.34329 1.00062 1.0001 2.34383 1 4.00068L0 4.00062L-1 4.00056C-0.999834 1.23935 1.2386 -0.999382 4 -0.999382V0.000617981ZM0 4.00062H1V26.3746H0H-1V4.00062H0ZM0 26.3746L1 26.3746C1.00007 28.0314 2.34325 29.3746 4 29.3746V30.3746V31.3746C1.23859 31.3746 -0.999877 29.1359 -1 26.3747L0 26.3746ZM4 30.3746V29.3746H83.2734V30.3746V31.3746H4V30.3746ZM83.2734 30.3746L83.9113 29.6045L88.1622 33.125L87.5244 33.8951L86.8866 34.6653L82.6356 31.1448L83.2734 30.3746Z" fill="#7F7AFF" mask="url(#path-1-inside-1_9788_106644)"/>
<path d="M21.75 8.53418V14.0273H23.7275V15.1992H21.75V21.6592H20.3584V8.53418H21.75ZM11.3057 18.085C12.3384 18.085 13.5396 18.085 14.792 18.041V16.708C13.3125 16.5029 12.3457 15.6094 12.3604 14.335C12.3457 12.8555 13.6201 11.874 15.4951 11.874C17.3555 11.874 18.6445 12.8555 18.6592 14.335C18.6445 15.6094 17.6631 16.5103 16.1836 16.7227V17.9824C17.3481 17.9385 18.52 17.8433 19.6113 17.6895L19.6992 18.7148C16.8574 19.2275 13.7812 19.2422 11.5254 19.2422L11.3057 18.085ZM19.4209 10.0869V11.2002H11.5547V10.0869H14.792V8.56348H16.1836V10.0869H19.4209ZM15.4951 12.958C14.3965 12.958 13.6641 13.5 13.6641 14.335C13.6641 15.1699 14.3965 15.6826 15.4951 15.6826C16.5938 15.6826 17.3262 15.1699 17.3262 14.335C17.3262 13.5 16.5938 12.958 15.4951 12.958ZM28.957 10.6289C28.957 12.3574 30.1582 13.9541 32.1211 14.5986L31.374 15.6973C29.9385 15.1919 28.8618 14.1665 28.2979 12.8701C27.7192 14.3423 26.606 15.4922 25.0752 16.0635L24.3281 14.9502C26.3789 14.2178 27.5654 12.4746 27.5801 10.5117V9.22266H28.957V10.6289ZM34.7432 8.53418V11.8301H36.6475V13.002H34.7432V16.459H33.3516V8.53418H34.7432ZM30.5098 16.7666C33.2051 16.7666 34.8604 17.6602 34.8604 19.1982C34.8604 20.751 33.2051 21.6445 30.5098 21.6299C27.7852 21.6445 26.1006 20.751 26.1006 19.1982C26.1006 17.6602 27.7852 16.7666 30.5098 16.7666ZM30.5098 17.8652C28.6055 17.8652 27.4775 18.3633 27.4922 19.1982C27.4775 20.0625 28.6055 20.5312 30.5098 20.5459C32.3994 20.5312 33.498 20.0625 33.498 19.1982C33.498 18.3633 32.3994 17.8652 30.5098 17.8652ZM48.249 8.53418V21.6592H46.8574V8.53418H48.249ZM37.4678 18.085C38.5444 18.0776 39.7822 18.0703 41.0713 18.0264V16.7227C39.5332 16.5249 38.5371 15.624 38.5518 14.335C38.5371 12.8555 39.8262 11.874 41.7305 11.874C43.6494 11.874 44.9678 12.8555 44.9678 14.335C44.9678 15.6094 43.9717 16.5029 42.4482 16.708V17.9824C43.6641 17.9312 44.8945 17.8359 46.0518 17.6895L46.1543 18.7295C43.2393 19.2129 40.0605 19.2422 37.6582 19.2422L37.4678 18.085ZM45.7588 10.1016V11.2148H37.7461V10.1016H41.0713V8.56348H42.4629V10.1016H45.7588ZM41.7305 12.958C40.6318 12.958 39.8555 13.5 39.8701 14.335C39.8555 15.1699 40.6318 15.6826 41.7305 15.6826C42.8584 15.6826 43.6348 15.1699 43.6348 14.335C43.6348 13.5 42.8584 12.958 41.7305 12.958ZM54.6357 9.47168C56.7158 9.45703 58.1953 10.7461 58.21 12.5918C58.1953 14.4375 56.7158 15.7266 54.6357 15.7266C52.5703 15.7266 51.0469 14.4375 51.0615 12.5918C51.0469 10.7461 52.5703 9.45703 54.6357 9.47168ZM54.6357 10.6729C53.3613 10.6729 52.4238 11.4346 52.4385 12.5918C52.4238 13.749 53.3613 14.5107 54.6357 14.5107C55.9102 14.5107 56.8477 13.749 56.8477 12.5918C56.8477 11.4346 55.9102 10.6729 54.6357 10.6729ZM61.2129 8.53418V21.6885H59.8213V8.53418H61.2129ZM50.4316 17.7041C52.8193 17.7041 56.1299 17.6748 59.001 17.2646L59.1035 18.2754C56.1299 18.8467 52.9512 18.8613 50.6074 18.8613L50.4316 17.7041ZM74.2939 9.53027V10.2627C74.2793 11.1416 74.2793 12.4453 73.957 14.1445L72.5801 14.0127C72.8657 12.5552 72.9097 11.5005 72.9316 10.6729H67.6729V9.53027H74.2939ZM70.9395 12.4746V15.1846C72.3457 15.1406 73.7959 15.0381 75.1143 14.8477L75.2021 15.8584C72.4629 16.3418 69.3281 16.3857 67.0137 16.4004L66.8818 15.2725C67.6875 15.2651 68.603 15.2578 69.5625 15.2285V12.4746H70.9395ZM77.3701 8.53418V12.709H79.1719V13.8809H77.3701V18.3926H75.9492V8.53418H77.3701ZM77.7949 20.2529V21.3809H68.874V17.499H70.2656V20.2529H77.7949ZM90.8467 8.53418V21.6885H89.4551V8.53418H90.8467ZM86.833 9.7207V14.5107H82.1162V17.3818C84.2402 17.3745 86.1006 17.2793 88.2979 16.9131L88.4297 18.0557C86.1006 18.4512 84.123 18.5391 81.8086 18.5391H80.6953V13.3975H85.4121V10.8486H80.6807V9.7207H86.833ZM101.13 11.874C101.115 14.2031 102.463 16.5762 104.426 17.5283L103.562 18.6416C102.133 17.9019 101.027 16.4297 100.456 14.6719C99.8628 16.5469 98.7129 18.1143 97.2188 18.8906L96.3545 17.7627C98.376 16.7959 99.7383 14.2764 99.7383 11.874V9.63281H101.13V11.874ZM106.799 8.53418V13.7637H108.908V14.9502H106.799V21.6592H105.407V8.53418H106.799ZM121.506 14.9355V16.0635H109.538V14.9355H112.409V13.1631C111.398 12.7529 110.827 12.0938 110.827 11.2295C110.827 9.67676 112.629 8.76855 115.515 8.76855C118.386 8.76855 120.202 9.67676 120.202 11.2295C120.202 12.0938 119.624 12.7603 118.605 13.1631V14.9355H121.506ZM115.515 16.957C118.342 16.957 120.041 17.792 120.041 19.2861C120.041 20.8096 118.342 21.6299 115.515 21.6299C112.658 21.6299 110.959 20.8096 110.959 19.2861C110.959 17.792 112.658 16.957 115.515 16.957ZM115.515 18.0264C113.508 18.0264 112.365 18.4805 112.365 19.2861C112.365 20.1064 113.508 20.5752 115.515 20.5605C117.492 20.5752 118.649 20.1064 118.649 19.2861C118.649 18.4805 117.492 18.0264 115.515 18.0264ZM115.515 9.83789C113.479 9.83789 112.248 10.3506 112.263 11.2295C112.248 12.1084 113.479 12.6064 115.515 12.6064C117.551 12.6064 118.767 12.1084 118.767 11.2295C118.767 10.3506 117.551 9.83789 115.515 9.83789ZM113.815 14.9355H117.229V13.5293C116.716 13.6172 116.137 13.6611 115.515 13.6611C114.899 13.6611 114.328 13.6172 113.815 13.5439V14.9355ZM136.389 8.53418V13.7637H138.425V14.9209H136.389V21.6445H134.997V8.53418H136.389ZM132.961 9.91113C132.946 13.7051 131.276 17.0889 126.955 19.2275L126.179 18.1436C129.467 16.5029 131.254 14.1299 131.54 11.0684H126.838V9.91113H132.961ZM149.997 8.53418V21.6885H148.605V8.53418H149.997ZM142.98 9.51562C144.929 9.51562 146.364 11.3027 146.364 14.1152C146.364 16.9424 144.929 18.7295 142.98 18.7295C141.003 18.7295 139.582 16.9424 139.582 14.1152C139.582 11.3027 141.003 9.51562 142.98 9.51562ZM142.98 10.7607C141.765 10.7607 140.93 12.0498 140.93 14.1152C140.93 16.1953 141.765 17.4844 142.98 17.4844C144.182 17.4844 145.017 16.1953 145.017 14.1152C145.017 12.0498 144.182 10.7607 142.98 10.7607ZM162.727 14.7598V15.9023H153.586V9.70605H162.609V10.8486H154.963V14.7598H162.727ZM164.104 18.7734V19.9307H152.092V18.7734H164.104Z" fill="white"/>
</svg>
