<svg width="176" height="35" viewBox="0 0 176 35" fill="none" xmlns="http://www.w3.org/2000/svg">
<mask id="path-1-inside-1_9788_106617" fill="white">
<path d="M87.5244 33.8951C87.8944 34.2017 88.4298 34.2016 88.7998 33.8951L93.0508 30.3746H172C174.209 30.3746 176 28.5837 176 26.3746V4.00062C176 1.79159 174.209 0.000617981 172 0.000617981H4C1.79094 0.000617981 0.00013316 1.79159 0 4.00062V26.3746C9.81418e-05 28.5837 1.79092 30.3746 4 30.3746H83.2734L87.5244 33.8951Z"/>
</mask>
<path d="M87.5244 33.8951C87.8944 34.2017 88.4298 34.2016 88.7998 33.8951L93.0508 30.3746H172C174.209 30.3746 176 28.5837 176 26.3746V4.00062C176 1.79159 174.209 0.000617981 172 0.000617981H4C1.79094 0.000617981 0.00013316 1.79159 0 4.00062V26.3746C9.81418e-05 28.5837 1.79092 30.3746 4 30.3746H83.2734L87.5244 33.8951Z" fill="#26283F"/>
<path d="M87.5244 33.8951L88.1622 33.125L88.1623 33.1251L87.5244 33.8951ZM88.7998 33.8951L89.4376 34.6653L89.4376 34.6654L88.7998 33.8951ZM93.0508 30.3746L92.4129 29.6045L92.6905 29.3746H93.0508V30.3746ZM176 26.3746H177V26.3747L176 26.3746ZM176 4.00062L177 4.00056V4.00062H176ZM172 0.000617981V-0.999382V0.000617981ZM0 4.00062H-1V4.00056L0 4.00062ZM0 26.3746L-1 26.3747V26.3746H0ZM4 30.3746V31.3746V30.3746ZM83.2734 30.3746V29.3746H83.6338L83.9113 29.6045L83.2734 30.3746ZM87.5244 33.8951L88.1623 33.1251L88.162 33.1249L88.7998 33.8951L89.4376 34.6654C88.6977 35.2781 87.6267 35.2784 86.8865 34.6652L87.5244 33.8951ZM88.7998 33.8951L88.162 33.125L92.4129 29.6045L93.0508 30.3746L93.6886 31.1448L89.4376 34.6653L88.7998 33.8951ZM93.0508 30.3746V29.3746H172V30.3746V31.3746H93.0508V30.3746ZM172 30.3746V29.3746C173.657 29.3746 175 28.0314 175 26.3746L176 26.3746L177 26.3747C177 29.1359 174.761 31.3746 172 31.3746V30.3746ZM176 26.3746H175V4.00062H176H177V26.3746H176ZM176 4.00062L175 4.00068C175 2.34383 173.657 1.00062 172 1.00062V0.000617981V-0.999382C174.761 -0.999382 177 1.23935 177 4.00056L176 4.00062ZM172 0.000617981V1.00062H4V0.000617981V-0.999382H172V0.000617981ZM4 0.000617981V1.00062C2.34329 1.00062 1.0001 2.34383 1 4.00068L0 4.00062L-1 4.00056C-0.999834 1.23935 1.2386 -0.999382 4 -0.999382V0.000617981ZM0 4.00062H1V26.3746H0H-1V4.00062H0ZM0 26.3746L1 26.3746C1.00007 28.0314 2.34325 29.3746 4 29.3746V30.3746V31.3746C1.23859 31.3746 -0.999877 29.1359 -1 26.3747L0 26.3746ZM4 30.3746V29.3746H83.2734V30.3746V31.3746H4V30.3746ZM83.2734 30.3746L83.9113 29.6045L88.1622 33.125L87.5244 33.8951L86.8866 34.6653L82.6356 31.1448L83.2734 30.3746Z" fill="#7F7AFF" mask="url(#path-1-inside-1_9788_106617)"/>
<path d="M21.75 14.0273H23.7275V15.1992H21.75V21.6592H20.3584V8.53418H21.75V14.0273ZM11.3057 18.085C12.7949 18.085 13.957 18.0728 14.792 18.0483V16.7153C14.2988 16.6421 13.8667 16.498 13.4956 16.2832C13.1294 16.0684 12.8462 15.7949 12.646 15.4629C12.4507 15.126 12.3555 14.75 12.3604 14.335C12.3555 13.8467 12.4824 13.417 12.7412 13.0459C13.0049 12.6748 13.3735 12.3867 13.8472 12.1816C14.3257 11.9766 14.875 11.874 15.4951 11.874C16.1104 11.874 16.6572 11.9766 17.1357 12.1816C17.6143 12.3867 17.9878 12.6748 18.2563 13.0459C18.5249 13.417 18.6592 13.8467 18.6592 14.335C18.6592 14.75 18.5566 15.126 18.3516 15.4629C18.1465 15.7949 17.856 16.0708 17.48 16.2905C17.1089 16.5054 16.6768 16.647 16.1836 16.7153V17.9971C17.4727 17.9336 18.6152 17.8311 19.6113 17.6895L19.6992 18.7148C18.5127 18.9248 17.2847 19.0664 16.0151 19.1396C14.7505 19.208 13.4175 19.2422 12.0161 19.2422H11.5254L11.3057 18.085ZM11.5547 10.0869H14.792V8.56348H16.1836V10.0869H19.4209V11.2002H11.5547V10.0869ZM13.6641 14.335C13.6641 14.6084 13.7397 14.8477 13.8911 15.0527C14.0425 15.2529 14.2524 15.4092 14.521 15.5215C14.7944 15.6289 15.1118 15.6826 15.4731 15.6826C16.0347 15.6826 16.4814 15.563 16.8135 15.3237C17.1504 15.0845 17.3213 14.7549 17.3262 14.335C17.3262 14.0566 17.248 13.8149 17.0918 13.6099C16.9404 13.3999 16.7256 13.2388 16.4473 13.1265C16.1738 13.0142 15.8564 12.958 15.4951 12.958C15.1289 12.958 14.8066 13.0142 14.5283 13.1265C14.2549 13.2388 14.0425 13.3999 13.8911 13.6099C13.7397 13.8149 13.6641 14.0566 13.6641 14.335ZM28.957 10.6289C28.957 11.2002 29.084 11.7495 29.3379 12.2769C29.5967 12.8042 29.9653 13.2705 30.4438 13.6758C30.9224 14.0811 31.4814 14.3887 32.1211 14.5986L31.374 15.6973C30.666 15.4482 30.0459 15.0796 29.5137 14.5913C28.9863 14.0981 28.5786 13.5244 28.2905 12.8701C28.0024 13.6172 27.5825 14.2666 27.0308 14.8184C26.4839 15.3701 25.832 15.7852 25.0752 16.0635L24.3281 14.9502C25.002 14.7109 25.5806 14.3691 26.064 13.9248C26.5522 13.4805 26.9258 12.9653 27.1846 12.3794C27.4434 11.7886 27.5752 11.166 27.5801 10.5117V9.22266H28.957V10.6289ZM26.1006 19.1982C26.1006 18.6904 26.2764 18.2534 26.6279 17.8872C26.9844 17.521 27.4922 17.2427 28.1514 17.0522C28.8154 16.8618 29.6016 16.7666 30.5098 16.7666C31.4033 16.7666 32.1772 16.8618 32.8315 17.0522C33.4858 17.2427 33.9863 17.521 34.333 17.8872C34.6846 18.2534 34.8604 18.6904 34.8604 19.1982C34.8604 19.7109 34.6846 20.1504 34.333 20.5166C33.9863 20.8828 33.4858 21.1587 32.8315 21.3442C32.1821 21.5347 31.4082 21.6299 30.5098 21.6299C29.6016 21.6299 28.8154 21.5347 28.1514 21.3442C27.4922 21.1587 26.9844 20.8828 26.6279 20.5166C26.2764 20.1504 26.1006 19.7109 26.1006 19.1982ZM27.4922 19.1982C27.4873 19.6279 27.7485 19.9575 28.2759 20.187C28.8081 20.4165 29.5527 20.5361 30.5098 20.5459C31.4619 20.5361 32.1992 20.4165 32.7217 20.187C33.2441 19.9575 33.5029 19.6279 33.498 19.1982C33.498 18.9199 33.3809 18.6807 33.1465 18.4805C32.9121 18.2803 32.5703 18.1289 32.1211 18.0264C31.6719 17.9189 31.1348 17.8652 30.5098 17.8652C29.8799 17.8652 29.3379 17.9189 28.8838 18.0264C28.4346 18.1289 28.0903 18.2803 27.8511 18.4805C27.6118 18.6807 27.4922 18.9199 27.4922 19.1982ZM33.3516 8.53418H34.7432V11.8301H36.6475V13.002H34.7432V16.459H33.3516V8.53418ZM48.249 21.6592H46.8574V8.53418H48.249V21.6592ZM37.4678 18.085C39.0498 18.0752 40.251 18.0605 41.0713 18.041V16.7227C40.5635 16.6543 40.1191 16.5127 39.7383 16.2979C39.3574 16.083 39.0645 15.8071 38.8594 15.4702C38.6543 15.1333 38.5518 14.7549 38.5518 14.335C38.5518 13.8467 38.6836 13.417 38.9473 13.0459C39.2109 12.6748 39.5845 12.3867 40.0679 12.1816C40.5513 11.9766 41.1055 11.874 41.7305 11.874C42.3652 11.874 42.9268 11.9766 43.415 12.1816C43.9033 12.3867 44.2842 12.6748 44.5576 13.0459C44.8311 13.417 44.9678 13.8467 44.9678 14.335C44.9678 14.75 44.8628 15.126 44.6528 15.4629C44.4478 15.7949 44.1548 16.0684 43.7739 16.2832C43.3979 16.498 42.9561 16.6421 42.4482 16.7153V17.9897C43.8545 17.9214 45.0557 17.8213 46.0518 17.6895L46.1543 18.7295C44.9287 18.9346 43.6543 19.0713 42.3311 19.1396C41.0078 19.208 39.6089 19.2422 38.1343 19.2422H37.6582L37.4678 18.085ZM37.7461 10.1016H41.0713V8.56348H42.4629V10.1016H45.7588V11.2148H37.7461V10.1016ZM39.8701 14.335C39.8652 14.6084 39.9385 14.8477 40.0898 15.0527C40.2461 15.2529 40.4634 15.4092 40.7417 15.5215C41.0249 15.6289 41.3472 15.6826 41.7085 15.6826C42.0894 15.6826 42.4238 15.6289 42.7119 15.5215C43.0049 15.4141 43.2319 15.2603 43.3931 15.0601C43.5542 14.855 43.6348 14.6133 43.6348 14.335C43.6348 14.0566 43.5542 13.8149 43.3931 13.6099C43.2368 13.3999 43.0146 13.2388 42.7266 13.1265C42.4385 13.0142 42.1064 12.958 41.7305 12.958C41.3643 12.958 41.0396 13.0142 40.7563 13.1265C40.4731 13.2388 40.2534 13.3999 40.0972 13.6099C39.9409 13.8149 39.8652 14.0566 39.8701 14.335ZM54.6357 9.47168C55.3193 9.47168 55.9321 9.60352 56.4741 9.86719C57.0161 10.126 57.4409 10.4946 57.7485 10.9731C58.0562 11.4468 58.21 11.9863 58.21 12.5918C58.21 13.1973 58.0562 13.7393 57.7485 14.2178C57.4409 14.6914 57.0161 15.0625 56.4741 15.3311C55.9321 15.5947 55.3193 15.7266 54.6357 15.7266C53.9521 15.7266 53.3369 15.5947 52.79 15.3311C52.248 15.0625 51.8232 14.6914 51.5156 14.2178C51.2129 13.7393 51.0615 13.1973 51.0615 12.5918C51.0615 11.9863 51.2129 11.4468 51.5156 10.9731C51.8232 10.4995 52.248 10.1309 52.79 9.86719C53.3369 9.60352 53.9521 9.47168 54.6357 9.47168ZM50.4316 17.7041C52.082 17.7041 53.6055 17.6772 55.002 17.6235C56.3984 17.5698 57.7314 17.4502 59.001 17.2646L59.1035 18.2754C57.7949 18.5293 56.4644 18.6904 55.1118 18.7588C53.7642 18.8271 52.2627 18.8613 50.6074 18.8613L50.4316 17.7041ZM52.4385 12.5918C52.4336 12.9727 52.5239 13.3096 52.7095 13.6025C52.8999 13.8906 53.1611 14.1152 53.4932 14.2764C53.8301 14.4326 54.2109 14.5107 54.6357 14.5107C55.0605 14.5107 55.439 14.4326 55.771 14.2764C56.1079 14.1152 56.3716 13.8906 56.562 13.6025C56.7524 13.3096 56.8477 12.9727 56.8477 12.5918C56.8477 12.2158 56.7524 11.8838 56.562 11.5957C56.3716 11.3027 56.1079 11.0757 55.771 10.9146C55.4341 10.7534 55.0557 10.6729 54.6357 10.6729C54.2109 10.6729 53.8301 10.7534 53.4932 10.9146C53.1611 11.0757 52.8999 11.3027 52.7095 11.5957C52.5239 11.8838 52.4336 12.2158 52.4385 12.5918ZM59.8213 8.53418H61.2129V21.6885H59.8213V8.53418ZM77.9121 15.6826H76.5352V12.7822H74.0742V11.6396H76.5352V8.53418H77.9121V15.6826ZM66.999 14.8037C67.6582 14.5742 68.2344 14.2422 68.7275 13.8076C69.2256 13.373 69.6064 12.875 69.8701 12.3135C70.1338 11.752 70.2656 11.1709 70.2656 10.5703V10.3945H67.4238V9.2666H74.499V10.3945H71.6865V10.585C71.6816 11.127 71.8062 11.6592 72.0601 12.1816C72.3188 12.7041 72.6875 13.1729 73.166 13.5879C73.6445 13.998 74.2061 14.3105 74.8506 14.5254L74.1328 15.6094C73.4053 15.3506 72.7729 14.9746 72.2358 14.4814C71.6987 13.9834 71.2861 13.4072 70.998 12.7529C70.71 13.4854 70.2827 14.1274 69.7163 14.6792C69.1548 15.2261 68.4883 15.6338 67.7168 15.9023L66.999 14.8037ZM69.3721 16.2686H70.749V17.7773H76.5352V16.2686H77.9121V21.498H69.3721V16.2686ZM76.5352 20.3701V18.8613H70.749V20.3701H76.5352ZM91.9453 16.1953H79.9482V15.0527H85.2363V13.1338H86.6133V15.0527H91.9453V16.1953ZM80.6367 12.7529C81.4668 12.6455 82.231 12.4233 82.9292 12.0864C83.6323 11.7446 84.189 11.3296 84.5991 10.8413C85.0142 10.353 85.2217 9.83789 85.2217 9.2959V8.73926H86.6279V9.2959C86.6279 9.84277 86.8306 10.3628 87.2358 10.856C87.646 11.3442 88.2002 11.7568 88.8984 12.0938C89.6016 12.4258 90.373 12.6455 91.2129 12.7529L90.6709 13.8516C89.6113 13.6807 88.6567 13.3511 87.8071 12.8628C86.9575 12.3696 86.3276 11.7666 85.9175 11.0537C85.5073 11.7666 84.8774 12.3696 84.0278 12.8628C83.1782 13.3511 82.2188 13.6807 81.1494 13.8516L80.6367 12.7529ZM81.2812 17.3525H90.4512V21.6592H89.0449V18.4512H81.2812V17.3525ZM101.13 11.874C101.125 12.6406 101.262 13.3999 101.54 14.1519C101.818 14.9038 102.209 15.5776 102.712 16.1733C103.215 16.7642 103.786 17.2158 104.426 17.5283L103.562 18.6416C102.858 18.2705 102.236 17.7407 101.694 17.0522C101.157 16.3589 100.742 15.5679 100.449 14.6792C100.151 15.6265 99.7212 16.4712 99.1597 17.2134C98.603 17.9507 97.9561 18.5098 97.2188 18.8906L96.3545 17.7627C97.0137 17.4453 97.5996 16.9766 98.1123 16.3564C98.625 15.7363 99.0229 15.0332 99.3062 14.2471C99.5942 13.4609 99.7383 12.6699 99.7383 11.874V9.63281H101.13V11.874ZM105.407 8.53418H106.799V13.7637H108.908V14.9502H106.799V21.6592H105.407V8.53418ZM121.506 16.0635H109.538V14.9355H112.409V13.1704C111.892 12.9604 111.496 12.6919 111.223 12.3647C110.954 12.0376 110.822 11.6592 110.827 11.2295C110.827 10.7168 111.015 10.2749 111.391 9.90381C111.772 9.53271 112.314 9.25195 113.017 9.06152C113.725 8.86621 114.558 8.76855 115.515 8.76855C116.472 8.76855 117.302 8.86621 118.005 9.06152C118.708 9.25195 119.25 9.53271 119.631 9.90381C120.012 10.2749 120.202 10.7168 120.202 11.2295C120.197 11.6592 120.058 12.04 119.785 12.3721C119.511 12.6992 119.118 12.9678 118.605 13.1777V14.9355H121.506V16.0635ZM110.959 19.2861C110.959 18.7881 111.14 18.3657 111.501 18.019C111.862 17.6724 112.382 17.4087 113.061 17.228C113.745 17.0474 114.562 16.957 115.515 16.957C116.452 16.957 117.26 17.0474 117.939 17.228C118.618 17.4087 119.138 17.6748 119.499 18.0264C119.86 18.373 120.041 18.793 120.041 19.2861C120.041 19.7842 119.86 20.209 119.499 20.5605C119.138 20.9121 118.618 21.1782 117.939 21.3589C117.265 21.5396 116.457 21.6299 115.515 21.6299C114.562 21.6299 113.745 21.5396 113.061 21.3589C112.382 21.1782 111.862 20.9121 111.501 20.5605C111.14 20.2139 110.959 19.7891 110.959 19.2861ZM112.263 11.2295C112.258 11.6641 112.541 12.001 113.112 12.2402C113.684 12.4795 114.484 12.6016 115.515 12.6064C116.54 12.6016 117.338 12.4795 117.91 12.2402C118.486 12.001 118.771 11.6641 118.767 11.2295C118.767 10.9414 118.637 10.6924 118.378 10.4824C118.12 10.2725 117.746 10.1138 117.258 10.0063C116.77 9.89404 116.188 9.83789 115.515 9.83789C114.489 9.84277 113.688 9.96729 113.112 10.2114C112.541 10.4507 112.258 10.79 112.263 11.2295ZM112.365 19.2861C112.36 19.6963 112.634 20.0137 113.186 20.2383C113.737 20.458 114.514 20.5654 115.515 20.5605C116.506 20.5703 117.275 20.4629 117.822 20.2383C118.374 20.0137 118.649 19.6963 118.649 19.2861C118.649 18.8857 118.374 18.5757 117.822 18.356C117.275 18.1362 116.506 18.0264 115.515 18.0264C114.509 18.0264 113.73 18.1362 113.178 18.356C112.631 18.5757 112.36 18.8857 112.365 19.2861ZM117.229 14.9355V13.5366C116.701 13.6196 116.13 13.6611 115.515 13.6611C114.929 13.6611 114.362 13.6221 113.815 13.5439V14.9355H117.229ZM136.389 13.7637H138.425V14.9209H136.389V21.6445H134.997V8.53418H136.389V13.7637ZM126.179 18.1436C127.819 17.3232 129.086 16.3223 129.98 15.1406C130.878 13.959 131.398 12.6016 131.54 11.0684H126.838V9.91113H132.961C132.951 11.9131 132.465 13.7124 131.503 15.3091C130.542 16.9009 129.025 18.207 126.955 19.2275L126.179 18.1436ZM149.997 21.6885H148.605V8.53418H149.997V21.6885ZM139.582 14.1152C139.582 13.1973 139.726 12.3916 140.014 11.6982C140.302 11 140.703 10.4629 141.215 10.0869C141.733 9.70605 142.321 9.51562 142.98 9.51562C143.63 9.51562 144.211 9.70605 144.724 10.0869C145.236 10.4629 145.637 11 145.925 11.6982C146.218 12.3916 146.364 13.1973 146.364 14.1152C146.364 15.043 146.218 15.856 145.925 16.5542C145.637 17.2524 145.236 17.7896 144.724 18.1655C144.211 18.5415 143.63 18.7295 142.98 18.7295C142.321 18.7295 141.733 18.5415 141.215 18.1655C140.703 17.7896 140.302 17.2524 140.014 16.5542C139.726 15.856 139.582 15.043 139.582 14.1152ZM140.93 14.1152C140.93 14.7988 141.015 15.3945 141.186 15.9023C141.357 16.4102 141.596 16.8008 141.904 17.0742C142.216 17.3477 142.575 17.4844 142.98 17.4844C143.381 17.4844 143.735 17.3477 144.042 17.0742C144.35 16.8008 144.589 16.4102 144.76 15.9023C144.931 15.3945 145.017 14.7988 145.017 14.1152C145.017 13.4414 144.931 12.853 144.76 12.3501C144.589 11.8423 144.35 11.4517 144.042 11.1782C143.735 10.8999 143.381 10.7607 142.98 10.7607C142.575 10.7607 142.216 10.8999 141.904 11.1782C141.596 11.4517 141.357 11.8423 141.186 12.3501C141.015 12.853 140.93 13.4414 140.93 14.1152ZM162.727 15.9023H153.586V9.70605H162.609V10.8486H154.963V14.7598H162.727V15.9023ZM152.092 18.7734H164.104V19.9307H152.092V18.7734Z" fill="white"/>
</svg>
