<svg width="176" height="35" viewBox="0 0 176 35" fill="none" xmlns="http://www.w3.org/2000/svg">
<mask id="path-1-inside-1_9872_73375" fill="white">
<path d="M87.5244 33.8951C87.8944 34.2017 88.4298 34.2016 88.7998 33.8951L93.0508 30.3746H172C174.209 30.3746 176 28.5837 176 26.3746V4.00062C176 1.79159 174.209 0.000617981 172 0.000617981H4C1.79094 0.000617981 0.00013316 1.79159 0 4.00062V26.3746C9.81418e-05 28.5837 1.79092 30.3746 4 30.3746H83.2734L87.5244 33.8951Z"/>
</mask>
<path d="M87.5244 33.8951C87.8944 34.2017 88.4298 34.2016 88.7998 33.8951L93.0508 30.3746H172C174.209 30.3746 176 28.5837 176 26.3746V4.00062C176 1.79159 174.209 0.000617981 172 0.000617981H4C1.79094 0.000617981 0.00013316 1.79159 0 4.00062V26.3746C9.81418e-05 28.5837 1.79092 30.3746 4 30.3746H83.2734L87.5244 33.8951Z" fill="#26283F"/>
<path d="M87.5244 33.8951L88.1622 33.125L88.1623 33.1251L87.5244 33.8951ZM88.7998 33.8951L89.4376 34.6653L89.4376 34.6654L88.7998 33.8951ZM93.0508 30.3746L92.4129 29.6045L92.6905 29.3746H93.0508V30.3746ZM176 26.3746H177V26.3747L176 26.3746ZM176 4.00062L177 4.00056V4.00062H176ZM172 0.000617981V-0.999382V0.000617981ZM0 4.00062H-1V4.00056L0 4.00062ZM0 26.3746L-1 26.3747V26.3746H0ZM4 30.3746V31.3746V30.3746ZM83.2734 30.3746V29.3746H83.6338L83.9113 29.6045L83.2734 30.3746ZM87.5244 33.8951L88.1623 33.1251L88.162 33.1249L88.7998 33.8951L89.4376 34.6654C88.6977 35.2781 87.6267 35.2784 86.8865 34.6652L87.5244 33.8951ZM88.7998 33.8951L88.162 33.125L92.4129 29.6045L93.0508 30.3746L93.6886 31.1448L89.4376 34.6653L88.7998 33.8951ZM93.0508 30.3746V29.3746H172V30.3746V31.3746H93.0508V30.3746ZM172 30.3746V29.3746C173.657 29.3746 175 28.0314 175 26.3746L176 26.3746L177 26.3747C177 29.1359 174.761 31.3746 172 31.3746V30.3746ZM176 26.3746H175V4.00062H176H177V26.3746H176ZM176 4.00062L175 4.00068C175 2.34383 173.657 1.00062 172 1.00062V0.000617981V-0.999382C174.761 -0.999382 177 1.23935 177 4.00056L176 4.00062ZM172 0.000617981V1.00062H4V0.000617981V-0.999382H172V0.000617981ZM4 0.000617981V1.00062C2.34329 1.00062 1.0001 2.34383 1 4.00068L0 4.00062L-1 4.00056C-0.999834 1.23935 1.2386 -0.999382 4 -0.999382V0.000617981ZM0 4.00062H1V26.3746H0H-1V4.00062H0ZM0 26.3746L1 26.3746C1.00007 28.0314 2.34325 29.3746 4 29.3746V30.3746V31.3746C1.23859 31.3746 -0.999877 29.1359 -1 26.3747L0 26.3746ZM4 30.3746V29.3746H83.2734V30.3746V31.3746H4V30.3746ZM83.2734 30.3746L83.9113 29.6045L88.1622 33.125L87.5244 33.8951L86.8866 34.6653L82.6356 31.1448L83.2734 30.3746Z" fill="#7F7AFF" mask="url(#path-1-inside-1_9872_73375)"/>
<path d="M28.9663 9.12207V10.2793C28.9663 11.5244 28.9663 12.8428 28.6001 14.6299L27.2231 14.5127C27.3696 13.8022 27.4648 13.1724 27.5161 12.5791L19.7085 12.9453L19.5181 11.7734L27.5747 11.5537C27.5894 11.1069 27.5894 10.6895 27.5894 10.2793V10.25H19.855V9.12207H28.9663ZM30.4019 15.4355V16.5488H18.4634V15.4355H23.1948V13.5898H24.6011V15.4355H30.4019ZM29.2446 20.3281V21.4561H19.9429V17.5596H21.3345V20.3281H29.2446ZM42.604 8.55078V18.3652H41.2856V8.55078H42.604ZM40.0259 8.7998V18.043H38.7075V13.3408H37.0815V12.2129H38.7075V8.7998H40.0259ZM42.9849 20.2549V21.3828H33.9614V17.2812H35.3677V20.2549H42.9849ZM36.9937 9.59082V10.7188H33.3315V12.3594H36.481V13.4434H33.3315V15.1572C35.0601 15.1499 36.21 15.106 37.5503 14.835L37.6821 15.9482C36.1733 16.2412 34.9282 16.2998 32.8481 16.2998H31.9985V9.59082H36.9937ZM56.3882 18.8779V20.0205H44.3765V18.8779H56.3882ZM55.2749 10.5576V11.6855H51.0708C51.1294 13.6558 53.0557 15.2817 55.7437 15.7139L55.187 16.8271C53.0117 16.439 51.21 15.3257 50.3677 13.7217C49.5107 15.3257 47.709 16.439 45.5483 16.8271L45.0063 15.7139C47.665 15.2817 49.5913 13.6558 49.6646 11.6855H45.4604V10.5576H49.6792V8.81445H51.0562V10.5576H55.2749ZM72.9849 14.7031V15.8457H61.0024V14.7031H72.9849ZM71.5933 12.4326V13.5605H62.4966V9.00488H71.5054V10.1475H63.8735V12.4326H71.5933ZM66.979 16.8711C69.8062 16.8711 71.5054 17.7354 71.5054 19.2588C71.5054 20.7822 69.8062 21.6465 66.979 21.6318C64.1372 21.6465 62.4233 20.7822 62.4233 19.2588C62.4233 17.7354 64.1372 16.8711 66.979 16.8711ZM66.979 17.9404C64.9722 17.9551 63.8296 18.4238 63.8296 19.2588C63.8296 20.0938 64.9722 20.5625 66.979 20.5625C68.9565 20.5625 70.1138 20.0938 70.1138 19.2588C70.1138 18.4238 68.9565 17.9551 66.979 17.9404ZM85.9634 15.6992V16.8271H73.9517V15.6992H79.269V14.4541H75.4897V11.1143H83.063V9.94238H75.4604V8.84375H84.4546V12.1396H76.8667V13.3701H84.7183V14.4541H80.646V15.6992H85.9634ZM84.5278 17.75V21.5586H83.1216V18.8633H75.2993V17.75H84.5278ZM95.1479 11.876C95.1333 14.2051 96.481 16.5781 98.4438 17.5303L97.5796 18.6436C96.1514 17.9038 95.0454 16.4316 94.4741 14.6738C93.8809 16.5488 92.731 18.1162 91.2368 18.8926L90.3726 17.7646C92.394 16.7979 93.7563 14.2783 93.7563 11.876V9.63477H95.1479V11.876ZM100.817 8.53613V13.7656H102.926V14.9521H100.817V21.6611H99.4253V8.53613H100.817ZM115.524 14.9375V16.0654H103.556V14.9375H106.427V13.165C105.417 12.7549 104.845 12.0957 104.845 11.2314C104.845 9.67871 106.647 8.77051 109.533 8.77051C112.404 8.77051 114.22 9.67871 114.22 11.2314C114.22 12.0957 113.642 12.7622 112.624 13.165V14.9375H115.524ZM109.533 16.959C112.36 16.959 114.059 17.7939 114.059 19.2881C114.059 20.8115 112.36 21.6318 109.533 21.6318C106.676 21.6318 104.977 20.8115 104.977 19.2881C104.977 17.7939 106.676 16.959 109.533 16.959ZM109.533 18.0283C107.526 18.0283 106.383 18.4824 106.383 19.2881C106.383 20.1084 107.526 20.5771 109.533 20.5625C111.51 20.5771 112.667 20.1084 112.667 19.2881C112.667 18.4824 111.51 18.0283 109.533 18.0283ZM109.533 9.83984C107.497 9.83984 106.266 10.3525 106.281 11.2314C106.266 12.1104 107.497 12.6084 109.533 12.6084C111.569 12.6084 112.785 12.1104 112.785 11.2314C112.785 10.3525 111.569 9.83984 109.533 9.83984ZM107.833 14.9375H111.247V13.5312C110.734 13.6191 110.155 13.6631 109.533 13.6631C108.917 13.6631 108.346 13.6191 107.833 13.5459V14.9375ZM130.407 8.53613V13.7656H132.443V14.9229H130.407V21.6465H129.015V8.53613H130.407ZM126.979 9.91309C126.964 13.707 125.294 17.0908 120.973 19.2295L120.197 18.1455C123.485 16.5049 125.272 14.1318 125.558 11.0703H120.856V9.91309H126.979ZM144.015 8.53613V21.6904H142.624V8.53613H144.015ZM136.999 9.51758C138.947 9.51758 140.382 11.3047 140.382 14.1172C140.382 16.9443 138.947 18.7314 136.999 18.7314C135.021 18.7314 133.6 16.9443 133.6 14.1172C133.6 11.3047 135.021 9.51758 136.999 9.51758ZM136.999 10.7627C135.783 10.7627 134.948 12.0518 134.948 14.1172C134.948 16.1973 135.783 17.4863 136.999 17.4863C138.2 17.4863 139.035 16.1973 139.035 14.1172C139.035 12.0518 138.2 10.7627 136.999 10.7627ZM156.745 14.7617V15.9043H147.604V9.70801H156.627V10.8506H148.981V14.7617H156.745ZM158.122 18.7754V19.9326H146.11V18.7754H158.122Z" fill="white"/>
</svg>
