<svg width="176" height="35" viewBox="0 0 176 35" fill="none" xmlns="http://www.w3.org/2000/svg">
<mask id="path-1-inside-1_9872_73376" fill="white">
<path d="M87.5244 33.8951C87.8944 34.2017 88.4298 34.2016 88.7998 33.8951L93.0508 30.3746H172C174.209 30.3746 176 28.5837 176 26.3746V4.00062C176 1.79159 174.209 0.000617981 172 0.000617981H4C1.79094 0.000617981 0.00013316 1.79159 0 4.00062V26.3746C9.81418e-05 28.5837 1.79092 30.3746 4 30.3746H83.2734L87.5244 33.8951Z"/>
</mask>
<path d="M87.5244 33.8951C87.8944 34.2017 88.4298 34.2016 88.7998 33.8951L93.0508 30.3746H172C174.209 30.3746 176 28.5837 176 26.3746V4.00062C176 1.79159 174.209 0.000617981 172 0.000617981H4C1.79094 0.000617981 0.00013316 1.79159 0 4.00062V26.3746C9.81418e-05 28.5837 1.79092 30.3746 4 30.3746H83.2734L87.5244 33.8951Z" fill="#26283F"/>
<path d="M87.5244 33.8951L88.1622 33.125L88.1623 33.1251L87.5244 33.8951ZM88.7998 33.8951L89.4376 34.6653L89.4376 34.6654L88.7998 33.8951ZM93.0508 30.3746L92.4129 29.6045L92.6905 29.3746H93.0508V30.3746ZM176 26.3746H177V26.3747L176 26.3746ZM176 4.00062L177 4.00056V4.00062H176ZM172 0.000617981V-0.999382V0.000617981ZM0 4.00062H-1V4.00056L0 4.00062ZM0 26.3746L-1 26.3747V26.3746H0ZM4 30.3746V31.3746V30.3746ZM83.2734 30.3746V29.3746H83.6338L83.9113 29.6045L83.2734 30.3746ZM87.5244 33.8951L88.1623 33.1251L88.162 33.1249L88.7998 33.8951L89.4376 34.6654C88.6977 35.2781 87.6267 35.2784 86.8865 34.6652L87.5244 33.8951ZM88.7998 33.8951L88.162 33.125L92.4129 29.6045L93.0508 30.3746L93.6886 31.1448L89.4376 34.6653L88.7998 33.8951ZM93.0508 30.3746V29.3746H172V30.3746V31.3746H93.0508V30.3746ZM172 30.3746V29.3746C173.657 29.3746 175 28.0314 175 26.3746L176 26.3746L177 26.3747C177 29.1359 174.761 31.3746 172 31.3746V30.3746ZM176 26.3746H175V4.00062H176H177V26.3746H176ZM176 4.00062L175 4.00068C175 2.34383 173.657 1.00062 172 1.00062V0.000617981V-0.999382C174.761 -0.999382 177 1.23935 177 4.00056L176 4.00062ZM172 0.000617981V1.00062H4V0.000617981V-0.999382H172V0.000617981ZM4 0.000617981V1.00062C2.34329 1.00062 1.0001 2.34383 1 4.00068L0 4.00062L-1 4.00056C-0.999834 1.23935 1.2386 -0.999382 4 -0.999382V0.000617981ZM0 4.00062H1V26.3746H0H-1V4.00062H0ZM0 26.3746L1 26.3746C1.00007 28.0314 2.34325 29.3746 4 29.3746V30.3746V31.3746C1.23859 31.3746 -0.999877 29.1359 -1 26.3747L0 26.3746ZM4 30.3746V29.3746H83.2734V30.3746V31.3746H4V30.3746ZM83.2734 30.3746L83.9113 29.6045L88.1622 33.125L87.5244 33.8951L86.8866 34.6653L82.6356 31.1448L83.2734 30.3746Z" fill="#7F7AFF" mask="url(#path-1-inside-1_9872_73376)"/>
<path d="M13.3564 8.97559C15.334 8.99023 16.7842 10.2061 16.7988 11.9199C16.7842 13.6484 15.334 14.8496 13.3564 14.8496C11.3643 14.8496 9.89941 13.6484 9.89941 11.9199C9.89941 10.2061 11.3643 8.99023 13.3564 8.97559ZM13.3564 10.1475C12.1406 10.1328 11.2471 10.8506 11.2617 11.9199C11.2471 13.0039 12.1406 13.7217 13.3564 13.7217C14.5576 13.7217 15.4512 13.0039 15.4512 11.9199C15.4512 10.8506 14.5576 10.1328 13.3564 10.1475ZM20.5195 8.53613V15.2158H19.1279V8.53613H20.5195ZM20.5195 15.8164V19.127H13.2832V20.3867H20.959V21.5H11.9355V18.0869H19.1426V16.9297H11.8916V15.8164H20.5195ZM32.9121 8.55078V12.418H34.8164V13.5898H32.9121V18.1895H31.5205V8.55078H32.9121ZM33.4688 20.2549V21.3828H24.5918V17.2373H25.9834V20.2549H33.4688ZM24.4746 9.48828V11.583H27.917V9.48828H29.2939V16.0215H23.1123V9.48828H24.4746ZM24.4746 14.9082H27.917V12.6816H24.4746V14.9082ZM45.1436 16.7832C47.9854 16.7832 49.7725 17.6768 49.7871 19.2148C49.7725 20.7383 47.9854 21.6465 45.1436 21.6318C42.3311 21.6465 40.5293 20.7383 40.5293 19.2148C40.5293 17.6768 42.3311 16.7832 45.1436 16.7832ZM45.1436 17.8379C43.1514 17.8379 41.9062 18.3506 41.9209 19.2148C41.9062 20.0645 43.1514 20.5625 45.1436 20.5625C47.1504 20.5625 48.3955 20.0645 48.4102 19.2148C48.3955 18.3506 47.1504 17.8379 45.1436 17.8379ZM49.6846 9.18066V10.2793C49.6846 11.334 49.6846 12.418 49.3184 13.7656L47.9561 13.6191C48.3076 12.2788 48.3076 11.312 48.3076 10.2939H40.6318V9.18066H49.6846ZM51.1787 14.5713V15.6992H39.2402V14.5713H44.0303V12.1104H45.3926V14.5713H51.1787ZM57.0234 12.4033C57.0234 14.6006 58.459 16.8711 60.4805 17.7354L59.7188 18.8193C58.1733 18.1382 56.9429 16.6953 56.335 14.9375C55.7271 16.8125 54.4893 18.4092 52.9658 19.1562L52.1602 18.0576C54.1377 17.1348 55.6025 14.6592 55.6172 12.4033V11.0117H52.6143V9.85449H60.0117V11.0117H57.0234V12.4033ZM63.0586 8.53613V21.6611H61.667V8.53613H63.0586ZM80.7979 14.7031V15.8457H68.8154V14.7031H80.7979ZM79.4062 12.4326V13.5605H70.3096V9.00488H79.3184V10.1475H71.6865V12.4326H79.4062ZM74.792 16.8711C77.6191 16.8711 79.3184 17.7354 79.3184 19.2588C79.3184 20.7822 77.6191 21.6465 74.792 21.6318C71.9502 21.6465 70.2363 20.7822 70.2363 19.2588C70.2363 17.7354 71.9502 16.8711 74.792 16.8711ZM74.792 17.9404C72.7852 17.9551 71.6426 18.4238 71.6426 19.2588C71.6426 20.0938 72.7852 20.5625 74.792 20.5625C76.7695 20.5625 77.9268 20.0938 77.9268 19.2588C77.9268 18.4238 76.7695 17.9551 74.792 17.9404ZM93.7764 15.6992V16.8271H81.7646V15.6992H87.082V14.4541H83.3027V11.1143H90.876V9.94238H83.2734V8.84375H92.2676V12.1396H84.6797V13.3701H92.5312V14.4541H88.459V15.6992H93.7764ZM92.3408 17.75V21.5586H90.9346V18.8633H83.1123V17.75H92.3408ZM102.961 11.876C102.946 14.2051 104.294 16.5781 106.257 17.5303L105.393 18.6436C103.964 17.9038 102.858 16.4316 102.287 14.6738C101.694 16.5488 100.544 18.1162 99.0498 18.8926L98.1855 17.7646C100.207 16.7979 101.569 14.2783 101.569 11.876V9.63477H102.961V11.876ZM108.63 8.53613V13.7656H110.739V14.9521H108.63V21.6611H107.238V8.53613H108.63ZM123.337 14.9375V16.0654H111.369V14.9375H114.24V13.165C113.229 12.7549 112.658 12.0957 112.658 11.2314C112.658 9.67871 114.46 8.77051 117.346 8.77051C120.217 8.77051 122.033 9.67871 122.033 11.2314C122.033 12.0957 121.455 12.7622 120.437 13.165V14.9375H123.337ZM117.346 16.959C120.173 16.959 121.872 17.7939 121.872 19.2881C121.872 20.8115 120.173 21.6318 117.346 21.6318C114.489 21.6318 112.79 20.8115 112.79 19.2881C112.79 17.7939 114.489 16.959 117.346 16.959ZM117.346 18.0283C115.339 18.0283 114.196 18.4824 114.196 19.2881C114.196 20.1084 115.339 20.5771 117.346 20.5625C119.323 20.5771 120.48 20.1084 120.48 19.2881C120.48 18.4824 119.323 18.0283 117.346 18.0283ZM117.346 9.83984C115.31 9.83984 114.079 10.3525 114.094 11.2314C114.079 12.1104 115.31 12.6084 117.346 12.6084C119.382 12.6084 120.598 12.1104 120.598 11.2314C120.598 10.3525 119.382 9.83984 117.346 9.83984ZM115.646 14.9375H119.06V13.5312C118.547 13.6191 117.968 13.6631 117.346 13.6631C116.73 13.6631 116.159 13.6191 115.646 13.5459V14.9375ZM138.22 8.53613V13.7656H140.256V14.9229H138.22V21.6465H136.828V8.53613H138.22ZM134.792 9.91309C134.777 13.707 133.107 17.0908 128.786 19.2295L128.01 18.1455C131.298 16.5049 133.085 14.1318 133.371 11.0703H128.669V9.91309H134.792ZM151.828 8.53613V21.6904H150.437V8.53613H151.828ZM144.812 9.51758C146.76 9.51758 148.195 11.3047 148.195 14.1172C148.195 16.9443 146.76 18.7314 144.812 18.7314C142.834 18.7314 141.413 16.9443 141.413 14.1172C141.413 11.3047 142.834 9.51758 144.812 9.51758ZM144.812 10.7627C143.596 10.7627 142.761 12.0518 142.761 14.1172C142.761 16.1973 143.596 17.4863 144.812 17.4863C146.013 17.4863 146.848 16.1973 146.848 14.1172C146.848 12.0518 146.013 10.7627 144.812 10.7627ZM164.558 14.7617V15.9043H155.417V9.70801H164.44V10.8506H156.794V14.7617H164.558ZM165.935 18.7754V19.9326H153.923V18.7754H165.935Z" fill="white"/>
</svg>
