<svg width="14" height="14" viewBox="0 0 14 14" fill="none" xmlns="http://www.w3.org/2000/svg">
<mask id="path-1-inside-1_9768_85506" fill="white">
<path d="M7.67188 0C8.14683 0 8.54992 0.349189 8.61719 0.819336L8.75488 1.78711C8.99274 1.86715 9.22325 1.96281 9.44531 2.07324L10.2295 1.48633C10.6095 1.20154 11.1407 1.23948 11.4766 1.5752L12.4277 2.52539C12.7636 2.86129 12.8006 3.39342 12.5156 3.77344L11.9277 4.55566C12.0376 4.77673 12.1322 5.00645 12.2119 5.24316L13.1807 5.38281C13.6509 5.44999 14 5.8531 14 6.32812V7.67188C14 8.1469 13.6509 8.55001 13.1807 8.61719L12.2119 8.75488C12.1321 8.99207 12.0368 9.22187 11.9268 9.44336L12.5146 10.2266C12.7997 10.6066 12.7626 11.1387 12.4268 11.4746L11.4756 12.4248C11.1398 12.7605 10.6085 12.7983 10.2285 12.5137L9.44531 11.9258C9.22322 12.0362 8.99277 12.1318 8.75488 12.2119L8.61719 13.1807C8.54992 13.6508 8.14684 14 7.67188 14H6.32812C5.85316 14 5.45008 13.6508 5.38281 13.1807L5.24414 12.2119C5.00628 12.1318 4.77577 12.0363 4.55371 11.9258L3.77148 12.5137C3.39147 12.7986 2.8593 12.7607 2.52344 12.4248L1.57324 11.4746C1.23737 11.1387 1.19942 10.6066 1.48438 10.2266L2.07129 9.44238C1.96151 9.22128 1.86677 8.99162 1.78711 8.75488L0.819336 8.61719C0.349292 8.54986 4.50704e-05 8.14674 0 7.67188V6.32715C0.000186201 5.85244 0.349436 5.45017 0.819336 5.38281L1.78711 5.24316C1.86689 5.00635 1.96235 4.77682 2.07227 4.55566L1.48535 3.77344C1.20033 3.39341 1.23832 2.86129 1.57422 2.52539L2.52441 1.5752C2.86031 1.2393 3.39244 1.20131 3.77246 1.48633L4.55469 2.07227C4.77636 1.96205 5.00673 1.86704 5.24414 1.78711L5.38281 0.819336C5.45006 0.349163 5.85315 0 6.32812 0H7.67188Z"/>
</mask>
<path d="M7.67188 0C8.14683 0 8.54992 0.349189 8.61719 0.819336L8.75488 1.78711C8.99274 1.86715 9.22325 1.96281 9.44531 2.07324L10.2295 1.48633C10.6095 1.20154 11.1407 1.23948 11.4766 1.5752L12.4277 2.52539C12.7636 2.86129 12.8006 3.39342 12.5156 3.77344L11.9277 4.55566C12.0376 4.77673 12.1322 5.00645 12.2119 5.24316L13.1807 5.38281C13.6509 5.44999 14 5.8531 14 6.32812V7.67188C14 8.1469 13.6509 8.55001 13.1807 8.61719L12.2119 8.75488C12.1321 8.99207 12.0368 9.22187 11.9268 9.44336L12.5146 10.2266C12.7997 10.6066 12.7626 11.1387 12.4268 11.4746L11.4756 12.4248C11.1398 12.7605 10.6085 12.7983 10.2285 12.5137L9.44531 11.9258C9.22322 12.0362 8.99277 12.1318 8.75488 12.2119L8.61719 13.1807C8.54992 13.6508 8.14684 14 7.67188 14H6.32812C5.85316 14 5.45008 13.6508 5.38281 13.1807L5.24414 12.2119C5.00628 12.1318 4.77577 12.0363 4.55371 11.9258L3.77148 12.5137C3.39147 12.7986 2.8593 12.7607 2.52344 12.4248L1.57324 11.4746C1.23737 11.1387 1.19942 10.6066 1.48438 10.2266L2.07129 9.44238C1.96151 9.22128 1.86677 8.99162 1.78711 8.75488L0.819336 8.61719C0.349292 8.54986 4.50704e-05 8.14674 0 7.67188V6.32715C0.000186201 5.85244 0.349436 5.45017 0.819336 5.38281L1.78711 5.24316C1.86689 5.00635 1.96235 4.77682 2.07227 4.55566L1.48535 3.77344C1.20033 3.39341 1.23832 2.86129 1.57422 2.52539L2.52441 1.5752C2.86031 1.2393 3.39244 1.20131 3.77246 1.48633L4.55469 2.07227C4.77636 1.96205 5.00673 1.86704 5.24414 1.78711L5.38281 0.819336C5.45006 0.349163 5.85315 0 6.32812 0H7.67188Z" fill="#F0BF3A" fill-opacity="0.2"/>
<path d="M8.61719 0.819336L9.60722 0.678474L9.60711 0.677693L8.61719 0.819336ZM8.75488 1.78711L7.76485 1.92797L7.85169 2.53828L8.43594 2.73488L8.75488 1.78711ZM9.44531 2.07324L9.00004 2.96864L9.55147 3.24286L10.0445 2.87384L9.44531 2.07324ZM10.2295 1.48633L10.8287 2.28693L10.8292 2.28651L10.2295 1.48633ZM11.4766 1.5752L10.7696 2.28243L10.7698 2.28267L11.4766 1.5752ZM12.4277 2.52539L13.1349 1.81831L13.1345 1.81792L12.4277 2.52539ZM12.5156 3.77344L13.315 4.37424L13.3156 4.37344L12.5156 3.77344ZM11.9277 4.55566L11.1283 3.95487L10.7576 4.44814L11.0322 5.00072L11.9277 4.55566ZM12.2119 5.24316L11.2643 5.56248L11.4606 6.1452L12.0692 6.23293L12.2119 5.24316ZM13.1807 5.38281L13.038 6.37258L13.0392 6.37276L13.1807 5.38281ZM14 6.32812H13H14ZM14 7.67188H15H14ZM13.1807 8.61719L13.3214 9.60724L13.3221 9.60714L13.1807 8.61719ZM12.2119 8.75488L12.0712 7.76483L11.4608 7.85159L11.2642 8.43589L12.2119 8.75488ZM11.9268 9.44336L11.0312 8.99837L10.7568 9.55055L11.127 10.0437L11.9268 9.44336ZM12.5146 10.2266L13.3146 9.62656L13.3144 9.62624L12.5146 10.2266ZM12.4268 11.4746L13.1335 12.1821L13.1339 12.1817L12.4268 11.4746ZM11.4756 12.4248L10.7688 11.7173L10.7686 11.7175L11.4756 12.4248ZM10.2285 12.5137L9.6282 13.3134L9.6289 13.314L10.2285 12.5137ZM9.44531 11.9258L10.0456 11.126L9.55229 10.7557L8.99997 11.0304L9.44531 11.9258ZM8.75488 12.2119L8.43589 11.2642L7.85159 11.4608L7.76483 12.0712L8.75488 12.2119ZM8.61719 13.1807L9.60711 13.3223L9.60724 13.3214L8.61719 13.1807ZM7.67188 14V13V14ZM6.32812 14V15V14ZM5.38281 13.1807L6.37273 13.039L6.37272 13.039L5.38281 13.1807ZM5.24414 12.2119L6.23405 12.0702L6.1468 11.4607L5.56329 11.2642L5.24414 12.2119ZM4.55371 11.9258L4.9992 11.0305L4.44645 10.7555L3.95291 11.1264L4.55371 11.9258ZM3.77148 12.5137L4.37136 13.3138L4.37228 13.3131L3.77148 12.5137ZM2.52344 12.4248L3.23054 11.7177L2.52344 12.4248ZM1.57324 11.4746L0.866135 12.1817H0.866135L1.57324 11.4746ZM1.48438 10.2266L2.28444 10.8265L2.28497 10.8258L1.48438 10.2266ZM2.07129 9.44238L2.87189 10.0416L3.24064 9.54889L2.96697 8.99768L2.07129 9.44238ZM1.78711 8.75488L2.73488 8.43594L2.53828 7.85169L1.92797 7.76485L1.78711 8.75488ZM0.819336 8.61719L0.677545 9.60708L0.678474 9.60722L0.819336 8.61719ZM0 7.67188H-1V7.67197L0 7.67188ZM0 6.32715L-1 6.32676V6.32715H0ZM0.819336 5.38281L0.961228 6.37269L0.962155 6.37256L0.819336 5.38281ZM1.78711 5.24316L1.92993 6.23291L2.53848 6.1451L2.73478 5.56242L1.78711 5.24316ZM2.07227 4.55566L2.96777 5.00072L3.24215 4.44864L2.87215 3.9555L2.07227 4.55566ZM1.48535 3.77344L0.685351 4.37344L0.685471 4.3736L1.48535 3.77344ZM1.57422 2.52539L2.28133 3.2325H2.28133L1.57422 2.52539ZM2.52441 1.5752L1.81731 0.868088L1.81731 0.868089L2.52441 1.5752ZM3.77246 1.48633L3.17246 2.28633L3.17294 2.28669L3.77246 1.48633ZM4.55469 2.07227L3.95517 2.87263L4.44824 3.24197L4.99989 2.9677L4.55469 2.07227ZM5.24414 1.78711L5.56324 2.73483L6.14671 2.53838L6.23403 1.92895L5.24414 1.78711ZM5.38281 0.819336L6.3727 0.961177L6.37274 0.960927L5.38281 0.819336ZM7.67188 0V1C7.64977 1 7.63055 0.983875 7.62727 0.960978L8.61719 0.819336L9.60711 0.677693C9.46929 -0.285498 8.6439 -1 7.67188 -1V0ZM8.61719 0.819336L7.62716 0.960198L7.76485 1.92797L8.75488 1.78711L9.74491 1.64625L9.60722 0.678474L8.61719 0.819336ZM8.75488 1.78711L8.43594 2.73488C8.63059 2.80039 8.81889 2.87855 9.00004 2.96864L9.44531 2.07324L9.89058 1.17785C9.62761 1.04707 9.35488 0.933915 9.07382 0.839334L8.75488 1.78711ZM9.44531 2.07324L10.0445 2.87384L10.8287 2.28693L10.2295 1.48633L9.63029 0.68573L8.84611 1.27264L9.44531 2.07324ZM10.2295 1.48633L10.8292 2.28651C10.8109 2.30027 10.7854 2.29819 10.7696 2.28243L11.4766 1.5752L12.1835 0.867961C11.4961 0.180771 10.408 0.10281 9.62974 0.686145L10.2295 1.48633ZM11.4766 1.5752L10.7698 2.28267L11.721 3.23286L12.4277 2.52539L13.1345 1.81792L12.1833 0.867725L11.4766 1.5752ZM12.4277 2.52539L11.7206 3.23247C11.7035 3.21539 11.703 3.1903 11.7156 3.17344L12.5156 3.77344L13.3156 4.37344C13.8983 3.59654 13.8237 2.50719 13.1349 1.81831L12.4277 2.52539ZM12.5156 3.77344L11.7162 3.17264L11.1283 3.95487L11.9277 4.55566L12.7271 5.15646L13.315 4.37424L12.5156 3.77344ZM11.9277 4.55566L11.0322 5.00072C11.121 5.17929 11.1983 5.36685 11.2643 5.56248L12.2119 5.24316L13.1596 4.92385C13.066 4.64605 12.9542 4.37417 12.8232 4.11061L11.9277 4.55566ZM12.2119 5.24316L12.0692 6.23293L13.038 6.37258L13.1807 5.38281L13.3233 4.39304L12.3546 4.2534L12.2119 5.24316ZM13.1807 5.38281L13.0392 6.37276C13.0161 6.36945 13 6.34995 13 6.32812H14H15C15 5.35624 14.2858 4.53053 13.3221 4.39286L13.1807 5.38281ZM14 6.32812H13V7.67188H14H15V6.32812H14ZM14 7.67188H13C13 7.65005 13.0161 7.63055 13.0392 7.62724L13.1807 8.61719L13.3221 9.60714C14.2858 9.46947 15 8.64376 15 7.67188H14ZM13.1807 8.61719L13.0399 7.62714L12.0712 7.76483L12.2119 8.75488L12.3526 9.74493L13.3214 9.60724L13.1807 8.61719ZM12.2119 8.75488L11.2642 8.43589C11.1988 8.63014 11.1209 8.81783 11.0312 8.99837L11.9268 9.44336L12.8223 9.88834C12.9527 9.62591 13.0654 9.35401 13.1597 9.07387L12.2119 8.75488ZM11.9268 9.44336L11.127 10.0437L11.7149 10.8269L12.5146 10.2266L13.3144 9.62624L12.7265 8.84304L11.9268 9.44336ZM12.5146 10.2266L11.7146 10.8266C11.702 10.8097 11.7025 10.7846 11.7196 10.7675L12.4268 11.4746L13.1339 12.1817C13.8228 11.4928 13.8973 10.4034 13.3146 9.62656L12.5146 10.2266ZM12.4268 11.4746L11.72 10.7671L10.7688 11.7173L11.4756 12.4248L12.1823 13.1323L13.1335 12.1821L12.4268 11.4746ZM11.4756 12.4248L10.7686 11.7175C10.7845 11.7017 10.8099 11.6997 10.8281 11.7134L10.2285 12.5137L9.6289 13.314C10.407 13.8969 11.4951 13.8193 12.1825 13.1321L11.4756 12.4248ZM10.2285 12.5137L10.8288 11.7139L10.0456 11.126L9.44531 11.9258L8.84499 12.7255L9.6282 13.3134L10.2285 12.5137ZM9.44531 11.9258L8.99997 11.0304C8.81892 11.1205 8.6307 11.1986 8.43589 11.2642L8.75488 12.2119L9.07387 13.1597C9.35485 13.0651 9.62752 12.952 9.89065 12.8211L9.44531 11.9258ZM8.75488 12.2119L7.76483 12.0712L7.62714 13.0399L8.61719 13.1807L9.60724 13.3214L9.74493 12.3526L8.75488 12.2119ZM8.61719 13.1807L7.62727 13.039C7.63055 13.0161 7.64979 13 7.67188 13V14V15C8.64389 15 9.4693 14.2855 9.60711 13.3223L8.61719 13.1807ZM7.67188 14V13H6.32812V14V15H7.67188V14ZM6.32812 14V13C6.35021 13 6.36945 13.0161 6.37273 13.039L5.38281 13.1807L4.39289 13.3223C4.5307 14.2855 5.35611 15 6.32812 15V14ZM5.38281 13.1807L6.37272 13.039L6.23405 12.0702L5.24414 12.2119L4.25423 12.3536L4.3929 13.3224L5.38281 13.1807ZM5.24414 12.2119L5.56329 11.2642C5.3682 11.1985 5.17993 11.1204 4.9992 11.0305L4.55371 11.9258L4.10823 12.8211C4.37161 12.9521 4.64436 13.0651 4.92499 13.1596L5.24414 12.2119ZM4.55371 11.9258L3.95291 11.1264L3.17069 11.7143L3.77148 12.5137L4.37228 13.3131L5.15451 12.7252L4.55371 11.9258ZM3.77148 12.5137L3.17161 11.7136C3.18982 11.6999 3.21465 11.7018 3.23054 11.7177L2.52344 12.4248L1.81633 13.1319C2.50394 13.8195 3.59312 13.8973 4.37136 13.3138L3.77148 12.5137ZM2.52344 12.4248L3.23054 11.7177L2.28035 10.7675L1.57324 11.4746L0.866135 12.1817L1.81633 13.1319L2.52344 12.4248ZM1.57324 11.4746L2.28035 10.7675C2.2962 10.7834 2.29813 10.8082 2.28444 10.8265L1.48438 10.2266L0.684312 9.62665C0.100715 10.4049 0.178541 11.4941 0.866135 12.1817L1.57324 11.4746ZM1.48438 10.2266L2.28497 10.8258L2.87189 10.0416L2.07129 9.44238L1.27069 8.84318L0.683777 9.62736L1.48438 10.2266ZM2.07129 9.44238L2.96697 8.99768C2.87795 8.81839 2.80046 8.63083 2.73488 8.43594L1.78711 8.75488L0.839334 9.07382C0.933085 9.35242 1.04508 9.62418 1.17561 9.88708L2.07129 9.44238ZM1.78711 8.75488L1.92797 7.76485L0.960198 7.62716L0.819336 8.61719L0.678474 9.60722L1.64625 9.74491L1.78711 8.75488ZM0.819336 8.61719L0.961127 7.62729C0.983953 7.63056 0.999998 7.64961 1 7.67178L0 7.67188L-1 7.67197C-0.999908 8.64388 -0.28537 9.46916 0.677545 9.60708L0.819336 8.61719ZM0 7.67188H1V6.32715H0H-1V7.67188H0ZM0 6.32715L1 6.32754C0.999991 6.35073 0.98304 6.36957 0.961228 6.37269L0.819336 5.38281L0.677444 4.39293C-0.284168 4.53077 -0.999618 5.35414 -1 6.32676L0 6.32715ZM0.819336 5.38281L0.962155 6.37256L1.92993 6.23291L1.78711 5.24316L1.64429 4.25342L0.676516 4.39306L0.819336 5.38281ZM1.78711 5.24316L2.73478 5.56242C2.79991 5.36909 2.87789 5.18157 2.96777 5.00072L2.07227 4.55566L1.17676 4.11061C1.04682 4.37207 0.933871 4.64361 0.839442 4.9239L1.78711 5.24316ZM2.07227 4.55566L2.87215 3.9555L2.28523 3.17328L1.48535 3.77344L0.685471 4.3736L1.27239 5.15582L2.07227 4.55566ZM1.48535 3.77344L2.28535 3.17344C2.29913 3.1918 2.29708 3.21674 2.28133 3.2325L1.57422 2.52539L0.867112 1.81828C0.179562 2.50583 0.101541 3.59502 0.685351 4.37344L1.48535 3.77344ZM1.57422 2.52539L2.28133 3.2325L3.23152 2.2823L2.52441 1.5752L1.81731 0.868089L0.867112 1.81828L1.57422 2.52539ZM2.52441 1.5752L3.23152 2.2823C3.21576 2.29806 3.19083 2.3001 3.17246 2.28633L3.77246 1.48633L4.37246 0.686328C3.59405 0.102517 2.50486 0.180539 1.81731 0.868088L2.52441 1.5752ZM3.77246 1.48633L3.17294 2.28669L3.95517 2.87263L4.55469 2.07227L5.15421 1.27191L4.37198 0.685969L3.77246 1.48633ZM4.55469 2.07227L4.99989 2.9677C5.17938 2.87846 5.36751 2.80073 5.56324 2.73483L5.24414 1.78711L4.92504 0.839388C4.64595 0.933357 4.37334 1.04565 4.10949 1.17683L4.55469 2.07227ZM5.24414 1.78711L6.23403 1.92895L6.3727 0.961177L5.38281 0.819336L4.39292 0.677495L4.25425 1.64527L5.24414 1.78711ZM5.38281 0.819336L6.37274 0.960927C6.36945 0.983889 6.35017 1 6.32812 1V0V-1C5.35613 -1 4.53067 -0.285562 4.39289 0.677745L5.38281 0.819336ZM6.32812 0V1H7.67188V0V-1H6.32812V0Z" fill="#F0BF3A" fill-opacity="0.4" mask="url(#path-1-inside-1_9768_85506)"/>
<circle cx="6.99977" cy="6.99977" r="2.24" fill="black" fill-opacity="0.2"/>
<circle cx="6.99977" cy="6.99977" r="1.74" stroke="#F0BF3A" stroke-opacity="0.4"/>
</svg>
