<svg width="14" height="14" viewBox="0 0 14 14" fill="none" xmlns="http://www.w3.org/2000/svg">
<path d="M7.67188 0C8.14683 0 8.54992 0.349189 8.61719 0.819336L8.75488 1.78711C8.99274 1.86715 9.22325 1.96281 9.44531 2.07324L10.2295 1.48633C10.6095 1.20154 11.1407 1.23948 11.4766 1.5752L12.4277 2.52539C12.7636 2.86129 12.8006 3.39342 12.5156 3.77344L11.9277 4.55566C12.0376 4.77673 12.1322 5.00645 12.2119 5.24316L13.1807 5.38281C13.6509 5.44999 14 5.8531 14 6.32812V7.67188C14 8.1469 13.6509 8.55001 13.1807 8.61719L12.2119 8.75488C12.1321 8.99207 12.0368 9.22187 11.9268 9.44336L12.5146 10.2266C12.7997 10.6066 12.7626 11.1387 12.4268 11.4746L11.4756 12.4248C11.1398 12.7605 10.6085 12.7983 10.2285 12.5137L9.44531 11.9258C9.22322 12.0362 8.99277 12.1318 8.75488 12.2119L8.61719 13.1807C8.54992 13.6508 8.14684 14 7.67188 14H6.32812C5.85316 14 5.45008 13.6508 5.38281 13.1807L5.24414 12.2119C5.00628 12.1318 4.77577 12.0363 4.55371 11.9258L3.77148 12.5137C3.39147 12.7986 2.8593 12.7607 2.52344 12.4248L1.57324 11.4746C1.23737 11.1387 1.19942 10.6066 1.48438 10.2266L2.07129 9.44238C1.96151 9.22128 1.86677 8.99162 1.78711 8.75488L0.819336 8.61719C0.349292 8.54986 4.50704e-05 8.14674 0 7.67188V6.32715C0.000186201 5.85244 0.349436 5.45017 0.819336 5.38281L1.78711 5.24316C1.86689 5.00635 1.96235 4.77682 2.07227 4.55566L1.48535 3.77344C1.20033 3.39341 1.23832 2.86129 1.57422 2.52539L2.52441 1.5752C2.86031 1.2393 3.39244 1.20131 3.77246 1.48633L4.55469 2.07227C4.77636 1.96205 5.00673 1.86704 5.24414 1.78711L5.38281 0.819336C5.45006 0.349163 5.85315 0 6.32812 0H7.67188Z" fill="#EE2B2B" fill-opacity="0.2"/>
<path d="M6.32812 0.5H7.67188C7.87007 0.5 8.04133 0.627771 8.10254 0.80957L8.12207 0.890625L8.25977 1.85742L8.30371 2.16309L8.5957 2.26074C8.81182 2.33348 9.02116 2.42032 9.22266 2.52051L9.49805 2.6582L9.74512 2.47363L10.5293 1.88672C10.6875 1.76816 10.9005 1.76728 11.0586 1.87598L11.123 1.92871L12.0742 2.87891C12.2334 3.03809 12.2517 3.29114 12.1162 3.47266L11.5283 4.25488L11.3428 4.50195L11.4805 4.77832C11.5797 4.97793 11.6655 5.18641 11.7383 5.40234L11.8359 5.69434L12.1406 5.73828L13.1094 5.87793H13.1104C13.3337 5.91004 13.5 6.10166 13.5 6.32812V7.67188C13.5 7.87025 13.3722 8.04142 13.1904 8.10254L13.1104 8.12207L12.1416 8.25977L11.8359 8.30371L11.7383 8.5957C11.6657 8.81135 11.5784 9.01975 11.4785 9.2207L11.3418 9.49707L11.5273 9.74316L12.1143 10.5254V10.5264C12.2335 10.6854 12.2347 10.8998 12.126 11.0576L12.0732 11.1211L11.1221 12.0713C10.9621 12.2311 10.7092 12.2488 10.5283 12.1133H10.5273L9.74512 11.5264L9.49902 11.3408L9.22266 11.4785C9.0212 11.5787 8.81192 11.6655 8.5957 11.7383L8.30371 11.8359L8.25977 12.1416L8.12207 13.1094C8.09008 13.333 7.89831 13.5 7.67188 13.5H6.32812C6.12991 13.5 5.95866 13.3722 5.89746 13.1904L5.87793 13.1094L5.73926 12.1406L5.69531 11.8359L5.40332 11.7383L5.08398 11.6182C4.97958 11.5749 4.8769 11.5285 4.77637 11.4785L4.5 11.3408L4.25293 11.5264L3.47168 12.1133C3.29078 12.2489 3.03694 12.2313 2.87695 12.0713L1.92676 11.1211C1.78678 10.9811 1.75568 10.7695 1.84082 10.5977L1.88477 10.5264L2.47168 9.74219L2.65625 9.49609L2.51953 9.21973C2.46991 9.11977 2.42286 9.01806 2.37988 8.91406L2.26074 8.5957L2.16309 8.30371L1.85742 8.25977L0.889648 8.12207H0.890625C0.667031 8.09004 0.500045 7.8982 0.5 7.67188V6.32715L0.507812 6.24414C0.537881 6.08279 0.653685 5.94991 0.80957 5.89746L0.890625 5.87793L1.8584 5.73828L2.16309 5.69434L2.26074 5.40234C2.33314 5.18749 2.41975 4.97912 2.51953 4.77832L2.65723 4.50195L2.47266 4.25586L1.88574 3.47363C1.76718 3.31555 1.76549 3.10156 1.87402 2.94336L1.92773 2.87891L2.87793 1.92871C3.01796 1.78868 3.22952 1.75761 3.40137 1.84277L3.47266 1.88672L4.25488 2.47266L4.50195 2.65723L4.77734 2.51953C4.97777 2.41989 5.18693 2.33361 5.40332 2.26074L5.69531 2.16309L5.73926 1.8584L5.87793 0.890625V0.889648C5.91012 0.666292 6.10183 0.5 6.32812 0.5Z" stroke="#EE2B2B" stroke-opacity="0.4"/>
<circle cx="6.99977" cy="6.99977" r="2.24" fill="black" fill-opacity="0.2"/>
<circle cx="6.99977" cy="6.99977" r="1.74" stroke="#EE2B2B" stroke-opacity="0.4"/>
</svg>
