<svg width="68" height="68" viewBox="0 0 68 68" fill="none" xmlns="http://www.w3.org/2000/svg">
<circle cx="34" cy="34" r="34" fill="#72DBAF" fill-opacity="0.2"/>
<circle cx="34" cy="34" r="33.75" stroke="white" stroke-opacity="0.1" stroke-width="0.5"/>
<g filter="url(#filter0_i_9766_78656)">
<circle cx="34" cy="34" r="30" fill="#72DBAF" fill-opacity="0.3"/>
</g>
<circle cx="34" cy="34" r="29.625" stroke="white" stroke-opacity="0.2" stroke-width="0.75"/>
<g filter="url(#filter1_d_9766_78656)">
<path d="M35.9196 14C37.2767 14 38.4283 14.9977 38.6205 16.341L39.014 19.106C39.6935 19.3347 40.3521 19.608 40.9866 19.9235L43.2271 18.2467C44.3127 17.433 45.8307 17.5414 46.7902 18.5006L49.5078 21.2154C50.4674 22.1751 50.5732 23.6955 49.7589 24.7812L48.0792 27.0162C48.3932 27.6478 48.6633 28.3041 48.8912 28.9805L51.659 29.3795C53.0026 29.5714 54 30.7231 54 32.0804V35.9196C54 37.2769 53.0026 38.4286 51.659 38.6205L48.8912 39.014C48.6631 39.6916 48.3909 40.3482 48.0765 40.981L49.7561 43.2188C50.5705 44.3045 50.4647 45.8249 49.505 46.7846L46.7874 49.4994C45.828 50.4585 44.3099 50.5667 43.2243 49.7533L40.9866 48.0737C40.3521 48.3893 39.6936 48.6624 39.014 48.8912L38.6205 51.659C38.4284 53.0023 37.2767 54 35.9196 54H32.0804C30.7233 54 29.5716 53.0023 29.3795 51.659L28.9833 48.8912C28.3037 48.6623 27.6451 48.3894 27.0106 48.0737L24.7757 49.7533C23.6899 50.5674 22.1694 50.459 21.2098 49.4994L18.495 46.7846C17.5353 45.825 17.4269 44.3045 18.2411 43.2188L19.918 40.9782C19.6043 40.3465 19.3336 39.6903 19.106 39.014L16.341 38.6205C14.998 38.4282 14.0001 37.2764 14 35.9196V32.0776C14.0005 30.7213 14.9984 29.5719 16.341 29.3795L19.106 28.9805C19.334 28.3038 19.6067 27.6481 19.9208 27.0162L18.2439 24.7812C17.4295 23.6955 17.5381 22.1751 18.4978 21.2154L21.2126 18.5006C22.1723 17.5409 23.6927 17.4323 24.7785 18.2467L27.0134 19.9208C27.6467 19.6059 28.305 19.3344 28.9833 19.106L29.3795 16.341C29.5716 14.9976 30.7233 14 32.0804 14H35.9196Z" fill="#72DBAF" fill-opacity="0.24" shape-rendering="crispEdges"/>
<path d="M32.0801 14.625H35.9199C36.9007 14.6251 37.7423 15.3011 37.9658 16.2383L38.002 16.4297L38.3955 19.1943L38.4492 19.5752L38.8145 19.6982C39.467 19.9178 40.0992 20.1806 40.708 20.4834L41.0527 20.6543L41.3613 20.4238L43.6016 18.7471C44.386 18.1591 45.4639 18.1952 46.2051 18.8115L46.3486 18.9424L49.0654 21.6562V21.6572C49.8042 22.396 49.8872 23.5676 49.2598 24.4053L47.5801 26.6406L47.3477 26.9492L47.5195 27.2939C47.8202 27.8989 48.0796 28.5292 48.2988 29.1797L48.4219 29.5439L48.8018 29.5986L51.5703 29.998C52.6054 30.1459 53.3749 31.0335 53.375 32.0801V35.9199C53.3749 36.901 52.699 37.7426 51.7617 37.9658L51.5703 38.002L48.8037 38.3955L48.4219 38.4492L48.2988 38.8145C48.0798 39.4653 47.8183 40.0959 47.5166 40.7031L47.3457 41.0479L47.5762 41.3564L49.2559 43.5938C49.8448 44.3791 49.8099 45.4584 49.1943 46.1992L49.0635 46.3428L46.3457 49.0576C45.6523 49.7507 44.5804 49.867 43.7598 49.3623L43.5986 49.2529L41.3613 47.5742L41.0537 47.3428L40.708 47.5137C40.0991 47.8165 39.4672 48.0791 38.8145 48.2988L38.4492 48.4219L38.3955 48.8037L38.002 51.5703C37.8539 52.6054 36.9662 53.3749 35.9199 53.375H32.0801C31.0993 53.3749 30.2576 52.6989 30.0342 51.7617L29.998 51.5703L29.6016 48.8027L29.5479 48.4219L29.1826 48.2988L28.6973 48.126C28.2154 47.9453 27.7456 47.7408 27.2891 47.5137L26.9434 47.3418L26.6348 47.5742L24.4004 49.2529C23.5635 49.8803 22.3911 49.7974 21.6514 49.0576L18.9365 46.3428C18.243 45.6491 18.1265 44.5749 18.6318 43.7539L18.7412 43.5938V43.5928L20.418 41.3525L20.6484 41.0449L20.4775 40.7002C20.1769 40.0947 19.917 39.4646 19.6982 38.8145L19.5752 38.4492L19.1943 38.3955L16.4287 38.002H16.4297C15.3949 37.8537 14.6253 36.9659 14.625 35.9199V32.0781C14.6254 31.0981 15.3015 30.2574 16.2393 30.0342L16.4297 29.998H16.4307L19.1953 29.5986L19.5752 29.5439L19.6982 29.1797C19.917 28.5303 20.179 27.9005 20.4805 27.2939L20.6523 26.9492L20.4209 26.6406L18.7441 24.4062C18.1558 23.6217 18.192 22.5423 18.8086 21.8008L18.9395 21.6572L21.6543 18.9424C22.3481 18.2486 23.4221 18.1322 24.2432 18.6377L24.4033 18.7471L26.6387 20.4209L26.9473 20.6514L27.292 20.4805C27.7471 20.2542 28.2161 20.0511 28.6973 19.8711L29.1826 19.6982L29.5469 19.5752L29.6016 19.1943L29.998 16.4297C30.1461 15.3946 31.0338 14.6251 32.0801 14.625Z" stroke="#72DBAF" stroke-opacity="0.16" stroke-width="1.25" shape-rendering="crispEdges"/>
</g>
<circle cx="33.9999" cy="33.9999" r="5.38462" fill="black" fill-opacity="0.2"/>
<circle cx="33.9999" cy="33.9999" r="4.63462" stroke="#72DBAF" stroke-opacity="0.32" stroke-width="1.5"/>
<defs>
<filter id="filter0_i_9766_78656" x="4" y="4" width="60" height="60" filterUnits="userSpaceOnUse" color-interpolation-filters="sRGB">
<feFlood flood-opacity="0" result="BackgroundImageFix"/>
<feBlend mode="normal" in="SourceGraphic" in2="BackgroundImageFix" result="shape"/>
<feColorMatrix in="SourceAlpha" type="matrix" values="0 0 0 0 0 0 0 0 0 0 0 0 0 0 0 0 0 0 127 0" result="hardAlpha"/>
<feOffset/>
<feGaussianBlur stdDeviation="6"/>
<feComposite in2="hardAlpha" operator="arithmetic" k2="-1" k3="1"/>
<feColorMatrix type="matrix" values="0 0 0 0 0.88 0 0 0 0 1 0 0 0 0 0.95 0 0 0 0.48 0"/>
<feBlend mode="normal" in2="shape" result="effect1_innerShadow_9766_78656"/>
</filter>
<filter id="filter1_d_9766_78656" x="6" y="6" width="56" height="56" filterUnits="userSpaceOnUse" color-interpolation-filters="sRGB">
<feFlood flood-opacity="0" result="BackgroundImageFix"/>
<feColorMatrix in="SourceAlpha" type="matrix" values="0 0 0 0 0 0 0 0 0 0 0 0 0 0 0 0 0 0 127 0" result="hardAlpha"/>
<feOffset/>
<feGaussianBlur stdDeviation="4"/>
<feComposite in2="hardAlpha" operator="out"/>
<feColorMatrix type="matrix" values="0 0 0 0 0 0 0 0 0 0 0 0 0 0 0 0 0 0 0.08 0"/>
<feBlend mode="normal" in2="BackgroundImageFix" result="effect1_dropShadow_9766_78656"/>
<feBlend mode="normal" in="SourceGraphic" in2="effect1_dropShadow_9766_78656" result="shape"/>
</filter>
</defs>
</svg>
