<svg width="34" height="34" viewBox="0 0 34 34" fill="none" xmlns="http://www.w3.org/2000/svg">
<mask id="path-1-inside-1_1506_18845" fill="white">
<path fill-rule="evenodd" clip-rule="evenodd" d="M16.1161 9.88369C16.6043 9.39554 17.3957 9.39554 17.8839 9.8837L23.8661 15.8659C24.6536 16.6534 24.0959 17.9998 22.9822 17.9998H22V22.2498C22 23.2163 21.2165 23.9998 20.25 23.9998H18V20.5C18 20.2239 17.7761 20 17.5 20H16.5C16.2239 20 16 20.2239 16 20.5V23.9998H13.75C12.7835 23.9998 12 23.2163 12 22.2498V17.9998H11.0178C9.90413 17.9998 9.34643 16.6534 10.1339 15.8659L16.1161 9.88369Z"/>
</mask>
<path d="M17.8839 9.8837L18.591 9.17659L17.8839 9.8837ZM16.1161 9.88369L15.409 9.17659V9.17659L16.1161 9.88369ZM23.8661 15.8659L23.159 16.573V16.573L23.8661 15.8659ZM22 17.9998V16.9998C21.4477 16.9998 21 17.4475 21 17.9998H22ZM18 23.9998H17C17 24.5521 17.4477 24.9998 18 24.9998V23.9998ZM16 23.9998V24.9998C16.5523 24.9998 17 24.5521 17 23.9998H16ZM12 17.9998H13C13 17.4475 12.5523 16.9998 12 16.9998V17.9998ZM10.1339 15.8659L10.841 16.573L10.1339 15.8659ZM18.591 9.17659C17.7123 8.29791 16.2877 8.29791 15.409 9.17659L16.8232 10.5908C16.9209 10.4932 17.0791 10.4932 17.1768 10.5908L18.591 9.17659ZM24.5732 15.1588L18.591 9.17659L17.1768 10.5908L23.159 16.573L24.5732 15.1588ZM22.9822 18.9998C24.9868 18.9998 25.9906 16.5762 24.5732 15.1588L23.159 16.573C23.3165 16.7305 23.205 16.9998 22.9822 16.9998V18.9998ZM22 18.9998H22.9822V16.9998H22V18.9998ZM23 22.2498V17.9998H21V22.2498H23ZM20.25 24.9998C21.7688 24.9998 23 23.7686 23 22.2498H21C21 22.664 20.6642 22.9998 20.25 22.9998V24.9998ZM18 24.9998H20.25V22.9998H18V24.9998ZM17 20.5V23.9998H19V20.5H17ZM17.5 21C17.2239 21 17 20.7761 17 20.5H19C19 19.6716 18.3284 19 17.5 19V21ZM16.5 21H17.5V19H16.5V21ZM17 20.5C17 20.7761 16.7761 21 16.5 21V19C15.6716 19 15 19.6716 15 20.5H17ZM17 23.9998V20.5H15V23.9998H17ZM13.75 24.9998H16V22.9998H13.75V24.9998ZM11 22.2498C11 23.7686 12.2312 24.9998 13.75 24.9998V22.9998C13.3358 22.9998 13 22.664 13 22.2498H11ZM11 17.9998V22.2498H13V17.9998H11ZM11.0178 18.9998H12V16.9998H11.0178V18.9998ZM9.42677 15.1588C8.00935 16.5762 9.01323 18.9998 11.0178 18.9998V16.9998C10.795 16.9998 10.6835 16.7305 10.841 16.573L9.42677 15.1588ZM15.409 9.17659L9.42677 15.1588L10.841 16.573L16.8232 10.5908L15.409 9.17659Z" fill="#97A0D1" mask="url(#path-1-inside-1_1506_18845)"/>
<path d="M16 16C16 15.4477 16.4477 15 17 15C17.5523 15 18 15.4477 18 16V17H16V16Z" fill="#97A0D1"/>
</svg>
