<svg width="34" height="34" viewBox="0 0 34 34" fill="none" xmlns="http://www.w3.org/2000/svg">
<g filter="url(#filter0_ii_297_1334)">
<rect width="34" height="34" rx="8" fill="#3E4165"/>
</g>
<rect x="10.55" y="10.55" width="12.9" height="12.9" rx="1.95" stroke="white" stroke-width="1.1"/>
<rect width="1" height="3" rx="0.5" transform="matrix(-1 0 0 1 14 9)" fill="white"/>
<rect width="12" height="1" transform="matrix(-1 0 0 1 23 13)" fill="white"/>
<rect width="1" height="3" rx="0.5" transform="matrix(-1 0 0 1 21 9)" fill="white"/>
<rect width="2" height="2" transform="matrix(-1 0 0 1 21 16)" fill="#9C7BFF"/>
<rect width="2" height="2" transform="matrix(-1 0 0 1 18 16)" fill="#9C7BFF"/>
<rect width="2" height="2" transform="matrix(-1 0 0 1 18 19)" fill="#9C7BFF"/>
<rect width="2" height="2" transform="matrix(-1 0 0 1 15 19)" fill="#9C7BFF"/>
<defs>
<filter id="filter0_ii_297_1334" x="-0.5" y="-0.5" width="35" height="35" filterUnits="userSpaceOnUse" color-interpolation-filters="sRGB">
<feFlood flood-opacity="0" result="BackgroundImageFix"/>
<feBlend mode="normal" in="SourceGraphic" in2="BackgroundImageFix" result="shape"/>
<feColorMatrix in="SourceAlpha" type="matrix" values="0 0 0 0 0 0 0 0 0 0 0 0 0 0 0 0 0 0 127 0" result="hardAlpha"/>
<feOffset dx="0.5" dy="0.5"/>
<feGaussianBlur stdDeviation="0.25"/>
<feComposite in2="hardAlpha" operator="arithmetic" k2="-1" k3="1"/>
<feColorMatrix type="matrix" values="0 0 0 0 1 0 0 0 0 1 0 0 0 0 1 0 0 0 0.15 0"/>
<feBlend mode="normal" in2="shape" result="effect1_innerShadow_297_1334"/>
<feColorMatrix in="SourceAlpha" type="matrix" values="0 0 0 0 0 0 0 0 0 0 0 0 0 0 0 0 0 0 127 0" result="hardAlpha"/>
<feOffset dx="-0.5" dy="-0.5"/>
<feGaussianBlur stdDeviation="0.25"/>
<feComposite in2="hardAlpha" operator="arithmetic" k2="-1" k3="1"/>
<feColorMatrix type="matrix" values="0 0 0 0 1 0 0 0 0 1 0 0 0 0 1 0 0 0 0.05 0"/>
<feBlend mode="normal" in2="effect1_innerShadow_297_1334" result="effect2_innerShadow_297_1334"/>
</filter>
</defs>
</svg>
