<svg width="34" height="34" viewBox="0 0 34 34" fill="none" xmlns="http://www.w3.org/2000/svg">
<path fill-rule="evenodd" clip-rule="evenodd" d="M10.2381 18.1748C9.55433 18.1748 9 18.7291 9 19.4129V21.5081C9 22.1919 9.55433 22.7462 10.2381 22.7462H23.7619C24.4457 22.7462 25 22.1919 25 21.5081V19.4129C25 18.7291 24.4457 18.1748 23.7619 18.1748H10.2381ZM10.7588 19.3184C10.4169 19.3184 10.1397 19.5956 10.1397 19.9375V20.9851C10.1397 21.327 10.4169 21.6041 10.7588 21.6041H15.2349C15.5768 21.6041 15.854 21.327 15.854 20.9851V19.9375C15.854 19.5956 15.5768 19.3184 15.2349 19.3184H10.7588ZM20.4273 20.4613C20.4273 21.0925 19.9156 21.6041 19.2844 21.6041C18.6532 21.6041 18.1415 21.0925 18.1415 20.4613C18.1415 19.8301 18.6532 19.3184 19.2844 19.3184C19.9156 19.3184 20.4273 19.8301 20.4273 20.4613ZM22.7155 21.6041C23.3467 21.6041 23.8583 21.0925 23.8583 20.4613C23.8583 19.8301 23.3467 19.3184 22.7155 19.3184C22.0843 19.3184 21.5726 19.8301 21.5726 20.4613C21.5726 21.0925 22.0843 21.6041 22.7155 21.6041Z" fill="#97A0D1"/>
<rect x="10.1388" y="11.3193" width="1.71429" height="8" rx="0.857143" fill="#97A0D1"/>
<path opacity="0.8" d="M24.998 11.3193H22.7123C22.7123 13.1479 24.2361 13.6051 24.998 13.6051V11.3193Z" fill="#97A0D1"/>
<path d="M20.9965 11.3193H19.2822C19.2822 14.7479 21.5679 17.0336 24.9965 17.0336V15.3193C22.7108 15.3193 20.9965 13.6051 20.9965 11.3193Z" fill="#97A0D1"/>
</svg>
