<svg width="34" height="34" viewBox="0 0 34 34" fill="none" xmlns="http://www.w3.org/2000/svg">
<g filter="url(#filter0_ii_297_1286)">
<rect width="34" height="34" rx="8" fill="#3E4165"/>
</g>
<path d="M14.9012 13.5H19.0988C19.8631 13.5 20.5052 14.0747 20.5896 14.8344L21.4414 22.5H12.5586L13.4104 14.8344C13.4948 14.0747 14.1369 13.5 14.9012 13.5Z" stroke="white"/>
<path d="M12 22.5H22C22.2761 22.5 22.5 22.7239 22.5 23V24.5H11.5V23C11.5 22.7239 11.7239 22.5 12 22.5Z" stroke="white"/>
<path d="M17 9V10.6" stroke="#9C7BFF" stroke-linecap="round"/>
<path d="M9 14.333L10.5455 14.7471" stroke="#9C7BFF" stroke-linecap="round"/>
<path d="M25 14.333L23.4545 14.7471" stroke="#9C7BFF" stroke-linecap="round"/>
<path d="M22.8667 10.0664L21.7353 11.1978" stroke="#9C7BFF" stroke-linecap="round"/>
<path d="M11.1333 10.0664L12.2647 11.1978" stroke="#9C7BFF" stroke-linecap="round"/>
<defs>
<filter id="filter0_ii_297_1286" x="-0.5" y="-0.5" width="35" height="35" filterUnits="userSpaceOnUse" color-interpolation-filters="sRGB">
<feFlood flood-opacity="0" result="BackgroundImageFix"/>
<feBlend mode="normal" in="SourceGraphic" in2="BackgroundImageFix" result="shape"/>
<feColorMatrix in="SourceAlpha" type="matrix" values="0 0 0 0 0 0 0 0 0 0 0 0 0 0 0 0 0 0 127 0" result="hardAlpha"/>
<feOffset dx="0.5" dy="0.5"/>
<feGaussianBlur stdDeviation="0.25"/>
<feComposite in2="hardAlpha" operator="arithmetic" k2="-1" k3="1"/>
<feColorMatrix type="matrix" values="0 0 0 0 1 0 0 0 0 1 0 0 0 0 1 0 0 0 0.15 0"/>
<feBlend mode="normal" in2="shape" result="effect1_innerShadow_297_1286"/>
<feColorMatrix in="SourceAlpha" type="matrix" values="0 0 0 0 0 0 0 0 0 0 0 0 0 0 0 0 0 0 127 0" result="hardAlpha"/>
<feOffset dx="-0.5" dy="-0.5"/>
<feGaussianBlur stdDeviation="0.25"/>
<feComposite in2="hardAlpha" operator="arithmetic" k2="-1" k3="1"/>
<feColorMatrix type="matrix" values="0 0 0 0 1 0 0 0 0 1 0 0 0 0 1 0 0 0 0.05 0"/>
<feBlend mode="normal" in2="effect1_innerShadow_297_1286" result="effect2_innerShadow_297_1286"/>
</filter>
</defs>
</svg>
