<svg width="34" height="34" viewBox="0 0 34 34" fill="none" xmlns="http://www.w3.org/2000/svg">
<rect x="10.55" y="10.55" width="12.9" height="12.9" rx="1.95" stroke="#97A0D1" stroke-width="1.1"/>
<rect width="1" height="3" rx="0.5" transform="matrix(-1 0 0 1 14 9)" fill="#97A0D1"/>
<rect width="12" height="1" transform="matrix(-1 0 0 1 23 13)" fill="#97A0D1"/>
<rect width="1" height="3" rx="0.5" transform="matrix(-1 0 0 1 21 9)" fill="#97A0D1"/>
<rect width="2" height="2" transform="matrix(-1 0 0 1 21 16)" fill="#97A0D1"/>
<rect width="2" height="2" transform="matrix(-1 0 0 1 18 16)" fill="#97A0D1"/>
<rect width="2" height="2" transform="matrix(-1 0 0 1 18 19)" fill="#97A0D1"/>
<rect width="2" height="2" transform="matrix(-1 0 0 1 15 19)" fill="#97A0D1"/>
</svg>
