<svg width="20" height="20" viewBox="0 0 20 20" fill="none" xmlns="http://www.w3.org/2000/svg">
<circle cx="10" cy="10" r="10" fill="url(#paint0_linear_2279_17430)"/>
<mask id="path-2-outside-1_2279_17430" maskUnits="userSpaceOnUse" x="2" y="4" width="16" height="12" fill="black">
<rect fill="white" x="2" y="4" width="16" height="12"/>
<path fill-rule="evenodd" clip-rule="evenodd" d="M4.75 5C4.33579 5 4 5.33579 4 5.75V11C3.44772 11 3 11.4477 3 12V14C3 14.5523 3.44772 15 4 15H16C16.5523 15 17 14.5523 17 14V12C17 11.4477 16.5523 11 16 11H5.5V5.75C5.5 5.33579 5.16421 5 4.75 5ZM4.75 12H4.5C4.22386 12 4 12.2239 4 12.5V13.5C4 13.7761 4.22386 14 4.5 14H8.5C8.77614 14 9 13.7761 9 13.5V12.5C9 12.2239 8.77614 12 8.5 12H4.75ZM12 14C12.5523 14 13 13.5523 13 13C13 12.4477 12.5523 12 12 12C11.4477 12 11 12.4477 11 13C11 13.5523 11.4477 14 12 14ZM16 13C16 13.5523 15.5523 14 15 14C14.4477 14 14 13.5523 14 13C14 12.4477 14.4477 12 15 12C15.5523 12 16 12.4477 16 13ZM17 5H15C15 6.6 16.3333 7 17 7V5ZM12 5H13.5C13.5 7 15 8.5 17 8.5V10C14 10 12 8 12 5Z"/>
</mask>
<path fill-rule="evenodd" clip-rule="evenodd" d="M4.75 5C4.33579 5 4 5.33579 4 5.75V11C3.44772 11 3 11.4477 3 12V14C3 14.5523 3.44772 15 4 15H16C16.5523 15 17 14.5523 17 14V12C17 11.4477 16.5523 11 16 11H5.5V5.75C5.5 5.33579 5.16421 5 4.75 5ZM4.75 12H4.5C4.22386 12 4 12.2239 4 12.5V13.5C4 13.7761 4.22386 14 4.5 14H8.5C8.77614 14 9 13.7761 9 13.5V12.5C9 12.2239 8.77614 12 8.5 12H4.75ZM12 14C12.5523 14 13 13.5523 13 13C13 12.4477 12.5523 12 12 12C11.4477 12 11 12.4477 11 13C11 13.5523 11.4477 14 12 14ZM16 13C16 13.5523 15.5523 14 15 14C14.4477 14 14 13.5523 14 13C14 12.4477 14.4477 12 15 12C15.5523 12 16 12.4477 16 13ZM17 5H15C15 6.6 16.3333 7 17 7V5ZM12 5H13.5C13.5 7 15 8.5 17 8.5V10C14 10 12 8 12 5Z" fill="white"/>
<path d="M4 11V11.5H4.5V11H4ZM5.5 11H5V11.5H5.5V11ZM15 5V4.5H14.5V5H15ZM17 5H17.5V4.5H17V5ZM17 7V7.5H17.5V7H17ZM13.5 5H14V4.5H13.5V5ZM12 5V4.5H11.5V5H12ZM17 8.5H17.5V8H17V8.5ZM17 10V10.5H17.5V10H17ZM4.5 5.75C4.5 5.61193 4.61193 5.5 4.75 5.5V4.5C4.05964 4.5 3.5 5.05964 3.5 5.75H4.5ZM4.5 11V5.75H3.5V11H4.5ZM3.5 12C3.5 11.7239 3.72386 11.5 4 11.5V10.5C3.17157 10.5 2.5 11.1716 2.5 12H3.5ZM3.5 14V12H2.5V14H3.5ZM4 14.5C3.72386 14.5 3.5 14.2761 3.5 14H2.5C2.5 14.8284 3.17157 15.5 4 15.5V14.5ZM16 14.5H4V15.5H16V14.5ZM16.5 14C16.5 14.2761 16.2761 14.5 16 14.5V15.5C16.8284 15.5 17.5 14.8284 17.5 14H16.5ZM16.5 12V14H17.5V12H16.5ZM16 11.5C16.2761 11.5 16.5 11.7239 16.5 12H17.5C17.5 11.1716 16.8284 10.5 16 10.5V11.5ZM5.5 11.5H16V10.5H5.5V11.5ZM5 5.75V11H6V5.75H5ZM4.75 5.5C4.88807 5.5 5 5.61193 5 5.75H6C6 5.05964 5.44036 4.5 4.75 4.5V5.5ZM4.5 12.5H4.75V11.5H4.5V12.5ZM4.5 12.5V11.5C3.94772 11.5 3.5 11.9477 3.5 12.5H4.5ZM4.5 13.5V12.5H3.5V13.5H4.5ZM4.5 13.5H4.5H3.5C3.5 14.0523 3.94772 14.5 4.5 14.5V13.5ZM8.5 13.5H4.5V14.5H8.5V13.5ZM8.5 13.5V14.5C9.05229 14.5 9.5 14.0523 9.5 13.5H8.5ZM8.5 12.5V13.5H9.5V12.5H8.5ZM8.5 12.5H9.5C9.5 11.9477 9.05228 11.5 8.5 11.5V12.5ZM4.75 12.5H8.5V11.5H4.75V12.5ZM12.5 13C12.5 13.2761 12.2761 13.5 12 13.5V14.5C12.8284 14.5 13.5 13.8284 13.5 13H12.5ZM12 12.5C12.2761 12.5 12.5 12.7239 12.5 13H13.5C13.5 12.1716 12.8284 11.5 12 11.5V12.5ZM11.5 13C11.5 12.7239 11.7239 12.5 12 12.5V11.5C11.1716 11.5 10.5 12.1716 10.5 13H11.5ZM12 13.5C11.7239 13.5 11.5 13.2761 11.5 13H10.5C10.5 13.8284 11.1716 14.5 12 14.5V13.5ZM15 14.5C15.8284 14.5 16.5 13.8284 16.5 13H15.5C15.5 13.2761 15.2761 13.5 15 13.5V14.5ZM13.5 13C13.5 13.8284 14.1716 14.5 15 14.5V13.5C14.7239 13.5 14.5 13.2761 14.5 13H13.5ZM15 11.5C14.1716 11.5 13.5 12.1716 13.5 13H14.5C14.5 12.7239 14.7239 12.5 15 12.5V11.5ZM16.5 13C16.5 12.1716 15.8284 11.5 15 11.5V12.5C15.2761 12.5 15.5 12.7239 15.5 13H16.5ZM15 5.5H17V4.5H15V5.5ZM17 6.5C16.7467 6.5 16.3556 6.41989 16.0422 6.19423C15.7542 5.98693 15.5 5.63704 15.5 5H14.5C14.5 5.96296 14.9124 6.61307 15.4578 7.00577C15.9778 7.38011 16.5867 7.5 17 7.5V6.5ZM16.5 5V7H17.5V5H16.5ZM13.5 4.5H12V5.5H13.5V4.5ZM17 8C15.2761 8 14 6.72386 14 5H13C13 7.27614 14.7239 9 17 9V8ZM17.5 10V8.5H16.5V10H17.5ZM11.5 5C11.5 6.61362 12.0401 7.99716 13.0214 8.97855C14.0028 9.95994 15.3864 10.5 17 10.5V9.5C15.6136 9.5 14.4972 9.04006 13.7286 8.27145C12.9599 7.50284 12.5 6.38638 12.5 5H11.5Z" fill="black" fill-opacity="0.15" mask="url(#path-2-outside-1_2279_17430)"/>
<defs>
<linearGradient id="paint0_linear_2279_17430" x1="2.8125" y1="2.8125" x2="17.1875" y2="17.1875" gradientUnits="userSpaceOnUse">
<stop stop-color="#FFF599"/>
<stop offset="1" stop-color="#22990F"/>
</linearGradient>
</defs>
</svg>
