<svg width="32" height="32" viewBox="0 0 32 32" fill="none" xmlns="http://www.w3.org/2000/svg">
<path opacity="0.25" d="M16 32C19.9765 32 23.2 31.1046 23.2 30C23.2 28.8954 19.9765 28 16 28C12.0236 28 8.80005 28.8954 8.80005 30C8.80005 31.1046 12.0236 32 16 32Z" fill="black"/>
<path opacity="0.5" d="M16.0002 31.2008C18.2094 31.2008 20.0002 30.6635 20.0002 30.0008C20.0002 29.338 18.2094 28.8008 16.0002 28.8008C13.7911 28.8008 12.0002 29.338 12.0002 30.0008C12.0002 30.6635 13.7911 31.2008 16.0002 31.2008Z" fill="black"/>
<path opacity="0.75" d="M16.0001 30.4016C16.8838 30.4016 17.6001 30.2225 17.6001 30.0016C17.6001 29.7806 16.8838 29.6016 16.0001 29.6016C15.1165 29.6016 14.4001 29.7806 14.4001 30.0016C14.4001 30.2225 15.1165 30.4016 16.0001 30.4016Z" fill="black"/>
<path d="M27.1998 15.2059C27.2009 13.1944 26.6602 11.2198 25.6346 9.48944C24.609 7.75908 23.1364 6.33686 21.3714 5.37216C19.6063 4.40746 17.6141 3.9359 15.6039 4.007C13.5937 4.0781 11.6398 4.68925 9.9473 5.77625C8.25485 6.86324 6.88637 8.38596 5.98561 10.1845C5.08484 11.9829 4.68505 13.9908 4.82821 15.9972C4.97138 18.0035 5.65223 19.9343 6.79923 21.5867C9.21689 25.0695 14.752 29.8061 15.9998 30.4C17.2476 29.8061 23.0714 24.9106 25.4204 21.2574C26.581 19.4524 27.1987 17.3519 27.1998 15.2059Z" fill="url(#paint0_linear_2272_15547)"/>
<g opacity="0.5">
<path fill-rule="evenodd" clip-rule="evenodd" d="M10.3994 13.3673V14.7576L16.1594 9.59347L21.9194 14.7576V13.3673L20.4913 12.0868V9.42474H20.8721V8.72656H18.7775V9.42474H19.1584V10.8918L16.1594 8.20312L10.3994 13.3673Z" fill="white"/>
<path fill-rule="evenodd" clip-rule="evenodd" d="M13.5431 15.0121C13.5579 15.0121 13.5725 15.0115 13.5869 15.0103C13.6943 15.3163 13.9857 15.5358 14.3283 15.5358C14.7621 15.5358 15.1138 15.1841 15.1138 14.7503C15.1138 14.3165 14.7621 13.9648 14.3283 13.9648C14.1666 13.9648 14.0163 14.0137 13.8914 14.0975C13.7989 14.015 13.6768 13.9648 13.5431 13.9648C13.2539 13.9648 13.0194 14.1993 13.0194 14.4885C13.0194 14.7777 13.2539 15.0121 13.5431 15.0121ZM14.1974 19.4633C14.1974 19.2869 14.1276 19.1268 14.0142 19.009C13.977 18.7211 13.9134 18.3596 13.8046 17.9474C13.7358 17.6865 13.7491 17.399 13.791 17.1167L14.0543 17.3799C14.1171 17.4428 14.1938 17.4902 14.2781 17.5183L15.4563 17.911C15.4693 17.9154 15.4824 17.9192 15.4955 17.9226C15.6783 17.9896 15.8907 17.9617 16.0531 17.8305L16.5084 17.4627L16.0866 18.4116C15.9925 18.6235 16.0174 18.8693 16.1522 19.0579L17.3037 20.67L17.0864 21.9735C17.027 22.3301 17.2679 22.6673 17.6244 22.7267C17.981 22.7862 18.3183 22.5453 18.3777 22.1887L18.6395 20.6178C18.6681 20.4466 18.6274 20.271 18.5265 20.1297L17.4348 18.6014L18.0382 17.2439L19.2315 18.0962C19.2725 18.1255 19.3161 18.1486 19.3611 18.1658C19.3433 18.2569 19.3361 18.3422 19.3361 18.4159V22.0814C19.3361 22.3525 19.5558 22.5723 19.827 22.5723C20.0981 22.5723 20.3179 22.3525 20.3179 22.0814V18.4159C20.3179 18.3636 20.3376 18.2741 20.3824 18.2119C20.4013 18.1857 20.4227 18.1666 20.4497 18.1527C20.4762 18.139 20.5254 18.1214 20.6124 18.1214C20.6994 18.1214 20.7486 18.139 20.7752 18.1527C20.8021 18.1666 20.8235 18.1857 20.8424 18.2119C20.8872 18.2741 20.907 18.3636 20.907 18.4159C20.907 18.687 21.1268 18.9068 21.3979 18.9068C21.669 18.9068 21.8888 18.687 21.8888 18.4159C21.8888 18.2065 21.83 17.9032 21.6392 17.6382C21.4303 17.3481 21.0866 17.1396 20.6124 17.1396C20.3813 17.1396 20.1812 17.1891 20.0126 17.2734C19.9802 17.2328 19.9417 17.1959 19.8973 17.1641L18.4063 16.0991C18.4014 16.0519 18.3906 16.0045 18.3734 15.9579C18.2634 15.6614 17.9338 15.5101 17.6373 15.62L16.4857 16.0469C16.4275 16.0685 16.3731 16.0994 16.3248 16.1384L15.5759 16.7435L14.7686 16.4744L13.9479 15.6536C13.7242 15.43 13.3616 15.43 13.1379 15.6536C13.0691 15.7224 13.0214 15.8044 12.995 15.8914C12.7412 16.1752 12.4952 16.6113 12.2337 17.1066C11.7101 18.0986 11.7101 19.3757 11.7101 19.7248H12.8883V22.0815C12.8883 22.443 13.1814 22.736 13.5429 22.736C13.9044 22.736 14.1974 22.443 14.1974 22.0815V19.4633ZM11.465 20.2216L12.5083 20.2283L11.4543 22.1098C11.33 22.3317 11.0487 22.4098 10.8278 22.2836C10.6093 22.1588 10.5324 21.8811 10.6557 21.6617L11.465 20.2216ZM19.3026 14.7503C19.3026 15.1841 18.9509 15.5358 18.5171 15.5358C18.0833 15.5358 17.7317 15.1841 17.7317 14.7503C17.7317 14.3165 18.0833 13.9648 18.5171 13.9648C18.9509 13.9648 19.3026 14.3165 19.3026 14.7503ZM16.4879 20.5097L15.9535 19.7242L14.8189 21.711C14.6926 21.9322 14.7695 22.2138 14.9907 22.3401C15.2098 22.4653 15.4888 22.391 15.6168 22.1735L16.4872 20.694C16.5207 20.6372 16.5209 20.5668 16.4879 20.5097Z" fill="white"/>
</g>
<circle cx="26" cy="6" r="4.5" fill="#FF474F" stroke="white"/>
<defs>
<linearGradient id="paint0_linear_2272_15547" x1="7.9498" y1="7.7125" x2="26.6715" y2="23.5976" gradientUnits="userSpaceOnUse">
<stop stop-color="#5CD5F7"/>
<stop offset="1" stop-color="#0C5292"/>
</linearGradient>
</defs>
</svg>
