<svg width="20" height="20" viewBox="0 0 20 20" fill="none" xmlns="http://www.w3.org/2000/svg">
<circle cx="10" cy="10" r="10" fill="url(#paint0_linear_2276_17318)"/>
<path fill-rule="evenodd" clip-rule="evenodd" d="M13.9769 8.17168L7.5819 4.50097C7.3171 4.34898 6.97815 4.4398 6.82482 4.70382L5.13589 7.61213C4.98257 7.87615 5.07293 8.2134 5.33772 8.36539L11.7328 12.0361C11.9976 12.1881 12.3365 12.0973 12.4898 11.8332L14.1788 8.92493C14.3321 8.66091 14.2417 8.32367 13.9769 8.17168ZM8.0446 3.7042C7.33848 3.2989 6.4346 3.54109 6.02574 4.24515L4.3368 7.15346C3.92794 7.85752 4.16891 8.75684 4.87502 9.16215L7.95479 10.9299V10.9315V10.9338V10.9361V10.9384V10.9407V10.9431V10.9454V10.9477V10.95V10.9523V10.9546V10.9569V10.9592V10.9615V10.9638V10.9661V10.9684V10.9707V10.9729V10.9752V10.9775V10.9798V10.9821V10.9844V10.9867V10.989V10.9912V10.9935V10.9958V10.9981V11.0004V11.0026V11.0049V11.0072V11.0095V11.0117V11.014V11.0163V11.0186V11.0208V11.0231V11.0254V11.0276V11.0299V11.0322V11.0344V11.0367V11.0389V11.0412V11.0435V11.0457V11.048V11.0502V11.0525V11.0548V11.057V11.0593V11.0615V11.0638V11.066V11.0683V11.0705V11.0728V11.075V11.0773V11.0795V11.0818V11.084V11.0863V11.0885V11.0908V11.093V11.0953V11.0975V11.0998V11.102V11.1042V11.1065V11.1087V11.111V11.1132V11.1155V11.1177V11.1199V11.1222V11.1244V11.1267V11.1289V11.1311V11.1334V11.1356V11.1378V11.1401V11.1423V11.1445V11.1468V11.149V11.1512V11.1535V11.1557V11.1579V11.1602V11.1624V11.1646V11.1669V11.1691V11.1713V11.1736V11.1758V11.178V11.1803V11.1825V11.1847V11.187V11.1892V11.1914V11.1937V11.1959V11.1981V11.2003V11.2026V11.2048V11.207V11.2093V11.2115V11.2137V11.216V11.2182V11.2204V11.2226V11.2249V11.2271V11.2293V11.2316V11.2338V11.236V11.2383V11.2405V11.2427V11.245V11.2472V11.2494V11.2517V11.2539V11.2561V11.2584V11.2606V11.2628V11.265V11.2673V11.2695V11.2718V11.274V11.2762V11.2785V11.2807V11.2829V11.2852V11.2874V11.2896V11.2919V11.2941V11.2963V11.2986V11.3008V11.3031V11.3053V11.3075V11.3098V11.312V11.3143V11.3165V11.3188V11.321V11.3232V11.3255V11.3277V11.33V11.3322V11.3345V11.3367V11.339V11.3412V11.3435V11.3457V11.348V11.3502V11.3525V11.3547V11.357V11.3592V11.3615V11.3637V11.366V11.3682V11.3705V11.3728V11.375V11.3773V11.3795V11.3818V11.3841V11.3863V11.3886V11.3909V11.3931V11.3954V11.3977V11.3999V11.4022V11.4045V11.4067V11.409V11.4113V11.4136V11.4158V11.4181V11.4204V11.4227V11.4249V11.4272V11.4295V11.4318V11.4341V11.4364V11.4386V11.4409V11.4432V11.4455V11.4478V11.4501V11.4524V11.4547V11.457V11.4593V11.4616V11.4639V11.4662V11.4685V11.4708V11.4731V11.4754V11.4777V11.48V11.4823V11.4846V11.4869V11.4892V11.4916V11.4939V11.4962V11.4985V11.5008V11.5031V11.5055V11.5078V11.5101V11.5124V11.5148V11.5171V11.5194V11.5218V11.5241V11.5264V11.5288V11.5311V11.5334V11.5358V11.5381V11.5405V11.5428V11.5452V11.5475V11.5499V11.5522V11.5546V11.5569V11.5593V11.5617V11.564V11.5664V11.5687V11.5711V11.5735V11.5758V11.5782V11.5806V11.583V11.5853V11.5877V11.5901V11.5925V11.5949V11.5973V11.5996V11.602V11.6044V11.6068V11.6092V11.6116V11.614V11.6164V11.6188V11.6212V11.6236V11.626V11.6285V11.6309V11.6333V11.6357V11.6381V11.6405V11.643V11.6454V11.6478V11.6502V11.6527V11.6551V11.6575V11.66V11.6624V11.6649V11.6673V11.6698V11.6722V11.6747V11.6771V11.6796V11.682V11.6845V11.6869V11.6894V11.6919V11.6943V11.6968V11.6993V11.7018V11.7042V11.7067V11.7092V11.7117V11.7142V11.7167V11.7192V11.7216V11.7241V11.7266V11.7291V11.7317V11.7342V11.7367V11.7392V11.7417V11.7442V11.7467V11.7493V11.7518V11.7543V11.7568V11.7594V11.7619V11.7644V11.767V11.7695V11.7721V11.7746V11.7772V11.7797V11.7823V11.7848V11.7874V11.7899V11.7925V11.7951V11.7977V11.8002V11.8028V11.8054V11.808V11.8106V11.8131V11.8157V11.8183V11.8209V11.8235V11.8261V11.8287V11.8313V11.834V11.8366V11.8392V11.8418V11.8444V11.847V11.8497V11.8523V11.8549V11.8576V11.8602V11.8629V11.8655V11.8682V11.8708V11.8735V11.8761V11.8788V11.8815V11.8841V11.8868V11.8895V11.8921V11.8948V11.8975V11.9002V11.9029V11.9056V11.9083V11.911V11.9137V11.9164V11.9191V11.9218V11.9245V11.9272V11.93V11.9327V11.9354V11.9381V11.9409V11.9436V11.9464V11.9491V11.9518V11.9546V11.9574V11.9601V11.9629V11.9656V11.9684V11.9712V11.974V11.9767V11.9795V11.9823V11.9851V11.9879V11.9907V11.9935V11.9963V11.9991V12.0019V12.0047V12.0075V12.0104V12.0132V12.016V12.0189V12.0217V12.0245V12.0274V12.0302V12.0331V12.0359V12.0388V12.0416V12.0445C7.95479 12.2856 7.89222 12.5594 7.74005 12.7611C7.6045 12.9408 7.36204 13.1131 6.87723 13.1131H6.87147H6.86575H6.86006H6.8544H6.84877H6.84317H6.8376H6.83206H6.82655H6.82107H6.81562H6.8102H6.80481H6.79945H6.79412H6.78882H6.78354H6.7783H6.77308H6.7679H6.76274H6.75761H6.75251H6.74744H6.74239H6.73737H6.73238H6.72742H6.72249H6.71758H6.71271H6.70785H6.70303H6.69823H6.69346H6.68872H6.684H6.67931H6.67465H6.67001H6.6654H6.66082H6.65626H6.65173H6.64722H6.64274H6.63828H6.63385H6.62945H6.62507H6.62072H6.61639H6.61208H6.6078H6.60355H6.59931H6.59511H6.59093H6.58677H6.58263H6.57852H6.57444H6.57037H6.56633H6.56232H6.55832H6.55435H6.55041H6.54648H6.54258H6.53871H6.53485H6.53102H6.52721H6.52342H6.51965H6.51591H6.51218H6.50848H6.50481H6.50115H6.49751H6.4939H6.4903H6.48673H6.48318H6.47965H6.47614H6.47265H6.46918H6.46573H6.4623H6.45889H6.4555H6.45214H6.44879H6.44546H6.44215H6.43886H6.43559H6.43233H6.4291H6.42589H6.42269H6.41952H6.41636H6.41322H6.4101H6.40699H6.40391H6.40084H6.39779H6.39476H6.39175H6.38875H6.38577H6.38281H6.37987H6.37694H6.37403H6.37113H6.36826H6.3654H6.36255H6.35973H6.35691H6.35412H6.35134H6.34858H6.34583H6.3431H6.34038H6.33768H6.33499H6.33232H6.32966H6.32702H6.3244H6.32178H6.31919H6.3166H6.31404H6.31148H6.30894H6.30642H6.3039H6.3014H6.29892H6.29645H6.29399H6.29154H6.28911H6.28669H6.28429H6.28189H6.27951H6.27715H6.27479H6.27245H6.27012H6.2678H6.26549H6.26319H6.26091H6.25864H6.25638H6.25413H6.25189H6.24966H6.24745H6.24524H6.24305H6.24086H6.23869H6.23653H6.23438H6.23223H6.2301H6.22798H6.22587H6.22376H6.22167H6.21959H6.21751H6.21545H6.21339H6.21134H6.20931H6.20728H6.20526H6.20324H6.20124H6.19924H6.19726H6.19528H6.19331H6.19134H6.18939H6.18744H6.1855H6.18356H6.18164H6.17972H6.1778H6.1759H6.174H6.17211H6.17022H6.16834H6.16647H6.1646H6.16274H6.16089H6.15904H6.15719H6.15536H6.15352H6.1517H6.14987H6.14806H6.14624H6.14444H6.14263H6.14084H6.13904H6.13725H6.13547H6.13369H6.13191H6.13014H6.12837H6.12661H6.12484H6.12309H6.12133H6.11958H6.11783H6.11608H6.11434H6.1126H6.11086H6.10913H6.1074H6.10566H6.10394H6.10221H6.10049H6.09876H6.09704H6.09532H6.0936H6.09189H6.09017H6.08846H6.08674H6.08503H6.08332H6.08161H6.0799H6.07818H6.07647H6.07476H6.07305H6.07134H6.06963H6.06792H6.06621H6.0645H6.06278H6.06107H6.05936H6.05764H6.05592H6.0542H6.05248H6.05076H6.04904H6.04732H6.04559H6.04386H6.04213H6.0404H6.03866H6.03692H6.03518H6.03344H6.03169H6.02994H6.02819H6.02644H6.02468H6.02292H6.02115H6.01938H6.01761H6.01583H6.01405H6.01227H6.01048H6.00868H6.00688H6.00508H6.00327H6.00146H5.99964H5.99782H5.99599H5.99416H5.99232H5.99048H5.98863H5.98677H5.98491H5.98304H5.98117H5.97929H5.9774H5.97551H5.97361H5.9717H5.96979H5.96787H5.96594H5.96401H5.96207H5.96012H5.95816H5.9562H5.95423H5.95225H5.95026H5.94826H5.94626H5.94424H5.94222H5.94019H5.93815H5.9361H5.93405H5.93198H5.92991H5.92782H5.92573H5.92362H5.92151H5.91939H5.91725H5.91511H5.91296H5.91079H5.90862H5.90643H5.90424H5.90203H5.89982H5.89759H5.89535H5.8931H5.89084H5.88856H5.88628H5.88398H5.88167H5.87935H5.87702H5.87468H5.87232H5.86995H5.86757H5.86518H5.86277H5.86035H5.85792H5.85547H5.85301H5.85054H5.84805H5.84555H5.84304H5.84051H5.83797H5.83541H5.83284H5.83026H5.82766H5.82505H5.82242H5.81978H5.81712H5.81445H5.81176H5.80906H5.80634H5.8036H5.80085H5.79809H5.79531H5.79251H5.7897H5.78687H5.78402H5.78116H5.77828H5.77539H5.77248H5.76955H5.7666H5.76364H5.76066H5.75766H5.75464H5.75161H5.74856H5.74549H5.74241H5.7393H5.73618H5.73304H5.72988H5.7267H5.7235H5.72029H5.71705H5.7138H5.71052H5.70723H5.70392H5.70059H5.69724H5.69387H5.69048H5.68707H5.68364H5.68019H5.67671H5.67322H5.66971H5.66618H5.66262H5.65905H5.65545H5.65184H5.6482H5.64454H5.64086H5.63716H5.63343H5.62969H5.62592H5.62427V12.6604C5.62427 12.2268 5.32477 11.8632 4.92137 11.7651C4.85134 11.748 4.77817 11.739 4.7029 11.739H4V12.6604V14.488V15.4093H4.7029C4.77817 15.4093 4.85134 15.4003 4.92137 15.3833C5.32477 15.2852 5.62427 14.9215 5.62427 14.488V14.0345H5.62592H5.62969H5.63343H5.63716H5.64086H5.64454H5.6482H5.65184H5.65545H5.65905H5.66262H5.66618H5.66971H5.67322H5.67671H5.68019H5.68364H5.68707H5.69048H5.69387H5.69724H5.70059H5.70392H5.70723H5.71052H5.7138H5.71705H5.72029H5.7235H5.7267H5.72988H5.73304H5.73618H5.7393H5.74241H5.74549H5.74856H5.75161H5.75464H5.75766H5.76066H5.76364H5.7666H5.76955H5.77248H5.77539H5.77828H5.78116H5.78402H5.78687H5.7897H5.79251H5.79531H5.79809H5.80085H5.8036H5.80634H5.80906H5.81176H5.81445H5.81712H5.81978H5.82242H5.82505H5.82766H5.83026H5.83284H5.83541H5.83797H5.84051H5.84304H5.84555H5.84805H5.85054H5.85301H5.85547H5.85792H5.86035H5.86277H5.86518H5.86757H5.86995H5.87232H5.87468H5.87702H5.87935H5.88167H5.88398H5.88628H5.88856H5.89084H5.8931H5.89535H5.89759H5.89982H5.90203H5.90424H5.90643H5.90862H5.91079H5.91296H5.91511H5.91725H5.91939H5.92151H5.92362H5.92573H5.92782H5.92991H5.93198H5.93405H5.9361H5.93815H5.94019H5.94222H5.94424H5.94626H5.94826H5.95026H5.95225H5.95423H5.9562H5.95816H5.96012H5.96207H5.96401H5.96594H5.96787H5.96979H5.9717H5.97361H5.97551H5.9774H5.97929H5.98117H5.98304H5.98491H5.98677H5.98863H5.99048H5.99232H5.99416H5.99599H5.99782H5.99964H6.00146H6.00327H6.00508H6.00688H6.00868H6.01048H6.01227H6.01405H6.01583H6.01761H6.01938H6.02115H6.02292H6.02468H6.02644H6.02819H6.02994H6.03169H6.03344H6.03518H6.03692H6.03866H6.0404H6.04213H6.04386H6.04559H6.04732H6.04904H6.05076H6.05248H6.0542H6.05592H6.05764H6.05936H6.06107H6.06278H6.0645H6.06621H6.06792H6.06963H6.07134H6.07305H6.07476H6.07647H6.07818H6.0799H6.08161H6.08332H6.08503H6.08674H6.08846H6.09017H6.09189H6.0936H6.09532H6.09704H6.09876H6.10049H6.10221H6.10394H6.10566H6.1074H6.10913H6.11086H6.1126H6.11434H6.11608H6.11783H6.11958H6.12133H6.12309H6.12484H6.12661H6.12837H6.13014H6.13191H6.13369H6.13547H6.13725H6.13904H6.14084H6.14263H6.14444H6.14624H6.14806H6.14987H6.1517H6.15352H6.15536H6.15719H6.15904H6.16089H6.16274H6.1646H6.16647H6.16834H6.17022H6.17211H6.174H6.1759H6.1778H6.17972H6.18164H6.18356H6.1855H6.18744H6.18939H6.19134H6.19331H6.19528H6.19726H6.19924H6.20124H6.20324H6.20526H6.20728H6.20931H6.21134H6.21339H6.21545H6.21751H6.21959H6.22167H6.22376H6.22587H6.22798H6.2301H6.23223H6.23438H6.23653H6.23869H6.24086H6.24305H6.24524H6.24745H6.24966H6.25189H6.25413H6.25638H6.25864H6.26091H6.26319H6.26549H6.2678H6.27012H6.27245H6.27479H6.27715H6.27951H6.28189H6.28429H6.28669H6.28911H6.29154H6.29399H6.29645H6.29892H6.3014H6.3039H6.30642H6.30894H6.31148H6.31404H6.3166H6.31919H6.32178H6.3244H6.32702H6.32966H6.33232H6.33499H6.33768H6.34038H6.3431H6.34583H6.34858H6.35134H6.35412H6.35691H6.35973H6.36255H6.3654H6.36826H6.37113H6.37403H6.37694H6.37987H6.38281H6.38577H6.38875H6.39175H6.39476H6.39779H6.40084H6.40391H6.40699H6.4101H6.41322H6.41636H6.41952H6.42269H6.42589H6.4291H6.43233H6.43559H6.43886H6.44215H6.44546H6.44879H6.45214H6.4555H6.45889H6.4623H6.46573H6.46918H6.47265H6.47614H6.47965H6.48318H6.48673H6.4903H6.4939H6.49751H6.50115H6.50481H6.50848H6.51218H6.51591H6.51965H6.52342H6.52721H6.53102H6.53485H6.53871H6.54258H6.54648H6.55041H6.55435H6.55832H6.56232H6.56633H6.57037H6.57444H6.57852H6.58263H6.58677H6.59093H6.59511H6.59931H6.60355H6.6078H6.61208H6.61639H6.62072H6.62507H6.62945H6.63385H6.63828H6.64274H6.64722H6.65173H6.65626H6.66082H6.6654H6.67001H6.67465H6.67931H6.684H6.68872H6.69346H6.69823H6.70303H6.70785H6.71271H6.71758H6.72249H6.72742H6.73238H6.73737H6.74239H6.74744H6.75251H6.75761H6.76274H6.7679H6.77308H6.7783H6.78354H6.78882H6.79412H6.79945H6.80481H6.8102H6.81562H6.82107H6.82655H6.83206H6.8376H6.84317H6.84877H6.8544H6.86006H6.86575H6.87147H6.87723C7.62301 14.0345 8.14967 13.748 8.4756 13.316C8.7849 12.906 8.87616 12.4152 8.87616 12.0445V12.0416V12.0388V12.0359V12.0331V12.0302V12.0274V12.0245V12.0217V12.0189V12.016V12.0132V12.0104V12.0075V12.0047V12.0019V11.9991V11.9963V11.9935V11.9907V11.9879V11.9851V11.9823V11.9795V11.9767V11.974V11.9712V11.9684V11.9656V11.9629V11.9601V11.9574V11.9546V11.9518V11.9491V11.9464V11.9436V11.9409V11.9381V11.9354V11.9327V11.93V11.9272V11.9245V11.9218V11.9191V11.9164V11.9137V11.911V11.9083V11.9056V11.9029V11.9002V11.8975V11.8948V11.8921V11.8895V11.8868V11.8841V11.8815V11.8788V11.8761V11.8735V11.8708V11.8682V11.8655V11.8629V11.8602V11.8576V11.8549V11.8523V11.8497V11.847V11.8444V11.8418V11.8392V11.8366V11.834V11.8313V11.8287V11.8261V11.8235V11.8209V11.8183V11.8157V11.8131V11.8106V11.808V11.8054V11.8028V11.8002V11.7977V11.7951V11.7925V11.7899V11.7874V11.7848V11.7823V11.7797V11.7772V11.7746V11.7721V11.7695V11.767V11.7644V11.7619V11.7594V11.7568V11.7543V11.7518V11.7493V11.7467V11.7442V11.7417V11.7392V11.7367V11.7342V11.7317V11.7291V11.7266V11.7241V11.7216V11.7192V11.7167V11.7142V11.7117V11.7092V11.7067V11.7042V11.7018V11.6993V11.6968V11.6943V11.6919V11.6894V11.6869V11.6845V11.682V11.6796V11.6771V11.6747V11.6722V11.6698V11.6673V11.6649V11.6624V11.66V11.6575V11.6551V11.6527V11.6502V11.6478V11.6454V11.643V11.6405V11.6381V11.6357V11.6333V11.6309V11.6285V11.626V11.6236V11.6212V11.6188V11.6164V11.614V11.6116V11.6092V11.6068V11.6044V11.602V11.5996V11.5973V11.5949V11.5925V11.5901V11.5877V11.5853V11.583V11.5806V11.5782V11.5758V11.5735V11.5711V11.5687V11.5664V11.564V11.5617V11.5593V11.5569V11.5546V11.5522V11.5499V11.5475V11.5452V11.5428V11.5405V11.5381V11.5358V11.5334V11.5311V11.5288V11.5264V11.5241V11.5218V11.5194V11.5171V11.5148V11.5124V11.5101V11.5078V11.5055V11.5031V11.5008V11.4985V11.4962V11.4939V11.4916V11.4892V11.4869V11.4846V11.4823V11.48V11.4777V11.4754V11.4731V11.4708V11.4685V11.4662V11.4639V11.4616V11.4593V11.4588L11.2701 12.8329C11.9762 13.2382 12.8801 12.996 13.2889 12.2919L13.7001 11.5839L14.3662 13.0585C14.6331 13.6496 15.4609 13.6899 15.7874 13.1276L16.888 11.2325C17.2145 10.6702 16.7655 9.9777 16.1171 10.0434L14.4996 10.2072L14.9779 9.38361C15.3867 8.67954 15.1458 7.78022 14.4396 7.37491L8.0446 3.7042ZM15.1094 12.4604L14.5086 11.1302L15.9677 10.9824L15.1094 12.4604ZM9.46176 7.49623L7.46545 6.35036L6.88916 7.34271L8.88548 8.48858L9.46176 7.49623Z" fill="white"/>
<defs>
<linearGradient id="paint0_linear_2276_17318" x1="2.8125" y1="2.8125" x2="17.1875" y2="17.1875" gradientUnits="userSpaceOnUse">
<stop stop-color="#9DFFE8"/>
<stop offset="1" stop-color="#1951A4"/>
</linearGradient>
</defs>
</svg>
