<svg width="20" height="20" viewBox="0 0 20 20" fill="none" xmlns="http://www.w3.org/2000/svg">
<path fill-rule="evenodd" clip-rule="evenodd" d="M2.92859 11.043C2.41574 11.043 2 11.4587 2 11.9716V14.6858C2 15.1987 2.41574 15.6144 2.92859 15.6144H17.0714C17.5843 15.6144 18 15.1987 18 14.6858V11.9716C18 11.4587 17.5843 11.043 17.0714 11.043H2.92859ZM3.60394 12.1836C3.34752 12.1836 3.13965 12.3915 3.13965 12.6479V14.005C3.13965 14.2614 3.34752 14.4693 3.60394 14.4693H8.38964C8.64606 14.4693 8.85393 14.2614 8.85393 14.005V12.6479C8.85393 12.3915 8.64606 12.1836 8.38964 12.1836H3.60394ZM13.4273 13.3265C13.4273 13.9576 12.9156 14.4693 12.2845 14.4693C11.6533 14.4693 11.1416 13.9576 11.1416 13.3265C11.1416 12.6953 11.6533 12.1836 12.2845 12.1836C12.9156 12.1836 13.4273 12.6953 13.4273 13.3265ZM15.7171 14.4693C16.3483 14.4693 16.8599 13.9576 16.8599 13.3265C16.8599 12.6953 16.3483 12.1836 15.7171 12.1836C15.0859 12.1836 14.5742 12.6953 14.5742 13.3265C14.5742 13.9576 15.0859 14.4693 15.7171 14.4693Z" fill="#DDE0ED"/>
<rect x="3.13867" y="4.19922" width="1.71429" height="8" rx="0.857143" fill="#DDE0ED"/>
<path d="M18.0006 4.19922H15.7148C15.7148 6.02779 17.2387 6.48493 18.0006 6.48493V4.19922Z" fill="#DDE0ED"/>
<path d="M13.9975 4.19922H12.2832C12.2832 7.62779 14.5689 9.91351 17.9975 9.91351V8.19922C15.7118 8.19922 13.9975 6.48493 13.9975 4.19922Z" fill="#DDE0ED"/>
</svg>
