<svg width="28" height="28" viewBox="0 0 28 28" fill="none" xmlns="http://www.w3.org/2000/svg">
<path opacity="0.25" d="M13.9994 27.9994C17.6919 27.9994 20.6851 27.168 20.6851 26.1423C20.6851 25.1166 17.6919 24.2852 13.9994 24.2852C10.307 24.2852 7.31372 25.1166 7.31372 26.1423C7.31372 27.168 10.307 27.9994 13.9994 27.9994Z" fill="black"/>
<path opacity="0.5" d="M13.9997 27.2559C16.051 27.2559 17.714 26.757 17.714 26.1416C17.714 25.5262 16.051 25.0273 13.9997 25.0273C11.9483 25.0273 10.2854 25.5262 10.2854 26.1416C10.2854 26.757 11.9483 27.2559 13.9997 27.2559Z" fill="black"/>
<path opacity="0.75" d="M13.9999 26.5163C14.8204 26.5163 15.4856 26.35 15.4856 26.1449C15.4856 25.9397 14.8204 25.7734 13.9999 25.7734C13.1793 25.7734 12.5142 25.9397 12.5142 26.1449C12.5142 26.35 13.1793 26.5163 13.9999 26.5163Z" fill="black"/>
<path d="M24.5856 12.4054C24.5866 10.5377 24.0846 8.70409 23.1323 7.09734C22.1799 5.49058 20.8125 4.16994 19.1735 3.27415C17.5346 2.37836 15.6846 1.94048 13.818 2.0065C11.9514 2.07253 10.137 2.64002 8.56546 3.64937C6.9939 4.65872 5.72317 6.07268 4.88675 7.7427C4.05032 9.41273 3.67908 11.2772 3.81202 13.1402C3.94497 15.0033 4.57718 16.7961 5.64226 18.3305C7.88722 21.5645 13.0269 25.9628 14.1856 26.5143C15.3443 25.9628 20.7521 21.417 22.9333 18.0248C24.0111 16.3486 24.5846 14.3982 24.5856 12.4054Z" fill="url(#paint0_linear_1951_14175)"/>
<path fill-rule="evenodd" clip-rule="evenodd" d="M8.79883 10.6976V11.9887L14.1474 7.19338L19.496 11.9887V10.6976L18.1696 9.50849V7.0367H18.5233V6.38839H16.5783V7.0367H16.932V8.39884L14.1474 5.90234L8.79883 10.6976Z" fill="white"/>
<path fill-rule="evenodd" clip-rule="evenodd" d="M11.7189 12.2225C11.7326 12.2225 11.7462 12.2219 11.7596 12.2208C11.8592 12.5049 12.1298 12.7087 12.448 12.7087C12.8509 12.7087 13.1774 12.3822 13.1774 11.9794C13.1774 11.5765 12.8509 11.25 12.448 11.25C12.2979 11.25 12.1583 11.2954 12.0423 11.3732C11.9564 11.2966 11.8431 11.25 11.7189 11.25C11.4503 11.25 11.2326 11.4677 11.2326 11.7362C11.2326 12.0048 11.4503 12.2225 11.7189 12.2225ZM12.3265 16.3571C12.3265 16.1932 12.2616 16.0445 12.1561 15.9351C12.1216 15.6678 12.0625 15.3322 11.9615 14.9496C11.8975 14.7068 11.91 14.4394 11.9491 14.1767L12.1935 14.4212C12.2519 14.4795 12.3231 14.5235 12.4014 14.5496L13.4955 14.9143C13.5089 14.9188 13.5224 14.9227 13.5359 14.9261C13.7045 14.986 13.8994 14.9595 14.0488 14.8388L14.4719 14.497L14.0801 15.3784C13.9927 15.5751 14.0159 15.8034 14.141 15.9785L15.2102 17.4755L15.0085 18.6859C14.9533 19.017 15.177 19.3301 15.5081 19.3853C15.8392 19.4405 16.1523 19.2168 16.2075 18.8857L16.4507 17.427C16.4772 17.268 16.4394 17.105 16.3457 16.9738L15.332 15.5547L15.8923 14.2941L17.0003 15.0856C17.0382 15.1126 17.0785 15.134 17.12 15.1499C17.1036 15.2344 17.0969 15.3134 17.0969 15.3817V18.7853C17.0969 19.0371 17.301 19.2412 17.5527 19.2412C17.8045 19.2412 18.0086 19.0371 18.0086 18.7853V15.3817C18.0086 15.3331 18.0269 15.25 18.0685 15.1922C18.0861 15.1679 18.106 15.1501 18.131 15.1372C18.1556 15.1245 18.2013 15.1082 18.2821 15.1082C18.3629 15.1082 18.4086 15.1245 18.4332 15.1372C18.4582 15.1501 18.4781 15.1679 18.4956 15.1922C18.5373 15.25 18.5556 15.3331 18.5556 15.3817C18.5556 15.6335 18.7597 15.8375 19.0114 15.8375C19.2632 15.8375 19.4673 15.6335 19.4673 15.3817C19.4673 15.1872 19.4127 14.9056 19.2355 14.6595C19.0416 14.3902 18.7224 14.1965 18.2821 14.1965C18.0675 14.1965 17.8817 14.2425 17.7251 14.3208C17.6951 14.2833 17.6596 14.2493 17.6186 14.22L16.2339 13.231C16.2294 13.1872 16.2193 13.1432 16.2033 13.1C16.1012 12.8246 15.7952 12.6841 15.5198 12.7862L14.4505 13.1827C14.3964 13.2027 14.346 13.2314 14.3011 13.2676L13.6053 13.8297L12.8569 13.5803L12.0947 12.8181C11.8871 12.6105 11.5503 12.6105 11.3426 12.8181C11.2782 12.8825 11.2338 12.9593 11.2093 13.0409C10.9739 13.3044 10.7455 13.7092 10.5028 14.1688C10.0166 15.0899 10.0166 16.2758 10.0166 16.6H11.1109V18.7883C11.1109 19.124 11.383 19.3961 11.7187 19.3961C12.0544 19.3961 12.3265 19.124 12.3265 18.7883V16.3571ZM9.78919 17.0599L10.758 17.066L9.7793 18.8132C9.66388 19.0192 9.40263 19.0917 9.19754 18.9746C8.99464 18.8587 8.92327 18.6008 9.03774 18.3971L9.78919 17.0599ZM17.0663 11.9794C17.0663 12.3822 16.7398 12.7087 16.337 12.7087C15.9342 12.7087 15.6076 12.3822 15.6076 11.9794C15.6076 11.5765 15.9342 11.25 16.337 11.25C16.7398 11.25 17.0663 11.5765 17.0663 11.9794ZM14.4525 17.3259L13.9563 16.5965L12.9028 18.4414C12.7855 18.6468 12.8569 18.9083 13.0622 19.0256C13.2657 19.1418 13.5248 19.0729 13.6437 18.8709L14.4519 17.4971C14.483 17.4443 14.4832 17.3789 14.4525 17.3259Z" fill="white"/>
<defs>
<linearGradient id="paint0_linear_1951_14175" x1="6.71064" y1="5.44732" x2="24.0951" y2="20.1978" gradientUnits="userSpaceOnUse">
<stop stop-color="#5CD5F7"/>
<stop offset="1" stop-color="#0C5292"/>
</linearGradient>
</defs>
</svg>
