<svg width="32" height="32" viewBox="0 0 32 32" fill="none" xmlns="http://www.w3.org/2000/svg">
<path opacity="0.25" d="M16 32C19.9765 32 23.2 31.1046 23.2 30C23.2 28.8954 19.9765 28 16 28C12.0236 28 8.80005 28.8954 8.80005 30C8.80005 31.1046 12.0236 32 16 32Z" fill="black"/>
<path opacity="0.5" d="M16.0002 31.2008C18.2094 31.2008 20.0002 30.6635 20.0002 30.0008C20.0002 29.338 18.2094 28.8008 16.0002 28.8008C13.7911 28.8008 12.0002 29.338 12.0002 30.0008C12.0002 30.6635 13.7911 31.2008 16.0002 31.2008Z" fill="black"/>
<path opacity="0.75" d="M16.0001 30.4016C16.8838 30.4016 17.6001 30.2225 17.6001 30.0016C17.6001 29.7806 16.8838 29.6016 16.0001 29.6016C15.1165 29.6016 14.4001 29.7806 14.4001 30.0016C14.4001 30.2225 15.1165 30.4016 16.0001 30.4016Z" fill="black"/>
<path d="M27.2 15.2059C27.2011 13.1944 26.6604 11.2198 25.6349 9.48944C24.6093 7.75908 23.1366 6.33686 21.3716 5.37216C19.6066 4.40746 17.6143 3.9359 15.6041 4.007C13.5939 4.0781 11.64 4.68925 9.94754 5.77625C8.25509 6.86324 6.88661 8.38596 5.98585 10.1845C5.08509 11.9829 4.68529 13.9908 4.82846 15.9972C4.97163 18.0035 5.65247 19.9343 6.79948 21.5867C9.21713 25.0695 14.7522 29.8061 16 30.4C17.2478 29.8061 23.0716 24.9106 25.4206 21.2574C26.5813 19.4524 27.1989 17.3519 27.2 15.2059Z" fill="url(#paint0_linear_1951_15169)"/>
<path d="M14.6373 12.4879H17.3636C17.6475 12.4879 17.8887 12.6955 17.931 12.9763L18.755 18.4529H13.2456L14.0699 12.9762C14.1122 12.6955 14.3534 12.4879 14.6373 12.4879Z" stroke="white" stroke-width="0.819587"/>
<path d="M12.6712 18.4098H19.3294C19.6435 18.4098 19.8982 18.6645 19.8982 18.9786V20.821H12.1024V18.9786C12.1024 18.6645 12.3571 18.4098 12.6712 18.4098Z" stroke="white" stroke-width="0.819587"/>
<path fill-rule="evenodd" clip-rule="evenodd" d="M16.0017 8.42969C16.228 8.42969 16.4115 8.61316 16.4115 8.83948V10.0267C16.4115 10.253 16.228 10.4365 16.0017 10.4365C15.7754 10.4365 15.5919 10.253 15.5919 10.0267V8.83948C15.5919 8.61316 15.7754 8.42969 16.0017 8.42969ZM9.66909 12.999C9.72767 12.7804 9.95238 12.6507 10.171 12.7093L11.3177 13.0165C11.5363 13.0751 11.6661 13.2998 11.6075 13.5184C11.5489 13.737 11.3242 13.8668 11.1056 13.8082L9.95886 13.5009C9.74025 13.4424 9.61052 13.2177 9.66909 12.999ZM22.044 13.5009C22.2626 13.4424 22.3924 13.2177 22.3338 12.999C22.2752 12.7804 22.0505 12.6507 21.8319 12.7093L20.6852 13.0165C20.4666 13.0751 20.3368 13.2998 20.3954 13.5184C20.454 13.737 20.6787 13.8668 20.8973 13.8082L22.044 13.5009ZM20.6431 9.65151C20.8031 9.81155 20.8031 10.071 20.6431 10.231L19.8036 11.0705C19.6436 11.2306 19.3841 11.2306 19.2241 11.0705C19.064 10.9105 19.064 10.651 19.2241 10.491L20.0635 9.65151C20.2236 9.49148 20.483 9.49148 20.6431 9.65151ZM11.9393 9.65151C11.7793 9.49148 11.5198 9.49148 11.3598 9.65151C11.1998 9.81155 11.1998 10.071 11.3598 10.231L12.1993 11.0705C12.3593 11.2306 12.6188 11.2306 12.7788 11.0705C12.9389 10.9105 12.9389 10.651 12.7788 10.491L11.9393 9.65151Z" fill="white"/>
<defs>
<linearGradient id="paint0_linear_1951_15169" x1="7.95005" y1="7.7125" x2="26.6718" y2="23.5976" gradientUnits="userSpaceOnUse">
<stop stop-color="#FF5961"/>
<stop offset="1" stop-color="#750200"/>
</linearGradient>
</defs>
</svg>
