<svg width="20" height="20" viewBox="0 0 20 20" fill="none" xmlns="http://www.w3.org/2000/svg">
<circle cx="10" cy="10" r="10" fill="url(#paint0_linear_2279_17408)"/>
<mask id="path-2-outside-1_2279_17408" maskUnits="userSpaceOnUse" x="4" y="1.29297" width="14" height="16" fill="black">
<rect fill="white" x="4" y="1.29297" width="14" height="16"/>
<path fill-rule="evenodd" clip-rule="evenodd" d="M16.4675 7.7626C16.7621 7.7626 17.0008 7.52382 17.0008 7.22927C17.0008 4.50302 14.7908 2.29297 12.0645 2.29297C11.77 2.29297 11.5312 2.53175 11.5312 2.8263C11.5312 3.12085 11.77 3.35964 12.0645 3.35964C14.2017 3.35964 15.9342 5.09213 15.9342 7.22927C15.9342 7.52382 16.173 7.7626 16.4675 7.7626ZM14.4358 7.7626C14.7303 7.7626 14.9691 7.52382 14.9691 7.22927C14.9691 5.62534 13.6689 4.32511 12.0649 4.32511C11.7704 4.32511 11.5316 4.56389 11.5316 4.85844C11.5316 5.15299 11.7704 5.39177 12.0649 5.39177C13.0798 5.39177 13.9024 6.21445 13.9024 7.22927C13.9024 7.52382 14.1412 7.7626 14.4358 7.7626ZM12.3871 12.526V12.8283L12.5576 13.0778L12.9833 13.7005H6.38968L6.81537 13.0778L6.98595 12.8283V12.526V9.51278C6.98595 8.15091 8.08997 7.04689 9.45185 7.04689H9.92116C11.283 7.04689 12.3871 8.15091 12.3871 9.51278V12.526ZM5.09135 13.8672L6.00818 12.526V9.51278C6.00818 7.82306 7.22516 6.41758 8.83043 6.12503C8.82915 6.10577 8.8285 6.08633 8.8285 6.06675C8.8285 5.59127 9.21276 5.20583 9.68677 5.20583C10.1608 5.20583 10.5451 5.59127 10.5451 6.06675C10.5451 6.08637 10.5444 6.10583 10.5431 6.12513C12.1481 6.41789 13.3648 7.82325 13.3648 9.51278V12.526L14.2817 13.8672C14.5169 14.2113 14.2705 14.6783 13.8536 14.6783H11.4629C11.4609 15.6584 10.6678 16.4548 9.68656 16.4548C8.70536 16.4548 7.91226 15.6584 7.91026 14.6783H5.51941C5.10253 14.6783 4.85609 14.2113 5.09135 13.8672ZM8.88805 14.6783C8.89004 15.1212 9.24819 15.4771 9.68656 15.4771C10.1249 15.4771 10.4831 15.1212 10.4851 14.6783H8.88805Z"/>
</mask>
<path fill-rule="evenodd" clip-rule="evenodd" d="M16.4675 7.7626C16.7621 7.7626 17.0008 7.52382 17.0008 7.22927C17.0008 4.50302 14.7908 2.29297 12.0645 2.29297C11.77 2.29297 11.5312 2.53175 11.5312 2.8263C11.5312 3.12085 11.77 3.35964 12.0645 3.35964C14.2017 3.35964 15.9342 5.09213 15.9342 7.22927C15.9342 7.52382 16.173 7.7626 16.4675 7.7626ZM14.4358 7.7626C14.7303 7.7626 14.9691 7.52382 14.9691 7.22927C14.9691 5.62534 13.6689 4.32511 12.0649 4.32511C11.7704 4.32511 11.5316 4.56389 11.5316 4.85844C11.5316 5.15299 11.7704 5.39177 12.0649 5.39177C13.0798 5.39177 13.9024 6.21445 13.9024 7.22927C13.9024 7.52382 14.1412 7.7626 14.4358 7.7626ZM12.3871 12.526V12.8283L12.5576 13.0778L12.9833 13.7005H6.38968L6.81537 13.0778L6.98595 12.8283V12.526V9.51278C6.98595 8.15091 8.08997 7.04689 9.45185 7.04689H9.92116C11.283 7.04689 12.3871 8.15091 12.3871 9.51278V12.526ZM5.09135 13.8672L6.00818 12.526V9.51278C6.00818 7.82306 7.22516 6.41758 8.83043 6.12503C8.82915 6.10577 8.8285 6.08633 8.8285 6.06675C8.8285 5.59127 9.21276 5.20583 9.68677 5.20583C10.1608 5.20583 10.5451 5.59127 10.5451 6.06675C10.5451 6.08637 10.5444 6.10583 10.5431 6.12513C12.1481 6.41789 13.3648 7.82325 13.3648 9.51278V12.526L14.2817 13.8672C14.5169 14.2113 14.2705 14.6783 13.8536 14.6783H11.4629C11.4609 15.6584 10.6678 16.4548 9.68656 16.4548C8.70536 16.4548 7.91226 15.6584 7.91026 14.6783H5.51941C5.10253 14.6783 4.85609 14.2113 5.09135 13.8672ZM8.88805 14.6783C8.89004 15.1212 9.24819 15.4771 9.68656 15.4771C10.1249 15.4771 10.4831 15.1212 10.4851 14.6783H8.88805Z" fill="white"/>
<path d="M12.0645 3.35964L12.0645 2.85964H12.0645V3.35964ZM15.9342 7.22927L15.4342 7.22926V7.22927H15.9342ZM12.3871 12.8283H11.8871V12.9828L11.9743 13.1104L12.3871 12.8283ZM12.5576 13.0778L12.9704 12.7956L12.9704 12.7956L12.5576 13.0778ZM12.9833 13.7005V14.2005H13.9308L13.3961 13.4183L12.9833 13.7005ZM6.38968 13.7005L5.97691 13.4183L5.4422 14.2005H6.38968V13.7005ZM6.81537 13.0778L6.4026 12.7956L6.4026 12.7956L6.81537 13.0778ZM6.98595 12.8283L7.39872 13.1104L7.48595 12.9828V12.8283H6.98595ZM6.00818 12.526L6.42094 12.8082L6.50818 12.6806V12.526H6.00818ZM5.09135 13.8672L4.67858 13.585L4.67858 13.585L5.09135 13.8672ZM8.83043 6.12503L8.92008 6.61693L9.35899 6.53694L9.32933 6.09178L8.83043 6.12503ZM10.5431 6.12513L10.0442 6.09182L10.0145 6.53696L10.4534 6.61701L10.5431 6.12513ZM13.3648 12.526H12.8648V12.6806L12.9521 12.8082L13.3648 12.526ZM14.2817 13.8672L13.8689 14.1493L13.8689 14.1493L14.2817 13.8672ZM11.4629 14.6783V14.1783H10.9639L10.9629 14.6773L11.4629 14.6783ZM7.91026 14.6783L8.41026 14.6773L8.40924 14.1783H7.91026V14.6783ZM8.88805 14.6783V14.1783H8.38579L8.38805 14.6805L8.88805 14.6783ZM10.4851 14.6783L10.9851 14.6805L10.9873 14.1783H10.4851V14.6783ZM16.5008 7.22927C16.5008 7.24767 16.4859 7.2626 16.4675 7.2626V8.2626C17.0382 8.2626 17.5008 7.79996 17.5008 7.22927H16.5008ZM12.0645 2.79297C14.5146 2.79297 16.5008 4.77917 16.5008 7.22927H17.5008C17.5008 4.22688 15.0669 1.79297 12.0645 1.79297V2.79297ZM12.0312 2.8263C12.0312 2.80789 12.0461 2.79297 12.0645 2.79297V1.79297C11.4939 1.79297 11.0312 2.25561 11.0312 2.8263H12.0312ZM12.0645 2.85964C12.0461 2.85964 12.0312 2.84471 12.0312 2.8263H11.0312C11.0312 3.397 11.4938 3.85964 12.0645 3.85964V2.85964ZM16.4342 7.22927C16.4342 4.81599 14.4778 2.85964 12.0645 2.85964L12.0645 3.85964C13.9255 3.85964 15.4342 5.36827 15.4342 7.22926L16.4342 7.22927ZM16.4675 7.2626C16.4491 7.2626 16.4342 7.24767 16.4342 7.22927H15.4342C15.4342 7.79996 15.8968 8.2626 16.4675 8.2626V7.2626ZM14.4691 7.22927C14.4691 7.24767 14.4542 7.2626 14.4358 7.2626V8.2626C15.0065 8.2626 15.4691 7.79996 15.4691 7.22927H14.4691ZM12.0649 4.82511C13.3927 4.82511 14.4691 5.90148 14.4691 7.22927H15.4691C15.4691 5.3492 13.945 3.82511 12.0649 3.82511V4.82511ZM12.0316 4.85844C12.0316 4.84003 12.0465 4.82511 12.0649 4.82511V3.82511C11.4942 3.82511 11.0316 4.28774 11.0316 4.85844H12.0316ZM12.0649 4.89177C12.0465 4.89177 12.0316 4.87685 12.0316 4.85844H11.0316C11.0316 5.42913 11.4942 5.89177 12.0649 5.89177V4.89177ZM14.4024 7.22927C14.4024 5.9383 13.3559 4.89177 12.0649 4.89177V5.89177C12.8036 5.89177 13.4024 6.49059 13.4024 7.22927H14.4024ZM14.4358 7.2626C14.4174 7.2626 14.4024 7.24767 14.4024 7.22927H13.4024C13.4024 7.79996 13.8651 8.2626 14.4358 8.2626V7.2626ZM12.8871 12.8283V12.526H11.8871V12.8283H12.8871ZM12.9704 12.7956L12.7998 12.5461L11.9743 13.1104L12.1449 13.36L12.9704 12.7956ZM13.3961 13.4183L12.9704 12.7956L12.1449 13.36L12.5706 13.9827L13.3961 13.4183ZM6.38968 14.2005H12.9833V13.2005H6.38968V14.2005ZM6.4026 12.7956L5.97691 13.4183L6.80244 13.9827L7.22814 13.36L6.4026 12.7956ZM6.57318 12.5461L6.4026 12.7956L7.22814 13.36L7.39872 13.1104L6.57318 12.5461ZM6.48595 12.526V12.8283H7.48595V12.526H6.48595ZM6.48595 9.51278V12.526H7.48595V9.51278H6.48595ZM9.45185 6.54689C7.81383 6.54689 6.48595 7.87476 6.48595 9.51278H7.48595C7.48595 8.42705 8.36612 7.54689 9.45185 7.54689V6.54689ZM9.92116 6.54689H9.45185V7.54689H9.92116V6.54689ZM12.8871 9.51278C12.8871 7.87476 11.5592 6.54689 9.92116 6.54689V7.54689C11.0069 7.54689 11.8871 8.42705 11.8871 9.51278H12.8871ZM12.8871 12.526V9.51278H11.8871V12.526H12.8871ZM5.59541 12.2438L4.67858 13.585L5.50412 14.1493L6.42094 12.8082L5.59541 12.2438ZM5.50818 9.51278V12.526H6.50818V9.51278H5.50818ZM8.74079 5.63313C6.90212 5.96822 5.50818 7.57719 5.50818 9.51278H6.50818C6.50818 8.06893 7.54819 6.86695 8.92008 6.61693L8.74079 5.63313ZM8.3285 6.06675C8.3285 6.09743 8.32952 6.12796 8.33154 6.15828L9.32933 6.09178C9.32878 6.08358 9.3285 6.07523 9.3285 6.06675H8.3285ZM9.68677 4.70583C8.93517 4.70583 8.3285 5.31658 8.3285 6.06675H9.3285C9.3285 5.86597 9.49035 5.70583 9.68677 5.70583V4.70583ZM11.0451 6.06675C11.0451 5.31658 10.4384 4.70583 9.68677 4.70583V5.70583C9.8832 5.70583 10.0451 5.86597 10.0451 6.06675H11.0451ZM11.042 6.15843C11.044 6.12806 11.0451 6.09748 11.0451 6.06675H10.0451C10.0451 6.07525 10.0448 6.08361 10.0442 6.09182L11.042 6.15843ZM13.8648 9.51278C13.8648 7.5774 12.4712 5.96857 10.6328 5.63324L10.4534 6.61701C11.825 6.86721 12.8648 8.06909 12.8648 9.51278H13.8648ZM13.8648 12.526V9.51278H12.8648V12.526H13.8648ZM14.6944 13.585L13.7776 12.2438L12.9521 12.8082L13.8689 14.1493L14.6944 13.585ZM13.8536 15.1783C14.6725 15.1783 15.1566 14.261 14.6944 13.585L13.8689 14.1493C13.8718 14.1535 13.8726 14.1559 13.8727 14.1564C13.8729 14.157 13.873 14.1574 13.873 14.1579C13.8731 14.1592 13.8727 14.1632 13.87 14.1684C13.8672 14.1736 13.8641 14.1762 13.863 14.1769C13.8626 14.1771 13.8622 14.1773 13.8616 14.1775C13.8611 14.1776 13.8587 14.1783 13.8536 14.1783V15.1783ZM11.4629 15.1783H13.8536V14.1783H11.4629V15.1783ZM10.9629 14.6773C10.9614 15.3832 10.3904 15.9548 9.68656 15.9548V16.9548C10.9451 16.9548 11.9603 15.9335 11.9629 14.6793L10.9629 14.6773ZM9.68656 15.9548C8.98273 15.9548 8.4117 15.3832 8.41026 14.6773L7.41026 14.6793C7.41282 15.9335 8.428 16.9548 9.68656 16.9548V15.9548ZM5.51941 15.1783H7.91026V14.1783H5.51941V15.1783ZM4.67858 13.585C4.21646 14.261 4.70055 15.1783 5.51941 15.1783V14.1783C5.51432 14.1783 5.51194 14.1776 5.51142 14.1775C5.5108 14.1773 5.51045 14.1771 5.51003 14.1769C5.5089 14.1762 5.50578 14.1736 5.50303 14.1684C5.50028 14.1632 5.49996 14.1592 5.50001 14.1579C5.50002 14.1574 5.50008 14.157 5.50028 14.1564C5.50045 14.1559 5.50125 14.1535 5.50412 14.1493L4.67858 13.585ZM8.38805 14.6805C8.39128 15.3974 8.97163 15.9771 9.68656 15.9771V14.9771C9.52475 14.9771 9.3888 14.845 9.38804 14.676L8.38805 14.6805ZM9.68656 15.9771C10.4015 15.9771 10.9819 15.3974 10.9851 14.6805L9.98509 14.676C9.98433 14.845 9.84838 14.9771 9.68656 14.9771V15.9771ZM8.88805 15.1783H10.4851V14.1783H8.88805V15.1783Z" fill="black" fill-opacity="0.12" mask="url(#path-2-outside-1_2279_17408)"/>
<defs>
<linearGradient id="paint0_linear_2279_17408" x1="2.8125" y1="2.8125" x2="17.1875" y2="17.1875" gradientUnits="userSpaceOnUse">
<stop stop-color="#FF99BB"/>
<stop offset="1" stop-color="#990F54"/>
</linearGradient>
</defs>
</svg>
