<svg width="32" height="32" viewBox="0 0 32 32" fill="none" xmlns="http://www.w3.org/2000/svg">
<path opacity="0.25" d="M16 32C19.9765 32 23.2 31.1046 23.2 30C23.2 28.8954 19.9765 28 16 28C12.0236 28 8.80005 28.8954 8.80005 30C8.80005 31.1046 12.0236 32 16 32Z" fill="black"/>
<path opacity="0.5" d="M16.0002 31.2008C18.2094 31.2008 20.0002 30.6635 20.0002 30.0008C20.0002 29.338 18.2094 28.8008 16.0002 28.8008C13.7911 28.8008 12.0002 29.338 12.0002 30.0008C12.0002 30.6635 13.7911 31.2008 16.0002 31.2008Z" fill="black"/>
<path opacity="0.75" d="M16.0001 30.4016C16.8838 30.4016 17.6001 30.2225 17.6001 30.0016C17.6001 29.7806 16.8838 29.6016 16.0001 29.6016C15.1165 29.6016 14.4001 29.7806 14.4001 30.0016C14.4001 30.2225 15.1165 30.4016 16.0001 30.4016Z" fill="black"/>
<path d="M27.1998 15.2059C27.2009 13.1944 26.6602 11.2198 25.6346 9.48944C24.609 7.75908 23.1364 6.33686 21.3714 5.37216C19.6063 4.40746 17.6141 3.9359 15.6039 4.007C13.5937 4.0781 11.6398 4.68925 9.9473 5.77625C8.25485 6.86324 6.88637 8.38596 5.98561 10.1845C5.08484 11.9829 4.68505 13.9908 4.82821 15.9972C4.97138 18.0035 5.65223 19.9343 6.79923 21.5867C9.21689 25.0695 14.752 29.8061 15.9998 30.4C17.2476 29.8061 23.0714 24.9106 25.4204 21.2574C26.581 19.4524 27.1987 17.3519 27.1998 15.2059Z" fill="url(#paint0_linear_2272_15575)"/>
<g opacity="0.5">
<path fill-rule="evenodd" clip-rule="evenodd" d="M10.3994 13.3673V14.7576L16.1594 9.59347L21.9194 14.7576V13.3673L20.4913 12.0868V9.42474H20.8721V8.72656H18.7775V9.42474H19.1584V10.8918L16.1594 8.20312L10.3994 13.3673Z" fill="white"/>
<path fill-rule="evenodd" clip-rule="evenodd" d="M13.5431 15.0121C13.5579 15.0121 13.5725 15.0115 13.5869 15.0103C13.6943 15.3163 13.9857 15.5358 14.3283 15.5358C14.7621 15.5358 15.1138 15.1841 15.1138 14.7503C15.1138 14.3165 14.7621 13.9648 14.3283 13.9648C14.1666 13.9648 14.0163 14.0137 13.8914 14.0975C13.7989 14.015 13.6768 13.9648 13.5431 13.9648C13.2539 13.9648 13.0194 14.1993 13.0194 14.4885C13.0194 14.7777 13.2539 15.0121 13.5431 15.0121ZM14.1974 19.4633C14.1974 19.2869 14.1276 19.1268 14.0142 19.009C13.977 18.7211 13.9134 18.3596 13.8046 17.9474C13.7358 17.6865 13.7491 17.399 13.791 17.1167L14.0543 17.3799C14.1171 17.4428 14.1938 17.4902 14.2781 17.5183L15.4563 17.911C15.4692 17.9153 15.4822 17.9191 15.4952 17.9225C15.678 17.9896 15.8905 17.9618 16.053 17.8305L16.5083 17.4627L16.0866 18.4116C15.9924 18.6235 16.0173 18.8693 16.1521 19.0579L17.3036 20.67L17.0863 21.9735C17.0269 22.3301 17.2678 22.6673 17.6243 22.7267C17.9809 22.7862 18.3182 22.5453 18.3776 22.1887L18.6394 20.6178C18.668 20.4466 18.6273 20.271 18.5264 20.1297L17.4348 18.6014L18.0381 17.2439L19.2314 18.0962C19.2724 18.1255 19.316 18.1486 19.361 18.1658C19.3432 18.2569 19.336 18.3422 19.336 18.4159V22.0814C19.336 22.3525 19.5557 22.5723 19.8269 22.5723C20.098 22.5723 20.3178 22.3525 20.3178 22.0814V18.4159C20.3178 18.3636 20.3375 18.2741 20.3824 18.2119C20.4012 18.1857 20.4226 18.1666 20.4496 18.1527C20.4761 18.139 20.5253 18.1214 20.6123 18.1214C20.6993 18.1214 20.7485 18.139 20.7751 18.1527C20.802 18.1666 20.8234 18.1857 20.8423 18.2119C20.8871 18.2741 20.9069 18.3636 20.9069 18.4159C20.9069 18.687 21.1267 18.9068 21.3978 18.9068C21.6689 18.9068 21.8887 18.687 21.8887 18.4159C21.8887 18.2065 21.8299 17.9032 21.6391 17.6382C21.4302 17.3481 21.0865 17.1396 20.6123 17.1396C20.3812 17.1396 20.1811 17.1891 20.0125 17.2734C19.9801 17.2328 19.9416 17.1959 19.8972 17.1641L18.4062 16.0991C18.4013 16.0519 18.3905 16.0045 18.3733 15.9579C18.2633 15.6614 17.9337 15.5101 17.6372 15.62L16.4856 16.0469C16.4274 16.0685 16.373 16.0994 16.3248 16.1384L15.5758 16.7434L14.7686 16.4744L13.9479 15.6536C13.7242 15.43 13.3616 15.43 13.1379 15.6536C13.0691 15.7224 13.0214 15.8044 12.995 15.8914C12.7412 16.1752 12.4952 16.6113 12.2337 17.1066C11.7101 18.0986 11.7101 19.3757 11.7101 19.7248H12.8883V22.0815C12.8883 22.443 13.1814 22.736 13.5429 22.736C13.9044 22.736 14.1974 22.443 14.1974 22.0815V19.4633ZM11.465 20.2216L12.5083 20.2283L11.4543 22.1098C11.33 22.3317 11.0487 22.4098 10.8278 22.2836C10.6093 22.1588 10.5324 21.8811 10.6557 21.6617L11.465 20.2216ZM19.3025 14.7503C19.3025 15.1841 18.9508 15.5358 18.517 15.5358C18.0832 15.5358 17.7316 15.1841 17.7316 14.7503C17.7316 14.3165 18.0832 13.9648 18.517 13.9648C18.9508 13.9648 19.3025 14.3165 19.3025 14.7503ZM16.4878 20.5097L15.9534 19.7242L14.8188 21.711C14.6925 21.9322 14.7694 22.2138 14.9906 22.3401C15.2097 22.4653 15.4887 22.391 15.6167 22.1735L16.4871 20.694C16.5206 20.6372 16.5208 20.5668 16.4878 20.5097Z" fill="white"/>
</g>
<circle cx="26" cy="6" r="4.5" fill="#F29718" stroke="white"/>
<defs>
<linearGradient id="paint0_linear_2272_15575" x1="7.9498" y1="7.7125" x2="26.6715" y2="23.5976" gradientUnits="userSpaceOnUse">
<stop stop-color="#5CD5F7"/>
<stop offset="1" stop-color="#0C5292"/>
</linearGradient>
</defs>
</svg>
