<svg width="20" height="20" viewBox="0 0 20 20" fill="none" xmlns="http://www.w3.org/2000/svg">
<circle cx="10" cy="10" r="10" fill="url(#paint0_linear_2276_17304)"/>
<rect x="7.18617" y="8.20204" width="1.12721" height="0.372829" rx="0.186414" fill="white" stroke="white" stroke-width="0.372829"/>
<rect x="4.93617" y="8.20204" width="1.12721" height="0.372829" rx="0.186414" fill="white" stroke="white" stroke-width="0.372829"/>
<mask id="path-4-inside-1_2276_17304" fill="white">
<path fill-rule="evenodd" clip-rule="evenodd" d="M7.66653 8.39149C7.66653 8.95621 7.20473 9.4223 6.62482 9.4223C6.04491 9.4223 5.58311 8.95621 5.58311 8.39149C5.58311 7.82676 6.04491 7.36068 6.62482 7.36068C7.20473 7.36068 7.66653 7.82676 7.66653 8.39149ZM7.00002 10.2183C7.85579 10.0455 8.49987 9.29328 8.49987 8.39149C8.49987 7.36195 7.66038 6.52734 6.62482 6.52734C5.58926 6.52734 4.74977 7.36195 4.74977 8.39149C4.74977 9.29341 5.39404 10.0457 6.25 10.2184V11.7479H4V12.4936H7.75045V13.9871H4V14.7327H7.75045V15.0588C7.75045 15.2889 7.937 15.4754 8.16712 15.4754H9.58384C9.81396 15.4754 10.0005 15.2889 10.0005 15.0588V14.7327H12.2495V15.0588C12.2495 15.2889 12.4361 15.4754 12.6662 15.4754H14.0829C14.3131 15.4754 14.4996 15.2889 14.4996 15.0588V14.7327H16.0001V13.9871H14.4996V12.4936H16.0001V11.7479H14.4996V11.4182C14.4996 11.1881 14.3131 11.0015 14.0829 11.0015H12.6662C12.4361 11.0015 12.2495 11.188 12.2495 11.4182V11.7479H10.0005V11.4182C10.0005 11.1881 9.81396 11.0015 9.58384 11.0015H8.16712C7.937 11.0015 7.75045 11.188 7.75045 11.4182V11.7479H7.00002V10.2183ZM12.2495 13.9871H10.0005V12.4936H12.2495V13.9871ZM13.0829 14.6421V11.8348H13.6663V14.6421H13.0829ZM8.58378 11.8348V14.6421H9.16717V11.8348H8.58378Z"/>
</mask>
<path fill-rule="evenodd" clip-rule="evenodd" d="M7.66653 8.39149C7.66653 8.95621 7.20473 9.4223 6.62482 9.4223C6.04491 9.4223 5.58311 8.95621 5.58311 8.39149C5.58311 7.82676 6.04491 7.36068 6.62482 7.36068C7.20473 7.36068 7.66653 7.82676 7.66653 8.39149ZM7.00002 10.2183C7.85579 10.0455 8.49987 9.29328 8.49987 8.39149C8.49987 7.36195 7.66038 6.52734 6.62482 6.52734C5.58926 6.52734 4.74977 7.36195 4.74977 8.39149C4.74977 9.29341 5.39404 10.0457 6.25 10.2184V11.7479H4V12.4936H7.75045V13.9871H4V14.7327H7.75045V15.0588C7.75045 15.2889 7.937 15.4754 8.16712 15.4754H9.58384C9.81396 15.4754 10.0005 15.2889 10.0005 15.0588V14.7327H12.2495V15.0588C12.2495 15.2889 12.4361 15.4754 12.6662 15.4754H14.0829C14.3131 15.4754 14.4996 15.2889 14.4996 15.0588V14.7327H16.0001V13.9871H14.4996V12.4936H16.0001V11.7479H14.4996V11.4182C14.4996 11.1881 14.3131 11.0015 14.0829 11.0015H12.6662C12.4361 11.0015 12.2495 11.188 12.2495 11.4182V11.7479H10.0005V11.4182C10.0005 11.1881 9.81396 11.0015 9.58384 11.0015H8.16712C7.937 11.0015 7.75045 11.188 7.75045 11.4182V11.7479H7.00002V10.2183ZM12.2495 13.9871H10.0005V12.4936H12.2495V13.9871ZM13.0829 14.6421V11.8348H13.6663V14.6421H13.0829ZM8.58378 11.8348V14.6421H9.16717V11.8348H8.58378Z" fill="url(#paint1_linear_2276_17304)"/>
<path d="M7.00002 10.2183L6.8021 9.23809L6.00002 9.40004V10.2183H7.00002ZM6.25 10.2184H7.25V9.39994L6.44772 9.23812L6.25 10.2184ZM6.25 11.7479V12.7479H7.25V11.7479H6.25ZM4 11.7479V10.7479H3V11.7479H4ZM4 12.4936H3V13.4936H4V12.4936ZM7.75045 12.4936H8.75045V11.4936H7.75045V12.4936ZM7.75045 13.9871V14.9871H8.75045V13.9871H7.75045ZM4 13.9871V12.9871H3V13.9871H4ZM4 14.7327H3V15.7327H4V14.7327ZM7.75045 14.7327H8.75045V13.7327H7.75045V14.7327ZM10.0005 14.7327V13.7327H9.00051V14.7327H10.0005ZM12.2495 14.7327H13.2495V13.7327H12.2495V14.7327ZM14.4996 14.7327V13.7327H13.4996V14.7327H14.4996ZM16.0001 14.7327V15.7327H17.0001V14.7327H16.0001ZM16.0001 13.9871H17.0001V12.9871H16.0001V13.9871ZM14.4996 13.9871H13.4996V14.9871H14.4996V13.9871ZM14.4996 12.4936V11.4936H13.4996V12.4936H14.4996ZM16.0001 12.4936V13.4936H17.0001V12.4936H16.0001ZM16.0001 11.7479H17.0001V10.7479H16.0001V11.7479ZM14.4996 11.7479H13.4996V12.7479H14.4996V11.7479ZM12.2495 11.7479V12.7479H13.2495V11.7479H12.2495ZM10.0005 11.7479H9.00051V12.7479H10.0005V11.7479ZM7.75045 11.7479V12.7479H8.75045V11.7479H7.75045ZM7.00002 11.7479H6.00002V12.7479H7.00002V11.7479ZM10.0005 13.9871H9.00051V14.9871H10.0005V13.9871ZM12.2495 13.9871V14.9871H13.2495V13.9871H12.2495ZM10.0005 12.4936V11.4936H9.00051V12.4936H10.0005ZM12.2495 12.4936H13.2495V11.4936H12.2495V12.4936ZM13.0829 11.8348V10.8348H12.0829V11.8348H13.0829ZM13.0829 14.6421H12.0829V15.6421H13.0829V14.6421ZM13.6663 11.8348H14.6663V10.8348H13.6663V11.8348ZM13.6663 14.6421V15.6421H14.6663V14.6421H13.6663ZM8.58378 14.6421H7.58378V15.6421H8.58378V14.6421ZM8.58378 11.8348V10.8348H7.58378V11.8348H8.58378ZM9.16717 14.6421V15.6421H10.1672V14.6421H9.16717ZM9.16717 11.8348H10.1672V10.8348H9.16717V11.8348ZM6.62482 10.4223C7.75285 10.4223 8.66653 9.51266 8.66653 8.39149H6.66653C6.66653 8.39977 6.65661 8.4223 6.62482 8.4223V10.4223ZM4.58311 8.39149C4.58311 9.51266 5.49679 10.4223 6.62482 10.4223V8.4223C6.59303 8.4223 6.58311 8.39977 6.58311 8.39149H4.58311ZM6.62482 6.36068C5.49679 6.36068 4.58311 7.27032 4.58311 8.39149H6.58311C6.58311 8.3832 6.59303 8.36068 6.62482 8.36068V6.36068ZM8.66653 8.39149C8.66653 7.27032 7.75285 6.36068 6.62482 6.36068V8.36068C6.65661 8.36068 6.66653 8.3832 6.66653 8.39149H8.66653ZM7.19794 11.1985C8.50713 10.9342 9.49987 9.78256 9.49987 8.39149H7.49987C7.49987 8.804 7.20444 9.15685 6.8021 9.23809L7.19794 11.1985ZM9.49987 8.39149C9.49987 6.80418 8.20716 5.52734 6.62482 5.52734V7.52734C7.1136 7.52734 7.49987 7.91972 7.49987 8.39149H9.49987ZM6.62482 5.52734C5.04248 5.52734 3.74977 6.80418 3.74977 8.39149H5.74977C5.74977 7.91972 6.13604 7.52734 6.62482 7.52734V5.52734ZM3.74977 8.39149C3.74977 9.78276 4.7428 10.9345 6.05228 11.1986L6.44772 9.23812C6.04529 9.15695 5.74977 8.80406 5.74977 8.39149H3.74977ZM7.25 11.7479V10.2184H5.25V11.7479H7.25ZM4 12.7479H6.25V10.7479H4V12.7479ZM5 12.4936V11.7479H3V12.4936H5ZM7.75045 11.4936H4V13.4936H7.75045V11.4936ZM8.75045 13.9871V12.4936H6.75045V13.9871H8.75045ZM4 14.9871H7.75045V12.9871H4V14.9871ZM5 14.7327V13.9871H3V14.7327H5ZM7.75045 13.7327H4V15.7327H7.75045V13.7327ZM8.75045 15.0588V14.7327H6.75045V15.0588H8.75045ZM8.16712 14.4754C8.48928 14.4754 8.75045 14.7366 8.75045 15.0588H6.75045C6.75045 15.8412 7.38472 16.4754 8.16712 16.4754V14.4754ZM9.58384 14.4754H8.16712V16.4754H9.58384V14.4754ZM9.00051 15.0588C9.00051 14.7366 9.26168 14.4754 9.58384 14.4754V16.4754C10.3662 16.4754 11.0005 15.8412 11.0005 15.0588H9.00051ZM9.00051 14.7327V15.0588H11.0005V14.7327H9.00051ZM12.2495 13.7327H10.0005V15.7327H12.2495V13.7327ZM13.2495 15.0588V14.7327H11.2495V15.0588H13.2495ZM12.6662 14.4754C12.9884 14.4754 13.2495 14.7366 13.2495 15.0588H11.2495C11.2495 15.8412 11.8838 16.4754 12.6662 16.4754V14.4754ZM14.0829 14.4754H12.6662V16.4754H14.0829V14.4754ZM13.4996 15.0588C13.4996 14.7366 13.7608 14.4754 14.0829 14.4754V16.4754C14.8653 16.4754 15.4996 15.8412 15.4996 15.0588H13.4996ZM13.4996 14.7327V15.0588H15.4996V14.7327H13.4996ZM16.0001 13.7327H14.4996V15.7327H16.0001V13.7327ZM15.0001 13.9871V14.7327H17.0001V13.9871H15.0001ZM14.4996 14.9871H16.0001V12.9871H14.4996V14.9871ZM13.4996 12.4936V13.9871H15.4996V12.4936H13.4996ZM16.0001 11.4936H14.4996V13.4936H16.0001V11.4936ZM15.0001 11.7479V12.4936H17.0001V11.7479H15.0001ZM14.4996 12.7479H16.0001V10.7479H14.4996V12.7479ZM13.4996 11.4182V11.7479H15.4996V11.4182H13.4996ZM14.0829 12.0015C13.7608 12.0015 13.4996 11.7403 13.4996 11.4182H15.4996C15.4996 10.6358 14.8653 10.0015 14.0829 10.0015V12.0015ZM12.6662 12.0015H14.0829V10.0015H12.6662V12.0015ZM13.2495 11.4182C13.2495 11.7403 12.9884 12.0015 12.6662 12.0015V10.0015C11.8838 10.0015 11.2495 10.6358 11.2495 11.4182H13.2495ZM13.2495 11.7479V11.4182H11.2495V11.7479H13.2495ZM10.0005 12.7479H12.2495V10.7479H10.0005V12.7479ZM9.00051 11.4182V11.7479H11.0005V11.4182H9.00051ZM9.58384 12.0015C9.26167 12.0015 9.00051 11.7403 9.00051 11.4182H11.0005C11.0005 10.6358 10.3662 10.0015 9.58384 10.0015V12.0015ZM8.16712 12.0015H9.58384V10.0015H8.16712V12.0015ZM8.75045 11.4182C8.75045 11.7403 8.48928 12.0015 8.16712 12.0015V10.0015C7.38472 10.0015 6.75045 10.6358 6.75045 11.4182H8.75045ZM8.75045 11.7479V11.4182H6.75045V11.7479H8.75045ZM7.00002 12.7479H7.75045V10.7479H7.00002V12.7479ZM6.00002 10.2183V11.7479H8.00002V10.2183H6.00002ZM10.0005 14.9871H12.2495V12.9871H10.0005V14.9871ZM9.00051 12.4936V13.9871H11.0005V12.4936H9.00051ZM12.2495 11.4936H10.0005V13.4936H12.2495V11.4936ZM13.2495 13.9871V12.4936H11.2495V13.9871H13.2495ZM12.0829 11.8348V14.6421H14.0829V11.8348H12.0829ZM13.6663 10.8348H13.0829V12.8348H13.6663V10.8348ZM14.6663 14.6421V11.8348H12.6663V14.6421H14.6663ZM13.0829 15.6421H13.6663V13.6421H13.0829V15.6421ZM9.58378 14.6421V11.8348H7.58378V14.6421H9.58378ZM9.16717 13.6421H8.58378V15.6421H9.16717V13.6421ZM8.16717 11.8348V14.6421H10.1672V11.8348H8.16717ZM8.58378 12.8348H9.16717V10.8348H8.58378V12.8348Z" fill="white" mask="url(#path-4-inside-1_2276_17304)"/>
<path d="M10.6347 9.23453C10.5332 9.54021 10.677 10.0412 10.7615 10.2535C10.8038 10.0412 10.9645 9.56566 11.2689 9.36188C11.6494 9.10715 11.9031 9.36188 12.2836 9.36188C12.6641 9.36188 13.1714 9.10715 13.2983 8.72505C13.4251 8.34296 13.552 8.34296 13.8056 8.2156C14.0593 8.08823 14.4398 7.96087 14.5667 7.45143C14.6935 6.94199 14.4398 6.68722 14.5667 6.43249C14.6935 6.17776 15.074 6.17776 15.2009 5.79567C15.3277 5.41357 15.2009 4.90411 14.9472 4.77675C14.6935 4.64938 14.6935 4.52202 14.8203 4.26729C14.9472 4.01256 15.074 3.12103 14.313 2.8663C13.552 2.61157 13.0446 3.12103 12.9178 3.37576C12.7909 3.63049 12.6641 3.50312 12.2836 3.50312C11.9031 3.50312 11.5225 3.63049 11.3957 4.01258C11.2689 4.39468 11.5225 4.64941 11.2689 4.77677C11.0152 4.90413 10.7615 4.90413 10.381 5.28623C10.0005 5.66832 10.1273 6.30515 10.2542 6.55988C10.381 6.81461 10.0005 6.81461 10.0005 7.45143C10.0005 8.08825 10.381 8.47035 10.6347 8.59771C10.8884 8.72508 10.7615 8.85244 10.6347 9.23453Z" stroke="white" stroke-width="0.8" stroke-linejoin="round"/>
<path d="M11.5 7.64583C11.5 7.14873 11.5 6.52734 12.25 6.52734" stroke="white" stroke-width="0.8" stroke-linecap="round"/>
<path d="M13.0002 5.03125C13.0002 5.2798 13.1502 5.77691 13.7503 5.77691" stroke="white" stroke-width="0.8" stroke-linecap="round"/>
<defs>
<linearGradient id="paint0_linear_2276_17304" x1="2.8125" y1="2.8125" x2="17.1875" y2="17.1875" gradientUnits="userSpaceOnUse">
<stop stop-color="#C3C8D5"/>
<stop offset="1" stop-color="#48506B"/>
</linearGradient>
<linearGradient id="paint1_linear_2276_17304" x1="5.68751" y1="7.78567" x2="11.8516" y2="16.0522" gradientUnits="userSpaceOnUse">
<stop stop-color="white"/>
<stop offset="1" stop-color="#48506B"/>
</linearGradient>
</defs>
</svg>
