<svg width="28" height="28" viewBox="0 0 28 28" fill="none" xmlns="http://www.w3.org/2000/svg">
<path opacity="0.25" d="M13.9994 27.9994C17.6919 27.9994 20.6851 27.168 20.6851 26.1423C20.6851 25.1166 17.6919 24.2852 13.9994 24.2852C10.307 24.2852 7.31372 25.1166 7.31372 26.1423C7.31372 27.168 10.307 27.9994 13.9994 27.9994Z" fill="black"/>
<path opacity="0.5" d="M13.9997 27.2559C16.051 27.2559 17.714 26.757 17.714 26.1416C17.714 25.5262 16.051 25.0273 13.9997 25.0273C11.9483 25.0273 10.2854 25.5262 10.2854 26.1416C10.2854 26.757 11.9483 27.2559 13.9997 27.2559Z" fill="black"/>
<path opacity="0.75" d="M13.9999 26.5163C14.8204 26.5163 15.4856 26.35 15.4856 26.1449C15.4856 25.9397 14.8204 25.7734 13.9999 25.7734C13.1793 25.7734 12.5142 25.9397 12.5142 26.1449C12.5142 26.35 13.1793 26.5163 13.9999 26.5163Z" fill="black"/>
<path d="M24.3999 12.4054C24.4008 10.5377 23.8988 8.70409 22.9465 7.09734C21.9941 5.49058 20.6267 4.16994 18.9877 3.27415C17.3488 2.37836 15.4988 1.94048 13.6322 2.0065C11.7656 2.07253 9.95123 2.64002 8.37967 3.64937C6.80811 4.65872 5.53738 6.07268 4.70095 7.7427C3.86453 9.41273 3.49329 11.2772 3.62623 13.1402C3.75918 15.0033 4.39139 16.7961 5.45647 18.3305C7.70143 21.5645 12.8411 25.9628 13.9999 26.5143C15.1585 25.9628 20.5663 21.417 22.7475 18.0248C23.8253 16.3486 24.3988 14.3982 24.3999 12.4054Z" fill="url(#paint0_linear_1951_14092)"/>
<path d="M12.7948 9.90979H15.2055C15.4894 9.90979 15.7306 10.1174 15.7728 10.3981L16.5239 15.3902H11.4761L12.2275 10.3981C12.2697 10.1174 12.5109 9.90979 12.7948 9.90979Z" stroke="white" stroke-width="0.819587"/>
<path d="M10.9786 15.4098H17.0214C17.3355 15.4098 17.5902 15.6645 17.5902 15.9786V17.5902H10.4098V15.9786C10.4098 15.6645 10.6645 15.4098 10.9786 15.4098Z" stroke="white" stroke-width="0.819587"/>
<path fill-rule="evenodd" clip-rule="evenodd" d="M14.0012 6.08203C14.2276 6.08203 14.411 6.2655 14.411 6.49182V7.59422C14.411 7.82055 14.2276 8.00402 14.0012 8.00402C13.7749 8.00402 13.5914 7.82055 13.5914 7.59422V6.49182C13.5914 6.2655 13.7749 6.08203 14.0012 6.08203ZM8.09268 10.3477C8.15125 10.1291 8.37596 9.99937 8.59457 10.0579L9.65941 10.3433C9.87802 10.4018 10.0078 10.6266 9.94918 10.8452C9.8906 11.0638 9.66589 11.1935 9.44728 11.1349L8.38245 10.8496C8.16384 10.791 8.0341 10.5663 8.09268 10.3477ZM19.6195 10.8496C19.8381 10.791 19.9678 10.5663 19.9093 10.3477C19.8507 10.1291 19.626 9.99937 19.4074 10.0579L18.3425 10.3433C18.1239 10.4018 17.9942 10.6266 18.0528 10.8452C18.1113 11.0638 18.336 11.1935 18.5547 11.1349L19.6195 10.8496ZM18.3319 7.2256C18.4919 7.38563 18.4919 7.6451 18.3319 7.80513L17.5523 8.58465C17.3923 8.74468 17.1328 8.74468 16.9728 8.58465C16.8128 8.42461 16.8128 8.16515 16.9728 8.00511L17.7523 7.2256C17.9124 7.06556 18.1718 7.06556 18.3319 7.2256ZM10.2496 7.2256C10.0896 7.06556 9.83011 7.06556 9.67008 7.2256C9.51005 7.38563 9.51005 7.6451 9.67008 7.80513L10.4496 8.58465C10.6096 8.74468 10.8691 8.74468 11.0291 8.58465C11.1892 8.42461 11.1892 8.16515 11.0291 8.00511L10.2496 7.2256Z" fill="white"/>
<defs>
<linearGradient id="paint0_linear_1951_14092" x1="6.52485" y1="5.44732" x2="23.9093" y2="20.1978" gradientUnits="userSpaceOnUse">
<stop stop-color="#FF5961"/>
<stop offset="1" stop-color="#750200"/>
</linearGradient>
</defs>
</svg>
