<svg width="20" height="20" viewBox="0 0 20 20" fill="none" xmlns="http://www.w3.org/2000/svg">
<path d="M6.98589 7.25119C7.05787 6.82859 7.42409 6.51948 7.85277 6.51948H12.1474C12.5761 6.51948 12.9424 6.82862 13.0143 7.25124L14.2556 14.5406H5.74417L6.98589 7.25119Z" stroke="#DDE0ED" stroke-width="1.25625"/>
<path d="M4.62813 15.3066C4.62813 14.8251 5.01848 14.4348 5.5 14.4348H14.5C14.9815 14.4348 15.3719 14.8251 15.3719 15.3066V17.0729H4.62813V15.3066Z" stroke="#DDE0ED" stroke-width="1.25625"/>
<path fill-rule="evenodd" clip-rule="evenodd" d="M10.0004 1.37183C10.3473 1.37183 10.6285 1.65305 10.6285 1.99995V3.40695C10.6285 3.75386 10.3473 4.03508 10.0004 4.03508C9.65345 4.03508 9.37223 3.75386 9.37223 3.40695V1.99995C9.37223 1.65305 9.65345 1.37183 10.0004 1.37183ZM2.3575 6.89988C2.44728 6.5648 2.79171 6.36594 3.12679 6.45573L4.48585 6.81989C4.82093 6.90967 5.01978 7.2541 4.93 7.58918C4.84021 7.92426 4.49579 8.12312 4.16071 8.03333L2.80165 7.66917C2.46656 7.57939 2.26771 7.23496 2.3575 6.89988ZM17.1981 7.66917C17.5332 7.57939 17.732 7.23496 17.6422 6.89988C17.5524 6.5648 17.208 6.36594 16.8729 6.45573L15.5139 6.81989C15.1788 6.90967 14.9799 7.2541 15.0697 7.58918C15.1595 7.92426 15.5039 8.12312 15.839 8.03333L17.1981 7.66917ZM15.6017 2.86439C15.847 3.10969 15.847 3.5074 15.6017 3.7527L14.6068 4.7476C14.3615 4.99289 13.9638 4.99289 13.7185 4.7476C13.4732 4.5023 13.4732 4.10459 13.7185 3.85929L14.7134 2.86439C14.9587 2.6191 15.3564 2.6191 15.6017 2.86439ZM5.2863 2.86439C5.041 2.6191 4.64329 2.6191 4.398 2.86439C4.1527 3.10969 4.1527 3.5074 4.398 3.7527L5.3929 4.7476C5.63819 4.99289 6.0359 4.99289 6.2812 4.7476C6.5265 4.5023 6.5265 4.10459 6.2812 3.85929L5.2863 2.86439Z" fill="#DDE0ED"/>
</svg>
