<svg width="20" height="20" viewBox="0 0 20 20" fill="none" xmlns="http://www.w3.org/2000/svg">
<circle cx="10" cy="10" r="10" fill="url(#paint0_linear_2279_17394)"/>
<path fill-rule="evenodd" clip-rule="evenodd" d="M8.44734 3.20518L7.48471 2.77734L7.76188 3.79364C7.86436 4.16937 8.06127 4.93358 8.03939 5.77443C8.01761 6.61174 7.78145 7.47005 7.07182 8.10872C6.01258 9.06203 4.98328 10.4857 4.89542 12.022C4.85053 12.807 5.05394 13.6042 5.60007 14.3466C6.14001 15.0806 6.99633 15.7365 8.22106 16.2884C8.78768 16.5523 10.1867 16.8717 11.5642 16.183C12.3579 15.7861 12.9797 15.2815 13.4538 14.6192C13.9251 13.9609 14.2319 13.1729 14.4356 12.2355L14.4356 12.2355L14.4364 12.2314L14.4712 12.0648C14.4808 12.0185 14.4837 11.9723 14.4806 11.9274C15.9101 11.6896 17 10.4471 17 8.95003C17 7.283 15.6486 5.93161 13.9815 5.93161C13.1817 5.93161 12.4546 6.24269 11.9145 6.75046C11.4492 5.87895 10.3046 4.03062 8.44734 3.20518ZM11.2769 7.60844C11.225 7.56544 11.181 7.51119 11.1489 7.44703C10.8697 6.88863 10.1355 5.56786 8.96999 4.67674C9.01814 5.01653 9.04949 5.39934 9.03905 5.80044C9.01307 6.799 8.7255 7.96577 7.74079 8.85201C6.76657 9.7288 5.95981 10.9247 5.89379 12.0791C5.86175 12.6395 6.00195 13.2054 6.40559 13.754C6.64547 14.0801 6.98468 14.4083 7.45006 14.7258C7.42085 14.5888 7.406 14.4494 7.406 14.3099C7.406 13.2625 8.03447 12.634 8.66294 12.0055C9.29142 11.3771 9.29142 10.5391 8.87243 9.70114C9.36125 9.98047 10.3389 10.7905 10.3389 11.796C10.3389 12.8016 10.0595 13.472 9.91989 13.6815C10.269 13.6815 11.0092 13.472 11.1768 12.634C11.526 12.8435 12.1824 13.5139 12.0148 14.5194C12.0014 14.5998 11.9821 14.6794 11.9574 14.7577C12.2244 14.5431 12.4492 14.3046 12.6407 14.0371C13.0092 13.5224 13.2734 12.8739 13.4579 12.0252L13.4785 11.9267C12.0509 11.6872 10.9631 10.4456 10.9631 8.95003C10.9631 8.46811 11.0761 8.01257 11.2769 7.60844ZM16.2 8.95003C16.2 10.1752 15.2067 11.1684 13.9815 11.1684C12.7563 11.1684 11.7631 10.1752 11.7631 8.95003C11.7631 7.72483 12.7563 6.73161 13.9815 6.73161C15.2067 6.73161 16.2 7.72483 16.2 8.95003ZM13.6775 7.59039C13.6775 7.38189 13.8465 7.21286 14.055 7.21286C14.2635 7.21286 14.4325 7.38189 14.4325 7.59039V9.25149C14.4325 9.45999 14.2635 9.62901 14.055 9.62901C13.8465 9.62901 13.6775 9.45999 13.6775 9.25149V7.59039ZM13.6775 10.3056C13.6775 10.0969 13.8467 9.92771 14.0554 9.92771C14.2641 9.92771 14.4333 10.0969 14.4333 10.3056C14.4333 10.5143 14.2641 10.6835 14.0554 10.6835C13.8467 10.6835 13.6775 10.5143 13.6775 10.3056Z" fill="white"/>
<defs>
<linearGradient id="paint0_linear_2279_17394" x1="2.8125" y1="2.8125" x2="17.1875" y2="17.1875" gradientUnits="userSpaceOnUse">
<stop stop-color="#F9B690"/>
<stop offset="1" stop-color="#9C0401"/>
</linearGradient>
</defs>
</svg>
