<svg width="74" height="39" viewBox="0 0 74 39" fill="none" xmlns="http://www.w3.org/2000/svg">
<ellipse cx="37" cy="24" rx="37" ry="15" fill="#7A45FF" fill-opacity="0.2"/>
<path d="M73.5 24C73.5 25.8918 72.5564 27.7429 70.7464 29.4777C68.9351 31.2138 66.2877 32.8003 62.9751 34.1432C56.3526 36.828 47.1692 38.5 37 38.5C26.8308 38.5 17.6474 36.828 11.0249 34.1432C7.71235 32.8003 5.06492 31.2138 3.25362 29.4777C1.44365 27.7429 0.5 25.8918 0.5 24C0.5 22.1082 1.44365 20.2571 3.25362 18.5223C5.06492 16.7862 7.71235 15.1997 11.0249 13.8568C17.6474 11.172 26.8308 9.5 37 9.5C47.1692 9.5 56.3526 11.172 62.9751 13.8568C66.2877 15.1997 68.9351 16.7862 70.7464 18.5223C72.5564 20.2571 73.5 22.1082 73.5 24Z" stroke="#9C7BFF" stroke-opacity="0.3"/>
<g filter="url(#filter0_d_1951_13791)">
<ellipse cx="37" cy="24" rx="27" ry="10" fill="#7A45FF" fill-opacity="0.3" shape-rendering="crispEdges"/>
<path d="M63.5 24C63.5 25.1839 62.8539 26.3735 61.5488 27.5163C60.2447 28.6582 58.3288 29.7094 55.9182 30.6022C51.1009 32.3864 44.4124 33.5 37 33.5C29.5876 33.5 22.8991 32.3864 18.0818 30.6022C15.6712 29.7094 13.7553 28.6582 12.4512 27.5163C11.1461 26.3735 10.5 25.1839 10.5 24C10.5 22.8161 11.1461 21.6265 12.4512 20.4837C13.7553 19.3418 15.6712 18.2906 18.0818 17.3978C22.8991 15.6136 29.5876 14.5 37 14.5C44.4124 14.5 51.1009 15.6136 55.9182 17.3978C58.3288 18.2906 60.2447 19.3418 61.5488 20.4837C62.8539 21.6265 63.5 22.8161 63.5 24Z" stroke="#9C7BFF" stroke-opacity="0.45" shape-rendering="crispEdges"/>
</g>
<g filter="url(#filter1_d_1951_13791)">
<ellipse cx="37" cy="24" rx="17" ry="6" fill="#7A45FF" fill-opacity="0.6" shape-rendering="crispEdges"/>
<path d="M53.5 24C53.5 24.6217 53.1443 25.2835 52.3437 25.9516C51.546 26.6172 50.3617 27.2392 48.8544 27.7711C45.8443 28.8335 41.6532 29.5 37 29.5C32.3468 29.5 28.1557 28.8335 25.1456 27.7711C23.6383 27.2392 22.454 26.6172 21.6563 25.9516C20.8557 25.2835 20.5 24.6217 20.5 24C20.5 23.3783 20.8557 22.7165 21.6563 22.0484C22.454 21.3828 23.6383 20.7608 25.1456 20.2289C28.1557 19.1665 32.3468 18.5 37 18.5C41.6532 18.5 45.8443 19.1665 48.8544 20.2289C50.3617 20.7608 51.546 21.3828 52.3437 22.0484C53.1443 22.7165 53.5 23.3783 53.5 24Z" stroke="#9C7BFF" stroke-opacity="0.4" shape-rendering="crispEdges"/>
</g>
<g filter="url(#filter2_d_1951_13791)">
<ellipse cx="37" cy="24" rx="7" ry="2" fill="#7F5CE7"/>
<path d="M43.5 24C43.5 24.0224 43.4801 24.1547 43.17 24.3642C42.8774 24.5618 42.4211 24.7595 41.8124 24.9335C40.6017 25.2794 38.9001 25.5 37 25.5C35.0999 25.5 33.3983 25.2794 32.1876 24.9335C31.5789 24.7595 31.1226 24.5618 30.83 24.3642C30.5199 24.1547 30.5 24.0224 30.5 24C30.5 23.9776 30.5199 23.8453 30.83 23.6358C31.1226 23.4382 31.5789 23.2405 32.1876 23.0665C33.3983 22.7206 35.0999 22.5 37 22.5C38.9001 22.5 40.6017 22.7206 41.8124 23.0665C42.4211 23.2405 42.8774 23.4382 43.17 23.6358C43.4801 23.8453 43.5 23.9776 43.5 24Z" stroke="#9C7BFF" stroke-opacity="0.5"/>
</g>
<rect width="2" height="24" transform="matrix(-1 0 0 1 38 0)" fill="#9C7BFF"/>
<defs>
<filter id="filter0_d_1951_13791" x="6" y="10" width="62" height="28" filterUnits="userSpaceOnUse" color-interpolation-filters="sRGB">
<feFlood flood-opacity="0" result="BackgroundImageFix"/>
<feColorMatrix in="SourceAlpha" type="matrix" values="0 0 0 0 0 0 0 0 0 0 0 0 0 0 0 0 0 0 127 0" result="hardAlpha"/>
<feOffset/>
<feGaussianBlur stdDeviation="2"/>
<feComposite in2="hardAlpha" operator="out"/>
<feColorMatrix type="matrix" values="0 0 0 0 0 0 0 0 0 0 0 0 0 0 0 0 0 0 0.28 0"/>
<feBlend mode="normal" in2="BackgroundImageFix" result="effect1_dropShadow_1951_13791"/>
<feBlend mode="normal" in="SourceGraphic" in2="effect1_dropShadow_1951_13791" result="shape"/>
</filter>
<filter id="filter1_d_1951_13791" x="16" y="14" width="42" height="20" filterUnits="userSpaceOnUse" color-interpolation-filters="sRGB">
<feFlood flood-opacity="0" result="BackgroundImageFix"/>
<feColorMatrix in="SourceAlpha" type="matrix" values="0 0 0 0 0 0 0 0 0 0 0 0 0 0 0 0 0 0 127 0" result="hardAlpha"/>
<feOffset/>
<feGaussianBlur stdDeviation="2"/>
<feComposite in2="hardAlpha" operator="out"/>
<feColorMatrix type="matrix" values="0 0 0 0 0 0 0 0 0 0 0 0 0 0 0 0 0 0 0.66 0"/>
<feBlend mode="normal" in2="BackgroundImageFix" result="effect1_dropShadow_1951_13791"/>
<feBlend mode="normal" in="SourceGraphic" in2="effect1_dropShadow_1951_13791" result="shape"/>
</filter>
<filter id="filter2_d_1951_13791" x="26" y="18" width="22" height="12" filterUnits="userSpaceOnUse" color-interpolation-filters="sRGB">
<feFlood flood-opacity="0" result="BackgroundImageFix"/>
<feColorMatrix in="SourceAlpha" type="matrix" values="0 0 0 0 0 0 0 0 0 0 0 0 0 0 0 0 0 0 127 0" result="hardAlpha"/>
<feOffset/>
<feGaussianBlur stdDeviation="2"/>
<feComposite in2="hardAlpha" operator="out"/>
<feColorMatrix type="matrix" values="0 0 0 0 0 0 0 0 0 0 0 0 0 0 0 0 0 0 0.66 0"/>
<feBlend mode="normal" in2="BackgroundImageFix" result="effect1_dropShadow_1951_13791"/>
<feBlend mode="normal" in="SourceGraphic" in2="effect1_dropShadow_1951_13791" result="shape"/>
</filter>
</defs>
</svg>
