<svg width="74" height="39" viewBox="0 0 74 39" fill="none" xmlns="http://www.w3.org/2000/svg">
<g filter="url(#filter0_d_1951_13785)">
<ellipse cx="37" cy="24" rx="17" ry="6" fill="#F2F5FF" fill-opacity="0.3" shape-rendering="crispEdges"/>
<path d="M53.5 24C53.5 24.6217 53.1443 25.2835 52.3437 25.9516C51.546 26.6172 50.3617 27.2392 48.8544 27.7711C45.8443 28.8335 41.6532 29.5 37 29.5C32.3468 29.5 28.1557 28.8335 25.1456 27.7711C23.6383 27.2392 22.454 26.6172 21.6563 25.9516C20.8557 25.2835 20.5 24.6217 20.5 24C20.5 23.3783 20.8557 22.7165 21.6563 22.0484C22.454 21.3828 23.6383 20.7608 25.1456 20.2289C28.1557 19.1665 32.3468 18.5 37 18.5C41.6532 18.5 45.8443 19.1665 48.8544 20.2289C50.3617 20.7608 51.546 21.3828 52.3437 22.0484C53.1443 22.7165 53.5 23.3783 53.5 24Z" stroke="#F2F5FF" stroke-opacity="0.15" shape-rendering="crispEdges"/>
</g>
<g filter="url(#filter1_d_1951_13785)">
<ellipse cx="37" cy="24" rx="7" ry="2" fill="#F2F5FF" fill-opacity="0.7" shape-rendering="crispEdges"/>
<path d="M43.5 24C43.5 24.0224 43.4801 24.1547 43.17 24.3642C42.8774 24.5618 42.4211 24.7595 41.8124 24.9335C40.6017 25.2794 38.9001 25.5 37 25.5C35.0999 25.5 33.3983 25.2794 32.1876 24.9335C31.5789 24.7595 31.1226 24.5618 30.83 24.3642C30.5199 24.1547 30.5 24.0224 30.5 24C30.5 23.9776 30.5199 23.8453 30.83 23.6358C31.1226 23.4382 31.5789 23.2405 32.1876 23.0665C33.3983 22.7206 35.0999 22.5 37 22.5C38.9001 22.5 40.6017 22.7206 41.8124 23.0665C42.4211 23.2405 42.8774 23.4382 43.17 23.6358C43.4801 23.8453 43.5 23.9776 43.5 24Z" stroke="#F2F5FF" stroke-opacity="0.35" shape-rendering="crispEdges"/>
</g>
<rect width="2" height="24" transform="matrix(-1 0 0 1 38 0)" fill="#F2F5FF"/>
<defs>
<filter id="filter0_d_1951_13785" x="17" y="15" width="40" height="18" filterUnits="userSpaceOnUse" color-interpolation-filters="sRGB">
<feFlood flood-opacity="0" result="BackgroundImageFix"/>
<feColorMatrix in="SourceAlpha" type="matrix" values="0 0 0 0 0 0 0 0 0 0 0 0 0 0 0 0 0 0 127 0" result="hardAlpha"/>
<feOffset/>
<feGaussianBlur stdDeviation="1.5"/>
<feComposite in2="hardAlpha" operator="out"/>
<feColorMatrix type="matrix" values="0 0 0 0 0 0 0 0 0 0 0 0 0 0 0 0 0 0 0.33 0"/>
<feBlend mode="normal" in2="BackgroundImageFix" result="effect1_dropShadow_1951_13785"/>
<feBlend mode="normal" in="SourceGraphic" in2="effect1_dropShadow_1951_13785" result="shape"/>
</filter>
<filter id="filter1_d_1951_13785" x="27" y="19" width="20" height="10" filterUnits="userSpaceOnUse" color-interpolation-filters="sRGB">
<feFlood flood-opacity="0" result="BackgroundImageFix"/>
<feColorMatrix in="SourceAlpha" type="matrix" values="0 0 0 0 0 0 0 0 0 0 0 0 0 0 0 0 0 0 127 0" result="hardAlpha"/>
<feOffset/>
<feGaussianBlur stdDeviation="1.5"/>
<feComposite in2="hardAlpha" operator="out"/>
<feColorMatrix type="matrix" values="0 0 0 0 0 0 0 0 0 0 0 0 0 0 0 0 0 0 0.33 0"/>
<feBlend mode="normal" in2="BackgroundImageFix" result="effect1_dropShadow_1951_13785"/>
<feBlend mode="normal" in="SourceGraphic" in2="effect1_dropShadow_1951_13785" result="shape"/>
</filter>
</defs>
</svg>
