<svg width="96" height="96" viewBox="0 0 96 96" fill="none" xmlns="http://www.w3.org/2000/svg">
<g filter="url(#filter0_d_864_10094)">
<path fill-rule="evenodd" clip-rule="evenodd" d="M54.0049 17.0647C51.3875 12.3534 44.612 12.3534 41.9947 17.0647L11.6246 71.7308C9.08084 76.3096 12.3917 81.9365 17.6297 81.9365H78.3699C83.6078 81.9365 86.9187 76.3096 84.3749 71.7308L54.0049 17.0647ZM43.9725 35.6962C43.8761 33.3963 45.7146 31.4791 48.0165 31.4791C50.3061 31.4791 52.1399 33.3766 52.0617 35.6648L51.305 57.8156C51.246 59.5418 49.8296 60.9106 48.1025 60.9106C46.385 60.9106 44.9729 59.5565 44.9009 57.8404L43.9725 35.6962ZM43.7955 69.3217C43.7955 66.9996 45.678 65.1172 48 65.1172C50.3221 65.1172 52.2046 66.9996 52.2046 69.3217C52.2046 71.6438 50.3221 73.5262 48 73.5262C45.678 73.5262 43.7955 71.6438 43.7955 69.3217Z" fill="url(#paint0_linear_864_10094)" shape-rendering="crispEdges"/>
</g>
<defs>
<filter id="filter0_d_864_10094" x="6.75024" y="10.5312" width="82.499" height="76.4062" filterUnits="userSpaceOnUse" color-interpolation-filters="sRGB">
<feFlood flood-opacity="0" result="BackgroundImageFix"/>
<feColorMatrix in="SourceAlpha" type="matrix" values="0 0 0 0 0 0 0 0 0 0 0 0 0 0 0 0 0 0 127 0" result="hardAlpha"/>
<feOffset dy="1"/>
<feGaussianBlur stdDeviation="2"/>
<feComposite in2="hardAlpha" operator="out"/>
<feColorMatrix type="matrix" values="0 0 0 0 0 0 0 0 0 0 0 0 0 0 0 0 0 0 0.15 0"/>
<feBlend mode="normal" in2="BackgroundImageFix" result="effect1_dropShadow_864_10094"/>
<feBlend mode="normal" in="SourceGraphic" in2="effect1_dropShadow_864_10094" result="shape"/>
</filter>
<linearGradient id="paint0_linear_864_10094" x1="46.9407" y1="48.0796" x2="90.0637" y2="91.1604" gradientUnits="userSpaceOnUse">
<stop offset="0.0154161" stop-color="white"/>
<stop offset="1" stop-color="white" stop-opacity="0.5"/>
</linearGradient>
</defs>
</svg>
