드<svg width="150" height="150" viewBox="0 0 150 150" fill="none" xmlns="http://www.w3.org/2000/svg">
<g filter="url(#filter0_d_908_22215)">
<path fill-rule="evenodd" clip-rule="evenodd" d="M95.7808 107.281C95.7808 108.23 96.5504 109 97.4999 109C98.4493 109 99.219 108.23 99.219 107.281V96.1502L104.19 101.121C104.861 101.792 105.949 101.792 106.621 101.121C107.292 100.45 107.292 99.361 106.621 98.6897L101.651 93.7195H112.781C113.73 93.7195 114.5 92.9498 114.5 92.0004C114.5 91.0509 113.73 90.2812 112.781 90.2812H101.649L106.621 85.3099C107.292 84.6385 107.292 83.55 106.621 82.8787C105.95 82.2073 104.861 82.2073 104.19 82.8787L99.219 87.8494V76.7191C99.219 75.7697 98.4493 75 97.4999 75C96.5504 75 95.7808 75.7697 95.7808 76.7191V87.8496L90.8108 82.8797C90.1395 82.2083 89.051 82.2083 88.3796 82.8797C87.7083 83.551 87.7083 84.6395 88.3796 85.3108L93.35 90.2812H82.2191C81.2697 90.2812 80.5 91.0509 80.5 92.0004C80.5 92.9498 81.2697 93.7195 82.2191 93.7195H93.3489L88.3797 98.6887C87.7083 99.3601 87.7083 100.449 88.3797 101.12C89.051 101.791 90.1395 101.791 90.8108 101.12L95.7808 96.15V107.281Z" fill="url(#paint0_linear_908_22215)"/>
<path opacity="0.75" fill-rule="evenodd" clip-rule="evenodd" d="M108.893 113.893C108.893 114.228 109.165 114.5 109.5 114.5C109.835 114.5 110.107 114.228 110.107 113.893V109.964L111.861 111.719C112.098 111.956 112.482 111.956 112.719 111.719C112.956 111.482 112.956 111.098 112.719 110.861L110.964 109.106H114.893C115.228 109.106 115.5 108.834 115.5 108.499C115.5 108.164 115.228 107.893 114.893 107.893H110.965L112.719 106.138C112.956 105.901 112.956 105.517 112.719 105.28C112.482 105.043 112.098 105.043 111.861 105.28L110.107 107.035V103.107C110.107 102.772 109.835 102.5 109.5 102.5C109.165 102.5 108.893 102.772 108.893 103.107V107.035L107.139 105.281C106.902 105.044 106.518 105.044 106.281 105.281C106.044 105.518 106.044 105.902 106.281 106.139L108.035 107.893H104.107C103.772 107.893 103.5 108.164 103.5 108.499C103.5 108.834 103.772 109.106 104.107 109.106H108.035L106.281 110.86C106.044 111.097 106.044 111.481 106.281 111.718C106.518 111.955 106.902 111.955 107.139 111.718L108.893 109.964V113.893Z" fill="url(#paint1_linear_908_22215)"/>
<path opacity="0.5" fill-rule="evenodd" clip-rule="evenodd" d="M89.3853 119.207C89.3853 119.448 89.5809 119.644 89.8223 119.644C90.0637 119.644 90.2594 119.448 90.2594 119.207V116.376L91.523 117.64C91.6936 117.81 91.9704 117.81 92.141 117.64C92.3117 117.469 92.3117 117.192 92.141 117.021L90.878 115.758H93.707C93.9484 115.758 94.1441 115.563 94.1441 115.321C94.1441 115.08 93.9484 114.884 93.707 114.884H90.8778L92.141 113.621C92.3117 113.45 92.3117 113.174 92.141 113.003C91.9703 112.832 91.6936 112.832 91.5229 113.003L90.2594 114.267V111.437C90.2594 111.196 90.0637 111 89.8223 111C89.5809 111 89.3853 111.196 89.3853 111.437L89.3853 114.266L88.1215 113.002C87.9509 112.831 87.6741 112.831 87.5035 113.002C87.3328 113.173 87.3328 113.449 87.5035 113.62L88.7677 114.884H85.9371C85.6957 114.884 85.5 115.08 85.5 115.321C85.5 115.563 85.6957 115.758 85.9371 115.758H88.7675L87.5034 117.023C87.3327 117.193 87.3327 117.47 87.5034 117.641C87.6741 117.811 87.9508 117.811 88.1215 117.641L89.3853 116.377L89.3853 119.207Z" fill="url(#paint2_linear_908_22215)"/>
</g>
<g filter="url(#filter1_d_908_22215)">
<g filter="url(#filter2_i_908_22215)">
<rect x="52.7476" y="83.7656" width="4.26804" height="24.1856" rx="2.13402" fill="url(#paint3_linear_908_22215)"/>
</g>
<g filter="url(#filter3_i_908_22215)">
<path fill-rule="evenodd" clip-rule="evenodd" d="M45.6248 81.2773C44.4513 81.2773 43.5 82.2286 43.5 83.4021V99.1255C43.5 100.299 44.4513 101.25 45.6248 101.25C46.7983 101.25 47.7496 100.299 47.7496 99.1255V83.4021C47.7496 82.2286 46.7983 81.2773 45.6248 81.2773ZM45.6248 104.438C44.4513 104.438 43.5 105.389 43.5 106.562V109.112C43.5 110.286 44.4513 111.237 45.6248 111.237C46.7983 111.237 47.7496 110.286 47.7496 109.112V106.562C47.7496 105.389 46.7983 104.438 45.6248 104.438Z" fill="url(#paint4_linear_908_22215)"/>
</g>
<g filter="url(#filter4_i_908_22215)">
<path fill-rule="evenodd" clip-rule="evenodd" d="M64.7478 81.2773C63.5743 81.2773 62.623 82.2286 62.623 83.4021V95.3009C62.623 96.4744 63.5743 97.4257 64.7478 97.4257C65.9213 97.4257 66.8726 96.4744 66.8726 95.3009V83.4021C66.8726 82.2286 65.9213 81.2773 64.7478 81.2773ZM64.7479 100.613C63.5744 100.613 62.6231 101.565 62.6231 102.738V109.537C62.6231 110.711 63.5744 111.662 64.7479 111.662C65.9214 111.662 66.8727 110.711 66.8727 109.537V102.738C66.8727 101.565 65.9214 100.613 64.7479 100.613Z" fill="url(#paint5_linear_908_22215)"/>
</g>
<g filter="url(#filter5_i_908_22215)">
<path fill-rule="evenodd" clip-rule="evenodd" d="M74.0965 82.5508C72.923 82.5508 71.9717 83.5021 71.9717 84.6756V99.549C71.9717 100.723 72.923 101.674 74.0965 101.674C75.2699 101.674 76.2212 100.723 76.2212 99.549V84.6756C76.2212 83.5021 75.2699 82.5508 74.0965 82.5508ZM74.0965 104.012C72.923 104.012 71.9717 104.963 71.9717 106.137V111.873C71.9717 113.047 72.923 113.998 74.0965 113.998C75.2699 113.998 76.2212 113.047 76.2212 111.873V106.137C76.2212 104.963 75.2699 104.012 74.0965 104.012Z" fill="url(#paint6_linear_908_22215)"/>
</g>
</g>
<g filter="url(#filter6_ddii_908_22215)">
<path fill-rule="evenodd" clip-rule="evenodd" d="M21.5 56.5C21.5 75.83 37.17 91.5 56.5 91.5H105C117.979 91.5 128.5 80.9787 128.5 68C128.5 55.0213 117.979 44.5 105 44.5C99.6464 44.5 94.711 46.2902 90.7596 49.3046C87.4416 33.4263 73.3636 21.5 56.5 21.5C37.17 21.5 21.5 37.17 21.5 56.5Z" fill="url(#paint7_linear_908_22215)"/>
</g>
<g opacity="0.66" filter="url(#filter7_if_908_22215)">
<path fill-rule="evenodd" clip-rule="evenodd" d="M56.844 91.6706H56.8442V91.6714H57.0156V86.1223C57.0156 84.9437 56.0602 83.9883 54.8816 83.9883C53.703 83.9883 52.7476 84.9437 52.7476 86.1223V91.451C54.0902 91.5959 55.4573 91.6706 56.844 91.6706ZM47.7496 90.5645V83.1248C47.7496 81.9513 46.7983 81 45.6248 81C44.4513 81 43.5 81.9513 43.5 83.1248V89.2244C44.8716 89.7521 46.2905 90.2009 47.7496 90.5645ZM66.8726 91.6714H62.623V83.1248C62.623 81.9513 63.5743 81 64.7478 81C65.9213 81 66.8726 81.9513 66.8726 83.1248V91.6714ZM76.2212 91.6714H71.9717V84.6521C71.9717 83.4786 72.923 82.5273 74.0965 82.5273C75.2699 82.5273 76.2212 83.4786 76.2212 84.6521V91.6714Z" fill="url(#paint8_linear_908_22215)"/>
</g>
<g opacity="0.66" filter="url(#filter8_if_908_22215)">
<path fill-rule="evenodd" clip-rule="evenodd" d="M80.7942 91.0384C82.4475 91.4766 84.1841 91.7101 85.9752 91.7101V91.7106H113.924V91.7097C114.108 91.7097 114.291 91.7061 114.474 91.6988C114.331 90.8932 113.628 90.2812 112.781 90.2812H101.65L106.621 85.3099C107.292 84.6385 107.292 83.55 106.621 82.8787C105.95 82.2073 104.861 82.2073 104.19 82.8787L99.219 87.8494V76.7191C99.219 75.7697 98.4494 75 97.4999 75C96.5505 75 95.7808 75.7697 95.7808 76.7191V87.8496L90.8109 82.8797C90.1395 82.2083 89.0511 82.2083 88.3797 82.8797C87.7084 83.551 87.7084 84.6395 88.3797 85.3108L93.3501 90.2812H82.2192C81.6261 90.2812 81.1032 90.5816 80.7942 91.0384Z" fill="url(#paint9_linear_908_22215)"/>
</g>
<defs>
<filter id="filter0_d_908_22215" x="74.5" y="72" width="47" height="56.6445" filterUnits="userSpaceOnUse" color-interpolation-filters="sRGB">
<feFlood flood-opacity="0" result="BackgroundImageFix"/>
<feColorMatrix in="SourceAlpha" type="matrix" values="0 0 0 0 0 0 0 0 0 0 0 0 0 0 0 0 0 0 127 0" result="hardAlpha"/>
<feOffset dy="3"/>
<feGaussianBlur stdDeviation="3"/>
<feComposite in2="hardAlpha" operator="out"/>
<feColorMatrix type="matrix" values="0 0 0 0 0 0 0 0 0 0 0 0 0 0 0 0 0 0 0.12 0"/>
<feBlend mode="normal" in2="BackgroundImageFix" result="effect1_dropShadow_908_22215"/>
<feBlend mode="normal" in="SourceGraphic" in2="effect1_dropShadow_908_22215" result="shape"/>
</filter>
<filter id="filter1_d_908_22215" x="37.5" y="78.2773" width="44.7212" height="44.7227" filterUnits="userSpaceOnUse" color-interpolation-filters="sRGB">
<feFlood flood-opacity="0" result="BackgroundImageFix"/>
<feColorMatrix in="SourceAlpha" type="matrix" values="0 0 0 0 0 0 0 0 0 0 0 0 0 0 0 0 0 0 127 0" result="hardAlpha"/>
<feOffset dy="3"/>
<feGaussianBlur stdDeviation="3"/>
<feComposite in2="hardAlpha" operator="out"/>
<feColorMatrix type="matrix" values="0 0 0 0 0 0 0 0 0 0 0 0 0 0 0 0 0 0 0.12 0"/>
<feBlend mode="normal" in2="BackgroundImageFix" result="effect1_dropShadow_908_22215"/>
<feBlend mode="normal" in="SourceGraphic" in2="effect1_dropShadow_908_22215" result="shape"/>
</filter>
<filter id="filter2_i_908_22215" x="52.7476" y="83.7656" width="4.26807" height="24.1875" filterUnits="userSpaceOnUse" color-interpolation-filters="sRGB">
<feFlood flood-opacity="0" result="BackgroundImageFix"/>
<feBlend mode="normal" in="SourceGraphic" in2="BackgroundImageFix" result="shape"/>
<feColorMatrix in="SourceAlpha" type="matrix" values="0 0 0 0 0 0 0 0 0 0 0 0 0 0 0 0 0 0 127 0" result="hardAlpha"/>
<feOffset/>
<feGaussianBlur stdDeviation="0.75"/>
<feComposite in2="hardAlpha" operator="arithmetic" k2="-1" k3="1"/>
<feColorMatrix type="matrix" values="0 0 0 0 1 0 0 0 0 1 0 0 0 0 1 0 0 0 0.33 0"/>
<feBlend mode="normal" in2="shape" result="effect1_innerShadow_908_22215"/>
</filter>
<filter id="filter3_i_908_22215" x="43.5" y="81.2773" width="4.24951" height="29.9609" filterUnits="userSpaceOnUse" color-interpolation-filters="sRGB">
<feFlood flood-opacity="0" result="BackgroundImageFix"/>
<feBlend mode="normal" in="SourceGraphic" in2="BackgroundImageFix" result="shape"/>
<feColorMatrix in="SourceAlpha" type="matrix" values="0 0 0 0 0 0 0 0 0 0 0 0 0 0 0 0 0 0 127 0" result="hardAlpha"/>
<feOffset/>
<feGaussianBlur stdDeviation="0.75"/>
<feComposite in2="hardAlpha" operator="arithmetic" k2="-1" k3="1"/>
<feColorMatrix type="matrix" values="0 0 0 0 1 0 0 0 0 1 0 0 0 0 1 0 0 0 0.33 0"/>
<feBlend mode="normal" in2="shape" result="effect1_innerShadow_908_22215"/>
</filter>
<filter id="filter4_i_908_22215" x="62.623" y="81.2773" width="4.24951" height="30.3867" filterUnits="userSpaceOnUse" color-interpolation-filters="sRGB">
<feFlood flood-opacity="0" result="BackgroundImageFix"/>
<feBlend mode="normal" in="SourceGraphic" in2="BackgroundImageFix" result="shape"/>
<feColorMatrix in="SourceAlpha" type="matrix" values="0 0 0 0 0 0 0 0 0 0 0 0 0 0 0 0 0 0 127 0" result="hardAlpha"/>
<feOffset/>
<feGaussianBlur stdDeviation="0.75"/>
<feComposite in2="hardAlpha" operator="arithmetic" k2="-1" k3="1"/>
<feColorMatrix type="matrix" values="0 0 0 0 1 0 0 0 0 1 0 0 0 0 1 0 0 0 0.33 0"/>
<feBlend mode="normal" in2="shape" result="effect1_innerShadow_908_22215"/>
</filter>
<filter id="filter5_i_908_22215" x="71.9717" y="82.5508" width="4.24951" height="31.4492" filterUnits="userSpaceOnUse" color-interpolation-filters="sRGB">
<feFlood flood-opacity="0" result="BackgroundImageFix"/>
<feBlend mode="normal" in="SourceGraphic" in2="BackgroundImageFix" result="shape"/>
<feColorMatrix in="SourceAlpha" type="matrix" values="0 0 0 0 0 0 0 0 0 0 0 0 0 0 0 0 0 0 127 0" result="hardAlpha"/>
<feOffset/>
<feGaussianBlur stdDeviation="0.75"/>
<feComposite in2="hardAlpha" operator="arithmetic" k2="-1" k3="1"/>
<feColorMatrix type="matrix" values="0 0 0 0 1 0 0 0 0 1 0 0 0 0 1 0 0 0 0.33 0"/>
<feBlend mode="normal" in2="shape" result="effect1_innerShadow_908_22215"/>
</filter>
<filter id="filter6_ddii_908_22215" x="5.5" y="17.5" width="139" height="102" filterUnits="userSpaceOnUse" color-interpolation-filters="sRGB">
<feFlood flood-opacity="0" result="BackgroundImageFix"/>
<feColorMatrix in="SourceAlpha" type="matrix" values="0 0 0 0 0 0 0 0 0 0 0 0 0 0 0 0 0 0 127 0" result="hardAlpha"/>
<feOffset dy="12"/>
<feGaussianBlur stdDeviation="8"/>
<feComposite in2="hardAlpha" operator="out"/>
<feColorMatrix type="matrix" values="0 0 0 0 0.0009 0 0 0 0 0.046935 0 0 0 0 0.09 0 0 0 0.16 0"/>
<feBlend mode="normal" in2="BackgroundImageFix" result="effect1_dropShadow_908_22215"/>
<feColorMatrix in="SourceAlpha" type="matrix" values="0 0 0 0 0 0 0 0 0 0 0 0 0 0 0 0 0 0 127 0" result="hardAlpha"/>
<feOffset dy="2.5"/>
<feGaussianBlur stdDeviation="2.5"/>
<feComposite in2="hardAlpha" operator="out"/>
<feColorMatrix type="matrix" values="0 0 0 0 0.00114583 0 0 0 0 0.0482167 0 0 0 0 0.0916667 0 0 0 0.15 0"/>
<feBlend mode="normal" in2="effect1_dropShadow_908_22215" result="effect2_dropShadow_908_22215"/>
<feBlend mode="normal" in="SourceGraphic" in2="effect2_dropShadow_908_22215" result="shape"/>
<feColorMatrix in="SourceAlpha" type="matrix" values="0 0 0 0 0 0 0 0 0 0 0 0 0 0 0 0 0 0 127 0" result="hardAlpha"/>
<feOffset dx="-1.5" dy="1.5"/>
<feGaussianBlur stdDeviation="2.25"/>
<feComposite in2="hardAlpha" operator="arithmetic" k2="-1" k3="1"/>
<feColorMatrix type="matrix" values="0 0 0 0 1 0 0 0 0 1 0 0 0 0 1 0 0 0 0.66 0"/>
<feBlend mode="normal" in2="shape" result="effect3_innerShadow_908_22215"/>
<feColorMatrix in="SourceAlpha" type="matrix" values="0 0 0 0 0 0 0 0 0 0 0 0 0 0 0 0 0 0 127 0" result="hardAlpha"/>
<feOffset dy="-1"/>
<feGaussianBlur stdDeviation="0.5"/>
<feComposite in2="hardAlpha" operator="arithmetic" k2="-1" k3="1"/>
<feColorMatrix type="matrix" values="0 0 0 0 1 0 0 0 0 1 0 0 0 0 1 0 0 0 0.2 0"/>
<feBlend mode="normal" in2="effect3_innerShadow_908_22215" result="effect4_innerShadow_908_22215"/>
</filter>
<filter id="filter7_if_908_22215" x="37.5" y="75" width="44.7212" height="22.6719" filterUnits="userSpaceOnUse" color-interpolation-filters="sRGB">
<feFlood flood-opacity="0" result="BackgroundImageFix"/>
<feBlend mode="normal" in="SourceGraphic" in2="BackgroundImageFix" result="shape"/>
<feColorMatrix in="SourceAlpha" type="matrix" values="0 0 0 0 0 0 0 0 0 0 0 0 0 0 0 0 0 0 127 0" result="hardAlpha"/>
<feOffset dy="2"/>
<feGaussianBlur stdDeviation="1"/>
<feComposite in2="hardAlpha" operator="arithmetic" k2="-1" k3="1"/>
<feColorMatrix type="matrix" values="0 0 0 0 1 0 0 0 0 1 0 0 0 0 1 0 0 0 0.25 0"/>
<feBlend mode="normal" in2="shape" result="effect1_innerShadow_908_22215"/>
<feGaussianBlur stdDeviation="3" result="effect2_foregroundBlur_908_22215"/>
</filter>
<filter id="filter8_if_908_22215" x="74.7942" y="69" width="45.6794" height="28.7109" filterUnits="userSpaceOnUse" color-interpolation-filters="sRGB">
<feFlood flood-opacity="0" result="BackgroundImageFix"/>
<feBlend mode="normal" in="SourceGraphic" in2="BackgroundImageFix" result="shape"/>
<feColorMatrix in="SourceAlpha" type="matrix" values="0 0 0 0 0 0 0 0 0 0 0 0 0 0 0 0 0 0 127 0" result="hardAlpha"/>
<feOffset dy="1"/>
<feGaussianBlur stdDeviation="0.5"/>
<feComposite in2="hardAlpha" operator="arithmetic" k2="-1" k3="1"/>
<feColorMatrix type="matrix" values="0 0 0 0 1 0 0 0 0 1 0 0 0 0 1 0 0 0 0.2 0"/>
<feBlend mode="normal" in2="shape" result="effect1_innerShadow_908_22215"/>
<feGaussianBlur stdDeviation="3" result="effect2_foregroundBlur_908_22215"/>
</filter>
<linearGradient id="paint0_linear_908_22215" x1="97.5" y1="75" x2="97.5" y2="109" gradientUnits="userSpaceOnUse">
<stop offset="0.4375" stop-color="#4A6FF2"/>
<stop offset="0.71875" stop-color="#52B4FF"/>
<stop offset="0.955262" stop-color="#76EDFF"/>
</linearGradient>
<linearGradient id="paint1_linear_908_22215" x1="108.893" y1="102.5" x2="108.893" y2="114.297" gradientUnits="userSpaceOnUse">
<stop stop-color="#4A6FF2"/>
<stop offset="0.515625" stop-color="#32A3FF"/>
<stop offset="1" stop-color="#76EDFF"/>
</linearGradient>
<linearGradient id="paint2_linear_908_22215" x1="89.385" y1="111" x2="89.385" y2="119.498" gradientUnits="userSpaceOnUse">
<stop stop-color="#4A6FF2"/>
<stop offset="0.515625" stop-color="#32A3FF"/>
<stop offset="1" stop-color="#76EDFF"/>
</linearGradient>
<linearGradient id="paint3_linear_908_22215" x1="54.8816" y1="83.7656" x2="54.8816" y2="107.951" gradientUnits="userSpaceOnUse">
<stop offset="0.229167" stop-color="#3D70FF"/>
<stop offset="0.984375" stop-color="#76EDFF"/>
</linearGradient>
<linearGradient id="paint4_linear_908_22215" x1="45.6248" y1="81.2773" x2="45.6248" y2="111.237" gradientUnits="userSpaceOnUse">
<stop offset="0.229167" stop-color="#3D70FF"/>
<stop offset="0.984375" stop-color="#76EDFF"/>
</linearGradient>
<linearGradient id="paint5_linear_908_22215" x1="64.7479" y1="81.2773" x2="64.7479" y2="111.662" gradientUnits="userSpaceOnUse">
<stop offset="0.229167" stop-color="#3D70FF"/>
<stop offset="0.984375" stop-color="#76EDFF"/>
</linearGradient>
<linearGradient id="paint6_linear_908_22215" x1="74.0965" y1="82.5508" x2="74.0965" y2="113.998" gradientUnits="userSpaceOnUse">
<stop offset="0.229167" stop-color="#3D70FF"/>
<stop offset="0.984375" stop-color="#76EDFF"/>
</linearGradient>
<linearGradient id="paint7_linear_908_22215" x1="100.25" y1="21.5" x2="54.3257" y2="91.6832" gradientUnits="userSpaceOnUse">
<stop offset="0.16364" stop-color="#FAFAFA"/>
<stop offset="0.792483" stop-color="#DDE9F8"/>
</linearGradient>
<linearGradient id="paint8_linear_908_22215" x1="46.5764" y1="81" x2="46.5765" y2="91.8273" gradientUnits="userSpaceOnUse">
<stop stop-color="#85B0F1"/>
<stop offset="1" stop-color="#3373D3"/>
</linearGradient>
<linearGradient id="paint9_linear_908_22215" x1="97.634" y1="75" x2="97.634" y2="91.7106" gradientUnits="userSpaceOnUse">
<stop offset="0.135417" stop-color="#76B6FF"/>
<stop offset="1" stop-color="#2C4BB8"/>
</linearGradient>
</defs>
</svg>
