<svg width="153" height="44" viewBox="0 0 153 44" fill="none" xmlns="http://www.w3.org/2000/svg">
<g clip-path="url(#clip0_864_10072)">
<path d="M39.5363 18.6133H35.1973V24.414H39.5363V18.6133Z" fill="#4FC2F1"/>
<path d="M47.4542 24.4167H41.4896V33.6913H39.5364V24.4167H35.1973V33.6913H33.2441V24.4167H0.380127L1.02902 25.6621C1.62547 26.7435 2.1105 26.8025 2.1105 26.8025C4.01129 27.0188 5.4205 29.8962 5.4205 29.8962C6.77727 33.1472 7.75388 32.4983 7.75388 32.4983C9.87097 32.8785 10.4674 34.1763 10.4674 34.1763C10.9 34.8842 11.3326 35.4216 11.6603 35.8542C13.2858 34.8252 17.4086 32.4918 20.4433 32.7081C20.4433 32.7081 22.8291 32.5442 25.4312 34.7137C25.4312 34.7137 26.4078 35.5265 28.0333 35.4741C28.0333 35.4741 30.2029 35.4216 30.3667 32.9244C30.3667 32.9244 29.6064 34.3336 27.6532 33.3045C27.6532 33.3045 26.0277 32.4918 26.788 30.4271C26.788 30.4271 27.6532 28.3101 29.9866 28.8016C29.9866 28.8016 32.2085 29.0704 32.1561 32.2689C32.1561 32.2689 32.1561 36.1164 29.6588 37.0406C29.6588 37.0406 27.2206 38.1286 24.2383 35.8477C24.2383 35.8477 20.712 32.5377 15.9404 34.8186C15.9404 34.8186 14.151 35.5789 12.4731 36.5555C12.8532 36.8833 13.122 36.9357 13.122 36.9357C13.9347 37.0406 14.3149 37.6436 14.3149 37.6436C14.9113 38.6202 15.6192 38.5088 15.6192 38.5088C17.2972 38.8889 18.005 39.8131 18.005 39.8131C18.2213 39.977 18.5491 40.1933 18.8702 40.3571C20.0107 39.8131 22.934 38.5678 24.566 39.2756C24.566 39.2756 25.5951 39.9245 26.788 41.1174C26.788 41.1174 23.8057 38.7316 21.0397 40.521L20.2794 41.1699C20.9283 41.4976 21.4723 41.7139 21.4723 41.7139C26.5127 44.2636 32.1561 43.9948 32.1561 43.9948C35.9511 43.8834 39.6937 42.3104 39.6937 42.3104C44.0327 40.521 47.1199 38.0237 47.1199 38.0237L48.2014 37.0471C50.9673 35.0415 50.4823 32.3804 50.4823 32.3804C49.9973 29.6144 53.0844 28.5853 53.0844 28.5853C55.6341 27.5039 55.739 26.4158 55.739 26.4158C55.9553 25.3343 56.6632 24.9542 56.6632 24.9542C56.827 24.7903 56.9319 24.574 57.0433 24.4102H47.4476L47.4542 24.4167Z" fill="#0B318F"/>
<path d="M27.7122 16.2812V24.4153H33.2441V12.2109C32.3789 12.9713 30.5306 14.4919 27.7122 16.2812Z" fill="#4FC2F1"/>
<path d="M7.86526 20.6741C7.86526 20.6741 9.87092 20.7855 11.0638 21.9785C11.0638 21.9785 23.7532 18.0196 33.2441 10.1542H41.483V14.4933C46.5824 17.0954 52.8681 20.0777 56.9908 21.323L56.9384 21.2706C56.5582 20.779 56.4534 19.5861 56.4534 19.5861C56.5582 18.1244 55.149 17.6853 55.149 17.6853C52.8681 17.0364 53.0909 15.6272 53.0909 15.6272C52.7632 12.7498 50.5937 12.4286 50.5937 12.4286C48.044 11.0719 46.3661 7.60455 46.3661 7.60455C45.5533 6.08392 44.3604 5.92661 44.3604 5.92661C43.6525 5.71032 42.8988 4.89756 42.8988 4.89756C41.7583 3.75709 40.4015 3.65222 40.4015 3.65222C38.6122 3.21963 38.0157 2.57074 38.0157 2.57074C36.6065 1.37783 35.7348 1.97428 35.7348 1.97428C34.6533 2.35444 34.3256 1.97428 34.3256 1.97428C33.834 1.54169 33.1326 1.64656 33.1326 1.64656C29.8227 1.64656 28.5249 0.61751 28.5249 0.61751C24.7823 -0.844132 22.7242 0.781371 22.7242 0.781371C20.9348 1.97428 19.7419 2.24301 19.7419 2.24301C16.4319 3.27206 15.5667 5.9856 15.5667 5.9856C14.8064 7.01465 13.4496 9.18417 13.4496 9.18417C11.2277 12.1664 6.88865 12.5466 6.88865 12.5466C3.42134 12.5466 2.22188 17.587 2.22188 17.587C1.35669 20.0842 0.543941 21.382 0.543941 21.382C-0.537542 23.5515 0.327645 24.3643 0.327645 24.3643L0.38008 24.4167H3.14606C3.19849 24.2528 4.1751 20.6741 7.86526 20.6741Z" fill="#4FC2F1"/>
<path d="M11.8242 23.2824C11.8242 23.2824 12.2043 23.7674 12.0929 24.4229H18.1099V21.1719C16.1567 21.9322 14.0986 22.6335 11.8176 23.289L11.8242 23.2824Z" fill="#4FC2F1"/>
<path d="M19.0408 20.7831V24.4143H26.7947V16.8242C24.6776 18.1286 22.0755 19.4788 19.0408 20.7831Z" fill="#4FC2F1"/>
<path d="M21.1511 12.2713C21.1511 12.2713 21.3674 8.58115 22.5603 7.98469C22.5603 7.98469 23.3731 7.82083 23.6418 8.69257L24.3497 7.49967C24.3497 7.49967 22.5603 7.49967 23.3206 6.63448C23.3206 6.63448 24.2448 6.09046 24.2448 5.06141C24.2448 5.06141 24.2448 3.48834 26.198 3.21961C26.198 3.21961 24.1399 2.35443 23.1633 4.84512C23.1633 4.84512 22.7307 6.52305 21.5902 6.20189C21.5902 6.20189 20.3973 5.49401 20.181 6.09701C20.181 6.09701 20.2925 6.69347 21.0462 7.02119C21.0462 7.02119 21.6427 7.50622 20.9938 8.37796C20.9938 8.37796 18.4965 11.5765 21.1577 12.2844L21.1511 12.2713Z" fill="white"/>
<path d="M47.4543 24.4157V19.3164C45.6125 18.3922 43.6068 17.3631 41.4897 16.2227V24.4092H47.4543V24.4157Z" fill="#4FC2F1"/>
<path d="M48.3784 19.7539V24.4207H57.0565C57.1679 24.0929 57.2728 23.8242 57.3252 23.5555C55.8046 22.959 52.5536 21.7137 48.3784 19.7605V19.7539Z" fill="#4FC2F1"/>
<path d="M33.2441 10.1523V12.217V24.4148H35.1974V18.6141H39.5364V24.4148H41.4896V16.2283V14.4914V10.1523H33.2441Z" fill="#E60012"/>
<path d="M39.5364 12.0547H36.718C37.5308 12.4873 38.5074 12.9789 39.5364 13.5163V12.0547Z" fill="#4FC2F1"/>
<path d="M35.1973 16.6106H39.5363V15.149C38.1271 14.3362 36.6589 13.4645 35.1973 12.5469V16.6172V16.6106Z" fill="#4FC2F1"/>
<path d="M152.679 19.5521V23.4324H141.681V28.6104H137.316V23.4324H126.154V19.5521H147.023V13.7318H127.124V9.85156H151.388V19.5587H152.686L152.679 19.5521ZM131.489 32.1695V25.2152H127.124V33.6245C127.124 34.4307 127.287 35.0796 127.609 35.4008C127.936 35.722 128.415 35.8858 129.228 35.8858H151.388V32.1629H131.495L131.489 32.1695Z" fill="white"/>
<path fill-rule="evenodd" clip-rule="evenodd" d="M68.5596 9.85156H64.1943V9.85812V19.2375C64.1943 20.0503 64.3582 20.6926 64.6794 21.0203C65.0071 21.3481 65.6494 21.5054 66.2983 21.5054H84.2509V22.9605H88.6228V18.1036H92.018V14.3807H88.6228V9.85156H84.2509V17.6186H68.5596V9.85156ZM88.6228 24.409H65.6494V33.6311C65.6494 34.4373 65.8133 35.0862 66.1345 35.4073C66.4556 35.7285 67.1045 35.8924 67.7534 35.8924H86.3549C87.1677 35.8924 87.6527 35.7285 87.9739 35.4073C88.3016 35.0862 88.6228 34.4373 88.6228 33.6311V24.409ZM70.0213 28.2885H84.2576V32.1687H70.0213V28.2885Z" fill="white"/>
<path fill-rule="evenodd" clip-rule="evenodd" d="M107.709 17.1279C107.546 16.3217 107.061 15.3516 106.576 14.7028H106.582H108.358V10.9798H103.508V8.55469H98.815V10.9798H94.1221V14.7028H95.741C95.5243 15.1406 95.3046 15.7246 95.086 16.3059C94.9806 16.5861 94.8754 16.8657 94.771 17.1279C94.7649 17.1652 94.7589 17.2025 94.7528 17.2397C94.6013 18.1725 94.4498 19.1053 94.4498 20.0381C94.4498 22.6205 95.0987 24.5672 96.0687 26.3435C97.36 28.1263 99.1362 29.0963 101.404 29.0963C103.508 29.0963 105.284 28.1263 106.418 26.3435C107.546 24.5672 108.194 22.6271 108.194 20.0381C108.194 19.068 108.031 18.098 107.709 17.1279ZM114.021 21.9848H115.798V36.0571H120.006V9.85247H115.798V18.1045H114.021V9.85247H109.977V36.0571H114.021V21.9848ZM98.33 20.0386C98.33 18.7474 98.6511 17.6135 99.1362 16.6434C99.6212 15.5161 100.264 15.031 101.24 15.031C102.217 15.031 102.859 15.5095 103.508 16.6434C103.993 17.6135 104.157 18.7409 104.157 20.0386C104.157 21.4937 103.993 22.6276 103.508 23.5977C102.859 24.5678 102.21 25.0528 101.24 25.0528C100.27 25.0528 99.6212 24.5678 99.1362 23.5977C98.6511 22.6276 98.33 21.4937 98.33 20.0386Z" fill="white"/>
<path d="M36.7179 12.0547H35.1973V12.6839L39.5363 15.1484V13.5163L36.7179 12.0547Z" fill="white"/>
</g>
<defs>
<clipPath id="clip0_864_10072">
<rect width="152.679" height="44" fill="white"/>
</clipPath>
</defs>
</svg>
