<svg width="50" height="27" viewBox="0 0 50 27" fill="none" xmlns="http://www.w3.org/2000/svg">
<g filter="url(#filter0_d_525_7939)">
<path d="M46.9795 24C32.9795 24 21.9798 24 3.97975 24C3.47975 24 1.97975 24 1 24C1.52426 11.2089 12.0597 1 24.9795 1C37.8994 1 48.4348 11.2089 48.9591 24C48.4795 24 47.4795 24 46.9795 24Z" fill="#2E1F59" fill-opacity="0.35" shape-rendering="crispEdges"/>
<path d="M46.9825 23.75H46.9795H46.8975H46.8156H46.7338H46.652H46.5702H46.4886H46.407H46.3255H46.244H46.1626H46.0813H46H45.9188H45.8376H45.7565H45.6755H45.5946H45.5137H45.4328H45.3521H45.2713H45.1907H45.1101H45.0295H44.9491H44.8686H44.7883H44.708H44.6277H44.5475H44.4674H44.3873H44.3072H44.2272H44.1473H44.0674H43.9876H43.9078H43.8281H43.7485H43.6688H43.5893H43.5098H43.4303H43.3509H43.2715H43.1922H43.1129H43.0337H42.9545H42.8754H42.7963H42.7172H42.6382H42.5593H42.4804H42.4015H42.3227H42.2439H42.1652H42.0865H42.0078H41.9292H41.8507H41.7721H41.6936H41.6152H41.5368H41.4584H41.38H41.3017H41.2235H41.1453H41.0671H40.9889H40.9108H40.8327H40.7546H40.6766H40.5986H40.5207H40.4428H40.3649H40.287H40.2092H40.1314H40.0536H39.9759H39.8982H39.8205H39.7429H39.6653H39.5877H39.5101H39.4326H39.3551H39.2776H39.2001H39.1227H39.0453H38.9679H38.8905H38.8132H38.7359H38.6586H38.5813H38.504H38.4268H38.3496H38.2724H38.1952H38.1181H38.0409H37.9638H37.8867H37.8096H37.7326H37.6555H37.5785H37.5015H37.4245H37.3475H37.2705H37.1935H37.1166H37.0397H36.9627H36.8858H36.8089H36.732H36.6552H36.5783H36.5014H36.4246H36.3478H36.2709H36.1941H36.1173H36.0405H35.9637H35.8869H35.8101H35.7333H35.6565H35.5798H35.503H35.4262H35.3495H35.2727H35.1959H35.1192H35.0424H34.9657H34.8889H34.8121H34.7354H34.6586H34.5819H34.5051H34.4283H34.3516H34.2748H34.198H34.1212H34.0445H33.9677H33.8909H33.8141H33.7373H33.6604H33.5836H33.5068H33.43H33.3531H33.2763H33.1994H33.1225H33.0456H32.9687H32.8918H32.8149H32.738H32.661H32.5841H32.5071H32.4301H32.3531H32.2761H32.1991H32.122H32.045H31.9679H31.8908H31.8137H31.7366H31.6594H31.5822H31.5051H31.4279H31.3506H31.2734H31.1961H31.1188H31.0415H30.9642H30.8868H30.8094H30.732H30.6546H30.5771H30.4996H30.4221H30.3446H30.267H30.1895H30.1118H30.0342H29.9565H29.8788H29.8011H29.7234H29.6456H29.5677H29.4899H29.412H29.3341H29.2562H29.1782H29.1002H29.0221H28.944H28.8659H28.7878H28.7096H28.6314H28.5531H28.4748H28.3965H28.3181H28.2397H28.1613H28.0828H28.0043H27.9257H27.8471H27.7685H27.6898H27.611H27.5323H27.4535H27.3746H27.2957H27.2168H27.1378H27.0587H26.9797H26.9005H26.8214H26.7422H26.6629H26.5836H26.5042H26.4248H26.3454H26.2659H26.1863H26.1067H26.027H25.9473H25.8676H25.7878H25.7079H25.628H25.548H25.468H25.3879H25.3078H25.2276H25.1473H25.067H24.9867H24.9063H24.8258H24.7453H24.6647H24.584H24.5033H24.4226H24.3417H24.2608H24.1799H24.0989H24.0178H23.9367H23.8555H23.7742H23.6929H23.6115H23.5301H23.4486H23.367H23.2853H23.2036H23.1218H23.04H22.9581H22.8761H22.7941H22.7119H22.6297H22.5475H22.4652H22.3828H22.3003H22.2177H22.1351H22.0524H21.9697H21.8868H21.8039H21.7209H21.6379H21.5548H21.4715H21.3883H21.3049H21.2215H21.1379H21.0543H20.9707H20.8869H20.8031H20.7192H20.6352H20.5511H20.467H20.3827H20.2984H20.214H20.1295H20.045H19.9603H19.8756H19.7908H19.7059H19.6209H19.5358H19.4506H19.3654H19.2801H19.1946H19.1091H19.0235H18.9378H18.8521H18.7662H18.6802H18.5942H18.508H18.4218H18.3355H18.2491H18.1625H18.0759H17.9892H17.9024H17.8156H17.7286H17.6415H17.5543H17.467H17.3797H17.2922H17.2046H17.117H17.0292H16.9413H16.8534H16.7653H16.6772H16.5889H16.5005H16.4121H16.3235H16.2348H16.146H16.0572H15.9682H15.8791H15.7899H15.7006H15.6112H15.5217H15.432H15.3423H15.2525H15.1625H15.0725H14.9823H14.892H14.8017H14.7112H14.6206H14.5298H14.439H14.3481H14.257H14.1659H14.0746H13.9832H13.8917H13.8H13.7083H13.6164H13.5245H13.4324H13.3402H13.2479H13.1554H13.0629H12.9702H12.8774H12.7845H12.6914H12.5983H12.505H12.4116H12.318H12.2244H12.1306H12.0367H11.9427H11.8486H11.7543H11.6599H11.5654H11.4707H11.376H11.2811H11.186H11.0909H10.9956H10.9002H10.8046H10.709H10.6132H10.5172H10.4212H10.325H10.2286H10.1322H10.0356H9.93886H9.842H9.745H9.64787H9.5506H9.4532H9.35567H9.25799H9.16018H9.06224H8.96415H8.86593H8.76756H8.66906H8.57042H8.47164H8.37272H8.27365H8.17445H8.0751H7.97561H7.87598H7.77621H7.67629H7.57622H7.47602H7.37566H7.27517H7.17452H7.07373H6.9728H6.87171H6.77048H6.6691H6.56757H6.46589H6.36407H6.26209H6.15996H6.05768H5.95525H5.85267H5.74994H5.64705H5.54401H5.44082H5.33747H5.23397H5.13032H5.0265H4.92254H4.81841H4.71413H4.6097H4.5051H4.40035H4.29544H4.19037H4.08514H3.97975H3.97681H3.97385H3.97086H3.96785H3.96482H3.96176H3.95869H3.95559H3.95247H3.94932H3.94615H3.94297H3.93976H3.93652H3.93327H3.92999H3.92669H3.92337H3.92003H3.91667H3.91329H3.90988H3.90645H3.903H3.89953H3.89604H3.89253H3.889H3.88544H3.88187H3.87827H3.87465H3.87102H3.86736H3.86368H3.85998H3.85626H3.85252H3.84876H3.84498H3.84118H3.83736H3.83351H3.82965H3.82577H3.82187H3.81795H3.81401H3.81005H3.80607H3.80207H3.79806H3.79402H3.78996H3.78588H3.78179H3.77767H3.77354H3.76939H3.76522H3.76103H3.75682H3.75259H3.74835H3.74408H3.7398H3.7355H3.73118H3.72684H3.72248H3.71811H3.71372H3.7093H3.70488H3.70043H3.69597H3.69148H3.68698H3.68247H3.67793H3.67338H3.66881H3.66423H3.65962H3.655H3.65036H3.64571H3.64103H3.63635H3.63164H3.62692H3.62218H3.61742H3.61265H3.60786H3.60305H3.59823H3.59339H3.58854H3.58367H3.57878H3.57388H3.56896H3.56403H3.55907H3.55411H3.54913H3.54413H3.53912H3.53409H3.52904H3.52398H3.51891H3.51382H3.50872H3.5036H3.49846H3.49331H3.48815H3.48297H3.47777H3.47256H3.46734H3.4621H3.45685H3.45158H3.4463H3.441H3.4357H3.43037H3.42503H3.41968H3.41432H3.40894H3.40354H3.39814H3.39271H3.38728H3.38183H3.37637H3.3709H3.36541H3.35991H3.35439H3.34887H3.34332H3.33777H3.3322H3.32663H3.32103H3.31543H3.30981H3.30418H3.29854H3.29288H3.28722H3.28154H3.27585H3.27014H3.26443H3.2587H3.25296H3.24721H3.24144H3.23567H3.22988H3.22408H3.21827H3.21245H3.20662H3.20077H3.19492H3.18905H3.18317H3.17728H3.17138H3.16547H3.15955H3.15362H3.14768H3.14172H3.13576H3.12978H3.1238H3.1178H3.1118H3.10578H3.09975H3.09372H3.08767H3.08161H3.07555H3.06947H3.06338H3.05729H3.05118H3.04507H3.03894H3.03281H3.02666H3.02051H3.01435H3.00818H3.002H2.99581H2.98961H2.9834H2.97719H2.97096H2.96473H2.95849H2.95224H2.94598H2.93971H2.93343H2.92715H2.92086H2.91456H2.90825H2.90193H2.89561H2.88928H2.88294H2.87659H2.87023H2.86387H2.8575H2.85112H2.84474H2.83834H2.83194H2.82554H2.81912H2.8127H2.80627H2.79984H2.79339H2.78695H2.78049H2.77403H2.76756H2.76108H2.7546H2.74811H2.74162H2.73512H2.72861H2.7221H2.71558H2.70905H2.70252H2.69599H2.68944H2.6829H2.67634H2.66978H2.66322H2.65665H2.65007H2.64349H2.6369H2.63031H2.62372H2.61712H2.61051H2.6039H2.59728H2.59066H2.58404H2.57741H2.57077H2.56413H2.55749H2.55084H2.54419H2.53753H2.53087H2.52421H2.51754H2.51087H2.50419H2.49751H2.49083H2.48414H2.47745H2.47075H2.46406H2.45735H2.45065H2.44394H2.43723H2.43052H2.4238H2.41708H2.41036H2.40363H2.3969H2.39017H2.38344H2.3767H2.36996H2.36322H2.35647H2.34973H2.34298H2.33623H2.32948H2.32272H2.31596H2.30921H2.30245H2.29568H2.28892H2.28215H2.27539H2.26862H2.26185H2.25508H2.2483H2.24153H2.23476H2.22798H2.2212H2.21442H2.20765H2.20087H2.19409H2.18731H2.18052H2.17374H2.16696H2.16018H2.15339H2.14661H2.13983H2.13304H2.12626H2.11947H2.11269H2.10591H2.09912H2.09234H2.08556H2.07877H2.07199H2.06521H2.05843H2.05165H2.04487H2.03809H2.03132H2.02454H2.01776H2.01099H2.00422H1.99744H1.99067H1.9839H1.97714H1.97037H1.9636H1.95684H1.95008H1.94332H1.93656H1.92981H1.92305H1.9163H1.90955H1.9028H1.89606H1.88932H1.88258H1.87584H1.8691H1.86237H1.85564H1.84891H1.84219H1.83546H1.82874H1.82203H1.81532H1.80861H1.8019H1.7952H1.7885H1.7818H1.77511H1.76842H1.76173H1.75505H1.74837H1.7417H1.73503H1.72836H1.7217H1.71504H1.70838H1.70173H1.69509H1.68845H1.68181H1.67518H1.66855H1.66192H1.6553H1.64869H1.64208H1.63548H1.62888H1.62228H1.61569H1.60911H1.60253H1.59596H1.58939H1.58283H1.57627H1.56972H1.56317H1.55663H1.5501H1.54357H1.53705H1.53053H1.52402H1.51752H1.51102H1.50453H1.49804H1.49156H1.48509H1.47862H1.47217H1.46571H1.45927H1.45283H1.44639H1.43997H1.43355H1.42714H1.42074H1.41434H1.40795H1.40157H1.39519H1.38882H1.38246H1.37611H1.36977H1.36343H1.3571H1.35078H1.34447H1.33816H1.33187H1.32558H1.3193H1.31302H1.30676H1.30051H1.29426H1.28802H1.28179H1.27557H1.26936H1.26315H1.26187C1.91179 11.2144 12.2821 1.25 24.9795 1.25C37.677 1.25 48.0473 11.2144 48.6972 23.75H48.6965H48.6928H48.6892H48.6855H48.6819H48.6782H48.6746H48.6709H48.6672H48.6635H48.6598H48.6561H48.6524H48.6487H48.6449H48.6412H48.6374H48.6337H48.6299H48.6261H48.6224H48.6186H48.6148H48.611H48.6072H48.6034H48.5996H48.5957H48.5919H48.5881H48.5842H48.5804H48.5765H48.5726H48.5688H48.5649H48.561H48.5571H48.5532H48.5493H48.5454H48.5414H48.5375H48.5336H48.5296H48.5257H48.5217H48.5178H48.5138H48.5099H48.5059H48.5019H48.4979H48.4939H48.4899H48.4859H48.4819H48.4779H48.4739H48.4698H48.4658H48.4618H48.4577H48.4537H48.4496H48.4456H48.4415H48.4374H48.4333H48.4293H48.4252H48.4211H48.417H48.4129H48.4088H48.4047H48.4006H48.3964H48.3923H48.3882H48.384H48.3799H48.3758H48.3716H48.3675H48.3633H48.3591H48.355H48.3508H48.3466H48.3425H48.3383H48.3341H48.3299H48.3257H48.3215H48.3173H48.3131H48.3089H48.3047H48.3005H48.2962H48.292H48.2878H48.2836H48.2793H48.2751H48.2708H48.2666H48.2624H48.2581H48.2538H48.2496H48.2453H48.2411H48.2368H48.2325H48.2283H48.224H48.2197H48.2154H48.2111H48.2069H48.2026H48.1983H48.194H48.1897H48.1854H48.1811H48.1768H48.1725H48.1682H48.1638H48.1595H48.1552H48.1509H48.1466H48.1423H48.1379H48.1336H48.1293H48.125H48.1206H48.1163H48.1119H48.1076H48.1033H48.0989H48.0946H48.0903H48.0859H48.0816H48.0772H48.0729H48.0685H48.0642H48.0598H48.0555H48.0511H48.0468H48.0424H48.038H48.0337H48.0293H48.025H48.0206H48.0163H48.0119H48.0075H48.0032H47.9988H47.9944H47.9901H47.9857H47.9814H47.977H47.9726H47.9683H47.9639H47.9595H47.9552H47.9508H47.9464H47.9421H47.9377H47.9333H47.929H47.9246H47.9202H47.9159H47.9115H47.9072H47.9028H47.8984H47.8941H47.8897H47.8854H47.881H47.8766H47.8723H47.8679H47.8636H47.8592H47.8549H47.8505H47.8462H47.8418H47.8375H47.8331H47.8288H47.8244H47.8201H47.8157H47.8114H47.807H47.8027H47.7984H47.794H47.7897H47.7854H47.781H47.7767H47.7724H47.7681H47.7637H47.7594H47.7551H47.7508H47.7465H47.7422H47.7379H47.7335H47.7292H47.7249H47.7206H47.7163H47.712H47.7077H47.7035H47.6992H47.6949H47.6906H47.6863H47.682H47.6778H47.6735H47.6692H47.665H47.6607H47.6565H47.6522H47.6479H47.6437H47.6395H47.6352H47.631H47.6267H47.6225H47.6183H47.614H47.6098H47.6056H47.6014H47.5972H47.593H47.5888H47.5846H47.5804H47.5762H47.572H47.5678H47.5636H47.5595H47.5553H47.5511H47.547H47.5428H47.5387H47.5345H47.5304H47.5262H47.5221H47.518H47.5138H47.5097H47.5056H47.5015H47.4974H47.4933H47.4892H47.4851H47.481H47.4769H47.4728H47.4688H47.4647H47.4606H47.4566H47.4525H47.4485H47.4444H47.4404H47.4364H47.4324H47.4283H47.4243H47.4203H47.4163H47.4123H47.4083H47.4043H47.4004H47.3964H47.3924H47.3885H47.3845H47.3806H47.3766H47.3727H47.3688H47.3648H47.3609H47.357H47.3531H47.3492H47.3453H47.3414H47.3376H47.3337H47.3298H47.326H47.3221H47.3183H47.3145H47.3106H47.3068H47.303H47.2992H47.2954H47.2916H47.2878H47.284H47.2803H47.2765H47.2727H47.269H47.2652H47.2615H47.2578H47.2541H47.2504H47.2467H47.243H47.2393H47.2356H47.2319H47.2283H47.2246H47.2209H47.2173H47.2137H47.2101H47.2064H47.2028H47.1992H47.1956H47.1921H47.1885H47.1849H47.1814H47.1778H47.1743H47.1708H47.1672H47.1637H47.1602H47.1567H47.1532H47.1498H47.1463H47.1428H47.1394H47.1359H47.1325H47.1291H47.1257H47.1223H47.1189H47.1155H47.1121H47.1088H47.1054H47.1021H47.0987H47.0954H47.0921H47.0888H47.0855H47.0822H47.0789H47.0756H47.0724H47.0691H47.0659H47.0627H47.0595H47.0562H47.053H47.0499H47.0467H47.0435H47.0404H47.0372H47.0341H47.031H47.0279H47.0248H47.0217H47.0186H47.0155H47.0125H47.0094H47.0064H47.0033H47.0003H46.9973H46.9943H46.9914H46.9884H46.9854H46.9825Z" stroke="#7C51FF" stroke-width="0.5" shape-rendering="crispEdges"/>
</g>
<g filter="url(#filter1_d_525_7939)">
<mask id="path-3-outside-1_525_7939" maskUnits="userSpaceOnUse" x="19" y="8" width="12" height="12" fill="black">
<rect fill="white" x="19" y="8" width="12" height="12"/>
<path fill-rule="evenodd" clip-rule="evenodd" d="M26 13V9H24L24 13H20V15H24L24 19H26V15H30V13H26Z"/>
</mask>
<path fill-rule="evenodd" clip-rule="evenodd" d="M26 13V9H24L24 13H20V15H24L24 19H26V15H30V13H26Z" fill="url(#paint0_linear_525_7939)"/>
<path d="M26 9H26.5V8.5H26V9ZM26 13H25.5V13.5H26V13ZM24 9V8.5H23.5L23.5 9L24 9ZM24 13V13.5H24.5L24.5 13L24 13ZM20 13V12.5H19.5V13H20ZM20 15H19.5V15.5H20V15ZM24 15L24.5 15L24.5 14.5H24V15ZM24 19L23.5 19L23.5 19.5H24V19ZM26 19V19.5H26.5V19H26ZM26 15V14.5H25.5V15H26ZM30 15V15.5H30.5V15H30ZM30 13H30.5V12.5H30V13ZM25.5 9V13H26.5V9H25.5ZM24 9.5H26V8.5H24V9.5ZM24.5 13L24.5 9L23.5 9L23.5 13L24.5 13ZM20 13.5H24V12.5H20V13.5ZM20.5 15V13H19.5V15H20.5ZM24 14.5H20V15.5H24V14.5ZM24.5 19L24.5 15L23.5 15L23.5 19L24.5 19ZM26 18.5H24V19.5H26V18.5ZM25.5 15V19H26.5V15H25.5ZM30 14.5H26V15.5H30V14.5ZM29.5 13V15H30.5V13H29.5ZM26 13.5H30V12.5H26V13.5Z" fill="#CCBDFF" mask="url(#path-3-outside-1_525_7939)"/>
</g>
<defs>
<filter id="filter0_d_525_7939" x="0.5" y="0.5" width="48.9591" height="24" filterUnits="userSpaceOnUse" color-interpolation-filters="sRGB">
<feFlood flood-opacity="0" result="BackgroundImageFix"/>
<feColorMatrix in="SourceAlpha" type="matrix" values="0 0 0 0 0 0 0 0 0 0 0 0 0 0 0 0 0 0 127 0" result="hardAlpha"/>
<feOffset/>
<feGaussianBlur stdDeviation="0.25"/>
<feComposite in2="hardAlpha" operator="out"/>
<feColorMatrix type="matrix" values="0 0 0 0 0 0 0 0 0 0 0 0 0 0 0 0 0 0 0.5 0"/>
<feBlend mode="normal" in2="BackgroundImageFix" result="effect1_dropShadow_525_7939"/>
<feBlend mode="normal" in="SourceGraphic" in2="effect1_dropShadow_525_7939" result="shape"/>
</filter>
<filter id="filter1_d_525_7939" x="13.5" y="3.5" width="23" height="23" filterUnits="userSpaceOnUse" color-interpolation-filters="sRGB">
<feFlood flood-opacity="0" result="BackgroundImageFix"/>
<feColorMatrix in="SourceAlpha" type="matrix" values="0 0 0 0 0 0 0 0 0 0 0 0 0 0 0 0 0 0 127 0" result="hardAlpha"/>
<feOffset dy="1"/>
<feGaussianBlur stdDeviation="3"/>
<feComposite in2="hardAlpha" operator="out"/>
<feColorMatrix type="matrix" values="0 0 0 0 0.537255 0 0 0 0 0.384314 0 0 0 0 1 0 0 0 1 0"/>
<feBlend mode="normal" in2="BackgroundImageFix" result="effect1_dropShadow_525_7939"/>
<feBlend mode="normal" in="SourceGraphic" in2="effect1_dropShadow_525_7939" result="shape"/>
</filter>
<linearGradient id="paint0_linear_525_7939" x1="25" y1="9" x2="25" y2="19" gradientUnits="userSpaceOnUse">
<stop stop-color="#9275FF"/>
<stop offset="1" stop-color="#7244FF"/>
</linearGradient>
</defs>
</svg>
