<svg width="20" height="20" viewBox="0 0 20 20" fill="none" xmlns="http://www.w3.org/2000/svg">
<rect x="1.5" y="1.5" width="17" height="17" rx="3" fill="#2D2B58" stroke="#161433"/>
<path d="M9.56055 13.995L8.33984 12.701H9.1084V7.22349H8.38477L9.56055 6.04771V13.995ZM5.91309 8.13658H6.82617V11.7879H5.91309C5.66108 11.7879 5.45622 11.5839 5.45605 11.3319V8.59263C5.4561 8.34057 5.66101 8.13658 5.91309 8.13658ZM8.19531 8.13658V11.7879H7.73926V8.13658H8.19531Z" fill="#9C7BFF" stroke="#9C7BFF" stroke-width="0.912958"/>
<path d="M11.5894 7.28213C12.3097 7.94917 12.7606 8.90301 12.7606 9.96217C12.7606 11.0213 12.3097 11.9752 11.5894 12.6422" stroke="#9C7BFF" stroke-width="0.912958" stroke-linecap="round"/>
<path d="M13.2446 5.70705C14.3536 6.78526 15.0425 8.29326 15.0425 9.96216C15.0425 11.6311 14.3536 13.1391 13.2446 14.2173" stroke="#9C7BFF" stroke-width="0.912958" stroke-linecap="round"/>
</svg>
