<svg width="24" height="25" viewBox="0 0 24 25" fill="none" xmlns="http://www.w3.org/2000/svg">
<g filter="url(#filter0_d_532_8686)">
<path d="M8.48306 13.0275C7.76555 12.5304 7.76555 11.4696 8.48306 10.9725L15.1418 6.35922C15.9708 5.78487 17.1036 6.37819 17.1036 7.38672L17.1036 16.6133C17.1036 17.6218 15.9708 18.2151 15.1418 17.6408L8.48306 13.0275Z" fill="url(#paint0_linear_532_8686)"/>
<path d="M8.62543 11.178L15.2841 6.56472C15.9473 6.10524 16.8536 6.5799 16.8536 7.38672L16.8536 16.6133C16.8536 17.4201 15.9473 17.8948 15.2841 17.4353L8.62543 12.822C8.05143 12.4243 8.05143 11.5757 8.62543 11.178Z" stroke="#CCBDFF" stroke-width="0.5"/>
</g>
<defs>
<filter id="filter0_d_532_8686" x="1.94495" y="1.13477" width="21.1587" height="23.7305" filterUnits="userSpaceOnUse" color-interpolation-filters="sRGB">
<feFlood flood-opacity="0" result="BackgroundImageFix"/>
<feColorMatrix in="SourceAlpha" type="matrix" values="0 0 0 0 0 0 0 0 0 0 0 0 0 0 0 0 0 0 127 0" result="hardAlpha"/>
<feOffset dy="1"/>
<feGaussianBlur stdDeviation="3"/>
<feComposite in2="hardAlpha" operator="out"/>
<feColorMatrix type="matrix" values="0 0 0 0 0.537255 0 0 0 0 0.384314 0 0 0 0 1 0 0 0 1 0"/>
<feBlend mode="normal" in2="BackgroundImageFix" result="effect1_dropShadow_532_8686"/>
<feBlend mode="normal" in="SourceGraphic" in2="effect1_dropShadow_532_8686" result="shape"/>
</filter>
<linearGradient id="paint0_linear_532_8686" x1="7" y1="12" x2="17.1036" y2="12" gradientUnits="userSpaceOnUse">
<stop stop-color="#D3C7FF"/>
<stop offset="1" stop-color="#7244FF"/>
</linearGradient>
</defs>
</svg>
