<svg width="50" height="25" viewBox="0 0 50 25" fill="none" xmlns="http://www.w3.org/2000/svg">
<g filter="url(#filter0_d_523_7934)">
<path d="M46.9997 24C32.9997 24 22 24 3.99995 24C3.49995 24 1.99995 24 1.0202 24C1.54446 11.2089 12.0799 1 24.9997 1C37.9196 1 48.455 11.2089 48.9793 24C48.4997 24 47.4997 24 46.9997 24Z" fill="url(#paint0_linear_523_7934)" fill-opacity="0.5" shape-rendering="crispEdges"/>
<path d="M47.0027 23.75H46.9997H46.9178H46.8358H46.754H46.6722H46.5904H46.5088H46.4272H46.3457H46.2642H46.1828H46.1015H46.0202H45.939H45.8578H45.7768H45.6957H45.6148H45.5339H45.453H45.3723H45.2915H45.2109H45.1303H45.0497H44.9693H44.8888H44.8085H44.7282H44.6479H44.5677H44.4876H44.4075H44.3274H44.2474H44.1675H44.0876H44.0078H43.9281H43.8483H43.7687H43.689H43.6095H43.53H43.4505H43.3711H43.2917H43.2124H43.1331H43.0539H42.9747H42.8956H42.8165H42.7374H42.6585H42.5795H42.5006H42.4217H42.3429H42.2641H42.1854H42.1067H42.028H41.9494H41.8709H41.7923H41.7138H41.6354H41.557H41.4786H41.4002H41.3219H41.2437H41.1655H41.0873H41.0091H40.931H40.8529H40.7748H40.6968H40.6188H40.5409H40.463H40.3851H40.3072H40.2294H40.1516H40.0738H39.9961H39.9184H39.8407H39.7631H39.6855H39.6079H39.5303H39.4528H39.3753H39.2978H39.2203H39.1429H39.0655H38.9881H38.9107H38.8334H38.7561H38.6788H38.6015H38.5242H38.447H38.3698H38.2926H38.2154H38.1383H38.0611H37.984H37.9069H37.8298H37.7528H37.6757H37.5987H37.5217H37.4447H37.3677H37.2907H37.2137H37.1368H37.0599H36.9829H36.906H36.8291H36.7523H36.6754H36.5985H36.5217H36.4448H36.368H36.2911H36.2143H36.1375H36.0607H35.9839H35.9071H35.8303H35.7535H35.6767H35.6H35.5232H35.4464H35.3697H35.2929H35.2161H35.1394H35.0626H34.9859H34.9091H34.8323H34.7556H34.6788H34.6021H34.5253H34.4485H34.3718H34.295H34.2182H34.1414H34.0647H33.9879H33.9111H33.8343H33.7575H33.6807H33.6038H33.527H33.4502H33.3733H33.2965H33.2196H33.1427H33.0658H32.9889H32.912H32.8351H32.7582H32.6812H32.6043H32.5273H32.4503H32.3733H32.2963H32.2193H32.1422H32.0652H31.9881H31.911H31.8339H31.7568H31.6796H31.6024H31.5253H31.4481H31.3708H31.2936H31.2163H31.139H31.0617H30.9844H30.907H30.8296H30.7522H30.6748H30.5973H30.5198H30.4423H30.3648H30.2873H30.2097H30.1321H30.0544H29.9767H29.899H29.8213H29.7436H29.6658H29.5879H29.5101H29.4322H29.3543H29.2764H29.1984H29.1204H29.0423H28.9642H28.8861H28.808H28.7298H28.6516H28.5733H28.495H28.4167H28.3383H28.2599H28.1815H28.103H28.0245H27.9459H27.8673H27.7887H27.71H27.6312H27.5525H27.4737H27.3948H27.3159H27.237H27.158H27.0789H26.9999H26.9207H26.8416H26.7624H26.6831H26.6038H26.5244H26.445H26.3656H26.2861H26.2065H26.1269H26.0472H25.9675H25.8878H25.808H25.7281H25.6482H25.5682H25.4882H25.4081H25.328H25.2478H25.1675H25.0872H25.0069H24.9265H24.846H24.7655H24.6849H24.6042H24.5235H24.4428H24.3619H24.281H24.2001H24.1191H24.038H23.9569H23.8757H23.7944H23.7131H23.6317H23.5503H23.4688H23.3872H23.3055H23.2238H23.142H23.0602H22.9783H22.8963H22.8143H22.7321H22.6499H22.5677H22.4854H22.403H22.3205H22.2379H22.1553H22.0726H21.9899H21.907H21.8241H21.7411H21.6581H21.575H21.4917H21.4085H21.3251H21.2417H21.1581H21.0745H20.9909H20.9071H20.8233H20.7394H20.6554H20.5713H20.4872H20.4029H20.3186H20.2342H20.1497H20.0652H19.9805H19.8958H19.811H19.7261H19.6411H19.556H19.4708H19.3856H19.3003H19.2148H19.1293H19.0437H18.958H18.8723H18.7864H18.7004H18.6144H18.5282H18.442H18.3557H18.2693H18.1827H18.0961H18.0094H17.9226H17.8358H17.7488H17.6617H17.5745H17.4872H17.3999H17.3124H17.2248H17.1372H17.0494H16.9616H16.8736H16.7855H16.6974H16.6091H16.5207H16.4323H16.3437H16.255H16.1662H16.0774H15.9884H15.8993H15.8101H15.7208H15.6314H15.5419H15.4522H15.3625H15.2727H15.1827H15.0927H15.0025H14.9122H14.8219H14.7314H14.6408H14.55H14.4592H14.3683H14.2772H14.1861H14.0948H14.0034H13.9119H13.8202H13.7285H13.6366H13.5447H13.4526H13.3604H13.2681H13.1756H13.0831H12.9904H12.8976H12.8047H12.7116H12.6185H12.5252H12.4318H12.3382H12.2446H12.1508H12.0569H11.9629H11.8688H11.7745H11.6801H11.5856H11.4909H11.3962H11.3013H11.2062H11.1111H11.0158H10.9204H10.8248H10.7292H10.6334H10.5374H10.4414H10.3452H10.2488H10.1524H10.0558H9.95906H9.8622H9.7652H9.66807H9.57081H9.47341H9.37587H9.2782H9.18039H9.08244H8.98435H8.88613H8.78777H8.68926H8.59062H8.49184H8.39292H8.29386H8.19465H8.0953H7.99581H7.89618H7.79641H7.69649H7.59643H7.49622H7.39587H7.29537H7.19473H7.09394H6.993H6.89191H6.79068H6.6893H6.58777H6.4861H6.38427H6.28229H6.18016H6.07789H5.97546H5.87287H5.77014H5.66725H5.56422H5.46102H5.35768H5.25417H5.15052H5.04671H4.94274H4.83862H4.73434H4.6299H4.52531H4.42055H4.31564H4.21057H4.10534H3.99995H3.99701H3.99405H3.99106H3.98805H3.98502H3.98197H3.97889H3.97579H3.97267H3.96952H3.96636H3.96317H3.95996H3.95673H3.95347H3.9502H3.9469H3.94358H3.94024H3.93687H3.93349H3.93008H3.92665H3.92321H3.91974H3.91624H3.91273H3.9092H3.90564H3.90207H3.89847H3.89486H3.89122H3.88756H3.88388H3.88018H3.87646H3.87272H3.86896H3.86518H3.86138H3.85756H3.85372H3.84986H3.84598H3.84207H3.83815H3.83421H3.83025H3.82627H3.82228H3.81826H3.81422H3.81016H3.80609H3.80199H3.79788H3.79374H3.78959H3.78542H3.78123H3.77702H3.77279H3.76855H3.76428H3.76H3.7557H3.75138H3.74704H3.74268H3.73831H3.73392H3.72951H3.72508H3.72063H3.71617H3.71169H3.70719H3.70267H3.69814H3.69358H3.68901H3.68443H3.67982H3.6752H3.67056H3.66591H3.66124H3.65655H3.65184H3.64712H3.64238H3.63762H3.63285H3.62806H3.62326H3.61843H3.6136H3.60874H3.60387H3.59898H3.59408H3.58916H3.58423H3.57928H3.57431H3.56933H3.56433H3.55932H3.55429H3.54925H3.54419H3.53911H3.53402H3.52892H3.5238H3.51866H3.51351H3.50835H3.50317H3.49797H3.49277H3.48754H3.4823H3.47705H3.47178H3.4665H3.46121H3.4559H3.45057H3.44524H3.43988H3.43452H3.42914H3.42375H3.41834H3.41292H3.40748H3.40204H3.39657H3.3911H3.38561H3.38011H3.3746H3.36907H3.36353H3.35797H3.35241H3.34683H3.34124H3.33563H3.33001H3.32438H3.31874H3.31309H3.30742H3.30174H3.29605H3.29035H3.28463H3.2789H3.27316H3.26741H3.26165H3.25587H3.25008H3.24429H3.23848H3.23265H3.22682H3.22098H3.21512H3.20925H3.20338H3.19749H3.19159H3.18568H3.17975H3.17382H3.16788H3.16193H3.15596H3.14999H3.144H3.138H3.132H3.12598H3.11996H3.11392H3.10787H3.10181H3.09575H3.08967H3.08359H3.07749H3.07138H3.06527H3.05914H3.05301H3.04687H3.04071H3.03455H3.02838H3.0222H3.01601H3.00981H3.00361H2.99739H2.99117H2.98493H2.97869H2.97244H2.96618H2.95991H2.95364H2.94735H2.94106H2.93476H2.92845H2.92214H2.91581H2.90948H2.90314H2.89679H2.89044H2.88407H2.8777H2.87132H2.86494H2.85855H2.85215H2.84574H2.83932H2.8329H2.82647H2.82004H2.8136H2.80715H2.80069H2.79423H2.78776H2.78129H2.7748H2.76832H2.76182H2.75532H2.74881H2.7423H2.73578H2.72926H2.72273H2.71619H2.70965H2.7031H2.69654H2.68998H2.68342H2.67685H2.67027H2.66369H2.65711H2.65052H2.64392H2.63732H2.63071H2.6241H2.61748H2.61086H2.60424H2.59761H2.59097H2.58433H2.57769H2.57104H2.56439H2.55773H2.55107H2.54441H2.53774H2.53107H2.52439H2.51771H2.51103H2.50434H2.49765H2.49096H2.48426H2.47756H2.47085H2.46414H2.45743H2.45072H2.444H2.43728H2.43056H2.42383H2.4171H2.41037H2.40364H2.3969H2.39016H2.38342H2.37668H2.36993H2.36318H2.35643H2.34968H2.34292H2.33617H2.32941H2.32265H2.31589H2.30912H2.30236H2.29559H2.28882H2.28205H2.27528H2.26851H2.26173H2.25496H2.24818H2.24141H2.23463H2.22785H2.22107H2.21429H2.20751H2.20073H2.19394H2.18716H2.18038H2.1736H2.16681H2.16003H2.15324H2.14646H2.13968H2.13289H2.12611H2.11933H2.11254H2.10576H2.09898H2.0922H2.08541H2.07863H2.07185H2.06507H2.0583H2.05152H2.04474H2.03797H2.03119H2.02442H2.01765H2.01088H2.00411H1.99734H1.99057H1.98381H1.97704H1.97028H1.96352H1.95677H1.95001H1.94326H1.9365H1.92975H1.92301H1.91626H1.90952H1.90278H1.89604H1.8893H1.88257H1.87584H1.86911H1.86239H1.85567H1.84895H1.84223H1.83552H1.82881H1.8221H1.8154H1.8087H1.802H1.79531H1.78862H1.78193H1.77525H1.76857H1.7619H1.75523H1.74856H1.7419H1.73524H1.72859H1.72194H1.71529H1.70865H1.70201H1.69538H1.68875H1.68213H1.67551H1.66889H1.66228H1.65568H1.64908H1.64249H1.6359H1.62931H1.62273H1.61616H1.60959H1.60303H1.59647H1.58992H1.58338H1.57684H1.5703H1.56377H1.55725H1.55074H1.54422H1.53772H1.53122H1.52473H1.51824H1.51177H1.50529H1.49883H1.49237H1.48591H1.47947H1.47303H1.4666H1.46017H1.45375H1.44734H1.44094H1.43454H1.42815H1.42177H1.41539H1.40903H1.40267H1.39631H1.38997H1.38363H1.3773H1.37098H1.36467H1.35837H1.35207H1.34578H1.3395H1.33323H1.32696H1.32071H1.31446H1.30822H1.30199H1.29577H1.28956H1.28336H1.28207C1.93199 11.2144 12.3023 1.25 24.9997 1.25C37.6972 1.25 48.0675 11.2144 48.7174 23.75H48.7167H48.713H48.7094H48.7057H48.7021H48.6984H48.6948H48.6911H48.6874H48.6837H48.68H48.6763H48.6726H48.6689H48.6651H48.6614H48.6576H48.6539H48.6501H48.6464H48.6426H48.6388H48.635H48.6312H48.6274H48.6236H48.6198H48.6159H48.6121H48.6083H48.6044H48.6006H48.5967H48.5928H48.589H48.5851H48.5812H48.5773H48.5734H48.5695H48.5656H48.5616H48.5577H48.5538H48.5499H48.5459H48.542H48.538H48.534H48.5301H48.5261H48.5221H48.5181H48.5141H48.5101H48.5061H48.5021H48.4981H48.4941H48.49H48.486H48.482H48.4779H48.4739H48.4698H48.4658H48.4617H48.4576H48.4535H48.4495H48.4454H48.4413H48.4372H48.4331H48.429H48.4249H48.4208H48.4166H48.4125H48.4084H48.4043H48.4001H48.396H48.3918H48.3877H48.3835H48.3794H48.3752H48.371H48.3668H48.3627H48.3585H48.3543H48.3501H48.3459H48.3417H48.3375H48.3333H48.3291H48.3249H48.3207H48.3164H48.3122H48.308H48.3038H48.2995H48.2953H48.291H48.2868H48.2826H48.2783H48.2741H48.2698H48.2655H48.2613H48.257H48.2527H48.2485H48.2442H48.2399H48.2356H48.2313H48.2271H48.2228H48.2185H48.2142H48.2099H48.2056H48.2013H48.197H48.1927H48.1884H48.184H48.1797H48.1754H48.1711H48.1668H48.1625H48.1581H48.1538H48.1495H48.1452H48.1408H48.1365H48.1322H48.1278H48.1235H48.1191H48.1148H48.1105H48.1061H48.1018H48.0974H48.0931H48.0887H48.0844H48.08H48.0757H48.0713H48.067H48.0626H48.0583H48.0539H48.0495H48.0452H48.0408H48.0365H48.0321H48.0277H48.0234H48.019H48.0146H48.0103H48.0059H48.0016H47.9972H47.9928H47.9885H47.9841H47.9797H47.9754H47.971H47.9666H47.9623H47.9579H47.9535H47.9492H47.9448H47.9404H47.9361H47.9317H47.9274H47.923H47.9186H47.9143H47.9099H47.9056H47.9012H47.8968H47.8925H47.8881H47.8838H47.8794H47.8751H47.8707H47.8664H47.862H47.8577H47.8533H47.849H47.8446H47.8403H47.8359H47.8316H47.8272H47.8229H47.8186H47.8142H47.8099H47.8056H47.8012H47.7969H47.7926H47.7883H47.7839H47.7796H47.7753H47.771H47.7667H47.7624H47.7581H47.7537H47.7494H47.7451H47.7408H47.7365H47.7322H47.728H47.7237H47.7194H47.7151H47.7108H47.7065H47.7023H47.698H47.6937H47.6894H47.6852H47.6809H47.6767H47.6724H47.6681H47.6639H47.6597H47.6554H47.6512H47.6469H47.6427H47.6385H47.6342H47.63H47.6258H47.6216H47.6174H47.6132H47.609H47.6048H47.6006H47.5964H47.5922H47.588H47.5838H47.5797H47.5755H47.5713H47.5672H47.563H47.5589H47.5547H47.5506H47.5464H47.5423H47.5382H47.534H47.5299H47.5258H47.5217H47.5176H47.5135H47.5094H47.5053H47.5012H47.4971H47.493H47.489H47.4849H47.4808H47.4768H47.4727H47.4687H47.4646H47.4606H47.4566H47.4526H47.4485H47.4445H47.4405H47.4365H47.4325H47.4285H47.4245H47.4206H47.4166H47.4126H47.4087H47.4047H47.4008H47.3968H47.3929H47.389H47.385H47.3811H47.3772H47.3733H47.3694H47.3655H47.3616H47.3578H47.3539H47.35H47.3462H47.3423H47.3385H47.3347H47.3308H47.327H47.3232H47.3194H47.3156H47.3118H47.308H47.3042H47.3005H47.2967H47.2929H47.2892H47.2854H47.2817H47.278H47.2743H47.2706H47.2669H47.2632H47.2595H47.2558H47.2521H47.2485H47.2448H47.2411H47.2375H47.2339H47.2303H47.2266H47.223H47.2194H47.2158H47.2123H47.2087H47.2051H47.2016H47.198H47.1945H47.191H47.1874H47.1839H47.1804H47.1769H47.1734H47.17H47.1665H47.163H47.1596H47.1561H47.1527H47.1493H47.1459H47.1425H47.1391H47.1357H47.1323H47.129H47.1256H47.1223H47.1189H47.1156H47.1123H47.109H47.1057H47.1024H47.0991H47.0958H47.0926H47.0893H47.0861H47.0829H47.0797H47.0764H47.0732H47.0701H47.0669H47.0637H47.0606H47.0574H47.0543H47.0512H47.0481H47.045H47.0419H47.0388H47.0357H47.0327H47.0296H47.0266H47.0235H47.0205H47.0175H47.0145H47.0116H47.0086H47.0056H47.0027Z" stroke="url(#paint1_linear_523_7934)" stroke-width="0.5" shape-rendering="crispEdges"/>
</g>
<g filter="url(#filter1_d_523_7934)">
<path fill-rule="evenodd" clip-rule="evenodd" d="M26 13V9H24L24 13H20V15H24L24 19H26V15H30V13H26Z" fill="white"/>
</g>
<defs>
<filter id="filter0_d_523_7934" x="0.520203" y="0.5" width="48.9591" height="24" filterUnits="userSpaceOnUse" color-interpolation-filters="sRGB">
<feFlood flood-opacity="0" result="BackgroundImageFix"/>
<feColorMatrix in="SourceAlpha" type="matrix" values="0 0 0 0 0 0 0 0 0 0 0 0 0 0 0 0 0 0 127 0" result="hardAlpha"/>
<feOffset/>
<feGaussianBlur stdDeviation="0.25"/>
<feComposite in2="hardAlpha" operator="out"/>
<feColorMatrix type="matrix" values="0 0 0 0 0 0 0 0 0 0 0 0 0 0 0 0 0 0 0.5 0"/>
<feBlend mode="normal" in2="BackgroundImageFix" result="effect1_dropShadow_523_7934"/>
<feBlend mode="normal" in="SourceGraphic" in2="effect1_dropShadow_523_7934" result="shape"/>
</filter>
<filter id="filter1_d_523_7934" x="16" y="6" width="18" height="18" filterUnits="userSpaceOnUse" color-interpolation-filters="sRGB">
<feFlood flood-opacity="0" result="BackgroundImageFix"/>
<feColorMatrix in="SourceAlpha" type="matrix" values="0 0 0 0 0 0 0 0 0 0 0 0 0 0 0 0 0 0 127 0" result="hardAlpha"/>
<feOffset dy="1"/>
<feGaussianBlur stdDeviation="2"/>
<feComposite in2="hardAlpha" operator="out"/>
<feColorMatrix type="matrix" values="0 0 0 0 0 0 0 0 0 0 0 0 0 0 0 0 0 0 0.5 0"/>
<feBlend mode="normal" in2="BackgroundImageFix" result="effect1_dropShadow_523_7934"/>
<feBlend mode="normal" in="SourceGraphic" in2="effect1_dropShadow_523_7934" result="shape"/>
</filter>
<linearGradient id="paint0_linear_523_7934" x1="24.9997" y1="1" x2="24.9997" y2="24" gradientUnits="userSpaceOnUse">
<stop stop-color="white"/>
<stop offset="1" stop-color="white" stop-opacity="0.5"/>
</linearGradient>
<linearGradient id="paint1_linear_523_7934" x1="24.9997" y1="1" x2="24.9997" y2="24" gradientUnits="userSpaceOnUse">
<stop stop-color="white"/>
<stop offset="1" stop-color="white" stop-opacity="0.25"/>
</linearGradient>
</defs>
</svg>
