<svg width="22" height="22" viewBox="0 0 22 22" fill="none" xmlns="http://www.w3.org/2000/svg">
<circle cx="11" cy="11" r="9" fill="#7A45FF" fill-opacity="0.3"/>
<circle cx="11" cy="11" r="8.5" stroke="#7A45FF" stroke-opacity="0.6"/>
<path d="M14.1879 10.1583C14.8013 10.5518 14.8013 11.4482 14.1879 11.8417L10.29 14.3422C9.62439 14.7692 8.75 14.2913 8.75 13.5006L8.75 8.49945C8.75 7.70872 9.62439 7.23079 10.2899 7.65775L14.1879 10.1583Z" fill="#9C7BFF"/>
<path d="M14.3229 12.0521C15.0897 11.5603 15.0897 10.4397 14.3229 9.94788L10.4249 7.44733C9.59299 6.91363 8.5 7.51103 8.5 8.49945L8.5 13.5006C8.5 14.489 9.59299 15.0864 10.4249 14.5527L14.3229 12.0521Z" stroke="black" stroke-opacity="0.15" stroke-width="0.5"/>
</svg>
