<svg width="50" height="25" viewBox="0 0 50 25" fill="none" xmlns="http://www.w3.org/2000/svg">
<g filter="url(#filter0_d_532_8655)">
<path d="M2.99977 0.999996C16.9998 0.999997 27.9995 0.999998 45.9996 1C46.4996 1 47.9996 1 48.9793 1C48.4551 13.7911 37.9196 24 24.9998 24C12.0799 24 1.54448 13.7911 1.02022 0.999996C1.49977 0.999996 2.49977 0.999996 2.99977 0.999996Z" fill="#2E1F59" fill-opacity="0.35" shape-rendering="crispEdges"/>
<path d="M2.99683 1.25L2.99977 1.25L3.08176 1.25L3.16369 1.25L3.24555 1.25L3.32734 1.25L3.40907 1.25L3.49073 1.25L3.57233 1.25L3.65386 1.25L3.73532 1.25L3.81672 1.25L3.89805 1.25L3.97933 1.25L4.06053 1.25L4.14168 1.25L4.22276 1.25L4.30378 1.25L4.38474 1.25L4.46564 1.25L4.54648 1.25L4.62725 1.25L4.70797 1.25L4.78863 1.25L4.86923 1.25L4.94977 1.25L5.03025 1.25L5.11068 1.25L5.19105 1.25L5.27136 1.25L5.35161 1.25L5.43181 1.25L5.51196 1.25L5.59205 1.25L5.67208 1.25L5.75207 1.25L5.832 1.25L5.91187 1.25L5.99169 1.25L6.07146 1.25L6.15118 1.25L6.23085 1.25L6.31046 1.25L6.39003 1.25L6.46955 1.25L6.54901 1.25L6.62843 1.25L6.7078 1.25L6.78712 1.25L6.8664 1.25L6.94562 1.25L7.02481 1.25L7.10394 1.25L7.18302 1.25L7.26207 1.25L7.34106 1.25L7.42002 1.25L7.49893 1.25L7.57779 1.25L7.65661 1.25L7.73539 1.25L7.81413 1.25L7.89282 1.25L7.97148 1.25L8.05009 1.25L8.12866 1.25L8.20719 1.25L8.28568 1.25L8.36414 1.25L8.44255 1.25L8.52093 1.25L8.59927 1.25L8.67757 1.25L8.75583 1.25L8.83406 1.25L8.91225 1.25L8.99041 1.25L9.06853 1.25L9.14662 1.25L9.22467 1.25L9.30268 1.25L9.38067 1.25L9.45862 1.25L9.53654 1.25L9.61443 1.25L9.69229 1.25L9.77011 1.25L9.8479 1.25L9.92566 1.25L10.0034 1.25L10.0811 1.25L10.1588 1.25L10.2364 1.25L10.314 1.25L10.3916 1.25L10.4692 1.25L10.5467 1.25L10.6243 1.25L10.7017 1.25L10.7792 1.25L10.8566 1.25L10.934 1.25L11.0114 1.25L11.0888 1.25L11.1661 1.25L11.2435 1.25L11.3208 1.25L11.398 1.25L11.4753 1.25L11.5525 1.25L11.6297 1.25L11.7069 1.25L11.7841 1.25L11.8612 1.25L11.9384 1.25L12.0155 1.25L12.0926 1.25L12.1697 1.25L12.2467 1.25L12.3238 1.25L12.4008 1.25L12.4778 1.25L12.5548 1.25L12.6318 1.25L12.7088 1.25L12.7858 1.25L12.8627 1.25L12.9396 1.25L13.0166 1.25L13.0935 1.25L13.1704 1.25L13.2473 1.25L13.3241 1.25L13.401 1.25L13.4779 1.25L13.5547 1.25L13.6315 1.25L13.7084 1.25L13.7852 1.25L13.862 1.25L13.9388 1.25L14.0156 1.25L14.0924 1.25L14.1692 1.25L14.246 1.25L14.3228 1.25L14.3996 1.25L14.4763 1.25L14.5531 1.25L14.6299 1.25L14.7066 1.25L14.7834 1.25L14.8601 1.25L14.9369 1.25L15.0137 1.25L15.0904 1.25L15.1672 1.25L15.2439 1.25L15.3207 1.25L15.3975 1.25L15.4742 1.25L15.551 1.25L15.6277 1.25L15.7045 1.25L15.7813 1.25L15.8581 1.25L15.9349 1.25L16.0116 1.25L16.0884 1.25L16.1652 1.25L16.242 1.25L16.3189 1.25L16.3957 1.25L16.4725 1.25L16.5493 1.25L16.6262 1.25L16.703 1.25L16.7799 1.25L16.8568 1.25L16.9337 1.25L17.0106 1.25L17.0875 1.25L17.1644 1.25L17.2413 1.25L17.3183 1.25L17.3952 1.25L17.4722 1.25L17.5492 1.25L17.6262 1.25L17.7032 1.25L17.7802 1.25L17.8573 1.25L17.9343 1.25L18.0114 1.25L18.0885 1.25L18.1656 1.25L18.2427 1.25L18.3199 1.25L18.3971 1.25L18.4743 1.25L18.5515 1.25L18.6287 1.25L18.7059 1.25L18.7832 1.25L18.8605 1.25L18.9378 1.25L19.0151 1.25L19.0925 1.25L19.1699 1.25L19.2473 1.25L19.3247 1.25L19.4022 1.25L19.4797 1.25L19.5572 1.25L19.6347 1.25L19.7123 1.25L19.7898 1.25L19.8675 1.25L19.9451 1.25L20.0228 1.25L20.1005 1.25L20.1782 1.25L20.256 1.25L20.3337 1.25L20.4116 1.25L20.4894 1.25L20.5673 1.25L20.6452 1.25L20.7232 1.25L20.8011 1.25L20.8791 1.25L20.9572 1.25L21.0353 1.25L21.1134 1.25L21.1915 1.25L21.2697 1.25L21.3479 1.25L21.4262 1.25L21.5045 1.25L21.5828 1.25L21.6612 1.25L21.7396 1.25L21.818 1.25L21.8965 1.25L21.975 1.25L22.0536 1.25L22.1322 1.25L22.2109 1.25L22.2895 1.25L22.3683 1.25L22.447 1.25L22.5258 1.25L22.6047 1.25L22.6836 1.25L22.7625 1.25L22.8415 1.25L22.9206 1.25L22.9996 1.25L23.0788 1.25L23.1579 1.25L23.2372 1.25L23.3164 1.25L23.3957 1.25L23.4751 1.25L23.5545 1.25L23.634 1.25L23.7135 1.25L23.793 1.25L23.8726 1.25L23.9523 1.25L24.032 1.25L24.1117 1.25L24.1916 1.25L24.2714 1.25L24.3513 1.25L24.4313 1.25L24.5113 1.25L24.5914 1.25L24.6715 1.25L24.7517 1.25L24.832 1.25L24.9123 1.25L24.9926 1.25L25.0731 1.25L25.1535 1.25L25.2341 1.25L25.3146 1.25L25.3953 1.25L25.476 1.25L25.5568 1.25L25.6376 1.25L25.7185 1.25L25.7994 1.25L25.8804 1.25L25.9615 1.25L26.0426 1.25L26.1238 1.25L26.2051 1.25L26.2864 1.25L26.3678 1.25L26.4492 1.25L26.5307 1.25L26.6123 1.25L26.694 1.25L26.7757 1.25L26.8575 1.25L26.9393 1.25L27.0212 1.25L27.1032 1.25L27.1853 1.25L27.2674 1.25L27.3496 1.25L27.4318 1.25L27.5142 1.25L27.5966 1.25L27.679 1.25L27.7616 1.25L27.8442 1.25L27.9269 1.25L28.0096 1.25L28.0925 1.25L28.1754 1.25L28.2584 1.25L28.3414 1.25L28.4246 1.25L28.5078 1.25L28.5911 1.25L28.6744 1.25L28.7579 1.25L28.8414 1.25L28.925 1.25L29.0086 1.25L29.0924 1.25L29.1762 1.25L29.2601 1.25L29.3441 1.25L29.4282 1.25L29.5124 1.25L29.5966 1.25L29.6809 1.25L29.7653 1.25L29.8498 1.25L29.9343 1.25L30.019 1.25L30.1037 1.25L30.1885 1.25L30.2735 1.25L30.3584 1.25L30.4435 1.25L30.5287 1.25L30.6139 1.25L30.6993 1.25L30.7847 1.25L30.8702 1.25L30.9558 1.25L31.0415 1.25L31.1273 1.25L31.2131 1.25L31.2991 1.25L31.3851 1.25L31.4713 1.25L31.5575 1.25L31.6438 1.25L31.7303 1.25L31.8168 1.25L31.9034 1.25L31.9901 1.25L32.0769 1.25L32.1638 1.25L32.2507 1.25L32.3378 1.25L32.425 1.25L32.5123 1.25L32.5996 1.25L32.6871 1.25L32.7747 1.25L32.8623 1.25L32.9501 1.25L33.038 1.25L33.1259 1.25L33.214 1.25L33.3022 1.25L33.3904 1.25L33.4788 1.25L33.5673 1.25L33.6558 1.25L33.7445 1.25L33.8333 1.25L33.9222 1.25L34.0111 1.25L34.1002 1.25L34.1894 1.25L34.2787 1.25L34.3681 1.25L34.4577 1.25L34.5473 1.25L34.637 1.25L34.7268 1.25L34.8168 1.25L34.9068 1.25L34.997 1.25L35.0873 1.25L35.1777 1.25L35.2682 1.25L35.3588 1.25L35.4495 1.25L35.5403 1.25L35.6312 1.25L35.7223 1.25L35.8135 1.25L35.9047 1.25L35.9961 1.25L36.0876 1.25L36.1793 1.25L36.271 1.25L36.3629 1.25L36.4548 1.25L36.5469 1.25L36.6391 1.25L36.7315 1.25L36.8239 1.25L36.9165 1.25L37.0091 1.25L37.1019 1.25L37.1949 1.25L37.2879 1.25L37.3811 1.25L37.4743 1.25L37.5677 1.25L37.6613 1.25L37.7549 1.25L37.8487 1.25L37.9426 1.25L38.0366 1.25L38.1308 1.25L38.225 1.25L38.3194 1.25L38.4139 1.25L38.5086 1.25L38.6034 1.25L38.6983 1.25L38.7933 1.25L38.8884 1.25L38.9837 1.25L39.0791 1.25L39.1747 1.25L39.2703 1.25L39.3662 1.25L39.4621 1.25L39.5581 1.25L39.6543 1.25L39.7507 1.25L39.8471 1.25L39.9437 1.25L40.0405 1.25L40.1373 1.25L40.2343 1.25L40.3314 1.25L40.4287 1.25L40.5261 1.25L40.6236 1.25L40.7213 1.25L40.8191 1.25L40.9171 1.25L41.0152 1.25L41.1134 1.25L41.2117 1.25L41.3102 1.25L41.4089 1.25L41.5077 1.25L41.6066 1.25L41.7057 1.25L41.8049 1.25L41.9042 1.25L42.0037 1.25L42.1033 1.25L42.2031 1.25L42.303 1.25L42.4031 1.25L42.5033 1.25L42.6036 1.25L42.7041 1.25L42.8048 1.25L42.9056 1.25L43.0065 1.25L43.1076 1.25L43.2088 1.25L43.3102 1.25L43.4117 1.25L43.5134 1.25L43.6152 1.25L43.7172 1.25L43.8193 1.25L43.9216 1.25L44.0241 1.25L44.1266 1.25L44.2294 1.25L44.3323 1.25L44.4353 1.25L44.5385 1.25L44.6418 1.25L44.7453 1.25L44.849 1.25L44.9528 1.25L45.0568 1.25L45.1609 1.25L45.2652 1.25L45.3696 1.25L45.4742 1.25L45.579 1.25L45.6839 1.25L45.7889 1.25L45.8942 1.25L45.9996 1.25L46.0025 1.25L46.0055 1.25L46.0085 1.25L46.0115 1.25L46.0145 1.25L46.0175 1.25L46.0206 1.25L46.0237 1.25L46.0268 1.25L46.03 1.25L46.0332 1.25L46.0363 1.25L46.0396 1.25L46.0428 1.25L46.046 1.25L46.0493 1.25L46.0526 1.25L46.0559 1.25L46.0593 1.25L46.0626 1.25L46.066 1.25L46.0694 1.25L46.0729 1.25L46.0763 1.25L46.0798 1.25L46.0833 1.25L46.0868 1.25L46.0903 1.25L46.0939 1.25L46.0974 1.25L46.101 1.25L46.1047 1.25L46.1083 1.25L46.112 1.25L46.1156 1.25L46.1193 1.25L46.1231 1.25L46.1268 1.25L46.1306 1.25L46.1343 1.25L46.1381 1.25L46.142 1.25L46.1458 1.25L46.1497 1.25L46.1535 1.25L46.1574 1.25L46.1614 1.25L46.1653 1.25L46.1693 1.25L46.1732 1.25L46.1772 1.25L46.1813 1.25L46.1853 1.25L46.1894 1.25L46.1934 1.25L46.1975 1.25L46.2016 1.25L46.2058 1.25L46.2099 1.25L46.2141 1.25L46.2183 1.25L46.2225 1.25L46.2267 1.25L46.231 1.25L46.2352 1.25L46.2395 1.25L46.2438 1.25L46.2481 1.25L46.2525 1.25L46.2568 1.25L46.2612 1.25L46.2656 1.25L46.27 1.25L46.2744 1.25L46.2789 1.25L46.2833 1.25L46.2878 1.25L46.2923 1.25L46.2968 1.25L46.3014 1.25L46.3059 1.25L46.3105 1.25L46.3151 1.25L46.3197 1.25L46.3243 1.25L46.3289 1.25L46.3336 1.25L46.3383 1.25L46.343 1.25L46.3477 1.25L46.3524 1.25L46.3571 1.25L46.3619 1.25L46.3667 1.25L46.3715 1.25L46.3763 1.25L46.3811 1.25L46.3859 1.25L46.3908 1.25L46.3956 1.25L46.4005 1.25L46.4054 1.25L46.4104 1.25L46.4153 1.25L46.4202 1.25L46.4252 1.25L46.4302 1.25L46.4352 1.25L46.4402 1.25L46.4452 1.25L46.4503 1.25L46.4553 1.25L46.4604 1.25L46.4655 1.25L46.4706 1.25L46.4757 1.25L46.4809 1.25L46.486 1.25L46.4912 1.25L46.4963 1.25L46.5015 1.25L46.5067 1.25L46.512 1.25L46.5172 1.25L46.5225 1.25L46.5277 1.25L46.533 1.25L46.5383 1.25L46.5436 1.25L46.5489 1.25L46.5543 1.25L46.5596 1.25L46.565 1.25L46.5704 1.25L46.5758 1.25L46.5812 1.25L46.5866 1.25L46.592 1.25L46.5975 1.25L46.6029 1.25L46.6084 1.25L46.6139 1.25L46.6194 1.25L46.6249 1.25L46.6304 1.25L46.636 1.25L46.6415 1.25L46.6471 1.25L46.6527 1.25L46.6583 1.25L46.6639 1.25L46.6695 1.25L46.6751 1.25L46.6808 1.25L46.6864 1.25L46.6921 1.25L46.6978 1.25L46.7035 1.25L46.7092 1.25L46.7149 1.25L46.7206 1.25L46.7264 1.25L46.7321 1.25L46.7379 1.25L46.7436 1.25L46.7494 1.25L46.7552 1.25L46.761 1.25L46.7669 1.25L46.7727 1.25L46.7785 1.25L46.7844 1.25L46.7903 1.25L46.7961 1.25L46.802 1.25L46.8079 1.25L46.8138 1.25L46.8198 1.25L46.8257 1.25L46.8316 1.25L46.8376 1.25L46.8436 1.25L46.8495 1.25L46.8555 1.25L46.8615 1.25L46.8675 1.25L46.8735 1.25L46.8796 1.25L46.8856 1.25L46.8916 1.25L46.8977 1.25L46.9038 1.25L46.9098 1.25L46.9159 1.25L46.922 1.25L46.9281 1.25L46.9342 1.25L46.9404 1.25L46.9465 1.25L46.9526 1.25L46.9588 1.25L46.965 1.25L46.9711 1.25L46.9773 1.25L46.9835 1.25L46.9897 1.25L46.9959 1.25L47.0021 1.25L47.0083 1.25L47.0146 1.25L47.0208 1.25L47.0271 1.25L47.0333 1.25L47.0396 1.25L47.0459 1.25L47.0522 1.25L47.0585 1.25L47.0648 1.25L47.0711 1.25L47.0774 1.25L47.0837 1.25L47.09 1.25L47.0964 1.25L47.1027 1.25L47.1091 1.25L47.1154 1.25L47.1218 1.25L47.1282 1.25L47.1346 1.25L47.141 1.25L47.1474 1.25L47.1538 1.25L47.1602 1.25L47.1666 1.25L47.173 1.25L47.1795 1.25L47.1859 1.25L47.1924 1.25L47.1988 1.25L47.2053 1.25L47.2118 1.25L47.2182 1.25L47.2247 1.25L47.2312 1.25L47.2377 1.25L47.2442 1.25L47.2507 1.25L47.2572 1.25L47.2637 1.25L47.2703 1.25L47.2768 1.25L47.2833 1.25L47.2899 1.25L47.2964 1.25L47.303 1.25L47.3095 1.25L47.3161 1.25L47.3227 1.25L47.3292 1.25L47.3358 1.25L47.3424 1.25L47.349 1.25L47.3556 1.25L47.3622 1.25L47.3688 1.25L47.3754 1.25L47.382 1.25L47.3887 1.25L47.3953 1.25L47.4019 1.25L47.4085 1.25L47.4152 1.25L47.4218 1.25L47.4285 1.25L47.4351 1.25L47.4418 1.25L47.4484 1.25L47.4551 1.25L47.4618 1.25L47.4684 1.25L47.4751 1.25L47.4818 1.25L47.4885 1.25L47.4952 1.25L47.5019 1.25L47.5086 1.25L47.5153 1.25L47.522 1.25L47.5287 1.25L47.5354 1.25L47.5421 1.25L47.5488 1.25L47.5555 1.25L47.5622 1.25L47.569 1.25L47.5757 1.25L47.5824 1.25L47.5891 1.25L47.5959 1.25L47.6026 1.25L47.6094 1.25L47.6161 1.25L47.6228 1.25L47.6296 1.25L47.6363 1.25L47.6431 1.25L47.6498 1.25L47.6566 1.25L47.6633 1.25L47.6701 1.25L47.6769 1.25L47.6836 1.25L47.6904 1.25L47.6972 1.25L47.7039 1.25L47.7107 1.25L47.7175 1.25L47.7242 1.25L47.731 1.25L47.7378 1.25L47.7446 1.25L47.7513 1.25L47.7581 1.25L47.7649 1.25L47.7717 1.25L47.7784 1.25L47.7852 1.25L47.792 1.25L47.7988 1.25L47.8056 1.25L47.8124 1.25L47.8191 1.25L47.8259 1.25L47.8327 1.25L47.8395 1.25L47.8463 1.25L47.8531 1.25L47.8598 1.25L47.8666 1.25L47.8734 1.25L47.8802 1.25L47.887 1.25L47.8938 1.25L47.9005 1.25L47.9073 1.25L47.9141 1.25L47.9209 1.25L47.9277 1.25L47.9344 1.25L47.9412 1.25L47.948 1.25L47.9548 1.25L47.9615 1.25L47.9683 1.25L47.9751 1.25L47.9819 1.25L47.9886 1.25L47.9954 1.25L48.0022 1.25L48.0089 1.25L48.0157 1.25L48.0225 1.25L48.0292 1.25L48.036 1.25L48.0427 1.25L48.0495 1.25L48.0563 1.25L48.063 1.25L48.0698 1.25L48.0765 1.25L48.0833 1.25L48.09 1.25L48.0967 1.25L48.1035 1.25L48.1102 1.25L48.1169 1.25L48.1237 1.25L48.1304 1.25L48.1371 1.25L48.1438 1.25L48.1506 1.25L48.1573 1.25L48.164 1.25L48.1707 1.25L48.1774 1.25L48.1841 1.25L48.1908 1.25L48.1975 1.25L48.2042 1.25L48.2109 1.25L48.2176 1.25L48.2243 1.25L48.2309 1.25L48.2376 1.25L48.2443 1.25L48.251 1.25L48.2576 1.25L48.2643 1.25L48.2709 1.25L48.2776 1.25L48.2842 1.25L48.2909 1.25L48.2975 1.25L48.3041 1.25L48.3108 1.25L48.3174 1.25L48.324 1.25L48.3306 1.25L48.3372 1.25L48.3438 1.25L48.3504 1.25L48.357 1.25L48.3636 1.25L48.3702 1.25L48.3768 1.25L48.3834 1.25L48.3899 1.25L48.3965 1.25L48.403 1.25L48.4096 1.25L48.4161 1.25L48.4227 1.25L48.4292 1.25L48.4357 1.25L48.4423 1.25L48.4488 1.25L48.4553 1.25L48.4618 1.25L48.4683 1.25L48.4748 1.25L48.4813 1.25L48.4877 1.25L48.4942 1.25L48.5007 1.25L48.5071 1.25L48.5136 1.25L48.52 1.25L48.5265 1.25L48.5329 1.25L48.5393 1.25L48.5458 1.25L48.5522 1.25L48.5586 1.25L48.565 1.25L48.5714 1.25L48.5777 1.25L48.5841 1.25L48.5905 1.25L48.5968 1.25L48.6032 1.25L48.6095 1.25L48.6159 1.25L48.6222 1.25L48.6285 1.25L48.6348 1.25L48.6411 1.25L48.6474 1.25L48.6537 1.25L48.66 1.25L48.6663 1.25L48.6726 1.25L48.6788 1.25L48.6851 1.25L48.6913 1.25L48.6975 1.25L48.7037 1.25L48.71 1.25L48.7162 1.25L48.7174 1.25C48.0675 13.7856 37.6972 23.75 24.9998 23.75C12.3023 23.75 1.93201 13.7856 1.28209 1.25L1.28285 1.25L1.28648 1.25L1.29012 1.25L1.29377 1.25L1.29742 1.25L1.30108 1.25L1.30475 1.25L1.30843 1.25L1.31211 1.25L1.31581 1.25L1.31951 1.25L1.32322 1.25L1.32693 1.25L1.33066 1.25L1.33439 1.25L1.33813 1.25L1.34188 1.25L1.34563 1.25L1.34939 1.25L1.35316 1.25L1.35694 1.25L1.36072 1.25L1.36452 1.25L1.36831 1.25L1.37212 1.25L1.37593 1.25L1.37975 1.25L1.38358 1.25L1.38741 1.25L1.39125 1.25L1.3951 1.25L1.39895 1.25L1.40281 1.25L1.40668 1.25L1.41056 1.25L1.41444 1.25L1.41833 1.25L1.42222 1.25L1.42612 1.25L1.43003 1.25L1.43394 1.25L1.43786 1.25L1.44179 1.25L1.44573 1.25L1.44966 1.25L1.45361 1.25L1.45756 1.25L1.46152 1.25L1.46548 1.25L1.46945 1.25L1.47343 1.25L1.47741 1.25L1.4814 1.25L1.48539 1.25L1.48939 1.25L1.4934 1.25L1.49741 1.25L1.50142 1.25L1.50545 1.25L1.50947 1.25L1.51351 1.25L1.51755 1.25L1.52159 1.25L1.52564 1.25L1.5297 1.25L1.53375 1.25L1.53782 1.25L1.54189 1.25L1.54597 1.25L1.55005 1.25L1.55413 1.25L1.55823 1.25L1.56232 1.25L1.56642 1.25L1.57053 1.25L1.57464 1.25L1.57875 1.25L1.58288 1.25L1.587 1.25L1.59113 1.25L1.59526 1.25L1.5994 1.25L1.60354 1.25L1.60769 1.25L1.61185 1.25L1.616 1.25L1.62016 1.25L1.62433 1.25L1.6285 1.25L1.63267 1.25L1.63685 1.25L1.64103 1.25L1.64522 1.25L1.64941 1.25L1.6536 1.25L1.6578 1.25L1.662 1.25L1.6662 1.25L1.67042 1.25L1.67463 1.25L1.67885 1.25L1.68307 1.25L1.68729 1.25L1.69152 1.25L1.69575 1.25L1.69998 1.25L1.70422 1.25L1.70846 1.25L1.71271 1.25L1.71696 1.25L1.72121 1.25L1.72546 1.25L1.72972 1.25L1.73398 1.25L1.73825 1.25L1.74251 1.25L1.74678 1.25L1.75105 1.25L1.75533 1.25L1.75961 1.25L1.76389 1.25L1.76818 1.25L1.77246 1.25L1.77675 1.25L1.78104 1.25L1.78534 1.25L1.78963 1.25L1.79393 1.25L1.79824 1.25L1.80254 1.25L1.80684 1.25L1.81116 1.25L1.81547 1.25L1.81978 1.25L1.82409 1.25L1.82841 1.25L1.83273 1.25L1.83705 1.25L1.84138 1.25L1.84571 1.25L1.85003 1.25L1.85436 1.25L1.85869 1.25L1.86302 1.25L1.86736 1.25L1.87169 1.25L1.87603 1.25L1.88037 1.25L1.88471 1.25L1.88906 1.25L1.8934 1.25L1.89775 1.25L1.90209 1.25L1.90644 1.25L1.91079 1.25L1.91514 1.25L1.91949 1.25L1.92384 1.25L1.92819 1.25L1.93255 1.25L1.93691 1.25L1.94126 1.25L1.94562 1.25L1.94998 1.25L1.95434 1.25L1.9587 1.25L1.96306 1.25L1.96742 1.25L1.97178 1.25L1.97614 1.25L1.98051 1.25L1.98487 1.25L1.98923 1.25L1.99359 1.25L1.99796 1.25L2.00232 1.25L2.00669 1.25L2.01105 1.25L2.01542 1.25L2.01978 1.25L2.02415 1.25L2.02851 1.25L2.03288 1.25L2.03724 1.25L2.04161 1.25L2.04597 1.25L2.05034 1.25L2.0547 1.25L2.05906 1.25L2.06343 1.25L2.06779 1.25L2.07215 1.25L2.07652 1.25L2.08088 1.25L2.08524 1.25L2.0896 1.25L2.09396 1.25L2.09832 1.25L2.10268 1.25L2.10703 1.25L2.11139 1.25L2.11575 1.25L2.1201 1.25L2.12446 1.25L2.12881 1.25L2.13316 1.25L2.13751 1.25L2.14186 1.25L2.14621 1.25L2.15055 1.25L2.1549 1.25L2.15924 1.25L2.16359 1.25L2.16793 1.25L2.17227 1.25L2.17661 1.25L2.18094 1.25L2.18528 1.25L2.18961 1.25L2.19394 1.25L2.19827 1.25L2.2026 1.25L2.20693 1.25L2.21125 1.25L2.21557 1.25L2.21989 1.25L2.22421 1.25L2.22853 1.25L2.23284 1.25L2.23715 1.25L2.24146 1.25L2.24577 1.25L2.25007 1.25L2.25438 1.25L2.25868 1.25L2.26298 1.25L2.26727 1.25L2.27156 1.25L2.27585 1.25L2.28014 1.25L2.28443 1.25L2.28871 1.25L2.29299 1.25L2.29726 1.25L2.30154 1.25L2.30581 1.25L2.31008 1.25L2.31434 1.25L2.3186 1.25L2.32286 1.25L2.32712 1.25L2.33137 1.25L2.33562 1.25L2.33986 1.25L2.34411 1.25L2.34834 1.25L2.35258 1.25L2.35681 1.25L2.36104 1.25L2.36527 1.25L2.36949 1.25L2.3737 1.25L2.37792 1.25L2.38213 1.25L2.38634 1.25L2.39054 1.25L2.39474 1.25L2.39893 1.25L2.40312 1.25L2.40731 1.25L2.41149 1.25L2.41567 1.25L2.41985 1.25L2.42402 1.25L2.42818 1.25L2.43235 1.25L2.4365 1.25L2.44066 1.25L2.44481 1.25L2.44895 1.25L2.45309 1.25L2.45723 1.25L2.46136 1.25L2.46548 1.25L2.46961 1.25L2.47372 1.25L2.47783 1.25L2.48194 1.25L2.48604 1.25L2.49014 1.25L2.49423 1.25L2.49832 1.25L2.5024 1.25L2.50648 1.25L2.51055 1.25L2.51462 1.25L2.51868 1.25L2.52274 1.25L2.52678 1.25L2.53083 1.25L2.53487 1.25L2.53891 1.25L2.54294 1.25L2.54696 1.25L2.55098 1.25L2.55499 1.25L2.559 1.25L2.563 1.25L2.56699 1.25L2.57098 1.25L2.57496 1.25L2.57894 1.25L2.58291 1.25L2.58688 1.25L2.59084 1.25L2.59479 1.25L2.59874 1.25L2.60268 1.25L2.60662 1.25L2.61054 1.25L2.61447 1.25L2.61838 1.25L2.62229 1.25L2.6262 1.25L2.63009 1.25L2.63398 1.25L2.63787 1.25L2.64174 1.25L2.64561 1.25L2.64947 1.25L2.65333 1.25L2.65718 1.25L2.66102 1.25L2.66486 1.25L2.66869 1.25L2.67251 1.25L2.67632 1.25L2.68013 1.25L2.68393 1.25L2.68772 1.25L2.69151 1.25L2.69529 1.25L2.69906 1.25L2.70282 1.25L2.70658 1.25L2.71033 1.25L2.71407 1.25L2.7178 1.25L2.72153 1.25L2.72525 1.25L2.72896 1.25L2.73266 1.25L2.73636 1.25L2.74005 1.25L2.74372 1.25L2.7474 1.25L2.75106 1.25L2.75472 1.25L2.75836 1.25L2.762 1.25L2.76563 1.25L2.76926 1.25L2.77287 1.25L2.77648 1.25L2.78008 1.25L2.78367 1.25L2.78725 1.25L2.79082 1.25L2.79439 1.25L2.79794 1.25L2.80149 1.25L2.80503 1.25L2.80856 1.25L2.81208 1.25L2.81559 1.25L2.81909 1.25L2.82259 1.25L2.82607 1.25L2.82955 1.25L2.83302 1.25L2.83648 1.25L2.83993 1.25L2.84337 1.25L2.8468 1.25L2.85022 1.25L2.85363 1.25L2.85703 1.25L2.86043 1.25L2.86381 1.25L2.86719 1.25L2.87055 1.25L2.87391 1.25L2.87726 1.25L2.88059 1.25L2.88392 1.25L2.88724 1.25L2.89054 1.25L2.89384 1.25L2.89713 1.25L2.9004 1.25L2.90367 1.25L2.90693 1.25L2.91018 1.25L2.91342 1.25L2.91664 1.25L2.91986 1.25L2.92307 1.25L2.92626 1.25L2.92945 1.25L2.93262 1.25L2.93579 1.25L2.93894 1.25L2.94209 1.25L2.94522 1.25L2.94834 1.25L2.95146 1.25L2.95456 1.25L2.95765 1.25L2.96073 1.25L2.9638 1.25L2.96686 1.25L2.9699 1.25L2.97294 1.25L2.97597 1.25L2.97898 1.25L2.98198 1.25L2.98498 1.25L2.98796 1.25L2.99093 1.25L2.99388 1.25L2.99683 1.25Z" stroke="#7C51FF" stroke-width="0.5" shape-rendering="crispEdges"/>
</g>
<g filter="url(#filter1_d_532_8655)">
<mask id="path-3-outside-1_532_8655" maskUnits="userSpaceOnUse" x="19" y="9" width="12" height="4" fill="black">
<rect fill="white" x="19" y="9" width="12" height="4"/>
<path d="M20 10H30V12H20V10Z"/>
</mask>
<path d="M20 10H30V12H20V10Z" fill="#7345FF"/>
<path d="M20 10V9.5H19.5V10H20ZM30 10H30.5V9.5H30V10ZM30 12V12.5H30.5V12H30ZM20 12H19.5V12.5H20V12ZM20 10.5H30V9.5H20V10.5ZM29.5 10V12H30.5V10H29.5ZM30 11.5H20V12.5H30V11.5ZM20.5 12V10H19.5V12H20.5Z" fill="#CCBDFF" mask="url(#path-3-outside-1_532_8655)"/>
</g>
<defs>
<filter id="filter0_d_532_8655" x="0.0202026" y="0" width="49.9591" height="25" filterUnits="userSpaceOnUse" color-interpolation-filters="sRGB">
<feFlood flood-opacity="0" result="BackgroundImageFix"/>
<feColorMatrix in="SourceAlpha" type="matrix" values="0 0 0 0 0 0 0 0 0 0 0 0 0 0 0 0 0 0 127 0" result="hardAlpha"/>
<feOffset/>
<feGaussianBlur stdDeviation="0.5"/>
<feComposite in2="hardAlpha" operator="out"/>
<feColorMatrix type="matrix" values="0 0 0 0 0 0 0 0 0 0 0 0 0 0 0 0 0 0 0.25 0"/>
<feBlend mode="normal" in2="BackgroundImageFix" result="effect1_dropShadow_532_8655"/>
<feBlend mode="normal" in="SourceGraphic" in2="effect1_dropShadow_532_8655" result="shape"/>
</filter>
<filter id="filter1_d_532_8655" x="13.5" y="4.5" width="23" height="15" filterUnits="userSpaceOnUse" color-interpolation-filters="sRGB">
<feFlood flood-opacity="0" result="BackgroundImageFix"/>
<feColorMatrix in="SourceAlpha" type="matrix" values="0 0 0 0 0 0 0 0 0 0 0 0 0 0 0 0 0 0 127 0" result="hardAlpha"/>
<feOffset dy="1"/>
<feGaussianBlur stdDeviation="3"/>
<feComposite in2="hardAlpha" operator="out"/>
<feColorMatrix type="matrix" values="0 0 0 0 0.537255 0 0 0 0 0.384314 0 0 0 0 1 0 0 0 1 0"/>
<feBlend mode="normal" in2="BackgroundImageFix" result="effect1_dropShadow_532_8655"/>
<feBlend mode="normal" in="SourceGraphic" in2="effect1_dropShadow_532_8655" result="shape"/>
</filter>
</defs>
</svg>
