<svg width="24" height="24" viewBox="0 0 24 24" fill="none" xmlns="http://www.w3.org/2000/svg">
<rect opacity="0.25" width="24" height="24" rx="6" fill="#7A45FF"/>
<mask id="path-2-outside-1_340_14078" maskUnits="userSpaceOnUse" x="6" y="6" width="12" height="12" fill="black">
<rect fill="white" x="6" y="6" width="12" height="12"/>
<path fill-rule="evenodd" clip-rule="evenodd" d="M11.9905 12.8744L16.096 16.9799L16.9799 16.096L12.8744 11.9905L16.9799 7.8851L16.096 7.00121L11.9905 11.1067L7.88388 7L7 7.88388L11.1067 11.9905L7 16.0972L7.88388 16.9811L11.9905 12.8744Z"/>
</mask>
<path fill-rule="evenodd" clip-rule="evenodd" d="M11.9905 12.8744L16.096 16.9799L16.9799 16.096L12.8744 11.9905L16.9799 7.8851L16.096 7.00121L11.9905 11.1067L7.88388 7L7 7.88388L11.1067 11.9905L7 16.0972L7.88388 16.9811L11.9905 12.8744Z" fill="#9C7BFF"/>
<path d="M16.096 16.9799L15.7424 17.3334L16.096 17.687L16.4495 17.3334L16.096 16.9799ZM11.9905 12.8744L12.3441 12.5209L11.9905 12.1673L11.637 12.5209L11.9905 12.8744ZM16.9799 16.096L17.3334 16.4495L17.687 16.096L17.3334 15.7424L16.9799 16.096ZM12.8744 11.9905L12.5209 11.637L12.1673 11.9905L12.5209 12.3441L12.8744 11.9905ZM16.9799 7.8851L17.3334 8.23865L17.687 7.8851L17.3334 7.53154L16.9799 7.8851ZM16.096 7.00121L16.4495 6.64766L16.096 6.29411L15.7424 6.64766L16.096 7.00121ZM11.9905 11.1067L11.637 11.4602L11.9905 11.8138L12.3441 11.4602L11.9905 11.1067ZM7.88388 7L8.23744 6.64645L7.88388 6.29289L7.53033 6.64645L7.88388 7ZM7 7.88388L6.64645 7.53033L6.29289 7.88388L6.64645 8.23744L7 7.88388ZM11.1067 11.9905L11.4602 12.3441L11.8138 11.9905L11.4602 11.637L11.1067 11.9905ZM7 16.0972L6.64645 15.7436L6.29289 16.0972L6.64645 16.4507L7 16.0972ZM7.88388 16.9811L7.53033 17.3346L7.88388 17.6882L8.23744 17.3346L7.88388 16.9811ZM16.4495 16.6263L12.3441 12.5209L11.637 13.228L15.7424 17.3334L16.4495 16.6263ZM16.6263 15.7424L15.7424 16.6263L16.4495 17.3334L17.3334 16.4495L16.6263 15.7424ZM12.5209 12.3441L16.6263 16.4495L17.3334 15.7424L13.228 11.637L12.5209 12.3441ZM16.6263 7.53154L12.5209 11.637L13.228 12.3441L17.3334 8.23865L16.6263 7.53154ZM15.7424 7.35477L16.6263 8.23865L17.3334 7.53154L16.4495 6.64766L15.7424 7.35477ZM12.3441 11.4602L16.4495 7.35477L15.7424 6.64766L11.637 10.7531L12.3441 11.4602ZM7.53033 7.35355L11.637 11.4602L12.3441 10.7531L8.23744 6.64645L7.53033 7.35355ZM7.35355 8.23744L8.23744 7.35355L7.53033 6.64645L6.64645 7.53033L7.35355 8.23744ZM11.4602 11.637L7.35355 7.53033L6.64645 8.23744L10.7531 12.3441L11.4602 11.637ZM7.35355 16.4507L11.4602 12.3441L10.7531 11.637L6.64645 15.7436L7.35355 16.4507ZM8.23744 16.6275L7.35355 15.7436L6.64645 16.4507L7.53033 17.3346L8.23744 16.6275ZM11.637 12.5209L7.53033 16.6275L8.23744 17.3346L12.3441 13.228L11.637 12.5209Z" fill="black" fill-opacity="0.2" mask="url(#path-2-outside-1_340_14078)"/>
</svg>
