<svg width="20" height="20" viewBox="0 0 20 20" fill="none" xmlns="http://www.w3.org/2000/svg">
<rect opacity="0.9" x="1.5" y="1.5" width="17" height="17" rx="3" fill="#2A2E54" stroke="#111326"/>
<path d="M14.4849 14.1719C14.6807 14.368 14.6808 14.6858 14.4849 14.8818C14.2889 15.0779 13.9711 15.0777 13.7749 14.8818L14.4849 14.1719Z" fill="#9C7BFF"/>
<path d="M12.9185 5.38868C13.0723 5.23103 13.3131 5.207 13.4917 5.3213L13.564 5.37891L13.7818 5.60255C14.8468 6.74379 15.5004 8.2773 15.5005 9.96192C15.5005 11.429 15.002 12.7791 14.1705 13.8574L14.4849 14.1719L14.1294 14.5264L13.7749 14.8818L10.0171 11.124V11.1387L6.55815 7.6797H6.57182L5.10112 6.20899L5.03764 6.12989C4.90899 5.93499 4.92955 5.66962 5.10112 5.49806C5.2727 5.32655 5.53808 5.30591 5.73296 5.43458L5.81206 5.49806L7.63725 7.32423L9.56499 5.39747C9.74265 5.24541 10.0171 5.37155 10.0171 5.60548V9.70313L11.8716 11.5586C12.1445 11.0885 12.3042 10.5446 12.3042 9.96192C12.3042 9.09346 11.9578 8.30584 11.3951 7.7295L11.2789 7.6172L11.2173 7.54786C11.0941 7.37547 11.1041 7.1334 11.2535 6.97169C11.4032 6.81019 11.6434 6.782 11.8248 6.89161L11.899 6.9463L12.0474 7.09083C12.7704 7.83092 13.2173 8.8449 13.2173 9.96192C13.2173 10.7974 12.9644 11.5732 12.5357 12.2217L13.5201 13.2061C14.1897 12.2976 14.5874 11.1767 14.5874 9.96192C14.5873 8.518 14.0282 7.20446 13.1148 6.22559L12.9273 6.03419L12.8677 5.9629C12.7485 5.78745 12.7649 5.54674 12.9185 5.38868Z" fill="#9C7BFF"/>
<path d="M10.0171 12.4297V14.457C10.0167 14.6906 9.74251 14.8161 9.56499 14.6641L7.28276 12.2451H5.91264C5.40875 12.2449 5.00078 11.8359 5.00053 11.332V8.59278C5.0006 8.27243 5.16489 7.99003 5.4146 7.82716L10.0171 12.4297Z" fill="#9C7BFF"/>
</svg>
