<svg width="48" height="48" viewBox="0 0 48 48" fill="none" xmlns="http://www.w3.org/2000/svg">
<rect opacity="0.9" x="4.5" y="4.5" width="39" height="39" rx="7.5" fill="#2A2E54" stroke="#111326"/>
<path d="M23.2266 14.7953C23.5826 14.4901 24.1328 14.7434 24.1328 15.2123V32.9496C24.1328 33.4185 23.5826 33.6718 23.2266 33.3666L18.6533 28.517H15.9082C14.898 28.5168 14.0791 27.6972 14.0791 26.6869V21.1986C14.0791 20.1884 14.898 19.3698 15.9082 19.3695H18.6533L23.2266 14.7953Z" fill="#A8AFBD"/>
<path d="M29.9453 14.7787C30.2755 14.4391 30.8056 14.4107 31.1689 14.6986L31.2393 14.7602L31.4609 14.9809C33.7229 17.2897 35.1191 20.4549 35.1191 23.9438C35.1189 27.5449 33.6313 30.8007 31.2393 33.1264C30.8772 33.4784 30.2975 33.4696 29.9453 33.1078C29.5935 32.7456 29.6019 32.1669 29.9639 31.8148C32.0162 29.8195 33.2898 27.0307 33.29 23.9438C33.29 21.0497 32.1707 18.4173 30.3398 16.4555L29.9639 16.0727L29.9004 16.0033C29.6025 15.6483 29.6154 15.1183 29.9453 14.7787Z" fill="#A8AFBD"/>
<path d="M26.6123 17.9516C26.9341 17.6041 27.4627 17.5622 27.833 17.8412L27.9043 17.9018L28.2021 18.1908C29.6507 19.674 30.5449 21.7054 30.5449 23.9438C30.5447 26.3312 29.5267 28.4824 27.9043 29.9848C27.5338 30.3276 26.9555 30.306 26.6123 29.9359C26.2691 29.5653 26.2917 28.9863 26.6621 28.643C27.9262 27.4723 28.7156 25.8006 28.7158 23.9438C28.7158 22.2028 28.0219 20.6243 26.8936 19.4691L26.6621 19.2436L26.5967 19.1772C26.2898 18.8295 26.2907 18.2992 26.6123 17.9516Z" fill="#A8AFBD"/>
</svg>
