<svg width="28" height="28" viewBox="0 0 28 28" fill="none" xmlns="http://www.w3.org/2000/svg">
<rect x="0.5" y="0.5" width="27" height="27" rx="5.5" fill="#12172E" stroke="#543FAF"/>
<rect x="6.70007" y="16.5996" width="14" height="7" rx="1.2" transform="rotate(-45 6.70007 16.5996)" stroke="#7A45FF"/>
<path d="M16.8824 12.074C17.1167 12.3083 17.4966 12.3083 17.7309 12.074C17.9652 11.8397 17.9652 11.4598 17.7309 11.2255L16.8824 12.074ZM14.054 9.24555L16.8824 12.074L17.7309 11.2255L14.9025 8.39702L14.054 9.24555Z" fill="#7A45FF"/>
<path d="M14.054 14.9021C14.2883 15.1364 14.6682 15.1364 14.9025 14.9021C15.1368 14.6678 15.1368 14.2879 14.9025 14.0536L14.054 14.9021ZM11.2255 12.0737L14.054 14.9021L14.9025 14.0536L12.0741 11.2251L11.2255 12.0737Z" fill="#7A45FF"/>
<path d="M11.2255 17.7312C11.4599 17.9655 11.8398 17.9655 12.0741 17.7312C12.3084 17.4969 12.3084 17.117 12.0741 16.8827L11.2255 17.7312ZM8.39712 14.9028L11.2255 17.7312L12.0741 16.8827L9.24564 14.0543L8.39712 14.9028Z" fill="#7A45FF"/>
<path opacity="0.66" d="M13.4176 10.5889L14.8318 12.0031" stroke="#7A45FF" stroke-width="1.2" stroke-linecap="round"/>
<path opacity="0.66" d="M10.5892 13.418L12.0034 14.8322" stroke="#7A45FF" stroke-width="1.2" stroke-linecap="round"/>
</svg>
