<svg width="24" height="24" viewBox="0 0 24 24" fill="none" xmlns="http://www.w3.org/2000/svg">
<g filter="url(#filter0_d_525_7949)">
<path d="M10.9725 7.48306C11.4696 6.76555 12.5304 6.76555 13.0275 7.48306L17.6408 14.1418C18.2151 14.9708 17.6218 16.1036 16.6133 16.1036H7.38672C6.37819 16.1036 5.78487 14.9708 6.35922 14.1418L10.9725 7.48306Z" fill="url(#paint0_linear_525_7949)"/>
<path d="M12.822 7.62543L17.4353 14.2841C17.8948 14.9473 17.4201 15.8536 16.6133 15.8536H7.38672C6.5799 15.8536 6.10524 14.9473 6.56472 14.2841L11.178 7.62543C11.5757 7.05143 12.4243 7.05143 12.822 7.62543Z" stroke="#CCBDFF" stroke-width="0.5"/>
</g>
<defs>
<filter id="filter0_d_525_7949" x="0.134583" y="1.94531" width="23.7308" height="21.1582" filterUnits="userSpaceOnUse" color-interpolation-filters="sRGB">
<feFlood flood-opacity="0" result="BackgroundImageFix"/>
<feColorMatrix in="SourceAlpha" type="matrix" values="0 0 0 0 0 0 0 0 0 0 0 0 0 0 0 0 0 0 127 0" result="hardAlpha"/>
<feOffset dy="1"/>
<feGaussianBlur stdDeviation="3"/>
<feComposite in2="hardAlpha" operator="out"/>
<feColorMatrix type="matrix" values="0 0 0 0 0.537255 0 0 0 0 0.384314 0 0 0 0 1 0 0 0 1 0"/>
<feBlend mode="normal" in2="BackgroundImageFix" result="effect1_dropShadow_525_7949"/>
<feBlend mode="normal" in="SourceGraphic" in2="effect1_dropShadow_525_7949" result="shape"/>
</filter>
<linearGradient id="paint0_linear_525_7949" x1="12" y1="6" x2="12" y2="16.1036" gradientUnits="userSpaceOnUse">
<stop stop-color="#D3C7FF"/>
<stop offset="1" stop-color="#7244FF"/>
</linearGradient>
</defs>
</svg>
