<svg width="48" height="48" viewBox="0 0 48 48" fill="none" xmlns="http://www.w3.org/2000/svg">
<rect opacity="0.9" x="4.5" y="4.5" width="39" height="39" rx="7.5" fill="#2A2E54" stroke="#111326"/>
<path d="M29.9465 14.7773C30.2547 14.4614 30.7381 14.4135 31.096 14.6426L31.2405 14.7588L31.678 15.2061C33.8121 17.493 35.121 20.5666 35.1213 23.9424C35.1212 26.8843 34.1219 29.5922 32.4534 31.7539L33.0823 32.3828L33.1506 32.459C33.471 32.8517 33.4483 33.4317 33.0823 33.7979C32.7162 34.164 32.1362 34.1866 31.7434 33.8662L31.6672 33.7979L24.1331 26.2627V26.2998L17.2024 19.3701H17.2405L14.2874 16.417L14.219 16.3408C13.8987 15.948 13.9212 15.369 14.2874 15.0029C14.6535 14.637 15.2325 14.6143 15.6253 14.9346L15.7014 15.0029L19.3606 18.6621L23.2268 14.7959C23.5828 14.4908 24.1329 14.7431 24.1331 15.2119V23.4336L27.8508 27.1514C28.3999 26.2079 28.7161 25.1126 28.7161 23.9424C28.7159 22.2019 28.0217 20.6237 26.8938 19.4688L26.6614 19.2432L26.5374 19.1045C26.2903 18.7589 26.3119 18.2742 26.6116 17.9502C26.9117 17.6267 27.3926 17.5693 27.7561 17.7891L27.9046 17.9004L28.2014 18.1895C29.6502 19.6725 30.545 21.704 30.5452 23.9424C30.5452 25.6193 30.0396 27.1778 29.178 28.4785L31.1487 30.4492C32.4931 28.6278 33.2911 26.3793 33.2913 23.9424C33.291 21.0487 32.1707 18.4167 30.3401 16.4551L29.9651 16.0703L29.845 15.9297C29.6059 15.5781 29.6388 15.0942 29.9465 14.7773Z" fill="#A8AFBD"/>
<path d="M24.1331 28.8867V32.9502C24.1324 33.4184 23.5826 33.6708 23.2268 33.3662L18.6536 28.5176H15.9085C14.8984 28.5173 14.0796 27.6975 14.0794 26.6875V21.1992C14.0794 20.5571 14.4099 19.9905 14.9104 19.6641L24.1331 28.8867Z" fill="#A8AFBD"/>
<path d="M23.2178 32.0235L20.7734 29.4317H22.3115V18.4541H20.8613L23.2178 16.0977V32.0235ZM15.9082 20.2842H17.7383V27.6016H15.9082C15.4033 27.6014 14.9943 27.1924 14.9941 26.6875V21.1983C14.9943 20.6934 15.4033 20.2844 15.9082 20.2842ZM20.4824 20.2842V27.6016H19.5674V20.2842H20.4824Z" fill="#A8AFBD" stroke="#A8AFBD" stroke-width="1.82952"/>
<path d="M27.2832 18.5723C28.7267 19.909 29.6303 21.8205 29.6303 23.943C29.6303 26.0655 28.7267 27.9769 27.2832 29.3136" stroke="#A8AFBD" stroke-width="1.82952" stroke-linecap="round"/>
<path d="M30.6011 15.416C32.8234 17.5766 34.204 20.5986 34.204 23.943C34.204 27.2874 32.8234 30.3093 30.6011 32.47" stroke="#A8AFBD" stroke-width="1.82952" stroke-linecap="round"/>
</svg>
