<svg width="24" height="25" viewBox="0 0 24 25" fill="none" xmlns="http://www.w3.org/2000/svg">
<g filter="url(#filter0_d_525_7973)">
<path d="M15.5169 10.9725C16.2344 11.4696 16.2344 12.5304 15.5169 13.0275L8.85824 17.6408C8.02924 18.2151 6.89637 17.6218 6.89637 16.6133L6.89637 7.38672C6.89637 6.37819 8.02924 5.78487 8.85824 6.35922L15.5169 10.9725Z" fill="url(#paint0_linear_525_7973)"/>
<path d="M15.3746 12.822L8.71587 17.4353C8.05266 17.8948 7.14637 17.4201 7.14637 16.6133L7.14637 7.38672C7.14637 6.5799 8.05266 6.10524 8.71587 6.56472L15.3746 11.178C15.9486 11.5757 15.9486 12.4243 15.3746 12.822Z" stroke="#CCBDFF" stroke-width="0.5"/>
</g>
<defs>
<filter id="filter0_d_525_7973" x="0.896362" y="1.13477" width="21.1587" height="23.7305" filterUnits="userSpaceOnUse" color-interpolation-filters="sRGB">
<feFlood flood-opacity="0" result="BackgroundImageFix"/>
<feColorMatrix in="SourceAlpha" type="matrix" values="0 0 0 0 0 0 0 0 0 0 0 0 0 0 0 0 0 0 127 0" result="hardAlpha"/>
<feOffset dy="1"/>
<feGaussianBlur stdDeviation="3"/>
<feComposite in2="hardAlpha" operator="out"/>
<feColorMatrix type="matrix" values="0 0 0 0 0.537255 0 0 0 0 0.384314 0 0 0 0 1 0 0 0 1 0"/>
<feBlend mode="normal" in2="BackgroundImageFix" result="effect1_dropShadow_525_7973"/>
<feBlend mode="normal" in="SourceGraphic" in2="effect1_dropShadow_525_7973" result="shape"/>
</filter>
<linearGradient id="paint0_linear_525_7973" x1="17" y1="12" x2="6.89637" y2="12" gradientUnits="userSpaceOnUse">
<stop stop-color="#D3C7FF"/>
<stop offset="1" stop-color="#7244FF"/>
</linearGradient>
</defs>
</svg>
