<svg width="28" height="28" viewBox="0 0 28 28" fill="none" xmlns="http://www.w3.org/2000/svg">
<rect x="0.5" y="0.5" width="27" height="27" rx="5.5" fill="url(#paint0_linear_8237_66808)" stroke="#9C7BFF"/>
<circle opacity="0.5" cx="14" cy="14" r="7" fill="url(#paint1_angular_8237_66808)"/>
<path d="M21 14L14 14" stroke="#F2F4FC" stroke-linecap="round"/>
<circle opacity="0.66" cx="14" cy="14" r="3.5" transform="rotate(90 14 14)" stroke="#F2F4FC"/>
<circle cx="14" cy="14" r="7.5" stroke="#F2F4FC"/>
<path d="M14 10.1718C13.6211 10.1718 13.2578 10.0238 12.9898 9.76036C12.7219 9.49693 12.5714 9.13965 12.5714 8.7671C12.5714 8.39456 12.7219 8.03727 12.9898 7.77384C13.2578 7.51041 13.6211 7.36242 14 7.36242C14.3789 7.36242 14.7422 7.51041 15.0102 7.77384C15.2781 8.03727 15.4286 8.39456 15.4286 8.7671C15.4286 8.95157 15.3916 9.13423 15.3198 9.30465C15.248 9.47508 15.1428 9.62993 15.0102 9.76036C14.8775 9.8908 14.72 9.99427 14.5467 10.0649C14.3734 10.1355 14.1876 10.1718 14 10.1718ZM14 4.83398C12.9391 4.83398 11.9217 5.24837 11.1716 5.98597C10.4214 6.72357 10 7.72397 10 8.7671C10 11.7169 14 14.1673 14 14.1673C14 14.1673 18 11.7169 18 8.7671C18 7.72397 17.5786 6.72357 16.8284 5.98597C16.0783 5.24837 15.0609 4.83398 14 4.83398Z" fill="white"/>
<defs>
<linearGradient id="paint0_linear_8237_66808" x1="13.8993" y1="-6.30032e-06" x2="13.8993" y2="28" gradientUnits="userSpaceOnUse">
<stop stop-color="#7F7AFF"/>
<stop offset="1" stop-color="#681CEB"/>
</linearGradient>
<radialGradient id="paint1_angular_8237_66808" cx="0" cy="0" r="1" gradientUnits="userSpaceOnUse" gradientTransform="translate(14 14) scale(7)">
<stop stop-color="#F2F4FC"/>
<stop offset="1" stop-color="#495170" stop-opacity="0"/>
</radialGradient>
</defs>
</svg>
